<?xml version="1.0" encoding="UTF-8" standalone="no"?>
<svg
   xmlns:dc="http://purl.org/dc/elements/1.1/"
   xmlns:cc="http://creativecommons.org/ns#"
   xmlns:rdf="http://www.w3.org/1999/02/22-rdf-syntax-ns#"
   xmlns:svg="http://www.w3.org/2000/svg"
   xmlns="http://www.w3.org/2000/svg"
   xmlns:sodipodi="http://sodipodi.sourceforge.net/DTD/sodipodi-0.dtd"
   xmlns:inkscape="http://www.inkscape.org/namespaces/inkscape"
   id="emoji"
   viewBox="0 0 72 72"
   version="1.1"
   sodipodi:docname="angry.svg"
   inkscape:version="0.92.4 (5da689c313, 2019-01-14)">
  <metadata
     id="metadata35">
    <rdf:RDF>
      <cc:Work
         rdf:about="">
        <dc:format>image/svg+xml</dc:format>
        <dc:type
           rdf:resource="http://purl.org/dc/dcmitype/StillImage" />
      </cc:Work>
    </rdf:RDF>
  </metadata>
  <defs
     id="defs33" />
  <sodipodi:namedview
     pagecolor="#ffffff"
     bordercolor="#666666"
     borderopacity="1"
     objecttolerance="10"
     gridtolerance="10"
     guidetolerance="10"
     inkscape:pageopacity="0"
     inkscape:pageshadow="2"
     inkscape:window-width="1920"
     inkscape:window-height="986"
     id="namedview31"
     showgrid="false"
     inkscape:zoom="3.2777778"
     inkscape:cx="36"
     inkscape:cy="36"
     inkscape:window-x="-11"
     inkscape:window-y="-11"
     inkscape:window-maximized="1"
     inkscape:current-layer="emoji" />
  <g
     id="color"
     transform="matrix(1.2083333,0,0,1.2083333,-7.4999988,-7.4999988)">
    <path
       d="M 36,12 C 22.7452,12 12,22.7452 12,36 12,49.2548 22.7452,60 36,60 49.2548,60 60,49.2548 60,36 60,22.7452 49.2548,12 36,12 Z"
       id="path2"
       inkscape:connector-curvature="0"
       style="fill:#fcea2b" />
    <path
       d="M 41.5405,37.4966 55.2873,43.81 c 0,0 3.8107,-4.3777 7.3934,-0.753 1.8042,1.6892 1.8974,4.5211 0.2082,6.3253 0,0 0,10e-5 -10e-5,10e-5 -0.0219,0.0235 -0.0441,0.0468 -0.0666,0.07 -0.0338,0.0348 3.46,3.3212 0.3024,6.4791 -1.6137,1.6749 -4.2497,1.8118 -6.0282,0.313 0,0 -2.5219,3.7564 -6.086,-0.2145 -3.5641,-3.9709 0.8088,-7.42 0.8088,-7.42 z"
       id="path4"
       inkscape:connector-curvature="0"
       style="fill:#d0cfce" />
    <path
       d="M 30.4596,37.4966 16.7127,43.81 c 0,0 -3.8107,-4.3777 -7.3934,-0.753 -1.8042,1.6892 -1.8974,4.5211 -0.2082,6.3253 0,0 0,10e-5 10e-5,10e-5 0.0219,0.0235 0.0441,0.0468 0.0666,0.07 0.0338,0.0348 -3.46,3.3212 -0.3024,6.4791 1.6137,1.6749 4.2498,1.8118 6.0283,0.313 0,0 2.5218,3.7566 6.0858,-0.2148 3.564,-3.9714 -0.8088,-7.42 -0.8088,-7.42 z"
       id="path6"
       inkscape:connector-curvature="0"
       style="fill:#d0cfce" />
  </g>
  <g
     id="line"
     transform="matrix(1.2083333,0,0,1.2083333,-7.4999988,-7.4999988)">
    <path
       d="M 46.7165,56.3562 C 39.9698,59.9008 31.9067,59.8797 25.1786,56.3"
       id="path9"
       inkscape:connector-curvature="0"
       style="fill:none;stroke:#000000;stroke-width:2;stroke-linecap:round;stroke-linejoin:round" />
    <path
       d="m 47.4511,55.9513 c -0.2421,0.1393 -0.4869,0.2743 -0.7346,0.4049"
       id="path11"
       inkscape:connector-curvature="0"
       style="fill:none;stroke:#000000;stroke-width:2;stroke-linecap:round;stroke-linejoin:round" />
    <path
       d="M 13.1224,38.3876 C 13.0407,37.5944 12.9999,36.7974 13,36 13,23.2975 23.2975,13 36,13 c 12.7025,0 23,10.2975 23,23 0,0.5043 -0.0161,1.0046 -0.0482,1.501"
       id="path13"
       inkscape:connector-curvature="0"
       style="fill:none;stroke:#000000;stroke-width:2;stroke-linecap:round;stroke-linejoin:round" />
    <line
       x1="23"
       y1="24.000099"
       x2="30"
       y2="28.000099"
       id="line15"
       style="fill:none;stroke:#000000;stroke-width:2;stroke-linecap:round;stroke-linejoin:round" />
    <line
       x1="49"
       y1="24.000099"
       x2="42"
       y2="28.000099"
       id="line17"
       style="fill:none;stroke:#000000;stroke-width:2;stroke-linecap:round;stroke-linejoin:round" />
    <path
       d="m 30,43 c 2.1924,-0.7812 4.5179,-1.1204 6.8421,-0.9981 C 38.9397,41.9366 41.0304,42.2755 43,43"
       id="path19"
       inkscape:connector-curvature="0"
       style="fill:none;stroke:#000000;stroke-width:2;stroke-linecap:round;stroke-linejoin:round" />
    <path
       d="m 22.5,33.0775 c 1.3758,1.1372 3.1261,1.7206 4.9091,1.6364 1.503,-0.0963 2.9361,-0.6696 4.0909,-1.6364"
       id="path21"
       inkscape:connector-curvature="0"
       style="fill:none;stroke:#000000;stroke-width:2;stroke-linecap:round;stroke-linejoin:round" />
    <path
       d="m 40.5,33.0775 c 1.3758,1.1372 3.1261,1.7206 4.9091,1.6364 1.503,-0.0963 2.9361,-0.6696 4.0909,-1.6364"
       id="path23"
       inkscape:connector-curvature="0"
       style="fill:none;stroke:#000000;stroke-width:2;stroke-linecap:round;stroke-linejoin:round" />
    <path
       d="M 30.4596,37.4966 16.7127,43.81 c 0,0 -3.8107,-4.3777 -7.3934,-0.753 -1.8042,1.6892 -1.8974,4.5211 -0.2082,6.3253 0,0 0,10e-5 10e-5,10e-5 0.0219,0.0235 0.0441,0.0468 0.0666,0.07 0.0338,0.0348 -3.46,3.3212 -0.3024,6.4791 1.6137,1.6749 4.2498,1.8118 6.0283,0.313 0,0 2.5218,3.7566 6.0858,-0.2148 3.564,-3.9714 -0.8088,-7.42 -0.8088,-7.42 z"
       id="path25"
       inkscape:connector-curvature="0"
       style="fill:none;stroke:#000000;stroke-width:2;stroke-linecap:round;stroke-linejoin:round" />
    <path
       d="M 41.5405,37.4966 55.2873,43.81 c 0,0 3.8107,-4.3777 7.3934,-0.753 1.8042,1.6892 1.8974,4.5211 0.2082,6.3253 0,0 0,10e-5 -10e-5,10e-5 -0.0219,0.0235 -0.0441,0.0468 -0.0666,0.07 -0.0338,0.0348 3.46,3.3212 0.3024,6.4791 -1.6137,1.6749 -4.2497,1.8118 -6.0282,0.313 0,0 -2.5219,3.7564 -6.086,-0.2145 -3.5641,-3.9709 0.8088,-7.42 0.8088,-7.42 z"
       id="path27"
       inkscape:connector-curvature="0"
       style="fill:none;stroke:#000000;stroke-width:2;stroke-linecap:round;stroke-linejoin:round" />
  </g>
</svg>
