<?xml version="1.0" encoding="UTF-8" standalone="no"?>
<svg
   xmlns:dc="http://purl.org/dc/elements/1.1/"
   xmlns:cc="http://creativecommons.org/ns#"
   xmlns:rdf="http://www.w3.org/1999/02/22-rdf-syntax-ns#"
   xmlns:svg="http://www.w3.org/2000/svg"
   xmlns="http://www.w3.org/2000/svg"
   xmlns:sodipodi="http://sodipodi.sourceforge.net/DTD/sodipodi-0.dtd"
   xmlns:inkscape="http://www.inkscape.org/namespaces/inkscape"
   viewBox="0 0 64 64"
   width="512"
   height="512"
   version="1.1"
   id="svg91"
   sodipodi:docname="bangkok_democracy.svg"
   inkscape:version="0.92.4 (5da689c313, 2019-01-14)">
  <metadata
     id="metadata97">
    <rdf:RDF>
      <cc:Work
         rdf:about="">
        <dc:format>image/svg+xml</dc:format>
        <dc:type
           rdf:resource="http://purl.org/dc/dcmitype/StillImage" />
      </cc:Work>
    </rdf:RDF>
  </metadata>
  <defs
     id="defs95" />
  <sodipodi:namedview
     pagecolor="#ffffff"
     bordercolor="#666666"
     borderopacity="1"
     objecttolerance="10"
     gridtolerance="10"
     guidetolerance="10"
     inkscape:pageopacity="0"
     inkscape:pageshadow="2"
     inkscape:window-width="1920"
     inkscape:window-height="986"
     id="namedview93"
     showgrid="false"
     inkscape:zoom="0.4609375"
     inkscape:cx="1.0847458"
     inkscape:cy="256"
     inkscape:window-x="-11"
     inkscape:window-y="-11"
     inkscape:window-maximized="1"
     inkscape:current-layer="svg91" />
  <g
     id="Filled_outline"
     data-name="Filled outline"
     transform="matrix(0.95,0,0,0.95,1.6,7)">
    <path
       d="m 28,21 h 8 a 4,4 0 0 1 4,4 V 43 H 24 V 25 a 4,4 0 0 1 4,-4 z"
       style="fill:#cfdfe8"
       id="path2"
       inkscape:connector-curvature="0" />
    <rect
       x="28"
       y="17"
       width="8"
       height="4"
       style="fill:#aabece"
       id="rect4" />
    <polygon
       points="40,13 38,17 26,17 24,13 "
       style="fill:#cfdfe8"
       id="polygon6" />
    <circle
       cx="32"
       cy="28"
       r="3"
       style="fill:#aabece"
       id="circle8" />
    <rect
       x="24"
       y="35"
       width="16"
       height="8"
       style="fill:#98a1a1"
       id="rect10" />
    <rect
       x="29"
       y="35"
       width="6"
       height="8"
       style="fill:#ffffff"
       id="rect12" />
    <rect
       x="19"
       y="43"
       width="26"
       height="4"
       style="fill:#aabece"
       id="rect14" />
    <rect
       x="15"
       y="47"
       width="34"
       height="4"
       style="fill:#5a6470"
       id="rect16" />
    <rect
       x="12"
       y="51"
       width="40"
       height="4"
       style="fill:#aabece"
       id="rect18" />
    <rect
       x="9"
       y="55"
       width="46"
       height="4"
       style="fill:#5a6470"
       id="rect20" />
    <rect
       x="3"
       y="47"
       width="12"
       height="4"
       style="fill:#98a1a1"
       id="rect22" />
    <polygon
       points="16,6 19,6 19,37 11,37 11,21 "
       style="fill:#aabece"
       id="polygon24" />
    <polygon
       points="8,4 11,4 11,37 3,37 3,18 "
       style="fill:#cfdfe8"
       id="polygon26" />
    <rect
       x="3"
       y="33"
       width="4"
       height="4"
       style="fill:#5a6470"
       id="rect28" />
    <rect
       x="3"
       y="29"
       width="4"
       height="4"
       style="fill:#98a1a1"
       id="rect30" />
    <rect
       x="3"
       y="25"
       width="4"
       height="4"
       style="fill:#5a6470"
       id="rect32" />
    <rect
       x="3"
       y="21"
       width="4"
       height="4"
       style="fill:#98a1a1"
       id="rect34" />
    <rect
       x="11"
       y="33"
       width="4"
       height="4"
       style="fill:#5a6470"
       id="rect36" />
    <rect
       x="11"
       y="29"
       width="4"
       height="4"
       style="fill:#98a1a1"
       id="rect38" />
    <rect
       x="11"
       y="25"
       width="4"
       height="4"
       style="fill:#5a6470"
       id="rect40" />
    <rect
       x="11"
       y="21"
       width="4"
       height="4"
       style="fill:#98a1a1"
       id="rect42" />
    <rect
       x="49"
       y="47"
       width="12"
       height="4"
       transform="rotate(-180,55,49)"
       style="fill:#98a1a1"
       id="rect44" />
    <rect
       x="5"
       y="41"
       width="8"
       height="6"
       style="fill:#5a6470"
       id="rect46" />
    <rect
       x="3"
       y="37"
       width="12"
       height="4"
       style="fill:#aabece"
       id="rect48" />
    <polygon
       points="15,41 15,37 19,37 19,47 13,47 13,41 "
       style="fill:#cfdfe8"
       id="polygon50" />
    <rect
       x="15"
       y="37"
       width="4"
       height="4"
       style="fill:#98a1a1"
       id="rect52" />
    <polygon
       points="48,6 45,6 45,37 53,37 53,21 "
       style="fill:#aabece"
       id="polygon54" />
    <polygon
       points="56,4 53,4 53,37 61,37 61,18 "
       style="fill:#cfdfe8"
       id="polygon56" />
    <rect
       x="57"
       y="33"
       width="4"
       height="4"
       transform="rotate(-180,59,35)"
       style="fill:#5a6470"
       id="rect58" />
    <rect
       x="57"
       y="29"
       width="4"
       height="4"
       transform="rotate(-180,59,31)"
       style="fill:#98a1a1"
       id="rect60" />
    <rect
       x="57"
       y="25"
       width="4"
       height="4"
       transform="rotate(-180,59,27)"
       style="fill:#5a6470"
       id="rect62" />
    <rect
       x="57"
       y="21"
       width="4"
       height="4"
       transform="rotate(-180,59,23)"
       style="fill:#98a1a1"
       id="rect64" />
    <rect
       x="49"
       y="33"
       width="4"
       height="4"
       transform="rotate(-180,51,35)"
       style="fill:#5a6470"
       id="rect66" />
    <rect
       x="49"
       y="29"
       width="4"
       height="4"
       transform="rotate(-180,51,31)"
       style="fill:#98a1a1"
       id="rect68" />
    <rect
       x="49"
       y="25"
       width="4"
       height="4"
       transform="rotate(-180,51,27)"
       style="fill:#5a6470"
       id="rect70" />
    <rect
       x="49"
       y="21"
       width="4"
       height="4"
       transform="rotate(-180,51,23)"
       style="fill:#98a1a1"
       id="rect72" />
    <rect
       x="51"
       y="41"
       width="8"
       height="6"
       transform="rotate(-180,55,44)"
       style="fill:#5a6470"
       id="rect74" />
    <rect
       x="49"
       y="37"
       width="12"
       height="4"
       transform="rotate(-180,55,39)"
       style="fill:#aabece"
       id="rect76" />
    <polygon
       points="49,41 49,37 45,37 45,47 51,47 51,41 "
       style="fill:#cfdfe8"
       id="polygon78" />
    <rect
       x="45"
       y="37"
       width="4"
       height="4"
       transform="rotate(-180,47,39)"
       style="fill:#98a1a1"
       id="rect80" />
    <rect
       x="8"
       y="41"
       width="2"
       height="3"
       style="fill:#ffffff"
       id="rect82" />
    <rect
       x="54"
       y="41"
       width="2"
       height="3"
       style="fill:#ffffff"
       id="rect84" />
    <path
       d="m 32,32 a 4,4 0 1 0 -4,-4 4,4 0 0 0 4,4 z m 0,-6 a 2,2 0 1 1 -2,2 2,2 0 0 1 2,-2 z"
       id="path86"
       inkscape:connector-curvature="0" />
    <path
       d="M 56.942,3.664 A 1,1 0 0 0 56,3 H 53 A 1,1 0 0 0 52,4 V 14.837 L 48.949,5.684 A 1,1 0 0 0 48,5 H 45 A 1,1 0 0 0 44,6 V 42 H 41 V 25 A 5.009,5.009 0 0 0 37,20.1 V 18 h 1 a 1,1 0 0 0 0.9,-0.553 l 2,-4 A 1,1 0 0 0 40,12 H 24 a 1,1 0 0 0 -0.895,1.447 l 2,4 A 1,1 0 0 0 26,18 h 1 v 2.1 A 5.009,5.009 0 0 0 23,25 V 42 H 20 V 6 A 1,1 0 0 0 19,5 H 16 A 1,1 0 0 0 15.051,5.684 L 12,14.837 V 4 A 1,1 0 0 0 11,3 H 8 A 1,1 0 0 0 7.058,3.664 l -5,14 A 1.006,1.006 0 0 0 2,18 v 23 a 1,1 0 0 0 1,1 h 1 v 4 H 3 a 1,1 0 0 0 -1,1 v 4 a 1,1 0 0 0 1,1 h 8 v 2 H 9 a 1,1 0 0 0 -1,1 v 4 a 1,1 0 0 0 1,1 h 46 a 1,1 0 0 0 1,-1 v -4 a 1,1 0 0 0 -1,-1 h -2 v -2 h 8 a 1,1 0 0 0 1,-1 v -4 a 1,1 0 0 0 -1,-1 h -1 v -4 h 1 a 1,1 0 0 0 1,-1 V 18 A 1.006,1.006 0 0 0 61.942,17.664 Z M 50,32 v -2 h 2 v 2 z m 2,2 v 2 h -2 v -2 z m -2,-6 v -2 h 2 v 2 z m 0,-4 v -2 h 2 v 2 z M 46,7 h 1.279 l 4.334,13 H 49 a 1,1 0 0 0 -1,1 v 15 h -2 z m 0,31 h 2 v 2 h -2 z m 0,4 h 4 v 4 h -4 z m -28,0 v 4 h -4 v -4 z m -2,-2 v -2 h 2 v 2 z m 35,12 v 2 H 13 v -2 z m -24.382,-36 -1,-2 h 12.764 l -1,2 z M 35,18 v 2 h -6 v -2 z m -10,7 a 3,3 0 0 1 3,-3 h 8 a 3,3 0 0 1 3,3 v 9 H 25 Z m 14,11 v 6 h -3 v -6 z m -5,0 v 6 h -4 v -6 z m -9,0 h 3 v 6 h -3 z m -5,8 h 24 v 2 H 20 Z m 28,4 v 2 H 16 V 48 Z M 16.721,7 H 18 V 36 H 16 V 21 A 1,1 0 0 0 15,20 H 12.387 Z M 12,22 h 2 v 2 h -2 z m 0,4 h 2 v 2 h -2 z m 0,4 h 2 v 2 h -2 z m 0,4 h 2 v 2 H 12 Z M 4,18.173 8.705,5 H 10 V 36 H 8 V 21 A 1,1 0 0 0 7,20 H 4 Z M 4,22 h 2 v 2 H 4 Z m 0,4 h 2 v 2 H 4 Z m 0,4 h 2 v 2 H 4 Z m 0,4 h 2 v 2 H 4 Z m 0,4 h 10 v 2 H 4 Z m 6,6 v -2 h 2 v 4 H 6 v -4 h 2 v 2 z m -6,6 v -2 h 10 v 2 z m 50,6 v 2 H 10 v -2 z m 6,-6 H 50 v -2 h 10 z m -4,-6 v -2 h 2 v 4 h -6 v -4 h 2 v 2 z m 4,-4 H 50 v -2 h 10 z m 0,-4 h -2 v -2 h 2 z m 0,-4 h -2 v -2 h 2 z m 0,-4 h -2 v -2 h 2 z m 0,-4 h -2 v -2 h 2 z m 0,-4 h -3 a 1,1 0 0 0 -1,1 V 36 H 54 V 5 h 1.3 L 60,18.173 Z"
       id="path88"
       inkscape:connector-curvature="0" />
  </g>
</svg>
