<?xml version="1.0" encoding="iso-8859-1"?>
<!-- Generator: Adobe Illustrator 19.0.0, SVG Export Plug-In . SVG Version: 6.00 Build 0)  -->
<svg xmlns="http://www.w3.org/2000/svg" xmlns:xlink="http://www.w3.org/1999/xlink" version="1.1" id="Capa_1" x="0px" y="0px" viewBox="0 0 512 512" style="enable-background:new 0 0 512 512;" xml:space="preserve" width="512" height="512">
<g id="XMLID_1616_">
	<g id="XMLID_1617_">
		<g id="XMLID_1618_">
			<g id="XMLID_1619_">
				<path id="XMLID_1622_" style="fill:#E2A67D;" d="M388.12,238.24v113.81h-34.26V238.24c0-9.46,7.67-17.13,17.13-17.13      c4.72,0,9.01,1.92,12.11,5.02C386.2,229.23,388.12,233.51,388.12,238.24z"/>
				<rect id="XMLID_1625_" x="353.86" y="327.12" style="fill:#B77E53;" width="34.26" height="24.93"/>
				<path id="XMLID_1628_" style="fill:#8E4F20;" d="M388.119,238.238v24.132h-34.257v-24.132c0-9.456,7.672-17.128,17.128-17.128      c4.724,0,9.01,1.916,12.107,5.021C386.203,229.228,388.119,233.506,388.119,238.238z"/>
			</g>
			<g id="XMLID_1629_">
				<path id="XMLID_1632_" style="fill:#E2A67D;" d="M158.14,238.24v113.81h-34.26V238.24c0-9.46,7.67-17.13,17.13-17.13      c4.72,0,9.01,1.92,12.11,5.02C156.22,229.23,158.14,233.51,158.14,238.24z"/>
				<rect id="XMLID_1635_" x="123.88" y="327.12" style="fill:#B77E53;" width="34.26" height="24.93"/>
				<path id="XMLID_1638_" style="fill:#8E4F20;" d="M158.138,238.238v24.132h-34.257v-24.132c0-9.456,7.672-17.128,17.128-17.128      c4.724,0,9.01,1.916,12.107,5.021C156.222,229.228,158.138,233.506,158.138,238.238z"/>
			</g>
		</g>
		<rect id="XMLID_1641_" x="79.21" y="340.12" style="fill:#B77E53;" width="357.03" height="116.31"/>
		<g id="XMLID_1646_">
			<g id="XMLID_1643_">
				<g id="XMLID_1644_">
					<path id="XMLID_1645_" style="fill:#8E4F20;" d="M436.24,340.12v116.31H373.1v-17.42c0-11.02,8.46-20.09,19.23-21.08v-1.96       c0-10.96,8.37-20,19.05-21.07v-54.78H436.24z"/>
				</g>
			</g>
		</g>
		<path id="XMLID_1652_" style="fill:#8E4F20;" d="M381.75,427.91v28.52h-251.5v-28.52c0-10.42,7.51-19.11,17.4-20.97v-21.28    c0-8.57,5.14-15.94,12.49-19.25l14.58-26.29h162.56l14.58,26.29c7.35,3.31,12.49,10.68,12.49,19.25v21.28    C374.24,408.8,381.75,417.49,381.75,427.91z"/>
		<path id="XMLID_1655_" style="fill:#8E4F20;" d="M138.9,439.01v17.42H79.21V340.12h21.41v54.78    c10.68,1.07,19.05,10.11,19.05,21.07v1.96C130.44,418.92,138.9,427.99,138.9,439.01z"/>
		<path id="XMLID_1656_" style="fill:#E2A67D;" d="M279.46,97.2v203.62h-46.92V97.2c0-12.96,10.51-23.46,23.46-23.46    c6.48,0,12.34,2.62,16.59,6.87C276.83,84.86,279.46,90.72,279.46,97.2z"/>
		<path id="XMLID_1659_" style="fill:#B77E53;" d="M279.46,195.54v98.26H257v-75.81C257,205.61,267.08,195.54,279.46,195.54z"/>
		<path id="XMLID_1662_" style="fill:#B77E53;" d="M254.7,218v75.8h-22.16v-98.25C244.79,195.7,254.7,205.72,254.7,218z"/>
		<path id="XMLID_1665_" style="fill:#723700;" d="M279.46,97.196v33.57h-46.92v-33.57c0-12.96,10.51-23.46,23.46-23.46    c6.48,0,12.34,2.62,16.59,6.87C276.83,84.856,279.46,90.716,279.46,97.196z"/>
		<path id="XMLID_1668_" style="fill:#B77E53;" d="M303.99,289.5v35.51h-95.98V289.5c0-4.8,3.89-8.7,8.7-8.7h78.58    C300.1,280.8,303.99,284.7,303.99,289.5z"/>
		<rect id="XMLID_1671_" x="208.01" y="301.85" style="fill:#8E4F20;" width="95.98" height="23.16"/>
		<path id="XMLID_1674_" style="fill:#723700;" d="M345,380.85H167l9.03-16.29l25.824-46.562c1.078-1.943,3.124-3.148,5.346-3.148    h97.6c2.222,0,4.268,1.205,5.346,3.148l25.824,46.562L345,380.85z"/>
		<polygon id="XMLID_1677_" style="fill:#592800;" points="345,380.85 167,380.85 176.03,364.56 335.97,364.56   "/>
		<path id="XMLID_3194_" style="fill:#E2A67D;" d="M351.347,423.556H160.653v-37.899c0-4.474,3.627-8.101,8.101-8.101h174.492    c4.474,0,8.101,3.627,8.101,8.101V423.556z"/>
		<path id="XMLID_3191_" style="fill:#B77E53;" d="M368.75,444.906h-225.5v-16.993c0-4.615,3.742-8.357,8.357-8.357h208.786    c4.615,0,8.357,3.742,8.357,8.357V444.906z"/>
		<rect id="XMLID_1681_" x="118.04" y="444.91" style="fill:#E2A67D;" width="271.55" height="23.03"/>
		<rect id="XMLID_1684_" x="373.1" y="444.91" style="fill:#B77E53;" width="16.49" height="23.03"/>
		<rect id="XMLID_1687_" x="118.04" y="444.91" style="fill:#B77E53;" width="20.86" height="23.03"/>
		<g id="XMLID_1688_">
			<g id="XMLID_1689_">
				<path id="XMLID_1692_" style="fill:#E2A67D;" d="M87.62,277.8v138.98H45.78V277.8c0-11.55,9.37-20.92,20.92-20.92      c5.77,0,11,2.34,14.78,6.13C85.28,266.8,87.62,272.02,87.62,277.8z"/>
				<rect id="XMLID_1695_" x="45.78" y="394.8" style="fill:#B77E53;" width="41.84" height="21.98"/>
				<path id="XMLID_1698_" style="fill:#8E4F20;" d="M87.616,277.799v29.469H45.782v-29.469c0-11.548,9.369-20.917,20.917-20.917      c5.769,0,11.003,2.34,14.785,6.132C85.276,266.796,87.616,272.02,87.616,277.799z"/>
				<path id="XMLID_3170_" style="fill:#E2A67D;" d="M106.67,444.906H26.728v-28.932c0-4.516,3.661-8.177,8.177-8.177h63.589      c4.516,0,8.177,3.661,8.177,8.177V444.906z"/>
				<rect id="XMLID_1702_" x="26.73" y="417.84" style="fill:#B77E53;" width="79.94" height="27.07"/>
				<path id="XMLID_3164_" style="fill:#E2A67D;" d="M125.898,467.944H7.5v-28.932c0-4.516,3.661-8.177,8.177-8.177h102.044      c4.516,0,8.177,3.661,8.177,8.177V467.944z"/>
			</g>
			<g id="XMLID_1703_">
				<path id="XMLID_1707_" style="fill:#E2A67D;" d="M466.22,277.8v138.98h-41.84V277.8c0-11.55,9.37-20.92,20.92-20.92      c5.77,0,11,2.34,14.79,6.13C463.88,266.8,466.22,272.02,466.22,277.8z"/>
				<rect id="XMLID_1710_" x="424.38" y="394.8" style="fill:#B77E53;" width="41.84" height="21.98"/>
				<path id="XMLID_1713_" style="fill:#8E4F20;" d="M466.218,277.799v29.469h-41.833v-29.469c0-11.548,9.369-20.917,20.917-20.917      c5.769,0,11.003,2.34,14.785,6.132C463.878,266.796,466.218,272.02,466.218,277.799z"/>
				<path id="XMLID_1716_" style="fill:#E2A67D;" d="M485.27,415.97v28.94h-79.94v-28.94c0-4.51,3.66-8.17,8.18-8.17h63.59      C481.61,407.8,485.27,411.46,485.27,415.97z"/>
				<rect id="XMLID_1719_" x="405.33" y="417.84" style="fill:#B77E53;" width="79.94" height="27.07"/>
				<path id="XMLID_3145_" style="fill:#E2A67D;" d="M504.5,467.944H386.102v-28.932c0-4.516,3.661-8.177,8.177-8.177h102.044      c4.516,0,8.177,3.661,8.177,8.177V467.944z"/>
			</g>
		</g>
		<path id="XMLID_3140_" style="fill:#723700;" d="M282.106,467.944h-52.212v-62.816c0-3.785,3.068-6.853,6.853-6.853h38.506    c3.785,0,6.853,3.068,6.853,6.853V467.944z"/>
		<g id="XMLID_1720_">
			<path id="XMLID_1725_" style="fill:#E2A67D;" d="M288.908,217.995v62.808h-18.905v-62.808c0-5.218,4.234-9.452,9.452-9.452     c2.607,0,4.972,1.057,6.681,2.771C287.851,213.022,288.908,215.383,288.908,217.995z"/>
			<path id="XMLID_1728_" style="fill:#8E4F20;" d="M288.908,217.995v13.317h-18.905v-13.317c0-5.218,4.234-9.452,9.452-9.452     c2.607,0,4.972,1.057,6.681,2.771C287.851,213.022,288.908,215.383,288.908,217.995z"/>
		</g>
		<g id="XMLID_1729_">
			<path id="XMLID_1732_" style="fill:#E2A67D;" d="M241.701,217.995v62.808h-18.905v-62.808c0-5.218,4.234-9.452,9.452-9.452     c2.607,0,4.972,1.057,6.681,2.771C240.644,213.022,241.701,215.383,241.701,217.995z"/>
			<path id="XMLID_1735_" style="fill:#8E4F20;" d="M241.701,217.995v13.317h-18.905v-13.317c0-5.218,4.234-9.452,9.452-9.452     c2.607,0,4.972,1.057,6.681,2.771C240.644,213.022,241.701,215.383,241.701,217.995z"/>
		</g>
	</g>
	<g id="XMLID_1736_">
		<path id="XMLID_1737_" d="M445.301,344.21c-4.143,0-7.5,3.358-7.5,7.5v0.676c0,4.142,3.357,7.5,7.5,7.5s7.5-3.358,7.5-7.5v-0.676    C452.801,347.568,449.443,344.21,445.301,344.21z"/>
		<path id="XMLID_1738_" d="M66.699,344.21c-4.142,0-7.5,3.358-7.5,7.5v0.676c0,4.142,3.358,7.5,7.5,7.5s7.5-3.358,7.5-7.5v-0.676    C74.199,347.568,70.841,344.21,66.699,344.21z"/>
		<path id="XMLID_1739_" d="M496.323,423.335h-3.551v-7.361c0-8.644-7.032-15.677-15.677-15.677h-3.381V277.801    c0-13.072-8.875-24.103-20.914-27.402v-22.646c0-4.142-3.357-7.5-7.5-7.5s-7.5,3.358-7.5,7.5v22.646    c-12.039,3.299-20.914,14.331-20.914,27.402v54.82h-21.27V238.24c0-10.964-7.205-20.275-17.127-23.455v-17.529    c0-4.142-3.357-7.5-7.5-7.5s-7.5,3.358-7.5,7.5v17.529c-9.922,3.18-17.126,12.49-17.126,23.455v53.671c0,4.142,3.357,7.5,7.5,7.5    s7.5-3.358,7.5-7.5v-22.042h19.253v62.753h-19.253v-6.533c0-4.142-3.357-7.5-7.5-7.5s-7.5,3.358-7.5,7.5v6.533h-19.531    l-10.125-18.26c-1.24-2.238-3.062-4.031-5.214-5.247v-19.61c0-8.558-6.674-15.568-15.087-16.146v-55.364    c0-6.652-3.861-12.405-9.451-15.179v-7.728c0-4.142-3.357-7.5-7.5-7.5s-7.5,3.358-7.5,7.5v7.728    c-5.59,2.774-9.451,8.527-9.451,15.179v55.307H249.2v-55.307c0-6.535-3.724-12.208-9.156-15.036v-44.07h31.912v2.022    c0,4.142,3.357,7.5,7.5,7.5s7.5-3.358,7.5-7.5V97.195c0-14.483-9.999-26.671-23.456-30.032V44.056c0-4.142-3.357-7.5-7.5-7.5    c-4.142,0-7.5,3.358-7.5,7.5v23.106c-13.457,3.362-23.456,15.549-23.456,30.032v105.479c-5.749,2.715-9.747,8.553-9.747,15.321    v55.379c-8.275,0.718-14.792,7.673-14.792,16.131v19.61c-2.151,1.215-3.973,3.009-5.213,5.246l-10.126,18.261h-19.531V238.24    c0-10.964-7.204-20.275-17.126-23.455v-17.529c0-4.142-3.358-7.5-7.5-7.5s-7.5,3.358-7.5,7.5v17.529    c-9.922,3.18-17.126,12.49-17.126,23.455v94.381H95.113v-54.82c0-13.071-8.875-24.103-20.914-27.402v-22.646    c0-4.142-3.358-7.5-7.5-7.5s-7.5,3.358-7.5,7.5v22.646c-12.039,3.299-20.914,14.331-20.914,27.402V400.3H34.9    c-8.641,0-15.67,7.029-15.67,15.67v7.366h-3.553C7.033,423.335,0,430.368,0,439.012v28.932c0,4.142,3.358,7.5,7.5,7.5h54.497    c4.142,0,7.5-3.358,7.5-7.5s-3.358-7.5-7.5-7.5H15v-21.432c0-0.373,0.304-0.677,0.677-0.677h102.044    c0.373,0,0.677,0.304,0.677,0.677v21.432H96.075c-4.142,0-7.5,3.358-7.5,7.5s3.358,7.5,7.5,7.5H504.5c4.143,0,7.5-3.358,7.5-7.5    v-28.932C512,430.368,504.968,423.335,496.323,423.335z M361.364,254.869V238.24c0-5.308,4.318-9.626,9.626-9.626    c5.309,0,9.627,4.318,9.627,9.626v16.628H361.364z M477.772,415.974v7.361H412.83v-7.361c0-0.373,0.304-0.677,0.677-0.677h63.589    C477.469,415.297,477.772,415.601,477.772,415.974z M394.279,423.335c-8.102,0-14.788,6.178-15.595,14.071h-2.435v-9.493    c0-8.744-7.113-15.857-15.856-15.857h-1.546v-26.399c0-6.942-4.561-12.834-10.841-14.852l-1.942-3.502h70.822v32.994h-3.38    c-8.645,0-15.677,7.033-15.677,15.677v7.361H394.279z M133.398,452.406h88.996v8.038h-88.996V452.406z M222.394,427.056v10.35    H150.75v-9.493c0-0.473,0.384-0.857,0.857-0.857H222.394z M222.394,405.128v6.928h-54.242v-26.399c0-0.332,0.27-0.601,0.602-0.601    h174.492c0.332,0,0.602,0.27,0.602,0.601v26.399h-54.241v-6.928c0-7.914-6.439-14.353-14.354-14.353h-38.506    C228.833,390.775,222.394,397.214,222.394,405.128z M361.25,437.406h-71.644v-10.35h70.787c0.473,0,0.856,0.384,0.856,0.857    V437.406z M289.606,452.406h88.996v8.038h-88.996V452.406z M458.715,319.62h-26.828v-4.854h26.828V319.62z M431.887,400.297    V334.62h26.828v65.677H431.887z M445.301,264.387c7.396,0,13.414,6.018,13.414,13.414v21.965h-26.828v-21.965    C431.887,270.405,437.904,264.387,445.301,264.387z M416.887,347.622v4.682h-79.14l-2.596-4.682H416.887z M296.494,307.349    h-80.988v-17.844c0-0.663,0.539-1.202,1.202-1.202h78.584c0.663,0,1.202,0.539,1.202,1.202V307.349z M277.505,238.811h3.902    v34.491h-3.902V238.811z M277.505,217.996c0-0.761,0.443-1.415,1.08-1.737c0.286,0.033,0.576,0.055,0.871,0.055    s0.585-0.021,0.871-0.055c0.638,0.321,1.08,0.975,1.08,1.737v5.815h-3.902V217.996z M230.297,217.996    c0-0.788,0.472-1.464,1.145-1.772c0.36,0.053,0.726,0.09,1.101,0.09c0.209,0,0.414-0.014,0.618-0.031    c0.614,0.329,1.038,0.969,1.038,1.713v5.815h-3.902V217.996z M234.2,238.811v34.491h-3.902v-34.491H234.2z M240.044,143.889    v-5.623h31.912v5.623H240.044z M256,81.239c8.798,0,15.956,7.158,15.956,15.956v26.071h-31.912V97.195    C240.044,88.396,247.202,81.239,256,81.239z M207.927,322.506c0.026,0,0.052,0.004,0.078,0.004c0.53,0,95.458,0,95.988,0    c0.026,0,0.052-0.004,0.078-0.004l26.366,47.55h-16.907V356.92c0-4.142-3.357-7.5-7.5-7.5s-7.5,3.358-7.5,7.5v13.136h-10.016    V356.92c0-4.142-3.357-7.5-7.5-7.5s-7.5,3.358-7.5,7.5v13.136H263.5V356.92c0-4.142-3.357-7.5-7.5-7.5c-4.142,0-7.5,3.358-7.5,7.5    v13.136h-10.016V356.92c0-4.142-3.358-7.5-7.5-7.5s-7.5,3.358-7.5,7.5v13.136h-10.015V356.92c0-4.142-3.358-7.5-7.5-7.5    s-7.5,3.358-7.5,7.5v13.136H181.56L207.927,322.506z M141.009,228.614c5.308,0,9.626,4.318,9.626,9.626v16.628h-19.252V238.24    C131.383,232.932,135.702,228.614,141.009,228.614z M131.383,269.869h19.252v62.753h-19.252V269.869z M176.849,347.622    l-2.596,4.682h-79.14v-4.682H176.849z M53.285,314.766h26.828v4.854H53.285V314.766z M66.699,264.387    c7.396,0,13.414,6.018,13.414,13.414v21.965H53.285v-21.965C53.285,270.405,59.302,264.387,66.699,264.387z M53.285,334.62h26.828    v65.68H53.285V334.62z M34.23,415.97c0-0.37,0.3-0.67,0.67-0.67h63.59c0.375,0,0.68,0.3,0.68,0.67v7.366H34.23V415.97z     M117.721,423.335h-3.551v-7.366c0-8.641-7.034-15.67-15.68-15.67h-3.377v-32.997h70.822l-1.942,3.502    c-6.28,2.018-10.841,7.91-10.841,14.852v26.399h-1.545c-8.744,0-15.857,7.113-15.857,15.857v9.493h-2.434    C132.509,429.514,125.823,423.335,117.721,423.335z M237.394,460.444v-54.669h37.212v54.669H237.394z M497,460.444H393.603    v-21.432c0-0.373,0.304-0.677,0.677-0.677h102.044c0.373,0,0.677,0.304,0.677,0.677V460.444z"/>
		<path id="XMLID_1771_" d="M400.731,391.553c0-4.142-3.357-7.5-7.5-7.5h-13.34c-4.143,0-7.5,3.358-7.5,7.5s3.357,7.5,7.5,7.5h13.34    C397.374,399.053,400.731,395.695,400.731,391.553z"/>
		<path id="XMLID_1772_" d="M139.608,391.553c0-4.142-3.358-7.5-7.5-7.5h-13.34c-4.142,0-7.5,3.358-7.5,7.5s3.358,7.5,7.5,7.5h13.34    C136.25,399.053,139.608,395.695,139.608,391.553z"/>
	</g>
</g>















</svg>
