<svg height="480pt" viewBox="0 0 480 480" width="480pt" xmlns="http://www.w3.org/2000/svg"><path d="m448 288h-48l-16-48h-40l-8-32h-32l-8-40h-32l-8-64h-32l-8 64h-32l-8 40h-32l-8 32h-40l-16 48h-48l-24 32h464zm0 0" fill="#f4b12a"/><path d="m304 208h-128l8-40h112zm0 0" fill="#d38d1c"/><path d="m32 288h416l24 32h-464zm0 0" fill="#c6643e"/><path d="m8 320h464v80h-464zm0 0" fill="#e9e9e9"/><path d="m8 400h464v72h-464zm0 0" fill="#4c3d38"/><path d="m384 240h-288l-16 48h320zm0 0" fill="#d88445"/><path d="m232 0h16v104h-16zm0 0" fill="#f4b12a"/><path d="m184 144h16v24h-16zm0 0" fill="#d38d1c"/><path d="m144 184h16v24h-16zm0 0" fill="#f4b12a"/><g fill="#261d1d"><path d="m40 424h16v24h-16zm0 0"/><path d="m80 424h16v24h-16zm0 0"/><path d="m120 424h16v24h-16zm0 0"/><path d="m344 424h16v24h-16zm0 0"/><path d="m384 424h16v24h-16zm0 0"/><path d="m424 424h16v24h-16zm0 0"/></g><path d="m280 144h16v24h-16zm0 0" fill="#d38d1c"/><path d="m320 184h16v24h-16zm0 0" fill="#f4b12a"/><path d="m368 216h16v24h-16zm0 0" fill="#d88445"/><path d="m312 272v96h-144v-96l72-64zm0 0" fill="#d6d7d8"/><path d="m120 352c-8.800781 0-16 7.199219-16 16v8h32v-8c0-8.800781-7.199219-16-16-16zm0 0" fill="#999"/><path d="m56 352c-8.800781 0-16 7.199219-16 16v8h32v-8c0-8.800781-7.199219-16-16-16zm0 0" fill="#999"/><path d="m424 352c-8.800781 0-16 7.199219-16 16v8h32v-8c0-8.800781-7.199219-16-16-16zm0 0" fill="#999"/><path d="m360 352c-8.800781 0-16 7.199219-16 16v8h32v-8c0-8.800781-7.199219-16-16-16zm0 0" fill="#999"/><path d="m171.199219 472 32-32h73.601562l32 32h22.398438l-48-48h-86.398438l-48 48zm0 0" fill="#d6d7d8"/><path d="m96 216h16v24h-16zm0 0" fill="#d88445"/><path d="m432 264h16v24h-16zm0 0" fill="#c6643e"/><path d="m32 264h16v24h-16zm0 0" fill="#c6643e"/><path d="m240 256-32 32v80h64v-80zm0 0" fill="#999"/><path d="m152 264h32v16h-32zm0 0" fill="#d6d7d8"/><path d="m288 264h32v16h-32zm0 0" fill="#d6d7d8"/><path d="m452 280h-4v-16h-16v16h-26.398438l-16-48h-5.601562v-16h-16v16h-17.601562l-8-32h-6.398438v-16h-16v16h-9.601562l-8-40h-6.398438v-16h-16v16h-8.800781l-8-64h-15.199219v-96h-16v96h-15.199219l-8 64h-8.800781v-16h-16v16h-6.398438l-8 40h-9.601562v-16h-16v16h-6.398438l-8 32h-17.601562v-16h-16v16h-5.601562l-16 48h-26.398438v-16h-16v16h-4l-28 37.601562v162.398438h480v-162.398438zm-416 16h100v-16h-44.800781l10.402343-32h66.398438v-16h-21.601562l4-16h57.601562v-16h-22.398438l4.796876-24h32.800781l8-64h17.601562l8 64h32.800781l4.796876 24h-22.398438v16h57.601562l4 16h-21.601562v16h66.398438l10.402343 32h-52.800781v16h108l12 16h-120v16h128v64h-448v-64h128v-16h-120zm143.199219 168 24-24h73.601562l24 24zm144 0-40-40h-86.398438l-40 40h-140.800781v-56h448v56zm0 0"/><path d="m120 344c-13.601562 0-24 10.398438-24 24v8h16v-8c0-4.800781 3.199219-8 8-8s8 3.199219 8 8v8h16v-8c0-13.601562-10.398438-24-24-24zm0 0"/><path d="m40 424h16v24h-16zm0 0"/><path d="m80 424h16v24h-16zm0 0"/><path d="m120 424h16v24h-16zm0 0"/><path d="m344 424h16v24h-16zm0 0"/><path d="m384 424h16v24h-16zm0 0"/><path d="m424 424h16v24h-16zm0 0"/><path d="m160 376h160v-96h8v-16h-20.800781l-67.199219-58.398438-67.199219 58.398438h-20.800781v16h8zm120-80h24v32h-24zm-16 32h-48v-36.800781l24-24 24 24zm-32 32h-16v-16h16zm16-16h16v16h-16zm-48-16h-24v-32h24zm-24 16h24v16h-24zm104 16v-16h24v16zm-40-133.601562 60.800781 53.601562h-25.601562l-35.199219-35.199219-35.199219 35.199219h-25.601562zm0 0"/><path d="m56 344c-13.601562 0-24 10.398438-24 24v8h16v-8c0-4.800781 3.199219-8 8-8s8 3.199219 8 8v8h16v-8c0-13.601562-10.398438-24-24-24zm0 0"/><path d="m416 368c0-4.800781 3.199219-8 8-8s8 3.199219 8 8v8h16v-8c0-13.601562-10.398438-24-24-24s-24 10.398438-24 24v8h16zm0 0"/><path d="m352 368c0-4.800781 3.199219-8 8-8s8 3.199219 8 8v8h16v-8c0-13.601562-10.398438-24-24-24s-24 10.398438-24 24v8h16zm0 0"/></svg>