<svg height="496pt" viewBox="-8 0 496 496.04757" width="496pt" xmlns="http://www.w3.org/2000/svg"><path d="m240.023438 72.046875c-4.417969 0-8-3.582031-8-8v-32c0-4.417969 3.582031-8 8-8 4.417968 0 8 3.582031 8 8v32c0 4.417969-3.582032 8-8 8zm0 0" fill="#f3af3e"/><path d="m258.421875 24.046875c0 10.164063-8.234375 18.402344-18.398437 18.402344-10.160157 0-18.398438-8.238281-18.398438-18.402344 0-10.160156 8.238281-18.398437 18.398438-18.398437 10.164062 0 18.398437 8.238281 18.398437 18.398437zm0 0" fill="#fbb540"/><path d="m352.023438 360.046875h-224v-8l-8-24h240l-8 24zm0 0" fill="#277baa"/><path d="m168.023438 168.046875 8 24h128l8-24zm0 0" fill="#277baa"/><path d="m328.023438 296.046875h-176v-16l-8-24h192l-8 24zm0 0" fill="#428dc5"/><path d="m176.023438 192.046875h128v32h-128zm0 0" fill="#428dc5"/><path d="m128.023438 352.046875h224v40h-224zm0 0" fill="#dc4d41"/><path d="m224.023438 176.046875h32v40h-32zm0 0" fill="#fbb540"/><path d="m232.023438 184.046875h16v24h-16zm0 0" fill="#4799cf"/><path d="m224.023438 360.046875h32v32h-32zm0 0" fill="#b94137"/><path d="m288.023438 360.046875h32v32h-32zm0 0" fill="#b94137"/><path d="m160.023438 360.046875h32v32h-32zm0 0" fill="#b94137"/><path d="m317.894531 168.046875h-155.742187c-5.59375 0-10.128906-4.535156-10.128906-10.128906-.007813-3.636719 1.941406-6.996094 5.105468-8.796875l6.96875-4c28.285156-16.136719 49.621094-26.160156 59.925782-57.074219v-16h32v16c10.304687 30.914063 31.640624 40.9375 59.929687 57.105469l6.964844 4c3.164062 1.800781 5.113281 5.160156 5.105469 8.800781-.015626 5.578125-4.546876 10.09375-10.128907 10.09375zm0 0" fill="#1f6c8c"/><path d="m40.023438 424.046875h400v32h-400zm0 0" fill="#cdcdcd"/><path d="m8.023438 456.046875h464v32h-464zm0 0" fill="#b9b9b9"/><path d="m192.023438 400.046875c-4.417969 0-8-3.582031-8-8v-64c0-4.417969 3.582031-8 8-8 4.417968 0 8 3.582031 8 8v64c0 4.417969-3.582032 8-8 8zm0 0" fill="#f35548"/><path d="m288.023438 400.046875c-4.417969 0-8-3.582031-8-8v-64c0-4.417969 3.582031-8 8-8 4.417968 0 8 3.582031 8 8v64c0 4.417969-3.582032 8-8 8zm0 0" fill="#f35548"/><path d="m320.023438 400.046875c-4.417969 0-8-3.582031-8-8v-64c0-4.417969 3.582031-8 8-8 4.417968 0 8 3.582031 8 8v64c0 4.417969-3.582032 8-8 8zm0 0" fill="#f35548"/><path d="m160.023438 400.046875c-4.417969 0-8-3.582031-8-8v-64c0-4.417969 3.582031-8 8-8 4.417968 0 8 3.582031 8 8v64c0 4.417969-3.582032 8-8 8zm0 0" fill="#f35548"/><path d="m192.023438 304.046875c-4.417969 0-8-3.582031-8-8v-40c0-4.417969 3.582031-8 8-8 4.417968 0 8 3.582031 8 8v40c0 4.417969-3.582032 8-8 8zm0 0" fill="#4a9ddc"/><path d="m288.023438 304.046875c-4.417969 0-8-3.582031-8-8v-40c0-4.417969 3.582031-8 8-8 4.417968 0 8 3.582031 8 8v40c0 4.417969-3.582032 8-8 8zm0 0" fill="#4a9ddc"/><path d="m216.023438 256.046875h16v16h-16zm0 0" fill="#277baa"/><path d="m248.023438 256.046875h16v16h-16zm0 0" fill="#277baa"/><g fill="#428dc5"><path d="m152.023438 320.046875h16v32h-16zm0 0"/><path d="m184.023438 320.046875h16v32h-16zm0 0"/><path d="m280.023438 320.046875h16v32h-16zm0 0"/><path d="m312.023438 320.046875h16v32h-16zm0 0"/></g><path d="m367.039062 328.046875h-254.03125c-4.960937 0-8.984374-4.023437-8.984374-8.984375 0-4.121094 2.808593-7.71875 6.808593-8.71875l7.839844-1.960938c11.535156-2.878906 22.71875-7.015624 33.351563-12.335937h176c10.632812 5.320313 21.816406 9.457031 33.351562 12.335937l7.839844 1.960938c4 1 6.808594 4.597656 6.808594 8.71875 0 4.960938-4.023438 8.984375-8.984376 8.984375zm0 0" fill="#1f6c8c"/><path d="m72.023438 392.046875h336v32h-336zm0 0" fill="#d9d9d9"/><path d="m296.023438 488.046875h-112l16-96h80zm0 0" fill="#ebebeb"/><path d="m189.359375 456.046875h101.328125l-5.328125-32h-90.671875zm0 0" fill="#e4e4e4"/><path d="m189.359375 456.046875-5.335937 32h112l-5.335938-32zm0 0" fill="#dcdcdc"/><path d="m351.121094 256.046875h-222.191406c-4.917969 0-8.90625-3.984375-8.90625-8.902344 0-4.152343 2.871093-7.753906 6.921874-8.679687l16.894532-3.855469c10.769531-2.464844 21.292968-5.890625 31.449218-10.242187l.734376-.320313h128c10.644531 4.558594 21.679687 8.152344 32.96875 10.738281l16.113281 3.679688c4.046875.925781 6.917969 4.527344 6.917969 8.679687 0 4.917969-3.984376 8.902344-8.902344 8.902344zm0 0" fill="#1f6c8c"/><path d="m260.023438 72.046875c0 11.046875-8.953126 20-20 20-11.046876 0-20-8.953125-20-20s8.953124-20 20-20c11.046874 0 20 8.953125 20 20zm0 0" fill="#277baa"/><path d="m472.023438 448.046875h-24v-24c0-4.417969-3.582032-8-8-8h-24v-24c0-4.417969-3.582032-8-8-8h-48v-30.703125l5.761718-17.296875h1.253906c8.582032.007813 15.820313-6.390625 16.871094-14.90625 1.046875-8.519531-4.421875-16.480469-12.75-18.558594l-7.839844-1.957031c-9.386718-2.414062-18.523437-5.703125-27.296874-9.816406v-9.464844l5.761718-17.296875h9.335938c8.609375.019531 15.859375-6.445313 16.824218-15.003906.960938-8.558594-4.664062-16.472657-13.066406-18.371094l-16.101562-3.6875c-9.121094-2.140625-18.0625-4.96875-26.753906-8.464844v-25.183593l5.761718-17.289063h.078125c10.023438-.011719 18.148438-8.136719 18.160157-18.160156.027343-6.492188-3.472657-12.484375-9.136719-15.65625l-12.710938-7.269531c-10.457031-5.480469-20.4375-11.832032-29.832031-18.984376-9.511719-7.695312-16.589844-17.972656-20.390625-29.601562 2.640625-4.3125 4.046875-9.269531 4.070313-14.328125-.039063-11.652344-7.292969-22.058594-18.207032-26.136719 10.339844-4.621094 16.042969-15.839844 13.679688-26.917968-2.363282-11.074219-12.148438-18.992188-23.472656-18.992188-11.324219 0-21.109376 7.917969-23.472657 18.992188-2.363281 11.078124 3.339844 22.296874 13.679688 26.917968-7.804688 2.839844-13.921875 9.035156-16.660157 16.878906-2.738281 7.839844-1.8125 16.496094 2.527344 23.578126-8.664062 24.96875-25.042968 34.328124-49.738281 48.320312l-13.078125 7.472656c-5.722656 3.160156-9.269531 9.1875-9.257812 15.726563.011718 10.023437 8.136718 18.148437 18.160156 18.160156h.082031l5.757813 17.289063v25.214843c-8.429688 3.417969-17.113282 6.175781-25.96875 8.257813l-16.886719 3.855468c-8.386719 1.914063-14 9.824219-13.035157 18.371094.960938 8.550782 8.191407 15.011719 16.796876 15.011719h9.335937l5.757813 17.296875v9.464844c-8.769532 4.113281-17.90625 7.402344-27.289063 9.816406l-7.847656 1.957031c-8.328125 2.078125-13.796875 10.039063-12.75 18.558594 1.050781 8.515625 8.289062 14.914063 16.871093 14.90625h1.257813l5.757813 17.296875v30.703125h-48c-4.417969 0-8 3.582031-8 8v24h-24c-4.417969 0-8 3.582031-8 8v24h-24c-4.417969 0-8.0000005 3.582031-8.0000005 8v32c0 4.417969 3.5820315 8 8.0000005 8h464c4.417968 0 8-3.582031 8-8v-32c0-4.417969-3.582032-8-8-8zm-40 0h-134.558594l-2.664063-16h137.222657zm-248-112v16h-16v-16zm96 0v16h-80v-16zm32 0v16h-16v-16zm0 48h-16v-16h16zm-112 0v-16h16v16zm32-16h16v16h-16zm32 0h16v16h-16zm-96 0h16v16h-16zm38.777343 32h66.445313l2.671875 16h-71.789063zm71.78125 32 2.664063 16h-82.445313l2.664063-16zm121.441407-16h-107.886719l-2.671875-16h110.558594zm-72-32v-16h16v16zm16.417968-34.527344c-.273437.816407-.414062 1.667969-.417968 2.527344h-16v-16h20.894531zm-24-72c-.273437.816407-.414062 1.667969-.417968 2.527344v8h-24v-24h28.894531zm-120.417968 10.527344v-24h16v8h16v-8h16v8h16v-8h16v24zm-16-72v-16h32v16zm48-40h16v40h-16zm32 24h32v16h-32zm34.230468-16h-34.230468v-8h36.894531zm-58.230468-168c4.417968 0 8 3.582031 8 8s-3.582032 8-8 8c-4.417969 0-8-3.582031-8-8s3.582031-8 8-8zm0 44c6.628906 0 12 5.375 12 12 0 6.628906-5.371094 12-12 12-6.628907 0-12-5.371094-12-12 0-6.625 5.371093-12 12-12zm-78.894532 96.058594 13.109375-7.496094c23.128907-13.105469 43.296875-24.664063 54.570313-50.945313 7.128906 3.164063 15.269531 3.164063 22.398437 0 5.027344 11.929688 12.902344 22.449219 22.9375 30.632813 10.101563 7.769531 20.851563 14.652344 32.136719 20.574219l12.757812 7.289062c.621094.351563.996094 1.015625.984376 1.726563-.011719 1.1875-.972657 2.148437-2.160157 2.160156h-155.679687c-1.1875-.011719-2.148438-.972656-2.160156-2.160156.003906-.753907.429687-1.441407 1.105468-1.78125zm54.894532 19.941406v8h-34.230469l-2.664063-8zm-88 71.097656c0-.421875.292968-.789062.703124-.882812l16.890626-3.863281c10.949218-2.507813 21.660156-5.96875 32.007812-10.351563h124.796875c10.613281 4.445313 21.585937 7.96875 32.800781 10.527344l16.113282 3.6875c.414062.09375.707031.460937.703124.882812-.003906.496094-.40625.898438-.902343.902344h-222.207031c-.5-.003906-.902344-.40625-.90625-.902344zm56 16.902344v24h-24v-8c0-.859375-.140626-1.710937-.414063-2.527344l-4.480469-13.472656zm-71.253907 54.058594 7.847657-1.953125c11.476562-2.878906 22.625-6.933594 33.269531-12.105469h172.273437c10.644532 5.171875 21.796875 9.230469 33.28125 12.105469l7.839844 1.953125c.492188.109375.824219.578125.761719 1.078125-.0625.503906-.496094.878906-1.003907.863281h-254.03125c-.507812.015625-.941406-.359375-1.003906-.863281-.058594-.5.269532-.96875.765625-1.078125zm39.253907 17.941406v16h-16c0-.859375-.140626-1.710937-.414063-2.527344l-4.480469-13.472656zm-16 32h16v16h-16zm-56 32h110.558593l-2.671875 16h-107.886718zm-32 32h137.222656l-2.664063 16h-134.558593zm-32 32h163.886718l-2.664062 16h-161.222656zm177.449218 16 2.664063-16h87.773437l2.664063 16zm270.550782 0h-161.222657l-2.664062-16h163.886719zm0 0"/></svg>