<svg height="480pt" viewBox="0 -60 480 480" width="480pt" xmlns="http://www.w3.org/2000/svg"><path d="m56 144.003906h368v80h-368zm0 0" fill="#b94137"/><path d="m8 320.003906h464v32h-464zm0 0" fill="#c5c5c5"/><path d="m64 88.003906h352v40h-352zm0 0" fill="#b94137"/><path d="m64 88.003906h352v16h-352zm0 0" fill="#a83b32"/><path d="m56 144.003906h368v16h-368zm0 0" fill="#a83b32"/><path d="m152 32.003906c-2.773438-.003906-5.34375-1.4375-6.800781-3.796875-1.457031-2.355469-1.589844-5.300781-.351563-7.78125l8-16c1.976563-3.953125 6.78125-5.558593 10.738282-3.582031 3.953124 1.972656 5.558593 6.78125 3.582031 10.734375l-8 16c-1.355469 2.714844-4.132813 4.429687-7.167969 4.425781zm0 0" fill="#d1763e"/><path d="m328 32.003906c-3.046875.015625-5.839844-1.699218-7.199219-4.425781l-8-16c-1.976562-3.953125-.371093-8.761719 3.582031-10.734375 3.957032-1.976562 8.761719-.371094 10.738282 3.582031l8 16c1.234375 2.476563 1.105468 5.414063-.34375 7.769531-1.449219 2.355469-4.011719 3.796876-6.777344 3.808594zm0 0" fill="#d1763e"/><path d="m64 96.003906c-4.417969 0-8-3.582031-8-8v-24c0-4.417968 3.582031-8 8-8s8 3.582032 8 8v24c0 4.417969-3.582031 8-8 8zm0 0" fill="#d1763e"/><path d="m416 96.003906c-4.417969 0-8-3.582031-8-8v-24c0-4.417968 3.582031-8 8-8s8 3.582032 8 8v24c0 4.417969-3.582031 8-8 8zm0 0" fill="#d1763e"/><g fill="#a83b32"><path d="m240 176.003906c13.253906 0 24 10.746094 24 24v24h-48v-24c0-13.253906 10.746094-24 24-24zm0 0"/><path d="m156 176.003906c11.046875 0 20 8.953125 20 20v28h-40v-28c0-11.046875 8.953125-20 20-20zm0 0"/><path d="m76 176.003906c11.046875 0 20 8.953125 20 20v28h-40v-28c0-11.046875 8.953125-20 20-20zm0 0"/><path d="m404 176.003906c11.046875 0 20 8.953125 20 20v28h-40v-28c0-11.046875 8.953125-20 20-20zm0 0"/><path d="m324 176.003906c11.046875 0 20 8.953125 20 20v28h-40v-28c0-11.046875 8.953125-20 20-20zm0 0"/></g><path d="m450.847656 152.003906h-421.695312c-1.441406 0-2.691406-.988281-3.023438-2.390625-.332031-1.398437.34375-2.84375 1.632813-3.488281 13.402343-6.703125 25.640625-15.523438 36.238281-26.121094h352c10.597656 10.597656 22.835938 19.417969 36.238281 26.121094 1.289063.644531 1.964844 2.089844 1.632813 3.488281-.332032 1.402344-1.582032 2.390625-3.023438 2.390625zm0 0" fill="#e78244"/><path d="m40 224.003906h400v32h-400zm0 0" fill="#d9d9d9"/><path d="m24 256.003906h432v32h-432zm0 0" fill="#cdcdcd"/><path d="m8 288.003906h464v32h-464zm0 0" fill="#b9b9b9"/><path d="m120 320.003906v32h-56v-32l56-96h40zm0 0" fill="#ebebeb"/><path d="m82.664062 288.003906-18.664062 32h56l13.335938-32zm0 0" fill="#dcdcdc"/><path d="m82.664062 288.003906h50.671876l13.328124-32h-45.328124zm0 0" fill="#e4e4e4"/><path d="m368 320.003906v32h56v-32l-56-96h-40zm0 0" fill="#ebebeb"/><path d="m354.664062 288.003906 13.335938 32h56l-18.664062-32zm0 0" fill="#dcdcdc"/><path d="m386.664062 256.003906h-45.328124l13.328124 32h50.671876zm0 0" fill="#e4e4e4"/><path d="m288 320.003906v32h-96v-32l24-96h48zm0 0" fill="#ebebeb"/><path d="m200 288.003906-8 32h96l-8-32zm0 0" fill="#dcdcdc"/><path d="m200 288.003906h80l-8-32h-64zm0 0" fill="#e4e4e4"/><path d="m432 96.003906h-384c-3.722656-.015625-6.945312-2.597656-7.769531-6.226562-.824219-3.632813.960937-7.351563 4.3125-8.972656l38.890625-18.617188c21.230468-10.15625 40.824218-23.441406 58.117187-39.40625l5.023438-4.640625c1.476562-1.371094 3.414062-2.132813 5.425781-2.136719h176c2.121094 0 4.15625.84375 5.65625 2.34375 20.445312 20.472656 44.5 36.992188 70.953125 48.71875l30.636719 13.601563c3.488281 1.515625 5.425781 5.273437 4.636718 8.992187-.785156 3.71875-4.082031 6.371094-7.882812 6.34375zm0 0" fill="#e78244"/><path d="m224 88.003906h32v32h-32zm0 0" fill="#428dc5"/><path d="m224 120.003906h32v8h-32zm0 0" fill="#d1763e"/><path d="m240 184.003906c8.835938 0 16 7.164063 16 16v24h-32v-24c0-8.835937 7.164062-16 16-16zm0 0" fill="#95342c"/><path d="m324 184.003906c6.628906 0 12 5.371094 12 12v28h-24v-28c0-6.628906 5.371094-12 12-12zm0 0" fill="#95342c"/><path d="m404 184.003906c6.628906 0 12 5.371094 12 12v28h-24v-28c0-6.628906 5.371094-12 12-12zm0 0" fill="#95342c"/><path d="m76 184.003906c6.628906 0 12 5.371094 12 12v28h-24v-28c0-6.628906 5.371094-12 12-12zm0 0" fill="#95342c"/><path d="m156 184.003906c6.628906 0 12 5.371094 12 12v28h-24v-28c0-6.628906 5.371094-12 12-12zm0 0" fill="#95342c"/><path d="m472 280.003906h-8v-24c0-4.417968-3.582031-8-8-8h-8v-24c0-4.417968-3.582031-8-8-8h-8v-56h18.847656c5.148438-.003906 9.617188-3.542968 10.800782-8.550781 1.183593-5.011719-1.230469-10.175781-5.832032-12.480469-11.664062-5.867187-22.386718-13.4375-31.816406-22.464844v-20.503906h8c3.78125 0 7.042969-2.644531 7.828125-6.339844.785156-3.699218-1.125-7.4375-4.582031-8.972656l-11.246094-5v-11.6875c0-4.417968-3.582031-8-8-8s-8 3.582032-8 8v4.574219l-3.390625-1.511719c-26.089844-11.585937-49.847656-27.832031-70.105469-47.941406l-7.304687-14.699219c-1.972657-3.953125-6.78125-5.558593-10.734375-3.582031-3.957032 1.972656-5.558594 6.78125-3.585938 10.734375l2.21875 4.425781h-150.152344l2.214844-4.425781c1.976563-3.953125.371094-8.761719-3.585937-10.734375-3.953125-1.976562-8.757813-.371094-10.734375 3.582031l-7.34375 14.691407-3.945313 3.644531c-17.292969 15.96875-36.886719 29.25-58.117187 39.410156l-11.433594 5.480469v-3.648438c0-4.417968-3.582031-8-8-8s-8 3.582032-8 8v11.304688l-11.457031 5.496094c-3.351563 1.621093-5.136719 5.339843-4.3125 8.972656.824219 3.628906 4.046875 6.210937 7.769531 6.226562h8v20.503906c-9.429688 9.027344-20.152344 16.597657-31.816406 22.464844-4.601563 2.304688-7.015625 7.46875-5.832032 12.480469 1.183594 5.007813 5.652344 8.546875 10.800782 8.550781h18.847656v56h-8c-4.417969 0-8 3.582032-8 8v24h-8c-4.417969 0-8 3.582032-8 8v24h-8c-4.417969 0-8 3.582032-8 8v64c0 4.417969 3.582031 8 8 8h464c4.417969 0 8-3.582031 8-8v-64c0-4.417968-3.582031-8-8-8zm-177.753906 32-4-16h59.089844l6.664062 16zm-8-32-4-16h53.753906l6.664062 16zm-72-16h51.507812l4 16h-59.507812zm-20.492188 16h-48.417968l6.664062-16h45.753906zm28.492188-48h35.507812l4 16h-43.507812zm131.089844 32h28.734374l9.335938 16h-31.40625zm-6.671876-16-6.664062-16h23.40625l9.328125 16zm-10.664062-32h-24v-20c0-6.628906 5.371094-12 12-12s12 5.371094 12 12zm-32 16h18.664062l6.671876 16h-51.089844l-4-16zm-48-16h-32v-16c0-8.835937 7.164062-16 16-16s16 7.164063 16 16zm-54.246094 32h-43.089844l6.671876-16h40.417968zm-33.753906-32h-24v-20c0-6.628906 5.371094-12 12-12s12 5.371094 12 12zm-32 16h12l-6.664062 16h-26.070313l9.328125-16zm-1.335938 32-6.664062 16h-31.40625l9.335938-16zm-13.328124 32-6.671876 16h-36.734374l9.335937-16zm62.664062 32v16h-56v-16zm-52-16 6.664062-16h51.089844l-4 16zm74.246094-16h67.507812l4 16h-75.507812zm153.753906 32v16h-64v-16zm13.335938-16-6.671876-16h34.070313l9.335937 16zm55.257812 0-9.328125-16h44.734375v16zm-18.664062-32-9.335938-16h47.40625v16zm-18.664063-32-9.335937-16h50.070312v16zm.734375-32v-20c0-6.628906 5.371094-12 12-12s12 5.371094 12 12v20zm-320-104v-16h144v16zm160-16h16v16h-16zm32 0h144v16h-144zm-173.664062-19.402344c22.679687-10.84375 43.597656-25.03125 62.0625-42.085937l2.730468-2.511719h169.597656c20.335938 19.832032 43.894532 36.066406 69.671876 48h-311.160157zm-23.070313 51.402344h345.46875c6.175781 5.902344 12.851563 11.253906 19.953125 16h-385.375c7.101562-4.746094 13.777344-10.097656 19.953125-16zm348.734375 32v10.808594c-3.738281-1.824219-7.839844-2.785156-12-2.808594-15.464844 0-28 12.535156-28 28v20h-24v-20c0-15.464844-12.535156-28-28-28s-28 12.535156-28 28v20h-24v-16c0-17.671875-14.328125-32-32-32s-32 14.328125-32 32v16h-24v-20c0-15.464844-12.535156-28-28-28s-28 12.535156-28 28v20h-24v-20c0-15.464844-12.535156-28-28-28-4.160156.023438-8.261719.984375-12 2.808594v-10.808594zm-352 36c0-6.628906 5.371094-12 12-12s12 5.371094 12 12v20h-24zm-16 36h58.070312l-9.335937 16h-48.734375zm-16 32h55.40625l-9.335938 16h-46.070312zm-16 32h52.734375l-9.328125 16h-43.40625zm0 32h40v16h-40zm56 16v-16h40v16zm128 0v-16h80v16zm176 0v-16h40v16zm88 0h-32v-16h32zm0 0"/></svg>