<?xml version="1.0" encoding="iso-8859-1"?>
<!-- Generator: Adobe Illustrator 19.0.0, SVG Export Plug-In . SVG Version: 6.00 Build 0)  -->
<svg version="1.1" id="Layer_1" xmlns="http://www.w3.org/2000/svg" xmlns:xlink="http://www.w3.org/1999/xlink" x="0px" y="0px"
	 viewBox="0 0 512 512" style="enable-background:new 0 0 512 512;" xml:space="preserve">
<polyline style="fill:#69AFEB;" points="438.274,427.023 397.768,42.221 114.232,42.221 105.23,127.733 314.958,127.733 
	346.463,427.023 "/>
<polygon style="fill:#5091D7;" points="179.04,332.96 200.643,127.733 105.229,127.733 105.229,127.733 73.726,427.023 
	346.463,427.023 336.561,332.96 "/>
<polygon style="fill:#4B82C8;" points="197.943,153.386 200.643,127.733 105.229,127.733 102.529,153.386 "/>
<rect x="25.119" y="427.023" style="fill:#FFE1B3;" width="461.762" height="42.756"/>
<polygon style="fill:#4B82C8;" points="336.561,332.96 310.154,332.96 320.357,427.023 346.463,427.023 "/>
<path d="M503.983,461.762h-9.086v-34.739c0-4.427-3.589-8.017-8.017-8.017h-41.389L405.741,41.382
	c-0.43-4.08-3.869-7.178-7.973-7.178H114.232c-4.102,0-7.543,3.098-7.973,7.178L66.508,419.006H25.119
	c-4.427,0-8.017,3.589-8.017,8.017v34.739H8.017c-4.427,0-8.017,3.589-8.017,8.017s3.589,8.017,8.017,8.017h495.967
	c4.427,0,8.017-3.589,8.017-8.017S508.411,461.762,503.983,461.762z M429.369,419.006H353.68l-30.749-292.113
	c-0.43-4.08-3.87-7.178-7.973-7.178H114.135l3.238-30.756l4.076-38.722h269.104L429.369,419.006z M307.741,135.749l19.916,189.194
	H187.945l19.916-189.194H307.741z M112.448,135.749h79.291l-20.67,196.372c-0.237,2.26,0.495,4.514,2.015,6.203
	c1.52,1.689,3.686,2.653,5.958,2.653h150.304l8.213,78.029H82.631L112.448,135.749z M33.136,435.04h445.729v26.722H33.136V435.04z"
	/>
<g>
</g>
<g>
</g>
<g>
</g>
<g>
</g>
<g>
</g>
<g>
</g>
<g>
</g>
<g>
</g>
<g>
</g>
<g>
</g>
<g>
</g>
<g>
</g>
<g>
</g>
<g>
</g>
<g>
</g>
</svg>
