<?xml version="1.0" encoding="UTF-8" standalone="no"?>
<!-- Generator: Adobe Illustrator 19.0.0, SVG Export Plug-In . SVG Version: 6.00 Build 0)  -->

<svg
   xmlns:dc="http://purl.org/dc/elements/1.1/"
   xmlns:cc="http://creativecommons.org/ns#"
   xmlns:rdf="http://www.w3.org/1999/02/22-rdf-syntax-ns#"
   xmlns:svg="http://www.w3.org/2000/svg"
   xmlns="http://www.w3.org/2000/svg"
   xmlns:sodipodi="http://sodipodi.sourceforge.net/DTD/sodipodi-0.dtd"
   xmlns:inkscape="http://www.inkscape.org/namespaces/inkscape"
   version="1.1"
   id="Layer_1"
   x="0px"
   y="0px"
   viewBox="0 0 799.999 799.999"
   style="enable-background:new 0 0 799.999 799.999;"
   xml:space="preserve"
   sodipodi:docname="belgium_flag.svg"
   inkscape:version="0.92.4 (5da689c313, 2019-01-14)"><metadata
   id="metadata53"><rdf:RDF><cc:Work
       rdf:about=""><dc:format>image/svg+xml</dc:format><dc:type
         rdf:resource="http://purl.org/dc/dcmitype/StillImage" /></cc:Work></rdf:RDF></metadata><defs
   id="defs51" /><sodipodi:namedview
   pagecolor="#ffffff"
   bordercolor="#666666"
   borderopacity="1"
   objecttolerance="10"
   gridtolerance="10"
   guidetolerance="10"
   inkscape:pageopacity="0"
   inkscape:pageshadow="2"
   inkscape:window-width="1920"
   inkscape:window-height="986"
   id="namedview49"
   showgrid="false"
   inkscape:zoom="0.83438702"
   inkscape:cx="679.14164"
   inkscape:cy="416.50259"
   inkscape:window-x="-11"
   inkscape:window-y="-11"
   inkscape:window-maximized="1"
   inkscape:current-layer="g16" />
<g
   id="g16">
	<path
   style="fill:#FFE000;"
   d="M282.871,646.161V153.839h234.258v91.322c0,6.563,5.34,11.903,11.903,11.903h1v27.807h-1   c-6.563,0-11.903,5.34-11.903,11.903v349.387H282.871z"
   id="path2" />
	<path
   style="fill:#FFE000;"
   d="M516.129,245.161v-90.322H283.871v490.322h232.258V296.773c0-7.126,5.777-12.903,12.903-12.903   v-25.807C521.906,258.064,516.129,252.287,516.129,245.161z"
   id="path4" />
	<path
   style="fill:#ED1F34;"
   d="M695.774,659.064v-1c0-6.563-5.34-11.903-11.903-11.903H540.936V296.773   c0-6.563-5.34-11.903-11.903-11.903h-1v-27.807h1c6.563,0,11.903-5.34,11.903-11.903v-91.322h234.258V646.16h-39.709   c-6.563,0-11.903,5.34-11.903,11.903v1L695.774,659.064L695.774,659.064z"
   id="path6" />
	<path
   style="fill:#ED1F34;"
   d="M735.484,645.161h38.709V154.839H541.936v90.322c0,7.126-5.777,12.903-12.903,12.903v25.807   c7.126,0,12.903,5.777,12.903,12.903v348.387h141.936c7.126,0,12.903,5.777,12.903,12.903h25.807   C722.581,650.938,728.357,645.161,735.484,645.161z"
   id="path8" />
	<rect
   x="24.807"
   y="153.839"
   style="fill:#333333;"
   width="234.258"
   height="492.322"
   id="rect10" />
	<rect
   x="25.807"
   y="154.839"
   style="fill:#333333;"
   width="232.258"
   height="490.322"
   id="rect12" />
	<path
   d="M 787.097,129.032 H 12.903 C 5.777,129.032 0,134.81 0,141.936 v 516.129 c 0,7.126 5.777,12.903 12.903,12.903 h 670.968 c 7.126,0 12.903,-5.777 12.903,-12.903 0,-7.126 -5.777,-12.903 -12.903,-12.903 H 541.936 V 296.773 c 0,-7.126 -5.777,-12.903 -12.903,-12.903 -7.126,0 -12.903,5.777 -12.903,12.903 V 645.16 H 283.871 V 154.839 h 232.258 v 154.322 c 0,7.126 5.777,12.903 12.903,12.903 7.126,0 12.903,-5.777 12.903,-12.903 V 154.839 h 232.258 v 490.322 h -90.709 c -7.127,0 -12.903,5.777 -12.903,12.903 0,7.126 5.776,12.903 12.903,12.903 h 103.612 c 7.126,0 12.903,-5.777 12.903,-12.903 V 141.936 C 800,134.81 794.223,129.032 787.097,129.032 Z M 25.807,154.839 H 258.065 V 645.161 H 25.807 Z"
   id="path14"
   inkscape:connector-curvature="0"
   sodipodi:nodetypes="sssssssscsssccccssscccssssscsccccc" />
</g>
<g
   id="g18">
</g>
<g
   id="g20">
</g>
<g
   id="g22">
</g>
<g
   id="g24">
</g>
<g
   id="g26">
</g>
<g
   id="g28">
</g>
<g
   id="g30">
</g>
<g
   id="g32">
</g>
<g
   id="g34">
</g>
<g
   id="g36">
</g>
<g
   id="g38">
</g>
<g
   id="g40">
</g>
<g
   id="g42">
</g>
<g
   id="g44">
</g>
<g
   id="g46">
</g>
</svg>