<?xml version="1.0" encoding="UTF-8" standalone="no"?>
<svg
   xmlns:dc="http://purl.org/dc/elements/1.1/"
   xmlns:cc="http://creativecommons.org/ns#"
   xmlns:rdf="http://www.w3.org/1999/02/22-rdf-syntax-ns#"
   xmlns:svg="http://www.w3.org/2000/svg"
   xmlns="http://www.w3.org/2000/svg"
   xmlns:sodipodi="http://sodipodi.sourceforge.net/DTD/sodipodi-0.dtd"
   xmlns:inkscape="http://www.inkscape.org/namespaces/inkscape"
   id="Layer_1"
   height="512"
   viewBox="0 0 128 128"
   width="512"
   data-name="Layer 1"
   version="1.1"
   sodipodi:docname="canada_flag.svg"
   inkscape:version="0.92.4 (5da689c313, 2019-01-14)">
  <metadata
     id="metadata25">
    <rdf:RDF>
      <cc:Work
         rdf:about="">
        <dc:format>image/svg+xml</dc:format>
        <dc:type
           rdf:resource="http://purl.org/dc/dcmitype/StillImage" />
        <dc:title />
      </cc:Work>
    </rdf:RDF>
  </metadata>
  <defs
     id="defs23" />
  <sodipodi:namedview
     pagecolor="#ffffff"
     bordercolor="#666666"
     borderopacity="1"
     objecttolerance="10"
     gridtolerance="10"
     guidetolerance="10"
     inkscape:pageopacity="0"
     inkscape:pageshadow="2"
     inkscape:window-width="1920"
     inkscape:window-height="986"
     id="namedview21"
     showgrid="false"
     inkscape:zoom="1.84375"
     inkscape:cx="182.69053"
     inkscape:cy="295.59782"
     inkscape:window-x="-11"
     inkscape:window-y="-11"
     inkscape:window-maximized="1"
     inkscape:current-layer="Layer_1" />
  <path
     d="M 3.5348828,21.85 H 124.46511 v 84.29884 H 3.5348828 Z"
     id="path2"
     inkscape:connector-curvature="0"
     style="fill:#ffffff;stroke-width:1.16279078" />
  <g
     id="g10"
     transform="matrix(1.1627907,0,0,1.1627907,-10.418605,-10.418605)"
     style="fill:#d60a2e">
    <path
       d="M 77.507,65.911 82.987,58.855 74.63,63.034 76,57.417 70.062,62.125 72.631,49.87 66.466,54.443 64,47.407 61.534,54.443 55.369,49.87 57.937,62.125 52,57.417 l 1.37,5.617 -8.357,-4.179 5.48,7.056 -5.48,0.959 8.404,4.578 -1.832,3.494 11.644,-1.761 v 7.412 H 64 64.771 v -7.412 l 11.644,1.761 -1.832,-3.494 8.404,-4.578 z"
       id="path4"
       inkscape:connector-curvature="0" />
    <path
       d="m 12,27.751 h 21.333 v 72.497 H 12 Z"
       id="path6"
       inkscape:connector-curvature="0" />
    <path
       d="M 94.667,27.751 H 116 v 72.497 H 94.667 Z"
       id="path8"
       inkscape:connector-curvature="0" />
  </g>
  <path
     d="M 124.46511,104.11628 H 99.69419 V 23.519767 c -0.002,-2.711477 -4.07147,-2.711477 -4.06977,0 V 104.11628 H 5.5697678 V 23.883721 H 28.305813 v 80.174419 c 0,2.71318 4.069768,2.71318 4.069768,0 V 23.883721 h 3.911628 c 2.711703,-0.0015 2.711703,-4.071239 0,-4.069767 H 3.5348828 c -1.1235689,6.42e-4 -2.0342411,0.911314 -2.034883,2.034883 v 84.302323 c 6.38e-4,1.12357 0.9113114,2.03425 2.034883,2.03489 H 124.46511 c 2.71318,0 2.71318,-4.06977 0,-4.06977 z"
     id="path12"
     inkscape:connector-curvature="0"
     style="stroke-width:1.16279078"
     sodipodi:nodetypes="scccccccsscccccccss" />
  <path
     d="M 124.46511,19.813954 H 36.116279 c -2.711703,0.0015 -2.711703,4.071239 0,4.069767 h 86.313951 v 81.515119 c 0.002,2.71147 4.07147,2.71147 4.06977,0 V 21.85 c 6.4e-4,-1.124292 -0.9106,-2.03605 -2.03489,-2.036046 z"
     id="path16"
     inkscape:connector-curvature="0"
     style="stroke-width:1.16279078"
     sodipodi:nodetypes="cccccccc" />
</svg>
