<?xml version="1.0" encoding="UTF-8" standalone="no"?>
<svg
   xmlns:dc="http://purl.org/dc/elements/1.1/"
   xmlns:cc="http://creativecommons.org/ns#"
   xmlns:rdf="http://www.w3.org/1999/02/22-rdf-syntax-ns#"
   xmlns:svg="http://www.w3.org/2000/svg"
   xmlns="http://www.w3.org/2000/svg"
   xmlns:sodipodi="http://sodipodi.sourceforge.net/DTD/sodipodi-0.dtd"
   xmlns:inkscape="http://www.inkscape.org/namespaces/inkscape"
   id="Capa_1"
   enable-background="new 0 0 512 512"
   height="512"
   viewBox="0 0 512 512"
   width="512"
   version="1.1"
   sodipodi:docname="charity.svg"
   inkscape:version="1.0.2 (e86c870879, 2021-01-15, custom)">
  <metadata
     id="metadata83">
    <rdf:RDF>
      <cc:Work
         rdf:about="">
        <dc:format>image/svg+xml</dc:format>
        <dc:type
           rdf:resource="http://purl.org/dc/dcmitype/StillImage" />
        <dc:title></dc:title>
      </cc:Work>
    </rdf:RDF>
  </metadata>
  <defs
     id="defs81" />
  <sodipodi:namedview
     pagecolor="#ffffff"
     bordercolor="#666666"
     borderopacity="1"
     objecttolerance="10"
     gridtolerance="10"
     guidetolerance="10"
     inkscape:pageopacity="0"
     inkscape:pageshadow="2"
     inkscape:window-width="1920"
     inkscape:window-height="1017"
     id="namedview79"
     showgrid="false"
     inkscape:zoom="0.84765625"
     inkscape:cx="126.73069"
     inkscape:cy="404.1937"
     inkscape:window-x="-8"
     inkscape:window-y="-8"
     inkscape:window-maximized="1"
     inkscape:current-layer="g74" />
  <g
     id="g76">
    <g
       id="g4">
      <circle
         cx="295.233"
         cy="130.29"
         fill="#fee45a"
         r="96.393"
         id="circle2" />
    </g>
    <g
       id="g8">
      <path
         d="m391.63 130.291c0 53.24-43.166 96.396-96.396 96.396-15.121 0-29.423-3.478-42.156-9.685 7.546 1.909 15.451 2.919 23.597 2.919 53.24 0 96.396-43.156 96.396-96.396 0-38.118-22.127-71.08-54.239-86.711 41.826 10.513 72.798 48.382 72.798 93.477z"
         fill="#fed402"
         id="path6" />
    </g>
    <g
       id="g12">
      <path
         d="m437.983 295.831c-4.245-10.603-15.924-16.166-26.831-12.78l-107.282 40.474-75.501 26.923 19.558 20.91h64.341l113.221-46.93c11.414-4.377 17.037-17.248 12.494-28.597z"
         fill="#d88a55"
         id="path10" />
    </g>
    <g
       id="g16">
      <path
         d="m425.481 324.431-113.216 46.924h-64.344l-16.681-17.84 5.867-2.089 3.258 3.478h55.629c6.426 0 12.783-1.269 18.719-3.728l106.04-43.955c7.586-2.918 12.653-9.515 13.952-16.97 1.349 1.649 2.449 3.528 3.278 5.587 4.549 11.343-1.088 24.216-12.502 28.593z"
         fill="#c57a44"
         id="path14" />
    </g>
    <g
       id="g20">
      <path
         d="m502.092 320.213c-5.733-12.613-20.264-18.62-33.23-13.738l-149.287 61.551c-5.852 2.203-12.053 3.332-18.305 3.332h-62.61l53.223-31.601c13.451-7.987 16.844-25.963 7.228-38.303-7.606-9.761-21.04-12.801-32.108-7.268l-80.799 40.399-32.236-7.279c-36.396-5.199-66.553 28.077-66.553 28.077l-79.92 9.359v108.823h115.101c46.74 0 91.859 28.344 138.319 7.48 31.321-14.066 193.506-109.147 228.729-126.278 12.831-6.24 18.351-21.566 12.448-34.554z"
         fill="#f6a96c"
         id="path18" />
    </g>
    <g
       id="g24">
      <path
         d="m489.644 354.763c-35.22 17.14-197.409 112.217-228.731 126.279-46.454 20.868-91.578-7.476-138.312-7.476h-115.105v-20.668h102.073c46.734 0 99.954 28.502 146.408 7.644 31.322-14.072 185.416-109.306 220.636-126.437 10.014-4.877 15.571-15.271 14.722-25.776 4.588 2.659 8.415 6.716 10.754 11.883 5.905 12.994.388 28.315-12.445 34.551z"
         fill="#ea9b58"
         id="path22" />
    </g>
    <g
       id="g28">
      <path
         d="m304.6 317.385c0 8.815-4.458 17.47-12.713 22.377l-91.119 54.1-6.147 3.628c-4.417-11.373.04-24.406 10.744-30.623l80.015-46.474c7.436-4.407 11.813-11.903 12.603-19.799.36.25.72.519 1.069.8.02.02.03.04.05.06 3.728 4.768 5.498 10.374 5.498 15.931z"
         fill="#ea9b58"
         id="path26" />
    </g>
    <g
       id="g32">
      <path
         d="m76.726 498.677h-62.701c-3.606 0-6.529-2.923-6.529-6.529v-172.482c0-3.606 2.923-6.529 6.529-6.529h62.701c3.606 0 6.529 2.923 6.529 6.529v172.482c0 3.605-2.923 6.529-6.529 6.529z"
         fill="#ed74b7"
         id="path30" />
    </g>
    <g
       id="g36">
      <path
         d="m83.252 319.662v172.488c0 3.598-2.924 6.522-6.522 6.522h-19.989c3.598 0 6.522-2.924 6.522-6.522v-172.488c0-3.598-2.924-6.522-6.522-6.522h19.989c3.598 0 6.522 2.924 6.522 6.522z"
         fill="#e759aa"
         id="path34" />
    </g>
    <g
       id="g74">
      <g
         id="g40">
        <path
           d="m177.282 55.514c-29.998-13.337-33.882-42.191-33.882-42.191s-3.883 28.854-33.882 42.191c29.999 13.336 33.882 42.19 33.882 42.19s3.884-28.854 33.882-42.19z"
           fill="#80d261"
           id="path38" />
      </g>
      <g
         id="g44">
        <path
           d="m177.278 55.518c-29.993 13.332-33.881 42.186-33.881 42.186s-.969-7.216-5.687-16.091c-.979-1.839-2.109-3.748-3.438-5.677 3.582-5.246 5.644-10.652 10.769-15.238 3.121-2.793 3.122-7.571.002-10.365-5.126-4.59-7.188-9.997-10.771-15.244 7.716-11.264 9.125-21.768 9.125-21.768s3.888 28.854 33.881 42.197z"
           fill="#68ca44"
           id="path42" />
      </g>
      <g
         id="g48">
        <path
           d="m491.426 213.14c-34.912-15.521-39.432-49.102-39.432-49.102s-4.52 33.581-39.432 49.102c34.912 15.521 39.432 49.102 39.432 49.102s4.52-33.581 39.432-49.102z"
           fill="#80d261"
           id="path46" />
      </g>
      <g
         id="g52">
        <path
           d="m491.422 213.14c-34.906 15.517-39.431 49.097-39.431 49.097s-1.128-8.398-6.618-18.727c-1.14-2.14-2.454-4.362-4.001-6.607 4.169-6.105 6.568-12.397 12.533-17.735 3.631-3.25 3.631-8.808 0-12.057-5.964-5.338-8.364-11.63-12.533-17.735 8.98-13.109 10.619-25.334 10.619-25.334s4.525 33.582 39.431 49.098z"
           fill="#68ca44"
           id="path50" />
      </g>
      <g
         id="g72">
        <path
           d="m295.233 234.179c57.284 0 103.889-46.604 103.889-103.89 0-1.038-.015-2.072-.045-3.102-.123-4.138-3.538-7.388-7.714-7.271-4.138.123-7.393 3.576-7.271 7.714.026.883.039 1.77.039 2.659 0 49.018-39.879 88.898-88.897 88.898s-88.898-39.88-88.898-88.898 39.879-88.897 88.898-88.897c36.096 0 68.348 21.547 82.165 54.895 1.584 3.825 5.969 5.638 9.794 4.055 3.824-1.584 5.64-5.969 4.055-9.794-16.145-38.968-53.834-64.147-96.014-64.147-57.285 0-103.889 46.604-103.889 103.889-.001 57.285 46.604 103.889 103.888 103.889z"
           id="path54" />
        <path
           d="m106.474 62.363c25.595 11.379 29.356 35.364 29.497 36.341.501 3.72 3.676 6.496 7.429 6.496s6.928-2.777 7.429-6.496c.033-.247 3.624-24.838 29.498-36.341 2.706-1.203 4.451-3.887 4.451-6.85 0-2.962-1.744-5.646-4.451-6.85-25.595-11.378-29.356-35.363-29.498-36.34-.501-3.721-3.676-6.496-7.429-6.496s-6.928 2.776-7.429 6.496c-.033.247-3.624 24.838-29.497 36.34-2.706 1.204-4.451 3.887-4.451 6.85s1.744 5.646 4.451 6.85zm36.926-27.7c3.931 6.92 9.868 14.5 18.783 20.851-8.915 6.351-14.852 13.932-18.783 20.852-3.931-6.92-9.868-14.5-18.783-20.852 8.916-6.352 14.852-13.931 18.783-20.851z"
           id="path66" />
        <path
           d="m508.917 317.111c-7.341-16.149-26.097-23.904-42.696-17.651-.072.026-19.386 7.989-19.386 7.989.583-4.829-.032-9.754-1.893-14.403-5.658-14.133-21.477-21.667-36.013-17.153-.143.045-97.202 36.657-97.202 36.657-.834-5.666-3.109-11.09-6.704-15.702-9.763-12.53-27.161-16.471-41.373-9.365l-78.405 39.203-29.626-6.69c-.195-.045-.392-.081-.591-.109-27.902-3.983-51.91 11.791-64.277 22.133v-22.353c0-7.733-6.291-14.024-14.025-14.024h-62.701c-7.734-.002-14.025 6.289-14.025 14.022v172.482c0 7.734 6.291 14.025 14.025 14.025h62.701c7.733 0 14.025-6.291 14.025-14.025v-11.086h31.845c16.321 0 33.091 3.781 49.309 7.437 16.933 3.817 34.194 7.709 51.78 7.709 13.25 0 26.684-2.21 40.3-8.324 17.017-7.641 71.01-38.224 123.226-67.799 46.014-26.063 89.477-50.681 105.711-58.576 16.612-8.078 23.638-27.579 15.995-44.397zm-198.996 12.143 103.644-39.103c7.069-2.085 14.711 1.602 17.459 8.465 1.445 3.611 1.384 7.563-.173 11.127-1.327 3.035-3.602 5.456-6.489 6.97l-107.532 44.336c-4.994 1.866-10.23 2.813-15.561 2.813h-35.304l29.744-17.66c6.57-3.9 11.549-9.906 14.212-16.948zm176.445 18.773c-16.657 8.101-60.318 32.83-106.542 59.013-51.916 29.405-105.6 59.812-121.978 67.167-27.128 12.183-54.095 6.103-82.642-.333-17.018-3.837-34.616-7.804-52.606-7.804h-31.847v-29.343c0-4.14-3.356-7.496-7.496-7.496s-7.496 3.355-7.496 7.496v54.455h-60.767v-170.549h60.768v80.703c0 4.14 3.356 7.496 7.496 7.496s7.496-3.356 7.496-7.496v-39.243c.831-.413 1.586-.977 2.218-1.675.274-.302 27.682-30.097 59.652-25.73l31.932 7.21c1.687.382 3.456.167 5.003-.607l80.799-40.399c7.845-3.923 17.452-1.748 22.843 5.171 3.261 4.184 4.567 9.574 3.583 14.786-.984 5.213-4.164 9.755-8.726 12.464l-91.12 54.102c-3.56 2.114-4.732 6.713-2.618 10.272 2.114 3.561 6.713 4.734 10.272 2.619l36.127-21.451h60.553c7.179 0 14.226-1.282 20.946-3.813.072-.026.144-.055.216-.085l149.172-61.503c9.214-3.414 19.594.906 23.664 9.863 4.254 9.359.345 20.213-8.902 24.71z"
           id="path68" />
        <path
           d="m409.517 219.99c30.45 13.536 34.879 42.076 35.049 43.251.501 3.721 3.675 6.496 7.428 6.496s6.928-2.776 7.428-6.496c.04-.294 4.317-29.59 35.049-43.251 2.706-1.203 4.451-3.887 4.451-6.85s-1.744-5.646-4.451-6.85c-30.451-13.537-34.879-42.077-35.049-43.252-.501-3.72-3.675-6.496-7.428-6.496s-6.928 2.776-7.428 6.496c-.04.294-4.317 29.59-35.049 43.252-2.707 1.204-4.451 3.888-4.451 6.85s1.745 5.647 4.451 6.85zm42.478-33.649c4.659 8.775 12.127 18.745 24.01 26.8-11.883 8.055-19.351 18.023-24.01 26.798-4.66-8.775-12.128-18.743-24.01-26.798 11.881-8.056 19.35-18.025 24.01-26.8z"
           id="path70" />
      </g>
    </g>
  </g>
  <g
     id="g928"
     transform="matrix(0.7072538,0,0,0.7072538,40.883993,22.404372)">
    <path
       d="m 318.95,131 c 54.78,0 73.87,50.45 73.87,80 0,60 -49.32,94.09 -136.82,170 -87.5,-75.91 -136.82,-110 -136.82,-170 0,-29.55 19.09,-80 73.87,-80 33.63,0 52.27,24.55 62.95,44.09 C 266.68,155.55 285.32,131 318.95,131 Z"
       fill="#ff7b79"
       id="path4" />
    <path
       d="m 402.82,211 c 0,-34.796 -22.77,-90 -83.87,-90 -25.104,0 -46.221,11.835 -62.95,35.229 C 239.271,132.835 218.153,121 193.05,121 c -61.101,0 -83.87,55.204 -83.87,90 0,59.993 46.822,97.52 110.787,152.217 9.399,8.036 19.118,16.347 29.48,25.337 1.88,1.631 4.216,2.446 6.553,2.446 2.337,0 4.673,-0.815 6.553,-2.446 10.362,-8.99 20.081,-17.301 29.48,-25.337 C 358.999,305.954 402.82,269.725 402.82,211 Z M 256,367.776 C 248.009,360.88 240.388,354.363 232.965,348.015 166.043,290.792 129.18,259.27 129.18,211 c 0,-32.743 21.421,-70 63.87,-70 22.153,0 39.874,12.72 54.176,38.886 1.753,3.208 5.118,5.204 8.774,5.204 3.656,0 7.021,-1.996 8.774,-5.204 C 279.076,153.72 296.797,141 318.95,141 c 41.856,0 63.87,36.704 63.87,70 0,48.27 -36.863,79.792 -103.785,137.016 -7.423,6.347 -15.044,12.864 -23.035,19.76 z"
       id="path10-3" />
  </g>
</svg>
