<?xml version="1.0" encoding="UTF-8" standalone="no"?>
<!-- Created with Inkscape (http://www.inkscape.org/) -->

<svg
   xmlns:dc="http://purl.org/dc/elements/1.1/"
   xmlns:cc="http://creativecommons.org/ns#"
   xmlns:rdf="http://www.w3.org/1999/02/22-rdf-syntax-ns#"
   xmlns:svg="http://www.w3.org/2000/svg"
   xmlns="http://www.w3.org/2000/svg"
   xmlns:sodipodi="http://sodipodi.sourceforge.net/DTD/sodipodi-0.dtd"
   xmlns:inkscape="http://www.inkscape.org/namespaces/inkscape"
   width="256"
   height="256"
   viewBox="0 0 67.733332 67.733335"
   version="1.1"
   id="svg8"
   inkscape:version="0.92.4 (5da689c313, 2019-01-14)"
   sodipodi:docname="chengdu_sunbird.svg">
  <defs
     id="defs2">
    <clipPath
       clipPathUnits="userSpaceOnUse"
       id="clipPath828">
      <rect
         style="fill:#0000ff;fill-rule:evenodd;stroke-width:0.1874207"
         id="rect830"
         width="47.095833"
         height="38.629166"
         x="-117.475"
         y="242.23125" />
    </clipPath>
    <clipPath
       clipPathUnits="userSpaceOnUse"
       id="clipPath871">
      <ellipse
         style="fill:#e2d79f;fill-opacity:1;fill-rule:nonzero;stroke:none;stroke-width:5.20198154;stroke-linecap:round;stroke-linejoin:round;stroke-miterlimit:4;stroke-dasharray:none;stroke-opacity:1"
         id="ellipse873"
         cx="-62.01989"
         cy="324.79123"
         rx="37.898544"
         ry="36.597496" />
    </clipPath>
  </defs>
  <sodipodi:namedview
     id="base"
     pagecolor="#ffffff"
     bordercolor="#666666"
     borderopacity="1.0"
     inkscape:pageopacity="0.0"
     inkscape:pageshadow="2"
     inkscape:zoom="2"
     inkscape:cx="-142.37466"
     inkscape:cy="-17.050683"
     inkscape:document-units="mm"
     inkscape:current-layer="layer1"
     showgrid="false"
     units="px"
     inkscape:window-width="1920"
     inkscape:window-height="986"
     inkscape:window-x="-11"
     inkscape:window-y="-11"
     inkscape:window-maximized="1" />
  <metadata
     id="metadata5">
    <rdf:RDF>
      <cc:Work
         rdf:about="">
        <dc:format>image/svg+xml</dc:format>
        <dc:type
           rdf:resource="http://purl.org/dc/dcmitype/StillImage" />
        <dc:title />
      </cc:Work>
    </rdf:RDF>
  </metadata>
  <g
     inkscape:label="Layer 1"
     inkscape:groupmode="layer"
     id="layer1"
     transform="translate(0,-229.26665)">
    <path
       style="fill:#ffdd55;fill-opacity:1;fill-rule:nonzero;stroke:#000000;stroke-width:1.58144629;stroke-linecap:round;stroke-linejoin:round;stroke-miterlimit:4;stroke-dasharray:none;stroke-opacity:1"
       d="m 33.866666,232.09593 c -20.127619,-0.76436 -36.3048633,21.22522 -29.6512141,40.20951 5.2216896,19.44165 31.0000041,28.43259 47.1761561,16.44429 17.03684,-10.73416 18.003123,-38.01612 1.768448,-49.92875 -5.430335,-4.33208 -12.34776,-6.74238 -19.29339,-6.72505 z m 3.728972,15.04198 c 4.50188,1.94716 6.716672,7.0064 6.738133,11.69461 1.209786,1.67758 1.156983,-4.51609 0.613518,-5.92039 -0.265403,-1.29795 -1.956292,-4.74846 -0.09215,-1.92278 2.675763,3.68873 2.050375,8.56765 0.347993,12.51856 0.414824,1.87339 3.102642,-3.11305 3.284659,-4.58419 0.632166,-1.41386 0.235619,-6.21522 0.904735,-2.22473 0.648319,4.28816 -1.683311,8.39555 -4.925081,11.04239 0.360846,1.41857 4.514971,-1.44591 5.253042,-2.87781 1.988746,-2.73904 -1.255278,3.22045 -2.573506,3.79952 -2.076067,2.04819 -5.21716,2.54194 -7.719044,3.34787 2.416005,1.47893 5.615439,0.30584 8.040391,-0.74541 1.967574,-0.98475 -1.895983,1.89097 -2.835767,2.05335 -3.303882,1.72647 -7.126613,0.97191 -10.470552,0.29473 1.757061,2.34553 5.157147,2.71003 7.909811,2.6079 3.067328,-0.45573 -2.609734,1.2222 -3.77398,0.75173 -3.479736,-0.1224 -6.420506,-2.23378 -9.107318,-4.22083 -0.271994,1.41838 3.055628,4.41489 4.988642,5.33409 0.959522,0.50111 3.694086,1.40285 0.934966,0.87942 -5.163981,-0.83809 -8.811003,-5.43171 -9.753925,-10.38179 -1.03638,-3.51273 -0.90023,2.61285 -0.479623,3.60082 0.07814,1.96364 2.296197,4.92685 2.574639,5.64297 -4.717301,-3.69433 -6.255969,-10.46033 -4.085287,-15.96297 -0.01373,-2.12514 -2.498676,2.34186 -2.552518,3.38487 -0.739672,1.94707 -0.531658,5.16106 -0.456288,6.35859 -1.974504,-5.3068 -0.114046,-11.8784 4.534869,-15.18897 -1.165168,-2.00544 -4.489112,1.81116 -5.564897,3.31667 -0.957087,0.98628 -2.797468,5.68664 -1.818915,2.14562 1.677512,-5.48246 7.160285,-9.46293 12.90189,-9.37302 -0.81488,-2.0546 -5.832024,-1.08793 -8.090276,-0.0213 -2.150253,0.71244 3.002393,-2.39783 4.499599,-2.30003 3.626803,-0.75566 7.436798,0.38889 10.235391,2.76752 0.136387,-2.10884 -3.772691,-4.25886 -6.06693,-4.91678 -1.16114,-0.36905 -4.149339,-0.5031 -1.341044,-0.6031 4.490548,-0.24593 9.116497,2.31203 11.316047,6.22862 2.225389,3.37683 -0.391351,-4.72782 -2.228829,-5.23778 -0.376076,-0.43289 -0.806479,-0.82092 -1.142399,-1.288 z"
       id="path849"
       inkscape:connector-curvature="0" />
    <g
       id="g1056"
       transform="matrix(0.50217868,0,0,0.50217868,37.649616,83.187693)"
       style="stroke-width:1.0537418;stroke-miterlimit:4;stroke-dasharray:none;fill:#000000;fill-opacity:1;stroke:#000000;stroke-opacity:1">
      <path
         transform="matrix(0.26458333,0,0,0.26458333,0,229.26665)"
         inkscape:connector-curvature="0"
         id="path997"
         d="m -32.990078,673.23073 c -1.644401,-0.8385 -2.421137,-2.01303 -2.890348,-4.37061 -1.499134,-7.53246 7.791122,-13.93734 13.256116,-9.13901 0.654078,0.57429 1.387234,1.52219 1.629242,2.10645 0.242007,0.58425 0.554527,1.06228 0.694485,1.06228 0.139957,0 0.712328,-0.83527 1.271933,-1.85615 1.343008,-2.45005 1.446022,-5.52882 0.241498,-7.2175 -3.584862,-5.0258 -16.172292,-3.86503 -22.072801,2.03548 -2.019876,2.01988 -3.014467,4.04197 -3.510715,7.13758 -0.712661,4.44561 -3.253667,6.83898 -8.199168,7.72279 -4.085589,0.73014 -9.126327,-0.35019 -9.702757,-2.07948 -0.201052,-0.60315 2.312872,-1.7455 5.065536,-2.30183 2.440035,-0.49314 2.442103,-0.49457 3.417186,-2.36109 1.220777,-2.33684 1.341809,-5.11517 0.281545,-6.46308 -1.5971,-2.03038 -4.754342,-2.76696 -15.569328,-3.63233 -3.79186,-0.30341 -7.892486,-0.70962 -9.112499,-0.90269 -2.316323,-0.36656 -5.943632,-1.57917 -6.26129,-2.09316 -0.101438,-0.16413 -1.01928,-0.0762 -2.039653,0.19547 -2.693903,0.71716 -5.926997,0.62677 -8.495499,-0.23752 -3.730875,-1.25542 -6.529995,-3.44435 -12.537815,-9.80464 -9.59951,-10.16272 -12.78713,-13.02809 -16.40802,-14.74925 -0.71029,-0.33763 -1.45368,-0.96995 -1.65197,-1.40515 -0.55075,-1.20877 -2.52428,-3.32863 -3.63226,-3.90159 -1.74816,-0.90401 -4.74363,-0.62618 -8.27358,0.76739 -8.5623,3.38025 -8.98239,3.47031 -10.52546,2.25654 -1.03795,-0.81646 -2.02568,-3.42085 -2.02568,-5.3412 0,-1.10029 0.22393,-1.51007 1.31799,-2.4119 1.39819,-1.1525 3.16111,-1.44937 3.49166,-0.58798 0.35646,0.92893 -0.92049,2.73647 -2.36026,3.34096 -0.75985,0.31902 -1.38316,0.68697 -1.38513,0.81766 -0.008,0.53292 3.05925,2.80944 4.27691,3.17425 4.23461,1.26873 7.19434,-5.17765 5.14994,-11.21676 -1.31416,-3.88202 -5.31731,-5.92589 -9.3444,-4.77093 -1.48842,0.42687 -1.46653,-0.0736 0.0441,-1.00715 1.75881,-1.087 4.33596,-0.96761 8.00161,0.37071 5.48,2.00073 6.49636,1.76364 5.46478,-1.27483 -1.26329,-3.72094 -2.13314,-5.07529 -4.31127,-6.71262 -2.55371,-1.91965 -2.98795,-2.66514 -1.55244,-2.66514 2.56758,0 8.02068,3.88286 9.86397,7.02361 1.20699,2.05655 1.34565,5.46847 0.30714,7.5576 -0.36171,0.72763 -0.57369,1.52312 -0.47109,1.76777 0.37397,0.89163 7.75397,9.8657 11.36899,13.82467 4.12737,4.52007 9.37096,9.24207 13.74401,12.37689 4.15971,2.98188 10.563612,6.04319 14.586067,6.9727 3.081334,0.71203 3.512609,0.73188 6.234843,0.28703 2.094097,-0.34221 7.090846,-0.4874 17.596996,-0.51133 15.622326,-0.0356 17.612534,-0.19488 22.804194,-1.82525 3.568662,-1.12069 6.801158,-2.74311 9.652414,-4.84465 4.210103,-3.10309 9.873332,-3.12615 16.494107,-0.0672 2.816944,1.30151 4.588822,2.44666 12.0372449,7.77961 9.9575696,7.12945 16.3100437,9.35286 22.8041941,7.98164 0.875044,-0.18476 3.711628,-0.57212 6.303517,-0.86081 10.009966,-1.1149 14.450852,-3.60316 26.705472,-14.96324 6.649657,-6.16427 10.953607,-9.49232 14.733683,-11.3929 2.910413,-1.46333 7.219956,-2.82191 8.951346,-2.82191 0.955079,0 1.008971,0.073 0.80536,1.09107 -0.304148,1.52074 -2.751392,6.65288 -4.12308,8.64657 -6.26801,9.11024 -18.618914,16.33978 -34.1259,19.97543 -1.740044,0.40796 -4.516061,1.199 -6.168923,1.75788 -5.957215,2.01428 -11.372374,2.17358 -23.8048982,0.70028 -8.7361523,-1.03527 -12.4694569,-1.21736 -15.2022758,-0.74146 -3.527569,0.6143 -3.965632,0.88725 -3.965632,2.47092 0,2.90301 -2.281572,4.60016 -9.123184,6.78625 -5.875491,1.8774 -6.593873,2.23651 -6.593873,3.29625 0,1.00301 0.378691,1.33774 3.247664,2.87061 l 2.219718,1.18597 -1.938198,0.90218 c -2.317001,1.07849 -4.918207,1.19124 -6.686034,0.28981 z"
         style="fill:#000000;stroke:#000000;stroke-width:3.98264623;stroke-miterlimit:4;stroke-dasharray:none;fill-opacity:1;stroke-opacity:1" />
      <path
         inkscape:connector-curvature="0"
         id="path997-6"
         d="m -57.156066,357.48907 c 0.22185,-0.43508 0.532615,-0.64059 1.156388,-0.76473 1.992964,-0.39665 3.687592,2.0614 2.418033,3.50734 -0.15195,0.17307 -0.402747,0.36704 -0.557327,0.43107 -0.154588,0.064 -0.281061,0.14672 -0.281068,0.18375 -1.4e-5,0.037 0.220997,0.18847 0.491102,0.33653 0.64825,0.35534 1.46284,0.3826 1.909631,0.0639 1.329749,-0.94849 1.022629,-4.27892 -0.538548,-5.8401 -0.534429,-0.53442 -1.069444,-0.79757 -1.88848,-0.92887 -1.176242,-0.18856 -1.809485,-0.86086 -2.043343,-2.16935 -0.193186,-1.08098 0.0927,-2.41468 0.550195,-2.56719 0.15958,-0.0532 0.46183,0.61195 0.609034,1.34026 0.130468,0.64559 0.130847,0.64614 0.624699,0.90413 0.618287,0.323 1.353387,0.35502 1.710017,0.0745 0.53721,-0.42257 0.732102,-1.25792 0.961062,-4.11939 0.0803,-1.00326 0.187746,-2.08821 0.238827,-2.41101 0.097,-0.61286 0.417832,-1.57259 0.553822,-1.65663 0.04342,-0.0269 0.0202,-0.26969 -0.0517,-0.53966 -0.189754,-0.71276 -0.165834,-1.56819 0.0628,-2.24777 0.332155,-0.98712 0.911309,-1.72773 2.594135,-3.31729 2.688896,-2.53988 3.447019,-3.38327 3.902414,-4.3413 0.0893,-0.18792 0.25663,-0.38461 0.371768,-0.43707 0.319835,-0.14573 0.880705,-0.66789 1.032305,-0.96105 0.239188,-0.46253 0.165678,-1.25508 -0.203042,-2.18905 -0.89436,-2.26544 -0.918181,-2.37659 -0.597042,-2.78486 0.21605,-0.27462 0.905133,-0.53596 1.41322,-0.53596 0.291118,0 0.39954,0.0592 0.638151,0.34872 0.304907,0.36996 0.383477,0.83638 0.155567,0.92384 -0.245781,0.0943 -0.724016,-0.24355 -0.883956,-0.62449 -0.08438,-0.20106 -0.18176,-0.36596 -0.216338,-0.36649 -0.140988,-0.002 -0.743332,0.80944 -0.839865,1.13161 -0.335681,1.12041 1.36992,1.9035 2.967774,1.36258 1.027121,-0.3477 1.567887,-1.40687 1.26231,-2.47237 -0.112944,-0.39381 0.0195,-0.38802 0.266481,0.0117 0.2876,0.46535 0.256005,1.14723 -0.0981,2.11709 -0.52936,1.44992 -0.466629,1.71883 0.337301,1.44589 0.984497,-0.33424 1.342834,-0.56439 1.776045,-1.14068 0.507912,-0.67568 0.705155,-0.79056 0.70515,-0.41075 4e-6,0.67933 -1.027335,2.12213 -1.858327,2.60984 -0.544128,0.31934 -1.446872,0.35603 -1.999623,0.0813 -0.192472,-0.0957 -0.402986,-0.15179 -0.467719,-0.12464 -0.235905,0.099 -2.6103,2.05157 -3.657768,3.00804 -1.195937,1.09203 -2.445303,2.4794 -3.274723,3.63644 -0.788957,1.10059 -1.598926,2.79495 -1.84486,3.85923 -0.188398,0.81527 -0.193649,0.92937 -0.0759,1.64963 0.09051,0.55406 0.128966,1.87612 0.135293,4.65587 0.009,4.13341 0.0516,4.65999 0.482932,6.03361 0.296517,0.94421 0.725778,1.79948 1.281815,2.55387 0.821024,1.11392 0.827126,2.61232 0.0178,4.36407 -0.344361,0.74531 -0.647348,1.21412 -2.058357,3.18485 -1.886333,2.63461 -2.474612,4.31537 -2.111809,6.03361 0.04889,0.23152 0.151374,0.98204 0.227757,1.66781 0.294979,2.64847 0.953325,3.82345 3.959021,7.06582 1.630974,1.75938 2.51151,2.89814 3.014365,3.89829 0.387185,0.77004 0.746634,1.91028 0.746637,2.36837 -5e-6,0.2527 -0.0193,0.26696 -0.288677,0.21309 -0.402371,-0.0805 -1.760249,-0.72797 -2.287736,-1.0909 -2.41042,-1.65842 -4.323245,-4.92625 -5.28517,-9.02915 -0.107946,-0.46038 -0.317235,-1.19487 -0.4651,-1.63219 -0.532954,-1.57618 -0.575104,-3.00894 -0.185294,-6.29838 0.273921,-2.31144 0.322104,-3.29921 0.196184,-4.02227 -0.162532,-0.93333 -0.234752,-1.04924 -0.653765,-1.04924 -0.768089,0 -1.217127,-0.60366 -1.795526,-2.41384 -0.496735,-1.55456 -0.591749,-1.74463 -0.87213,-1.74463 -0.265378,0 -0.35395,0.10019 -0.759524,0.85928 l -0.313786,0.5873 -0.238705,-0.51281 c -0.285345,-0.61305 -0.315178,-1.30128 -0.0767,-1.76902 z"
         style="fill:#000000;stroke:#000000;stroke-width:1.0537418;stroke-miterlimit:4;stroke-dasharray:none;fill-opacity:1;stroke-opacity:1" />
      <path
         inkscape:connector-curvature="0"
         id="path997-6-1"
         d="m -8.0580437,309.23132 c 0.4460901,0.19878 0.6675533,0.4984 0.8241988,1.11479 0.5004127,1.96947 -1.8655806,3.79042 -3.3759831,2.59827 -0.180762,-0.14271 -0.387648,-0.38294 -0.459632,-0.53402 -0.07197,-0.15105 -0.161224,-0.273 -0.198218,-0.27105 -0.03697,0.002 -0.176647,0.23056 -0.310363,0.50804 -0.320929,0.66595 -0.305522,1.48087 0.03613,1.91035 1.016786,1.2783 4.3265801,0.79729 5.8039151,-0.84346 0.5057174,-0.56166 0.7405007,-1.10971 0.8287567,-1.93449 0.1267412,-1.18449 0.7649796,-1.85206 2.0594402,-2.15408 1.0693867,-0.2495 2.41621671,-0.0338 2.59246647,0.41509 0.061493,0.15655 -0.5869433,0.49322 -1.30654967,0.67833 -0.6378798,0.16408 -0.6384044,0.16449 -0.8702006,0.67117 -0.2901976,0.63434 -0.2836974,1.37012 0.015101,1.71157 0.4500809,0.51438 1.2945116,0.66526 4.1640384,0.74416 1.0060782,0.0281 2.0951748,0.0782 2.420208,0.11233 0.6170987,0.0648 1.5923043,0.33495 1.6833422,0.46636 0.029121,0.0419 0.270367,0.006 0.5362171,-0.0798 0.7018498,-0.2268 1.5573612,-0.24768 2.247971,-0.0549 1.0031511,0.28004 1.7730581,0.81963 3.4485121,2.41696 2.677126,2.55229 3.559022,3.26525 4.539587,3.66986 0.192312,0.0794 0.397518,0.23615 0.455945,0.34837 0.16227,0.31176 0.713063,0.84455 1.013749,0.9806 0.474417,0.21465 1.262034,0.0998 2.175428,-0.31734 2.215523,-1.01169 2.325275,-1.0413 2.749793,-0.74196 0.28554,0.20139 0.582599,0.87583 0.609193,1.38323 0.01523,0.29072 -0.03821,0.40209 -0.314851,0.65552 -0.353492,0.32386 -0.815164,0.42673 -0.914427,0.2037 -0.107033,-0.2405 0.205322,-0.73576 0.57737,-0.91541 0.196366,-0.0948 0.355948,-0.20067 0.354664,-0.23523 -0.0054,-0.1409 -0.847203,-0.69998 -1.174011,-0.7795 -1.136443,-0.27657 -1.829198,1.46768 -1.205396,3.03502 0.40098,1.00752 1.487004,1.49212 2.535045,1.13121 0.387359,-0.13341 0.388514,-8.5e-4 0.0023,0.26671 -0.449663,0.31157 -1.132262,0.3157 -2.119322,0.0128 -1.475635,-0.45274 -1.740897,-0.37602 -1.426258,0.41253 0.385307,0.96564 0.633896,1.31145 1.232068,1.7139 0.701336,0.47185 0.826388,0.66281 0.447094,0.68269 -0.678398,0.0355 -2.17299,-0.91485 -2.703521,-1.7192 -0.34738,-0.52666 -0.431267,-1.42625 -0.18584,-1.99262 0.08549,-0.19723 0.130488,-0.41038 0.09999,-0.4736 -0.11121,-0.2304 -2.185371,-2.49935 -3.195348,-3.49533 -1.153106,-1.13717 -2.603972,-2.3122 -3.802847,-3.07992 -1.140368,-0.73027 -2.8747965,-1.45046 -3.950491,-1.64035 -0.8240159,-0.14547 -0.9382285,-0.14475 -1.6513462,0.0106 -0.5485642,0.11937 -1.866799,0.22698 -4.642406,0.37877 -4.1272772,0.22532 -4.6509052,0.29542 -6.0000658,0.79805 -0.9273997,0.34552 -1.7590315,0.81896 -2.4832855,1.41371 -1.0694234,0.8782 -2.5654485,0.96271 -4.3571575,0.24618 -0.762309,-0.30488 -1.246337,-0.58292 -3.28821,-1.88886 -2.729722,-1.74586 -4.438965,-2.24537 -6.135864,-1.79314 -0.228643,0.061 -0.972775,0.20257 -1.653605,0.31473 -2.629401,0.43319 -3.768316,1.15213 -6.848938,4.32339 -1.671611,1.72082 -2.762726,2.65976 -3.735191,3.21427 -0.74872,0.42695 -1.868585,0.84558 -2.326047,0.86956 -0.25235,0.0132 -0.267601,-0.005 -0.227937,-0.2771 0.05933,-0.40602 0.63485,-1.79593 0.969676,-2.34169 1.529992,-2.4939 4.693237,-4.57514 8.740169,-5.75047 0.454103,-0.1319 1.176631,-0.37934 1.605613,-0.5499 1.546126,-0.6147 2.974717,-0.73179 6.280051,-0.51466 2.322606,0.15255 3.311547,0.14896 4.027024,-0.0146 0.923544,-0.21115 1.035517,-0.28934 1.013583,-0.70778 -0.0402,-0.76704 0.53914,-1.24705 2.316567,-1.9194 1.5264293,-0.57741 1.7112687,-0.68224 1.6965886,-0.96223 -0.013881,-0.26503 -0.1185731,-0.34822 -0.8978263,-0.71354 l -0.6029223,-0.28262 0.4996131,-0.26521 c 0.597282,-0.31705 1.2830029,-0.38286 1.7625876,-0.16918 z"
         style="fill:#000000;stroke:#000000;stroke-width:1.0537418;stroke-miterlimit:4;stroke-dasharray:none;fill-opacity:1;stroke-opacity:1" />
      <path
         inkscape:connector-curvature="0"
         id="path997-6-1-8"
         d="m 42.102618,359.05668 c -0.214227,0.43888 -0.521394,0.64975 -1.142875,0.78479 -1.985734,0.43138 -3.723003,-1.99672 -2.478867,-3.4646 0.148931,-0.17567 0.396235,-0.37405 0.549735,-0.44071 0.153471,-0.0667 0.278461,-0.1516 0.277803,-0.18864 -7.08e-4,-0.0371 -0.224255,-0.18459 -0.496899,-0.32791 -0.654344,-0.34397 -1.469305,-0.35702 -1.910446,-0.0306 -1.313007,0.97155 -0.9478,4.29612 0.640392,5.82982 0.543669,0.52501 1.083191,0.77877 1.904389,0.89576 1.179345,0.16801 1.824234,0.82915 2.080894,2.13337 0.212027,1.07743 -0.05054,2.41591 -0.505313,2.57639 -0.158601,0.056 -0.472435,-0.60379 -0.632319,-1.32943 -0.141718,-0.64321 -0.14211,-0.64375 -0.640391,-0.89309 -0.623826,-0.31216 -1.359385,-0.33133 -1.711054,-0.0446 -0.529775,0.43185 -0.710033,1.2705 -0.88903,4.13553 -0.0632,1.00449 -0.151273,2.09118 -0.196726,2.41482 -0.0863,0.61446 -0.390316,1.57964 -0.524823,1.66603 -0.04289,0.0276 -0.01543,0.27 0.06104,0.53868 0.202168,0.70934 0.193178,1.56506 -0.02359,2.24852 -0.314879,0.99277 -0.88101,1.74337 -2.535839,3.36206 -2.644166,2.58642 -3.387469,3.44289 -3.826054,4.40875 -0.08606,0.18942 -0.249879,0.38902 -0.36407,0.4435 -0.317233,0.15129 -0.868921,0.68315 -1.015382,0.97891 -0.231076,0.46664 -0.143784,1.25779 0.241225,2.18518 0.933754,2.24948 0.959515,2.3602 0.645542,2.77401 -0.211232,0.27834 -0.895629,0.55168 -1.403648,0.56054 -0.291073,0.005 -0.400512,-0.0522 -0.644133,-0.33752 -0.311325,-0.36459 -0.398021,-0.82957 -0.171662,-0.92098 0.244089,-0.0986 0.728146,0.23087 0.894702,0.60896 0.08789,0.19955 0.188126,0.36273 0.222709,0.36266 0.140989,-8e-5 0.729121,-0.82226 0.819998,-1.14609 0.316063,-1.1261 -1.402948,-1.87931 -2.991103,-1.31059 -1.020901,0.36557 -1.543107,1.43403 -1.218993,2.49403 0.11981,0.39178 -0.01271,0.3883 -0.266618,-0.007 -0.295687,-0.46026 -0.275992,-1.14259 0.06117,-2.11848 0.503964,-1.45894 0.436548,-1.72672 -0.362503,-1.43979 -0.978498,0.35138 -1.332773,0.58775 -1.755854,1.17151 -0.496039,0.68443 -0.691247,0.80275 -0.697877,0.42299 -0.0118,-0.67923 0.990128,-2.13974 1.812504,-2.64187 0.538462,-0.32879 1.440432,-0.38123 1.997892,-0.11619 0.194126,0.0923 0.405576,0.14473 0.469821,0.11647 0.234141,-0.1031 2.574096,-2.09681 3.604717,-3.07142 1.17672,-1.11271 2.401669,-2.52169 3.210761,-3.69304 0.769623,-1.11418 1.549905,-2.82242 1.777221,-3.89083 0.174139,-0.81844 0.177405,-0.93261 0.04704,-1.65072 -0.100153,-0.55239 -0.161692,-1.87358 -0.216522,-4.6528 -0.08114,-4.13262 -0.132926,-4.65837 -0.588165,-6.02425 -0.312943,-0.9389 -0.757072,-1.78654 -1.326183,-2.53112 -0.840343,-1.09942 -0.872591,-2.59748 -0.09397,-4.3631 0.331298,-0.75119 0.626061,-1.22522 2.002466,-3.22028 1.840062,-2.66713 2.39892,-4.3579 2.006186,-6.06954 -0.05298,-0.23063 -0.168497,-0.97925 -0.256828,-1.66358 -0.341161,-2.64293 -1.019916,-3.80623 -4.081732,-6.99565 -1.661434,-1.73065 -2.561722,-2.85387 -3.081956,-3.84509 -0.40056,-0.76317 -0.779852,-1.89697 -0.787852,-2.35498 -0.0044,-0.25266 0.01434,-0.26727 0.284886,-0.21813 0.403703,0.0734 1.77268,0.69714 2.306422,1.05081 2.438985,1.61609 4.408561,4.85005 5.44194,8.93553 0.115971,0.45843 0.338045,1.18915 0.49353,1.62383 0.560366,1.56664 0.627528,2.99844 0.295176,6.29418 -0.233515,2.31587 -0.264441,3.30434 -0.125951,4.02509 0.178791,0.93034 0.253025,1.04497 0.671976,1.03766 0.767975,-0.0134 1.227474,0.58233 1.837383,2.38215 0.523787,1.54564 0.622103,1.73402 0.902434,1.72912 0.265354,-0.005 0.352146,-0.10634 0.744439,-0.87237 l 0.303493,-0.59278 0.247612,0.50857 c 0.296012,0.60798 0.337851,1.29558 0.107564,1.76742 z"
         style="fill:#000000;stroke:#000000;stroke-width:1.0537418;stroke-miterlimit:4;stroke-dasharray:none;fill-opacity:1;stroke-opacity:1" />
    </g>
  </g>
</svg>
