<?xml version="1.0" encoding="UTF-8" standalone="no"?>
<!-- Generator: Adobe Illustrator 19.0.0, SVG Export Plug-In . SVG Version: 6.00 Build 0)  -->

<svg
   xmlns:dc="http://purl.org/dc/elements/1.1/"
   xmlns:cc="http://creativecommons.org/ns#"
   xmlns:rdf="http://www.w3.org/1999/02/22-rdf-syntax-ns#"
   xmlns:svg="http://www.w3.org/2000/svg"
   xmlns="http://www.w3.org/2000/svg"
   xmlns:sodipodi="http://sodipodi.sourceforge.net/DTD/sodipodi-0.dtd"
   xmlns:inkscape="http://www.inkscape.org/namespaces/inkscape"
   version="1.1"
   id="Layer_1"
   x="0px"
   y="0px"
   viewBox="0 0 512.001 512.001"
   style="enable-background:new 0 0 512.001 512.001;"
   xml:space="preserve"
   sodipodi:docname="chengdu_hotpot.svg"
   inkscape:version="0.92.4 (5da689c313, 2019-01-14)"><metadata
   id="metadata91"><rdf:RDF><cc:Work
       rdf:about=""><dc:format>image/svg+xml</dc:format><dc:type
         rdf:resource="http://purl.org/dc/dcmitype/StillImage" /></cc:Work></rdf:RDF></metadata><defs
   id="defs89" /><sodipodi:namedview
   pagecolor="#ffffff"
   bordercolor="#666666"
   borderopacity="1"
   objecttolerance="10"
   gridtolerance="10"
   guidetolerance="10"
   inkscape:pageopacity="0"
   inkscape:pageshadow="2"
   inkscape:window-width="1920"
   inkscape:window-height="986"
   id="namedview87"
   showgrid="false"
   inkscape:zoom="0.65186282"
   inkscape:cx="871.49133"
   inkscape:cy="709.98118"
   inkscape:window-x="-11"
   inkscape:window-y="-11"
   inkscape:window-maximized="1"
   inkscape:current-layer="g102" />
<path
   style="fill:#F48911;"
   d="M184.356,329.217c-3.936,3.934-10.317,3.934-14.253,0l-47.217-47.192  c-3.936-3.935-3.936-10.312-0.001-14.247l47.218-47.193c3.937-3.935,10.317-3.935,14.253,0l47.217,47.193  c3.936,3.935,3.936,10.312,0,14.247L184.356,329.217z"
   id="path2" />
<path
   style="fill:#E0D9AF;"
   d="M322.024,316.249l-31.04-134.69c-1.533-6.655-7.46-11.368-14.291-11.368h-41.384  c-6.833,0-12.757,4.714-14.292,11.368l-31.04,134.69H322.024z"
   id="path4" />
<path
   style="opacity:0.1;enable-background:new    ;"
   d="M223.289,316.249l31.041-134.69c1.534-6.655,7.46-11.368,14.292-11.368  h-33.312c-6.833,0-12.757,4.714-14.292,11.368l-31.04,134.69H223.289z"
   id="path6" />
<path
   style="fill:#B0CE6F;"
   d="M351.92,356.98c-3.936,3.934-10.317,3.934-14.253,0l-47.216-47.193  c-3.937-3.934-3.937-10.311-0.001-14.246l47.217-47.193c3.936-3.932,10.316-3.932,14.253,0l47.217,47.193  c3.936,3.935,3.936,10.312,0,14.246L351.92,356.98z"
   id="path8" />
<path
   style="fill:#B3B3B3;"
   d="M300.456,417.799h-88.908l-26.769,65.207c-1.276,3.108-0.918,6.645,0.953,9.434  c1.872,2.791,5.01,4.464,8.372,4.464H317.9c3.36,0,6.499-1.673,8.372-4.464c1.87-2.789,2.228-6.327,0.953-9.434L300.456,417.799z"
   id="path10" />
<g
   id="g16">
	<path
   style="fill:#C6BA83;"
   d="M100.406,322.781c0,11.475-9.307,20.778-20.788,20.778H30.482c-11.481,0-20.788-9.303-20.788-20.778   l0,0c0-11.475,9.307-20.778,20.788-20.778h49.135C91.099,302.004,100.406,311.306,100.406,322.781L100.406,322.781z"
   id="path12" />
	<path
   style="fill:#C6BA83;"
   d="M502.309,322.781c0,11.475-9.308,20.778-20.788,20.778h-49.136   c-11.479,0-20.787-9.303-20.787-20.778l0,0c0-11.475,9.307-20.778,20.787-20.778h49.136   C493.001,302.004,502.309,311.306,502.309,322.781L502.309,322.781z"
   id="path14" />
</g>
<ellipse
   style="fill:#B0CE6F;"
   cx="192.378"
   cy="301.38"
   rx="34.649"
   ry="34.628"
   id="ellipse18" />
<path
   style="fill:#FFC38D;"
   d="M149.567,255.569c27.95,27.935,36,65.183,17.98,83.195c-18.021,18.01-55.289,9.966-83.238-17.97  c-27.95-27.935-36-65.184-17.98-83.195C84.352,219.588,121.617,227.633,149.567,255.569z"
   id="path20" />
<path
   style="fill:#754C24;"
   d="M102.769,249.102c3.576,3.573,3.574,9.365-0.001,12.938c-3.575,3.574-9.372,3.575-12.946,0.001  c-3.576-3.574-3.576-9.368,0-12.94C93.398,245.527,99.195,245.527,102.769,249.102z"
   id="path22" />
<ellipse
   style="fill:#F48911;"
   cx="391.441"
   cy="306.416"
   rx="34.649"
   ry="34.628"
   id="ellipse24" />
<path
   style="fill:#FFC38D;"
   d="M292.765,370.831c-3.936,3.934-10.318,3.934-14.254,0l-47.216-47.193  c-3.937-3.935-3.937-10.312,0-14.247l47.217-47.192c3.936-3.935,10.317-3.935,14.255,0l47.217,47.192  c3.935,3.935,3.935,10.312,0,14.247L292.765,370.831z"
   id="path26" />
<path
   style="fill:#E0D9AF;"
   d="M50.882,302.004c8.512,82.768,78.483,147.331,163.543,147.331h83.153  c85.06,0,155.032-64.562,163.543-147.331H50.882z"
   id="path28" />
<path
   style="opacity:0.1;enable-background:new    ;"
   d="M95.38,302.004H50.882c8.512,82.768,78.483,147.331,163.543,147.331h44.498  C173.863,449.335,103.892,384.773,95.38,302.004z"
   id="path30" />
<g
   id="g36">
	<path
   style="fill:#FCE9C3;"
   d="M376.475,82.501h-52.093c-4.328,0-7.837-3.509-7.837-7.837c0-4.328,3.509-7.837,7.837-7.837h52.093   c14.112,0,25.594-11.474,25.594-25.578c0.001-14.103-11.48-25.576-25.594-25.576H353.41c-4.328,0-7.837-3.509-7.837-7.837   S349.082,0,353.41,0h23.065c22.755,0,41.267,18.505,41.267,41.25C417.743,63.996,399.231,82.501,376.475,82.501z"
   id="path32" />
	<path
   style="fill:#FCE9C3;"
   d="M282.124,128.677c-4.328,0-7.837-3.509-7.837-7.837v-18.179c0-19.759,16.082-35.834,35.848-35.834   h43.649c4.328,0,7.837,3.509,7.837,7.837c0,4.328-3.509,7.837-7.837,7.837h-43.649c-11.125,0-20.175,9.044-20.175,20.16v18.179   C289.961,125.168,286.452,128.677,282.124,128.677z"
   id="path34" />
</g>
<g
   id="g44">
	<path
   style="fill:#F2D8A0;"
   d="M170.066,176.143h-59.694c-16.024,0-29.06-13.028-29.06-29.041s13.036-29.041,29.06-29.041h27.468   c4.328,0,7.837-3.509,7.837-7.837s-3.509-7.837-7.837-7.837h-27.468c-24.666,0-44.733,20.059-44.733,44.714   s20.067,44.714,44.733,44.714h59.694c4.328,0,7.837-3.509,7.837-7.837C177.903,179.651,174.394,176.143,170.066,176.143z"
   id="path38" />
	<path
   style="fill:#F2D8A0;"
   d="M196.861,19.954h-36.386c-4.328,0-7.837,3.509-7.837,7.837s3.509,7.837,7.837,7.837h36.386   c18.416,0,33.399,14.974,33.399,33.379c0,18.406-14.983,33.38-33.399,33.38h-32.226c-4.328,0-7.837,3.509-7.837,7.837   s3.509,7.837,7.837,7.837h32.227c27.059,0,49.073-22.006,49.073-49.054S223.92,19.954,196.861,19.954z"
   id="path40" />
	<path
   style="fill:#F2D8A0;"
   d="M379.753,117.775h-18.718c-4.328,0-7.837,3.509-7.837,7.837s3.509,7.837,7.837,7.837h18.718   c14.973,0,27.155,12.174,27.155,27.138s-12.181,27.138-27.155,27.138h-52.137c-4.328,0-7.837,3.509-7.837,7.837   c0,4.328,3.509,7.837,7.837,7.837h52.137c23.616,0,42.828-19.205,42.828-42.812C422.58,136.98,403.368,117.775,379.753,117.775z"
   id="path42" />
</g>
<path
   style="fill:#E0D9AF;"
   d="M354.255,493.547c0,5.863-4.755,10.616-10.621,10.616H168.37c-5.867,0-10.621-4.753-10.621-10.616  v-5.309c0-5.863,4.755-10.616,10.621-10.616h175.263c5.867,0,10.621,4.753,10.621,10.616v5.309H354.255z"
   id="path46" />
<g
   id="g52">
	<path
   style="fill:#FFFFFF;"
   d="M370.888,350.589c16.434,6.808,21.953,12.327,28.761,28.761   c6.808-16.434,12.326-21.953,28.761-28.761c-16.435-6.808-21.953-12.326-28.761-28.761   C392.841,338.263,387.322,343.782,370.888,350.589z"
   id="path48" />
	<circle
   style="fill:#FFFFFF;"
   cx="368.997"
   cy="387.803"
   r="12.689"
   id="circle50" />
</g>
<path
   d="M481.521,294.167h-49.402c-5.27-17.465-21.511-30.222-40.68-30.222c-3.91,0-7.695,0.54-11.293,1.533l-22.687-22.675  c-3.383-3.38-7.882-5.241-12.665-5.241s-9.282,1.861-12.666,5.243l-15.432,15.424l-7.18-31.156  c-0.973-4.218-5.178-6.847-9.397-5.876c-4.217,0.972-6.849,5.178-5.878,9.397l6.589,28.59l-2.527-2.526  c-3.383-3.382-7.883-5.245-12.666-5.245c-4.786,0-9.284,1.863-12.667,5.245l-37.53,37.51h-1.206  c-2.386-13.883-11.529-25.48-23.921-31.274l18.338-79.574c0.719-3.116,3.455-5.292,6.656-5.292h41.384  c3.201,0,5.936,2.177,6.654,5.291l4.152,18.017c0.973,4.218,5.181,6.844,9.397,5.876c4.217-0.973,6.848-5.178,5.876-9.397  L298.62,179.8c-2.367-10.271-11.384-17.446-21.927-17.446h-41.384c-10.543,0-19.561,7.173-21.928,17.446l-10.999,47.725  l-12.487-12.48c-3.383-3.382-7.883-5.245-12.667-5.245c-4.785,0-9.283,1.863-12.667,5.245l-23.216,23.203  c-15.779-11.512-33.371-18.092-49.317-18.092c-12.646,0-23.449,4.116-31.24,11.902c-10.664,10.659-14.346,26.667-10.369,45.074  c1.229,5.685,3.175,11.402,5.734,17.037H30.482c-15.784,0-28.625,12.837-28.625,28.615c0,15.778,12.841,28.615,28.625,28.615h24.977  c9.648,23.067,24.313,43.958,43.221,61.116c25.087,22.765,56.03,37.436,89.082,42.588l-6.029,14.685h-13.365  c-10.178,0-18.458,8.278-18.458,18.453v5.309c0,10.175,8.281,18.453,18.458,18.453h108.531c4.328,0,7.837-3.509,7.837-7.837  c0-4.328-3.509-7.837-7.837-7.837H168.37c-1.536,0-2.785-1.247-2.785-2.779v-5.309c0-1.533,1.25-2.779,2.785-2.779h175.263  c1.536,0,2.785,1.247,2.785,2.779v5.309c0,1.533-1.25,2.779-2.785,2.779h-35.387c-4.328,0-7.837,3.509-7.837,7.837  c0,4.328,3.509,7.837,7.837,7.837h35.387c10.178,0,18.458-8.278,18.458-18.453v-5.309c0-10.175-8.281-18.453-18.458-18.453h-13.365  l-6.029-14.685c33.053-5.153,63.995-19.824,89.082-42.588c18.909-17.157,33.574-38.049,43.221-61.116h24.977  c15.783,0,28.625-12.837,28.625-28.615C510.144,307.005,497.304,294.167,481.521,294.167z M30.482,335.723  c-7.141,0-12.952-5.805-12.952-12.941s5.811-12.941,12.952-12.941h13.481c1.275,8.81,3.23,17.458,5.824,25.882L30.482,335.723  L30.482,335.723z M391.439,279.619c10.365,0,19.349,5.924,23.808,14.548h-47.616C372.089,285.542,381.074,279.619,391.439,279.619z   M343.206,253.891c0.543-0.543,1.163-0.656,1.588-0.656c0.425,0,1.046,0.114,1.587,0.655l19.014,19.005  c-6.869,5.346-12.062,12.745-14.636,21.272h-14.923l-16.462-16.454L343.206,253.891z M284.052,267.743  c0.543-0.542,1.163-0.656,1.587-0.656c0.424,0,1.044,0.114,1.587,0.657l26.439,26.424h-56.051L284.052,267.743z M218.194,294.167  h-36.031c-1.389-4.831-3.25-9.659-5.57-14.416c4.431-3.242,9.885-5.168,15.785-5.168  C204.661,274.582,215.035,282.884,218.194,294.167z M175.643,226.128c0.543-0.543,1.163-0.657,1.587-0.657  c0.424,0,1.043,0.114,1.586,0.657l19.415,19.406l-3.105,13.474c-0.91-0.059-1.825-0.098-2.749-0.098  c-8.797,0-16.973,2.693-23.759,7.289c-3.908-5.652-8.427-11.091-13.511-16.171c-0.564-0.564-1.133-1.12-1.705-1.67L175.643,226.128z   M71.871,243.141c6.049-6.046,14.303-7.315,20.16-7.315c16.717,0,36.156,9.452,51.997,25.285  c10.033,10.028,17.529,21.518,21.68,33.054h-56.989l18.151-18.142c3.062-3.059,3.063-8.022,0.003-11.082  c-3.061-3.063-8.023-3.063-11.082-0.003l-29.241,29.228H73.713c-3.776-6.693-6.506-13.569-7.97-20.348  C62.928,260.799,65.105,249.905,71.871,243.141z M198.677,469.785l5.311-12.938c3.465,0.209,6.944,0.325,10.436,0.325h83.153  c3.492,0,6.972-0.116,10.436-0.325l5.311,12.938H198.677z M402.789,400.904c-28.849,26.177-66.213,40.594-105.211,40.594h-83.153  c-38.998,0-76.363-14.416-105.212-40.594c-26.484-24.032-43.822-56.102-49.404-91.064h392.382  C446.611,344.803,429.274,376.873,402.789,400.904z M481.521,335.723h-19.306c2.595-8.423,4.549-17.072,5.824-25.882h13.481  c7.142,0,12.951,5.805,12.951,12.941S488.662,335.723,481.521,335.723z"
   id="path54" />
<g
   id="g56">
</g>
<g
   id="g58">
</g>
<g
   id="g60">
</g>
<g
   id="g62">
</g>
<g
   id="g64">
</g>
<g
   id="g66">
</g>
<g
   id="g68">
</g>
<g
   id="g70">
</g>
<g
   id="g72">
</g>
<g
   id="g74">
</g>
<g
   id="g76">
</g>
<g
   id="g78">
</g>
<g
   id="g80">
</g>
<g
   id="g82">
</g>
<g
   id="g84">
</g>
<g
   transform="matrix(0.25,-0.4330127,0.4330127,0.25,202.64443,259.97321)"
   id="g102"
   style="stroke:#000000;stroke-width:14;stroke-miterlimit:4;stroke-dasharray:none;stroke-opacity:1"><g
     id="g88"
     style="stroke:#000000;stroke-width:14;stroke-miterlimit:4;stroke-dasharray:none;stroke-opacity:1;fill:#ff0000"><path
       inkscape:connector-curvature="0"
       style="fill:#ff0000;stroke:#000000;stroke-width:14;stroke-miterlimit:4;stroke-dasharray:none;stroke-opacity:1"
       d="m 138.121,261.672 c -0.006,-0.028 -0.016,-0.07 -0.021,-0.094 0.006,0.028 0.014,0.062 0.021,0.094 z"
       id="path2-5" /><path
       inkscape:connector-curvature="0"
       style="fill:#ff0000;stroke:#000000;stroke-width:14;stroke-miterlimit:4;stroke-dasharray:none;stroke-opacity:1"
       d="m 122.448,123.291 c 0.206,0.007 0.416,0.022 0.624,0.031 -0.208,-0.009 -0.417,-0.024 -0.624,-0.031 z"
       id="path4-5" /><path
       inkscape:connector-curvature="0"
       style="fill:#ff0000;stroke:#000000;stroke-width:14;stroke-miterlimit:4;stroke-dasharray:none;stroke-opacity:1"
       d="m 127.993,123.81 c 0.312,0.05 0.621,0.111 0.931,0.169 -0.31,-0.059 -0.619,-0.119 -0.931,-0.169 z"
       id="path6-7" /><path
       inkscape:connector-curvature="0"
       style="fill:#ff0000;stroke:#000000;stroke-width:14;stroke-miterlimit:4;stroke-dasharray:none;stroke-opacity:1"
       d="m 143.888,134.62 c 0.152,0.388 0.307,0.775 0.434,1.189 -0.127,-0.414 -0.281,-0.8 -0.434,-1.189 z"
       id="path8-2" /><path
       inkscape:connector-curvature="0"
       style="fill:#ff0000;stroke:#000000;stroke-width:14;stroke-miterlimit:4;stroke-dasharray:none;stroke-opacity:1"
       d="m 124.29,123.387 c 0.255,0.018 0.512,0.045 0.769,0.068 -0.256,-0.022 -0.513,-0.05 -0.769,-0.068 z"
       id="path10-2" /><path
       inkscape:connector-curvature="0"
       style="fill:#ff0000;stroke:#000000;stroke-width:14;stroke-miterlimit:4;stroke-dasharray:none;stroke-opacity:1"
       d="m 126.143,123.557 c 0.29,0.032 0.58,0.076 0.869,0.115 -0.29,-0.039 -0.579,-0.082 -0.869,-0.115 z"
       id="path12-1" /><path
       inkscape:connector-curvature="0"
       style="fill:#ff0000;stroke:#000000;stroke-width:14;stroke-miterlimit:4;stroke-dasharray:none;stroke-opacity:1"
       d="m 139.126,265.783 c -0.051,-0.196 -0.096,-0.37 -0.143,-0.554 0.047,0.186 0.091,0.356 0.143,0.554 z"
       id="path14-6" /><path
       inkscape:connector-curvature="0"
       style="fill:#ff0000;stroke:#000000;stroke-width:14;stroke-miterlimit:4;stroke-dasharray:none;stroke-opacity:1"
       d="m 138.482,263.231 c -0.032,-0.134 -0.063,-0.263 -0.092,-0.383 0.029,0.122 0.059,0.246 0.092,0.383 z"
       id="path16" /><path
       inkscape:connector-curvature="0"
       style="fill:#ff0000;stroke:#000000;stroke-width:14;stroke-miterlimit:4;stroke-dasharray:none;stroke-opacity:1"
       d="m 139.571,267.441 c -0.022,-0.079 -0.04,-0.149 -0.061,-0.227 0.021,0.078 0.039,0.147 0.061,0.227 z"
       id="path18" /><path
       inkscape:connector-curvature="0"
       style="fill:#ff0000;stroke:#000000;stroke-width:14;stroke-miterlimit:4;stroke-dasharray:none;stroke-opacity:1"
       d="m 138.77,264.402 c -0.047,-0.185 -0.089,-0.356 -0.131,-0.525 0.043,0.171 0.084,0.337 0.131,0.525 z"
       id="path20-3" /><path
       inkscape:connector-curvature="0"
       style="fill:#ff0000;stroke:#000000;stroke-width:14;stroke-miterlimit:4;stroke-dasharray:none;stroke-opacity:1"
       d="m 138.265,262.312 c -0.019,-0.082 -0.04,-0.173 -0.056,-0.245 0.017,0.075 0.036,0.157 0.056,0.245 z"
       id="path22-8" /><path
       inkscape:connector-curvature="0"
       style="fill:#ff0000;stroke:#000000;stroke-width:14;stroke-miterlimit:4;stroke-dasharray:none;stroke-opacity:1"
       d="m 140.942,129.893 c 0.247,0.266 0.49,0.537 0.719,0.823 -0.229,-0.286 -0.471,-0.556 -0.719,-0.823 z"
       id="path24" /><path
       inkscape:connector-curvature="0"
       style="fill:#ff0000;stroke:#000000;stroke-width:14;stroke-miterlimit:4;stroke-dasharray:none;stroke-opacity:1"
       d="m 140.445,129.372 c -0.255,-0.249 -0.519,-0.485 -0.789,-0.716 0.27,0.231 0.535,0.467 0.789,0.716 z"
       id="path26-1" /><path
       inkscape:connector-curvature="0"
       style="fill:#ff0000;stroke:#000000;stroke-width:14;stroke-miterlimit:4;stroke-dasharray:none;stroke-opacity:1"
       d="m 140.285,269.95 c -0.072,-0.246 -0.148,-0.503 -0.216,-0.74 0.068,0.238 0.144,0.493 0.216,0.74 z"
       id="path28-6" /><path
       inkscape:connector-curvature="0"
       style="fill:#ff0000;stroke:#000000;stroke-width:14;stroke-miterlimit:4;stroke-dasharray:none;stroke-opacity:1"
       d="m 129.83,124.154 c 0.323,0.07 0.643,0.15 0.964,0.229 -0.322,-0.079 -0.64,-0.16 -0.964,-0.229 z"
       id="path30-3" /><path
       inkscape:connector-curvature="0"
       style="fill:#ff0000;stroke:#000000;stroke-width:14;stroke-miterlimit:4;stroke-dasharray:none;stroke-opacity:1"
       d="m 143.077,132.871 c 0.187,0.343 0.374,0.687 0.539,1.054 -0.165,-0.367 -0.352,-0.71 -0.539,-1.054 z"
       id="path32-8" /><path
       inkscape:connector-curvature="0"
       style="fill:#ff0000;stroke:#000000;stroke-width:14;stroke-miterlimit:4;stroke-dasharray:none;stroke-opacity:1"
       d="m 142.089,131.296 c 0.219,0.303 0.436,0.609 0.634,0.934 -0.199,-0.325 -0.416,-0.63 -0.634,-0.934 z"
       id="path34-7" /><path
       inkscape:connector-curvature="0"
       style="fill:#ff0000;stroke:#000000;stroke-width:14;stroke-miterlimit:4;stroke-dasharray:none;stroke-opacity:1"
       d="m 133.399,125.155 c 0.322,0.114 0.639,0.238 0.955,0.364 -0.316,-0.126 -0.632,-0.25 -0.955,-0.364 z"
       id="path36" /><path
       inkscape:connector-curvature="0"
       style="fill:#ff0000;stroke:#000000;stroke-width:14;stroke-miterlimit:4;stroke-dasharray:none;stroke-opacity:1"
       d="m 131.636,124.599 c 0.326,0.091 0.647,0.192 0.967,0.294 -0.321,-0.102 -0.641,-0.203 -0.967,-0.294 z"
       id="path38-6" /><path
       inkscape:connector-curvature="0"
       style="fill:#ff0000;stroke:#000000;stroke-width:14;stroke-miterlimit:4;stroke-dasharray:none;stroke-opacity:1"
       d="m 135.096,125.829 c 0.317,0.14 0.628,0.289 0.936,0.444 -0.308,-0.154 -0.619,-0.304 -0.936,-0.444 z"
       id="path40-2" /><path
       inkscape:connector-curvature="0"
       style="fill:#ff0000;stroke:#000000;stroke-width:14;stroke-miterlimit:4;stroke-dasharray:none;stroke-opacity:1"
       d="m 136.715,126.631 c 0.305,0.168 0.605,0.344 0.899,0.528 -0.294,-0.184 -0.593,-0.36 -0.899,-0.528 z"
       id="path42-0" /><path
       inkscape:connector-curvature="0"
       style="fill:#ff0000;stroke:#000000;stroke-width:14;stroke-miterlimit:4;stroke-dasharray:none;stroke-opacity:1"
       d="m 138.241,127.571 c 0.289,0.198 0.573,0.403 0.849,0.618 -0.276,-0.216 -0.559,-0.42 -0.849,-0.618 z"
       id="path44" /><path
       inkscape:connector-curvature="0"
       style="fill:#ff0000;stroke:#000000;stroke-width:14;stroke-miterlimit:4;stroke-dasharray:none;stroke-opacity:1"
       d="m 140.947,272.164 c -0.097,-0.315 -0.194,-0.633 -0.285,-0.937 0.091,0.305 0.188,0.621 0.285,0.937 z"
       id="path46-1" /><path
       inkscape:connector-curvature="0"
       style="fill:#ff0000;stroke:#000000;stroke-width:14;stroke-miterlimit:4;stroke-dasharray:none;stroke-opacity:1"
       d="m 164.189,320.946 c -0.322,-0.457 -0.631,-0.918 -0.945,-1.377 0.314,0.459 0.624,0.919 0.945,1.377 z"
       id="path48-4" /><path
       inkscape:connector-curvature="0"
       style="fill:#ff0000;stroke:#000000;stroke-width:14;stroke-miterlimit:4;stroke-dasharray:none;stroke-opacity:1"
       d="m 159.71,314.152 c -0.311,-0.502 -0.62,-1.004 -0.923,-1.506 0.304,0.503 0.612,1.004 0.923,1.506 z"
       id="path50" /><path
       inkscape:connector-curvature="0"
       style="fill:#ff0000;stroke:#000000;stroke-width:14;stroke-miterlimit:4;stroke-dasharray:none;stroke-opacity:1"
       d="m 157.632,310.697 c -0.285,-0.487 -0.571,-0.975 -0.849,-1.462 0.278,0.488 0.564,0.974 0.849,1.462 z"
       id="path52" /><path
       inkscape:connector-curvature="0"
       style="fill:#ff0000;stroke:#000000;stroke-width:14;stroke-miterlimit:4;stroke-dasharray:none;stroke-opacity:1"
       d="m 166.605,324.278 c -0.214,-0.284 -0.415,-0.573 -0.626,-0.858 0.211,0.285 0.413,0.573 0.626,0.858 z"
       id="path54-2" /><path
       inkscape:connector-curvature="0"
       style="fill:#ff0000;stroke:#000000;stroke-width:14;stroke-miterlimit:4;stroke-dasharray:none;stroke-opacity:1"
       d="m 172.935,332.002 c -0.389,-0.436 -0.78,-0.871 -1.16,-1.312 0.381,0.441 0.772,0.875 1.16,1.312 z"
       id="path56" /><path
       inkscape:connector-curvature="0"
       style="fill:#ff0000;stroke:#000000;stroke-width:14;stroke-miterlimit:4;stroke-dasharray:none;stroke-opacity:1"
       d="m 216.451,345.062 c -20.462,-19.38 -44.309,-54.734 -41.717,-113.111 2.579,-58.105 5.779,-94.521 7.23,-109.214 -0.554,-0.023 -19.37,-1.779 -22.356,14.206 -0.669,3.584 -3.679,5.737 -7.324,5.737 -0.032,0 -0.066,0 -0.098,0 -3.603,0 -6.706,-1.998 -7.385,-5.545 -0.12,-0.626 -0.282,-0.932 -0.454,-1.508 -4.587,-2.226 -10.178,-2.747 -15.164,-2.749 -0.897,16.436 -1.313,65.191 17.323,137.796 0.032,0.127 0.062,0.291 0.088,0.42 0.093,0.46 7.571,36.042 29.928,64.722 4.848,4.944 10.227,9.499 16.223,13.344 13.578,8.709 28.94,13.022 45.769,12.855 -6.826,-4.216 -14.477,-9.768 -22.063,-16.953 z"
       id="path58" /><path
       inkscape:connector-curvature="0"
       style="fill:#ff0000;stroke:#000000;stroke-width:14;stroke-miterlimit:4;stroke-dasharray:none;stroke-opacity:1"
       d="m 175.852,335.155 c -0.422,-0.438 -0.841,-0.879 -1.255,-1.323 0.414,0.445 0.833,0.885 1.255,1.323 z"
       id="path60" /><path
       inkscape:connector-curvature="0"
       style="fill:#ff0000;stroke:#000000;stroke-width:14;stroke-miterlimit:4;stroke-dasharray:none;stroke-opacity:1"
       d="m 155.613,307.135 c -0.236,-0.43 -0.479,-0.861 -0.71,-1.289 0.231,0.429 0.473,0.859 0.71,1.289 z"
       id="path62" /><path
       inkscape:connector-curvature="0"
       style="fill:#ff0000;stroke:#000000;stroke-width:14;stroke-miterlimit:4;stroke-dasharray:none;stroke-opacity:1"
       d="m 170.066,328.652 c -0.323,-0.392 -0.655,-0.78 -0.972,-1.175 0.317,0.395 0.648,0.783 0.972,1.175 z"
       id="path64" /><path
       inkscape:connector-curvature="0"
       style="fill:#ff0000;stroke:#000000;stroke-width:14;stroke-miterlimit:4;stroke-dasharray:none;stroke-opacity:1"
       d="m 161.894,317.57 c -0.327,-0.496 -0.646,-0.993 -0.966,-1.491 0.32,0.498 0.639,0.995 0.966,1.491 z"
       id="path66" /><path
       inkscape:connector-curvature="0"
       style="fill:#ff0000;stroke:#000000;stroke-width:14;stroke-miterlimit:4;stroke-dasharray:none;stroke-opacity:1"
       d="m 143.395,279.618 c -0.129,-0.367 -0.249,-0.719 -0.372,-1.078 0.123,0.359 0.243,0.71 0.372,1.078 z"
       id="path68" /><path
       inkscape:connector-curvature="0"
       style="fill:#ff0000;stroke:#000000;stroke-width:14;stroke-miterlimit:4;stroke-dasharray:none;stroke-opacity:1"
       d="m 145.912,286.368 c -0.155,-0.395 -0.316,-0.796 -0.466,-1.185 0.15,0.39 0.31,0.79 0.466,1.185 z"
       id="path70" /><path
       inkscape:connector-curvature="0"
       style="fill:#ff0000;stroke:#000000;stroke-width:14;stroke-miterlimit:4;stroke-dasharray:none;stroke-opacity:1"
       d="m 144.454,282.559 c -0.103,-0.278 -0.199,-0.546 -0.299,-0.82 0.1,0.274 0.197,0.542 0.299,0.82 z"
       id="path72" /><path
       inkscape:connector-curvature="0"
       style="fill:#ff0000;stroke:#000000;stroke-width:14;stroke-miterlimit:4;stroke-dasharray:none;stroke-opacity:1"
       d="m 142.488,276.974 c -0.123,-0.366 -0.24,-0.721 -0.357,-1.078 0.118,0.358 0.234,0.712 0.357,1.078 z"
       id="path74" /><path
       inkscape:connector-curvature="0"
       style="fill:#ff0000;stroke:#000000;stroke-width:14;stroke-miterlimit:4;stroke-dasharray:none;stroke-opacity:1"
       d="m 141.675,274.49 c -0.111,-0.345 -0.219,-0.686 -0.324,-1.021 0.105,0.336 0.213,0.674 0.324,1.021 z"
       id="path76" /><path
       inkscape:connector-curvature="0"
       style="fill:#ff0000;stroke:#000000;stroke-width:14;stroke-miterlimit:4;stroke-dasharray:none;stroke-opacity:1"
       d="m 147.187,289.527 c -0.187,-0.451 -0.375,-0.903 -0.555,-1.348 0.18,0.446 0.368,0.897 0.555,1.348 z"
       id="path78" /><path
       inkscape:connector-curvature="0"
       style="fill:#ff0000;stroke:#000000;stroke-width:14;stroke-miterlimit:4;stroke-dasharray:none;stroke-opacity:1"
       d="m 151.531,299.237 c -0.223,-0.46 -0.434,-0.915 -0.651,-1.373 0.217,0.458 0.429,0.912 0.651,1.373 z"
       id="path80" /><path
       inkscape:connector-curvature="0"
       style="fill:#ff0000;stroke:#000000;stroke-width:14;stroke-miterlimit:4;stroke-dasharray:none;stroke-opacity:1"
       d="m 153.273,302.74 c -0.187,-0.366 -0.365,-0.728 -0.548,-1.092 0.183,0.365 0.361,0.726 0.548,1.092 z"
       id="path82" /><path
       inkscape:connector-curvature="0"
       style="fill:#ff0000;stroke:#000000;stroke-width:14;stroke-miterlimit:4;stroke-dasharray:none;stroke-opacity:1"
       d="m 149.982,295.942 c -0.221,-0.483 -0.436,-0.96 -0.65,-1.438 0.214,0.478 0.428,0.955 0.65,1.438 z"
       id="path84" /><path
       inkscape:connector-curvature="0"
       style="fill:#ff0000;stroke:#000000;stroke-width:14;stroke-miterlimit:4;stroke-dasharray:none;stroke-opacity:1"
       d="m 148.538,292.711 c -0.208,-0.477 -0.413,-0.952 -0.614,-1.423 0.202,0.471 0.406,0.945 0.614,1.423 z"
       id="path86" /></g><g
     id="g98"
     style="stroke:#000000;stroke-width:14;stroke-miterlimit:4;stroke-dasharray:none;stroke-opacity:1"><path
       inkscape:connector-curvature="0"
       style="fill:#84bd93;stroke:#000000;stroke-width:14;stroke-miterlimit:4;stroke-dasharray:none;stroke-opacity:1"
       d="m 159.552,76.443 c 0.056,0.035 0.105,0.076 0.162,0.109 -0.056,-0.033 -0.106,-0.074 -0.162,-0.109 z"
       id="path90" /><path
       inkscape:connector-curvature="0"
       style="fill:#84bd93;stroke:#000000;stroke-width:14;stroke-miterlimit:4;stroke-dasharray:none;stroke-opacity:1"
       d="M 182.89,106.482 C 180.139,96.086 173,88.65 161.67,84.382 c -2.952,-1.111 -4.896,-3.948 -4.87,-7.103 0.002,-0.228 0.03,-1.41 0.289,-3.302 -0.725,-1.178 -1.143,-2.66 -1.131,-4.107 0.01,-1.116 0.563,-24.191 26.583,-45.191 -0.001,0 -0.002,0 -0.002,0 -0.567,0 -1.097,-0.983 -1.569,-1.418 -26.917,16.193 -30.473,54.27 -30.507,54.667 -0.264,3.094 -2.402,5.734 -5.382,6.606 -12.643,3.699 -18.361,14.506 -20.945,23.761 -0.775,-0.041 -1.56,-0.062 -2.357,-0.075 13.342,0.221 23.772,4.257 30.392,11.483 5.554,-6.535 14.525,-12.054 28.152,-12.054 0.934,0 1.886,0.03 2.853,0.083 -0.094,-0.416 -0.174,-0.827 -0.286,-1.25 z"
       id="path92" /><path
       inkscape:connector-curvature="0"
       style="fill:#84bd93;stroke:#000000;stroke-width:14;stroke-miterlimit:4;stroke-dasharray:none;stroke-opacity:1"
       d="m 158.62,75.767 c 0.027,0.023 0.052,0.05 0.079,0.073 -0.027,-0.023 -0.051,-0.05 -0.079,-0.073 z"
       id="path94" /><path
       inkscape:connector-curvature="0"
       style="fill:#84bd93;stroke:#000000;stroke-width:14;stroke-miterlimit:4;stroke-dasharray:none;stroke-opacity:1"
       d="m 157.811,74.966 c -0.002,-0.002 -0.003,-0.004 -0.005,-0.007 0.002,0.003 0.003,0.005 0.005,0.007 z"
       id="path96" /></g><path
     inkscape:connector-curvature="0"
     style="fill:#3f2d20;stroke:#000000;stroke-width:14;stroke-miterlimit:4;stroke-dasharray:none;stroke-opacity:1"
     d="m 266.766,359.084 c -0.201,-0.061 -20.308,-6.319 -39.973,-24.943 -26.452,-25.054 -38.912,-59.21 -37.034,-101.522 3.276,-73.773 23.975,-152.214 -18.018,-167.172 1.807,-7.506 8.002,-22.494 29.2,-34.861 1.866,-1.089 3.173,-2.926 3.59,-5.044 0.416,-2.119 -0.098,-4.315 -1.411,-6.028 C 188.159,0 182.908,0 180.384,0 c -1.379,0 -2.689,0.308 -3.896,0.917 -30.641,15.451 -39.084,50.557 -41.204,63.577 -41.88,17.917 -34.829,110.752 -11.931,200.053 1.001,4.824 14.788,67.413 61.199,97.237 15.865,10.193 33.596,15.309 52.965,15.307 9.228,0 18.831,-1.161 28.775,-3.488 3.313,-0.774 5.692,-3.676 5.804,-7.077 0.11,-3.401 -2.075,-6.453 -5.33,-7.442 z M 137.967,260.985 c -18.636,-72.605 -18.22,-121.29 -17.323,-137.726 9.769,0.005 21.875,2.518 24.157,14.435 0.679,3.547 3.783,6.106 7.385,6.106 0.032,0 0.066,0 0.098,-0.001 3.645,-0.047 6.655,-2.713 7.324,-6.297 2.985,-15.984 21.801,-14.79 22.356,-14.766 -1.451,14.693 -4.651,51.11 -7.23,109.214 -2.592,58.377 21.255,93.731 41.717,113.111 7.586,7.185 15.237,12.741 22.063,16.957 -16.829,0.166 -32.191,-4.141 -45.769,-12.851 -41.889,-26.866 -54.568,-87.198 -54.689,-87.798 -0.027,-0.128 -0.056,-0.256 -0.089,-0.384 z M 149.622,70.687 c 0.034,-0.397 3.59,-38.417 30.507,-54.611 1.54,1.421 3.646,3.661 5.876,6.241 -29.453,20.813 -30.035,46.5 -30.046,47.665 -0.026,3.154 1.918,5.991 4.87,7.103 11.33,4.267 18.469,11.703 21.22,22.099 0.822,3.108 1.139,6.068 1.213,8.552 -0.996,-0.056 -1.976,-0.084 -2.938,-0.084 -13.626,0 -22.598,5.521 -28.152,12.055 -6.62,-7.227 -17.05,-11.258 -30.392,-11.48 1.442,-9.879 6.282,-26.23 22.46,-30.962 2.979,-0.872 5.117,-3.484 5.382,-6.578 z"
     id="path100" /></g></svg>