<svg height="512" viewBox="0 0 52 60" width="512" xmlns="http://www.w3.org/2000/svg"><g id="Page-1" fill="none" fill-rule="evenodd"><g id="005---Christmas-Tree" fill-rule="nonzero"><path id="Shape" d="m38 18c-.8179332 1.8782812-2.713961 3.0533405-4.76 2.95-1.1333668-.0930355-2.2358427-.4162924-3.24-.95-.1663304 1.5821219-1.0085923 3.0150609-2.31 3.93-.3666229-.5793116-1.0044241-.9304674-1.69-.9304674s-1.3233771.3511558-1.69.9304674c-1.3014077-.9149391-2.1436696-2.3478781-2.31-3.93-1.0041573.5337076-2.1066332.8569645-3.24.95-2.046039.1033405-3.9420668-1.0717188-4.76-2.95 2.8117497-1.2047833 5.4063385-2.8635634 7.68-4.91l-.2 1.25c-.042146.2067542.0388415.4192589.2079029.5455199.1690613.126261.3958145.143588.5820971.0444801l3.47-1.91c.161626-.0900947.358374-.0900947.52 0l3.47 1.91c.1862826.0991079.4130358.0817809.5820971-.0444801.1690614-.126261.2500489-.3387657.2079029-.5455199l-.2-1.25c2.2736615 2.0464366 4.8682503 3.7052167 7.68 4.91z" fill="#a4c400"/><path id="Shape" d="m30.32 13.09.2 1.25c.042146.2067542-.0388415.4192589-.2079029.5455199-.1690613.126261-.3958145.143588-.5820971.0444801l-.46-.253c1.7646143 1.3412892 3.6894325 2.4575494 5.73 3.323-.5782469 1.2931815-1.6683018 2.2875984-3.009 2.745.4091757.105517.8273354.1724762 1.249.2 2.0448247.104169 3.940499-1.0686799 4.76-2.945-2.8117497-1.2047833-5.4063385-2.8635634-7.68-4.91z" fill="#90ac00"/><path id="Shape" d="m42 28c-.7802809 1.8263151-2.5841107 3.0025542-4.57 2.98-.1426762.0168729-.2863736.0235565-.43.02-2.1792741.1037668-4.3188407-.6094221-6-2 0 0-1 5-5 7-4-2-5-7-5-7-1.6811593 1.3905779-3.8207259 2.1037668-6 2-.1436264.0035565-.2873238-.0031271-.43-.02-1.9858893.0225542-3.7897191-1.1536849-4.57-2.98 3.496233-1.5271181 6.520643-3.9611467 8.76-7.05 1.1333668-.0930355 2.2358427-.4162924 3.24-.95.1663304 1.5821219 1.0085923 3.0150609 2.31 3.93-.204126.3194133-.3117635.6909365-.31 1.07 0 1.1045695.8954305 2 2 2s2-.8954305 2-2c.0017635-.3790635-.105874-.7505867-.31-1.07 1.3014077-.9149391 2.1436696-2.3478781 2.31-3.93 1.0041573.5337076 2.1066332.8569645 3.24.95 2.239357 3.0888533 5.263767 5.5228819 8.76 7.05z" fill="#60a917"/><path id="Shape" d="m33.24 20.95c-1.1333668-.0930355-2.2358427-.4162924-3.24-.95-.0211786.3055467-.0778945.6075841-.169.9.137.017.279.04.409.047 2.2389625 3.0899563 5.2634087 5.5250497 8.76 7.053-.6473425 1.5255072-2.0366397 2.6085086-3.674 2.864.5536718.0883193 1.1133327.1337875 1.674.136.1436264.0035565.2873238-.0031271.43-.02 1.9858893.0225542 3.7897191-1.1536849 4.57-2.98-3.496233-1.5271181-6.520643-3.9611467-8.76-7.05z" fill="#549414"/><path id="Shape" d="m45 37c-.4550092 1.6380185-1.6174207 2.9874427-3.17 3.68-.585096.2184248-1.205501.326911-1.83.32-1.4895387.0194777-2.9648917-.2913027-4.32-.91.2074173-.3258433.3183608-.7037448.32-1.09.0009045-1.0696949-.8400495-1.950733-1.9086278-1.9996028-1.0685784-.0488698-1.9864396.7517316-2.0831764 1.8170437s.6619014 2.0181499 1.7218042 2.1625591c-.4300391 1.8929248-1.3748097 3.6301953-2.73 5.02-1.9446037-1.3633944-3.6366056-3.0553963-5-5-1.3633944 1.9446037-3.0553963 3.6366056-5 5-1.3551903-1.3898047-2.2999609-3.1270752-2.73-5.02 1.0599028-.1444092 1.818541-1.097247 1.7218042-2.1625591s-1.014598-1.8659135-2.0831764-1.8170437c-1.0685783.0488698-1.9095323.9299079-1.9086278 1.9996028.0016392.3862552.1125827.7641567.32 1.09-1.3551083.6186973-2.8304613.9294777-4.32.91-.624499.006911-1.244904-.1015752-1.83-.32-1.55257925-.6925573-2.71499081-2.0419815-3.17-3.68 4.86-2.08 6.83-4.65 7.57-6.02.1426762.0168729.2863736.0235565.43.02 2.1792741.1037668 4.3188407-.6094221 6-2 0 0 1 5 5 7 4-2 5-7 5-7 1.6811593 1.3905779 3.8207259 2.1037668 6 2 .1436264.0035565.2873238-.0031271.43-.02.74 1.37 2.71 3.94 7.57 6.02z" fill="#a4c400"/><path id="Shape" d="m37.43 30.98c-.1426762.0168729-.2863736.0235565-.43.02-2.1792741.1037668-4.3188407-.6094221-6-2-.1117299.4880091-.2567356.9677973-.434 1.436 1.1045399.3808255 2.2656765.5715305 3.434.564.1436264.0035565.2873238-.0031271.43-.02.74 1.37 2.71 3.94 7.57 6.02-.4550092 1.6380185-1.6174207 2.9874427-3.17 3.68-.196127.0687463-.3965586.1245331-.6.167.5848488.0991172 1.1768179.1502874 1.77.153.624499.006911 1.244904-.1015752 1.83-.32 1.5525793-.6925573 2.7149908-2.0419815 3.17-3.68-4.86-2.08-6.83-4.65-7.57-6.02z" fill="#90ac00"/><path id="Shape" d="m51 49s-1 4-5 4c-1.6678829.0086459-3.2894446-.5483253-4.6-1.58.6489432-.6361068.7874847-1.6297512.3372905-2.4191081s-1.3759542-1.1759979-2.2538382-.9413089c-.8778839.234689-1.4872093 1.0317119-1.4834523 1.940417.0069662 1.0280859.7871759 1.8858854 1.81 1.99-.2423757 1.7791766-.8592774 3.4867332-1.81 5.01-2.8132302-.2222643-5.3802554-1.6891359-7-4-.6730723 2.6534621-2.5114109 4.8594685-5 6-2.4885891-1.1405315-4.3269277-3.3465379-5-6-1.6197446 2.3108641-4.1867698 3.7777357-7 4-.9507226-1.5232668-1.5676243-3.2308234-1.81-5.01 1.0751184-.1026004 1.8745868-1.0402249 1.8059577-2.1180451s-.9805635-1.9064729-2.0600124-1.8718834-1.93646074.9199257-1.9359453 1.9999285c.0007579.5347899.2170567 1.0466969.6 1.42-1.31055543 1.0316747-2.93211705 1.5886459-4.6 1.58-4 0-5-4-5-4 3.6936202-1.9780777 6.8430762-4.8355994 9.17-8.32.585096.2184248 1.205501.326911 1.83.32 1.4895387.0194777 2.9648917-.2913027 4.32-.91.3703083.5676681 1.0022277.9099578 1.68.91.0902997-.0016891.180437-.0083659.27-.02.4300391 1.8929248 1.3748097 3.6301953 2.73 5.02 1.9446037-1.3633944 3.6366056-3.0553963 5-5 1.3633944 1.9446037 3.0553963 3.6366056 5 5 1.3551903-1.3898047 2.2999609-3.1270752 2.73-5.02.089563.0116341.1797003.0183109.27.02.6777723-.0000422 1.3096917-.3423319 1.68-.91 1.3551083.6186973 2.8304613.9294777 4.32.91.624499.006911 1.244904-.1015752 1.83-.32 2.3269238 3.4844006 5.4763798 6.3419223 9.17 8.32z" fill="#60a917"/><path id="Shape" d="m41.83 40.68c-.585096.2184248-1.205501.326911-1.83.32-.35 0-.669-.029-.989-.057 2.3106319 3.3643512 5.3927865 6.1269411 8.989 8.057-.4925761 1.7983084-1.8502226 3.2321092-3.619 3.822.5316357.1177427 1.0744822.1774256 1.619.178 4 0 5-4 5-4-3.6936202-1.9780777-6.8430762-4.8355994-9.17-8.32z" fill="#549414"/><path id="Shape" d="m30.01 9.77c-.1298027.12762092-.1894758.3103698-.16.49l.46 2.83h.01l.2 1.25c.042146.2067542-.0388415.4192589-.2079029.5455199-.1690613.126261-.3958145.143588-.5820971.0444801l-3.47-1.91c-.161626-.0900947-.358374-.0900947-.52 0l-3.47 1.91c-.1862826.0991079-.4130358.0817809-.5820971-.0444801-.1690614-.126261-.2500489-.3387657-.2079029-.5455199l.2-1.25h.01l.46-2.83c.0294758-.1796302-.0301973-.36237908-.16-.49l-2.83-2.9c-.1479976-.14964626-.1999762-.36944295-.134685-.56952879s.2369072-.34692005.444685-.38047121l3.89-.6c.179945-.02818084.333847-.14454578.41-.31l1.74-3.69c.0839349-.19609497.2766967-.32326445.49-.32326445s.4060651.12716948.49.32326445l1.74 3.69c.076153.16545422.230055.28181916.41.31l3.89.6c.2077778.03355116.3793938.18038537.444685.38047121s.0133126.41988253-.134685.56952879z" fill="#ffdc00"/><path id="Shape" d="m32.84 6.87c.1479976-.14964626.1999762-.36944295.134685-.56952879s-.2369072-.34692005-.444685-.38047121l-3.89-.6c-.179945-.02818084-.333847-.14454578-.41-.31l-1.74-3.69c-.0839349-.19609497-.2766967-.32326445-.49-.32326445s-.4060651.12716948-.49.32326445l-1.01 2.142.73 1.548c.076153.16545422.230055.28181916.41.31l3.89.6c.2077778.03355116.3793938.18038537.444685.38047121s.0133126.41988253-.134685.56952879l-2.83 2.9c-.1298027.12762092-.1894758.3103698-.16.49l.46 2.83h.01l.09.563 2.32 1.277c.1862826.0991079.4130358.0817809.5820971-.0444801.1690614-.126261.2500489-.3387657.2079029-.5455199l-.2-1.25h-.01l-.46-2.83c-.0294758-.1796302.0301973-.36237908.16-.49z" fill="#fec108"/><path id="Shape" d="m28 25c0 1.1045695-.8954305 2-2 2s-2-.8954305-2-2c-.0017635-.3790635.105874-.7505867.31-1.07.3666229-.5793116 1.0044241-.9304674 1.69-.9304674s1.3233771.3511558 1.69.9304674c.204126.3194133.3117635.6909365.31 1.07z" fill="#e91e63"/><path id="Shape" d="m20 39c-.0008453.9995852-.739565 1.8450563-1.73 1.98-.089563.0116341-.1797003.0183109-.27.02-.6777723-.0000422-1.3096917-.3423319-1.68-.91-.2074173-.3258433-.3183608-.7037448-.32-1.09 0-1.1045695.8954305-2 2-2s2 .8954305 2 2z" fill="#e91e63"/><circle id="Oval" cx="26" cy="49" fill="#e91e63" r="2"/><path id="Shape" d="m14 50c-.0069662 1.0280859-.7871759 1.8858854-1.81 1.99-.0629475.0085849-.1264991.0119297-.19.01-.5254657.0017364-1.0297134-.2071662-1.4-.58-.64894319-.6361068-.78748468-1.6297512-.3372905-2.4191081.4501942-.7893569 1.3759542-1.1759979 2.2538382-.9413089.8778839.234689 1.4872093 1.0317119 1.4834523 1.940417z" fill="#e91e63"/><path id="Shape" d="m42 50c-.0007579.5347899-.2170567 1.0466969-.6 1.42-.3702866.3728338-.8745343.5817364-1.4.58-.0635009.0019297-.1270525-.0014151-.19-.01-1.0751184-.1026004-1.8745868-1.0402249-1.8059577-2.1180451s.9805635-1.9064729 2.0600124-1.8718834 1.9364607.9199257 1.9359453 1.9999285z" fill="#e91e63"/><path id="Shape" d="m36 39c-.0016392.3862552-.1125827.7641567-.32 1.09-.3703083.5676681-1.0022277.9099578-1.68.91-.0902997-.0016891-.180437-.0083659-.27-.02-1.0599028-.1444092-1.818541-1.097247-1.7218042-2.1625591s1.014598-1.8659135 2.0831764-1.8170437c1.0685783.0488698 1.9095323.9299079 1.9086278 1.9996028z" fill="#e91e63"/><circle id="Oval" cx="18" cy="49" fill="#ffdc00" r="1"/><circle id="Oval" cx="34" cy="49" fill="#ffdc00" r="1"/><circle id="Oval" cx="40" cy="44" fill="#ffdc00" r="1"/><circle id="Oval" cx="12" cy="44" fill="#ffdc00" r="1"/><circle id="Oval" cx="33" cy="26" fill="#ffdc00" r="1"/><circle id="Oval" cx="19" cy="26" fill="#ffdc00" r="1"/><g fill="#000"><path id="Shape" d="m29.985 16c-.2586571-.00008-.5130153-.066165-.739-.192l-3.246-1.79-3.246 1.79c-.5121608.2864812-1.1437009.2514173-1.621-.09-.4919476-.3459927-.7409996-.9441067-.64-1.537l.632-3.87-2.678-2.738c-.4125613-.42244669-.553203-1.04065195-.364-1.6.1811603-.55215006.6575252-.95543621 1.232-1.043l3.654-.558 1.637-3.481c.2513668-.54324129.7954214-.89097287 1.394-.89097287s1.1426332.34773158 1.394.89097287l1.637 3.479 3.655.558c.5740955.08791198 1.0500008.49113642 1.231 1.043.1896984.5591502.0494204 1.1774555-.363 1.6l-2.679 2.739.632 3.87c.1009996.5928933-.1480524 1.1910073-.64 1.537-.257696.1832016-.565821.2820671-.882.283zm-9.52-9.225 2.243 2.294c.3470072.35883088.504832.86009114.426 1.353l-.52 3.18 2.647-1.46c.4594014-.2560367 1.0185986-.2560367 1.478 0l2.647 1.46-.519-3.179c-.0799075-.4931098.0776301-.9950061.425-1.354l2.243-2.294-3.049-.464c-.5098845-.0787237-.9466853-.40707484-1.164-.875l-1.322-2.81-1.322 2.811c-.2179072.46768833-.6550267.79562175-1.165.874z"/><path id="Shape" d="m26 28c-1.6568542 0-3-1.3431458-3-3s1.3431458-3 3-3 3 1.3431458 3 3-1.3431458 3-3 3zm0-4c-.5522847 0-1 .4477153-1 1s.4477153 1 1 1 1-.4477153 1-1-.4477153-1-1-1z"/><path id="Shape" d="m18 42c-1.2133867 0-2.3072956-.7309265-2.7716386-1.8519497s-.2076757-2.4113767.6503183-3.2693706c.8579939-.857994 2.1483474-1.1146613 3.2693706-.6503183s1.8519497 1.5582519 1.8519497 2.7716386c0 1.6568542-1.3431458 3-3 3zm0-4c-.5522847 0-1 .4477153-1 1s.4477153 1 1 1 1-.4477153 1-1-.4477153-1-1-1z"/><path id="Shape" d="m26 52c-1.6568542 0-3-1.3431458-3-3s1.3431458-3 3-3 3 1.3431458 3 3-1.3431458 3-3 3zm0-4c-.5522847 0-1 .4477153-1 1s.4477153 1 1 1 1-.4477153 1-1-.4477153-1-1-1z"/><path id="Shape" d="m12 53c-1.6568542 0-3-1.3431458-3-3s1.3431458-3 3-3 3 1.3431458 3 3-1.3431458 3-3 3zm0-4c-.5522847 0-1 .4477153-1 1s.4477153 1 1 1 1-.4477153 1-1-.4477153-1-1-1z"/><path id="Shape" d="m40 53c-1.6568542 0-3-1.3431458-3-3s1.3431458-3 3-3 3 1.3431458 3 3-1.3431458 3-3 3zm0-4c-.5522847 0-1 .4477153-1 1s.4477153 1 1 1 1-.4477153 1-1-.4477153-1-1-1z"/><path id="Shape" d="m34 42c-1.6568542 0-3-1.3431458-3-3s1.3431458-3 3-3 3 1.3431458 3 3-1.3431458 3-3 3zm0-4c-.5522847 0-1 .4477153-1 1s.4477153 1 1 1 1-.4477153 1-1-.4477153-1-1-1z"/><path id="Shape" d="m21.555 46.832c1.6673129-1.1665569 3.1634447-2.5603661 4.445-4.141 1.2815553 1.5806339 2.7776871 2.9744431 4.445 4.141.3966765.2645074.9249206.2121853 1.262-.125 1.4845636-1.5218182 2.5223522-3.4223552 3-5.494l-1.946-.466c-.3307939 1.4291675-.9772613 2.7661795-1.892 3.913-1.5526655-1.1897175-2.9129292-2.6113668-4.033-4.215-.1961648-.2622542-.5044975-.4166681-.832-.4166681s-.6358352.1544139-.832.4166681c-1.1200708 1.6036332-2.4803345 3.0252825-4.033 4.215-.9147387-1.1468205-1.5612061-2.4838325-1.892-3.913l-1.946.466c.4776478 2.0716448 1.5154364 3.9721818 3 5.494.3358565.3329446.8590287.3850949 1.254.125z"/><path id="Shape" d="m6 54c1.88953429.0066378 3.72611896-.6239946 5.213-1.79.2703279 1.8988748.9363641 3.7198281 1.955 5.345.1855246.2780697.4977215.44505.832.445 2.5100209-.1596284 4.8711683-1.2462908 6.625-3.049 1.0078799 2.1874393 2.7625795 3.9439118 4.949 4.954.2697939.1270358.5822061.1270358.852 0 2.1864205-1.0100882 3.9411201-2.7665607 4.949-4.954 1.7538317 1.8027092 4.1149791 2.8893716 6.625 3.049.3342785.00005.6464754-.1669303.832-.445 1.0186359-1.6251719 1.6846721-3.4461252 1.955-5.345 1.486881 1.1660054 3.3234657 1.7966378 5.213 1.79 2.8389192-.0471877 5.2900648-2.0003033 5.97-4.757.1099859-.438956-.0885149-.8970663-.484-1.117-3.2152589-1.736391-6.0119162-4.1548818-8.194-7.086 1.2986009-.9257022 2.2434186-2.2658691 2.679-3.8.1185602-.4761499-.1258708-.9679774-.577-1.161-2.418384-.922398-4.5729363-2.4251588-6.274-4.376 1.7378868-.4643304 3.1559572-1.7194042 3.828-3.388.1649438-.4933829-.0759469-1.0308213-.554-1.236-2.7917838-1.2078364-5.2708212-3.0373578-7.248-5.349 1.6939809-.5099407 3.077652-1.7396268 3.783-3.362.200535-.5036532-.0367581-1.0753745-.535-1.289-2.7165278-1.1658928-5.2232013-2.7698936-7.42-4.748-.185594-.1570401-.4208813-.2431467-.664-.243v1.006l-.649.75c2.068704 1.8566354 4.3922083 3.4079955 6.9 4.607-.7664992 1.0232235-1.9995523 1.5879806-3.275 1.5-.9969023-.0865228-1.9658331-.3746844-2.848-.847-.3068088-.1504998-.6692274-.1339062-.961.044-.2937203.1787511-.4767171.4942888-.486.838-.1709175 1.2794702-.8734819 2.4275368-1.935 3.162l1.25 1.562c1.1036819-.8474827 1.9394326-1.9953813 2.407-3.306.6358336.2348213 1.2970186.3942441 1.97.475 2.0845369 2.777514 4.7899599 5.0288369 7.9 6.574-.8216894.970945-2.028035 1.532444-3.3 1.536-.0939433.0105037-.1885248.01418-.283.011-1.9140554.1000235-3.7980237-.507559-5.293-1.707-.2605343-.2603583-.6430995-.3564204-.9957252-.2500265-.3526258.1063939-.6182188.3980176-.6912748.7590265-.009.043-.884 4.165-4.02 6.057-3.136-1.892-4.011-6.014-4.02-6.055-.0731307-.3585284-.3362407-.6484864-.686-.756-.3521568-.1083958-.7353985-.0164178-1 .24-1.4942095 1.2020539-3.3788786 1.8115275-5.294 1.712-.1252967.0028654-.2506346-.0034851-.375-.019-1.2459479-.0072662-2.4246789-.5660558-3.219-1.526 3.1098209-1.5459478 5.8151467-3.7975322 7.9-6.575.6729814-.0807559 1.3341664-.2401787 1.97-.475.4675674 1.3106187 1.3033181 2.4585173 2.407 3.306l1.25-1.562c-1.0567546-.7327788-1.7579111-1.8750146-1.933-3.149.0001616-.346618-.1791823-.6685998-.4739691-.8509316-.2947867-.1823318-.6629693-.1990067-.9730309-.0440684-.881873.4721604-1.8504452.7603166-2.847.847-1.276102.0884891-2.5099852-.4763033-3.277-1.5 2.5094948-1.1986872 4.8346936-2.7500545 6.905-4.607l-.649-.75v-1.006c-.2401033-.0001404-.4722418.0861129-.654.243-2.1967987 1.9781064-4.7034722 3.5821072-7.42 4.748-.4982419.2136255-.735535.7853468-.535 1.289.7062508 1.6217187 2.0895632 2.8510858 3.783 3.362-1.9773721 2.3114345-4.4563577 4.1409177-7.248 5.349-.47805314.2051787-.71894384.7426171-.554 1.236.66515489 1.6732329 2.0818065 2.933797 3.821 3.4-1.700751 1.9459207-3.85252567 3.4453303-6.267 4.367-.45073609.1933788-.6946967.6851119-.576 1.161.43451754 1.5343704 1.37914132 2.8747626 2.678 3.8-2.18236901 2.930853-4.97896232 5.3492885-8.194 7.086-.39548508.2199337-.59398585.678044-.484 1.117.68068809 2.7535379 3.12899164 4.7043823 5.965 4.753zm4.6-12.17c.458907.1084731.9284688.1654913 1.4.17 1.6361603.0217124 3.2567609-.3198262 4.745-1l-.85-1.81c-1.2225562.5544144-2.552772.8310446-3.895.81-.5027513.0064296-1.0023973-.0796695-1.474-.254-1.00506597-.4291562-1.81062509-1.2225694-2.255-2.221 2.7635965-1.1551098 5.1424819-3.0710489 6.86-5.525 1.8567206.0112008 3.6845904-.4594628 5.305-1.366.8500526 2.6616069 2.6789614 4.9011892 5.117 6.266.2814108.1406214.6125892.1406214.894 0 2.4380386-1.3648108 4.2669474-3.6043931 5.117-6.266 1.6204096.9065372 3.4482794 1.3772008 5.305 1.366 1.7168164 2.4557974 4.0957702 4.3735255 6.86 5.53-.4451476.9988268-1.2513386 1.7925159-2.257 2.222-.4713572.1720447-.9702916.2561043-1.472.248-1.3442866.020217-2.6763074-.2581412-3.9-.815l-.845 1.815c1.4882391.6801738 3.1088397 1.0217124 4.745 1 .4732048-.004137.9444642-.0611578 1.405-.17 2.2094052 3.1102409 5.062768 5.7081449 8.366 7.617-.6207431 1.538779-2.1117412 2.5481977-3.771 2.553-1.4456934.012135-2.8519802-.4709784-3.985-1.369l-1.227 1.569c0-.019.007-.041.01-.06l-1.976-.307c-.2045091 1.4400657-.6615153 2.8327498-1.35 4.114-2.2873204-.3804994-4.3286273-1.657036-5.672-3.547-.2374147-.3165729-.6391734-.4633742-1.0247579-.3744431s-.6824631.3968659-.7572421.7854431c-.5613685 2.1825231-2.0214401 4.0248732-4.018 5.07-1.9950761-1.0442301-3.454599-2.8845298-4.017-5.065-.0729529-.3898861-.3694504-.6997996-.7557286-.7899239-.3862783-.0901244-.7893111.0565784-1.0272714.3739239-1.3429818 1.8912735-3.3841561 3.1695265-5.672 3.552-.6883644-1.2816577-1.1453599-2.6746478-1.35-4.115l-1.976.307.01.06-1.227-1.573c-1.13301981.8980216-2.53930657 1.381135-3.985 1.369-1.6592588-.0048023-3.15025688-1.014221-3.771-2.553 3.30504064-1.9082754 6.1601521-4.5062187 8.371-7.617z"/></g></g></g></svg>