<svg id="_x33_0_Cannon" enable-background="new 0 0 64 64" height="512" viewBox="0 0 64 64" width="512" xmlns="http://www.w3.org/2000/svg"><path d="m40 38v4h-8-8v-4c0-1.1.9-2 2-2h1 5 5 1c1.1 0 2 .9 2 2z" fill="#fcd770"/><path d="m52 17h-2-3-1-2c-1.27 4.45-4.16 8.5-7.12 10.85-1.7 1.35-3.42 2.15-4.88 2.15s-3.18-.8-4.88-2.15c-2.96-2.35-5.85-6.4-7.12-10.85h-2-1-3-2c-1 7-10 20-10 20v1h15 3 4c0-1.1.9-2 2-2h1 5 5 1c1.1 0 2 .9 2 2h4 3 15v-1s-9-13-10-20z" fill="#ff826e"/><path d="m62 56v6h-18v-6h1z" fill="#fcd770"/><path d="m45 48h-1v4 4h1 17v-4-4z" fill="#ff826e"/><path d="m62 42v6h-17-1v-3-3z" fill="#fcd770"/><path d="m62 38v4h-18v-4h3z" fill="#aab2bd"/><path d="m54 6-6 3v-6z" fill="#ff826e"/><path d="m50 13v4h-3-1v-4h2z" fill="#fcd770"/><path d="m44 56v6h-4v-6-10l.24-.05c.34.62 1 1.05 1.76 1.05 1.1 0 2-.9 2-2v3 4z" fill="#969faa"/><path d="m44 42v3c0 1.1-.9 2-2 2-.76 0-1.42-.43-1.76-1.05-.15-.28-.24-.61-.24-.95 0 1.1-.9 2-2 2s-2-.9-2-2c0 1.1-.9 2-2 2s-2-.9-2-2c0 1.1-.9 2-2 2s-2-.9-2-2c0 1.1-.9 2-2 2-.76 0-1.42-.43-1.76-1.05-.15-.28-.24-.61-.24-.95 0 1.1-.9 2-2 2s-2-.9-2-2v-3h4 8 8z" fill="#ff826e"/><path d="m40 38h4v4h-4z" fill="#969faa"/><path d="m40.24 45.95-.24.05v10c-4-1-8-5-8-9 0 4-4 8-8 9v-10l.24-.05c.34.62 1 1.05 1.76 1.05 1.1 0 2-.9 2-2 0 1.1.9 2 2 2s2-.9 2-2c0 1.1.9 2 2 2s2-.9 2-2c0 1.1.9 2 2 2s2-.9 2-2c0 .34.09.67.24.95z" fill="#ffeaa7"/><path d="m40 56v6h-16v-6c4-1 8-5 8-9 0 4 4 8 8 9z" fill="#e6e9ed"/><path d="m24.24 45.95-.24.05v10 6h-4v-6-4-4-3c0 1.1.9 2 2 2s2-.9 2-2c0 .34.09.67.24.95z" fill="#969faa"/><path d="m20 38h4v4h-4z" fill="#969faa"/><path d="m20 56v6h-18v-6h17z" fill="#fcd770"/><path d="m19 48h-17v4 4h17 1v-4-4z" fill="#ff826e"/><path d="m20 45v3h-1-17v-6h18z" fill="#fcd770"/><path d="m20 38v4h-18v-4h15z" fill="#aab2bd"/><path d="m18 13v4h-1-3v-4h2z" fill="#fcd770"/><path d="m16 3v6l-6-3z" fill="#ff826e"/><path d="m62.822 36.431c-.089-.128-8.877-12.887-9.833-19.572l-.122-.859h-1.867v-4h-2v-2.382l7.236-3.618-9.236-4.618v10.618h-2v4h-1.754l-.207.725c-1.943 6.8-7.628 12.275-11.039 12.275s-9.096-5.475-11.039-12.275l-.207-.725h-1.754v-4h-2v-10.618l-9.236 4.618 7.236 3.618v2.382h-2v4h-1.867l-.123.858c-.955 6.686-9.744 19.444-9.833 19.572l-.177.258v.312 1 4 1 20h62v-20-1-4-1-.312zm-13.822-31.813 2.764 1.382-2.764 1.382zm-36.764 1.382 2.764-1.382v2.764zm43.764 23.235v7.765h-8v-19h3.164c.699 3.306 2.762 7.545 4.836 11.235zm-11 21.765v-2h16v2zm16 2v2h-16v-2zm-58-4h16v2h-16zm0 4h16v2h-16zm16-12h-16v-2h16zm2 6.816c.314.112.648.184 1 .184s.686-.072 1-.184v13.184h-2zm7-.596c.532.48 1.229.78 2 .78.326 0 .634-.065.927-.162-.45 2.913-3.149 5.601-5.927 6.771v-6.794c.314.113.648.185 1 .185.771 0 1.468-.301 2-.78zm8 0c.532.48 1.229.78 2 .78.352 0 .686-.072 1-.184v6.793c-2.779-1.17-5.477-3.858-5.927-6.771.293.097.601.162.927.162.771 0 1.468-.301 2-.78zm-11 9.526c2.785-.937 5.565-3.179 7-5.933 1.435 2.754 4.215 4.997 7 5.933v4.254h-14zm16-8.93c.314.112.648.184 1 .184s.686-.072 1-.184v13.184h-2zm1-1.816c-.551 0-1-.449-1-1h-2c0 .551-.449 1-1 1s-1-.449-1-1h-2c0 .551-.449 1-1 1s-1-.449-1-1h-2c0 .551-.449 1-1 1s-1-.449-1-1h-2c0 .551-.449 1-1 1s-1-.449-1-1h-2c0 .551-.449 1-1 1s-1-.449-1-1v-2h22v2c0 .551-.449 1-1 1zm-4-9c.551 0 1 .449 1 1v3h-14v-3c0-.551.449-1 1-1zm3 2h2v2h-2zm-18 2h-2v-2h2zm22-2h16v2h-16zm2-25h2v2h-2zm-2.26 4h1.26v19h-1-1-3.184c-.414-1.161-1.514-2-2.816-2v-6.762c2.835-2.428 5.421-6.193 6.74-10.238zm-8.74 11.696v5.304h-8v-5.304c1.366.823 2.735 1.304 4 1.304s2.634-.481 4-1.304zm-10-1.458v6.762c-1.302 0-2.402.839-2.816 2h-3.184-1-1v-19h1.26c1.319 4.045 3.905 7.81 6.74 10.238zm-11-14.238h2v2h-2zm-2.164 4h3.164v19h-8v-7.765c2.074-3.69 4.137-7.929 4.836-11.235zm-6.836 14.643v4.357h-2.79c.537-.796 1.573-2.366 2.79-4.357zm13 10.357v2 2h-16v-4zm-16 14h16v4h-16zm42 4v-4h16v4zm16-14h-16v-2-2h16zm-3-10v-4.357c1.217 1.991 2.253 3.561 2.79 4.357z"/></svg>