<?xml version="1.0" encoding="UTF-8" standalone="no"?>
<!-- Generator: Adobe Illustrator 19.0.0, SVG Export Plug-In . SVG Version: 6.00 Build 0)  -->

<svg
   xmlns:dc="http://purl.org/dc/elements/1.1/"
   xmlns:cc="http://creativecommons.org/ns#"
   xmlns:rdf="http://www.w3.org/1999/02/22-rdf-syntax-ns#"
   xmlns:svg="http://www.w3.org/2000/svg"
   xmlns="http://www.w3.org/2000/svg"
   xmlns:sodipodi="http://sodipodi.sourceforge.net/DTD/sodipodi-0.dtd"
   xmlns:inkscape="http://www.inkscape.org/namespaces/inkscape"
   version="1.1"
   id="Layer_1"
   x="0px"
   y="0px"
   viewBox="0 0 799.999 799.999"
   style="enable-background:new 0 0 799.999 799.999;"
   xml:space="preserve"
   sodipodi:docname="colombia_flag.svg"
   inkscape:version="0.92.4 (5da689c313, 2019-01-14)"><metadata
   id="metadata53"><rdf:RDF><cc:Work
       rdf:about=""><dc:format>image/svg+xml</dc:format><dc:type
         rdf:resource="http://purl.org/dc/dcmitype/StillImage" /></cc:Work></rdf:RDF></metadata><defs
   id="defs51" /><sodipodi:namedview
   pagecolor="#ffffff"
   bordercolor="#666666"
   borderopacity="1"
   objecttolerance="10"
   gridtolerance="10"
   guidetolerance="10"
   inkscape:pageopacity="0"
   inkscape:pageshadow="2"
   inkscape:window-width="1920"
   inkscape:window-height="986"
   id="namedview49"
   showgrid="false"
   inkscape:zoom="2.3600029"
   inkscape:cx="48.486042"
   inkscape:cy="488.22755"
   inkscape:window-x="-11"
   inkscape:window-y="-11"
   inkscape:window-maximized="1"
   inkscape:current-layer="g16" />
<g
   id="g16">
	<path
   style="fill:#164FCE;"
   d="M24.807,517.128V411.902h91.322c6.563,0,11.903-5.34,11.903-11.903v-1h27.807v1   c0,6.563,5.34,11.903,11.903,11.903h607.451v105.226H24.807z"
   id="path2" />
	<rect
   x="24.807"
   y="540.935"
   style="fill:#ED1F34;"
   width="750.387"
   height="105.226"
   id="rect4" />
	<path
   style="fill:#FFE000;"
   d="M128.032,400.999v-1c0-6.563-5.34-11.903-11.903-11.903H24.807V153.838h750.387v234.258H167.742   c-6.563,0-11.903,5.34-11.903,11.903v1H128.032z"
   id="path6" />
	<path
   style="fill:#164FCE;"
   d="M116.129,412.902H25.807v103.226h748.387V412.902H167.742c-7.128,0-12.903-5.775-12.903-12.903   h-25.807C129.032,407.127,123.257,412.902,116.129,412.902z"
   id="path8" />
	<rect
   x="25.807"
   y="541.935"
   style="fill:#ED1F34;"
   width="748.387"
   height="103.226"
   id="rect10" />
	<path
   style="fill:#FFE000;"
   d="M116.129,387.096c7.128,0,12.903,5.775,12.903,12.903h25.807c0-7.128,5.775-12.903,12.903-12.903   h606.451V154.838H25.807v232.258H116.129z"
   id="path12" />
	<path
   d="M 787.097,129.031 H 12.903 C 5.775,129.031 0,134.807 0,141.935 v 516.129 c 0,7.128 5.775,12.903 12.903,12.903 h 774.193 c 7.128,0 12.903,-5.775 12.903,-12.903 V 141.935 c 10e-4,-7.128 -5.774,-12.904 -12.902,-12.904 z m -12.904,25.807 V 387.096 H 167.742 c -7.128,0 -12.903,5.775 -12.903,12.903 0,7.128 5.775,12.903 12.903,12.903 H 774.193 V 516.128 H 25.807 V 412.902 h 142.322 c 7.128,0 12.903,-5.775 12.903,-12.903 0,-7.128 -5.775,-12.903 -12.903,-12.903 H 25.807 V 154.838 Z M 25.807,645.16 V 541.935 h 748.387 v 103.226 z"
   id="path14"
   inkscape:connector-curvature="0"
   sodipodi:nodetypes="ssssssscsccsssccccssscccccccc" />
</g>
<g
   id="g18">
</g>
<g
   id="g20">
</g>
<g
   id="g22">
</g>
<g
   id="g24">
</g>
<g
   id="g26">
</g>
<g
   id="g28">
</g>
<g
   id="g30">
</g>
<g
   id="g32">
</g>
<g
   id="g34">
</g>
<g
   id="g36">
</g>
<g
   id="g38">
</g>
<g
   id="g40">
</g>
<g
   id="g42">
</g>
<g
   id="g44">
</g>
<g
   id="g46">
</g>
</svg>