<svg height="512" viewBox="0 0 64 64" width="512" xmlns="http://www.w3.org/2000/svg"><path d="m61 7v32h-58v-32a4 4 0 0 1 4-4h50a4 4 0 0 1 4 4z" fill="#5aaae7"/><path d="m61 7v32h-40.82c12.25-7.06 26.62-18.46 35.86-36h.96a4 4 0 0 1 4 4z" fill="#3d9ae2"/><path d="m23 12h18v18h-18z" fill="#ffa733"/><path d="m37 16v7l-3 3h-7v-10z" fill="#ee8700"/><path d="m61 39v4a4 4 0 0 1 -4 4h-50a4 4 0 0 1 -4-4v-4z" fill="#c6c5ca"/><path d="m41 57h-18l1.6-8 .4-2h14l.4 2z" fill="#acabb1"/><path d="m43 57a2.015 2.015 0 0 1 2 2 2.006 2.006 0 0 1 -2 2h-22a2.015 2.015 0 0 1 -2-2 2.006 2.006 0 0 1 2-2z" fill="#898890"/><path d="m39.4 49h-14.8l.4-2h14z" fill="#898890"/><path d="m57 2h-50a5.006 5.006 0 0 0 -5 5v36a5.006 5.006 0 0 0 5 5h16.78l-1.6 8h-1.18a3 3 0 0 0 0 6h22a3 3 0 0 0 0-6h-1.18l-1.6-8h16.78a5.006 5.006 0 0 0 5-5v-36a5.006 5.006 0 0 0 -5-5zm-50 2h50a3 3 0 0 1 3 3v31h-56v-31a3 3 0 0 1 3-3zm37 55a1 1 0 0 1 -1 1h-22a1 1 0 0 1 0-2h22a1 1 0 0 1 1 1zm-4.22-3h-15.56l1.6-8h12.36zm17.22-10h-50a3 3 0 0 1 -3-3v-3h56v3a3 3 0 0 1 -3 3z"/><path d="m54 42h2v2h-2z"/><path d="m22 25h-5a1 1 0 0 0 -.707.293l-3 3 1.414 1.414 2.707-2.707h4.586v3a1 1 0 0 0 1 1h3v4h2v-4h3v4h2v-4h3v4h2v-4h3a1 1 0 0 0 1-1v-3h4.586l2.707 2.707 1.414-1.414-3-3a1 1 0 0 0 -.707-.293h-5v-3h9v-2h-9v-3h5a1 1 0 0 0 .707-.293l3-3-1.414-1.414-2.707 2.707h-4.586v-3a1 1 0 0 0 -1-1h-3v-4h-2v4h-3v-4h-2v4h-3v-4h-2v4h-3a1 1 0 0 0 -1 1v3h-4.586l-2.707-2.707-1.414 1.414 3 3a1 1 0 0 0 .707.293h5v3h-9v2h9zm2-12h16v16h-16z"/><path d="m37 15h-10a1 1 0 0 0 -1 1v10a1 1 0 0 0 1 1h7a1 1 0 0 0 .707-.293l3-3a1 1 0 0 0 .293-.707v-7a1 1 0 0 0 -1-1zm-1 7.586-2.411 2.414h-5.589v-8h8z"/></svg>