<?xml version="1.0" encoding="UTF-8" standalone="no"?>
<svg
   xmlns:dc="http://purl.org/dc/elements/1.1/"
   xmlns:cc="http://creativecommons.org/ns#"
   xmlns:rdf="http://www.w3.org/1999/02/22-rdf-syntax-ns#"
   xmlns:svg="http://www.w3.org/2000/svg"
   xmlns="http://www.w3.org/2000/svg"
   xmlns:sodipodi="http://sodipodi.sourceforge.net/DTD/sodipodi-0.dtd"
   xmlns:inkscape="http://www.inkscape.org/namespaces/inkscape"
   inkscape:version="1.0 (4035a4fb49, 2020-05-01)"
   sodipodi:docname="denmark_flag.svg"
   xml:space="preserve"
   enable-background="new 0 0 800 800"
   viewBox="0 0 800 800"
   height="800px"
   width="800px"
   y="0px"
   x="0px"
   id="Capa_1"
   version="1.1"><metadata
   id="metadata29"><rdf:RDF><cc:Work
       rdf:about=""><dc:format>image/svg+xml</dc:format><dc:type
         rdf:resource="http://purl.org/dc/dcmitype/StillImage" /></cc:Work></rdf:RDF></metadata><defs
   id="defs27" /><sodipodi:namedview
   inkscape:current-layer="g22"
   inkscape:window-maximized="1"
   inkscape:window-y="-8"
   inkscape:window-x="-8"
   inkscape:cy="400"
   inkscape:cx="400"
   inkscape:zoom="1.085"
   showgrid="false"
   id="namedview25"
   inkscape:window-height="657"
   inkscape:window-width="1280"
   inkscape:pageshadow="2"
   inkscape:pageopacity="0"
   guidetolerance="10"
   gridtolerance="10"
   objecttolerance="10"
   borderopacity="1"
   bordercolor="#666666"
   pagecolor="#ffffff" />
<g
   id="g22">
	<rect
   id="rect2"
   height="196.839"
   width="231.493"
   fill="#ED1F34"
   y="449.322"
   x="24.807" />
	<rect
   id="rect4"
   height="194.839"
   width="229.493"
   fill="#ED1F34"
   y="450.322"
   x="25.807" />
	<path
   id="path6"
   d="M644.161,363.581v-1c0-6.563-5.34-11.903-11.903-11.903H354.945V153.839h420.248v196.838h-91.322   c-6.563,0-11.903,5.34-11.903,11.903v1H644.161z"
   fill="#ED1F34" />
	<path
   id="path8"
   d="M683.871,349.677h90.322V154.839H355.945v194.838h276.313c7.126,0,12.903,5.777,12.903,12.903h25.807   C670.968,355.455,676.745,349.677,683.871,349.677z"
   fill="#ED1F34" />
	<rect
   id="rect10"
   height="196.839"
   width="420.248"
   fill="#ED1F34"
   y="449.322"
   x="354.945" />
	<rect
   id="rect12"
   height="194.839"
   width="418.248"
   fill="#ED1F34"
   y="450.322"
   x="355.945" />
	<rect
   id="rect14"
   height="196.838"
   width="231.493"
   fill="#ED1F34"
   y="153.839"
   x="24.807" />
	<rect
   id="rect16"
   height="194.838"
   width="229.493"
   fill="#ED1F34"
   y="154.839"
   x="25.807" />
	<path
   id="path18"
   d="M281.106,154.839v207.742c0,7.126-5.777,12.903-12.903,12.903H25.807v49.033h242.396   c7.126,0,12.903,5.776,12.903,12.902v207.742h49.032V437.419c0-7.126,5.777-12.902,12.903-12.902h431.151v-49.033h-90.322   c-7.126,0-12.903-5.777-12.903-12.903h-25.807c0,7.126-5.777,12.903-12.903,12.903H343.042c-7.126,0-12.903-5.777-12.903-12.903   V154.839H281.106z"
   fill="#FFFFFF" />
	<path
   sodipodi:nodetypes="ssssssscsssssccccsssccssccssccsscccscccccccccccccccc"
   id="path20"
   d="M 787.097,129.032 H 12.903 C 5.777,129.032 0,134.81 0,141.936 v 516.129 c 0,7.126 5.777,12.903 12.903,12.903 h 774.193 c 7.126,0 12.903,-5.777 12.903,-12.903 V 141.936 C 800,134.81 794.223,129.032 787.097,129.032 Z M 343.042,375.484 h 341.216 c 7.126,0 -11.097,-5.777 -11.097,-12.903 0,-7.126 18.223,-12.903 11.097,-12.903 H 355.945 V 154.839 h 418.248 v 194.838 h -90.322 c -7.126,0 -12.903,5.777 -12.903,12.903 0,7.126 5.777,12.903 12.903,12.903 h 90.322 v 49.033 H 343.042 c -7.126,0 -12.903,5.776 -12.903,12.902 V 645.16 H 281.107 V 437.419 c 0,-7.126 -5.777,-12.902 -12.903,-12.902 H 25.807 v -49.033 h 242.396 c 7.126,0 12.903,-5.777 12.903,-12.903 V 154.839 h 49.032 v 207.742 c 0.001,7.126 5.776,12.903 12.904,12.903 z M 25.807,450.322 H 255.3 V 645.161 H 25.807 Z M 255.3,349.677 H 25.807 V 154.839 H 255.3 Z M 355.945,645.161 V 450.322 H 774.193 V 645.161 H 355.945 Z" />
</g>
</svg>
