<?xml version="1.0" encoding="UTF-8" standalone="no"?>
<!-- Created with Inkscape (http://www.inkscape.org/) -->

<svg
   xmlns:dc="http://purl.org/dc/elements/1.1/"
   xmlns:cc="http://creativecommons.org/ns#"
   xmlns:rdf="http://www.w3.org/1999/02/22-rdf-syntax-ns#"
   xmlns:svg="http://www.w3.org/2000/svg"
   xmlns="http://www.w3.org/2000/svg"
   xmlns:sodipodi="http://sodipodi.sourceforge.net/DTD/sodipodi-0.dtd"
   xmlns:inkscape="http://www.inkscape.org/namespaces/inkscape"
   width="256"
   height="256"
   viewBox="0 0 67.733332 67.733335"
   version="1.1"
   id="svg8"
   inkscape:version="0.92.4 (5da689c313, 2019-01-14)"
   sodipodi:docname="didsbury.svg">
  <defs
     id="defs2" />
  <sodipodi:namedview
     id="base"
     pagecolor="#ffffff"
     bordercolor="#666666"
     borderopacity="1.0"
     inkscape:pageopacity="0.0"
     inkscape:pageshadow="2"
     inkscape:zoom="2"
     inkscape:cx="-63.85592"
     inkscape:cy="133.90455"
     inkscape:document-units="mm"
     inkscape:current-layer="layer1"
     showgrid="false"
     inkscape:window-width="1920"
     inkscape:window-height="986"
     inkscape:window-x="-11"
     inkscape:window-y="-11"
     inkscape:window-maximized="1"
     units="px" />
  <metadata
     id="metadata5">
    <rdf:RDF>
      <cc:Work
         rdf:about="">
        <dc:format>image/svg+xml</dc:format>
        <dc:type
           rdf:resource="http://purl.org/dc/dcmitype/StillImage" />
        <dc:title />
      </cc:Work>
    </rdf:RDF>
  </metadata>
  <g
     inkscape:label="Layer 1"
     inkscape:groupmode="layer"
     id="layer1"
     transform="translate(0,-229.26665)">
    <rect
       style="fill:#ffdb4f;fill-opacity:1;fill-rule:evenodd;stroke:#000000;stroke-width:1.928;stroke-miterlimit:4;stroke-dasharray:none;stroke-opacity:1;stroke-linejoin:round"
       id="rect913"
       width="66.071892"
       height="66.071892"
       x="0.83072078"
       y="230.09737" />
    <g
       id="g905"
       transform="matrix(1.5763425,0,0,1.5763425,-107.5214,-203.56771)"
       style="fill:#81725e;fill-opacity:1">
      <path
         id="path2"
         d="m 89.862422,291.21883 c -0.423334,-0.42333 -1.084792,-0.42333 -1.508125,0 -0.423334,0.42334 -0.423334,1.0848 0,1.50813 0.423333,0.42333 1.084791,0.42333 1.508125,0 0.423333,-0.42333 0.423333,-1.08479 0,-1.50813"
         style="fill:#81725e;fill-opacity:1;stroke-width:0.26458332"
         inkscape:connector-curvature="0" />
      <path
         id="path4"
         d="m 92.27013,293.38842 c -0.47625,-0.47625 -1.243541,-0.47625 -1.74625,0 -0.47625,0.47625 -0.47625,1.24354 0,1.74625 0.47625,0.47625 1.243542,0.47625 1.74625,0 0.47625,-0.47625 0.47625,-1.27 0,-1.74625"
         style="fill:#81725e;fill-opacity:1;stroke-width:0.26458332"
         inkscape:connector-curvature="0" />
      <path
         id="path6"
         d="m 94.677839,295.558 c -0.529167,-0.52917 -1.42875,-0.52917 -1.957917,0 -0.529167,0.55563 -0.529167,1.42875 0,1.95792 0.555625,0.55562 1.42875,0.55562 1.957917,0 0.555625,-0.52917 0.555625,-1.40229 0,-1.95792"
         style="fill:#81725e;fill-opacity:1;stroke-width:0.26458332"
         inkscape:connector-curvature="0" />
      <path
         id="path8"
         d="m 89.862422,300.37342 c -0.423334,-0.42334 -1.084792,-0.42334 -1.508125,0 -0.423334,0.42333 -0.423334,1.08479 0,1.50812 0.423333,0.42334 1.084791,0.42334 1.508125,0 0.423333,-0.42333 0.423333,-1.08479 0,-1.50812"
         style="fill:#81725e;fill-opacity:1;stroke-width:0.26458332"
         inkscape:connector-curvature="0" />
      <path
         id="path10"
         d="m 89.862422,295.79613 c -0.423334,-0.42334 -1.084792,-0.42334 -1.508125,0 -0.423334,0.42333 -0.423334,1.08479 0,1.50812 0.423333,0.42333 1.084791,0.42333 1.508125,0 0.423333,-0.42333 0.423333,-1.08479 0,-1.50812"
         style="fill:#81725e;fill-opacity:1;stroke-width:0.26458332"
         inkscape:connector-curvature="0" />
      <path
         id="path12"
         d="m 89.862422,286.64154 c -0.423334,-0.42333 -1.084792,-0.42333 -1.508125,0 -0.423334,0.42334 -0.423334,1.08479 0,1.50813 0.423333,0.42333 1.084791,0.42333 1.508125,0 0.423333,-0.42334 0.423333,-1.08479 0,-1.50813"
         style="fill:#81725e;fill-opacity:1;stroke-width:0.26458332"
         inkscape:connector-curvature="0" />
      <path
         id="path14"
         d="m 89.862422,282.06425 c -0.423334,-0.42333 -1.084792,-0.42333 -1.508125,0 -0.423334,0.42333 -0.423334,1.08479 0,1.50813 0.423333,0.42333 1.084791,0.42333 1.508125,0 0.423333,-0.42334 0.423333,-1.11125 0,-1.50813"
         style="fill:#81725e;fill-opacity:1;stroke-width:0.26458332"
         inkscape:connector-curvature="0" />
      <path
         id="path16"
         d="m 92.27013,284.23383 c -0.47625,-0.47625 -1.243541,-0.47625 -1.74625,0 -0.47625,0.47625 -0.47625,1.24355 0,1.74625 0.47625,0.47625 1.243542,0.47625 1.74625,0 0.47625,-0.5027 0.47625,-1.27 0,-1.74625"
         style="fill:#81725e;fill-opacity:1;stroke-width:0.26458332"
         inkscape:connector-curvature="0" />
      <path
         id="path18"
         d="m 92.27013,288.81112 c -0.47625,-0.47624 -1.243541,-0.47624 -1.74625,0 -0.47625,0.47626 -0.47625,1.24355 0,1.74626 0.47625,0.47625 1.243542,0.47625 1.74625,0 0.47625,-0.47625 0.47625,-1.27 0,-1.74626"
         style="fill:#81725e;fill-opacity:1;stroke-width:0.26458332"
         inkscape:connector-curvature="0" />
      <path
         id="path20"
         d="m 92.27013,297.96571 c -0.47625,-0.47625 -1.243541,-0.47625 -1.74625,0 -0.47625,0.47625 -0.47625,1.24354 0,1.74625 0.47625,0.47625 1.243542,0.47625 1.74625,0 0.47625,-0.47625 0.47625,-1.27 0,-1.74625"
         style="fill:#81725e;fill-opacity:1;stroke-width:0.26458332"
         inkscape:connector-curvature="0" />
      <path
         id="path22"
         d="m 94.677839,290.98071 c -0.529167,-0.55563 -1.42875,-0.55563 -1.957917,0 -0.529167,0.52917 -0.529167,1.42875 0,1.95792 0.555625,0.52916 1.42875,0.52916 1.957917,0 0.555625,-0.52917 0.555625,-1.4023 0,-1.95792"
         style="fill:#81725e;fill-opacity:1;stroke-width:0.26458332"
         inkscape:connector-curvature="0" />
      <path
         id="path24"
         d="m 94.677839,286.40342 c -0.529167,-0.52917 -1.42875,-0.52917 -1.957917,0 -0.529167,0.55562 -0.529167,1.42875 0,1.95791 0.555625,0.55563 1.42875,0.55563 1.957917,0 0.555625,-0.52916 0.555625,-1.40229 0,-1.95791"
         style="fill:#81725e;fill-opacity:1;stroke-width:0.26458332"
         inkscape:connector-curvature="0" />
      <path
         id="path26"
         d="m 97.03263,288.65238 c -0.582083,-0.58209 -1.508125,-0.58209 -2.090208,0 -0.582083,0.58208 -0.582083,1.50812 0,2.0902 0.582083,0.58209 1.508125,0.58209 2.090208,0 0.582084,-0.58208 0.582084,-1.53458 0,-2.0902"
         style="fill:#81725e;fill-opacity:1;stroke-width:0.26458332"
         inkscape:connector-curvature="0" />
      <path
         id="path28"
         d="m 97.03263,293.22967 c -0.582083,-0.58209 -1.508125,-0.58209 -2.090208,0 -0.582083,0.58208 -0.582083,1.50812 0,2.09021 0.582083,0.58208 1.508125,0.58208 2.090208,0 0.582084,-0.58209 0.582084,-1.53459 0,-2.09021"
         style="fill:#81725e;fill-opacity:1;stroke-width:0.26458332"
         inkscape:connector-curvature="0" />
      <path
         id="path30"
         d="m 99.387422,290.87488 c -0.608542,-0.60855 -1.5875,-0.60855 -2.196042,0 -0.608541,0.60854 -0.608541,1.5875 0,2.19604 0.608542,0.60854 1.5875,0.60854 2.196042,0 0.608542,-0.60854 0.608542,-1.5875 0,-2.19604"
         style="fill:#81725e;fill-opacity:1;stroke-width:0.26458332"
         inkscape:connector-curvature="0" />
      <path
         id="path32"
         d="m 85.047005,291.45696 c -0.291042,-0.29104 -0.767292,-0.29104 -1.031875,0 -0.291042,0.29104 -0.291042,0.74083 0,1.03187 0.291042,0.29104 0.767292,0.29104 1.031875,0 0.291042,-0.29104 0.291042,-0.74083 0,-1.03187"
         style="fill:#81725e;fill-opacity:1;stroke-width:0.26458332"
         inkscape:connector-curvature="0" />
      <path
         id="path34"
         d="m 79.940547,291.56279 c 0.238125,0 0.396875,0.18521 0.396875,0.39688 0,0.23812 -0.185209,0.39687 -0.396875,0.39687 -0.238125,0 -0.396875,-0.18521 -0.396875,-0.39687 0,-0.21167 0.185208,-0.39688 0.396875,-0.39688"
         style="fill:#81725e;fill-opacity:1;stroke-width:0.26458332"
         inkscape:connector-curvature="0" />
      <path
         id="path36"
         d="m 82.639297,289.28738 c -0.211667,-0.21167 -0.582084,-0.21167 -0.820209,0 -0.211666,0.21166 -0.211666,0.58208 0,0.8202 0.211667,0.21167 0.582084,0.21167 0.820209,0 0.238125,-0.23812 0.238125,-0.60854 0,-0.8202"
         style="fill:#81725e;fill-opacity:1;stroke-width:0.26458332"
         inkscape:connector-curvature="0" />
      <path
         id="path38"
         d="m 82.639297,293.86467 c -0.211667,-0.21167 -0.582084,-0.21167 -0.820209,0 -0.211666,0.21166 -0.211666,0.58208 0,0.8202 0.211667,0.21167 0.582084,0.21167 0.820209,0 0.238125,-0.23812 0.238125,-0.60854 0,-0.8202"
         style="fill:#81725e;fill-opacity:1;stroke-width:0.26458332"
         inkscape:connector-curvature="0" />
      <path
         id="path40"
         d="m 85.047005,296.03425 c -0.291042,-0.29104 -0.767292,-0.29104 -1.031875,0 -0.291042,0.29104 -0.291042,0.76729 0,1.03188 0.291042,0.29104 0.767292,0.29104 1.031875,0 0.291042,-0.29105 0.291042,-0.74084 0,-1.03188"
         style="fill:#81725e;fill-opacity:1;stroke-width:0.26458332"
         inkscape:connector-curvature="0" />
      <path
         id="path42"
         d="m 85.047005,286.87967 c -0.291042,-0.29104 -0.767292,-0.29104 -1.031875,0 -0.291042,0.29104 -0.291042,0.74083 0,1.03187 0.291042,0.29104 0.767292,0.29104 1.031875,0 0.291042,-0.29104 0.291042,-0.74083 0,-1.03187"
         style="fill:#81725e;fill-opacity:1;stroke-width:0.26458332"
         inkscape:connector-curvature="0" />
      <path
         id="path44"
         d="m 87.454713,284.47196 c -0.343958,-0.34396 -0.926041,-0.34396 -1.27,0 -0.343958,0.34396 -0.343958,0.92604 0,1.27 0.343959,0.34396 0.926042,0.34396 1.27,0 0.343959,-0.34396 0.370417,-0.92604 0,-1.27"
         style="fill:#81725e;fill-opacity:1;stroke-width:0.26458332"
         inkscape:connector-curvature="0" />
      <path
         id="path46"
         d="m 87.454713,289.04925 c -0.343958,-0.34396 -0.926041,-0.34396 -1.27,0 -0.343958,0.34396 -0.343958,0.92604 0,1.27 0.343959,0.34396 0.926042,0.34396 1.27,0 0.370417,-0.34396 0.370417,-0.92604 0,-1.27"
         style="fill:#81725e;fill-opacity:1;stroke-width:0.26458332"
         inkscape:connector-curvature="0" />
      <path
         id="path48"
         d="m 87.454713,293.62654 c -0.343958,-0.34396 -0.926041,-0.34396 -1.27,0 -0.343958,0.34396 -0.343958,0.92604 0,1.27 0.343959,0.34396 0.926042,0.34396 1.27,0 0.370417,-0.34396 0.370417,-0.92604 0,-1.27"
         style="fill:#81725e;fill-opacity:1;stroke-width:0.26458332"
         inkscape:connector-curvature="0" />
      <path
         id="path50"
         d="m 87.454713,298.20383 c -0.343958,-0.34395 -0.926041,-0.34395 -1.27,0 -0.343958,0.34396 -0.343958,0.92605 0,1.27 0.343959,0.34396 0.926042,0.34396 1.27,0 0.370417,-0.34395 0.370417,-0.92604 0,-1.27"
         style="fill:#81725e;fill-opacity:1;stroke-width:0.26458332"
         inkscape:connector-curvature="0" />
    </g>
    <g
       aria-label="Didsbury Village"
       style="font-style:normal;font-variant:normal;font-weight:normal;font-stretch:normal;font-size:10.58333302px;line-height:1.25;font-family:KaiTi;-inkscape-font-specification:KaiTi;letter-spacing:0px;word-spacing:0px;fill:#81725e;fill-opacity:1;stroke:none;stroke-width:0.26458332"
       id="text841">
      <path
         d="m 10.046179,283.56724 q 0,0.6985 -0.217311,1.21849 -0.2173111,0.51224 -0.6131278,0.85373 -0.3958167,0.33372 -0.9468556,0.50447 -0.5510389,0.16298 -1.2107333,0.16298 -0.3259667,0 -0.7217834,-0.031 -0.3880555,-0.0233 -0.7062611,-0.1009 v -5.21546 q 0.3182056,-0.0776 0.7062611,-0.1009 0.3958167,-0.031 0.7217834,-0.031 0.6596944,0 1.2107333,0.17074 0.5510389,0.16299 0.9468556,0.50447 0.3958167,0.33373 0.6131278,0.85373 0.217311,0.51223 0.217311,1.21073 z m -2.9259388,2.07998 q 1.0710333,0 1.5987889,-0.54328 0.5277556,-0.55104 0.5277556,-1.5367 0,-0.98566 -0.5277556,-1.52894 -0.5277556,-0.55104 -1.5987889,-0.55104 -0.3182056,0 -0.4967111,0.008 -0.1707445,0.008 -0.2405945,0.0155 v 4.11338 q 0.06985,0.008 0.2405945,0.0155 0.1785055,0.008 0.4967111,0.008 z"
         style="font-style:normal;font-variant:normal;font-weight:normal;font-stretch:normal;font-size:7.76111126px;font-family:Ubuntu;-inkscape-font-specification:Ubuntu;fill:#81725e;fill-opacity:1;stroke-width:0.26458332"
         id="path843" />
      <path
         d="m 11.838147,286.26035 h -0.721783 v -4.03578 h 0.721783 z m -0.364772,-4.76533 q -0.194028,0 -0.333728,-0.12417 -0.131939,-0.13194 -0.131939,-0.34925 0,-0.21732 0.131939,-0.34149 0.1397,-0.13194 0.333728,-0.13194 0.194028,0 0.325967,0.13194 0.1397,0.12417 0.1397,0.34149 0,0.21731 -0.1397,0.34925 -0.131939,0.12417 -0.325967,0.12417 z"
         style="font-style:normal;font-variant:normal;font-weight:normal;font-stretch:normal;font-size:7.76111126px;font-family:Ubuntu;-inkscape-font-specification:Ubuntu;fill:#81725e;fill-opacity:1;stroke-width:0.26458332"
         id="path845" />
      <path
         d="m 15.694692,283.07829 q -0.131939,-0.10866 -0.380295,-0.20955 -0.248356,-0.10089 -0.543278,-0.10089 -0.310444,0 -0.535516,0.11641 -0.217312,0.10866 -0.357012,0.31045 -0.1397,0.19402 -0.201788,0.46566 -0.06209,0.27164 -0.06209,0.58209 0,0.70626 0.34925,1.09431 0.34925,0.3803 0.931333,0.3803 0.294922,0 0.48895,-0.0233 0.201789,-0.031 0.310445,-0.0621 z m 0,-2.71639 0.721783,-0.12418 v 5.90621 q -0.248356,0.0698 -0.636411,0.1397 -0.388056,0.0698 -0.892528,0.0698 -0.465667,0 -0.8382,-0.14746 -0.372533,-0.14746 -0.636411,-0.4191 -0.263878,-0.27164 -0.411339,-0.6597 -0.1397,-0.39581 -0.1397,-0.88476 0,-0.46567 0.116417,-0.85373 0.124177,-0.38805 0.357011,-0.66745 0.232833,-0.2794 0.566561,-0.43462 0.341489,-0.15523 0.776111,-0.15523 0.34925,0 0.613128,0.0931 0.271639,0.0931 0.403578,0.1785 z"
         style="font-style:normal;font-variant:normal;font-weight:normal;font-stretch:normal;font-size:7.76111126px;font-family:Ubuntu;-inkscape-font-specification:Ubuntu;fill:#81725e;fill-opacity:1;stroke-width:0.26458332"
         id="path847" />
      <path
         d="m 18.603896,285.74035 q 0.442384,0 0.651934,-0.11642 0.217311,-0.11641 0.217311,-0.37253 0,-0.26388 -0.20955,-0.4191 -0.20955,-0.15522 -0.690739,-0.34925 -0.232834,-0.0931 -0.450145,-0.18627 -0.20955,-0.10089 -0.364772,-0.23283 -0.155222,-0.13194 -0.248355,-0.3182 -0.09313,-0.18627 -0.09313,-0.45791 0,-0.53552 0.395817,-0.84596 0.395817,-0.31821 1.078794,-0.31821 0.170745,0 0.341489,0.0233 0.170745,0.0155 0.318206,0.0466 0.147461,0.0233 0.256116,0.0543 0.116417,0.031 0.178506,0.0543 l -0.131939,0.62089 q -0.116417,-0.0621 -0.364772,-0.12418 -0.248356,-0.0698 -0.597606,-0.0698 -0.302683,0 -0.527755,0.12418 -0.225072,0.11641 -0.225072,0.37253 0,0.13194 0.04657,0.23283 0.05433,0.1009 0.155222,0.18627 0.108656,0.0776 0.263878,0.14746 0.155222,0.0699 0.372534,0.14746 0.287161,0.10866 0.512233,0.21731 0.225072,0.1009 0.380294,0.2406 0.162984,0.1397 0.248356,0.34149 0.08537,0.19403 0.08537,0.48119 0,0.5588 -0.4191,0.84596 -0.411339,0.28716 -1.179689,0.28716 -0.535516,0 -0.8382,-0.0931 -0.302683,-0.0854 -0.411339,-0.13194 l 0.131939,-0.62089 q 0.124178,0.0466 0.395817,0.1397 0.271639,0.0931 0.721783,0.0931 z"
         style="font-style:normal;font-variant:normal;font-weight:normal;font-stretch:normal;font-size:7.76111126px;font-family:Ubuntu;-inkscape-font-specification:Ubuntu;fill:#81725e;fill-opacity:1;stroke-width:0.26458332"
         id="path849" />
      <path
         d="m 21.842705,282.40307 q 0.131939,-0.0854 0.395816,-0.1785 0.271639,-0.0931 0.620889,-0.0931 0.434622,0 0.76835,0.15523 0.341489,0.15522 0.574322,0.43462 0.232834,0.2794 0.349251,0.66745 0.124177,0.38806 0.124177,0.85373 0,0.48895 -0.147461,0.88476 -0.1397,0.38806 -0.403578,0.6597 -0.263877,0.27164 -0.636411,0.4191 -0.372533,0.14746 -0.8382,0.14746 -0.504472,0 -0.892528,-0.0698 -0.388055,-0.0699 -0.636411,-0.1397 v -5.78203 l 0.721784,-0.12418 z m 0,3.22863 q 0.108655,0.031 0.302683,0.0621 0.201789,0.0233 0.496711,0.0233 0.582083,0 0.931333,-0.3803 0.34925,-0.38805 0.34925,-1.09431 0,-0.31045 -0.06209,-0.58209 -0.06209,-0.27164 -0.201789,-0.46566 -0.1397,-0.20179 -0.364773,-0.31045 -0.217311,-0.11641 -0.527755,-0.11641 -0.294922,0 -0.543278,0.10089 -0.248355,0.10089 -0.380294,0.20955 z"
         style="font-style:normal;font-variant:normal;font-weight:normal;font-stretch:normal;font-size:7.76111126px;font-family:Ubuntu;-inkscape-font-specification:Ubuntu;fill:#81725e;fill-opacity:1;stroke-width:0.26458332"
         id="path851" />
      <path
         d="m 28.911865,286.14393 q -0.248356,0.0621 -0.659694,0.13194 -0.403578,0.0698 -0.939095,0.0698 -0.465667,0 -0.783872,-0.13194 -0.318206,-0.1397 -0.512233,-0.38806 -0.194028,-0.24835 -0.2794,-0.58208 -0.08537,-0.34149 -0.08537,-0.75283 v -2.26624 h 0.721784 v 2.11102 q 0,0.73731 0.232833,1.05551 0.232833,0.31821 0.783872,0.31821 0.116417,0 0.240595,-0.008 0.124177,-0.008 0.232833,-0.0155 0.108656,-0.0155 0.194028,-0.0233 0.09313,-0.0155 0.131939,-0.031 v -3.40713 h 0.721783 z"
         style="font-style:normal;font-variant:normal;font-weight:normal;font-stretch:normal;font-size:7.76111126px;font-family:Ubuntu;-inkscape-font-specification:Ubuntu;fill:#81725e;fill-opacity:1;stroke-width:0.26458332"
         id="path853" />
      <path
         d="m 31.645474,282.1392 q 0.09313,0 0.20955,0.0155 0.124178,0.008 0.240594,0.031 0.116417,0.0155 0.20955,0.0388 0.100895,0.0155 0.147461,0.031 l -0.124177,0.62865 q -0.08537,-0.031 -0.287162,-0.0698 -0.194027,-0.0466 -0.504472,-0.0466 -0.201789,0 -0.403578,0.0466 -0.194027,0.0388 -0.256116,0.0543 v 3.39161 H 30.15534 v -3.86504 q 0.256117,-0.0931 0.636412,-0.17074 0.380294,-0.0854 0.853722,-0.0854 z"
         style="font-style:normal;font-variant:normal;font-weight:normal;font-stretch:normal;font-size:7.76111126px;font-family:Ubuntu;-inkscape-font-specification:Ubuntu;fill:#81725e;fill-opacity:1;stroke-width:0.26458332"
         id="path855" />
      <path
         d="m 32.850022,287.01317 q 0.08537,0.0388 0.217312,0.0698 0.1397,0.0388 0.271639,0.0388 0.426861,0 0.667455,-0.19403 0.240595,-0.18627 0.434622,-0.61313 -0.48895,-0.93133 -0.915811,-1.97132 -0.4191,-1.04775 -0.6985,-2.11878 h 0.776111 q 0.08537,0.34925 0.201789,0.75283 0.124178,0.40357 0.271639,0.83043 0.147461,0.42687 0.318206,0.85373 0.170744,0.42686 0.357011,0.82267 0.294922,-0.81491 0.512233,-1.61431 0.217311,-0.79939 0.411339,-1.64535 h 0.745067 q -0.2794,1.14088 -0.620889,2.19639 -0.341489,1.04775 -0.737306,1.96356 -0.155222,0.34925 -0.325966,0.59761 -0.162984,0.25612 -0.364773,0.4191 -0.201789,0.16298 -0.457905,0.24059 -0.248356,0.0776 -0.566561,0.0776 -0.08537,0 -0.178506,-0.0155 -0.09313,-0.008 -0.186267,-0.031 -0.08537,-0.0155 -0.162983,-0.0388 -0.06985,-0.0233 -0.100894,-0.0388 z"
         style="font-style:normal;font-variant:normal;font-weight:normal;font-stretch:normal;font-size:7.76111126px;font-family:Ubuntu;-inkscape-font-specification:Ubuntu;fill:#81725e;fill-opacity:1;stroke-width:0.26458332"
         id="path857" />
      <path
         d="m 43.355171,280.8819 q -0.294923,0.85372 -0.566562,1.58326 -0.263877,0.72179 -0.519994,1.37372 -0.256117,0.65193 -0.512233,1.24954 -0.248356,0.58984 -0.512234,1.17193 h -0.706261 q -0.263878,-0.58209 -0.519994,-1.17193 -0.248356,-0.59761 -0.512234,-1.24954 -0.256116,-0.65193 -0.527755,-1.37372 -0.271639,-0.72954 -0.5588,-1.58326 h 0.830439 q 0.4191,1.22625 0.822677,2.35937 0.403578,1.13313 0.830439,2.12655 0.426861,-0.98566 0.830439,-2.11879 0.403578,-1.14088 0.814917,-2.36713 z"
         style="font-style:normal;font-variant:normal;font-weight:normal;font-stretch:normal;font-size:7.76111126px;font-family:Ubuntu;-inkscape-font-specification:Ubuntu;fill:#81725e;fill-opacity:1;stroke-width:0.26458332"
         id="path859" />
      <path
         d="m 44.777396,286.26035 h -0.721783 v -4.03578 h 0.721783 z m -0.364772,-4.76533 q -0.194028,0 -0.333728,-0.12417 -0.131939,-0.13194 -0.131939,-0.34925 0,-0.21732 0.131939,-0.34149 0.1397,-0.13194 0.333728,-0.13194 0.194028,0 0.325967,0.13194 0.1397,0.12417 0.1397,0.34149 0,0.21731 -0.1397,0.34925 -0.131939,0.12417 -0.325967,0.12417 z"
         style="font-style:normal;font-variant:normal;font-weight:normal;font-stretch:normal;font-size:7.76111126px;font-family:Ubuntu;-inkscape-font-specification:Ubuntu;fill:#81725e;fill-opacity:1;stroke-width:0.26458332"
         id="path861" />
      <path
         d="m 47.236939,286.33796 q -0.667456,-0.0155 -0.946856,-0.28716 -0.2794,-0.27164 -0.2794,-0.84597 v -4.84293 l 0.721783,-0.12418 v 4.8507 q 0,0.1785 0.03104,0.29492 0.03104,0.11642 0.100894,0.18627 0.06985,0.0698 0.186267,0.10865 0.116417,0.031 0.287161,0.0543 z"
         style="font-style:normal;font-variant:normal;font-weight:normal;font-stretch:normal;font-size:7.76111126px;font-family:Ubuntu;-inkscape-font-specification:Ubuntu;fill:#81725e;fill-opacity:1;stroke-width:0.26458332"
         id="path863" />
      <path
         d="m 49.35912,286.33796 q -0.667456,-0.0155 -0.946856,-0.28716 -0.2794,-0.27164 -0.2794,-0.84597 v -4.84293 l 0.721783,-0.12418 v 4.8507 q 0,0.1785 0.03104,0.29492 0.03104,0.11642 0.100894,0.18627 0.06985,0.0698 0.186267,0.10865 0.116417,0.031 0.287161,0.0543 z"
         style="font-style:normal;font-variant:normal;font-weight:normal;font-stretch:normal;font-size:7.76111126px;font-family:Ubuntu;-inkscape-font-specification:Ubuntu;fill:#81725e;fill-opacity:1;stroke-width:0.26458332"
         id="path865" />
      <path
         d="m 51.636519,285.74035 q 0.256117,0 0.450144,-0.008 0.201789,-0.0155 0.333728,-0.0466 v -1.20297 q -0.07761,-0.0388 -0.256117,-0.0621 -0.170744,-0.031 -0.4191,-0.031 -0.162983,0 -0.34925,0.0233 -0.178505,0.0233 -0.333727,0.1009 -0.147461,0.0699 -0.248356,0.20178 -0.100894,0.12418 -0.100894,0.33373 0,0.38806 0.248355,0.54328 0.248356,0.14746 0.675217,0.14746 z m -0.06209,-3.61668 q 0.434622,0 0.729544,0.11642 0.302684,0.10866 0.481189,0.31821 0.186267,0.20178 0.263878,0.48895 0.07761,0.2794 0.07761,0.62088 v 2.52237 q -0.09313,0.0155 -0.263878,0.0466 -0.162983,0.0233 -0.372533,0.0466 -0.20955,0.0233 -0.457905,0.0388 -0.240595,0.0233 -0.481189,0.0233 -0.341489,0 -0.62865,-0.0698 -0.287161,-0.0698 -0.496711,-0.21731 -0.20955,-0.15523 -0.325967,-0.40358 -0.116417,-0.24836 -0.116417,-0.59761 0,-0.33372 0.131939,-0.57432 0.1397,-0.24059 0.372533,-0.38805 0.232834,-0.14747 0.543278,-0.21732 0.310445,-0.0698 0.651934,-0.0698 0.108655,0 0.225072,0.0155 0.116416,0.008 0.217311,0.031 0.108655,0.0155 0.186267,0.031 0.07761,0.0155 0.108655,0.0233 v -0.20179 q 0,-0.17851 -0.03881,-0.34925 -0.03881,-0.17851 -0.1397,-0.31044 -0.100895,-0.1397 -0.2794,-0.21732 -0.170745,-0.0854 -0.450145,-0.0854 -0.357011,0 -0.62865,0.0543 -0.263878,0.0466 -0.395817,0.10089 l -0.08537,-0.5976 q 0.1397,-0.0621 0.465667,-0.11642 0.325967,-0.0621 0.706261,-0.0621 z"
         style="font-style:normal;font-variant:normal;font-weight:normal;font-stretch:normal;font-size:7.76111126px;font-family:Ubuntu;-inkscape-font-specification:Ubuntu;fill:#81725e;fill-opacity:1;stroke-width:0.26458332"
         id="path867" />
      <path
         d="m 56.847984,285.85677 q -0.09313,0.0621 -0.364772,0.16298 -0.263878,0.0931 -0.620889,0.0931 -0.364772,0 -0.690739,-0.11641 -0.318206,-0.11642 -0.5588,-0.35701 -0.240594,-0.24836 -0.380294,-0.61313 -0.1397,-0.36477 -0.1397,-0.86925 0,-0.44238 0.131938,-0.80715 0.131939,-0.37253 0.380295,-0.63641 0.256117,-0.27164 0.620889,-0.4191 0.364772,-0.15522 0.822678,-0.15522 0.504472,0 0.877005,0.0776 0.380295,0.0698 0.636411,0.13194 v 3.60115 q 0,0.93133 -0.481189,1.35043 -0.481189,0.4191 -1.459089,0.4191 -0.380294,0 -0.721783,-0.0621 -0.333728,-0.0621 -0.582083,-0.14747 l 0.131939,-0.62865 q 0.217311,0.0854 0.527755,0.14747 0.318206,0.0698 0.659695,0.0698 0.644172,0 0.923572,-0.25612 0.287161,-0.25612 0.287161,-0.81492 z m -0.0078,-2.99579 q -0.108656,-0.031 -0.294922,-0.0543 -0.178506,-0.031 -0.48895,-0.031 -0.582084,0 -0.900289,0.38029 -0.310445,0.3803 -0.310445,1.00895 0,0.34925 0.08537,0.5976 0.09313,0.24836 0.240594,0.41134 0.155222,0.16298 0.34925,0.24059 0.201789,0.0776 0.411339,0.0776 0.287161,0 0.527755,-0.0776 0.240595,-0.0854 0.380295,-0.19402 z"
         style="font-style:normal;font-variant:normal;font-weight:normal;font-stretch:normal;font-size:7.76111126px;font-family:Ubuntu;-inkscape-font-specification:Ubuntu;fill:#81725e;fill-opacity:1;stroke-width:0.26458332"
         id="path869" />
      <path
         d="m 58.579682,284.25022 q 0,-0.53552 0.155222,-0.93134 0.155223,-0.40357 0.411339,-0.66745 0.256117,-0.26388 0.589845,-0.39582 0.333728,-0.13194 0.682978,-0.13194 0.814916,0 1.249539,0.51224 0.434622,0.50447 0.434622,1.54446 0,0.0466 0,0.12418 0,0.0698 -0.0078,0.13193 H 59.33251 q 0.04657,0.62865 0.364772,0.95462 0.318206,0.32597 0.993422,0.32597 0.380295,0 0.636412,-0.0621 0.263877,-0.0699 0.395816,-0.13194 l 0.100895,0.60537 q -0.131939,0.0699 -0.465667,0.14746 -0.325967,0.0776 -0.745067,0.0776 -0.527755,0 -0.915811,-0.15522 -0.380294,-0.16299 -0.62865,-0.44239 -0.248355,-0.2794 -0.372533,-0.65969 -0.116417,-0.38806 -0.116417,-0.84596 z m 2.770717,-0.39582 q 0.0078,-0.48895 -0.248356,-0.79939 -0.248355,-0.31821 -0.690739,-0.31821 -0.248355,0 -0.442383,0.1009 -0.186267,0.0931 -0.318205,0.24835 -0.131939,0.15522 -0.20955,0.35701 -0.06985,0.20179 -0.09313,0.41134 z"
         style="font-style:normal;font-variant:normal;font-weight:normal;font-stretch:normal;font-size:7.76111126px;font-family:Ubuntu;-inkscape-font-specification:Ubuntu;fill:#81725e;fill-opacity:1;stroke-width:0.26458332"
         id="path871" />
    </g>
  </g>
</svg>
