<?xml version="1.0" encoding="UTF-8" standalone="no"?>
<!-- Generator: Adobe Illustrator 19.0.0, SVG Export Plug-In . SVG Version: 6.00 Build 0)  -->

<svg
   xmlns:dc="http://purl.org/dc/elements/1.1/"
   xmlns:cc="http://creativecommons.org/ns#"
   xmlns:rdf="http://www.w3.org/1999/02/22-rdf-syntax-ns#"
   xmlns:svg="http://www.w3.org/2000/svg"
   xmlns="http://www.w3.org/2000/svg"
   xmlns:sodipodi="http://sodipodi.sourceforge.net/DTD/sodipodi-0.dtd"
   xmlns:inkscape="http://www.inkscape.org/namespaces/inkscape"
   version="1.1"
   id="Capa_1"
   x="0px"
   y="0px"
   viewBox="0 0 496 496"
   style="enable-background:new 0 0 496 496;"
   xml:space="preserve"
   sodipodi:docname="dubai_palm_islands.svg"
   inkscape:version="0.92.4 (5da689c313, 2019-01-14)"><metadata
   id="metadata71"><rdf:RDF><cc:Work
       rdf:about=""><dc:format>image/svg+xml</dc:format><dc:type
         rdf:resource="http://purl.org/dc/dcmitype/StillImage" /></cc:Work></rdf:RDF></metadata><defs
   id="defs69" /><sodipodi:namedview
   pagecolor="#ffffff"
   bordercolor="#666666"
   borderopacity="1"
   objecttolerance="10"
   gridtolerance="10"
   guidetolerance="10"
   inkscape:pageopacity="0"
   inkscape:pageshadow="2"
   inkscape:window-width="1920"
   inkscape:window-height="986"
   id="namedview67"
   showgrid="false"
   inkscape:zoom="1.3457839"
   inkscape:cx="155.17236"
   inkscape:cy="210.99546"
   inkscape:window-x="-11"
   inkscape:window-y="-11"
   inkscape:window-maximized="1"
   inkscape:current-layer="Capa_1" />
<g
   id="g20"
   transform="matrix(0.95,0,0,0.95,12.4,24.8)">
	<path
   style="fill:#ffa64d"
   d="M 248,8 C 115.456,8 8,115.456 8,248 8,312.592 33.496,375.464 75,418.928 78.144,422.224 82.568,424 87.128,424 96.448,424 104,416.448 104,407.128 v -0.552 c 0,-4.232 -1.64,-8.24 -4.464,-11.384 C 65.824,357.712 40,301.552 40,248 40,128.88 140.136,33.144 260.824,40.384 c 90.024,5.4 167.808,69.52 189.112,157.144 11.144,45.848 6.4,91.68 -9.936,131.504 l -8,17.272 c -9.368,18.048 -21.208,34.528 -35.08,48.8 -3.096,3.192 -4.92,7.392 -4.92,11.84 v 0.184 c 0,9.32 7.552,16.872 16.872,16.872 4.56,0 8.984,-1.776 12.136,-5.072 C 462.496,375.464 488,312.576 488,248 488,115.456 380.552,8 248,8 Z"
   id="path2"
   inkscape:connector-curvature="0" />
	<path
   style="fill:#ffa64d"
   d="m 178.72,88.232 c -0.936,-0.168 -1.864,-0.248 -2.784,-0.248 -7.832,0 -14.448,5.64 -15.72,13.384 -0.704,4.216 0.28,8.456 2.768,11.928 2.488,3.48 6.176,5.784 10.392,6.488 15.832,2.64 37.872,19.6 59.08,40.208 L 232,116.592 C 214.256,102.28 195.648,91.056 178.72,88.232 Z"
   id="path4"
   inkscape:connector-curvature="0" />
	<path
   style="fill:#ffa64d"
   d="m 111.928,151.992 c -8.272,0 -15.096,6.248 -15.864,14.56 -0.8,8.792 5.704,16.584 14.488,17.384 0.8,0.072 75.232,7.024 121.448,26.336 V 176.08 C 183.512,158.976 121.456,152.8 113.512,152.072 Z"
   id="path6"
   inkscape:connector-curvature="0" />
	<path
   style="fill:#ffa64d"
   d="M 72.672,268.592 C 74.72,275.416 80.872,280 88,280 c 1.536,0 3.08,-0.224 4.576,-0.664 C 93.28,279.12 157.672,260.232 232,256.608 v -32 c -79.064,3.56 -145.536,23.144 -148.6,24.064 -8.448,2.536 -13.256,11.48 -10.728,19.92 z"
   id="path8"
   inkscape:connector-curvature="0" />
	<path
   style="fill:#ffa64d"
   d="m 115.864,333.576 c -2.792,3.24 -4.152,7.376 -3.816,11.64 0.328,4.264 2.296,8.152 5.528,10.912 2.904,2.496 6.6,3.872 10.424,3.872 4.688,0 9.128,-2.048 12.112,-5.552 0.4,-0.456 37.328,-42.016 91.888,-49.264 V 272.88 c -69.528,7.136 -114.152,58.384 -116.136,60.696 z"
   id="path10"
   inkscape:connector-curvature="0" />
	<path
   style="fill:#ffa64d"
   d="m 320.064,87.984 c -0.912,0 -1.84,0.088 -2.784,0.248 -16.928,2.824 -35.536,14.048 -53.28,28.36 l -0.456,43.4 c 21.208,-20.608 43.248,-37.568 59.08,-40.208 4.216,-0.704 7.904,-3.008 10.392,-6.488 2.488,-3.48 3.472,-7.712 2.768,-11.928 -1.28,-7.744 -7.896,-13.384 -15.72,-13.384 z"
   id="path12"
   inkscape:connector-curvature="0" />
	<path
   style="fill:#ffa64d"
   d="m 384.072,151.992 -1.576,0.08 C 374.544,152.8 312.488,158.976 264,176.08 v 34.2 c 46.216,-19.312 120.648,-26.264 121.448,-26.336 8.792,-0.8 15.288,-8.592 14.496,-17.384 -0.776,-8.32 -7.6,-14.568 -15.872,-14.568 z"
   id="path14"
   inkscape:connector-curvature="0" />
	<path
   style="fill:#ffa64d"
   d="m 264,256.608 c 74.328,3.632 138.72,22.52 139.424,22.728 1.496,0.44 3.04,0.664 4.576,0.664 7.128,0 13.28,-4.584 15.328,-11.408 2.528,-8.448 -2.28,-17.384 -10.728,-19.92 -3.064,-0.92 -69.536,-20.504 -148.6,-24.064 z"
   id="path16"
   inkscape:connector-curvature="0" />
	<path
   style="fill:#ffa64d"
   d="m 264,272.88 v 32.304 c 54.56,7.248 91.488,48.808 91.888,49.264 2.984,3.504 7.424,5.552 12.112,5.552 3.824,0 7.52,-1.376 10.424,-3.864 3.232,-2.768 5.2,-6.648 5.528,-10.912 0.328,-4.264 -1.032,-8.4 -3.816,-11.64 -1.976,-2.32 -46.6,-53.568 -116.136,-60.704 z"
   id="path18"
   inkscape:connector-curvature="0" />
</g>
<g
   id="g34"
   transform="matrix(0.95,0,0,0.95,12.4,24.8)">
	<path
   style="fill:#333333"
   d="M 248,0 C 111.248,0 0,111.248 0,248 c 0,65.104 25.872,131.072 69.208,176.448 4.576,4.8 11.104,7.552 17.92,7.552 13.72,0 24.872,-11.16 24.872,-25.424 0,-6.128 -2.312,-12.072 -6.52,-16.736 C 70.032,350.432 48,296.072 48,248 48,192.304 70.336,140.584 110.896,102.384 151.44,64.2 204.568,45.032 260.352,48.368 c 86.688,5.208 161.456,67.32 181.816,151.056 10.312,42.416 7.008,86.184 -9.56,126.576 l 14.8,6.08 C 465.264,288.536 468.84,241.352 457.72,195.64 435.712,105.152 354.944,38.024 261.304,32.4 201.112,28.76 143.72,49.512 99.928,90.736 56.128,132 32,187.84 32,248 c 0,51.856 23.6,110.312 61.592,152.544 1.56,1.728 2.408,3.872 2.408,6.584 0,4.888 -3.984,8.872 -8.872,8.872 -2.464,0 -4.768,-0.944 -6.336,-2.592 C 40.216,370.92 16,309.088 16,248 16,120.08 120.08,16 248,16 c 127.92,0 232,104.08 232,232 0,61.072 -24.216,122.904 -64.792,165.416 -1.568,1.64 -3.88,2.584 -6.344,2.584 -4.888,0 -8.864,-3.976 -8.864,-9.056 0,-2.272 0.944,-4.496 2.656,-6.256 14.432,-14.856 26.696,-31.912 36.448,-50.696 l -14.2,-7.376 c -9.032,17.4 -20.376,33.184 -33.712,46.912 -4.64,4.768 -7.192,10.952 -7.192,17.608 0,13.704 11.152,24.864 24.864,24.864 6.816,0 13.352,-2.752 17.92,-7.544 C 470.128,379.048 496,313.088 496,248 496,111.248 384.752,0 248,0 Z"
   id="path22"
   inkscape:connector-curvature="0" />
	<path
   style="fill:#333333"
   d="M 386.224,328.392 C 384.344,326.184 340.76,276.08 272,265.952 v -0.848 c 69.808,4.512 128.528,21.712 129.184,21.904 2.24,0.664 4.528,0.992 6.816,0.992 10.68,0 19.92,-6.872 22.992,-17.112 3.8,-12.664 -3.424,-26.072 -16.112,-29.88 -2.752,-0.824 -66.344,-19.48 -142.88,-23.952 v -1.304 c 45.456,-17.448 113.448,-23.784 114.168,-23.848 6.384,-0.576 12.152,-3.608 16.264,-8.536 4.112,-4.928 6.056,-11.16 5.48,-17.552 C 406.752,153.384 396.504,144 383.696,144 c -0.008,0 -0.016,0 -0.024,0 l -1.904,0.104 c -6.576,0.6 -61.888,6 -109.768,20.912 v -2 c 21.872,-20.824 40.264,-33.4 51.936,-35.344 6.32,-1.056 11.856,-4.504 15.584,-9.728 3.728,-5.216 5.2,-11.568 4.152,-17.872 -1.912,-11.64 -11.84,-20.088 -23.608,-20.088 -1.368,0 -2.76,0.128 -4.096,0.36 C 302.88,82.528 288.12,89.384 272,100.616 V 88 c 0,-13.232 -10.768,-24 -24,-24 -13.232,0 -24,10.768 -24,24 v 12.616 c -16.12,-11.24 -30.864,-18.088 -43.896,-20.264 -13.504,-2.344 -25.64,6.728 -27.776,19.704 -1.056,6.32 0.424,12.672 4.152,17.888 3.728,5.216 9.264,8.672 15.576,9.728 11.68,1.944 30.072,14.52 51.944,35.344 v 2 C 176.12,150.104 120.784,144.704 113.904,144.08 l -1.976,-0.088 c -12.432,0 -22.672,9.384 -23.832,21.848 -0.576,6.376 1.368,12.6 5.48,17.528 4.112,4.928 9.88,7.96 16.272,8.536 0.712,0.064 68.704,6.4 114.152,23.848 v 1.304 c -76.544,4.472 -140.128,23.128 -142.904,23.952 -12.664,3.816 -19.88,17.216 -16.088,29.88 C 68.08,281.128 77.32,288 88,288 c 2.288,0 4.576,-0.328 6.864,-1 0.608,-0.184 59.328,-17.376 129.136,-21.888 v 0.848 c -68.76,10.128 -112.344,60.232 -114.192,62.408 -4.184,4.864 -6.224,11.08 -5.736,17.48 0.496,6.4 3.448,12.216 8.288,16.36 4.352,3.728 9.904,5.792 15.64,5.792 7.04,0 13.68,-3.056 18.112,-8.264 0.328,-0.368 31.68,-35.208 77.888,-45.048 v 10 L 212.688,336 h -7.208 c -11.848,0 -21.48,9.632 -21.48,21.48 0,9.872 6.688,18.448 16.272,20.832 l 7.728,1.936 v 74.376 c 0,21.176 15.856,39.256 36.104,41.184 1.272,0.128 2.544,0.192 3.816,0.192 9.936,0 19.6,-3.688 26.976,-10.392 C 283.224,478.04 288,467.248 288,456 v -75.752 l 7.728,-1.936 C 305.312,375.92 312,367.352 312,357.48 312,345.632 302.368,336 290.52,336 h -7.208 L 272,324.688 v -10 c 46.216,9.84 77.552,44.672 77.8,44.944 4.52,5.312 11.16,8.368 18.2,8.368 5.736,0 11.288,-2.064 15.616,-5.792 4.864,-4.16 7.824,-9.976 8.312,-16.376 0.496,-6.392 -1.544,-12.608 -5.704,-17.44 z m 24.072,-72.056 c 4.224,1.264 6.632,5.736 5.368,9.96 -1.256,4.192 -5.792,6.568 -9.944,5.376 C 405.104,271.48 343.68,253.608 272,249.08 v -15.992 c 74.264,4.448 135.648,22.456 138.296,23.248 z m -27.408,-96.272 1.176,-0.072 c 4.12,0 7.512,3.144 7.896,7.28 0.192,2.128 -0.456,4.2 -1.832,5.84 -1.368,1.648 -3.296,2.664 -5.4,2.856 -0.696,0.056 -65.64,6.192 -112.744,22.72 v -16.84 C 319.2,166.264 376.592,160.64 382.888,160.064 Z M 318.664,96.12 c 4.456,-0.808 8.52,2.224 9.224,6.56 0.36,2.144 -0.128,4.2 -1.384,5.968 -1.264,1.768 -3.064,2.88 -5.2,3.24 -12.88,2.152 -29.464,12.128 -49.304,29.472 v -20.856 c 17.856,-13.952 33.544,-22.208 46.664,-24.384 z m -143.976,15.768 c -2.136,-0.36 -3.928,-1.48 -5.192,-3.24 -1.256,-1.768 -1.744,-3.832 -1.384,-5.984 0.64,-3.864 3.928,-6.68 7.832,-6.68 0.464,0 0.928,0.048 1.472,0.144 13.056,2.176 28.736,10.424 46.592,24.384 v 20.856 c -19.856,-17.344 -36.432,-27.328 -49.32,-29.48 z m -63.416,64.08 c -2.12,-0.184 -4.048,-1.2 -5.416,-2.856 -1.376,-1.64 -2.024,-3.72 -1.832,-5.816 0.384,-4.168 3.784,-7.304 7.504,-7.312 l 1.248,0.056 c 6.624,0.6 64.024,6.224 111.224,21.808 v 16.84 C 176.896,182.16 111.952,176.024 111.272,175.968 Z m -20.936,95.688 c -4.472,1.304 -8.744,-1.168 -10,-5.36 -1.264,-4.224 1.144,-8.696 5.344,-9.96 2.672,-0.792 64.056,-18.8 138.32,-23.248 v 15.992 c -71.68,4.528 -133.096,22.4 -133.664,22.576 z m 43.68,77.6 c -2.68,3.168 -7.968,3.6 -11.24,0.8 -1.608,-1.384 -2.584,-3.312 -2.752,-5.456 -0.168,-2.16 0.496,-4.168 1.936,-5.832 1.696,-1.992 40.528,-46.664 102.04,-56.656 v 16.344 c -53.384,9.936 -88.384,48.984 -89.984,50.8 z M 276.688,352 h 13.84 c 3.016,0 5.472,2.456 5.472,5.48 0,2.52 -1.712,4.704 -4.152,5.32 L 272,367.752 V 456 c 0,6.752 -2.864,13.224 -7.856,17.768 -5.064,4.6 -11.6,6.736 -18.52,6.128 C 233.496,478.736 224,467.632 224,454.624 V 367.752 L 204.152,362.8 C 201.712,362.176 200,360 200,357.48 c 0,-3.024 2.456,-5.48 5.48,-5.48 h 13.84 L 240,331.312 V 88 c 0,-4.416 3.584,-8 8,-8 4.416,0 8,3.584 8,8 v 243.312 z m 96.512,-1.928 c -3.216,2.776 -8.48,2.424 -11.304,-0.904 -1.52,-1.728 -36.512,-40.776 -89.896,-50.712 v -16.344 c 61.512,9.992 100.344,54.664 102.072,56.688 1.416,1.64 2.072,3.648 1.904,5.808 -0.16,2.136 -1.144,4.064 -2.776,5.464 z"
   id="path24"
   inkscape:connector-curvature="0" />
	<rect
   x="240"
   y="352"
   style="fill:#333333"
   width="16"
   height="16"
   id="rect26" />
	<rect
   x="240"
   y="384"
   style="fill:#333333"
   width="16"
   height="16"
   id="rect28" />
	<rect
   x="240"
   y="416"
   style="fill:#333333"
   width="16"
   height="16"
   id="rect30" />
	<rect
   x="240"
   y="448"
   style="fill:#333333"
   width="16"
   height="16"
   id="rect32" />
</g>
<g
   id="g36"
   transform="matrix(0.95,0,0,0.95,12.4,24.8)">
</g>
<g
   id="g38"
   transform="matrix(0.95,0,0,0.95,12.4,24.8)">
</g>
<g
   id="g40"
   transform="matrix(0.95,0,0,0.95,12.4,24.8)">
</g>
<g
   id="g42"
   transform="matrix(0.95,0,0,0.95,12.4,24.8)">
</g>
<g
   id="g44"
   transform="matrix(0.95,0,0,0.95,12.4,24.8)">
</g>
<g
   id="g46"
   transform="matrix(0.95,0,0,0.95,12.4,24.8)">
</g>
<g
   id="g48"
   transform="matrix(0.95,0,0,0.95,12.4,24.8)">
</g>
<g
   id="g50"
   transform="matrix(0.95,0,0,0.95,12.4,24.8)">
</g>
<g
   id="g52"
   transform="matrix(0.95,0,0,0.95,12.4,24.8)">
</g>
<g
   id="g54"
   transform="matrix(0.95,0,0,0.95,12.4,24.8)">
</g>
<g
   id="g56"
   transform="matrix(0.95,0,0,0.95,12.4,24.8)">
</g>
<g
   id="g58"
   transform="matrix(0.95,0,0,0.95,12.4,24.8)">
</g>
<g
   id="g60"
   transform="matrix(0.95,0,0,0.95,12.4,24.8)">
</g>
<g
   id="g62"
   transform="matrix(0.95,0,0,0.95,12.4,24.8)">
</g>
<g
   id="g64"
   transform="matrix(0.95,0,0,0.95,12.4,24.8)">
</g>
</svg>