<svg id="Capa_1" enable-background="new 0 0 512 512" height="512" viewBox="0 0 512 512" width="512" xmlns="http://www.w3.org/2000/svg"><g><g><path d="m47.581 84.989-31.042-10.347c-4.447-1.482-9.039 1.828-9.039 6.515 0 13.521 8.482 25.589 21.203 30.169l18.877 6.796 8.016-14.429z" fill="#fd9"/><path d="m464.419 84.989 31.041-10.347c4.447-1.482 9.039 1.828 9.039 6.515 0 13.521-8.482 25.589-21.203 30.169l-18.877 6.796-8.016-14.429z" fill="#fd9"/><path d="m320.129 111.71c-8.854 0-16.032-7.178-16.032-16.032v-32.065c0-26.563-21.534-48.097-48.097-48.097s-48.097 21.534-48.097 48.097v32.065c0 8.854-7.178 16.032-16.032 16.032v6.413h128.258z" fill="#df976c"/><path d="m207.903 63.613v32.065c0 8.854-7.178 16.032-16.032 16.032v6.413h64.129v-102.607c-26.563 0-48.097 21.534-48.097 48.097z" fill="#d18964"/><path d="m243.976 79.645h24.048v40.081h-24.048z" fill="#ffce8a"/><path d="m464.419 84.989-71.525 23.842c-5.721 1.907-11.712 2.879-17.742 2.879h-238.304c-6.03 0-12.021-.972-17.742-2.879l-71.525-23.842v50.769l134.769 59.897c5.79 2.573 9.521 8.315 9.521 14.651v181.968h105.261l22.997-181.968c0-6.336 3.731-12.077 9.521-14.651l134.769-59.897z" fill="#f8f1d8"/><path d="m192.129 173.678-144.548-63.667v25.747l134.769 59.898c5.79 2.573 9.521 8.315 9.521 14.651v181.968h24.048v-181.968c0-15.806-9.339-30.186-23.79-36.629z" fill="#f5e8c9"/><path d="m264.016 111.71-56.113 288.58 112.226-24.048v-264.532z" fill="#ff7e8f"/><path d="m372.311 384.465c-7.804-18.934-26.423-32.271-48.174-32.271-7.431 0-14.486 1.581-20.883 4.384-16.028-22.053-41.955-36.449-71.303-36.449-34.283 0-63.927 19.606-78.514 48.18-.553-.014-1.091-.083-1.647-.083-35.417 0-64.129 28.712-64.129 64.129s28.712 64.129 64.129 64.129h216.435c30.99 0 56.113-25.123 56.113-56.113.001-29.611-22.951-53.807-52.027-55.906z" fill="#e0f2ff"/><path d="m407.46 472.435h-231.621c-30.941 0-56.113-25.172-56.113-56.113 0-14.32 5.438-27.966 15.312-38.425l8.586-9.094c-31.552 4.02-55.962 30.908-55.962 63.552 0 35.417 28.712 64.129 64.129 64.129h216.435c19.059 0 35.871-9.524 46.013-24.048h-6.779z" fill="#ceeaff"/><path d="m256 87.661c-8.854 0-16.032-7.178-16.032-16.032v-8.016c0-8.854 7.178-16.032 16.032-16.032 8.854 0 16.032 7.178 16.032 16.032v8.016c0 8.854-7.178 16.032-16.032 16.032z" fill="#fd9"/></g><g><path d="m508.885 65.544c-1.956-1.409-4.47-1.792-6.757-1.031l-111.604 37.201c-4.966 1.655-10.138 2.495-15.373 2.495h-55.023c-4.705 0-8.532-3.828-8.532-8.532v-32.064c0-30.656-24.94-55.597-55.597-55.597s-55.597 24.94-55.597 55.597v32.064c0 4.705-3.828 8.532-8.532 8.532h-55.023c-5.235 0-10.407-.839-15.373-2.495l-111.602-37.2c-2.286-.762-4.801-.379-6.757 1.031s-3.115 3.673-3.115 6.084v9.529c0 16.632 10.514 31.592 26.163 37.226l13.917 5.01v12.365c0 2.964 1.746 5.65 4.454 6.854l134.769 59.897c3.079 1.368 5.067 4.429 5.067 7.797v114.963c-14.487 8.318-26.764 20.445-35.386 35.511-38.201 1.479-68.824 33.019-68.824 71.575 0 39.496 32.133 71.629 71.629 71.629h216.435c35.077 0 63.613-28.537 63.613-63.613 0-31.633-23.588-58.431-54.482-62.9-10.085-20.055-30.509-32.778-53.22-32.778-6.279 0-12.43.975-18.354 2.904-11.105-13.483-25.623-23.568-41.765-29.361l23.388-118.501c.802-4.063-1.842-8.008-5.906-8.81-4.058-.802-8.008 1.842-8.81 5.906l-23.182 117.454c-5.405-1.022-10.923-1.579-16.496-1.641l37.199-193.435h42.417v200.919c0 4.142 3.358 7.5 7.5 7.5s7.5-3.358 7.5-7.5v-115.368l139.836-62.149c2.708-1.204 4.454-3.89 4.454-6.854v-12.365l13.917-5.01c15.653-5.633 26.167-20.593 26.167-37.225v-9.529c0-2.411-1.159-4.675-3.115-6.085zm-477.641 38.726c-9.438-3.398-15.869-12.26-16.228-22.23l25.064 8.355v17.056zm265.944 256.717c2.071 2.851 5.852 3.875 9.077 2.459 5.684-2.491 11.697-3.753 17.873-3.753 18.134 0 34.322 10.845 41.24 27.629 1.083 2.628 3.559 4.418 6.394 4.623 25.272 1.825 45.068 23.097 45.068 48.426 0 26.805-21.808 48.613-48.613 48.613h-216.436c-31.226 0-56.629-25.404-56.629-56.629 0-31.226 25.404-56.629 56.623-56.629.133.002.264.015.395.024.354.025.708.047 1.066.057 2.872.053 5.559-1.516 6.872-4.087 13.884-27.196 41.409-44.09 71.835-44.09 25.666-.001 50.053 12.469 65.235 33.357zm-79.658-47.265c-6.243.943-12.319 2.491-18.159 4.602v-108.018c0-9.29-5.485-17.73-13.975-21.504l-130.315-57.918v-35.489l61.651 20.55c6.498 2.166 13.266 3.264 20.116 3.264h118.089zm-3.734-209.513c1.034-2.647 1.608-5.523 1.608-8.532v-32.064c0-22.385 18.211-40.597 40.597-40.597s40.597 18.211 40.597 40.597v32.064c0 3.009.574 5.885 1.608 8.532zm113.833 84.138v-69.137h47.523c6.85 0 13.618-1.098 20.116-3.264l61.651-20.55v35.489zm153.127-84.077-8.836 3.181v-17.056l25.064-8.355c-.359 9.97-6.79 18.832-16.228 22.23z"/><path d="m256 40.081c-12.976 0-23.532 10.557-23.532 23.532v8.016c0 12.976 10.557 23.532 23.532 23.532s23.532-10.557 23.532-23.532v-8.016c0-12.976-10.556-23.532-23.532-23.532zm8.532 31.548c0 4.705-3.828 8.532-8.532 8.532s-8.532-3.828-8.532-8.532v-8.016c0-4.705 3.828-8.532 8.532-8.532s8.532 3.828 8.532 8.532z"/></g></g></svg>