<?xml version="1.0" encoding="UTF-8" standalone="no"?>
<!-- Generator: Adobe Illustrator 19.0.0, SVG Export Plug-In . SVG Version: 6.00 Build 0)  -->

<svg
   xmlns:dc="http://purl.org/dc/elements/1.1/"
   xmlns:cc="http://creativecommons.org/ns#"
   xmlns:rdf="http://www.w3.org/1999/02/22-rdf-syntax-ns#"
   xmlns:svg="http://www.w3.org/2000/svg"
   xmlns="http://www.w3.org/2000/svg"
   xmlns:sodipodi="http://sodipodi.sourceforge.net/DTD/sodipodi-0.dtd"
   xmlns:inkscape="http://www.inkscape.org/namespaces/inkscape"
   version="1.1"
   id="Layer_1"
   x="0px"
   y="0px"
   viewBox="0 0 512.001 512.001"
   style="enable-background:new 0 0 512.001 512.001;"
   xml:space="preserve"
   sodipodi:docname="ecuador_flag.svg"
   inkscape:version="0.92.4 (5da689c313, 2019-01-14)"><metadata
   id="metadata133"><rdf:RDF><cc:Work
       rdf:about=""><dc:format>image/svg+xml</dc:format><dc:type
         rdf:resource="http://purl.org/dc/dcmitype/StillImage" /></cc:Work></rdf:RDF></metadata><defs
   id="defs131" /><sodipodi:namedview
   pagecolor="#ffffff"
   bordercolor="#666666"
   borderopacity="1"
   objecttolerance="10"
   gridtolerance="10"
   guidetolerance="10"
   inkscape:pageopacity="0"
   inkscape:pageshadow="2"
   inkscape:window-width="1920"
   inkscape:window-height="986"
   id="namedview129"
   showgrid="false"
   inkscape:zoom="1.3037256"
   inkscape:cx="437.74758"
   inkscape:cy="180.24112"
   inkscape:window-x="-11"
   inkscape:window-y="-11"
   inkscape:window-maximized="1"
   inkscape:current-layer="Layer_1" />
<path
   style="fill:#ff4b55;stroke-width:0.95999998"
   d="m 501.76002,336.5085 h -491.52 v 72.03264 c 0,4.68 3.79488,8.47488 8.47488,8.47488 h 474.5712 c 4.68,0 8.47488,-3.79488 8.47488,-8.47488 z"
   id="path2"
   inkscape:connector-curvature="0" />
<path
   style="fill:#ffe15a;stroke-width:0.95999998"
   d="m 501.76002,256.00098 h -491.52 V 103.45986 c 0,-4.68 3.79488,-8.47488 8.47488,-8.47488 h 474.5712 c 4.68,0 8.47488,3.79488 8.47488,8.47488 z"
   id="path4"
   inkscape:connector-curvature="0" />
<rect
   y="256.00098"
   style="fill:#41479b;stroke-width:0.95999998"
   width="491.51999"
   height="80.5056"
   id="rect6"
   x="10.24002" />

































<g
   id="g98"
   transform="matrix(0.96,0,0,0.96,10.24002,10.24002)">
</g>
<g
   id="g100"
   transform="matrix(0.96,0,0,0.96,10.24002,10.24002)">
</g>
<g
   id="g102"
   transform="matrix(0.96,0,0,0.96,10.24002,10.24002)">
</g>
<g
   id="g104"
   transform="matrix(0.96,0,0,0.96,10.24002,10.24002)">
</g>
<g
   id="g106"
   transform="matrix(0.96,0,0,0.96,10.24002,10.24002)">
</g>
<g
   id="g108"
   transform="matrix(0.96,0,0,0.96,10.24002,10.24002)">
</g>
<g
   id="g110"
   transform="matrix(0.96,0,0,0.96,10.24002,10.24002)">
</g>
<g
   id="g112"
   transform="matrix(0.96,0,0,0.96,10.24002,10.24002)">
</g>
<g
   id="g114"
   transform="matrix(0.96,0,0,0.96,10.24002,10.24002)">
</g>
<g
   id="g116"
   transform="matrix(0.96,0,0,0.96,10.24002,10.24002)">
</g>
<g
   id="g118"
   transform="matrix(0.96,0,0,0.96,10.24002,10.24002)">
</g>
<g
   id="g120"
   transform="matrix(0.96,0,0,0.96,10.24002,10.24002)">
</g>
<g
   id="g122"
   transform="matrix(0.96,0,0,0.96,10.24002,10.24002)">
</g>
<g
   id="g124"
   transform="matrix(0.96,0,0,0.96,10.24002,10.24002)">
</g>
<g
   id="g126"
   transform="matrix(0.96,0,0,0.96,10.24002,10.24002)">
</g>
<rect
   style="fill:none;fill-rule:evenodd;stroke:#000000;stroke-width:14.99760246;stroke-miterlimit:4;stroke-dasharray:none;stroke-opacity:1"
   id="rect940"
   width="500.00241"
   height="164.96083"
   x="5.9992828"
   y="96.026237" /><rect
   style="fill:none;fill-rule:evenodd;stroke:#000000;stroke-width:14.99916077;stroke-miterlimit:4;stroke-dasharray:none;stroke-opacity:1"
   id="rect940-0-1"
   width="500.00082"
   height="79.765465"
   x="6.0000763"
   y="260.60406" /><rect
   style="fill:none;fill-rule:evenodd;stroke:#000000;stroke-width:14.99771118;stroke-miterlimit:4;stroke-dasharray:none;stroke-opacity:1"
   id="rect940-0"
   width="500.00229"
   height="78.340317"
   x="5.9993439"
   y="340.77969" /><path
   style="fill:#ffe15a;stroke-width:0.95999998"
   d="m 247.1565,260.75586 61.9008,-53.05728 v 76.78752 c 0,12.94176 -10.49184,23.43168 -23.43168,23.43168 v 0 c -5.7888,0 -11.37312,-2.14272 -15.67584,-6.0144 L 247.1565,281.3901 Z"
   id="path8"
   inkscape:connector-curvature="0" /><path
   style="fill:#ff4b55;stroke-width:0.95999998"
   d="m 279.80898,290.94882 -17.9136,-16.12224 v -26.7024 l 32.424,-27.792 v 19.41216 44.74272 c 0,4.79328 -3.90048,8.69376 -8.69376,8.69376 -2.15136,0 -4.21728,-0.79296 -5.81664,-2.232 z"
   id="path10"
   inkscape:connector-curvature="0" /><path
   style="fill:#41479b;stroke-width:0.95999998"
   d="m 270.73794,240.54498 v 30.35232 l 14.73792,13.30752 v -44.6448 -11.64672 l 8.84352,-7.58016 v 19.41216 44.74272 c 0,4.79328 -3.90048,8.69376 -8.69376,8.69376 -2.15136,0 -4.21728,-0.792 -5.81664,-2.232 l -17.9136,-16.12224 v -26.7024 z"
   id="path12"
   inkscape:connector-curvature="0" /><path
   style="fill:#ffe15a;stroke-width:0.95999998"
   d="m 264.84354,260.75586 -61.9008,-53.05728 v 76.78752 c 0,12.94176 10.49184,23.43168 23.43168,23.43168 v 0 c 5.7888,0 11.37312,-2.14272 15.67584,-6.0144 l 22.79328,-20.51328 z"
   id="path14"
   inkscape:connector-curvature="0" /><path
   style="fill:#ff4b55;stroke-width:0.95999998"
   d="m 232.19106,290.94882 17.9136,-16.12224 v -26.7024 l -32.424,-27.792 v 19.41216 44.74272 c 0,4.79328 3.90048,8.69376 8.69376,8.69376 2.15136,0 4.21728,-0.79296 5.81664,-2.232 z"
   id="path16"
   inkscape:connector-curvature="0" /><g
   id="g24"
   transform="matrix(0.96,0,0,0.96,10.24002,10.24002)">
	<path
   style="fill:#41479b"
   d="m 240.648,239.901 v 31.617 l -15.352,13.862 v -46.505 -12.132 l -9.212,-7.896 v 20.221 46.607 c 0,4.993 4.063,9.056 9.056,9.056 2.241,0 4.393,-0.825 6.059,-2.325 l 18.66,-16.794 v -27.815 z"
   id="path18"
   inkscape:connector-curvature="0" />
	<rect
   x="309.04001"
   y="205.961"
   style="fill:#41479b"
   width="4.414"
   height="26.448999"
   id="rect20" />
	<rect
   x="198.50999"
   y="205.961"
   style="fill:#41479b"
   width="4.414"
   height="26.448999"
   id="rect22" />
</g><g
   id="g32"
   transform="matrix(0.96,0,0,0.96,10.24002,10.24002)">
	<path
   style="fill:#5a4646"
   d="m 246.788,193.405 c 0,0 6.141,-29.17 -15.352,-25.332 -21.493,3.838 -21.493,9.978 -46.057,22.261 0,0 27.634,6.141 39.916,3.071 0,0 9.212,12.281 18.423,15.352 h 9.212 z"
   id="path26"
   inkscape:connector-curvature="0" />
	<path
   style="fill:#5a4646"
   d="m 265.212,193.405 c 0,0 -6.141,-29.17 15.352,-25.332 21.493,3.838 21.493,9.978 46.057,22.261 0,0 -27.634,6.141 -39.916,3.071 0,0 -9.212,12.281 -18.423,15.352 h -9.212 z"
   id="path28"
   inkscape:connector-curvature="0" />
	<path
   style="fill:#5a4646"
   d="m 265.212,208.757 h -18.423 v -15.466 c 0,-5.025 4.073,-9.098 9.098,-9.098 h 0.227 c 5.025,0 9.098,4.073 9.098,9.098 v 15.466 z"
   id="path30"
   inkscape:connector-curvature="0" />
</g><circle
   style="fill:#e6e1cd;stroke-width:0.95999998"
   cx="256.00003"
   cy="195.90498"
   r="5.89536"
   id="circle34" /><path
   style="fill:#ffd0af;stroke-width:0.95999998"
   d="m 243.3501,192.10146 11.08416,5.91936 c 0.93024,0.49728 2.07552,0.3264 2.81952,-0.41952 v 0 c 0.93504,-0.93504 0.93504,-2.44992 0,-3.38592 l -7.15008,-7.15008 h -1.71936 c -2.78016,0 -5.03424,2.25408 -5.03424,5.03616 z"
   id="path36"
   inkscape:connector-curvature="0" /><path
   style="fill:#ffaf94;stroke-width:0.95999998"
   d="m 247.19394,192.96066 h -8.87904 l 3.88512,-4.54848 c 0.7296,-0.85344 1.79616,-1.34592 2.92032,-1.34592 h 4.98432 v 2.98368 c 0,1.60704 -1.30368,2.91072 -2.91072,2.91072 z"
   id="path38"
   inkscape:connector-curvature="0" /><g
   id="g44"
   transform="matrix(0.96,0,0,0.96,10.24002,10.24002)">
	<path
   style="fill:#8cb400"
   d="m 282.186,208.765 c -2.072,-2.458 -2.514,-5.717 -1.504,-8.541 2.954,-0.516 6.091,0.471 8.162,2.931 1.77,2.101 2.283,4.772 1.784,7.272 0.614,1.042 1.364,2.382 2.189,3.964 0.041,-0.225 0.032,-0.448 0.096,-0.673 0.724,-2.546 2.743,-4.348 5.135,-4.958 1.713,1.778 2.483,4.373 1.759,6.918 -0.622,2.19 -2.228,3.777 -4.18,4.581 0.771,1.769 1.534,3.677 2.247,5.69 0.041,-0.118 0.044,-0.238 0.092,-0.355 1,-2.451 3.206,-4.019 5.65,-4.362 1.506,1.955 1.986,4.619 0.987,7.07 -0.875,2.144 -2.69,3.558 -4.764,4.121 1.068,4.213 1.775,8.683 1.775,13.183 h -3.071 c 0,-3.922 -0.602,-7.85 -1.511,-11.608 -1.895,0.612 -4.012,0.481 -5.845,-0.641 -2.236,-1.37 -3.416,-3.778 -3.361,-6.223 2.154,-1.16 4.835,-1.203 7.071,0.168 0.081,0.049 0.135,0.121 0.213,0.173 -0.658,-1.89 -1.358,-3.683 -2.077,-5.365 -1.843,0.871 -4.012,1.005 -6.002,0.071 -2.374,-1.116 -3.811,-3.379 -4.026,-5.815 2.006,-1.386 4.657,-1.721 7.023,-0.62 -0.845,-1.625 -1.608,-2.986 -2.206,-4.002 -2.115,-0.244 -4.152,-1.218 -5.636,-2.979 z"
   id="path40"
   inkscape:connector-curvature="0" />
	<path
   style="fill:#8cb400"
   d="m 229.814,208.765 c 2.072,-2.458 2.514,-5.717 1.504,-8.541 -2.954,-0.516 -6.091,0.471 -8.162,2.931 -1.77,2.101 -2.283,4.772 -1.784,7.272 -0.614,1.042 -1.364,2.382 -2.189,3.964 -0.041,-0.225 -0.032,-0.448 -0.096,-0.673 -0.724,-2.546 -2.743,-4.348 -5.135,-4.958 -1.713,1.778 -2.483,4.373 -1.759,6.918 0.622,2.19 2.228,3.777 4.18,4.581 -0.771,1.769 -1.534,3.677 -2.247,5.69 -0.041,-0.118 -0.044,-0.238 -0.092,-0.355 -1,-2.451 -3.206,-4.019 -5.65,-4.362 -1.506,1.955 -1.986,4.619 -0.986,7.07 0.875,2.144 2.69,3.558 4.764,4.121 -1.068,4.213 -1.775,8.683 -1.775,13.183 h 3.071 c 0,-3.922 0.602,-7.85 1.511,-11.608 1.895,0.612 4.012,0.481 5.845,-0.641 2.237,-1.37 3.416,-3.778 3.361,-6.223 -2.154,-1.16 -4.835,-1.203 -7.071,0.168 -0.081,0.049 -0.135,0.121 -0.213,0.173 0.658,-1.89 1.358,-3.683 2.077,-5.365 1.843,0.871 4.012,1.005 6.002,0.071 2.374,-1.116 3.811,-3.379 4.026,-5.815 -2.006,-1.386 -4.657,-1.721 -7.023,-0.62 0.845,-1.625 1.608,-2.986 2.206,-4.002 2.114,-0.244 4.151,-1.218 5.635,-2.979 z"
   id="path42"
   inkscape:connector-curvature="0" />
</g><path
   style="fill:#ffe15a;stroke-width:0.95999998"
   d="m 256.00002,275.49474 -61.9008,-53.05728 v 76.78752 c 0,12.94176 10.49184,23.43168 23.43168,23.43168 v 0 c 5.7888,0 11.37312,-2.14272 15.67584,-6.0144 l 22.79328,-20.51328 z"
   id="path46"
   inkscape:connector-curvature="0" /><path
   style="fill:#ff4b55;stroke-width:0.95999998"
   d="m 223.34754,305.68674 17.9136,-16.12224 v -26.7024 l -32.424,-27.792 v 19.41216 44.74272 c 0,4.79328 3.90048,8.69376 8.69376,8.69376 2.15232,0 4.21728,-0.792 5.81664,-2.232 z"
   id="path48"
   inkscape:connector-curvature="0" /><path
   style="fill:#41479b;stroke-width:0.95999998"
   d="m 232.41858,255.2829 v 30.35232 l -14.73792,13.30752 v -44.6448 -11.64672 l -8.84352,-7.58016 v 19.41216 44.74272 c 0,4.79328 3.90048,8.69376 8.69376,8.69376 2.15136,0 4.21728,-0.792 5.81664,-2.232 l 17.9136,-16.12224 v -26.7024 z"
   id="path50"
   inkscape:connector-curvature="0" /><path
   style="fill:#ffe15a;stroke-width:0.95999998"
   d="m 256.00002,275.49474 61.9008,-53.05728 v 76.78752 c 0,12.94176 -10.49184,23.43168 -23.43168,23.43168 v 0 c -5.7888,0 -11.37312,-2.14272 -15.67584,-6.0144 l -22.79328,-20.51328 z"
   id="path52"
   inkscape:connector-curvature="0" /><path
   style="fill:#ff4b55;stroke-width:0.95999998"
   d="M 288.6525,305.68674 270.7389,289.5645 v -26.7024 l 32.424,-27.792 v 19.41216 44.74272 c 0,4.79328 -3.90048,8.69376 -8.69376,8.69376 -2.15328,0 -4.21728,-0.792 -5.81664,-2.232 z"
   id="path54"
   inkscape:connector-curvature="0" /><path
   style="fill:#41479b;stroke-width:0.95999998"
   d="m 279.58146,255.2829 v 30.35232 l 14.73792,13.30752 v -44.6448 -11.64672 l 8.84352,-7.58016 v 19.41216 44.74272 c 0,4.79328 -3.90048,8.69376 -8.69376,8.69376 -2.15136,0 -4.21728,-0.792 -5.81664,-2.232 l -17.9136,-16.12224 v -26.7024 z"
   id="path56"
   inkscape:connector-curvature="0" /><ellipse
   style="fill:#69c3ff;stroke-width:0.95999998"
   cx="256.00003"
   cy="254.85858"
   rx="29.476799"
   ry="44.217602"
   id="ellipse58" /><path
   style="fill:#009b64;stroke-width:0.95999998"
   d="m 229.47138,266.65218 h 53.05728 l 2.94816,-11.78976 -13.43328,2.23968 c -2.69472,0.44928 -5.45088,-0.31872 -7.52544,-2.09664 l -15.24864,-13.0704 c -1.36224,-1.16832 -3.09888,-1.81056 -4.89312,-1.81056 v 0 c -1.99392,0 -3.9072,0.792 -5.31648,2.20224 l -9.58848,9.58848 z"
   id="path60"
   inkscape:connector-curvature="0" /><path
   style="fill:#f5f5f5;stroke-width:0.95999998"
   d="m 253.20354,252.88098 5.06304,-3.2352 -8.99904,-7.71264 c -1.36224,-1.16832 -3.09888,-1.81056 -4.89312,-1.81056 v 0 c -1.99392,0 -3.9072,0.792 -5.31648,2.20224 l -9.58848,9.58848 v 2.94816 l 14.73792,-2.94816 2.60544,1.30272 c 2.04288,1.02144 4.4688,0.8928 6.39072,-0.33504 z"
   id="path62"
   inkscape:connector-curvature="0" /><polygon
   style="fill:#5aa0e6"
   points="231.436,285.518 246.788,300.871 256,300.871 268.281,297.801 280.564,285.518 283.634,267.096 228.366,267.096 "
   id="polygon64"
   transform="matrix(0.96,0,0,0.96,10.24002,10.24002)" /><path
   style="fill:#ffc88c;stroke-width:0.95999998"
   d="m 256.00002,302.02338 c -17.87904,0 -32.424,-21.15744 -32.424,-47.16288 0,-26.00544 14.54496,-47.16288 32.424,-47.16288 17.87904,0 32.424,21.15744 32.424,47.16288 0,26.00544 -14.54496,47.16288 -32.424,47.16288 z m 0,-88.42848 c -14.62656,0 -26.52864,18.51264 -26.52864,41.26752 0,22.75488 11.90112,41.26752 26.52864,41.26752 14.62752,0 26.52864,-18.51264 26.52864,-41.26752 0,-22.75488 -11.90208,-41.26752 -26.52864,-41.26752 z"
   id="path66"
   inkscape:connector-curvature="0" /><g
   id="g72"
   transform="matrix(0.96,0,0,0.96,10.24002,10.24002)">
	<path
   style="fill:#e1e1e1"
   d="m 234.339,300.595 c -2.574,-3.554 -6.406,-5.865 -10.746,-5.865 -4.34,0 -8.172,2.311 -10.746,5.865 4.39,1.217 7.982,4.781 9.683,9.479 0.685,1.892 1.064,3.968 1.064,6.15 -0.001,-7.596 4.588,-13.922 10.745,-15.629 z"
   id="path68"
   inkscape:connector-curvature="0" />
	<path
   style="fill:#e1e1e1"
   d="m 226.031,310.282 c 0,0 -0.239,4.094 -2.339,6.013 l -0.088,-0.072 c -2.099,-1.919 -2.339,-6.013 -2.339,-6.013 z"
   id="path70"
   inkscape:connector-curvature="0" />
</g><path
   style="fill:#966446;stroke-width:0.95999998"
   d="m 292.86402,309.39234 h -73.728 c -0.80448,0 -1.45536,-0.65184 -1.45536,-1.45536 v -0.0365 c 0,-0.80448 0.65184,-1.45536 1.45536,-1.45536 h 73.728 c 0.80448,0 1.45536,0.65184 1.45536,1.45536 v 0.0365 c 0,0.80352 -0.65088,1.45536 -1.45536,1.45536 z"
   id="path74"
   inkscape:connector-curvature="0" /><path
   style="fill:#be915a;stroke-width:0.95999998"
   d="m 270.8109,313.8141 h -29.62176 c -3.216,0 -5.82336,-2.60736 -5.82336,-5.82336 v -0.14496 c 0,-3.216 2.60736,-5.82336 5.82336,-5.82336 h 29.62176 c 3.216,0 5.82336,2.60736 5.82336,5.82336 v 0.14496 c -9.6e-4,3.216 -2.60832,5.82336 -5.82336,5.82336 z"
   id="path76"
   inkscape:connector-curvature="0" /><path
   style="fill:#b9b9b9;stroke-width:0.95999998"
   d="m 229.47138,306.44514 h -10.31616 c -0.81312,0 -1.4736,0.65952 -1.4736,1.4736 0,0.81408 0.65952,1.4736 1.4736,1.4736 h 10.31616 z"
   id="path78"
   inkscape:connector-curvature="0" /><polygon
   style="fill:#ff4b55"
   points="256,344.277 243.719,340.787 249.859,316.223 256,316.223 "
   id="polygon80"
   transform="matrix(0.96,0,0,0.96,10.24002,10.24002)" /><polygon
   style="fill:#41479b"
   points="246.788,337.717 234.507,334.646 243.719,316.223 252.929,316.223 "
   id="polygon82"
   transform="matrix(0.96,0,0,0.96,10.24002,10.24002)" /><polygon
   style="fill:#ffe15a"
   points="231.436,328.505 240.648,331.575 246.788,316.223 240.648,316.223 "
   id="polygon84"
   transform="matrix(0.96,0,0,0.96,10.24002,10.24002)" /><polygon
   style="fill:#ff4b55"
   points="256,344.277 268.281,340.787 262.141,316.223 256,316.223 "
   id="polygon86"
   transform="matrix(0.96,0,0,0.96,10.24002,10.24002)" /><polygon
   style="fill:#41479b"
   points="265.212,337.717 277.493,334.646 268.281,316.223 259.071,316.223 "
   id="polygon88"
   transform="matrix(0.96,0,0,0.96,10.24002,10.24002)" /><polygon
   style="fill:#ffe15a"
   points="280.564,328.505 271.352,331.575 265.212,316.223 271.352,316.223 "
   id="polygon90"
   transform="matrix(0.96,0,0,0.96,10.24002,10.24002)" /><g
   id="g96"
   transform="matrix(0.96,0,0,0.96,10.24002,10.24002)">
	<polygon
   style="fill:#41479b"
   points="189.314,243.035 189.314,221.036 193.728,221.036 193.728,247.483 "
   id="polygon92" />
	<polygon
   style="fill:#41479b"
   points="318.232,247.483 318.232,221.036 322.646,221.036 322.646,243.035 "
   id="polygon94" />
</g></svg>