<svg id="Icons" height="512" viewBox="0 0 60 60" width="512" xmlns="http://www.w3.org/2000/svg"><path d="m37.94 21.04c-2.36-6.42-5.96-11.44-10.23-14.05a12.675 12.675 0 0 0 -6.71-1.99c-11.05 0-20 15.46-20 34a20 20 0 0 0 32.84 15.33 19.54 19.54 0 0 0 4.48-5.35 19.784 19.784 0 0 0 2.68-9.98 52.2 52.2 0 0 0 -3.06-17.96zm-16.94 31.96a14 14 0 1 1 14-14 14 14 0 0 1 -14 14z" fill="#f5f5f5"/><path d="m37.94 21.04c-2.36-6.42-5.96-11.44-10.23-14.05a12.349 12.349 0 0 0 -8.19-1.89 13.021 13.021 0 0 1 5.19 1.89c4.27 2.61 7.87 7.63 10.23 14.05a52.2 52.2 0 0 1 3.06 17.96 20 20 0 0 1 -18.411 19.929 19.975 19.975 0 0 0 21.411-19.929 52.2 52.2 0 0 0 -3.06-17.96z" fill="#cfd8dc"/><circle cx="21" cy="39" fill="#ff9801" r="14"/><path d="m21 25a14.021 14.021 0 0 0 -1.5.083 14 14 0 0 1 0 27.834 14 14 0 1 0 1.5-27.917z" fill="#f57c00"/><path d="m53 35a14 14 0 0 1 -14 14c-.23 0-.45-.01-.68-.02a19.784 19.784 0 0 0 2.68-9.98 52.2 52.2 0 0 0 -3.06-17.96c.35-.03.7-.04 1.06-.04a14 14 0 0 1 14 14z" fill="#ff9801"/><path d="m39 21c-.36 0-.71.01-1.06.04.014.038.026.078.04.116a13.984 13.984 0 0 1 .45 27.619c-.038.068-.071.138-.11.2.23.01.45.02.68.02a14 14 0 0 0 0-28z" fill="#f57c00"/><path d="m59 35a20.024 20.024 0 0 1 -25.16 19.33 19.54 19.54 0 0 0 4.48-5.35c.23.01.45.02.68.02a14 14 0 0 0 0-28c-.36 0-.71.01-1.06.04-2.36-6.42-5.96-11.44-10.23-14.05 3.22-3.77 7.11-5.99 11.29-5.99 11.05 0 20 15.46 20 34z" fill="#f5f5f5"/><path d="m39 1a11.754 11.754 0 0 0 -1.538.1c10.366 1.3 18.538 16.186 18.538 33.9a19.98 19.98 0 0 1 -18.607 19.93 19.986 19.986 0 0 0 21.607-19.93c0-18.54-8.95-34-20-34z" fill="#cfd8dc"/><path d="m21 24a15 15 0 1 0 15 15 15.017 15.017 0 0 0 -15-15zm0 28a13 13 0 1 1 13-13 13.015 13.015 0 0 1 -13 13z"/><path d="m21 28a11.015 11.015 0 0 0 -10.081 6.6 1 1 0 1 0 1.832.8 9.013 9.013 0 0 1 8.249-5.4 1 1 0 0 0 0-2z"/><path d="m39 0c-4.115 0-8.067 1.993-11.486 5.732a13.518 13.518 0 0 0 -6.514-1.732c-11.579 0-21 15.7-21 35a20.973 20.973 0 0 0 34.069 16.409 20.986 20.986 0 0 0 25.931-20.409c0-19.3-9.421-35-21-35zm-37 39c0-17.888 8.7-33 19-33s19 15.112 19 33a19 19 0 0 1 -38 0zm37.354-16.982a12.986 12.986 0 0 1 .614 25.933 20.837 20.837 0 0 0 2.032-8.951 53.887 53.887 0 0 0 -2.646-16.982zm-.354 31.982a19.247 19.247 0 0 1 -3.069-.255 21.17 21.17 0 0 0 2.926-3.745h.143a15 15 0 0 0 0-30c-.127 0-.248.012-.372.014-2.263-5.814-5.528-10.449-9.39-13.205 2.969-3.138 6.322-4.809 9.762-4.809 10.3 0 19 15.112 19 33a19.021 19.021 0 0 1 -19 19z"/><circle cx="11" cy="39" r="1"/></svg>