<?xml version="1.0" encoding="UTF-8" standalone="no"?>
<svg
   xmlns:dc="http://purl.org/dc/elements/1.1/"
   xmlns:cc="http://creativecommons.org/ns#"
   xmlns:rdf="http://www.w3.org/1999/02/22-rdf-syntax-ns#"
   xmlns:svg="http://www.w3.org/2000/svg"
   xmlns="http://www.w3.org/2000/svg"
   xmlns:sodipodi="http://sodipodi.sourceforge.net/DTD/sodipodi-0.dtd"
   xmlns:inkscape="http://www.inkscape.org/namespaces/inkscape"
   inkscape:version="1.0 (4035a4fb49, 2020-05-01)"
   sodipodi:docname="election_vote.svg"
   xml:space="preserve"
   style="enable-background:new 0 0 512.001 512.001;"
   viewBox="0 0 512.001 512.001"
   y="0px"
   x="0px"
   id="Capa_1"
   version="1.1"><metadata
   id="metadata77"><rdf:RDF><cc:Work
       rdf:about=""><dc:format>image/svg+xml</dc:format><dc:type
         rdf:resource="http://purl.org/dc/dcmitype/StillImage" /></cc:Work></rdf:RDF></metadata><defs
   id="defs75" /><sodipodi:namedview
   inkscape:current-layer="Capa_1"
   inkscape:window-maximized="1"
   inkscape:window-y="-8"
   inkscape:window-x="-8"
   inkscape:cy="157.49965"
   inkscape:cx="218.71775"
   inkscape:zoom="1.1987647"
   showgrid="false"
   id="namedview73"
   inkscape:window-height="1017"
   inkscape:window-width="1920"
   inkscape:pageshadow="2"
   inkscape:pageopacity="0"
   guidetolerance="10"
   gridtolerance="10"
   objecttolerance="10"
   borderopacity="1"
   bordercolor="#666666"
   pagecolor="#ffffff" />
<path
   id="path2"
   d="M396.168,161.083c0.024-0.05,0.054-0.094,0.08-0.143l-15.696-22.579  c-2.715-3.907-7.171-6.235-11.928-6.235c-27.194,0-239.872,0-265.846,0c-4.902,0-9.496,2.401-12.293,6.427L30.46,224.9h0.009  c1.676-1.779,4.046-2.896,6.683-2.896c13.729,0,391.594,0,398.513,0L396.168,161.083z"
   style="fill:#F7CF9C;" />
<g
   id="g8">
	<path
   id="path4"
   d="M123.497,138.552c2.799-4.026,7.391-6.426,12.293-6.426h-33.014c-4.902,0-9.496,2.401-12.293,6.426   l-60.024,86.347h0.009c1.676-1.779,4.046-2.896,6.683-2.896h28.334L123.497,138.552z"
   style="fill:#EAB883;" />
	<path
   id="path6"
   d="M434.018,221.004c-97.184,0-309.062,0-318.296,0h-78.57c-5.074,0-9.189,4.114-9.189,9.189   c0,1.868,0,247.58,0,250.057c0,13.394,10.858,24.252,24.252,24.252h2.348c15.785,0,348.65,0,364.392,0   c13.394,0,24.252-10.858,24.252-24.252c0-10.065,0-234.243,0-250.057C443.206,225.118,439.092,221.004,434.018,221.004z"
   style="fill:#EAB883;" />
</g>
<path
   id="path10"
   d="M57.959,480.25c0-10.065,0-234.243,0-250.057c0-5.075,4.114-9.189,9.189-9.189H37.151  c-5.074,0-9.189,4.114-9.189,9.189c0,1.868,0,247.58,0,250.057c0,13.394,10.858,24.252,24.252,24.252h2.348h27.649  C68.816,504.501,57.959,493.644,57.959,480.25z"
   style="fill:#E0A773;" />
<path
   id="path12"
   d="M199.528,174.488l-42.524-24.551c-5.082-2.935-6.823-9.432-3.89-14.514L223.9,12.819  c2.935-5.082,9.433-6.823,14.514-3.89l92.231,53.249c5.081,2.934,6.823,9.432,3.889,14.514l-56.462,97.794h-78.544V174.488z"
   style="fill:#f2f2f2" />

<path
   id="path16"
   d="M377.793,329.077L377.793,329.077c-14.613,0-26.46-11.846-26.46-26.46l0,0H115.569l0,0  c0,14.613-11.847,26.46-26.46,26.46l0,0c-2.616,0-4.736,2.121-4.736,4.736v65.475c0,4.49,5.119,4.908,4.736,4.736  c14.613,0,26.46,11.846,26.46,26.46c14.278,0,222.34,0,235.763,0l0,0c0-14.613,11.847-26.46,26.46-26.46l0,0  c3.614,0,6.543-2.93,6.543-6.543V335.62C384.336,332.007,381.406,329.077,377.793,329.077z"
   style="fill:#70B5E8;" />
<path
   id="path18"
   d="M119.106,391.026L119.106,391.026c-2.616,0-4.736-2.121-4.736-4.736v-39.478  c0-2.616,2.121-4.736,4.736-4.736l0,0c17.596-4.082,28.344-26.83,26.46-39.458h-29.996c0,14.613-11.847,26.46-26.46,26.46l0,0  c-2.616,0-4.736,2.121-4.736,4.736v65.475c0,2.616,2.121,4.736,4.736,4.736l0,0c14.613,0,26.46,11.846,26.46,26.46h29.996  C147.45,417.857,136.702,395.11,119.106,391.026z"
   style="fill:#52A5D8;" />
<path
   id="path20"
   d="M481.536,211.268l-5.194-5.064c-7.525-7.333-3.105-16.278-3.006-19.973  c0.786-4.582-2.349-8.919-6.968-9.591c-3.525-1.04-13.505,0.333-18.131-9.04l-3.217-6.517c-2.062-4.177-7.151-5.831-11.275-3.664  c-3.463,1.23-10.711,8.198-19.962,3.334l-6.341-3.334c-4.066-2.137-9.188-0.565-11.274,3.664  c-2.101,3.069-3.879,13.018-14.236,14.523l-7.11,1.033c-4.611,0.67-7.756,4.999-6.968,9.591c0.097,3.641,4.476,12.681-3.006,19.973  l-5.194,5.064c-3.337,3.251-3.336,8.604,0,11.855l5.194,5.063c7.524,7.334,3.105,16.279,3.006,19.975  c-0.788,4.592,2.358,8.921,6.968,9.591c3.518,1.038,13.504-0.333,18.131,9.04c2.097,3.051,3.244,11.136,10.651,11.136  c3.199,0,4.672-1.623,10.182-4.289c9.313-4.897,16.397,2.067,19.962,3.334c4.117,2.164,9.209,0.522,11.275-3.663l3.217-6.517  c4.651-9.427,14.534-7.979,18.131-9.04c4.61-0.67,7.756-4.998,6.968-9.591l-1.204-7.019c-1.779-10.371,7.086-15.008,9.404-18.018  C484.871,219.871,484.871,214.518,481.536,211.268z"
   style="fill:#92B620;" />
<path
   id="path22"
   d="M393.275,240.061c-15.988-27.692-7.674-62.727,18.304-80.468l-4.135-2.174  c-4.066-2.137-9.188-0.565-11.275,3.664c-2.101,3.069-3.879,13.018-14.236,14.523l-7.11,1.034c-4.611,0.67-7.756,4.999-6.968,9.591  c0.097,3.641,4.476,12.681-3.006,19.973l-5.194,5.064c-3.337,3.251-3.336,8.603,0,11.855l5.194,5.063  c7.524,7.334,3.105,16.279,3.006,19.975c-0.788,4.592,2.358,8.921,6.968,9.591c3.518,1.038,13.504-0.333,18.131,9.04  c2.097,3.051,3.244,11.136,10.651,11.136c3.199,0,4.673-1.623,10.182-4.289c9.313-4.896,16.397,2.067,19.962,3.334  c4.117,2.164,9.209,0.522,11.275-3.663l1.426-2.889C425.276,270.599,404.616,259.706,393.275,240.061z"
   style="fill:#83A00B;" />




<path
   id="path32"
   d="M115.569,281.273h235.763c4.142,0,7.499-3.357,7.499-7.499s-3.357-7.499-7.499-7.499H115.569  c-4.142,0-7.499,3.357-7.499,7.499C108.07,277.917,111.427,281.273,115.569,281.273z" />
<path
   id="path34"
   d="M351.332,451.919H115.569c-4.142,0-7.499,3.358-7.499,7.499c0,4.142,3.357,7.499,7.499,7.499h235.763  c4.142,0,7.499-3.357,7.499-7.499C358.831,455.276,355.474,451.919,351.332,451.919z" />
<path
   id="path36"
   d="M444.534,200.171c-3.124-2.719-7.86-2.392-10.58,0.733l-19.908,22.875l-6.395-7.946c-2.599-3.227-7.319-3.737-10.545-1.14  c-3.227,2.598-3.736,7.318-1.14,10.545l12.014,14.924c2.928,3.636,8.433,3.742,11.499,0.221l25.789-29.632  C447.987,207.626,447.658,202.89,444.534,200.171z" />
<path
   sodipodi:nodetypes="sssssssssccccccccssssssssssssss"
   id="path38"
   d="m 377.793,411.524 c 7.743,0 14.042,-6.299 14.042,-14.042 V 335.62 c 0,-7.743 -6.299,-14.042 -14.042,-14.042 -10.456,0 -18.962,-8.506 -18.962,-18.961 0,-4.142 -3.357,-7.499 -7.499,-7.499 H 178.084 c -4.142,0 -7.499,3.357 -7.499,7.499 0,4.142 3.357,7.499 7.499,7.499 h 166.583 c 3.356,14.829 16.444,26.01 32.17,26.446 v 59.977 c -15.726,0.436 -28.813,11.618 -32.17,26.447 H 122.236 c -3.227,-14.258 -15.45,-25.143 -30.363,-26.35 v -60.172 c 14.913,-1.207 27.138,-12.091 30.363,-26.349 h 54.852 c 4.142,0 7.499,-3.357 7.499,-7.499 0,-4.142 -3.357,-7.499 -7.499,-7.499 H 115.57 c -4.142,0 -7.499,3.357 -7.499,7.499 0,10.455 -8.506,18.961 -18.962,18.961 -6.747,0 -12.235,5.488 -12.235,12.235 v 65.474 c 0,6.747 5.488,12.235 12.235,12.235 10.456,0 18.962,8.506 18.962,18.962 0,4.142 3.357,7.499 7.499,7.499 h 235.762 c 4.142,0 7.499,-3.357 7.499,-7.499 0,-10.453 8.506,-18.959 18.962,-18.959 z" />
<path
   sodipodi:nodetypes="cccccccscccccccccccscccccscccscssssssssscccsccsccssscccccccccccscccssscsssccscccccccccccccccccccccccccsc"
   id="path40"
   d="m 481.576,200.833 c -6.142,-5.987 4.042,-14.714 -3.633,-25.277 -7.648,-10.528 -19.194,-3.599 -22.981,-11.275 -2.469,-3.881 -3.677,-11.678 -12.485,-14.541 -12.373,-4.02 -17.675,8.336 -25.203,4.375 -2.938,-0.637 -9.529,-7.913 -19.444,-4.039 L 386.709,134.08 c -4.113,-5.92 -10.876,-9.455 -18.086,-9.455 H 315.52 l 25.51,-44.183 c 4.996,-8.654 2.02,-19.761 -6.635,-24.757 L 242.164,2.435 c -8.692,-5.018 -19.76,-2.025 -24.758,6.634 l -29.679,51.405 c -2.071,3.587 3.61726,4.019655 7.20426,6.090655 3.585,2.069 3.71374,4.995345 5.78474,1.408345 l 29.679,-51.405 c 0.563,-0.976 1.432,-1.331 1.898,-1.457 0.467,-0.123 1.396,-0.251 2.372,0.313 l 92.23,53.25 c 1.493,0.862 2.007,2.778 1.146,4.27 -8.584,14.867 -46.972,81.358 -54.297,94.044 h -72.207 l -40.783,-23.546 c -1.12,-0.647 -1.689,-1.886 -1.54,-3.095 0.111,-0.899 -2.555,3.934 41.502,-72.374 2.071,-3.587 0.842,-8.173 -2.745,-10.244 -3.59,-2.071 -8.174,-0.843 -10.244,2.745 l -37.037,64.151 h -47.912 c -7.354,0 -14.252,3.607 -18.451,9.645 -64.566,93.809 -63.863,88.759 -63.863,96.922 V 480.25 c 0,17.508 14.243,31.751 31.751,31.751 h 364.392 c 18.803,0 34.099,-15.296 34.099,-34.099 0,-4.142 -3.357,-7.499 -7.499,-7.499 -4.142,0 -7.499,3.357 -7.499,7.499 0,10.532 -8.568,19.101 -19.101,19.101 H 52.214 c -9.237,0 -16.753,-7.516 -16.753,-16.753 0.173,-256.332 -0.983,-250.739 1.685,-250.747 0.158,0 313.294,-10e-4 315.019,-10e-4 l 4.441,4.329 c 6.426,6.264 -4.082,15.167 3.746,25.941 7.823,10.769 19.608,3.547 23.577,11.588 1.826,2.475 4.551,15.597 17.644,15.597 5.103,0 7.851,-2.099 13.929,-5.259 6.813,-3.583 10.935,4.815 20.206,5.255 V 477.92 c 0,4.142 3.357,7.499 7.499,7.499 4.142,0 7.499,-3.357 7.499,-7.499 V 278.4 c 1.105,-1.664 1.098,-2.003 4.256,-8.293 2.514,-5.094 8.17,-3.817 12.979,-5.017 8.397,-1.485 14.278,-9.495 12.785,-18.198 l -1.204,-7.021 c -1.449,-8.455 12.014,-9.623 12.014,-22.678 -0.002,-9.229 -7.151,-12.954 -9.96,-16.36 z m -119.86,-4.951 c -0.075,7.171 -10.049,8.207 -11.859,18.623 H 46.818 l 49.823,-71.672 c 1.396,-2.01 3.69,-3.209 6.136,-3.209 h 41.451 c -0.256,4.22 1.002,8.633 3.792,12.232 2.978,3.837 4.347,4.021 23.521,15.131 h -10.955 c -4.142,0 -7.499,3.357 -7.499,7.499 0,4.142 3.357,7.499 7.499,7.499 h 38.941 120.119 c 4.142,0 7.499,-3.357 7.499,-7.499 0,-4.142 -3.357,-7.499 -7.499,-7.499 h -28.584 l 15.799,-27.364 h 61.763 c 2.301,0 4.457,1.128 5.77,3.018 l 13.17,18.945 c -0.971,2.12 -2.093,4.381 -3.973,5.594 -4.48,2.892 -13.933,-0.451 -20.346,8.377 -5.725,7.884 -1.474,15.108 -1.529,20.325 z m 103.025,46.524 c 1.182,7.354 1.406,7.146 1.068,7.611 -1.244,1.713 -17.024,-1.287 -24.297,13.453 l -3.217,6.516 c -0.414,0.835 -1.251,0.398 -3.609,-0.965 -12.178,-7.048 -18.537,-5.377 -28.704,0.235 -3.9,2.151 -2.092,1.907 -6.306,-5.787 -7.232,-14.654 -22.996,-11.663 -24.297,-13.453 -1.207,-1.662 6.453,-15.748 -5.298,-27.203 -5.717,-5.604 -5.133,-4.945 -5.305,-5.222 -0.48,-0.778 0.153,-0.92 5.306,-6.018 12.516,-12.2 2.813,-27.071 5.817,-27.514 l 7.109,-1.034 c 17.449,-2.535 18.25,-20.371 20.943,-18.97 l 6.341,3.334 c 14.496,7.619 25.589,-4.03 27.546,-3.388 0.551,0.178 0.252,0.159 3.673,6.915 7.241,14.673 22.971,11.638 24.297,13.452 1.22,1.68 -6.46,15.744 5.298,27.202 l 5.193,5.063 0.001,10e-4 c 2.211,2.159 -14.555,8.305 -11.559,25.772 z" />
<g
   id="g42">
</g>
<g
   id="g44">
</g>
<g
   id="g46">
</g>
<g
   id="g48">
</g>
<g
   id="g50">
</g>
<g
   id="g52">
</g>
<g
   id="g54">
</g>
<g
   id="g56">
</g>
<g
   id="g58">
</g>
<g
   id="g60">
</g>
<g
   id="g62">
</g>
<g
   id="g64">
</g>
<g
   id="g66">
</g>
<g
   id="g68">
</g>
<g
   id="g70">
</g>
<rect
   transform="rotate(120)"
   y="-247.13449"
   x="-82.744499"
   height="21.60269"
   width="21.171473"
   id="rect79"
   style="fill:none;fill-rule:evenodd;stroke:#000000;stroke-width:7;stroke-linecap:round;stroke-linejoin:round;stroke-miterlimit:4;stroke-dasharray:none;stroke-opacity:1" /><rect
   style="fill:none;fill-rule:evenodd;stroke:#000000;stroke-width:7;stroke-linecap:round;stroke-linejoin:round;stroke-miterlimit:4;stroke-dasharray:none;stroke-opacity:1"
   id="rect79-3"
   width="21.171473"
   height="21.60269"
   x="-44.95554"
   y="-247.18031"
   transform="rotate(120)" /><rect
   style="fill:none;fill-rule:evenodd;stroke:#000000;stroke-width:7;stroke-linecap:round;stroke-linejoin:round;stroke-miterlimit:4;stroke-dasharray:none;stroke-opacity:1"
   id="rect79-9"
   width="21.171473"
   height="21.60269"
   x="-9.0494595"
   y="-246.71938"
   transform="rotate(120)" /><path
   style="stroke-width:0.45795;fill:#ff0000"
   d="m 258.89407,53.526551 c -0.61639,-1.793666 -2.56954,-2.748403 -4.36383,-2.13185 l -13.13324,4.513706 -0.7168,-4.61565 c -0.29185,-1.874922 -2.04701,-3.157949 -3.92108,-2.866661 -1.87469,0.291454 -3.15732,2.046841 -2.86666,3.921077 l 1.34749,8.669709 c 0.32868,2.112463 2.48767,3.415012 4.50985,2.720631 l 17.01281,-5.846908 c 1.7939,-0.616778 2.74784,-2.570393 2.13146,-4.364054 z"
   id="path36-4" /></svg>
