<?xml version="1.0" encoding="UTF-8" standalone="no"?>
<svg
   xmlns:dc="http://purl.org/dc/elements/1.1/"
   xmlns:cc="http://creativecommons.org/ns#"
   xmlns:rdf="http://www.w3.org/1999/02/22-rdf-syntax-ns#"
   xmlns:svg="http://www.w3.org/2000/svg"
   xmlns="http://www.w3.org/2000/svg"
   xmlns:sodipodi="http://sodipodi.sourceforge.net/DTD/sodipodi-0.dtd"
   xmlns:inkscape="http://www.inkscape.org/namespaces/inkscape"
   inkscape:version="1.0 (4035a4fb49, 2020-05-01)"
   sodipodi:docname="election_nomination.svg"
   version="1.1"
   width="512"
   viewBox="0 0 512.001 512.001"
   height="512"
   enable-background="new 0 0 512.001 512.001"
   id="Capa_1">
  <metadata
     id="metadata49">
    <rdf:RDF>
      <cc:Work
         rdf:about="">
        <dc:format>image/svg+xml</dc:format>
        <dc:type
           rdf:resource="http://purl.org/dc/dcmitype/StillImage" />
      </cc:Work>
    </rdf:RDF>
  </metadata>
  <defs
     id="defs47" />
  <sodipodi:namedview
     inkscape:current-layer="g38"
     inkscape:window-maximized="1"
     inkscape:window-y="-8"
     inkscape:window-x="-8"
     inkscape:cy="256"
     inkscape:cx="256"
     inkscape:zoom="1.6953125"
     showgrid="false"
     id="namedview45"
     inkscape:window-height="1017"
     inkscape:window-width="1920"
     inkscape:pageshadow="2"
     inkscape:pageopacity="0"
     guidetolerance="10"
     gridtolerance="10"
     objecttolerance="10"
     borderopacity="1"
     bordercolor="#666666"
     pagecolor="#ffffff" />
  <g
     id="g42">
    <g
       id="g10">
      <g
         id="g6">
        <path
           id="path2"
           fill="#fdb0a0"
           d="m332.851 215.636 1.06 288.865h93.057l-.436-256.256c12.475-17.669 19.069-38.818 18.846-60.446l-1.312-126.881c0-9.135-7.103-16.915-16.233-17.24-9.584-.341-17.461 7.328-17.461 16.836v-18.107c0-9.304-7.542-16.847-16.847-16.847-9.304 0-16.847 7.542-16.847 16.847v-8.638c0-9.135-7.103-16.915-16.232-17.24-9.584-.341-17.461 7.328-17.461 16.836v-8.614c0-9.135-7.103-16.915-16.232-17.239-9.584-.341-17.461 7.328-17.461 16.836v139.485z" />
        <path
           id="path4"
           fill="#f9a08f"
           d="m426.529 248.242.437 256.258h-23.986l-.437-256.258c12.266-17.375 18.852-38.126 18.852-59.38 0-.355-.008-.71-.008-1.065l-1.312-126.882c0-4.68-1.865-9.005-4.911-12.15 3.178-3.277 7.693-5.258 12.67-5.085 9.129.322 16.236 8.106 16.236 17.235l1.312 126.882c0 .355.008.71.008 1.065-.001 21.254-6.587 42.005-18.861 59.38z" />
      </g>
      <path
         id="path8"
         fill="#ffcec0"
         d="m317.584 148.544.035-56.662c.015-12.267-10.894-21.695-23.062-19.857-9.891 1.494-17.056 10.258-17.056 20.261v57.784 26.514c0 39.578 32.084 71.662 71.662 71.662h22.302v-28.208c0-31.542-19.944-59.636-49.721-70.039z" />
    </g>
    <g
       id="g20">
      <g
         id="g16">
        <path
           id="path12"
           fill="#ffcec0"
           d="m121.967 265.636 1.06 238.865h93.057l-.436-206.256c12.475-17.669 19.069-38.818 18.846-60.446l-1.312-126.881c0-9.135-7.103-16.915-16.233-17.24-9.584-.341-17.461 7.328-17.461 16.836v-18.107c0-9.304-7.542-16.847-16.847-16.847-9.304 0-16.847 7.542-16.847 16.847v-8.638c0-9.135-7.103-16.915-16.232-17.24-9.584-.341-17.461 7.328-17.461 16.836v-8.614c0-9.135-7.103-16.915-16.232-17.239-9.584-.341-17.461 7.328-17.461 16.836v139.485z" />
        <path
           id="path14"
           fill="#fdb0a0"
           d="m215.645 298.242.437 206.258h-23.986l-.437-206.258c12.266-17.375 18.852-38.126 18.852-59.38 0-.355-.008-.71-.008-1.065l-1.312-126.882c0-4.68-1.865-9.005-4.911-12.15 3.178-3.277 7.693-5.258 12.67-5.085 9.129.322 16.236 8.106 16.236 17.235l1.312 126.882c0 .355.008.71.008 1.065-.001 21.254-6.587 42.005-18.861 59.38z" />
      </g>
      <path
         id="path18"
         fill="#ffdfd0"
         d="m106.7 198.544.035-56.662c.015-12.267-10.894-21.695-23.062-19.857-9.891 1.494-17.056 10.258-17.056 20.261v57.784 26.514c0 39.578 32.084 71.662 71.662 71.662h22.302v-28.208c0-31.542-19.944-59.636-49.721-70.039z" />
    </g>
    <g
       id="g40">
      <g
         id="g26">
        <path
           id="path22"
           fill="#c86f5c"
           d="m245.205 375.636 1.06 128.865h93.057l-.436-96.256c12.475-17.669 19.069-38.818 18.846-60.446l-1.312-126.881c0-9.135-7.103-16.915-16.233-17.24-9.584-.341-17.461 7.328-17.461 16.836v-18.107c0-9.304-7.542-16.847-16.847-16.847-9.304 0-16.847 7.542-16.847 16.847v-8.638c0-9.135-7.103-16.915-16.232-17.24-9.584-.341-17.461 7.328-17.461 16.836v-8.614c0-9.135-7.103-16.915-16.232-17.239-9.584-.341-17.461 7.328-17.461 16.836v139.485z" />
        <path
           id="path24"
           fill="#ba5d4f"
           d="m338.883 408.242.437 96.258h-23.986l-.437-96.258c12.266-17.375 18.852-38.126 18.852-59.38 0-.355-.008-.71-.008-1.065l-1.312-126.882c0-4.68-1.865-9.005-4.911-12.15 3.178-3.277 7.693-5.258 12.67-5.085 9.129.322 16.236 8.105 16.236 17.235l1.312 126.882c0 .355.008.71.008 1.065-.001 21.254-6.587 42.005-18.861 59.38z" />
      </g>
      <path
         id="path28"
         fill="#d5887a"
         d="m229.938 308.544.035-56.662c.015-12.267-10.894-21.695-23.062-19.857-9.891 1.494-17.056 10.258-17.056 20.261v57.784 26.514c0 39.578 32.084 71.662 71.662 71.662h22.302v-28.208c0-31.542-19.944-59.636-49.721-70.039z" />
      <g
         id="g38">
        <path
           sodipodi:nodetypes="ccccsccccssssssccsssssccssssssssssscccccccssccc"
           id="path30"
           d="M 452.877,187.721 451.565,60.918 c 0,-13.403 -10.308,-24.268 -23.466,-24.735 -3.704,-0.132 -7.307,0.557 -10.596,1.989 -2.01,-11.414 -11.997,-20.112 -23.978,-20.112 -4.565,0 -8.842,1.263 -12.498,3.458 C 377.001,14.285 369.49,9.345 360.712,9.034 355.915,8.858 351.31,10.063 347.316,12.468 343.285,5.253 335.784,0.327 327.019,0.016 c -6.671,-0.24 -12.99,2.181 -17.787,6.811 -4.798,4.631 -7.441,10.853 -7.441,17.521 v 41.190051 c 0,4.142 3.358,7.5 7.5,7.5 4.142,0 7.5,-3.358 7.5,-7.5 V 24.348 c 0,-2.56 1.015,-4.949 2.857,-6.727 1.841,-1.776 4.278,-2.696 6.837,-2.614 4.962,0.177 8.999,4.548 8.999,9.744 v 103.292 c 0,4.142 3.358,7.5 7.5,7.5 4.142,0 7.5,-3.358 7.5,-7.5 V 33.365 c 0,-2.56 1.015,-4.948 2.857,-6.727 1.841,-1.777 4.274,-2.702 6.837,-2.614 4.962,0.176 8.999,4.547 8.999,9.744 v 94.274 c 0,4.142 3.358,7.5 7.5,7.5 4.142,0 7.5,-3.358 7.5,-7.5 V 42.406 c 0,-5.154 4.193,-9.347 9.347,-9.347 5.153,0 9.346,4.193 9.346,9.347 v 85.636 c 0,4.142 3.358,7.5 7.5,7.5 4.142,0 7.5,-3.358 7.5,-7.5 V 60.514 c 0,-2.56 1.015,-4.949 2.857,-6.727 1.841,-1.776 4.276,-2.695 6.837,-2.614 4.962,0.176 8.999,4.548 8.999,9.822 l 1.312,126.881 c 0.208,20.179 -5.833,39.558 -17.473,56.042 -0.896,1.27 -1.376,2.785 -1.374,4.339 l 0.436,256.256 c 0.007,4.138 3.363,7.487 7.5,7.487 h 0.013 c 4.142,-0.007 7.494,-3.371 7.487,-7.513 l -0.432,-253.913 c 12.571,-18.634 19.078,-40.312 18.845,-62.853 z" />
        <path
           sodipodi:nodetypes="ccssccccscccssssssssccccccccccccccsssssccsssssssssssccccscccsssccccsccscccccccsccccscsccccccscccccsccssccscccssssssscccccccccccccccsssssccssssssssssscccccsccscc"
           id="path32"
           d="m 208.422,395.245 0.162,109.271 c 0.009,4.137 3.364,7.484 7.5,7.484 h 0.016 c 4.142,-0.009 7.493,-3.374 7.484,-7.516 l -0.204,-98.559 c 4.617,2.549 9.508,4.66 14.627,6.255 l 0.76,92.381 c 0.034,4.121 3.385,7.438 7.498,7.438 h 0.063 c 4.142,-0.034 7.472,-3.419 7.438,-7.561 l -0.733,-89.155 c 2.789,0.299 5.618,0.461 8.485,0.461 h 22.302 c 4.142,0 7.5,-3.358 7.5,-7.5 0,-4.142 -3.358,-7.5 -7.5,-7.5 h -22.302 c -35.379,0 -64.162,-28.783 -64.162,-64.162 v -84.297 c 0,-6.404 4.589,-11.926 10.676,-12.845 3.63,-0.548 7.303,0.509 10.079,2.9 2.777,2.393 4.368,5.867 4.363,9.536 l -0.035,56.662 c -0.002,3.19 2.014,6.032 5.026,7.084 l 4.16,1.454 c 17.788,6.214 32.181,19.744 39.489,37.12 1.606,3.818 6.002,5.612 9.821,4.006 3.818,-1.606 5.612,-6.003 4.006,-9.821 -8.832,-20.997 -26.113,-37.41 -47.499,-45.156 l 0.032,-51.335 c 0.009,-7.483 -3.014,-14.6 -8.343,-19.782 l 0.016,-47.762 c 0,-2.56 1.015,-4.949 2.857,-6.727 1.841,-1.776 4.271,-2.696 6.837,-2.614 4.962,0.177 8.999,4.548 8.999,9.744 v 103.292 c 0,4.142 3.358,7.5 7.5,7.5 4.142,0 7.5,-3.358 7.5,-7.5 v -94.678 c 0,-2.56 1.015,-4.949 2.857,-6.727 1.84,-1.777 4.277,-2.702 6.837,-2.614 4.962,0.176 8.999,4.547 8.999,9.744 v 94.274 c 0,4.142 3.358,7.5 7.5,7.5 4.142,0 7.5,-3.358 7.5,-7.5 v -85.635 c 0,-5.154 4.193,-9.347 9.347,-9.347 5.154,0 9.347,4.193 9.347,9.347 v 85.636 c 0,4.142 3.358,7.5 7.5,7.5 4.142,0 7.5,-3.358 7.5,-7.5 v -67.528 c 0,-2.56 1.015,-4.949 2.857,-6.727 1.841,-1.776 4.271,-2.698 6.837,-2.614 4.962,0.176 8.999,4.548 9,9.822 l 0.588,92.85107 c 0.042,4.116 3.392,7.422 7.498,7.422 h 0.079 c 4.142,-0.043 7.465,-3.435 7.422,-7.577 L 364.281,255.744 h 7.184 c 4.142,0 7.5,-3.358 7.5,-7.5 0,-4.142 -3.358,-7.5 -7.5,-7.5 h -7.339 l -0.205,-19.827 c 0,-13.403 -10.308,-24.268 -23.466,-24.735 -3.704,-0.131 -7.306,0.557 -10.596,1.989 -2.01,-11.414 -11.997,-20.112 -23.978,-20.112 -4.566,0 -8.842,1.263 -12.498,3.458 -2.015,-3.619 -4.901,-6.663 -8.381,-8.842 V 92.286 c 0,-6.404 4.589,-11.926 10.676,-12.845 3.629,-0.55 7.302,0.509 10.079,2.9 2.777,2.393 4.367,5.866 4.363,9.536 l -0.035,56.662 c -0.002,3.19 2.014,6.032 5.026,7.084 l 4.16,1.454 c 17.788,6.215 32.181,19.745 39.488,37.12 1.207,2.869 3.988,4.594 6.917,4.594 0.969,0 1.955,-0.189 2.904,-0.588 3.818,-1.606 5.611,-6.003 4.006,-9.821 -8.832,-20.999 -26.11,-37.41 -47.498,-45.156 l 0.031,-51.335 c 0.01,-8.042 -3.479,-15.666 -9.573,-20.915 -6.094,-5.249 -14.152,-7.567 -22.109,-6.368 -13.36,2.018 -23.436,13.916 -23.436,27.677 v 76.839 c -3.682,0.324 -7.197,1.456 -10.33,3.343 -3.747,-6.706 -10.492,-11.428 -18.461,-12.312 l -0.528,-49.238 c 0,-13.403 -10.308,-24.268 -23.466,-24.735 -3.706,-0.131 -7.307,0.557 -10.596,1.989 -2.01,-11.414 -11.997,-20.112 -23.978,-20.112 -4.565,0 -8.842,1.264 -12.498,3.459 -4.026,-7.234 -11.536,-12.173 -20.315,-12.485 -4.793,-0.176 -9.402,1.029 -13.396,3.434 -4.031,-7.215 -11.532,-12.141 -20.297,-12.452 -6.668,-0.243 -12.99,2.182 -17.787,6.811 -4.798,4.631 -7.441,10.853 -7.441,17.521 v 40.287 c -2.738,-0.425 -5.552,-0.448 -8.356,-0.024 -13.36,2.018 -23.435,13.916 -23.435,27.677 v 84.297 c 0,35.415 23.378,65.47 55.512,75.551 l 0.267,94.13607 c 0.019,4.131 3.373,7.467 7.5,7.467 h 0.034 c 4.142,-0.019 7.485,-3.391 7.467,-7.533 L 129.644,305.266 c 2.838,0.309 5.717,0.48 8.636,0.48 h 22.301 c 4.142,0 7.5,-3.358 7.5,-7.5 0,-4.142 -3.358,-7.5 -7.5,-7.5 H 138.28 c -35.379,0 -64.162,-28.783 -64.162,-64.162 v -84.297 c 0,-6.404 4.589,-11.926 10.675,-12.845 3.629,-0.55 7.302,0.509 10.079,2.9 2.777,2.393 4.368,5.867 4.363,9.536 L 99.2,198.54 c -0.002,3.19 2.014,6.032 5.026,7.084 l 4.16,1.454 c 17.788,6.214 32.181,19.744 39.489,37.12 1.606,3.818 6.002,5.611 9.821,4.006 3.818,-1.606 5.612,-6.003 4.006,-9.821 -8.832,-20.997 -26.113,-37.41 -47.499,-45.156 l 0.032,-51.335 c 0.009,-7.482 -3.014,-14.599 -8.342,-19.782 l 0.016,-47.762 c 0,-2.56 1.015,-4.949 2.857,-6.727 1.841,-1.776 4.275,-2.7 6.837,-2.614 4.962,0.177 8.999,4.548 8.999,9.744 v 103.292 c 0,4.142 3.358,7.5 7.5,7.5 4.142,0 7.5,-3.358 7.5,-7.5 V 83.365 c 0,-2.56 1.015,-4.949 2.857,-6.727 1.841,-1.776 4.271,-2.695 6.837,-2.614 4.962,0.176 8.999,4.547 8.999,9.744 v 94.274 c 0,4.142 3.358,7.5 7.5,7.5 4.142,0 7.5,-3.358 7.5,-7.5 V 92.406 c 0,-5.154 4.193,-9.347 9.347,-9.347 5.154,0 9.347,4.193 9.347,9.347 v 85.636 c 0,4.142 3.358,7.5 7.5,7.5 4.142,0 7.5,-3.358 7.5,-7.5 v -67.528 c 0,-2.56 1.015,-4.949 2.857,-6.727 1.841,-1.776 4.273,-2.699 6.837,-2.614 4.962,0.176 8.999,4.548 8.999,9.825 l 0.56,52.301 c -1.665,0.974 -3.229,2.151 -4.656,3.527 -4.798,4.631 -7.441,10.853 -7.441,17.521 v 40.287 c -2.738,-0.425 -5.552,-0.448 -8.355,-0.025 -13.36,2.018 -23.436,13.916 -23.436,27.677 v 84.297 c 10e-4,23.238 10.068,44.168 26.068,58.662 z" />
        <path
           id="path34"
           d="m122.556 390.664c-.011 0-.022 0-.034 0-4.142.019-7.485 3.391-7.467 7.533l.472 106.336c.019 4.131 3.373 7.467 7.5 7.467h.034c4.142-.019 7.485-3.391 7.467-7.533l-.472-106.336c-.019-4.131-3.373-7.467-7.5-7.467z" />
        <path
           id="path36"
           d="m364.879 313.618c-.042-4.142-3.39-7.455-7.577-7.422-4.142.043-7.465 3.435-7.422 7.577l.353 34.103c.208 20.179-5.833 39.558-17.473 56.042-.9 1.275-1.38 2.799-1.374 4.36l.436 96.256c.019 4.13 3.373 7.466 7.499 7.466h.035c4.142-.019 7.484-3.392 7.466-7.534l-.425-93.901c12.563-18.632 19.067-40.308 18.834-62.844z" />
      </g>
    </g>
  </g>
</svg>
