<?xml version="1.0" encoding="UTF-8" standalone="no"?>
<!-- Generator: Adobe Illustrator 16.0.0, SVG Export Plug-In . SVG Version: 6.00 Build 0)  -->

<svg
   xmlns:dc="http://purl.org/dc/elements/1.1/"
   xmlns:cc="http://creativecommons.org/ns#"
   xmlns:rdf="http://www.w3.org/1999/02/22-rdf-syntax-ns#"
   xmlns:svg="http://www.w3.org/2000/svg"
   xmlns="http://www.w3.org/2000/svg"
   xmlns:sodipodi="http://sodipodi.sourceforge.net/DTD/sodipodi-0.dtd"
   xmlns:inkscape="http://www.inkscape.org/namespaces/inkscape"
   version="1.1"
   id="Capa_1"
   x="0px"
   y="0px"
   width="800px"
   height="800px"
   viewBox="0 0 800 800"
   enable-background="new 0 0 800 800"
   xml:space="preserve"
   sodipodi:docname="england_flag.svg"
   inkscape:version="0.92.4 (5da689c313, 2019-01-14)"><metadata
   id="metadata23"><rdf:RDF><cc:Work
       rdf:about=""><dc:format>image/svg+xml</dc:format><dc:type
         rdf:resource="http://purl.org/dc/dcmitype/StillImage" /><dc:title></dc:title></cc:Work></rdf:RDF></metadata><defs
   id="defs21" /><sodipodi:namedview
   pagecolor="#ffffff"
   bordercolor="#666666"
   borderopacity="1"
   objecttolerance="10"
   gridtolerance="10"
   guidetolerance="10"
   inkscape:pageopacity="0"
   inkscape:pageshadow="2"
   inkscape:window-width="1920"
   inkscape:window-height="986"
   id="namedview19"
   showgrid="false"
   inkscape:zoom="3.337544"
   inkscape:cx="659.8426"
   inkscape:cy="326.60719"
   inkscape:window-x="-11"
   inkscape:window-y="-11"
   inkscape:window-maximized="1"
   inkscape:current-layer="g16" />
<g
   id="g16">
	<rect
   x="25.807"
   y="450.322"
   fill="#FFFFFF"
   width="323.871"
   height="194.839"
   id="rect2" />
	<rect
   x="450.322"
   y="154.839"
   fill="#FFFFFF"
   width="323.871"
   height="194.838"
   id="rect4" />
	<rect
   x="25.807"
   y="154.839"
   fill="#FFFFFF"
   width="323.871"
   height="194.838"
   id="rect6" />
	<path
   fill="#FFFFFF"
   d="M735.484,450.322c-7.127,0-12.903-5.775-12.903-12.903h-25.807c0,7.128-5.777,12.903-12.903,12.903H450.322   v194.839h323.871V450.322H735.484z"
   id="path8" />
	<path
   fill="#ED1F34"
   d="M374.484,646.161V437.419c0-6.563-5.34-11.902-11.903-11.902H24.807v-51.033h337.774   c6.563,0,11.903-5.34,11.903-11.903V153.839h51.031v208.742c0,6.563,5.34,11.903,11.903,11.903h337.774v51.033h-39.709   c-6.563,0-11.903,5.339-11.903,11.902v1h-27.807v-1c0-6.563-5.34-11.902-11.903-11.902H437.419   c-6.563,0-11.903,5.339-11.903,11.902v208.742H374.484z"
   id="path10" />
	<path
   fill="#ED1F34"
   d="M735.484,424.517h38.709v-49.033H437.419c-7.126,0-12.903-5.775-12.903-12.903V154.839h-49.031v207.742   c0,7.128-5.777,12.903-12.903,12.903H25.807v49.033h336.774c7.126,0,12.903,5.775,12.903,12.902v207.742h49.031V437.419   c0-7.127,5.777-12.902,12.903-12.902h246.452c7.126,0,12.903,5.775,12.903,12.902h25.807   C722.581,430.292,728.357,424.517,735.484,424.517z"
   id="path12" />
	<path
   d="M 787.097,129.032 H 12.903 C 5.777,129.032 0,134.808 0,141.936 v 516.129 c 0,7.128 5.777,12.903 12.903,12.903 h 774.193 c 7.126,0 12.903,-5.775 12.903,-12.903 V 141.936 C 800,134.808 794.223,129.032 787.097,129.032 Z M 349.678,349.677 H 25.807 V 154.839 H 349.678 Z M 25.807,450.322 H 349.678 V 645.161 H 25.807 Z M 450.322,645.161 V 450.322 h 233.549 c 7.126,0 12.903,-5.775 12.903,-12.903 0,-7.127 -5.777,-12.902 -12.903,-12.902 H 437.419 c -7.126,0 -12.903,5.775 -12.903,12.902 V 645.161 H 375.485 V 437.419 c 0,-7.127 -5.777,-12.902 -12.903,-12.902 H 25.807 v -49.033 h 336.774 c 7.126,0 12.903,-5.775 12.903,-12.903 V 154.839 h 49.031 v 207.742 c 0,7.128 5.777,12.903 12.903,12.903 h 336.774 v 49.033 h -90.709 c -7.127,0 7.097,5.775 7.097,12.902 0,7.128 -14.224,12.903 -7.097,12.903 h 90.709 V 645.161 H 450.322 Z M 774.193,349.677 H 450.322 V 154.839 h 323.871 z"
   id="path14"
   inkscape:connector-curvature="0"
   sodipodi:nodetypes="ssssssscsccccccccccccsssssccssccssccssccsssccccccccc" />
</g>
</svg>