<?xml version="1.0" encoding="UTF-8" standalone="no"?>
<!-- Generator: Adobe Illustrator 22.0.1, SVG Export Plug-In . SVG Version: 6.00 Build 0)  -->

<svg
   xmlns:dc="http://purl.org/dc/elements/1.1/"
   xmlns:cc="http://creativecommons.org/ns#"
   xmlns:rdf="http://www.w3.org/1999/02/22-rdf-syntax-ns#"
   xmlns:svg="http://www.w3.org/2000/svg"
   xmlns="http://www.w3.org/2000/svg"
   xmlns:sodipodi="http://sodipodi.sourceforge.net/DTD/sodipodi-0.dtd"
   xmlns:inkscape="http://www.inkscape.org/namespaces/inkscape"
   version="1.1"
   id="Layer_1"
   x="0px"
   y="0px"
   viewBox="0 0 168 168"
   xml:space="preserve"
   sodipodi:docname="ericsson.svg"
   inkscape:version="0.92.4 (5da689c313, 2019-01-14)"
   width="168"
   height="168"><metadata
   id="metadata29"><rdf:RDF><cc:Work
       rdf:about=""><dc:format>image/svg+xml</dc:format><dc:type
         rdf:resource="http://purl.org/dc/dcmitype/StillImage" /><dc:title></dc:title></cc:Work></rdf:RDF></metadata><defs
   id="defs27" /><sodipodi:namedview
   pagecolor="#ffffff"
   bordercolor="#666666"
   borderopacity="1"
   objecttolerance="10"
   gridtolerance="10"
   guidetolerance="10"
   inkscape:pageopacity="0"
   inkscape:pageshadow="2"
   inkscape:window-width="1920"
   inkscape:window-height="986"
   id="namedview25"
   showgrid="false"
   inkscape:zoom="1.4216867"
   inkscape:cx="-167.91749"
   inkscape:cy="48.885718"
   inkscape:window-x="-11"
   inkscape:window-y="-11"
   inkscape:window-maximized="1"
   inkscape:current-layer="Layer_1" />


<path
   d="M 111.52661,64.770788 49.333044,85.467479 c -5.898558,1.966186 -9.106544,8.38216 -7.140359,14.28072 v 0 c 1.966186,5.898551 8.38216,9.106551 14.280717,7.140361 L 118.66695,86.191863 c 5.89857,-1.966186 9.10655,-8.382161 7.14037,-14.280717 v 0 c -1.96619,-5.898557 -8.38216,-9.106545 -14.28071,-7.140358 z"
   id="path2"
   inkscape:connector-curvature="0"
   style="fill:#666666;stroke:#000000;stroke-width:12;stroke-miterlimit:4;stroke-dasharray:none;stroke-opacity:1;paint-order:stroke markers fill" /><path
   d="M 111.52661,24.155512 49.333044,44.852204 c -5.898558,1.966186 -9.106544,8.38216 -7.140359,14.280718 v 0 c 1.966186,5.898557 8.38216,9.106544 14.280717,7.140359 L 118.66695,45.576589 c 5.89857,-1.966186 9.10655,-8.382161 7.14037,-14.280717 v 0 c -1.96619,-5.898558 -8.38216,-9.106546 -14.28071,-7.14036 z"
   id="path4"
   inkscape:connector-curvature="0"
   style="fill:#666666;stroke:#000000;stroke-width:12;stroke-miterlimit:4;stroke-dasharray:none;stroke-opacity:1;paint-order:stroke markers fill" /><path
   d="m 111.63008,105.38606 -62.297037,20.6967 c -5.898556,1.96618 -9.106543,8.38216 -7.140358,14.28071 v 0 c 1.966185,5.89856 8.38216,9.10655 14.280717,7.14036 l 62.193548,-20.69669 c 5.89855,-1.96619 9.10655,-8.38216 7.14036,-14.28071 v 0 c -1.8627,-5.89857 -8.27868,-9.10655 -14.17723,-7.14037 z"
   id="path6"
   inkscape:connector-curvature="0"
   style="fill:#666666;stroke:#000000;stroke-width:12;stroke-miterlimit:4;stroke-dasharray:none;stroke-opacity:1;paint-order:stroke markers fill" />








</svg>