<?xml version="1.0" encoding="UTF-8" standalone="no"?>
<!-- Generator: Adobe Illustrator 19.0.0, SVG Export Plug-In . SVG Version: 6.00 Build 0)  -->

<svg
   xmlns:dc="http://purl.org/dc/elements/1.1/"
   xmlns:cc="http://creativecommons.org/ns#"
   xmlns:rdf="http://www.w3.org/1999/02/22-rdf-syntax-ns#"
   xmlns:svg="http://www.w3.org/2000/svg"
   xmlns="http://www.w3.org/2000/svg"
   xmlns:sodipodi="http://sodipodi.sourceforge.net/DTD/sodipodi-0.dtd"
   xmlns:inkscape="http://www.inkscape.org/namespaces/inkscape"
   version="1.1"
   id="Layer_1"
   x="0px"
   y="0px"
   viewBox="0 0 512.001 512.001"
   style="enable-background:new 0 0 512.001 512.001;"
   xml:space="preserve"
   sodipodi:docname="european_union_flag.svg"
   inkscape:version="0.92.4 (5da689c313, 2019-01-14)"><metadata
   id="metadata65"><rdf:RDF><cc:Work
       rdf:about=""><dc:format>image/svg+xml</dc:format><dc:type
         rdf:resource="http://purl.org/dc/dcmitype/StillImage" /></cc:Work></rdf:RDF></metadata><defs
   id="defs63" /><sodipodi:namedview
   pagecolor="#ffffff"
   bordercolor="#666666"
   borderopacity="1"
   objecttolerance="10"
   gridtolerance="10"
   guidetolerance="10"
   inkscape:pageopacity="0"
   inkscape:pageshadow="2"
   inkscape:window-width="1920"
   inkscape:window-height="986"
   id="namedview61"
   showgrid="false"
   inkscape:zoom="1.3037256"
   inkscape:cx="61.048705"
   inkscape:cy="193.52145"
   inkscape:window-x="-11"
   inkscape:window-y="-11"
   inkscape:window-maximized="1"
   inkscape:current-layer="Layer_1" />
<path
   style="fill:#41479b;stroke-width:16;stroke:none;stroke-opacity:1;stroke-miterlimit:4;stroke-dasharray:none;stroke-linecap:butt;stroke-linejoin:round"
   d="M 495.75685,418.69327 H 16.243175 c -4.72875,0 -8.56316,-3.83441 -8.56316,-8.56316 V 101.8709 c 0,-4.728755 3.83441,-8.563165 8.56316,-8.563165 H 495.75782 c 4.72875,0 8.56316,3.83441 8.56316,8.563165 v 308.25921 c -9.7e-4,4.72972 -3.83538,8.56316 -8.56413,8.56316 z"
   id="path2"
   inkscape:connector-curvature="0" />
<g
   id="g28"
   transform="matrix(0.97,0,0,0.97,7.680015,7.680015)">
	<path
   style="fill:#ffe15a"
   d="m 259.59,126.686 3.54,10.613 11.187,0.087 c 1.449,0.011 2.049,1.859 0.884,2.72 l -9,6.646 3.374,10.666 c 0.437,1.38 -1.135,2.524 -2.314,1.681 l -9.101,-6.506 -9.101,6.506 c -1.178,0.842 -2.751,-0.3 -2.314,-1.681 l 3.374,-10.666 -9,-6.646 c -1.165,-0.861 -0.565,-2.709 0.884,-2.72 l 11.187,-0.087 3.54,-10.613 c 0.457,-1.374 2.402,-1.374 2.86,0 z"
   id="path4"
   inkscape:connector-curvature="0" />
	<path
   style="fill:#ffe15a"
   d="m 259.59,354.548 3.54,10.613 11.187,0.087 c 1.449,0.011 2.049,1.859 0.884,2.72 l -9,6.646 3.374,10.666 c 0.437,1.38 -1.135,2.524 -2.314,1.681 l -9.101,-6.506 -9.101,6.506 c -1.178,0.842 -2.751,-0.3 -2.314,-1.681 l 3.374,-10.666 -9,-6.646 c -1.165,-0.861 -0.565,-2.709 0.884,-2.72 l 11.187,-0.087 3.54,-10.613 c 0.457,-1.374 2.402,-1.374 2.86,0 z"
   id="path6"
   inkscape:connector-curvature="0" />
	<path
   style="fill:#ffe15a"
   d="m 373.521,240.617 3.54,10.613 11.187,0.087 c 1.449,0.011 2.049,1.859 0.884,2.72 l -9,6.646 3.374,10.666 c 0.437,1.38 -1.135,2.524 -2.314,1.681 l -9.101,-6.506 -9.101,6.506 c -1.178,0.842 -2.751,-0.3 -2.314,-1.681 l 3.374,-10.666 -9,-6.646 c -1.165,-0.861 -0.565,-2.709 0.884,-2.72 l 11.187,-0.087 3.54,-10.613 c 0.457,-1.374 2.402,-1.374 2.86,0 z"
   id="path8"
   inkscape:connector-curvature="0" />
	<path
   style="fill:#ffe15a"
   d="m 145.658,240.617 3.54,10.613 11.187,0.087 c 1.449,0.011 2.049,1.859 0.884,2.72 l -9,6.646 3.374,10.666 c 0.437,1.38 -1.135,2.524 -2.314,1.681 l -9.101,-6.506 -9.101,6.506 c -1.178,0.842 -2.751,-0.3 -2.314,-1.681 l 3.374,-10.666 -9,-6.646 c -1.165,-0.861 -0.565,-2.709 0.884,-2.72 l 11.187,-0.087 3.54,-10.613 c 0.458,-1.374 2.403,-1.374 2.86,0 z"
   id="path10"
   inkscape:connector-curvature="0" />
	<path
   style="fill:#ffe15a"
   d="m 162.762,181.121 3.54,10.613 11.187,0.087 c 1.449,0.011 2.049,1.859 0.884,2.72 l -9,6.646 3.374,10.666 c 0.437,1.38 -1.135,2.524 -2.314,1.681 l -9.101,-6.506 -9.101,6.506 c -1.178,0.842 -2.751,-0.3 -2.314,-1.681 l 3.374,-10.666 -9,-6.646 c -1.165,-0.861 -0.565,-2.709 0.884,-2.72 l 11.187,-0.087 3.54,-10.613 c 0.458,-1.374 2.401,-1.374 2.86,0 z"
   id="path12"
   inkscape:connector-curvature="0" />
	<path
   style="fill:#ffe15a"
   d="m 360.096,295.052 3.54,10.613 11.187,0.087 c 1.449,0.011 2.049,1.859 0.884,2.72 l -9,6.646 3.374,10.666 c 0.437,1.38 -1.135,2.524 -2.314,1.681 l -9.101,-6.506 -9.101,6.506 c -1.178,0.842 -2.751,-0.3 -2.314,-1.681 l 3.374,-10.666 -9,-6.646 c -1.165,-0.861 -0.565,-2.709 0.884,-2.72 l 11.187,-0.087 3.54,-10.613 c 0.458,-1.374 2.402,-1.374 2.86,0 z"
   id="path14"
   inkscape:connector-curvature="0" />
	<path
   style="fill:#ffe15a"
   d="m 318.395,139.419 3.54,10.613 11.187,0.087 c 1.449,0.011 2.049,1.859 0.884,2.72 l -9,6.646 3.374,10.666 c 0.437,1.38 -1.135,2.524 -2.314,1.681 l -9.101,-6.506 -9.101,6.506 c -1.178,0.842 -2.751,-0.3 -2.314,-1.681 l 3.374,-10.666 -9,-6.646 c -1.165,-0.861 -0.565,-2.709 0.884,-2.72 l 11.187,-0.087 3.54,-10.613 c 0.457,-1.374 2.4,-1.374 2.86,0 z"
   id="path16"
   inkscape:connector-curvature="0" />
	<path
   style="fill:#ffe15a"
   d="m 204.463,336.754 3.54,10.613 11.187,0.087 c 1.449,0.011 2.049,1.859 0.884,2.72 l -9,6.646 3.374,10.666 c 0.437,1.38 -1.135,2.524 -2.314,1.681 l -9.101,-6.506 -9.101,6.506 c -1.178,0.842 -2.751,-0.3 -2.314,-1.681 l 3.374,-10.666 -9,-6.646 c -1.165,-0.861 -0.565,-2.709 0.884,-2.72 l 11.187,-0.087 3.54,-10.613 c 0.458,-1.374 2.401,-1.374 2.86,0 z"
   id="path18"
   inkscape:connector-curvature="0" />
	<path
   style="fill:#ffe15a"
   d="m 357.236,181.121 -3.54,10.613 -11.187,0.087 c -1.449,0.011 -2.049,1.859 -0.884,2.72 l 9,6.646 -3.374,10.666 c -0.437,1.38 1.135,2.524 2.314,1.681 l 9.101,-6.506 9.101,6.506 c 1.178,0.842 2.751,-0.3 2.314,-1.681 l -3.374,-10.666 9,-6.646 c 1.165,-0.861 0.565,-2.709 -0.884,-2.72 l -11.187,-0.087 -3.54,-10.613 c -0.458,-1.374 -2.402,-1.374 -2.86,0 z"
   id="path20"
   inkscape:connector-curvature="0" />
	<path
   style="fill:#ffe15a"
   d="m 159.902,295.052 -3.54,10.613 -11.187,0.087 c -1.449,0.011 -2.049,1.859 -0.884,2.72 l 9,6.646 -3.374,10.666 c -0.437,1.38 1.135,2.524 2.314,1.681 l 9.101,-6.506 9.101,6.506 c 1.178,0.842 2.751,-0.3 2.314,-1.681 l -3.374,-10.666 9,-6.646 c 1.165,-0.861 0.565,-2.709 -0.884,-2.72 l -11.187,-0.087 -3.54,-10.613 c -0.459,-1.374 -2.402,-1.374 -2.86,0 z"
   id="path22"
   inkscape:connector-curvature="0" />
	<path
   style="fill:#ffe15a"
   d="m 201.603,139.419 -3.54,10.613 -11.187,0.087 c -1.449,0.011 -2.049,1.859 -0.884,2.72 l 9,6.646 -3.374,10.666 c -0.437,1.38 1.135,2.524 2.314,1.681 l 9.101,-6.506 9.101,6.506 c 1.178,0.842 2.751,-0.3 2.314,-1.681 l -3.374,-10.666 9,-6.646 c 1.165,-0.861 0.565,-2.709 -0.884,-2.72 l -11.187,-0.087 -3.54,-10.613 c -0.459,-1.374 -2.402,-1.374 -2.86,0 z"
   id="path24"
   inkscape:connector-curvature="0" />
	<path
   style="fill:#ffe15a"
   d="m 315.534,336.754 -3.54,10.613 -11.187,0.087 c -1.449,0.011 -2.049,1.859 -0.884,2.72 l 9,6.646 -3.374,10.666 c -0.437,1.38 1.135,2.524 2.314,1.681 l 9.101,-6.506 9.101,6.506 c 1.178,0.842 2.751,-0.3 2.314,-1.681 l -3.374,-10.666 9,-6.646 c 1.165,-0.861 0.565,-2.709 -0.884,-2.72 l -11.187,-0.087 -3.54,-10.613 c -0.459,-1.374 -2.402,-1.374 -2.86,0 z"
   id="path26"
   inkscape:connector-curvature="0" />
</g>
<g
   id="g30"
   transform="matrix(0.97,0,0,0.97,7.680015,7.680015)">
</g>
<g
   id="g32"
   transform="matrix(0.97,0,0,0.97,7.680015,7.680015)">
</g>
<g
   id="g34"
   transform="matrix(0.97,0,0,0.97,7.680015,7.680015)">
</g>
<g
   id="g36"
   transform="matrix(0.97,0,0,0.97,7.680015,7.680015)">
</g>
<g
   id="g38"
   transform="matrix(0.97,0,0,0.97,7.680015,7.680015)">
</g>
<g
   id="g40"
   transform="matrix(0.97,0,0,0.97,7.680015,7.680015)">
</g>
<g
   id="g42"
   transform="matrix(0.97,0,0,0.97,7.680015,7.680015)">
</g>
<g
   id="g44"
   transform="matrix(0.97,0,0,0.97,7.680015,7.680015)">
</g>
<g
   id="g46"
   transform="matrix(0.97,0,0,0.97,7.680015,7.680015)">
</g>
<g
   id="g48"
   transform="matrix(0.97,0,0,0.97,7.680015,7.680015)">
</g>
<g
   id="g50"
   transform="matrix(0.97,0,0,0.97,7.680015,7.680015)">
</g>
<g
   id="g52"
   transform="matrix(0.97,0,0,0.97,7.680015,7.680015)">
</g>
<g
   id="g54"
   transform="matrix(0.97,0,0,0.97,7.680015,7.680015)">
</g>
<g
   id="g56"
   transform="matrix(0.97,0,0,0.97,7.680015,7.680015)">
</g>
<g
   id="g58"
   transform="matrix(0.97,0,0,0.97,7.680015,7.680015)">
</g>
<rect
   style="fill:none;fill-rule:evenodd;stroke:#000000;stroke-width:16;stroke-miterlimit:4;stroke-dasharray:none;stroke-opacity:1"
   id="rect872"
   width="495.40033"
   height="338.92569"
   x="8.3003235"
   y="86.537643" /></svg>