<?xml version="1.0" encoding="iso-8859-1"?>
<!-- Generator: Adobe Illustrator 19.0.0, SVG Export Plug-In . SVG Version: 6.00 Build 0)  -->
<svg version="1.1" id="Layer_1" xmlns="http://www.w3.org/2000/svg" xmlns:xlink="http://www.w3.org/1999/xlink" x="0px" y="0px"
	 viewBox="0 0 512 512" style="enable-background:new 0 0 512 512;" xml:space="preserve">
<g transform="matrix(-0.7071 0.7071 -0.7071 -0.7071 644.49 -8.06)">
	<rect x="290.408" y="39.76" style="fill:#FECE00;" width="54.695" height="150.66"/>
	<rect x="290.408" y="64.093" style="fill:#FF3502;" width="54.695" height="101.982"/>
</g>
<g transform="matrix(0.7071 0.7071 -0.7071 0.7071 140.19 -79.56)">
	<rect x="148.15" y="52.958" style="fill:#FECE00;" width="54.695" height="150.66"/>
	<rect x="148.15" y="77.292" style="fill:#FF3502;" width="54.695" height="101.982"/>
</g>
<g transform="matrix(-0.7071 0.7071 -0.7071 -0.7071 696.62 117.79)">
	<rect x="292.743" y="111.144" style="fill:#FECE00;" width="54.695" height="150.66"/>
	<rect x="292.743" y="135.478" style="fill:#FF3502;" width="54.695" height="101.982"/>
</g>
<g transform="matrix(0.7071 0.7071 -0.7071 0.7071 192.32 -57.969)">
	<rect x="150.485" y="129.013" style="fill:#FECE00;" width="54.695" height="150.66"/>
	<rect x="150.485" y="153.347" style="fill:#FF3502;" width="54.695" height="101.982"/>
</g>
<g transform="matrix(-0.7071 0.7071 -0.7071 -0.7071 749.21 244.76)">
	<rect x="295.099" y="183.169" style="fill:#FECE00;" width="54.695" height="150.66"/>
	<rect x="295.099" y="207.502" style="fill:#FF3502;" width="54.695" height="101.982"/>
</g>
<g transform="matrix(0.7071 0.7071 -0.7071 0.7071 244.91 -36.18)">
	<rect x="152.841" y="205.75" style="fill:#FECE00;" width="54.695" height="150.66"/>
	<rect x="152.841" y="230.083" style="fill:#FF3502;" width="54.695" height="101.982"/>
</g>
<g transform="matrix(-0.7071 0.7071 -0.7071 -0.7071 801.8 371.73)">
	<rect x="297.455" y="255.182" style="fill:#FECE00;" width="54.695" height="150.66"/>
	<rect x="297.455" y="279.516" style="fill:#FF3502;" width="54.695" height="101.982"/>
</g>
<g transform="matrix(0.7071 0.7071 -0.7071 0.7071 297.51 -14.4)">
	<rect x="155.197" y="282.475" style="fill:#FECE00;" width="54.695" height="150.66"/>
	<rect x="155.197" y="306.808" style="fill:#FF3502;" width="54.695" height="101.982"/>
</g>
<g transform="matrix(0.7071 0.7071 -0.7071 0.7071 149.45 -83.39)">
	<rect x="171.663" y="62.208" style="fill:#DDB201;" width="27.353" height="150.66"/>
	<rect x="171.663" y="86.541" style="fill:#CD2A01;" width="27.353" height="101.982"/>
</g>
<g transform="matrix(0.7071 0.7071 -0.7071 0.7071 201.58 -61.802)">
	<rect x="173.998" y="138.263" style="fill:#DDB201;" width="27.353" height="150.66"/>
	<rect x="173.998" y="162.607" style="fill:#CD2A01;" width="27.353" height="101.982"/>
</g>
<g transform="matrix(0.7071 0.7071 -0.7071 0.7071 253.71 -40.21)">
	<rect x="176.333" y="214.328" style="fill:#DDB201;" width="27.353" height="150.66"/>
	<rect x="176.333" y="238.662" style="fill:#CD2A01;" width="27.353" height="101.983"/>
</g>
<g transform="matrix(0.7071 0.7071 -0.7071 0.7071 305.83 -18.617)">
	<rect x="178.668" y="290.384" style="fill:#DDB201;" width="27.353" height="150.66"/>
	<rect x="178.668" y="314.717" style="fill:#CD2A01;" width="27.353" height="101.982"/>
</g>
<g transform="matrix(-0.7071 0.7071 -0.7071 -0.7071 635.23 14.282)">
	<rect x="295.41" y="49.01" style="fill:#DDB201;" width="27.353" height="150.66"/>
	<rect x="295.41" y="73.343" style="fill:#CD2A01;" width="27.353" height="101.982"/>
</g>
<g transform="matrix(-0.7071 0.7071 -0.7071 -0.7071 687.36 140.13)">
	<rect x="297.745" y="120.394" style="fill:#DDB201;" width="27.353" height="150.66"/>
	<rect x="297.745" y="144.738" style="fill:#CD2A01;" width="27.353" height="101.982"/>
</g>
<g transform="matrix(-0.7071 0.7071 -0.7071 -0.7071 739.49 265.98)">
	<rect x="300.08" y="191.79" style="fill:#DDB201;" width="27.353" height="150.66"/>
	<rect x="300.08" y="216.123" style="fill:#CD2A01;" width="27.353" height="101.983"/>
</g>
<g transform="matrix(-0.7071 0.7071 -0.7071 -0.7071 791.62 391.83)">
	<rect x="302.415" y="263.174" style="fill:#DDB201;" width="27.353" height="150.66"/>
	<rect x="302.415" y="287.508" style="fill:#CD2A01;" width="27.353" height="101.982"/>
</g>
<path d="M413.202,59.718h18.614V75.39h-18.614v18.614H397.53V75.39h-18.613V59.718h18.613V41.104h15.672V59.718z M65.376,191.579
	H49.704v14.382H35.321v15.672h14.383v14.383h15.672v-14.383h14.383v-15.672H65.376V191.579z M476.679,354.746h-14.382v-14.383
	h-15.672v14.383h-14.383v15.672h14.383V384.8h15.672v-14.383h14.382V354.746z M50.885,338.991h14.812v-15.672H50.885V338.991z
	 M166.421,485.239h14.812v-15.672h-14.812V485.239z M349.387,512h15.672v-14.812h-15.672V512z M461.867,193.266h-14.812v15.672
	h14.812V193.266z M118.431,53.31h-14.812v15.672h14.812C118.431,68.982,118.431,53.31,118.431,53.31z M422.108,169.172
	l-38.511,38.512l38.512,38.512l-38.854,38.854l38.854,38.854l-38.854,38.854l38.854,38.854l-49.758,49.758l-17.207-17.207l0,0
	l-83.198-83.198l0,0l-8.357-8.357v84.985h-15.672v-84.486l-7.859,7.859l0,0l-83.198,83.198l0,0l-17.208,17.207l-49.758-49.758
	l17.207-17.207l0,0l21.647-21.647l-38.854-38.854l17.207-17.207l0,0l21.647-21.647l-38.854-38.854l17.207-17.208l0,0l21.304-21.304
	l-38.512-38.512l17.207-17.208l0,0l83.198-83.198l0,0l17.208-17.208l18.846,18.846l21.564-21.564V0h15.672v49.534l21.467,21.467
	l19.442-19.442L422.108,169.172z M355.143,412.002l27.595-27.595l-61.035-61.035l-27.595,27.596L355.143,412.002z M293.592,294.905
	l-21.647-21.647l0,0l-8.357-8.357v17.073l21.467,21.467L293.592,294.905z M226.351,302.847l21.565-21.565v-15.883l-7.859,7.859l0,0
	l-21.647,21.647L226.351,302.847z M217.892,350.967l-27.595-27.595l-61.035,61.035l27.595,27.595L217.892,350.967z M129.262,151.966
	l27.43,27.43l33.604-33.604l0,0l17.208-17.208l0.165,0.165l10.223-10.223l-27.596-27.595L129.262,151.966z M263.587,110.168v16.389
	l21.467,21.467l8.194-8.194L263.587,110.168z M235.1,256.051l-27.595-27.595l-6.126,6.126l27.595,27.595L235.1,256.051z
	 M201.544,157.038l27.43,27.43l6.126-6.126l-27.43-27.431L201.544,157.038z M247.914,187.691l-29.506,29.506l7.941,7.941
	l21.565-21.565V187.691z M247.914,148.029l-10.482,10.482l10.482,10.482V148.029z M237.432,236.22l10.482,10.482v-20.965
	L237.432,236.22z M263.587,247.201l10.386-10.385l-10.386-10.386V247.201z M293.592,217.197l-30.004-30.004v17.073l21.468,21.467
	L293.592,217.197z M273.974,159.107l-10.386-10.386v20.773L273.974,159.107z M247.914,110.667l-29.163,29.163l7.599,7.599
	l21.565-21.565V110.667z M129.262,228.99l27.595,27.595l61.035-61.035l-27.431-27.43l-50.812,50.812l-0.165-0.165L129.262,228.99z
	 M129.262,306.698l27.595,27.595l61.035-61.035l-27.595-27.595L129.262,306.698z M355.143,334.293l27.595-27.595l-61.035-61.035
	l-27.595,27.596L355.143,334.293z M310.622,234.581l-6.126-6.126L276.9,256.05l6.126,6.126L310.622,234.581z M283.026,184.468
	l27.431-27.431l-6.126-6.126l-27.431,27.43L283.026,184.468z M355.143,256.584l27.595-27.595l-10.223-10.223l-0.165,0.165
	l-50.812-50.812l-27.43,27.43L355.143,256.584z M355.308,179.396l27.43-27.43l-61.035-61.035l-27.595,27.595l10.223,10.223
	l0.165-0.165L355.308,179.396z M304.496,73.723L276.9,101.319l6.126,6.126l27.596-27.596L304.496,73.723z M263.587,71.697v20.772
	l10.386-10.385L263.587,71.697z M237.432,81.488l10.482,10.482V71.005L237.432,81.488z M201.378,79.849l27.595,27.595l6.126-6.126
	l-27.595-27.596L201.378,79.849z M139.485,196.603l6.126-6.126l-27.43-27.43l-6.126,6.126L139.485,196.603z M112.055,246.197
	l27.595,27.595l6.126-6.126l-27.595-27.595L112.055,246.197z M112.055,323.905l27.595,27.595l6.126-6.126l-27.595-27.595
	L112.055,323.905z M145.776,423.083l-27.595-27.595l-6.126,6.126l27.595,27.595L145.776,423.083z M228.974,339.885l6.126-6.126
	l-27.595-27.595l-6.126,6.126L228.974,339.885z M247.914,324.411v-20.965l-10.482,10.482L247.914,324.411z M263.587,324.91
	l10.385-10.385l-10.385-10.386L263.587,324.91L263.587,324.91z M283.026,339.885l27.595-27.596l-6.126-6.126l-27.596,27.595
	L283.026,339.885z M399.946,401.613l-6.126-6.126l-27.595,27.595l6.126,6.126L399.946,401.613z M399.946,323.905l-6.126-6.126
	l-27.595,27.595l6.126,6.126L399.946,323.905z M399.946,246.197l-6.126-6.126l-27.595,27.595l6.126,6.126L399.946,246.197z
	 M399.946,169.172l-6.126-6.126l-27.431,27.43l6.126,6.126L399.946,169.172z M229.467,467.983l14.486,5.979l11.141-26.993
	l-14.486-5.979L229.467,467.983z M239.599,409.696l-26.993-11.141l-5.979,14.486l26.993,11.141L239.599,409.696z M271.902,439.981
	l26.993,11.141l5.979-14.486l-26.993-11.141L271.902,439.981z M233.623,425.552l-26.964,11.21l6.016,14.471l26.964-11.21
	L233.623,425.552z M304.843,412.915l-6.016-14.471l-26.965,11.21l6.016,14.471L304.843,412.915z M256.464,446.967l11.209,26.965
	l14.473-6.016l-11.21-26.965L256.464,446.967z"/>
<g>
</g>
<g>
</g>
<g>
</g>
<g>
</g>
<g>
</g>
<g>
</g>
<g>
</g>
<g>
</g>
<g>
</g>
<g>
</g>
<g>
</g>
<g>
</g>
<g>
</g>
<g>
</g>
<g>
</g>
</svg>
