<svg id="Capa_1" enable-background="new 0 0 509.275 509.275" height="512" viewBox="0 0 509.275 509.275" width="512" xmlns="http://www.w3.org/2000/svg"><g><g><g><path d="m361.529 392.206c-34.781-34.781-47.638-78.315-47.638-78.315s43.534 12.857 78.315 47.638 48.873 56.173 37.185 67.862c-11.26 11.258-33.081-2.404-67.862-37.185z" fill="#b2e5fb"/></g></g><g><g><path d="m392.206 361.529c-34.781-34.781-78.315-47.639-78.315-47.639s1.867 6.317 6.097 16.056c13.279 7.462 28.435 17.799 42.218 31.583 32.078 32.078 46.539 52.76 39.426 64.952 12.563 7.797 21.695 8.973 27.758 2.91 11.688-11.689-2.403-33.081-37.184-67.862z" fill="#91dafa"/></g></g><g><g><circle cx="164.975" cy="47.172" fill="#ffebab" r="18.222"/></g></g><g><g><path d="m258.471 211.487 13.287 24.294c.401.733 1.004 1.336 1.737 1.737l24.294 13.287c3.03 1.657 3.03 6.009 0 7.666l-24.294 13.287c-.733.401-1.336 1.004-1.737 1.737l-13.287 24.294c-1.657 3.03-6.009 3.03-7.666 0l-13.287-24.294c-.401-.733-1.004-1.336-1.737-1.737l-24.294-13.287c-3.03-1.657-3.03-6.009 0-7.666l24.294-13.287c.733-.401 1.336-1.004 1.737-1.737l13.287-24.294c1.657-3.03 6.009-3.03 7.666 0z" fill="#ffebab"/></g></g><g><g><path d="m297.789 250.805-24.294-13.287c-.733-.401-1.336-1.004-1.737-1.737l-13.287-24.294c-1.657-3.03-6.009-3.03-7.666 0l-11.167 20.418 2.12 3.876c.401.733 1.004 1.336 1.737 1.737l20.976 11.472c4.465 2.442 4.465 8.854 0 11.295l-20.976 11.472c-.733.401-1.336 1.004-1.737 1.737l-2.12 3.876 11.167 20.418c1.657 3.03 6.009 3.03 7.666 0l13.287-24.294c.401-.733 1.004-1.336 1.737-1.737l24.294-13.287c3.029-1.657 3.029-6.008 0-7.665z" fill="#ffe07d"/></g></g><g><g><path d="m276.329 81.779c0 49.188-21.692 89.063-21.692 89.063s-21.692-39.875-21.692-89.063 5.163-74.279 21.693-74.279c15.922 0 21.691 25.091 21.691 74.279z" fill="#faafd1"/></g></g><g><g><path d="m392.206 147.747c-34.781 34.781-78.315 47.639-78.315 47.639s12.857-43.534 47.638-78.315 56.173-48.873 67.862-37.185c11.258 11.258-2.404 33.079-37.185 67.861z" fill="#88f2a9"/></g></g><g><g><path d="m429.39 79.885c-6.291-6.291-15.399-5.102-27.886 2.75 6.936 11.898-7.152 32.966-39.298 65.112-13.784 13.784-28.94 24.121-42.218 31.583-4.23 9.739-6.097 16.056-6.097 16.056s43.534-12.857 78.315-47.639 48.443-56.603 37.184-67.862z" fill="#80e29e"/></g></g><g><g><path d="m427.496 276.329c-49.188 0-89.063-21.692-89.063-21.692s39.875-21.692 89.063-21.692 74.279 5.162 74.279 21.692c0 15.923-25.091 21.692-74.279 21.692z" fill="#bd96e4"/></g></g><g><g><path d="m427.496 232.946c-3.585 0-7.118.118-10.592.332 36.359 1.36 54.871 7.169 54.871 21.36 0 13.709-18.619 19.887-55.187 21.341 3.575.226 7.215.351 10.908.351 49.188 0 74.279-5.769 74.279-21.692 0-16.53-25.091-21.692-74.279-21.692z" fill="#ad7fdd"/></g></g><g><g><path d="m232.946 427.496c0-49.188 21.692-89.063 21.692-89.063s21.692 39.875 21.692 89.063-5.162 74.279-21.692 74.279c-15.923 0-21.692-25.091-21.692-74.279z" fill="#faafd1"/></g></g><g><g><path d="m254.638 7.5c-4.52 0-8.184 1.89-11.131 5.621 7.772 9.916 10.823 32.919 10.823 68.658 0 24.361-5.321 46.434-10.692 62.513 5.474 16.387 11 26.55 11 26.55s21.692-39.875 21.692-89.063-5.77-74.279-21.692-74.279z" fill="#e592b8"/></g></g><g><g><path d="m254.638 338.433s-5.526 10.162-11 26.55c5.371 16.08 10.692 38.152 10.692 62.513 0 35.738-2.73 58.742-10.561 68.658 2.925 3.732 6.515 5.621 10.869 5.621 16.53 0 21.692-25.091 21.692-74.279s-21.692-89.063-21.692-89.063z" fill="#e592b8"/></g></g><g><g><path d="m117.07 361.529c34.781-34.781 78.315-47.638 78.315-47.638s-12.857 43.534-47.639 78.315-56.173 48.873-67.861 37.185c-11.259-11.26 2.404-33.081 37.185-67.862z" fill="#88f2a9"/></g></g><g><g><path d="m81.779 232.946c49.188 0 89.063 21.692 89.063 21.692s-39.875 21.692-89.063 21.692-74.279-5.163-74.279-21.692c0-15.923 25.091-21.692 74.279-21.692z" fill="#bd96e4"/></g></g><g><path d="m147.747 117.07c34.781 34.781 47.639 78.315 47.639 78.315s-43.534-12.857-78.315-47.639-48.874-56.173-37.186-67.861c11.259-11.259 33.08 2.404 67.862 37.185z" fill="#b2e5fb"/></g><g><g><circle cx="336.285" cy="45.396" fill="#ffebab" r="18.222"/></g></g><g><g><ellipse cx="458.676" cy="165.274" fill="#ffebab" rx="18.222" ry="18.222" transform="matrix(.707 -.707 .707 .707 17.476 372.74)"/></g></g><g><g><circle cx="460.452" cy="336.585" fill="#ffebab" r="18.222"/></g></g><g><g><circle cx="340.573" cy="458.975" fill="#ffebab" r="18.222"/></g></g><g><g><circle cx="169.263" cy="460.751" fill="#ffebab" r="18.222"/></g></g><g><g><ellipse cx="46.873" cy="340.872" fill="#ffebab" rx="18.222" ry="18.222" transform="matrix(.23 -.973 .973 .23 -295.65 308.175)"/></g></g><g><g><circle cx="45.096" cy="169.562" fill="#ffebab" r="18.222"/></g></g><g><path d="m397.509 356.225c-35.72-35.72-79.642-48.981-81.494-49.528-2.637-.778-5.486-.053-7.428 1.89-1.943 1.943-2.668 4.792-1.89 7.428.547 1.852 13.809 45.775 49.528 81.494 23.037 23.037 46.223 43.284 63.963 43.281 5.389-.001 10.278-1.87 14.504-6.096 8.321-8.321 8.333-19.865.034-34.311-6.391-11.127-18.218-25.158-37.217-44.158zm26.578 67.862c-4.579 4.578-18.227 1.843-57.255-37.185-20.668-20.667-33.365-44.827-39.986-60.056 15.23 6.621 39.389 19.318 60.057 39.985 11.678 11.68 47.219 47.221 37.184 57.256z"/><path d="m301.387 244.225-23.489-12.847-12.847-23.49c-2.083-3.808-6.073-6.173-10.413-6.173s-8.33 2.366-10.413 6.174l-12.847 23.49-23.489 12.846c-3.808 2.082-6.174 6.072-6.174 10.413 0 4.34 2.365 8.331 6.174 10.414l23.489 12.847 12.847 23.491c2.083 3.808 6.073 6.173 10.413 6.173s8.33-2.366 10.413-6.174l12.847-23.49 23.49-12.847c3.808-2.083 6.173-6.073 6.173-10.414s-2.366-8.331-6.174-10.413zm-49.496-29.14.004.007c-.002-.002-.003-.004-.004-.007zm18.004 50.092c-1.996 1.092-3.627 2.724-4.717 4.718l-10.54 19.271-10.539-19.27c-1.091-1.996-2.723-3.628-4.719-4.72l-19.271-10.539 19.271-10.54c1.995-1.091 3.626-2.723 4.717-4.718l10.54-19.271 10.54 19.272c1.091 1.995 2.723 3.626 4.718 4.718l19.271 10.54z"/><path d="m254.638 178.342c2.748 0 5.275-1.502 6.588-3.916.923-1.697 22.603-42.132 22.603-92.647.001-42.474-3.536-81.779-29.191-81.779-11.768 0-19.939 8.155-24.285 24.237-3.348 12.388-4.907 30.672-4.907 57.542 0 50.515 21.681 90.95 22.604 92.647 1.312 2.414 3.84 3.916 6.588 3.916zm0-163.342c6.474 0 14.192 11.585 14.192 66.779 0 29.229-8.105 55.291-14.192 70.741-6.087-15.452-14.192-41.512-14.192-70.741 0-16.517 0-66.779 14.192-66.779z"/><path d="m313.891 202.885c.709 0 1.424-.101 2.124-.307 1.192-.352 29.531-8.87 59.237-30.554 3.346-2.442 4.078-7.134 1.636-10.48-2.441-3.345-7.134-4.079-10.479-1.636-14.687 10.72-29.196 18.035-39.568 22.536 6.62-15.23 19.318-39.397 39.992-60.071 11.68-11.679 47.223-47.219 57.255-37.185 1.039 1.039 4.202 4.202-2.548 16.107-5.736 10.117-17.066 23.577-34.636 41.147-2.929 2.929-2.929 7.678 0 10.606 2.928 2.93 7.677 2.929 10.607 0 18.796-18.796 30.578-32.89 37.079-44.355 8.215-14.49 8.251-25.967.106-34.112-8.321-8.321-19.865-8.333-34.31-.033-11.127 6.392-25.158 18.219-44.158 37.218-35.72 35.719-48.982 79.642-49.528 81.494-.778 2.635-.053 5.485 1.89 7.428 1.424 1.427 3.34 2.197 5.301 2.197z"/><path d="m485.038 230.353c-12.388-3.348-30.672-4.907-57.542-4.907-50.515 0-90.95 21.68-92.647 22.603-2.414 1.313-3.916 3.841-3.916 6.588 0 2.748 1.502 5.275 3.916 6.588 1.697.923 42.131 22.604 92.647 22.604 42.475 0 81.779-3.537 81.779-29.192 0-11.767-8.154-19.938-24.237-24.284zm-57.542 38.476c-29.243 0-55.316-8.113-70.763-14.201 15.417-6.086 41.44-14.183 70.763-14.183 16.517 0 66.779 0 66.779 14.191 0 6.476-11.585 14.193-66.779 14.193z"/><path d="m254.638 330.933c-2.748 0-5.275 1.502-6.588 3.916-.923 1.697-22.604 42.132-22.604 92.647 0 42.474 3.537 81.779 29.192 81.779 11.768 0 19.939-8.155 24.285-24.237 3.348-12.388 4.907-30.672 4.907-57.542 0-50.515-21.681-90.95-22.603-92.647-1.314-2.413-3.842-3.916-6.589-3.916zm0 163.342c-6.474 0-14.192-11.585-14.192-66.779 0-29.228 8.105-55.29 14.192-70.741 6.087 15.452 14.192 41.512 14.192 70.741 0 16.517 0 66.779-14.192 66.779z"/><path d="m193.261 306.698c-1.727.51-42.686 12.867-77.687 45.833-3.016 2.84-3.158 7.586-.317 10.602 2.84 3.015 7.587 3.157 10.602.317 19.838-18.685 42.188-30.355 56.572-36.606-6.621 15.23-19.319 39.391-39.987 60.059-11.679 11.679-47.218 47.218-57.255 37.185-5.074-5.074 2.076-19.037 20.134-39.316 2.755-3.094 2.48-7.835-.613-10.589-3.094-2.754-7.835-2.48-10.589.613-17.42 19.564-35.384 44.052-19.538 59.898 4.166 4.166 9.14 6.25 14.881 6.25 5.726 0 12.216-2.072 19.429-6.216 11.127-6.392 25.158-18.219 44.158-37.218 35.72-35.719 48.982-79.642 49.528-81.494.778-2.635.053-5.485-1.89-7.428-1.942-1.944-4.794-2.668-7.428-1.89z"/><path d="m81.779 283.829c50.515 0 90.95-21.681 92.646-22.604 2.414-1.313 3.916-3.841 3.916-6.588 0-2.748-1.502-5.275-3.916-6.588-1.697-.923-42.131-22.603-92.646-22.603-42.474 0-81.779 3.537-81.779 29.191 0 11.768 8.155 19.939 24.238 24.285 12.387 3.348 30.672 4.907 57.541 4.907zm-66.779-29.192c0-6.474 11.586-14.191 66.779-14.191 29.229 0 55.29 8.105 70.74 14.191-15.452 6.087-41.512 14.192-70.74 14.192-16.516 0-66.779 0-66.779-14.192z"/><path d="m111.767 153.05c35.72 35.72 79.642 48.981 81.494 49.528.7.207 1.415.307 2.124.307 1.961 0 3.877-.77 5.304-2.197 1.943-1.943 2.668-4.793 1.89-7.428-.547-1.852-13.809-45.775-49.528-81.494-30.034-30.034-60.329-55.325-78.468-37.185-8.321 8.321-8.333 19.865-.034 34.311 6.391 11.127 18.218 25.158 37.218 44.158zm-26.579-67.862c1.001-1 2.432-1.651 4.469-1.651 7.284 0 22.286 8.336 52.786 38.836 20.667 20.668 33.365 44.827 39.986 60.056-15.23-6.622-39.388-19.318-60.056-39.986-18.039-18.039-29.103-31.075-34.818-41.023-6.786-11.812-3.576-15.023-2.367-16.232z"/><path d="m164.975 72.894c14.183 0 25.722-11.539 25.722-25.722s-11.539-25.722-25.722-25.722-25.722 11.539-25.722 25.722 11.539 25.722 25.722 25.722zm0-36.444c5.912 0 10.722 4.81 10.722 10.722s-4.81 10.722-10.722 10.722-10.722-4.81-10.722-10.722 4.81-10.722 10.722-10.722z"/><path d="m336.285 71.105c6.587 0 13.173-2.507 18.188-7.521 10.029-10.029 10.029-26.347 0-36.376-10.029-10.028-26.348-10.028-36.376 0-10.029 10.029-10.029 26.347 0 36.376 5.015 5.014 11.601 7.521 18.188 7.521zm-7.581-33.29c2.09-2.091 4.836-3.135 7.582-3.135s5.492 1.045 7.582 3.135c4.18 4.18 4.18 10.982 0 15.163s-10.983 4.18-15.163 0c-4.182-4.181-4.182-10.983-.001-15.163z"/><path d="m432.954 165.275c0 14.183 11.539 25.721 25.722 25.721s25.721-11.539 25.721-25.721c0-14.183-11.539-25.722-25.721-25.722-14.183 0-25.722 11.539-25.722 25.722zm25.722-10.722c5.912 0 10.721 4.81 10.721 10.722s-4.81 10.721-10.721 10.721c-5.912 0-10.722-4.81-10.722-10.721 0-5.912 4.81-10.722 10.722-10.722z"/><path d="m442.264 318.397c-10.029 10.029-10.029 26.347 0 36.376 5.014 5.015 11.601 7.522 18.188 7.522s13.174-2.507 18.188-7.522c10.029-10.029 10.029-26.347 0-36.376-10.029-10.03-26.348-10.03-36.376 0zm25.769 25.769c-4.181 4.181-10.982 4.181-15.163 0-4.18-4.18-4.18-10.982 0-15.163 2.09-2.09 4.836-3.135 7.582-3.135s5.491 1.045 7.582 3.135c4.179 4.18 4.179 10.983-.001 15.163z"/><path d="m340.573 433.253c-14.183 0-25.722 11.539-25.722 25.722s11.539 25.722 25.722 25.722 25.722-11.539 25.722-25.722-11.539-25.722-25.722-25.722zm0 36.444c-5.912 0-10.722-4.81-10.722-10.722s4.81-10.722 10.722-10.722 10.722 4.81 10.722 10.722-4.81 10.722-10.722 10.722z"/><path d="m169.263 435.029c-6.871 0-13.33 2.676-18.188 7.534-10.029 10.029-10.029 26.347 0 36.377 5.015 5.014 11.601 7.521 18.188 7.521 6.586 0 13.173-2.507 18.188-7.521 10.029-10.029 10.029-26.347.001-36.376-4.859-4.859-11.318-7.535-18.189-7.535zm7.581 33.304c-4.181 4.18-10.982 4.18-15.163 0-4.18-4.181-4.18-10.982 0-15.163 2.025-2.025 4.718-3.141 7.582-3.141s5.556 1.115 7.581 3.141c4.18 4.18 4.18 10.982 0 15.163z"/><path d="m46.873 315.151c-14.183 0-25.722 11.539-25.722 25.722s11.539 25.722 25.722 25.722 25.722-11.538 25.722-25.722-11.539-25.722-25.722-25.722zm0 36.443c-5.912 0-10.722-4.809-10.722-10.722s4.81-10.722 10.722-10.722 10.722 4.81 10.722 10.722-4.81 10.722-10.722 10.722z"/><path d="m45.097 195.284c6.871 0 13.33-2.675 18.188-7.534 4.858-4.858 7.534-11.317 7.534-18.188s-2.675-13.33-7.533-18.188-11.317-7.534-18.188-7.534-13.33 2.675-18.188 7.533-7.534 11.317-7.534 18.188 2.676 13.33 7.534 18.188c4.857 4.86 11.316 7.535 18.187 7.535zm-7.581-33.303c2.025-2.025 4.717-3.141 7.581-3.141s5.556 1.115 7.581 3.141c2.025 2.025 3.14 4.717 3.14 7.581s-1.115 5.556-3.141 7.582c-2.025 2.025-4.717 3.14-7.581 3.14s-5.556-1.115-7.582-3.14c-2.025-2.025-3.141-4.718-3.141-7.582s1.117-5.555 3.143-7.581z"/></g></g></svg>