<?xml version="1.0" encoding="UTF-8" standalone="no"?>
<!-- Generator: Adobe Illustrator 19.0.0, SVG Export Plug-In . SVG Version: 6.00 Build 0)  -->

<svg
   xmlns:dc="http://purl.org/dc/elements/1.1/"
   xmlns:cc="http://creativecommons.org/ns#"
   xmlns:rdf="http://www.w3.org/1999/02/22-rdf-syntax-ns#"
   xmlns:svg="http://www.w3.org/2000/svg"
   xmlns="http://www.w3.org/2000/svg"
   xmlns:sodipodi="http://sodipodi.sourceforge.net/DTD/sodipodi-0.dtd"
   xmlns:inkscape="http://www.inkscape.org/namespaces/inkscape"
   version="1.1"
   id="Layer_1"
   x="0px"
   y="0px"
   viewBox="0 0 256 256"
   xml:space="preserve"
   sodipodi:docname="france_flag.svg"
   width="256"
   height="256"
   inkscape:version="0.92.4 (5da689c313, 2019-01-14)"><metadata
   id="metadata43"><rdf:RDF><cc:Work
       rdf:about=""><dc:format>image/svg+xml</dc:format><dc:type
         rdf:resource="http://purl.org/dc/dcmitype/StillImage" /><dc:title></dc:title></cc:Work></rdf:RDF></metadata><defs
   id="defs41" /><sodipodi:namedview
   pagecolor="#ffffff"
   bordercolor="#666666"
   borderopacity="1"
   objecttolerance="10"
   gridtolerance="10"
   guidetolerance="10"
   inkscape:pageopacity="0"
   inkscape:pageshadow="2"
   inkscape:window-width="1920"
   inkscape:window-height="986"
   id="namedview39"
   showgrid="false"
   inkscape:zoom="1.84375"
   inkscape:cx="183.34156"
   inkscape:cy="64"
   inkscape:window-x="-11"
   inkscape:window-y="-11"
   inkscape:window-maximized="1"
   inkscape:current-layer="Layer_1" />
<path
   style="fill:#41479b;stroke:#000000;stroke-width:8;stroke-miterlimit:4;stroke-dasharray:none;stroke-opacity:1"
   d="M 86.18683,210.18353 H 6.88572 c -2.38875,0 -4.32572,-1.93697 -4.32572,-4.32572 V 50.139244 c 0,-2.38875 1.93697,-4.32572 4.32572,-4.32572 h 79.30111 z"
   id="path2"
   inkscape:connector-curvature="0" />
<rect
   x="86.188293"
   y="45.815979"
   style="fill:#f5f5f5;stroke:#000000;stroke-width:8;stroke-miterlimit:4;stroke-dasharray:none;stroke-opacity:1"
   width="83.628296"
   height="164.3705"
   id="rect4" />
<path
   style="fill:#ff4b55;stroke:#000000;stroke-width:8;stroke-miterlimit:4;stroke-dasharray:none;stroke-opacity:1"
   d="M 249.11428,210.18353 H 169.81317 V 45.814014 h 79.30111 c 2.38875,0 4.32572,1.93697 4.32572,4.32572 V 205.8583 c 0,2.38924 -1.93697,4.32523 -4.32572,4.32523 z"
   id="path6"
   inkscape:connector-curvature="0" />
<g
   id="g8"
   style="stroke:#000000;stroke-width:16.32653061;stroke-miterlimit:4;stroke-dasharray:none;stroke-opacity:1"
   transform="matrix(0.49,0,0,0.49,130.56,-125.44025)">
</g>
<g
   id="g10"
   style="stroke:#000000;stroke-width:16.32653061;stroke-miterlimit:4;stroke-dasharray:none;stroke-opacity:1"
   transform="matrix(0.49,0,0,0.49,130.56,-125.44025)">
</g>
<g
   id="g12"
   style="stroke:#000000;stroke-width:16.32653061;stroke-miterlimit:4;stroke-dasharray:none;stroke-opacity:1"
   transform="matrix(0.49,0,0,0.49,130.56,-125.44025)">
</g>
<g
   id="g14"
   style="stroke:#000000;stroke-width:16.32653061;stroke-miterlimit:4;stroke-dasharray:none;stroke-opacity:1"
   transform="matrix(0.49,0,0,0.49,130.56,-125.44025)">
</g>
<g
   id="g16"
   style="stroke:#000000;stroke-width:16.32653061;stroke-miterlimit:4;stroke-dasharray:none;stroke-opacity:1"
   transform="matrix(0.49,0,0,0.49,130.56,-125.44025)">
</g>
<g
   id="g18"
   style="stroke:#000000;stroke-width:16.32653061;stroke-miterlimit:4;stroke-dasharray:none;stroke-opacity:1"
   transform="matrix(0.49,0,0,0.49,130.56,-125.44025)">
</g>
<g
   id="g20"
   style="stroke:#000000;stroke-width:16.32653061;stroke-miterlimit:4;stroke-dasharray:none;stroke-opacity:1"
   transform="matrix(0.49,0,0,0.49,130.56,-125.44025)">
</g>
<g
   id="g22"
   style="stroke:#000000;stroke-width:16.32653061;stroke-miterlimit:4;stroke-dasharray:none;stroke-opacity:1"
   transform="matrix(0.49,0,0,0.49,130.56,-125.44025)">
</g>
<g
   id="g24"
   style="stroke:#000000;stroke-width:16.32653061;stroke-miterlimit:4;stroke-dasharray:none;stroke-opacity:1"
   transform="matrix(0.49,0,0,0.49,130.56,-125.44025)">
</g>
<g
   id="g26"
   style="stroke:#000000;stroke-width:16.32653061;stroke-miterlimit:4;stroke-dasharray:none;stroke-opacity:1"
   transform="matrix(0.49,0,0,0.49,130.56,-125.44025)">
</g>
<g
   id="g28"
   style="stroke:#000000;stroke-width:16.32653061;stroke-miterlimit:4;stroke-dasharray:none;stroke-opacity:1"
   transform="matrix(0.49,0,0,0.49,130.56,-125.44025)">
</g>
<g
   id="g30"
   style="stroke:#000000;stroke-width:16.32653061;stroke-miterlimit:4;stroke-dasharray:none;stroke-opacity:1"
   transform="matrix(0.49,0,0,0.49,130.56,-125.44025)">
</g>
<g
   id="g32"
   style="stroke:#000000;stroke-width:16.32653061;stroke-miterlimit:4;stroke-dasharray:none;stroke-opacity:1"
   transform="matrix(0.49,0,0,0.49,130.56,-125.44025)">
</g>
<g
   id="g34"
   style="stroke:#000000;stroke-width:16.32653061;stroke-miterlimit:4;stroke-dasharray:none;stroke-opacity:1"
   transform="matrix(0.49,0,0,0.49,130.56,-125.44025)">
</g>
<g
   id="g36"
   style="stroke:#000000;stroke-width:16.32653061;stroke-miterlimit:4;stroke-dasharray:none;stroke-opacity:1"
   transform="matrix(0.49,0,0,0.49,130.56,-125.44025)">
</g>
</svg>