<?xml version="1.0" encoding="UTF-8" standalone="no"?>
<!-- Generator: Adobe Illustrator 19.0.0, SVG Export Plug-In . SVG Version: 6.00 Build 0)  -->

<svg
   xmlns:dc="http://purl.org/dc/elements/1.1/"
   xmlns:cc="http://creativecommons.org/ns#"
   xmlns:rdf="http://www.w3.org/1999/02/22-rdf-syntax-ns#"
   xmlns:svg="http://www.w3.org/2000/svg"
   xmlns="http://www.w3.org/2000/svg"
   xmlns:sodipodi="http://sodipodi.sourceforge.net/DTD/sodipodi-0.dtd"
   xmlns:inkscape="http://www.inkscape.org/namespaces/inkscape"
   version="1.1"
   id="Capa_1"
   x="0px"
   y="0px"
   viewBox="0 0 368 368"
   style="enable-background:new 0 0 368 368;"
   xml:space="preserve"
   sodipodi:docname="greenwich_tube.svg"
   inkscape:version="0.92.4 (5da689c313, 2019-01-14)"><metadata
   id="metadata43"><rdf:RDF><cc:Work
       rdf:about=""><dc:format>image/svg+xml</dc:format><dc:type
         rdf:resource="http://purl.org/dc/dcmitype/StillImage" /><dc:title></dc:title></cc:Work></rdf:RDF></metadata><defs
   id="defs41" /><sodipodi:namedview
   pagecolor="#ffffff"
   bordercolor="#666666"
   borderopacity="1"
   objecttolerance="10"
   gridtolerance="10"
   guidetolerance="10"
   inkscape:pageopacity="0"
   inkscape:pageshadow="2"
   inkscape:window-width="1920"
   inkscape:window-height="986"
   id="namedview39"
   showgrid="false"
   inkscape:zoom="1.2826087"
   inkscape:cx="210.99001"
   inkscape:cy="140.92772"
   inkscape:window-x="-11"
   inkscape:window-y="-11"
   inkscape:window-maximized="1"
   inkscape:current-layer="Capa_1" />
<path
   style="fill:#00a6a8;fill-opacity:1;stroke:none;stroke-width:1.63728809"
   d="M 51.880427,136.58047 C 79.590974,65.66501 159.12049,29.560102 231.92884,54.841874 c 34.79049,12.080553 64.84436,39.399296 80.14592,72.851996 8.58361,18.76575 9.32627,17.48327 -10.12028,17.4763 l -22.89253,-0.006 -5.63893,-10.90457 C 266.39874,120.67576 252.53011,104.40183 238.02614,95.968838 220.23592,85.625127 206.19305,81.296045 185.18737,81.170886 159.6757,81.018878 146.8175,84.799836 125.91786,99.17917 115.58532,106.28815 99.613654,124.86462 91.916317,135.3232 l -3.251483,9.85279 H 65.593214 48.521593 Z"
   id="path850"
   inkscape:connector-curvature="0"
   sodipodi:nodetypes="csscccsssscccc" /><path
   style="fill:#00a6a8;fill-opacity:1;stroke:none;stroke-width:1.63728809"
   d="M 157.35212,318.91896 C 110.88004,310.13754 71.284335,274.01187 53.360528,230.54619 l -4.702345,-11.4033 h 16.882865 20.882864 l 6.324371,11.05169 c 9.560847,16.70735 27.937417,34.1511 44.863157,42.58582 18.15541,9.04751 26.09472,11.98194 45.11865,12.0723 26.89361,0.12774 50.39694,-7.85715 70.71593,-24.02462 10.03555,-7.98512 18.58151,-23.51597 24.05258,-34.72672 l 3.39587,-6.95847 h 20.97559 c 19.53188,0 18.68989,-1.49068 10.03057,17.75857 -9.33534,20.75203 -30.89178,47.32747 -51.09577,60.25178 -29.37485,18.79084 -68.77454,28.31856 -103.45274,21.76572 z"
   id="path852"
   inkscape:connector-curvature="0"
   sodipodi:nodetypes="sscccssssscssss" /><g
   id="g6">
	<g
   id="g4">
		<path
   d="M360,144h-29.456C312.592,77.768,253.32,32,184,32C114.696,32,55.408,77.768,37.464,144H8c-4.416,0-8,3.584-8,8v64    c0,4.416,3.584,8,8,8h29.464C55.408,290.232,114.696,336,184,336c69.312,0,128.592-45.768,146.544-112H360c4.424,0,8-3.584,8-8    v-64C368,147.584,364.424,144,360,144z M184,48c60.56,0,112.608,39.008,129.968,96h-34.016c-16.056-38.488-53.88-64-95.952-64    c-42.08,0-79.896,25.512-95.952,64H54.024C71.4,87.008,123.448,48,184,48z M262.344,144H105.656    c14.872-29.104,45.032-48,78.344-48C217.304,96,247.464,114.896,262.344,144z M184,320c-60.544,0-112.6-39.008-129.968-96h34.016    c16.056,38.488,53.88,64,95.952,64c42.08,0,79.904-25.512,95.944-64h34.024C296.6,280.992,244.552,320,184,320z M105.656,224    h156.688c-14.872,29.104-45.024,48-78.344,48C150.688,272,120.528,253.096,105.656,224z M352,208H16v-48h308.312    c0.04,0,0.072,0.016,0.112,0.016c0.056,0,0.12-0.016,0.176-0.016H352V208z"
   id="path2" />
	</g>
</g>
<g
   id="g8">
</g>
<g
   id="g10">
</g>
<g
   id="g12">
</g>
<g
   id="g14">
</g>
<g
   id="g16">
</g>
<g
   id="g18">
</g>
<g
   id="g20">
</g>
<g
   id="g22">
</g>
<g
   id="g24">
</g>
<g
   id="g26">
</g>
<g
   id="g28">
</g>
<g
   id="g30">
</g>
<g
   id="g32">
</g>
<g
   id="g34">
</g>
<g
   id="g36">
</g>
<path
   style="fill:#0377bc;fill-opacity:1;stroke:none;stroke-width:1.58520007"
   d="M 16,183.99322 V 159.98644 H 183.99999 352 V 183.99322 208 H 183.99999 16 Z"
   id="path854"
   inkscape:connector-curvature="0" /><text
   xml:space="preserve"
   style="font-style:normal;font-variant:normal;font-weight:normal;font-stretch:normal;font-size:40px;line-height:1.25;font-family:'Gill Sans MT';-inkscape-font-specification:'Gill Sans MT';letter-spacing:0px;word-spacing:0px;fill:#f9f9f9;fill-opacity:1;stroke:none"
   x="59.59375"
   y="198.57292"
   id="text834"><tspan
     sodipodi:role="line"
     id="tspan832"
     x="59.59375"
     y="198.57292"
     style="font-size:42.66666794px">GREENWICH</tspan></text>

</svg>