<svg height="480pt" viewBox="0 0 480 480" width="480pt" xmlns="http://www.w3.org/2000/svg"><path d="m240 8c128.128906 0 232 103.871094 232 232s-103.871094 232-232 232-232-103.871094-232-232 103.871094-232 232-232zm0 0" fill="#f19601"/><path d="m240 40c110.457031 0 200 89.542969 200 200s-89.542969 200-200 200-200-89.542969-200-200 89.542969-200 200-200zm0 0" fill="#ecd3bf"/><g fill="#b08149"><path d="m386.59375 104c-5.253906-5.644531-10.824219-10.988281-16.683594-16h-259.820312c-5.859375 5.011719-11.429688 10.355469-16.683594 16zm0 0"/><path d="m60.382812 152h359.203126c-2.691407-5.472656-5.601563-10.824219-8.761719-16h-341.679688c-3.160156 5.175781-6.074219 10.527344-8.761719 16zm0 0"/><path d="m44 200h392c-1.105469-5.425781-2.464844-10.742188-4-16h-384c-1.527344 5.257812-2.886719 10.574219-4 16zm0 0"/><path d="m40 240c0 2.679688.097656 5.34375.199219 8h399.601562c.101563-2.65625.199219-5.320312.199219-8s-.097656-5.34375-.199219-8h-399.601562c-.101563 2.65625-.199219 5.320312-.199219 8zm0 0"/><path d="m48 296h384c1.535156-5.257812 2.894531-10.574219 4-16h-392c1.113281 5.425781 2.472656 10.742188 4 16zm0 0"/><path d="m69.144531 344h341.710938c3.199219-5.175781 6.074219-10.527344 8.761719-16h-359.234376c2.6875 5.472656 5.601563 10.824219 8.761719 16zm0 0"/><path d="m93.40625 376c5.253906 5.644531 10.824219 10.988281 16.683594 16h259.820312c5.859375-5.011719 11.429688-10.355469 16.683594-16zm0 0"/></g><path d="m152 224c39.765625 0 72 32.234375 72 72s-32.234375 72-72 72-72-32.234375-72-72 32.234375-72 72-72zm0 0" fill="#fef2e4"/><path d="m328 224c39.765625 0 72 32.234375 72 72s-32.234375 72-72 72-72-32.234375-72-72 32.234375-72 72-72zm0 0" fill="#fef2e4"/><path d="m240 72c39.765625 0 72 32.234375 72 72s-32.234375 72-72 72-72-32.234375-72-72 32.234375-72 72-72zm0 0" fill="#fef2e4"/><path d="m240 0c-132.546875 0-240 107.453125-240 240s107.453125 240 240 240 240-107.453125 240-240c-.148438-132.484375-107.515625-239.851562-240-240zm0 464c-123.710938 0-224-100.289062-224-224s100.289062-224 224-224 224 100.289062 224 224c-.140625 123.652344-100.347656 223.859375-224 224zm0 0"/><path d="m240 32c-114.875 0-208 93.125-208 208s93.125 208 208 208 208-93.125 208-208c-.128906-114.820312-93.179688-207.871094-208-208zm-183.648438 264h15.648438c0 11.019531 2.289062 21.914062 6.726562 32h-9.285156c-5.324218-10.246094-9.707031-20.957031-13.089844-32zm17.25-16h-21.378906c-2.230468-10.535156-3.566406-21.238281-4-32h39.953125c-7.1875 9.445312-12.167969 20.378906-14.574219 32zm78.398438-48c35.347656 0 64 28.652344 64 64s-28.652344 64-64 64-64-28.652344-64-64c.039062-35.328125 28.671875-63.960938 64-64zm80 64h16c0 11.019531 2.289062 21.914062 6.726562 32h-29.453124c4.4375-10.085938 6.726562-20.980469 6.726562-32zm17.601562-16h-19.203124c-2.394532-11.617188-7.363282-22.550781-14.535157-32h48.304688c-7.183594 9.445312-12.160157 20.378906-14.566407 32zm78.398438-48c35.347656 0 64 28.652344 64 64s-28.652344 64-64 64-64-28.652344-64-64c.039062-35.328125 28.671875-63.960938 64-64zm80 64h15.648438c-3.382813 11.042969-7.765626 21.753906-13.089844 32h-9.285156c4.4375-10.085938 6.726562-20.980469 6.726562-32zm-1.601562-16c-2.394532-11.617188-7.363282-22.550781-14.535157-32h39.953125c-.429687 10.761719-1.769531 21.464844-4 32zm-30.398438-48v.152344c-28.375-21.535156-67.625-21.535156-96 0v-.152344h-80v.152344c-28.375-21.535156-67.625-21.535156-96 0v-.152344h-55.800781c.433593-10.761719 1.769531-21.464844 4-32h130.769531c15.003906 15.347656 35.566406 24 57.03125 24s42.027344-8.652344 57.03125-24h130.746094c2.230468 10.535156 3.566406 21.238281 4 32zm-215.59375-80c1.136719 11.289062 4.683594 22.203125 10.402344 32h-114.457032c3.382813-11.042969 7.765626-21.753906 13.089844-32zm79.59375-72c35.347656 0 64 28.652344 64 64s-28.652344 64-64 64-64-28.652344-64-64c.039062-35.328125 28.671875-63.960938 64-64zm79.59375 72h90.964844c5.324218 10.246094 9.707031 20.957031 13.089844 32h-114.472657c5.722657-9.796875 9.277344-20.710938 10.417969-32zm81.671875-16h-81.671875c-1.136719-11.289062-4.683594-22.203125-10.402344-32h66.207032c9.734374 9.71875 18.40625 20.445312 25.867187 32zm-44.160156-48h-60.074219c-15.003906-15.347656-35.566406-24-57.03125-24s-42.027344 8.652344-57.03125 24h-60.074219c68.960938-53.332031 165.25-53.332031 234.210938 0zm-252.488281 16h66.207031c-5.71875 9.796875-9.265625 20.710938-10.398438 32h-81.691406c7.46875-11.554688 16.144531-22.28125 25.882813-32zm18.277343 288h234.210938c-68.960938 53.332031-165.25 53.332031-234.210938 0zm252.488281-16h-270.765624c-9.738282-9.71875-18.414063-20.445312-25.882813-32h9.265625v-.207031c15.03125 20.261719 38.769531 32.207031 64 32.207031s48.96875-11.945312 64-32.207031v.207031h48v-.207031c15.03125 20.261719 38.769531 32.207031 64 32.207031s48.96875-11.945312 64-32.207031v.207031h9.265625c-7.46875 11.554688-16.144531 22.28125-25.882813 32zm0 0"/><path d="m309.65625 325.65625 18.34375-18.34375 18.34375 18.34375 11.3125-11.3125-18.34375-18.34375 18.34375-18.34375-11.3125-11.3125-18.34375 18.34375-18.34375-18.34375-11.3125 11.3125 18.34375 18.34375-18.34375 18.34375zm0 0"/><path d="m240 136c2.121094 0 4.15625-.84375 5.65625-2.34375l16-16-11.3125-11.3125-10.34375 10.34375-10.34375-10.34375-11.3125 11.3125 16 16c1.5 1.5 3.535156 2.34375 5.65625 2.34375zm0 0"/><path d="m212.558594 171.792969 15.457031 4.136719 5.847656-21.859376c1.144531-4.265624-1.386719-8.65625-5.65625-9.796874l-21.808593-5.875-4.140626 15.449218 14.125 3.792969zm0 0"/><path d="m246.136719 154.070312 5.847656 21.859376 15.457031-4.136719-3.785156-14.136719 14.128906-3.792969-4.144531-15.464843-21.847656 5.859374c-2.054688.546876-3.804688 1.890626-4.867188 3.734376-1.058593 1.839843-1.34375 4.027343-.789062 6.078124zm0 0"/><path d="m120 288h16v16h-16zm0 0"/><path d="m168 288h16v16h-16zm0 0"/></svg>