<?xml version="1.0" encoding="UTF-8" standalone="no"?>
<svg
   viewBox="0 0 128 128"
   version="1.1"
   x="0px"
   y="0px"
   id="svg38"
   sodipodi:docname="haiti_flag.svg"
   inkscape:version="1.1.1 (3bf5ae0d25, 2021-09-20)"
   width="128"
   height="128"
   xmlns:inkscape="http://www.inkscape.org/namespaces/inkscape"
   xmlns:sodipodi="http://sodipodi.sourceforge.net/DTD/sodipodi-0.dtd"
   xmlns="http://www.w3.org/2000/svg"
   xmlns:svg="http://www.w3.org/2000/svg"
   xmlns:rdf="http://www.w3.org/1999/02/22-rdf-syntax-ns#"
   xmlns:cc="http://creativecommons.org/ns#"
   xmlns:dc="http://purl.org/dc/elements/1.1/">
  <defs
     id="defs42" />
  <sodipodi:namedview
     id="namedview40"
     pagecolor="#ffffff"
     bordercolor="#666666"
     borderopacity="1.0"
     inkscape:pageshadow="2"
     inkscape:pageopacity="0.0"
     inkscape:pagecheckerboard="0"
     showgrid="false"
     inkscape:zoom="8"
     inkscape:cx="66.1875"
     inkscape:cy="62.8125"
     inkscape:window-width="1920"
     inkscape:window-height="1017"
     inkscape:window-x="-8"
     inkscape:window-y="-8"
     inkscape:window-maximized="1"
     inkscape:current-layer="g26"
     width="128px" />
  <title
     id="title2">svg/097-HTI--Haiti</title>
  <desc
     id="desc4">Created with Sketch.</desc>
  <g
     stroke="none"
     stroke-width="1"
     fill="none"
     fill-rule="evenodd"
     id="g32"
     transform="translate(0,4.125)">
    <g
       transform="translate(-623,-606)"
       id="g30">
      <g
         transform="translate(622.5,605.5)"
         fill="#000000"
         fill-rule="nonzero"
         id="g28">
        <g
           transform="matrix(2.5510203,0,0,2.5510203,28.785714,29.762756)"
           id="g26">
          <rect
             style="fill:#ef3340;fill-opacity:1;fill-rule:evenodd;stroke-width:4.43429;stroke-miterlimit:4;stroke-dasharray:none"
             id="rect1270-5"
             width="47.768936"
             height="15.384615"
             x="-9.8845825"
             y="12.5" />
          <rect
             style="fill:#003da5;fill-opacity:1;fill-rule:evenodd;stroke-width:4.42888;stroke-miterlimit:4;stroke-dasharray:none"
             id="rect1270"
             width="48.087254"
             height="15.245576"
             x="-10.043626"
             y="-3.7196975" />
          <rect
             style="fill:#ffffff;fill-opacity:1;fill-rule:evenodd;stroke-width:2.39241"
             id="rect3388"
             width="20.833334"
             height="17.736111"
             x="3.5833325"
             y="3.1319444" />
          <polygon
             points="0.82912847,19.030103 6.3291285,17.030103 6.6708715,17.969897 1.1708715,19.969897 "
             id="polygon14"
             transform="matrix(0.81481481,0,0,0.81481481,2.5925927,2.2222223)" />
          <polygon
             transform="matrix(-0.81481481,0,0,0.81481481,41.53668,2.2222223)"
             points="20.829128,19.030103 26.329128,17.030103 26.670872,17.969897 21.170872,19.969897 "
             id="polygon16" />
          <path
             d="m 6.0482064,18.892077 0.6187305,0.521172 -0.6275441,0.335244 c 1.6184689,0.574602 3.2625448,-0.637713 3.5481507,-0.862931 0.2790196,0.156213 1.8382945,0.958769 4.4234665,0.958769 2.483778,0 4.010273,-0.734501 4.380592,-0.934936 0.419707,0.685042 2.684278,1.155128 3.53668,0.818023 l -0.630047,-0.357591 0.557516,-0.508899 C 19.189573,18.99381 18.76649,18.094705 18.303848,17.897 c -0.377871,0.439574 -1.974393,0.8048 -4.292838,0.8048 -1.526117,0 -3.015701,-0.268267 -4.4687502,-0.8048 -0.808415,0.872704 -1.9730994,1.204395 -3.4940534,0.995077 z"
             id="path18"
             style="fill:#f1b517;fill-opacity:1;stroke-width:0.814815" />
          <path
             d="M 7.8779265,16.684193 C 6.0005224,15.055309 6.482266,12.483677 9.1462562,9.0853439 L 9.3628851,8.809 l 4.6354829,2.760005 4.637797,-2.7599409 0.21658,0.2762798 c 2.663989,3.3983331 3.145731,5.9699651 1.268329,7.5988491 -1.779761,1.544165 -3.860374,1.340722 -6.121575,-0.536937 -2.261199,1.877659 -4.3418124,2.081102 -6.1215725,0.536937 z m 0.5231571,-0.602977 c 1.5007947,1.302128 3.2212194,1.088055 5.2936244,-0.722984 l 0.112821,-0.09859 h 0.383941 l 0.112822,0.09859 c 2.072405,1.811039 3.79283,2.025112 5.293625,0.722984 1.416917,-1.229353 1.084319,-3.269286 -1.159208,-6.225692 L 13.998261,12.498021 9.5602402,9.8555891 C 7.3167587,12.81196 6.9841768,14.851872 8.4010836,16.081216 Z"
             id="path22"
             style="stroke-width:0.798295" />
          <path
             d="m 13.999999,5.995 c 0.345179,0 0.625001,0.2914122 0.625001,0.6508875 v 8.4615375 c 0,0.359476 -0.279822,0.650888 -0.625001,0.650888 -0.345177,0 -0.624999,-0.291412 -0.624999,-0.650888 V 6.6458875 C 13.375,6.2864122 13.654822,5.995 13.999999,5.995 Z"
             id="path24"
             style="fill:#f1b517;fill-opacity:1;stroke-width:0.769231" />
          <path
             style="fill:#016a16;fill-opacity:1;stroke:none;stroke-width:0.0480769"
             d="m 3.8620606,19.367704 0.01294,-1.066226 2.0248169,-0.736703 2.024816,-0.736704 0.330953,0.222138 c 0.684782,0.459634 1.3025,0.650035 2.1097995,0.650314 1.062946,3.66e-4 2.012468,-0.368266 3.207668,-1.245309 0.242698,-0.178091 0.442828,-0.293018 0.475305,-0.272946 0.03085,0.01907 0.188761,0.135082 0.350904,0.257809 1.088588,0.823949 2.196999,1.261898 3.201699,1.26504 0.767534,0.0024 1.464964,-0.202671 2.092601,-0.6153 l 0.335283,-0.220429 2.043269,0.742145 2.04327,0.742145 0.01296,1.040126 0.01296,1.040127 H 13.99521 3.8491216 Z m 4.2189469,0.350281 c 0.463473,-0.157716 0.980533,-0.418223 1.32302,-0.666569 l 0.189425,-0.137357 0.289179,0.14008 c 1.9459875,0.942649 5.1909405,1.067371 7.5237365,0.289181 0.276386,-0.0922 0.605198,-0.219665 0.730695,-0.283258 l 0.228171,-0.115624 0.158728,0.145997 c 0.4878,0.448674 1.85427,0.813021 2.826312,0.753589 0.401157,-0.02453 0.578177,-0.06268 0.577039,-0.124372 -3.37e-4,-0.017 -0.133878,-0.104156 -0.296809,-0.193674 l -0.296239,-0.162759 0.282306,-0.250485 0.282306,-0.250487 -0.790785,-0.02817 c -1.151714,-0.04103 -1.685757,-0.197698 -2.418935,-0.709604 l -0.355067,-0.247907 -0.193307,0.127925 c -0.628696,0.416051 -2.099559,0.653726 -4.047908,0.654097 -1.57403,2.98e-4 -2.60898,-0.157322 -4.025769,-0.613115 L 9.5284445,17.87218 9.2680325,18.110181 c -0.327139,0.298987 -0.830855,0.565835 -1.316087,0.69721 -0.305797,0.08279 -0.515924,0.101864 -1.138334,0.103312 l -0.7633119,0.0018 0.279556,0.248045 0.2795549,0.248045 -0.3080509,0.173601 c -0.1937401,0.109182 -0.281833,0.182697 -0.237398,0.198113 0.2853869,0.09901 0.4774689,0.119948 0.9841149,0.107292 0.501175,-0.01252 0.636796,-0.03479 1.032931,-0.169588 z"
             id="path3929"
             sodipodi:nodetypes="ccccsssscsscccccccccscssscsscscccsscssscssccccssscc" />
          <path
             d="M 14.27898,8.9443219 14.747963,9.09694 c 0.209991,-0.4176912 0.394506,-1.8599041 0.37805,-1.9112268 0,0 0.480657,0.2293505 0.792976,0.732175 0.02976,-0.3277857 -0.199101,-0.9308554 -0.544246,-1.4261593 0,0 1.712688,0.4829129 1.877959,0.5961257 C 16.957677,6.5353776 15.97153,5.8417366 15.366886,5.741809 15.826635,5.4607822 17.746875,6.7450741 17.823181,6.7834003 17.719008,5.7644683 16.915844,5.4628035 16.350682,5.2203292 16.819076,4.9467495 17.953235,5.5935872 18.2035,5.5162693 17.775283,4.5878244 16.207779,4.6543979 15.166658,4.9467495 15.366886,4.5811013 17.04983,4.3985384 17.252702,4.3554894 16.94817,4.1107432 15.676658,3.2535779 14.057853,4.9796003 l -0.621734,0.026261 C 11.805666,3.2449332 10.522864,4.1095113 10.216798,4.3554894 10.665926,4.2454287 11.511417,4.4323084 11.469284,4.7098462 10.104155,4.4841769 9.465951,4.8759055 9.266,5.3094318 9.5162646,5.3867496 10.330324,5.0265897 11.038498,5.0908592 10.665926,5.2456569 9.7504917,5.5576306 9.6463191,6.5765627 9.7226252,6.5382365 10.818516,5.6318025 12.003728,5.6080636 11.04051,6.02249 10.511823,6.32854 10.216798,6.881017 c 0.219523,0.042061 1.877959,-0.5961257 1.877959,-0.5961257 -0.345145,0.4953039 -0.574005,1.0983736 -0.544246,1.4261594 0.312319,-0.5028246 1.171027,-0.780885 1.171027,-0.780885 0,0 -0.391986,0.73096 -0.356987,1.1807817 0,0 0.146995,0.3614635 0.356987,0.7791551 0,0 0.365975,-0.4919922 0.428974,-0.5723175 l 0.433061,-2.0402623 0.767017,0.00737 z"
             id="path20"
             style="fill:#016a16;fill-opacity:1;stroke-width:0.814815" />
          <ellipse
             style="fill:#ef3340;fill-opacity:1;stroke:#000000;stroke-width:0.999998;stroke-linecap:round;stroke-linejoin:round;stroke-miterlimit:4;stroke-dasharray:none;paint-order:markers stroke fill"
             id="path4435"
             cx="14"
             cy="14.668269"
             rx="2.5961537"
             ry="2.4759614" />
          <path
             style="fill:#003da5;fill-opacity:1;stroke:none;stroke-width:0.0480769"
             d="M 9.944059,16.923669 C 9.355953,16.837569 8.71559,16.495167 8.198628,15.990385 7.620741,15.426113 7.428132,14.917584 7.471076,14.069488 7.510796,13.285048 7.74644,12.573019 8.282294,11.618273 8.560975,11.121742 9.166808,10.200475 9.366062,9.9702301 L 9.5,9.8154601 l 1.700301,1.0167859 1.7003,1.016786 -0.378185,0.189497 c -0.522023,0.261571 -1.091573,0.834152 -1.329011,1.336085 -0.220532,0.466196 -0.295543,0.794534 -0.295543,1.293655 0,0.672473 0.202067,1.278159 0.58831,1.763429 l 0.198192,0.249006 -0.298913,0.09873 c -0.290716,0.09602 -0.874043,0.199627 -1.068143,0.189715 -0.05288,-0.0027 -0.220847,-0.02317 -0.373249,-0.04548 z"
             id="path6504" />
          <path
             style="fill:#003da5;fill-opacity:1;stroke:none;stroke-width:0.0480769"
             d="m 17.193788,16.924246 c -0.15784,-0.02399 -0.423001,-0.08888 -0.589247,-0.144201 l -0.302265,-0.100587 0.171706,-0.200306 c 0.369725,-0.431305 0.644541,-1.203421 0.644541,-1.810883 0,-1.090791 -0.676563,-2.155424 -1.690257,-2.659773 l -0.327079,-0.162733 1.712489,-1.017791 c 1.591325,-0.9457779 1.717295,-1.0117559 1.780397,-0.9324969 0.03735,0.04691 0.280865,0.4028609 0.541146,0.7909989 1.447796,2.158989 1.786179,3.796709 1.015817,4.916393 -0.189284,0.275113 -0.657408,0.701196 -0.99709,0.907542 -0.570565,0.3466 -1.337351,0.508487 -1.960158,0.413837 z"
             id="path6543" />
          <path
             d="M 4.0462961,3.6388892 V 20.361111 H 23.953703 V 3.6388892 Z M 24.75,2.8425929 V 21.157407 H 3.2499999 V 2.8425929 Z"
             id="path12"
             style="stroke-width:0.19600001;stroke:#000000;stroke-opacity:1;stroke-miterlimit:4;stroke-dasharray:none;stroke-linejoin:round;stroke-linecap:round" />
        </g>
        <path
           d="M 3.1122448,19.885202 V 100.86479 H 125.88776 V 19.885202 Z M 128.5,17.272957 V 103.47704 H 0.5 V 17.272957 Z"
           id="path6"
           style="stroke:#000000;stroke-width:1;stroke-linecap:round;stroke-linejoin:round;stroke-miterlimit:4;stroke-dasharray:none;stroke-opacity:1" />
        <polygon
           points="12,16.5 12,17.5 1,17.5 1,16.5 "
           id="polygon8"
           transform="matrix(3.1196482,0,0,3.351,0.1558621,3.408)" />
        <polygon
           points="49,16.5 49,17.5 38,17.5 38,16.5 "
           id="polygon10"
           transform="matrix(3.07505,0,0,3.351,-24.952955,3.408)" />
      </g>
    </g>
  </g>
  <metadata
     id="metadata1660">
    <rdf:RDF>
      <cc:Work
         rdf:about="">
        <dc:title>svg/097-HTI--Haiti</dc:title>
      </cc:Work>
    </rdf:RDF>
  </metadata>
</svg>
