<svg id="Capa_1" enable-background="new 0 0 512 512" height="512" viewBox="0 0 512 512" width="512" xmlns="http://www.w3.org/2000/svg"><path d="m54.983 271.97c17.864-37.809 46.118-69.74 81.069-92.135-26.043-8.797-58.546-28.012-89.72-69.018-34.527-45.419-70.454 89.846 8.651 161.153z" fill="#e7e7e7"/><path d="m456.273 272.569c79.977-71.144 43.945-207.299 9.321-161.753-31.384 41.284-64.112 60.475-90.243 69.19 34.962 22.467 63.177 54.515 80.922 92.563z" fill="#e7e7e7"/><path d="m68.33 393.119c-.305-5.232-.395-10.522-.261-15.861 2.557-101.464 86.398-182.883 187.894-182.591 103.247.297 186.853 84.086 186.853 187.403 0 3.643-.105 7.262-.31 10.854-.539 9.418 6.845 17.389 16.278 17.389 8.209 0 15.098-6.105 16.186-14.241 1.365-10.203 2.036-20.625 1.959-31.22-.903-124.148-102.653-222.712-226.771-219.822-119.916 2.791-216.268 100.874-216.268 221.461 0 10.106.681 20.052 1.994 29.798 1.085 8.053 8.029 14.025 16.155 14.025h.005c9.357-.001 16.831-7.854 16.286-17.195z" fill="#ff4755"/><path d="m110.442 168.44c-30.717 21.015-56.649 48.509-75.804 80.532 5.716 8.14 12.457 15.887 20.345 22.998 17.864-37.809 46.118-69.74 81.069-92.135-8.001-2.704-16.614-6.395-25.61-11.395z" fill="#cecece"/><path d="m401.079 168.662c-9.045 4.993-17.699 8.666-25.729 11.344 34.962 22.467 63.178 54.514 80.923 92.563 7.958-7.079 14.764-14.804 20.54-22.927-19.074-32.238-44.987-59.875-75.734-80.98z" fill="#cecece"/><path d="m458.784 410.313c8.209 0 15.098-6.105 16.186-14.242.71-5.309 1.228-10.678 1.555-16.098-7.093-118.468-106.254-210.684-226.367-207.888-115.418 2.687-208.99 93.655-215.848 207.994.332 5.458.854 10.865 1.574 16.21 1.085 8.053 8.029 14.025 16.155 14.025h.005c9.356 0 16.83-7.854 16.285-17.194-.305-5.232-.395-10.522-.261-15.861 2.557-101.464 86.398-182.883 187.894-182.591 103.247.297 186.853 84.086 186.853 187.403 0 3.643-.105 7.262-.31 10.854-.539 9.417 6.846 17.388 16.279 17.388z" fill="#fc2b3a"/><path d="m70.411 351.131c-4.114-.517-7.875 2.4-8.395 6.519-.805 6.403-1.297 12.937-1.46 19.419-.138 5.473-.047 11.02.271 16.488.291 4.977-3.828 9.241-8.788 9.241-4.387 0-8.13-3.23-8.707-7.513-1.278-9.49-1.927-19.177-1.927-28.795 0-51.209 18.371-100.759 51.728-139.52 33.009-38.358 78.551-63.855 128.236-71.794 4.098-.655 6.89-4.509 6.235-8.607-.656-4.098-4.508-6.893-8.607-6.235-29.878 4.775-58.353 15.478-83.835 31.218-30.518-11.148-58.375-33.094-82.846-65.284-8.925-11.739-17.754-12.878-23.59-11.762-10.672 2.039-19.332 13.121-24.383 31.203-9.67 34.618-6.174 101.669 41.624 148.103-12.812 28.966-19.592 60.515-19.592 92.678 0 10.286.694 20.65 2.062 30.801 1.576 11.709 11.723 20.538 23.607 20.538 6.398 0 12.678-2.659 17.132-7.253 4.581-4.725 7.04-11.323 6.656-17.893-.293-5.051-.378-10.177-.249-15.235.15-5.985.603-12.015 1.346-17.922.518-4.119-2.4-7.877-6.518-8.395zm-51.334-155.477c-5.356-22.666-5.452-47.303-.256-65.901 3.679-13.172 9.044-19.779 12.727-20.483 2.311-.433 5.522 1.779 8.802 6.095 23.626 31.077 50.413 53.327 79.788 66.322-14.009 10.261-26.916 22.138-38.397 35.48-11.236 13.057-20.88 27.258-28.826 42.297-20.416-21.486-29.661-46.133-33.838-63.81z"/><path d="m510.574 140.18c-3.171-22.21-11.174-38.165-21.958-43.773-4.636-2.412-16.741-6.272-29.006 9.86-24.591 32.348-52.594 54.345-83.281 65.439-37.458-23.293-80.984-35.249-126.347-34.19-4.149.097-7.435 3.539-7.338 7.689.096 4.149 3.498 7.437 7.689 7.338 58.026-1.354 112.817 20.033 154.246 60.213 41.387 40.142 64.413 94.177 64.835 152.15.072 10.081-.564 20.231-1.893 30.169-.589 4.403-4.345 7.722-8.737 7.722-5.062 0-9.062-4.433-8.776-9.443.214-3.723.323-7.52.323-11.285 0-51.965-20.208-100.847-56.902-137.641-36.687-36.787-85.499-57.128-137.444-57.278-.194-.001-.383-.001-.576-.001-42.644 0-83.207 13.642-117.333 39.467-33.218 25.139-57.958 60.804-69.661 100.424-1.176 3.98 1.098 8.161 5.078 9.337 3.986 1.175 8.16-1.099 9.337-5.079 10.8-36.562 33.642-69.482 64.317-92.696 31.636-23.941 69.221-36.563 108.796-36.421 47.939.138 92.986 18.911 126.844 52.861 33.863 33.958 52.513 79.071 52.513 127.029 0 3.478-.1 6.984-.298 10.424-.775 13.523 10.213 25.334 23.781 25.334 11.892 0 22.052-8.925 23.634-20.761 1.422-10.632 2.103-21.489 2.026-32.271-.231-31.716-6.801-62.326-19.074-90.42 10.292-9.901 19.087-21.31 26.178-33.995 2.025-3.623.729-8.202-2.894-10.227-3.626-2.027-8.202-.729-10.227 2.894-5.536 9.905-12.23 18.931-19.946 26.955-11.142-21.268-25.712-40.844-43.438-58.037-7.508-7.282-15.436-13.973-23.711-20.081 29.553-12.962 56.494-35.278 80.245-66.522 3.931-5.172 7.328-7.061 10.106-5.621 11.768 6.12 23.013 50.286 8.062 97.113-1.197 3.751.8 7.898 4.476 9.305 3.979 1.522 8.548-.679 9.842-4.733 7.435-23.284 9.747-48.587 6.512-71.248z"/></svg>