<?xml version="1.0" encoding="iso-8859-1"?>
<!-- Generator: Adobe Illustrator 19.0.0, SVG Export Plug-In . SVG Version: 6.00 Build 0)  -->
<svg version="1.1" id="Capa_1" xmlns="http://www.w3.org/2000/svg" xmlns:xlink="http://www.w3.org/1999/xlink" x="0px" y="0px"
	 viewBox="0 0 511.999 511.999" style="enable-background:new 0 0 511.999 511.999;" xml:space="preserve">
<g>
	<circle style="fill:#E69C3A;" cx="344.005" cy="250.325" r="32.347"/>
	<path style="fill:#E69C3A;" d="M108.942,277.243c-2.651-4.226-8.707-4.477-11.771-0.54c-6.38,8.198-11.775,22.185,3.254,39.533
		l20.265-24.918C120.69,291.317,113.412,284.369,108.942,277.243z"/>
</g>
<path style="fill:#FAA330;" d="M435.748,300.85c0.003-0.002,0.014-0.009,0.014-0.009l0.02,0.01
	c-0.518-2.246-1.118-4.493-1.819-6.719c-13.714-43.693-52.079-52.506-92.59-42.828c-30.508,7.289-60.496,15.939-92.204,14.821
	c-80.402,1.24-162.114,0.732-160.05,110.838l-1.199,25.212l73.438,56.166l45.37,7.045L413.57,356.571l22.212-55.719L435.748,300.85z
	"/>
<g>
	<path style="fill:#E69C3A;" d="M256,428.344c-71.141,0-132.374-43.204-158.859-104.75c-5.529,14.02-8.433,31.507-8.023,53.368
		l-1.199,25.213l73.438,56.166l45.37,7.045l73.709-38.776C272.451,427.744,264.295,428.344,256,428.344z"/>
	<path style="fill:#E69C3A;" d="M427.296,278.651c-4.846,36.027-20.831,68.567-44.366,94.039l30.641-16.119l22.212-55.719
		l-0.034-0.001c0.003-0.002,0.014-0.009,0.014-0.009l0.02,0.01c-0.518-2.246-1.118-4.493-1.819-6.719
		C432.156,288.372,429.909,283.236,427.296,278.651z"/>
</g>
<path style="fill:#F0F0F0;" d="M419.253,394.854l-122.325,84.528l-90.201-13.998l-4.351-14.201
	c-5.845-28.972,32.276-91.665,104.789-103.183c72.523-11.518,128.597-47.159,128.597-47.159l0.02,0.01
	C442.99,332.396,432.743,366.38,419.253,394.854z"/>
<path style="fill:#D9D9D9;" d="M435.762,300.841c0,0-5.628,3.576-15.615,8.826C397.364,378.522,332.396,428.344,256,428.344
	c-16.887,0-33.211-2.446-48.651-6.982c-4.854,11.314-6.583,21.846-4.974,29.82l4.351,14.201l90.201,13.999l122.325-84.528
	c13.49-28.474,23.737-62.459,16.53-94.003L435.762,300.841z"/>
<path style="fill:#7EDEE6;" d="M256.001,7.446C119.009,7.446,7.955,118.499,7.955,255.491S119.009,503.536,256,503.536
	s248.045-111.054,248.045-248.045S392.992,7.446,256.001,7.446z M256.001,458.35c-112.035,0-202.859-90.823-202.859-202.859
	S143.965,52.633,256.001,52.633S458.86,143.455,458.86,255.492S368.036,458.35,256.001,458.35z"/>
<path style="fill:#CBFDFF;" d="M418.326,504.554c-5.886,0-11.724-2.543-15.743-7.452L256.001,318.082L109.418,497.103
	c-7.115,8.687-19.924,9.963-28.611,2.851c-8.688-7.115-9.964-19.923-2.851-28.612L240.27,273.108
	c3.862-4.716,9.636-7.451,15.731-7.451c6.095,0,11.87,2.735,15.731,7.451l162.315,198.233c7.115,8.689,5.837,21.498-2.851,28.612
	C427.417,503.046,422.857,504.554,418.326,504.554z"/>
<path style="fill:#7EDEE6;" d="M271.731,273.108c-3.862-4.716-9.636-7.451-15.731-7.451c-6.095,0-11.87,2.735-15.731,7.451
	l-44.866,54.794c7.825,11.278,18.706,20.277,31.444,25.785l29.152-35.605l29.153,35.605c12.738-5.506,23.619-14.506,31.444-25.785
	L271.731,273.108z"/>
<circle style="fill:#77CCD9;" cx="255.996" cy="285.993" r="43.713"/>
<circle style="fill:#CBFDFF;" cx="255.996" cy="285.993" r="17.282"/>
<path d="M256,310.828c13.665,0,24.783-11.118,24.783-24.783c0-13.666-11.118-24.783-24.783-24.783
	c-13.666,0-24.783,11.117-24.783,24.783C231.217,299.711,242.334,310.828,256,310.828z M256,276.264c5.393,0,9.78,4.388,9.78,9.78
	s-4.387,9.78-9.78,9.78c-5.393,0-9.78-4.387-9.78-9.78S250.608,276.264,256,276.264z"/>
<path d="M392.524,295.531c2.213,3.324,6.952,4.384,10.401,2.085c3.449-2.297,4.383-6.954,2.086-10.402l-4.933-7.408
	c-2.296-3.449-6.954-4.383-10.402-2.086c-3.448,2.297-4.382,6.954-2.085,10.401C387.591,288.122,392.523,295.528,392.524,295.531z"
	/>
<path d="M28.295,354.305c3.849-1.534,5.725-5.897,4.191-9.746c-11.3-28.349-17.03-58.297-17.03-89.012
	c0-64.251,25.021-124.657,70.453-170.09S191.749,15.003,256,15.003s124.657,25.021,170.09,70.453s70.453,105.838,70.453,170.09
	c0,69.459-29.671,134.859-81.661,180.606l-19.137-23.372c3.677-3.266,7.224-6.671,10.663-10.185
	c38.23-39.049,59.95-92.404,59.95-147.049c0-49.389-17.472-97.397-49.197-135.181c-2.665-3.173-7.397-3.585-10.568-0.921
	c-3.173,2.664-3.585,7.396-0.921,10.568c29.459,35.086,45.683,79.667,45.683,125.533c0,17.563-2.353,34.801-6.845,51.344
	c-0.975-6.655-2.62-13.187-4.96-19.494c3.988-1.821,6.764-5.834,6.764-10.505c0-6.381-5.172-11.553-11.554-11.553
	c-2.273,0-4.388,0.666-6.175,1.8c-10.908-14.32-26.491-23.186-45.811-25.918c-4.174-17.639-20.124-30.687-38.774-30.687
	c-21.973,0-39.85,17.877-39.85,39.85c0,0.705,0.028,1.409,0.065,2.112c-2.72,0.594-5.439,1.168-8.151,1.704
	c-9.391-11.791-23.856-19.369-40.066-19.369c-18.544,0-34.817,9.907-43.806,24.705c-31.343,1.309-63.345,4.97-88.011,20.246
	c-0.879,0.544-1.744,1.101-2.597,1.669c-2.061-2.31-4.469-5.234-6.29-8.139c-2.692-4.292-7.331-6.854-12.41-6.854
	c-4.58,0-8.82,2.074-11.636,5.691c-10.785,13.857-10.562,30.092,0.397,45.14c-3.896,8.826-6.651,18.736-8.28,29.779
	c-14.766-27.825-22.726-59.13-22.726-91.522c0-107.721,87.637-195.357,195.358-195.357c47.779,0,93.772,17.442,129.508,49.114
	c3.101,2.748,7.842,2.463,10.589-0.638s2.462-7.842-0.638-10.589c-38.483-34.106-88.011-52.889-139.461-52.889
	c-115.993,0-210.361,94.368-210.361,210.36c0,60.379,25.643,117.264,70.614,157.234l-19.137,23.372
	c-20.629-18.149-37.86-39.494-51.285-63.543c-2.019-3.617-6.588-4.913-10.207-2.894c-3.618,2.019-4.913,6.588-2.894,10.206
	c14.347,25.7,32.796,48.484,54.884,67.835l-15.463,18.886c-9.722,11.875-7.972,29.444,3.903,39.168
	c11.739,9.612,29.579,7.808,39.169-3.902l18.131-22.143c37.44,20.507,79.7,31.326,122.648,31.326s85.208-10.818,122.648-31.326
	c0,0,18.114,22.123,18.131,22.143c9.602,11.728,27.443,13.5,39.169,3.902c11.875-9.724,13.625-27.294,3.902-39.169l-15.458-18.879
	c55.483-48.615,87.156-118.244,87.156-192.218c0-68.259-26.582-132.433-74.848-180.7C388.433,26.582,324.259,0,256,0
	S123.567,26.582,75.3,74.848C27.034,123.114,0.453,187.288,0.453,255.547c0,32.626,6.088,64.444,18.097,94.568
	C20.083,353.963,24.447,355.84,28.295,354.305z M336.251,433.681c-25.133,11.324-52.686,17.224-80.251,17.224
	c-15.765,0-31.468-1.93-46.701-5.67c-0.903-0.229,0.952-8.573,1.184-9.562c5.03-21.415,19.978-39.771,36.801-53.338
	c10.478-8.45,22.425-15.235,35.021-19.983c0.051-0.02,0.105-0.036,0.156-0.056l57.164,69.814
	C339.106,432.357,336.858,433.407,336.251,433.681z M250.297,336.944c3.785,0.429,7.62,0.415,11.406,0l10.784,13.171
	c-0.012,0.005-0.024,0.011-0.037,0.016c-0.106,0.044-0.21,0.094-0.317,0.138c-16.005,6.681-30.987,16.523-43.562,28.601
	c-16.816,16.153-31.895,38.016-34.059,61.829c-0.008,0.086-0.021,0.175-0.029,0.261c-0.971-0.321-1.946-0.63-2.913-0.967
	c-5.979-2.055-11.856-4.47-17.594-7.121c-0.537-0.248-1.068-0.508-1.603-0.761L250.297,336.944z M421.085,360.04
	c-9.384,14.791-20.758,28.321-33.732,40.092c-0.375,0.34-0.752,0.679-1.13,1.017l-43.445-53.06
	c30.17-8.078,59.585-19.834,86.92-34.967c-0.022,0.012,0.458-0.239,0.456-0.253c1.14,11.119,0.298,23.198-2.521,36.052
	C425.574,352.699,423.39,356.407,421.085,360.04z M344.001,225.537c10.049,0,18.84,6.073,22.722,14.819
	c-1.047,0.027-2.104,0.073-3.167,0.13c-0.041,0.002-0.082,0.004-0.123,0.006c-4.336,0.258-8.649,0.72-12.938,1.404
	c-7.573,1.209-14.91,3.302-22.384,4.962c-2.952,0.723-5.929,1.452-8.922,2.173C319.895,235.959,330.754,225.537,344.001,225.537z
	 M303.899,267.913c23.355-4.914,46.884-13.963,71.084-12.409c16.517,1.06,32.06,7.567,42.085,21.142
	c4.396,5.952,7.531,12.757,9.74,19.797c0.092,0.294,0.184,0.591,0.274,0.892c-11.679,6.721-44.311,24.199-86.258,35.732
	c-0.016,0.005-0.032,0.009-0.048,0.013c-2.708,0.738-5.421,1.452-8.146,2.128c-0.111,0.027-0.223,0.055-0.335,0.082l-27.515-33.604
	c0.292-0.911,0.549-1.83,0.789-2.754c2.633-10.1,2.035-20.962-1.573-30.743C303.964,268.098,303.935,268.005,303.899,267.913z
	 M256,249.834c18.183,0,33.816,14.035,35.959,32.067c1.953,16.445-8.33,32.773-23.91,38.288c-7.922,2.805-16.831,2.723-24.701-0.219
	c-13.847-5.176-23.547-19.145-23.559-33.928c-0.013-17.35,12.881-32.686,29.967-35.67C251.816,250.013,253.909,249.834,256,249.834z
	 M102.843,281.689c2.134,3.332,4.741,6.56,7.036,9.172c-3.611,3.488-6.872,7.289-9.783,11.41
	C96.928,295.079,97.849,288.283,102.843,281.689z M96.642,368.553c0.735-31.993,9.564-54.944,26.881-69.763
	c22.183-18.983,54.387-22.267,82.479-23.912c-0.047,0.213-0.08,0.429-0.125,0.642c-1.818,8.637-1.355,17.761,1.341,26.167
	l-81.44,99.463c-0.134-0.119-0.266-0.24-0.399-0.359C114.646,391.157,104.994,380.309,96.642,368.553z M103.614,492.406
	c-4.427,5.406-12.665,6.212-18.055,1.799c-5.473-4.482-6.28-12.582-1.798-18.055l130.896-159.863
	c4.979,6.809,11.573,12.268,19.161,15.914c0.232,0.111,0.456,0.237,0.689,0.345C234.505,332.547,103.812,492.163,103.614,492.406z
	 M256,496.09c-39.488,0-78.354-9.704-112.973-28.138l19.56-23.888c0.023,0.011,0.047,0.022,0.07,0.033
	c29.259,14.02,60.825,21.811,93.342,21.811c32.236,0,64.522-7.528,93.413-21.844l19.56,23.888
	C334.355,486.387,295.489,496.09,256,496.09z M426.443,494.204c-5.428,4.444-13.621,3.617-18.056-1.798L277.495,332.548
	c7.882-3.642,14.717-9.242,19.85-16.261L428.242,476.15C432.724,481.623,431.916,489.722,426.443,494.204z"/>
<g>
</g>
<g>
</g>
<g>
</g>
<g>
</g>
<g>
</g>
<g>
</g>
<g>
</g>
<g>
</g>
<g>
</g>
<g>
</g>
<g>
</g>
<g>
</g>
<g>
</g>
<g>
</g>
<g>
</g>
</svg>
