<?xml version="1.0" encoding="UTF-8" standalone="no"?>
<svg
   xmlns:dc="http://purl.org/dc/elements/1.1/"
   xmlns:cc="http://creativecommons.org/ns#"
   xmlns:rdf="http://www.w3.org/1999/02/22-rdf-syntax-ns#"
   xmlns:svg="http://www.w3.org/2000/svg"
   xmlns="http://www.w3.org/2000/svg"
   xmlns:sodipodi="http://sodipodi.sourceforge.net/DTD/sodipodi-0.dtd"
   xmlns:inkscape="http://www.inkscape.org/namespaces/inkscape"
   version="1.1"
   id="emoji"
   x="0"
   y="0"
   viewBox="0 0 72 72"
   enable-background="new 0 0 72 72"
   xml:space="preserve"
   sodipodi:docname="happy_emoji.svg"
   inkscape:version="0.92.4 (5da689c313, 2019-01-14)"><metadata
   id="metadata21"><rdf:RDF><cc:Work
       rdf:about=""><dc:format>image/svg+xml</dc:format><dc:type
         rdf:resource="http://purl.org/dc/dcmitype/StillImage" /></cc:Work></rdf:RDF></metadata><defs
   id="defs19" /><sodipodi:namedview
   pagecolor="#ffffff"
   bordercolor="#666666"
   borderopacity="1"
   objecttolerance="10"
   gridtolerance="10"
   guidetolerance="10"
   inkscape:pageopacity="0"
   inkscape:pageshadow="2"
   inkscape:window-width="1920"
   inkscape:window-height="986"
   id="namedview17"
   showgrid="false"
   inkscape:zoom="3.2777778"
   inkscape:cx="-3.8135593"
   inkscape:cy="36"
   inkscape:window-x="-11"
   inkscape:window-y="-11"
   inkscape:window-maximized="1"
   inkscape:current-layer="emoji" />
  <g
   id="color"
   transform="matrix(1.3333333,0,0,1.3333333,-9.5953307,-12.775333)">
    <polygon
   id="SVGID_1_"
   points="15.3762,23.3608 11.9465,30.7114 11.9465,43.0512 17.5461,52.4516 25.5667,57.9018 34.1965,59.5815 41.3762,58.4311 49.0862,54.1011 54.1965,47.9419 57.1965,38.7319 56.4465,30.7514 52.637,22.8413 48.427,18.521 41.177,14.6616 34.1965,13.5815 25.5667,15.2612 20.2669,18.2817 "
   style="fill:#fcea2b" />
  </g>
  <g
   id="hair"
   transform="matrix(1.3333333,0,0,1.3333333,-9.5953307,-12.775333)" />
  <g
   id="skin"
   transform="matrix(1.3333333,0,0,1.3333333,-9.5953307,-12.775333)" />
  <g
   id="skin-shadow"
   transform="matrix(1.3333333,0,0,1.3333333,-9.5953307,-12.775333)" />
  <g
   id="line"
   transform="matrix(1.3333333,0,0,1.3333333,-9.5953307,-12.775333)">
    <circle
   stroke-miterlimit="10"
   cx="34.196499"
   cy="36.581501"
   r="23"
   id="circle7"
   style="fill:none;stroke:#000000;stroke-width:2;stroke-linecap:round;stroke-linejoin:round;stroke-miterlimit:10" />
    <path
   stroke-miterlimit="10"
   d="m 44.0113,45.387 c -5.8513,4.7083 -14.1004,4.6878 -19.6295,0"
   id="path9"
   inkscape:connector-curvature="0"
   style="fill:none;stroke:#000000;stroke-width:2;stroke-linecap:round;stroke-linejoin:round;stroke-miterlimit:10" />
    <path
   d="m 30.0806,34.775 c -0.3672,0 -0.7207,-0.2032 -0.8965,-0.5528 C 29.1743,34.2027 27.9712,31.9 25.7661,31.9 c -2.2305,0 -3.4062,2.2988 -3.418,2.3222 -0.2461,0.4942 -0.8457,0.6934 -1.3418,0.4473 -0.4941,-0.2481 -0.6933,-0.8477 -0.4472,-1.3418 0.0703,-0.1406 1.7539,-3.4277 5.207,-3.4277 3.4531,0 5.1367,3.2871 5.207,3.4277 0.2481,0.4941 0.0469,1.0937 -0.4472,1.3418 -0.1426,0.0703 -0.2969,0.1055 -0.4453,0.1055 z"
   id="path11"
   inkscape:connector-curvature="0" />
    <path
   d="m 47.3306,34.775 c -0.3672,0 -0.7207,-0.2032 -0.8965,-0.5528 C 46.4243,34.2027 45.2212,31.9 43.0161,31.9 c -2.2305,0 -3.4062,2.2988 -3.418,2.3222 -0.2461,0.4942 -0.8457,0.6934 -1.3418,0.4473 -0.4941,-0.2481 -0.6933,-0.8477 -0.4472,-1.3418 0.0703,-0.1406 1.7539,-3.4277 5.207,-3.4277 3.4531,0 5.1367,3.2871 5.207,3.4277 0.2481,0.4941 0.0469,1.0937 -0.4472,1.3418 -0.1426,0.0703 -0.2969,0.1055 -0.4453,0.1055 z"
   id="path13"
   inkscape:connector-curvature="0" />
  </g>
</svg>