<?xml version="1.0" encoding="UTF-8" standalone="no"?>
<!-- Generator: Adobe Illustrator 16.0.0, SVG Export Plug-In . SVG Version: 6.00 Build 0)  -->

<svg
   xmlns:dc="http://purl.org/dc/elements/1.1/"
   xmlns:cc="http://creativecommons.org/ns#"
   xmlns:rdf="http://www.w3.org/1999/02/22-rdf-syntax-ns#"
   xmlns:svg="http://www.w3.org/2000/svg"
   xmlns="http://www.w3.org/2000/svg"
   xmlns:sodipodi="http://sodipodi.sourceforge.net/DTD/sodipodi-0.dtd"
   xmlns:inkscape="http://www.inkscape.org/namespaces/inkscape"
   version="1.1"
   id="Capa_1"
   x="0px"
   y="0px"
   width="800px"
   height="800px"
   viewBox="0 0 800 800"
   enable-background="new 0 0 800 800"
   xml:space="preserve"
   sodipodi:docname="hawaii_flag.svg"
   inkscape:version="0.92.4 (5da689c313, 2019-01-14)"><metadata
   id="metadata85"><rdf:RDF><cc:Work
       rdf:about=""><dc:format>image/svg+xml</dc:format><dc:type
         rdf:resource="http://purl.org/dc/dcmitype/StillImage" /></cc:Work></rdf:RDF></metadata><defs
   id="defs83" /><sodipodi:namedview
   pagecolor="#ffffff"
   bordercolor="#666666"
   borderopacity="1"
   objecttolerance="10"
   gridtolerance="10"
   guidetolerance="10"
   inkscape:pageopacity="0"
   inkscape:pageshadow="2"
   inkscape:window-width="1920"
   inkscape:window-height="986"
   id="namedview81"
   showgrid="false"
   inkscape:zoom="3.337544"
   inkscape:cx="653.45062"
   inkscape:cy="95.050949"
   inkscape:window-x="-11"
   inkscape:window-y="-11"
   inkscape:window-maximized="1"
   inkscape:current-layer="g78" />
<g
   id="g78">
	<rect
   x="412.903"
   y="154.847"
   fill="#FFFFFF"
   width="361.29"
   height="51.613"
   id="rect2" />
	<rect
   x="411.903"
   y="205.46"
   fill="#ED1F34"
   width="363.29"
   height="66.517"
   id="rect4" />
	<rect
   x="412.903"
   y="206.46"
   fill="#ED1F34"
   width="361.29"
   height="64.517"
   id="rect6" />
	<rect
   x="411.903"
   y="269.977"
   fill="#103B9B"
   width="363.29"
   height="66.516"
   id="rect8" />
	<rect
   x="412.903"
   y="270.977"
   fill="#103B9B"
   width="361.29"
   height="64.516"
   id="rect10" />
	<rect
   x="412.903"
   y="335.493"
   fill="#FFFFFF"
   width="361.29"
   height="64.516"
   id="rect12" />
	<path
   fill="#ED1F34"
   d="M24.807,465.524v-53.621L400,411.912c3.179,0,6.169-1.238,8.418-3.485c2.247-2.251,3.485-5.241,3.485-8.418   v-1h363.29v66.516H24.807z"
   id="path14" />
	<path
   fill="#ED1F34"
   d="M774.193,400.009h-361.29l0,0c0,3.422-1.359,6.702-3.778,9.125c-2.421,2.419-5.701,3.778-9.125,3.778   l-374.193-0.009v51.621h748.387V400.009z"
   id="path16" />
	<rect
   x="24.807"
   y="463.524"
   fill="#103B9B"
   width="750.387"
   height="66.517"
   id="rect18" />
	<rect
   x="25.807"
   y="464.524"
   fill="#103B9B"
   width="748.387"
   height="64.517"
   id="rect20" />
	<rect
   x="25.807"
   y="529.041"
   fill="#FFFFFF"
   width="748.387"
   height="64.516"
   id="rect22" />
	<path
   fill="#ED1F34"
   d="M695.774,659.073v-1c0-6.563-5.34-11.903-11.903-11.903H24.807v-53.613h750.387v53.613h-39.709   c-6.563,0-11.903,5.34-11.903,11.903v1H695.774z"
   id="path24" />
	<path
   fill="#ED1F34"
   d="M735.484,645.17h38.709v-51.613H25.807v51.613h658.064c7.128,0,12.903,5.775,12.903,12.903h25.807   C722.581,650.945,728.356,645.17,735.484,645.17z"
   id="path26" />
	<polygon
   fill="#103B9B"
   points="240.291,153.847 321.141,153.847 240.291,207.748  "
   id="polygon28" />
	<polygon
   fill="#103B9B"
   points="317.838,154.847 241.291,154.847 241.291,205.879  "
   id="polygon30" />
	<polygon
   fill="#103B9B"
   points="387.097,192.417 321.516,236.138 387.097,236.138  "
   id="polygon32" />
	<polygon
   fill="#103B9B"
   points="91.763,153.847 172.613,153.847 172.613,207.748  "
   id="polygon34" />
	<polygon
   fill="#103B9B"
   points="171.613,154.847 95.066,154.847 171.613,205.879  "
   id="polygon36" />
	<polygon
   fill="#103B9B"
   points="24.807,237.138 24.807,190.548 94.69,237.138  "
   id="polygon38" />
	<polygon
   fill="#103B9B"
   points="25.807,192.417 25.807,236.138 91.388,236.138  "
   id="polygon40" />
	<polygon
   fill="#103B9B"
   points="24.807,304.815 94.69,304.815 24.807,351.403  "
   id="polygon42" />
	<polygon
   fill="#103B9B"
   points="91.388,305.815 25.807,305.815 25.807,349.535  "
   id="polygon44" />
	<polygon
   fill="#103B9B"
   points="318.213,304.815 388.097,304.815 388.097,351.403  "
   id="polygon46" />
	<polygon
   fill="#103B9B"
   points="387.097,349.535 387.097,305.815 321.516,305.815  "
   id="polygon48" />
	<polygon
   fill="#103B9B"
   points="240.291,388.102 240.291,334.204 321.141,388.104  "
   id="polygon50" />
	<polygon
   fill="#103B9B"
   points="241.291,387.102 317.838,387.104 241.291,336.072  "
   id="polygon52" />
	<polygon
   fill="#103B9B"
   points="91.77,388.099 172.613,334.204 172.613,388.1  "
   id="polygon54" />
	<polygon
   fill="#103B9B"
   points="95.073,387.099 171.613,387.1 171.613,336.072  "
   id="polygon56" />
	<polygon
   fill="#FFFFFF"
   points="387.097,192.417 387.097,154.847 380.646,154.847 258.709,236.138 241.291,236.138    241.291,219.845 338.775,154.847 317.838,154.847 241.291,205.879 241.291,154.847 225.161,154.847 225.161,252.267    387.097,252.267 387.097,236.138 321.516,236.138  "
   id="polygon58" />
	<polygon
   fill="#ED1F34"
   points="112.055,236.138 154.193,236.138 32.258,154.847 25.807,154.847 25.807,178.5  "
   id="polygon60" />
	<polygon
   fill="#ED1F34"
   points="241.291,219.845 241.291,236.138 258.709,236.138 380.646,154.847 338.775,154.847  "
   id="polygon62" />
	<polygon
   fill="#ED1F34"
   points="171.613,322.114 171.613,305.815 154.193,305.815 32.27,387.097 74.139,387.099  "
   id="polygon64" />
	<polygon
   fill="#ED1F34"
   points="299.924,305.815 258.709,305.815 380.646,387.105 387.097,387.105 387.097,364.067  "
   id="polygon66" />
	<polygon
   fill="#FFFFFF"
   points="187.742,289.686 25.807,289.686 25.807,305.815 91.388,305.815 25.807,349.535 25.807,387.097    32.27,387.097 154.193,305.815 171.613,305.815 171.613,322.114 74.139,387.099 95.073,387.099 171.613,336.072 171.613,387.1    187.742,387.1  "
   id="polygon68" />
	<polygon
   fill="#FFFFFF"
   points="187.742,252.267 187.742,154.847 171.613,154.847 171.613,205.879 95.066,154.847 32.258,154.847    154.193,236.138 112.055,236.138 25.807,178.5 25.807,192.417 91.388,236.138 25.807,236.138 25.807,252.267  "
   id="polygon70" />
	<polygon
   fill="#FFFFFF"
   points="225.161,289.686 225.161,387.102 241.291,387.102 241.291,336.072 317.838,387.104    380.646,387.105 258.709,305.815 299.924,305.815 387.097,364.067 387.097,349.535 321.516,305.815 387.097,305.815    387.097,289.686  "
   id="polygon72" />
	<polygon
   fill="#ED1F34"
   points="225.161,252.267 225.161,154.847 187.742,154.847 187.742,252.267 25.807,252.267 25.807,289.686    187.742,289.686 187.742,387.1 225.161,387.102 225.161,289.686 387.097,289.686 387.097,252.267  "
   id="polygon74" />
	<path
   d="M 787.097,129.041 H 400.334 c -0.112,-0.002 -0.221,-0.018 -0.334,-0.018 -0.113,0 -0.222,0.014 -0.334,0.018 H 12.903 C 5.775,129.041 0,134.816 0,141.944 v 516.129 c 0,7.128 5.775,12.903 12.903,12.903 h 670.968 c 7.128,0 12.903,-5.775 12.903,-12.903 v 0 c 0,-7.128 -5.775,-12.903 -12.903,-12.903 H 25.807 V 593.557 529.041 464.524 412.903 L 400,412.912 c 3.422,0 6.703,-1.359 9.125,-3.778 2.419,-2.421 3.778,-5.702 3.778,-9.125 v 0 -64.516 -64.516 -64.517 -51.613 h 361.29 v 51.613 64.517 64.516 64.516 64.516 64.517 64.516 51.613 h -92.709 c -7.128,0 11.097,5.775 11.097,12.903 h -2 c 0,7.128 -16.225,12.903 -9.097,12.903 h 105.612 c 7.128,0 12.903,-5.775 12.903,-12.903 v -516.13 c 10e-4,-7.128 -5.774,-12.903 -12.902,-12.903 z m -400,123.226 v 37.419 16.129 43.72 14.533 23.038 h -6.451 l -62.808,-0.002 -76.547,-10e-4 h -16.129 -37.419 -16.129 l -76.54,-0.002 H 74.139 L 32.27,387.098 H 25.807 V 349.536 305.816 289.687 252.268 236.139 192.418 178.5 154.847 h 6.451 62.806 76.549 16.129 37.419 16.129 76.547 20.938 41.868 6.453 v 37.569 43.721 16.13 z"
   id="path76"
   inkscape:connector-curvature="0"
   sodipodi:nodetypes="scscsssssccsccccccccccccccccccccccsccssscscccccccccccccccccccccccccccccccccccccc" />
</g>
</svg>