<?xml version="1.0" encoding="UTF-8" standalone="no"?>
<svg
   xmlns:dc="http://purl.org/dc/elements/1.1/"
   xmlns:cc="http://creativecommons.org/ns#"
   xmlns:rdf="http://www.w3.org/1999/02/22-rdf-syntax-ns#"
   xmlns:svg="http://www.w3.org/2000/svg"
   xmlns="http://www.w3.org/2000/svg"
   xmlns:sodipodi="http://sodipodi.sourceforge.net/DTD/sodipodi-0.dtd"
   xmlns:inkscape="http://www.inkscape.org/namespaces/inkscape"
   version="1.1"
   id="Capa_1"
   x="0px"
   y="0px"
   width="93.5px"
   height="93.5px"
   viewBox="0 0 93.5 93.5"
   style="enable-background:new 0 0 93.5 93.5;"
   xml:space="preserve"
   sodipodi:docname="helsinki_metro.svg"
   inkscape:version="1.0.2 (e86c870879, 2021-01-15, custom)"><metadata
   id="metadata41"><rdf:RDF><cc:Work
       rdf:about=""><dc:format>image/svg+xml</dc:format><dc:type
         rdf:resource="http://purl.org/dc/dcmitype/StillImage" /><dc:title></dc:title></cc:Work></rdf:RDF></metadata><defs
   id="defs39" /><sodipodi:namedview
   pagecolor="#ffffff"
   bordercolor="#666666"
   borderopacity="1"
   objecttolerance="10"
   gridtolerance="10"
   guidetolerance="10"
   inkscape:pageopacity="0"
   inkscape:pageshadow="2"
   inkscape:window-width="1920"
   inkscape:window-height="1017"
   id="namedview37"
   showgrid="false"
   inkscape:zoom="7.1391316"
   inkscape:cx="78.49218"
   inkscape:cy="53.664017"
   inkscape:window-x="-8"
   inkscape:window-y="-8"
   inkscape:window-maximized="1"
   inkscape:current-layer="Capa_1"
   inkscape:document-rotation="0" />

<g
   id="g6"
   transform="matrix(0.765,0,0,0.765,10.958319,10.99556)"
   style="stroke-width:5.22875817;stroke-miterlimit:4;stroke-dasharray:none">
</g>
<g
   id="g8"
   transform="matrix(0.765,0,0,0.765,10.958319,10.99556)"
   style="stroke-width:5.22875817;stroke-miterlimit:4;stroke-dasharray:none">
</g>
<g
   id="g10"
   transform="matrix(0.765,0,0,0.765,10.958319,10.99556)"
   style="stroke-width:5.22875817;stroke-miterlimit:4;stroke-dasharray:none">
</g>
<g
   id="g12"
   transform="matrix(0.765,0,0,0.765,10.958319,10.99556)"
   style="stroke-width:5.22875817;stroke-miterlimit:4;stroke-dasharray:none">
</g>
<g
   id="g14"
   transform="matrix(0.765,0,0,0.765,10.958319,10.99556)"
   style="stroke-width:5.22875817;stroke-miterlimit:4;stroke-dasharray:none">
</g>
<g
   id="g16"
   transform="matrix(0.765,0,0,0.765,10.958319,10.99556)"
   style="stroke-width:5.22875817;stroke-miterlimit:4;stroke-dasharray:none">
</g>
<g
   id="g18"
   transform="matrix(0.765,0,0,0.765,10.958319,10.99556)"
   style="stroke-width:5.22875817;stroke-miterlimit:4;stroke-dasharray:none">
</g>
<g
   id="g20"
   transform="matrix(0.765,0,0,0.765,10.958319,10.99556)"
   style="stroke-width:5.22875817;stroke-miterlimit:4;stroke-dasharray:none">
</g>
<g
   id="g22"
   transform="matrix(0.765,0,0,0.765,10.958319,10.99556)"
   style="stroke-width:5.22875817;stroke-miterlimit:4;stroke-dasharray:none">
</g>
<g
   id="g24"
   transform="matrix(0.765,0,0,0.765,10.958319,10.99556)"
   style="stroke-width:5.22875817;stroke-miterlimit:4;stroke-dasharray:none">
</g>
<g
   id="g26"
   transform="matrix(0.765,0,0,0.765,10.958319,10.99556)"
   style="stroke-width:5.22875817;stroke-miterlimit:4;stroke-dasharray:none">
</g>
<g
   id="g28"
   transform="matrix(0.765,0,0,0.765,10.958319,10.99556)"
   style="stroke-width:5.22875817;stroke-miterlimit:4;stroke-dasharray:none">
</g>
<g
   id="g30"
   transform="matrix(0.765,0,0,0.765,10.958319,10.99556)"
   style="stroke-width:5.22875817;stroke-miterlimit:4;stroke-dasharray:none">
</g>
<g
   id="g32"
   transform="matrix(0.765,0,0,0.765,10.958319,10.99556)"
   style="stroke-width:5.22875817;stroke-miterlimit:4;stroke-dasharray:none">
</g>
<g
   id="g34"
   transform="matrix(0.765,0,0,0.765,10.958319,10.99556)"
   style="stroke-width:5.22875817;stroke-miterlimit:4;stroke-dasharray:none">
</g>
<g
   id="g884"
   transform="translate(-51.787131,-6.2633895)"><path
     fill="#ff4400"
     d="m 68.897132,14.013388 h 59.279998 c 5.16906,0 9.36,4.19094 9.36,9.36 v 59.280003 c 0,5.16906 -4.19094,9.36 -9.36,9.36 H 68.897132 c -5.16906,0 -9.36,-4.19094 -9.36,-9.36 V 23.373388 c 0,-5.16906 4.19094,-9.36 9.36,-9.36 z"
     id="path2-6"
     style="stroke:#000000;stroke-width:3.2;stroke-miterlimit:4;stroke-dasharray:none;stroke-opacity:1" /><path
     fill="#ffffff"
     d="M 73.187132,79.257269 V 26.768728 h 15.862861 l 9.520678,35.804341 9.419279,-35.804341 h 15.89718 v 52.487761 h -9.84672 V 37.939108 l -10.4169,41.318161 H 93.416431 L 83.034632,37.939888 v 41.318161 z"
     id="path4"
     style="stroke:#000000;stroke-width:3;stroke-miterlimit:4;stroke-dasharray:none;stroke-opacity:1" /></g></svg>
