<?xml version="1.0" encoding="UTF-8" standalone="no"?>
<!-- Generator: Adobe Illustrator 16.0.0, SVG Export Plug-In . SVG Version: 6.00 Build 0)  -->

<svg
   xmlns:dc="http://purl.org/dc/elements/1.1/"
   xmlns:cc="http://creativecommons.org/ns#"
   xmlns:rdf="http://www.w3.org/1999/02/22-rdf-syntax-ns#"
   xmlns:svg="http://www.w3.org/2000/svg"
   xmlns="http://www.w3.org/2000/svg"
   xmlns:sodipodi="http://sodipodi.sourceforge.net/DTD/sodipodi-0.dtd"
   xmlns:inkscape="http://www.inkscape.org/namespaces/inkscape"
   version="1.1"
   id="Capa_1"
   x="0px"
   y="0px"
   width="93.5px"
   height="93.5px"
   viewBox="0 0 93.5 93.5"
   style="enable-background:new 0 0 93.5 93.5;"
   xml:space="preserve"
   sodipodi:docname="helsinki_metro.svg"
   inkscape:version="0.92.4 (5da689c313, 2019-01-14)"><metadata
   id="metadata41"><rdf:RDF><cc:Work
       rdf:about=""><dc:format>image/svg+xml</dc:format><dc:type
         rdf:resource="http://purl.org/dc/dcmitype/StillImage" /></cc:Work></rdf:RDF></metadata><defs
   id="defs39" /><sodipodi:namedview
   pagecolor="#ffffff"
   bordercolor="#666666"
   borderopacity="1"
   objecttolerance="10"
   gridtolerance="10"
   guidetolerance="10"
   inkscape:pageopacity="0"
   inkscape:pageshadow="2"
   inkscape:window-width="1920"
   inkscape:window-height="986"
   id="namedview37"
   showgrid="false"
   inkscape:zoom="7.1391316"
   inkscape:cx="74.749647"
   inkscape:cy="57.047519"
   inkscape:window-x="-11"
   inkscape:window-y="-11"
   inkscape:window-maximized="1"
   inkscape:current-layer="Capa_1" />
<g
   id="g4"
   transform="matrix(0.765,0,0,0.765,10.958319,10.99556)"
   style="stroke-width:5.22875817;stroke-miterlimit:4;stroke-dasharray:none">
	<path
   d="M 0.282,0 V 93.5 H 93.218 V 0 Z M 79.12,79.971 H 67.224 L 67.293,30.529 53.692,79.971 H 41.793 L 28.119,28.759 V 79.971 H 16.08 V 11.828 H 36.619 L 47.796,59.432 58.933,11.828 H 79.12 Z"
   id="path2"
   inkscape:connector-curvature="0"
   style="stroke-width:5.22875817;stroke-miterlimit:4;stroke-dasharray:none" />
</g>
<g
   id="g6"
   transform="matrix(0.765,0,0,0.765,10.958319,10.99556)"
   style="stroke-width:5.22875817;stroke-miterlimit:4;stroke-dasharray:none">
</g>
<g
   id="g8"
   transform="matrix(0.765,0,0,0.765,10.958319,10.99556)"
   style="stroke-width:5.22875817;stroke-miterlimit:4;stroke-dasharray:none">
</g>
<g
   id="g10"
   transform="matrix(0.765,0,0,0.765,10.958319,10.99556)"
   style="stroke-width:5.22875817;stroke-miterlimit:4;stroke-dasharray:none">
</g>
<g
   id="g12"
   transform="matrix(0.765,0,0,0.765,10.958319,10.99556)"
   style="stroke-width:5.22875817;stroke-miterlimit:4;stroke-dasharray:none">
</g>
<g
   id="g14"
   transform="matrix(0.765,0,0,0.765,10.958319,10.99556)"
   style="stroke-width:5.22875817;stroke-miterlimit:4;stroke-dasharray:none">
</g>
<g
   id="g16"
   transform="matrix(0.765,0,0,0.765,10.958319,10.99556)"
   style="stroke-width:5.22875817;stroke-miterlimit:4;stroke-dasharray:none">
</g>
<g
   id="g18"
   transform="matrix(0.765,0,0,0.765,10.958319,10.99556)"
   style="stroke-width:5.22875817;stroke-miterlimit:4;stroke-dasharray:none">
</g>
<g
   id="g20"
   transform="matrix(0.765,0,0,0.765,10.958319,10.99556)"
   style="stroke-width:5.22875817;stroke-miterlimit:4;stroke-dasharray:none">
</g>
<g
   id="g22"
   transform="matrix(0.765,0,0,0.765,10.958319,10.99556)"
   style="stroke-width:5.22875817;stroke-miterlimit:4;stroke-dasharray:none">
</g>
<g
   id="g24"
   transform="matrix(0.765,0,0,0.765,10.958319,10.99556)"
   style="stroke-width:5.22875817;stroke-miterlimit:4;stroke-dasharray:none">
</g>
<g
   id="g26"
   transform="matrix(0.765,0,0,0.765,10.958319,10.99556)"
   style="stroke-width:5.22875817;stroke-miterlimit:4;stroke-dasharray:none">
</g>
<g
   id="g28"
   transform="matrix(0.765,0,0,0.765,10.958319,10.99556)"
   style="stroke-width:5.22875817;stroke-miterlimit:4;stroke-dasharray:none">
</g>
<g
   id="g30"
   transform="matrix(0.765,0,0,0.765,10.958319,10.99556)"
   style="stroke-width:5.22875817;stroke-miterlimit:4;stroke-dasharray:none">
</g>
<g
   id="g32"
   transform="matrix(0.765,0,0,0.765,10.958319,10.99556)"
   style="stroke-width:5.22875817;stroke-miterlimit:4;stroke-dasharray:none">
</g>
<g
   id="g34"
   transform="matrix(0.765,0,0,0.765,10.958319,10.99556)"
   style="stroke-width:5.22875817;stroke-miterlimit:4;stroke-dasharray:none">
</g>
<path
   style="fill:#ff4e02;fill-opacity:1;stroke:#000000;stroke-width:3.5;stroke-miterlimit:4;stroke-dasharray:none;stroke-opacity:1"
   d="M 9.574747,46.789619 V 9.5748606 H 46.631144 83.687542 V 46.789619 84.004377 H 46.631144 9.574747 Z m 22.508701,7.04705 0.02149,-19.715903 5.277951,19.723571 5.27795,19.723574 4.878825,-0.08685 4.878824,-0.08685 5.261905,-19.14812 5.261903,-19.148123 0.08163,19.227304 0.08162,19.2273 h 4.748369 4.748365 V 46.150829 18.749085 l -8.15531,0.08453 -8.155307,0.08453 -4.2758,18.290658 c -2.351691,10.059862 -4.355758,18.290657 -4.453486,18.290657 -0.09773,0 -2.108134,-8.230795 -4.467569,-18.290657 l -4.289877,-18.290666 -8.439033,-0.08435 -8.439032,-0.08436 V 45.93985 c 0,14.954733 0.09502,27.28544 0.211147,27.401569 0.116131,0.116132 2.396525,0.211149 5.067541,0.211149 h 4.856394 z"
   id="path848"
   inkscape:connector-curvature="0" /></svg>