<?xml version="1.0" encoding="UTF-8" standalone="no"?>
<svg
   xmlns:dc="http://purl.org/dc/elements/1.1/"
   xmlns:cc="http://creativecommons.org/ns#"
   xmlns:rdf="http://www.w3.org/1999/02/22-rdf-syntax-ns#"
   xmlns:svg="http://www.w3.org/2000/svg"
   xmlns="http://www.w3.org/2000/svg"
   xmlns:sodipodi="http://sodipodi.sourceforge.net/DTD/sodipodi-0.dtd"
   xmlns:inkscape="http://www.inkscape.org/namespaces/inkscape"
   height="480pt"
   viewBox="0 0 480 480"
   width="480pt"
   version="1.1"
   id="svg116"
   sodipodi:docname="hongkong_skyline.svg"
   inkscape:version="0.92.4 (5da689c313, 2019-01-14)">
  <metadata
     id="metadata122">
    <rdf:RDF>
      <cc:Work
         rdf:about="">
        <dc:format>image/svg+xml</dc:format>
        <dc:type
           rdf:resource="http://purl.org/dc/dcmitype/StillImage" />
      </cc:Work>
    </rdf:RDF>
  </metadata>
  <defs
     id="defs120" />
  <sodipodi:namedview
     pagecolor="#ffffff"
     bordercolor="#666666"
     borderopacity="1"
     objecttolerance="10"
     gridtolerance="10"
     guidetolerance="10"
     inkscape:pageopacity="0"
     inkscape:pageshadow="2"
     inkscape:window-width="1920"
     inkscape:window-height="986"
     id="namedview118"
     showgrid="false"
     inkscape:zoom="1.0429825"
     inkscape:cx="500.24197"
     inkscape:cy="340.66928"
     inkscape:window-x="-11"
     inkscape:window-y="-11"
     inkscape:window-maximized="1"
     inkscape:current-layer="svg116" />
  <path
     d="m72 16h16v72h-16zm0 0"
     fill="#bc9677"
     id="path2" />
  <path
     d="m136 216v-32l-40-40v-56l-16-8-16 8v56l-40 40v32h-16v264h144v-264zm0 0"
     fill="#214668"
     id="path4" />
  <path
     d="m96 144h-32l-40 40h112zm0 0"
     fill="#36607f"
     id="path6" />
  <path
     d="m24 184h112v32h-112zm0 0"
     fill="#133144"
     id="path8" />
  <path
     d="m464 152-8-88h-8l-6.398438-42.398438c-.800781-8-8-13.601562-16-13.601562h-52c-8 0-14.402343 5.601562-16 13.601562l-5.601562 42.398438h-8l-8 88h-8v328h144v-328zm0 0"
     fill="#36607f"
     id="path10" />
  <path
     d="m336 152 8-88h112l8 88zm0 0"
     fill="#447491"
     id="path12" />
  <path
     d="m426.398438 8h-52c-8 0-14.398438 5.601562-16 13.601562l-6.398438 42.398438h96l-6.398438-42.398438c-.800781-8-7.203124-13.601562-15.203124-13.601562zm0 0"
     fill="#5489a3"
     id="path14" />
  <path
     d="m264 48h16v104h-16zm0 0"
     fill="#bfbfbf"
     id="path16" />
  <path
     d="m200 48h16v104h-16zm0 0"
     fill="#bfbfbf"
     id="path18" />
  <path
     d="m208 72h64v16h-64zm0 0"
     fill="#bfbfbf"
     id="path20" />
  <path
     d="m40 480v-208h24v-24h32v24h24v208"
     fill="#bc9677"
     id="path22" />
  <path
     d="m72 296h16v184h-16zm0 0"
     fill="#214668"
     id="path24" />
  <path
     d="m64 104h32v16h-32zm0 0"
     fill="#bc9677"
     id="path26" />
  <path
     d="m48 184h16v32h-16zm0 0"
     fill="#aa9581"
     id="path28" />
  <path
     d="m96 184h16v32h-16zm0 0"
     fill="#aa9581"
     id="path30" />
  <path
     d="m392 8h16v32h-16zm0 0"
     fill="#b4cbd1"
     id="path32" />
  <path
     d="m376 56h48v16h-48zm0 0"
     fill="#15364f"
     id="path34" />
  <path
     d="m376 88h16v40h-16zm0 0"
     fill="#15364f"
     id="path36" />
  <path
     d="m408 88h16v40h-16zm0 0"
     fill="#15364f"
     id="path38" />
  <path
     d="m352 208h96v16h-96zm0 0"
     fill="#15364f"
     id="path40" />
  <path
     d="m360 168h16v24h-16zm0 0"
     fill="#15364f"
     id="path42" />
  <path
     d="m392 168h16v24h-16zm0 0"
     fill="#15364f"
     id="path44" />
  <path
     d="m424 168h16v24h-16zm0 0"
     fill="#15364f"
     id="path46" />
  <path
     d="m240 112-56 56v312h112v-312zm0 0"
     fill="#214668"
     id="path48" />
  <g
     fill="#15364f"
     id="g68">
    <path
       d="m352 304h96v16h-96zm0 0"
       id="path50" />
    <path
       d="m360 264h16v24h-16zm0 0"
       id="path52" />
    <path
       d="m392 264h16v24h-16zm0 0"
       id="path54" />
    <path
       d="m424 264h16v24h-16zm0 0"
       id="path56" />
    <path
       d="m352 400h96v16h-96zm0 0"
       id="path58" />
    <path
       d="m360 360h16v24h-16zm0 0"
       id="path60" />
    <path
       d="m392 360h16v24h-16zm0 0"
       id="path62" />
    <path
       d="m424 360h16v24h-16zm0 0"
       id="path64" />
    <path
       d="m240 112 56 56v312h-56zm0 0"
       id="path66" />
  </g>
  <path
     d="m184 299.199219 104 104v1.601562l-53.601562 53.597657 11.203124 11.203124 50.398438-50.402343v-30.398438l-104-104v-1.601562l104-104v-11.199219l-5.601562-5.601562-106.398438 106.402343zm0 0"
     fill="#bfbfbf"
     id="path70" />
  <path
     d="m288 283.199219v1.601562l-104 104v30.398438l50.398438 50.402343 11.203124-11.203124-53.601562-53.597657v-1.601562l104-104v-30.398438l-106.398438-106.402343-5.601562 5.601562v11.199219zm0 0"
     fill="#bfbfbf"
     id="path72" />
  <path
     d="m240 112-8 8v360h16v-360zm0 0"
     fill="#bfbfbf"
     id="path74" />
  <path
     d="m104 240h-48v24h-24v216h16v-200h24v-24h16v24h24v200h16v-216h-24zm0 0"
     id="path76" />
  <path
     d="m72 296h16v184h-16zm0 0"
     id="path78" />
  <path
     d="m144 180.800781-40-40v-57.601562l-16-8v-59.199219h-16v59.199219l-16 8v57.601562l-40 40v27.199219h-16v272h16v-256h128v256h16v-272h-16zm-56-44.800781h-16v-16h16zm-8-47.199219 8 4v11.199219h-16v-11.199219zm-12.800781 63.199219h25.601562l24 24h-73.601562zm28.800781 40v16h-32v-16zm-64 0h16v16h-16zm80 16v-16h16v16zm0 0"
     id="path80" />
  <path
     d="m471.199219 144-8-88h-8l-4.800781-35.199219c-2.398438-12-12-20.800781-24-20.800781h-52c-12 0-22.398438 8.800781-24 20.800781l-5.597657 35.199219h-8l-8 88h-8.800781v336h16v-320h7.199219l8-88h8l7.199219-48.800781c.800781-4 4-7.199219 8-7.199219h17.601562v24h16v-24h18.398438c4 0 7.203124 3.199219 8 7.199219l7.203124 48.800781h8l8 88h6.398438v320h16v-336zm0 0"
     id="path82" />
  <path
     d="m376 56h48v16h-48zm0 0"
     id="path84" />
  <path
     d="m376 88h16v40h-16zm0 0"
     id="path86" />
  <path
     d="m408 88h16v40h-16zm0 0"
     id="path88" />
  <path
     d="m352 208h96v16h-96zm0 0"
     id="path90" />
  <path
     d="m360 168h16v24h-16zm0 0"
     id="path92" />
  <path
     d="m392 168h16v24h-16zm0 0"
     id="path94" />
  <path
     d="m424 168h16v24h-16zm0 0"
     id="path96" />
  <path
     d="m280 48h-16v24h-48v-24h-16v92.800781l-24 24v315.199219h16v-52.800781l40 40v12.800781h16v-12.800781l40-40v52.800781h16v-315.199219l-24-24zm-64 40h48v36.800781l-24-24-24 24zm16 116.800781-36.800781-36.800781 36.800781-36.800781zm16 38.398438 40 40v1.601562l-40 40zm-16 81.601562-40-40v-1.601562l40-40zm16-193.601562 36.800781 36.800781-36.800781 36.800781zm-56 56 36.800781 36.800781-36.800781 36.800781zm0 120 36.800781 36.800781-36.800781 36.800781zm0 97.601562v-1.601562l40-40v81.601562zm56 40v-81.601562l40 40v1.601562zm40-64-36.800781-36.800781 36.800781-36.800781zm-36.800781-156.800781 36.800781-36.800781v73.601562zm0 0"
     id="path98" />
  <path
     d="m352 304h96v16h-96zm0 0"
     id="path100" />
  <path
     d="m360 264h16v24h-16zm0 0"
     id="path102" />
  <path
     d="m392 264h16v24h-16zm0 0"
     id="path104" />
  <path
     d="m424 264h16v24h-16zm0 0"
     id="path106" />
  <path
     d="m352 400h96v16h-96zm0 0"
     id="path108" />
  <path
     d="m360 360h16v24h-16zm0 0"
     id="path110" />
  <path
     d="m392 360h16v24h-16zm0 0"
     id="path112" />
  <path
     d="m424 360h16v24h-16zm0 0"
     id="path114" />
  <path
     style="fill:#999999;fill-opacity:1;stroke-width:4.34852266;stroke-miterlimit:4;stroke-dasharray:none"
     d="M 234.84921,429.57161 V 219.82597 l 16.29942,-16.27826 16.29941,-16.27826 V 125.6567 64.043935 h 10.06728 10.06728 v 16.299411 16.29941 h 32.59882 32.59882 V 80.343346 64.043935 h 10.06729 10.06728 v 62.092475 62.09248 l 15.82002,15.79822 15.82001,15.79822 v 209.74596 209.74596 h -10.06728 -10.06728 v -35.22918 -35.22918 l -27.32549,27.31286 -27.32548,27.31287 v 7.91631 7.91632 h -10.06728 -10.06728 v -8.39583 -8.39581 l -26.84609,-26.83325 -26.84609,-26.83325 v 35.22907 35.22907 h -10.54668 -10.54668 z m 74.78554,108.83954 V 483.5269 l -26.84609,26.83325 c -14.76535,14.75828 -26.84609,27.48048 -26.84609,28.27154 0,1.10749 52.36323,54.66369 53.44606,54.66369 0.13536,0 0.24612,-24.69791 0.24612,-54.88423 z m 74.78553,0.23327 c 0,-1.8325 -53.05937,-54.96418 -53.97499,-54.04856 -0.88358,0.88358 -0.88358,107.21354 0,108.09712 0.91562,0.91562 53.97499,-52.21607 53.97499,-54.04856 z m -103.30252,-55.3769 24.68196,-24.69567 -24.92858,-24.91474 -24.92857,-24.91476 v 49.61042 c 0,27.28573 0.11097,49.61041 0.24661,49.61041 0.13564,0 11.3535,-11.11306 24.92858,-24.69566 z m 103.30252,-24.91475 v -49.61042 l -24.92858,24.91476 -24.92857,24.91474 24.68196,24.69567 c 13.57508,13.5826 24.79294,24.69566 24.92858,24.69566 0.13563,0 0.24661,-22.32468 0.24661,-49.61041 z m -74.78553,-80.05936 v -54.88425 l -26.84609,26.83325 c -14.76535,14.75828 -26.84609,27.48048 -26.84609,28.27154 0,1.10749 52.36323,54.66369 53.44606,54.66369 0.13536,0 0.24612,-24.69791 0.24612,-54.88423 z m 48.17283,28.28427 c 14.63698,-14.62999 26.6127,-27.25293 26.6127,-28.051 0,-1.83249 -53.05937,-54.96418 -53.97499,-54.04856 -0.90768,0.90769 -0.87119,108.69952 0.0368,108.69952 0.39203,0 12.6885,-11.96999 27.32549,-26.59996 z m -76.68982,-83.4279 24.68196,-24.69567 -24.92858,-24.91474 -24.92857,-24.91475 v 49.61041 c 0,27.28573 0.11097,49.61041 0.24661,49.61041 0.13564,0 11.3535,-11.11306 24.92858,-24.69566 z m 103.30252,-24.91475 v -49.61041 l -24.92858,24.91475 -24.92857,24.91474 24.68196,24.69567 c 13.57508,13.5826 24.79294,24.69566 24.92858,24.69566 0.13563,0 0.24661,-22.32468 0.24661,-49.61041 z M 309.12779,175.39568 c -0.28859,-0.28859 -11.51047,10.45473 -24.93752,23.87403 l -24.41281,24.39873 24.68895,24.7029 24.68894,24.70289 0.24857,-48.57692 c 0.13671,-26.71732 0.0124,-48.81305 -0.27613,-49.10163 z m 46.52882,73.21511 24.43501,-24.44912 -24.43501,-24.44911 c -13.43926,-13.44702 -24.76178,-24.44912 -25.16116,-24.44912 -0.39937,0 -0.72614,22.00421 -0.72614,48.89823 0,26.89403 0.32677,48.89824 0.72614,48.89824 0.39938,0 11.7219,-11.00211 25.16116,-24.44912 z m -20.13487,-97.79677 c 8.68918,8.70117 16.12702,15.82032 16.52851,15.82032 0.4015,0 0.72999,-11.21783 0.72999,-24.92851 V 116.77732 H 320.18142 287.5826 v 25.15763 25.15764 l 16.0703,-16.04945 16.07031,-16.04945 z"
     id="path939"
     inkscape:connector-curvature="0"
     transform="scale(0.75)" />
</svg>
