<svg height="480pt" viewBox="0 0 480 480" width="480pt" xmlns="http://www.w3.org/2000/svg"><path d="m448 72c0 13.253906-10.746094 24-24 24s-24-10.746094-24-24 10.746094-24 24-24 24 10.746094 24 24zm0 0" fill="#f55648"/><path d="m408 88c0-17.671875-14.328125-32-32-32s-32 14.328125-32 32c-8.835938 0-16 7.164062-16 16v16h96v-16c0-8.835938-7.164062-16-16-16zm0 0" fill="#b8eaee"/><path d="m376 368h-272v-150.398438c0-20.1875 12.628906-38.214843 31.601562-45.113281l56.398438-20.488281 16-8h64l16 8 56.398438 20.511719c18.964843 6.894531 31.589843 24.910156 31.601562 45.089843zm0 0" fill="#9cdcad"/><path d="m376 376h-272v-158.398438c0-20.1875 12.628906-38.214843 31.601562-45.113281l56.398438-20.488281 16-8h64l16 8 56.398438 20.511719c18.964843 6.894531 31.589843 24.910156 31.601562 45.089843zm0 0" fill="#99d8aa"/><path d="m240 312c-26.507812 0-48-21.492188-48-48v-112l16-8 12.503906-8 43.496094-1.238281 8 9.238281 16 8v112c0 26.507812-21.492188 48-48 48zm0 0" fill="#abf0bd"/><path d="m440 440h-416v-40c0-17.671875 14.328125-32 32-32h352c17.671875 0 32 14.328125 32 32zm0 0" fill="#9cdcad"/><path d="m200 280c15.363281.015625 29.96875-6.667969 40-18.304688 10.03125 11.636719 24.636719 18.320313 40 18.304688h5.207031c1.839844-5.136719 2.78125-10.546875 2.792969-16h-8c-12.320312.007812-23.828125-6.152344-30.65625-16.40625l-2.6875-4c-1.570312-2.101562-4.035156-3.335938-6.65625-3.335938s-5.085938 1.234376-6.65625 3.335938l-2.6875 4c-6.828125 10.253906-18.335938 16.414062-30.65625 16.40625h-8c.011719 5.453125.953125 10.863281 2.792969 16zm0 0" fill="#96d3a7"/><path d="m240 190.609375c-8.121094.011719-15.914062-3.207031-21.65625-8.953125-3.03125-3.140625-2.988281-8.128906.097656-11.214844 3.085938-3.085937 8.074219-3.128906 11.214844-.097656 5.71875 5.703125 14.96875 5.703125 20.6875 0 3.140625-3.03125 8.128906-2.988281 11.214844.097656 3.085937 3.085938 3.128906 8.074219.097656 11.214844-5.742188 5.746094-13.535156 8.964844-21.65625 8.953125zm0 0" fill="#96d3a7"/><path d="m240 414.246094c-8.515625 0-17.023438-.601563-25.457031-1.796875-22.066407-3.253907-38.449219-22.140625-38.542969-44.449219 0-4.417969 3.582031-8 8-8s8 3.582031 8 8c.058594 14.355469 10.597656 26.511719 24.800781 28.601562 15.386719 2.210938 31.011719 2.210938 46.398438 0 14.203125-2.089843 24.742187-14.246093 24.800781-28.601562 0-4.417969 3.582031-8 8-8s8 3.582031 8 8c-.09375 22.308594-16.476562 41.195312-38.542969 44.449219-8.433593 1.195312-16.941406 1.796875-25.457031 1.796875zm0 0" fill="#91cda2"/><path d="m16 440h448c4.417969 0 8 3.582031 8 8v24h-464v-24c0-4.417969 3.582031-8 8-8zm0 0" fill="#746250"/><path d="m328 216c4.417969 0 8-3.582031 8-8v-38.542969l-16-5.816406v44.359375c0 4.417969 3.582031 8 8 8zm0 0" fill="#91cda2"/><path d="m152 216c4.417969 0 8-3.582031 8-8v-44.359375l-16 5.816406v38.542969c0 4.417969 3.582031 8 8 8zm0 0" fill="#91cda2"/><path d="m456 120c0-17.671875-14.328125-32-32-32s-32 14.328125-32 32c-8.835938 0-16 7.164062-16 16v16h96v-16c0-8.835938-7.164062-16-16-16zm0 0" fill="#c0f5f9"/><path d="m88 123.335938c0-17.671876-14.328125-32-32-32s-32 14.328124-32 32c-8.835938 0-16 7.164062-16 16v16h96v-16c0-8.835938-7.164062-16-16-16zm0 0" fill="#c0f5f9"/><path d="m112 88c-3.03125 0-5.804688-1.710938-7.160156-4.425781l-.839844-1.6875c-3.011719-6.074219-9.21875-9.910157-16-9.886719-4.417969 0-8-3.582031-8-8s3.582031-8 8-8c9.003906-.027344 17.648438 3.546875 24 9.929688 6.351562-6.382813 14.996094-9.957032 24-9.929688 4.417969 0 8 3.582031 8 8s-3.582031 8-8 8c-6.78125-.023438-12.988281 3.8125-16 9.886719l-.839844 1.6875c-1.355468 2.714843-4.128906 4.425781-7.160156 4.425781zm0 0" fill="#b9b9b9"/><path d="m56 64c-3.03125 0-5.804688-1.710938-7.160156-4.425781l-.839844-1.6875c-3.011719-6.074219-9.21875-9.910157-16-9.886719-4.417969 0-8-3.582031-8-8s3.582031-8 8-8c9.003906-.027344 17.648438 3.546875 24 9.929688 6.351562-6.382813 14.996094-9.957032 24-9.929688 4.417969 0 8 3.582031 8 8s-3.582031 8-8 8c-6.78125-.023438-12.988281 3.8125-16 9.886719l-.800781 1.6875c-1.359375 2.726562-4.152344 4.441406-7.199219 4.425781zm0 0" fill="#cdcdcd"/><path d="m104 357.902344h74.542969v10.097656h-74.542969zm0 0" fill="#93cfa3"/><path d="m300.496094 357.902344h75.503906v10.097656h-75.503906zm0 0" fill="#93cfa3"/><path d="m24 426.945312h416v13.054688h-416zm0 0" fill="#93cfa3"/><path d="m24 426.945312h416v13.054688h-416zm0 0" fill="#8dc79d"/><path d="m104 354.945312h272v13.054688h-272zm0 0" fill="#93cfa3"/><path d="m184 336h56v32h-56zm0 0" fill="#abf0bd"/><path d="m240 368h-11.503906l-8-32h19.503906zm0 0" fill="#a5e8b7"/><path d="m296 368h-56l-8-32h64zm0 0" fill="#abf0bd"/><path d="m187.574219 328.839844-27.574219-13.785156v-63.742188l13.65625-13.65625c3.03125-3.140625 2.988281-8.128906-.097656-11.214844-3.085938-3.085937-8.074219-3.128906-11.214844-.097656l-10.34375 10.34375-10.34375-10.34375c-3.140625-3.03125-8.128906-2.988281-11.214844.097656-3.085937 3.085938-3.128906 8.074219-.097656 11.214844l13.65625 13.65625v65.375l-13.65625 13.65625c-2.078125 2.007812-2.914062 4.984375-2.179688 7.78125.730469 2.796875 2.914063 4.980469 5.710938 5.710938 2.796875.734374 5.773438-.101563 7.78125-2.179688l11.917969-11.921875 22.402343 11.203125v27.0625h16v-32c.003907-3.027344-1.699218-5.796875-4.402343-7.160156zm0 0" fill="#91cda2"/><path d="m326.398438 329.734375 11.921874 11.921875c3.140626 3.03125 8.128907 2.988281 11.214844-.097656 3.085938-3.085938 3.128906-8.074219.097656-11.214844l-13.632812-13.65625v-65.375l13.65625-13.65625c3.03125-3.140625 2.988281-8.128906-.097656-11.214844-3.085938-3.085937-8.074219-3.128906-11.214844-.097656l-10.34375 10.34375-10.34375-10.34375c-3.140625-3.03125-8.128906-2.988281-11.214844.097656-3.085937 3.085938-3.128906 8.074219-.097656 11.214844l13.65625 13.65625v63.742188l-27.574219 13.785156c-2.714843 1.355468-4.425781 4.128906-4.425781 7.160156v32h16v-27.054688zm0 0" fill="#91cda2"/><path d="m207.046875 437.039062c10.9375.992188 21.945313 1.480469 32.953125 1.480469s22.015625-.488281 32.953125-1.480469c35.78125-3.09375 63.207031-33.121093 63.046875-69.039062h-16c.121094 27.628906-20.976562 50.726562-48.503906 53.105469-20.957032 1.902343-42.042969 1.902343-63 0-27.523438-2.382813-48.617188-25.480469-48.496094-53.105469h-16c-.160156 35.917969 27.265625 65.945312 63.046875 69.039062zm0 0" fill="#91cda2"/><path d="m176.671875 426.945312c9.210937 5.683594 19.617187 9.140626 30.398437 10.09375 10.9375.992188 21.945313 1.480469 32.953126 1.480469 11.007812 0 22.015624-.488281 32.953124-1.480469 10.78125-.953124 21.191407-4.410156 30.398438-10.09375zm0 0" fill="#7eb28d"/><path d="m306.511719 440h28.800781c20.742188-18.183594 32.648438-44.417969 32.6875-72h-16c-.078125 30.742188-17.757812 58.726562-45.488281 72zm0 0" fill="#91cda2"/><path d="m144.71875 440h28.800781c-27.742187-13.265625-45.433593-41.25-45.519531-72h-16c.046875 27.589844 11.96875 53.820312 32.71875 72zm0 0" fill="#91cda2"/><path d="m334.328125 440h37.046875c27.199219-17.503906 44.113281-43 44.5625-70.886719-2.589844-.707031-5.253906-1.078125-7.9375-1.113281h-8c0 31.144531-26.398438 58.960938-65.671875 72zm0 0" fill="#87bf96"/><path d="m108.625 440h37.046875c-39.230469-13.039062-65.671875-40.855469-65.671875-72h-16c0 28.328125 17.089844 54.265625 44.625 72zm0 0" fill="#87bf96"/><path d="m108.625 440h37.046875c-39.230469-13.039062-65.671875-40.855469-65.671875-72h-16c0 28.328125 17.089844 54.265625 44.625 72zm0 0" fill="#91cda2"/><path d="m362.183594 426.945312c-8.722656 5.457032-18.078125 9.839844-27.855469 13.054688h37.046875c5.941406-3.839844 11.527344-8.210938 16.679688-13.054688zm0 0" fill="#7eb28d"/><path d="m362.183594 426.945312c-8.722656 5.457032-18.078125 9.839844-27.855469 13.054688h37.046875c5.941406-3.839844 11.527344-8.210938 16.679688-13.054688zm0 0" fill="#7eb28d"/><path d="m92.390625 427.335938c5.03125 4.6875 10.464844 8.925781 16.234375 12.664062h37.046875c-9.558594-3.132812-18.710937-7.386719-27.273437-12.664062zm0 0" fill="#7eb28d"/><path d="m220.496094 136-12.496094 8-4.617188 2.3125c21 18.25 52.234376 18.25 73.234376 0l-4.617188-2.3125-8-9.238281zm0 0" fill="#a2e4b4"/><path d="m240 152c-30.929688 0-56-25.070312-56-56v-40h112v40c0 30.929688-25.070312 56-56 56zm0 0" fill="#abf0bd"/><g fill="#96d3a7"><path d="m248 128h-16c-4.417969 0-8-3.582031-8-8v-24h-16c-4.417969 0-8-3.582031-8-8s3.582031-8 8-8h24c4.417969 0 8 3.582031 8 8v24h8c4.417969 0 8 3.582031 8 8s-3.582031 8-8 8zm0 0"/><path d="m272 96h-16c-4.417969 0-8-3.582031-8-8s3.582031-8 8-8h16c4.417969 0 8 3.582031 8 8s-3.582031 8-8 8zm0 0"/><path d="m296 56v16l-24-16h-64l-24 16v-16c0-26.507812 21.492188-48 48-48h16c26.507812 0 48 21.492188 48 48zm0 0"/></g><path d="m154.214844 426.945312h-21.710938c3.660156 4.71875 7.75 9.089844 12.214844 13.054688h28.800781c-7.039062-3.386719-13.542969-7.785156-19.304687-13.054688zm0 0" fill="#7eb28d"/><path d="m347.496094 426.945312h-21.710938c-5.753906 5.269532-12.246094 9.667969-19.273437 13.054688h28.800781c4.453125-3.96875 8.535156-8.335938 12.183594-13.054688zm0 0" fill="#7eb28d"/><path d="m229.65625 170.34375c-3.140625-3.03125-8.128906-2.988281-11.214844.097656-3.085937 3.085938-3.128906 8.074219-.097656 11.214844 11.972656 11.933594 31.339844 11.933594 43.3125 0 3.03125-3.140625 2.988281-8.128906-.097656-11.214844-3.085938-3.085937-8.074219-3.128906-11.214844-.097656-5.71875 5.703125-14.96875 5.703125-20.6875 0zm0 0"/><path d="m224 96v24c0 4.417969 3.582031 8 8 8h16c4.417969 0 8-3.582031 8-8s-3.582031-8-8-8h-8v-24c0-4.417969-3.582031-8-8-8h-24c-4.417969 0-8 3.582031-8 8s3.582031 8 8 8zm0 0"/><path d="m256 96h16c4.417969 0 8-3.582031 8-8s-3.582031-8-8-8h-16c-4.417969 0-8 3.582031-8 8s3.582031 8 8 8zm0 0"/><path d="m464 432h-16v-32c-.027344-22.082031-17.917969-39.972656-40-40h-24v-142.398438c-.089844-23.527343-14.792969-44.519531-36.871094-52.648437l-55.929687-20.304687-6.320313-3.160157c12.179688-12.011719 19.058594-28.382812 19.121094-45.488281v-40c-.039062-30.910156-25.089844-55.9609375-56-56h-16c-30.910156.0390625-55.960938 25.089844-56 56v40c.0625 17.105469 6.945312 33.480469 19.121094 45.496094l-6.3125 3.152344-56 20.320312c-22.050782 8.140625-36.726563 29.125-36.808594 52.632812v142.398438h-40c-22.082031.027344-39.972656 17.917969-40 40v32c-8.835938 0-16 7.164062-16 16v24c0 4.417969 3.582031 8 8 8h464c4.417969 0 8-3.582031 8-8v-24c0-8.835938-7.164062-16-16-16zm-32-32v32h-49.601562c.976562-.800781 2.089843-1.472656 3.035156-2.289062 16.054687-13.226563 26.703125-31.886719 29.925781-52.4375 9.886719 3.164062 16.609375 12.34375 16.640625 22.726562zm-88.800781 32c.992187-1.105469 2.113281-2.097656 3.046875-3.238281 12.316406-15.015625 19.78125-33.414063 21.410156-52.761719h31.710938c-2.832032 16.375-11.523438 31.15625-24.445313 41.601562-6.609375 5.628907-13.859375 10.464844-21.601563 14.398438zm-49.863281 0c23.222656-9.570312 39.382812-31.035156 42.160156-56h16.046875c-2.140625 22.359375-13.738281 42.738281-31.871094 56zm-133.046876 0c-17.988281-13.378906-29.527343-33.699219-31.800781-56h16c2.777344 24.964844 18.9375 46.429688 42.160157 56zm-33.648437 0c-26.074219-13.441406-42.679687-33.855469-45.945313-56h31.792969c1.730469 20.796875 10.203125 40.457031 24.128907 56zm65.359375-88h40v16h-40zm56 0h40v16h-40zm-8 32h46.734375c-3.140625 10.878906-12.335937 18.925781-23.535156 20.601562-15.386719 2.210938-31.011719 2.210938-46.398438 0-11.199219-1.675781-20.394531-9.722656-23.535156-20.601562zm-63.257812 0c3.515624 18.980469 18.707031 33.628906 37.800781 36.449219 16.886719 2.398437 34.027343 2.398437 50.914062 0 19.09375-2.820313 34.285157-17.46875 37.800781-36.449219h16.09375c-3.566406 24.308594-23.371093 42.976562-47.847656 45.105469-20.960937 1.902343-42.046875 1.902343-63.007812 0-24.476563-2.128907-44.28125-20.796875-47.847656-45.105469zm93.65625-223.847656 9.601562 4.800781v107.046875c-12.320312.007812-23.828125-6.152344-30.65625-16.40625l-2.6875-4c-1.570312-2.101562-4.035156-3.335938-6.65625-3.335938s-5.085938 1.234376-6.65625 3.335938l-2.6875 4c-6.828125 10.253906-18.335938 16.414062-30.65625 16.40625v-107.054688l9.601562-4.800781c18.917969 10.453125 41.878907 10.453125 60.796876 0zm-30.398438 109.542968c9.265625 10.714844 22.453125 17.246094 36.59375 18.121094-6.28125 14.664063-20.695312 24.175782-36.648438 24.175782-15.953124 0-30.371093-9.511719-36.648437-24.175782 14.175781-.847656 27.410156-7.378906 36.703125-18.121094zm-8-245.695312h16c22.082031.027344 39.972656 17.917969 40 40v1.054688l-11.558594-7.710938c-.285156-.152344-.574218-.289062-.875-.40625-.257812-.144531-.523437-.269531-.796875-.378906-.882812-.351563-1.820312-.539063-2.769531-.558594h-64c-.953125.015625-1.890625.207031-2.777344.558594-.273437.109375-.539062.234375-.796875.378906-.300781.117188-.589843.253906-.875.40625l-11.550781 7.710938v-1.054688c.027344-22.082031 17.917969-39.972656 40-40zm-40 80v-19.71875l18.398438-12.28125h59.203124l18.398438 12.28125v19.71875c.082031 16.902344-8.8125 32.574219-23.367188 41.167969-15.21875 8.980469-34.113281 8.980469-49.328124 0-14.53125-8.609375-23.402344-24.28125-23.304688-41.167969zm-80 121.601562c.066406-16.800781 10.5625-31.792968 26.328125-37.601562l5.671875-2.054688v30.054688c0 4.417969 3.582031 8 8 8s8-3.582031 8-8v-35.871094l24-8.714844v100.585938c.125 28.992188 22.359375 53.097656 51.25 55.554688 28.886719 2.460937 54.878906-17.535157 59.902344-46.089844.566406-3.125.851562-6.292969.847656-9.464844v-100.585938l24 8.714844v35.871094c0 4.417969 3.582031 8 8 8s8-3.582031 8-8v-30.0625l5.601562 2.046875c15.792969 5.792969 26.320313 20.792969 26.398438 37.617187v142.398438h-64v-19.054688l22.398438-11.203124 11.921874 11.921874c3.140626 3.03125 8.128907 2.988282 11.214844-.097656 3.085938-3.085937 3.128906-8.074218.097656-11.214844l-13.632812-13.664062v-65.375l13.65625-13.65625c3.03125-3.140625 2.988281-8.128906-.097656-11.214844-3.085938-3.085937-8.074219-3.128906-11.214844-.097656l-10.34375 10.34375-10.34375-10.34375c-3.140625-3.03125-8.128906-2.988281-11.214844.097656-3.085937 3.085938-3.128906 8.074219-.097656 11.214844l13.65625 13.65625v63.742188l-25.886719 12.945312h-108.226562l-25.886719-12.945312v-63.742188l13.65625-13.65625c3.03125-3.140625 2.988281-8.128906-.097656-11.214844-3.085938-3.085937-8.074219-3.128906-11.214844-.097656l-10.34375 10.34375-10.34375-10.34375c-3.140625-3.03125-8.128906-2.988281-11.214844.097656-3.085937 3.085938-3.128906 8.074219-.097656 11.214844l13.65625 13.65625v65.375l-13.65625 13.65625c-2.078125 2.007812-2.914062 4.984375-2.179688 7.78125.730469 2.796875 2.914063 4.980469 5.710938 5.710938 2.796875.734374 5.773438-.101563 7.78125-2.179688l11.917969-11.921875 22.402343 11.203125v19.0625h-63.976562zm-80 182.398438c0-13.253906 10.746094-24 24-24h8.503906c3.152344 22.25 14.933594 42.367188 32.800782 56h-65.304688zm432 64h-448v-16h448zm0 0"/><path d="m463.414062 113.167969c-1.578124-8.960938-6.171874-17.113281-13.015624-23.113281 6.617187-9.457032 7.621093-21.746094 2.625-32.152344-4.996094-10.40625-15.214844-17.308594-26.734376-18.058594-11.515624-.75-22.542968 4.769531-28.847656 14.4375-11.273437-7.203125-25.402344-8.28125-37.640625-2.875-12.234375 5.40625-20.949219 16.578125-23.214843 29.761719-9.882813 3.226562-16.574219 12.4375-16.585938 22.832031v16c0 4.417969 3.582031 8 8 8h41.398438c-.917969 2.566406-1.390626 5.273438-1.398438 8v16c0 4.417969 3.582031 8 8 8h96c4.417969 0 8-3.582031 8-8v-16c-.011719-10.394531-6.703125-19.605469-16.585938-22.832031zm-39.414062-57.167969c8.835938 0 16 7.164062 16 16 .015625 3.679688-1.253906 7.246094-3.59375 10.089844-6.765625-2.367188-14.070312-2.730469-21.039062-1.050782-.984376-5.429687-3.070313-10.601562-6.128907-15.199218 2.472657-5.96875 8.300781-9.855469 14.761719-9.839844zm-88 48c0-4.417969 3.582031-8 8-8s8-3.582031 8-8c-.007812-10.074219 6.273438-19.078125 15.726562-22.550781 9.457032-3.472657 20.074219-.671875 26.585938 7.015625 3.644531 4.359375 5.65625 9.851562 5.6875 15.535156v.160156c-7.769531 5.84375-13.136719 14.320313-15.105469 23.839844h-48.894531zm128 40h-80v-8c0-4.417969 3.582031-8 8-8s8-3.582031 8-8c0-13.253906 10.746094-24 24-24s24 10.746094 24 24c0 4.417969 3.582031 8 8 8s8 3.582031 8 8zm0 0"/><path d="m8 160h96c4.417969 0 8-3.582031 8-8v-16c-.011719-10.394531-6.703125-19.605469-16.585938-22.832031-3.3125-19.179688-19.949218-33.191407-39.414062-33.191407s-36.101562 14.011719-39.414062 33.191407c-9.882813 3.226562-16.5742192 12.4375-16.585938 22.832031v16c0 4.417969 3.582031 8 8 8zm8-24c0-4.417969 3.582031-8 8-8s8-3.582031 8-8c0-13.253906 10.746094-24 24-24s24 10.746094 24 24c0 4.417969 3.582031 8 8 8s8 3.582031 8 8v8h-80zm0 0"/><path d="m80 64c0 4.417969 3.582031 8 8 8 6.78125-.023438 12.988281 3.8125 16 9.886719l.839844 1.6875c1.351562 2.71875 4.125 4.433593 7.160156 4.433593s5.808594-1.714843 7.160156-4.433593l.839844-1.6875c3.011719-6.074219 9.21875-9.910157 16-9.886719 4.417969 0 8-3.582031 8-8s-3.582031-8-8-8c-9.003906-.027344-17.648438 3.546875-24 9.929688-6.351562-6.382813-14.996094-9.957032-24-9.929688-4.417969 0-8 3.582031-8 8zm0 0"/><path d="m32 48c6.78125-.023438 12.988281 3.8125 16 9.886719l.839844 1.6875c1.351562 2.71875 4.125 4.433593 7.160156 4.433593s5.808594-1.714843 7.160156-4.433593l.839844-1.6875c3.011719-6.074219 9.21875-9.910157 16-9.886719 4.417969 0 8-3.582031 8-8s-3.582031-8-8-8c-9.003906-.027344-17.648438 3.546875-24 9.929688-6.351562-6.382813-14.996094-9.957032-24-9.929688-4.417969 0-8 3.582031-8 8s3.582031 8 8 8zm0 0"/></svg>