<?xml version="1.0" encoding="UTF-8" standalone="no"?>
<svg
   xmlns:dc="http://purl.org/dc/elements/1.1/"
   xmlns:cc="http://creativecommons.org/ns#"
   xmlns:rdf="http://www.w3.org/1999/02/22-rdf-syntax-ns#"
   xmlns:svg="http://www.w3.org/2000/svg"
   xmlns="http://www.w3.org/2000/svg"
   xmlns:sodipodi="http://sodipodi.sourceforge.net/DTD/sodipodi-0.dtd"
   xmlns:inkscape="http://www.inkscape.org/namespaces/inkscape"
   inkscape:version="1.0 (4035a4fb49, 2020-05-01)"
   sodipodi:docname="hongkong_skyline.svg"
   id="svg116"
   version="1.1"
   width="480pt"
   viewBox="0 0 480 480"
   height="480pt">
  <metadata
     id="metadata122">
    <rdf:RDF>
      <cc:Work
         rdf:about="">
        <dc:format>image/svg+xml</dc:format>
        <dc:type
           rdf:resource="http://purl.org/dc/dcmitype/StillImage" />
      </cc:Work>
    </rdf:RDF>
  </metadata>
  <defs
     id="defs120" />
  <sodipodi:namedview
     inkscape:document-rotation="0"
     inkscape:current-layer="svg116"
     inkscape:window-maximized="1"
     inkscape:window-y="-8"
     inkscape:window-x="1912"
     inkscape:cy="263.96617"
     inkscape:cx="500.24197"
     inkscape:zoom="1.0429825"
     showgrid="false"
     id="namedview118"
     inkscape:window-height="1017"
     inkscape:window-width="1920"
     inkscape:pageshadow="2"
     inkscape:pageopacity="0"
     guidetolerance="10"
     gridtolerance="10"
     objecttolerance="10"
     borderopacity="1"
     bordercolor="#666666"
     pagecolor="#ffffff" />
  <path
     id="path2"
     fill="#bc9677"
     d="m72 16h16v72h-16zm0 0" />
  <path
     id="path4"
     fill="#214668"
     d="m136 216v-32l-40-40v-56l-16-8-16 8v56l-40 40v32h-16v264h144v-264zm0 0" />
  <path
     id="path6"
     fill="#36607f"
     d="m96 144h-32l-40 40h112zm0 0" />
  <path
     id="path8"
     fill="#133144"
     d="m24 184h112v32h-112zm0 0" />
  <path
     id="path10"
     fill="#36607f"
     d="m464 152-8-88h-8l-6.398438-42.398438c-.800781-8-8-13.601562-16-13.601562h-52c-8 0-14.402343 5.601562-16 13.601562l-5.601562 42.398438h-8l-8 88h-8v328h144v-328zm0 0" />
  <path
     id="path12"
     fill="#447491"
     d="m336 152 8-88h112l8 88zm0 0" />
  <path
     id="path14"
     fill="#5489a3"
     d="m426.398438 8h-52c-8 0-14.398438 5.601562-16 13.601562l-6.398438 42.398438h96l-6.398438-42.398438c-.800781-8-7.203124-13.601562-15.203124-13.601562zm0 0" />
  <path
     id="path16"
     fill="#bfbfbf"
     d="m 262.53916,48 h 16 v 104 h -16 z m 0,0" />
  <path
     id="path18"
     fill="#bfbfbf"
     d="m 198.53916,48 h 16 v 104 h -16 z m 0,0" />
  <path
     id="path20"
     fill="#bfbfbf"
     d="m 206.53916,72 h 64 v 16 h -64 z m 0,0" />
  <path
     id="path22"
     fill="#bc9677"
     d="m40 480v-208h24v-24h32v24h24v208" />
  <path
     id="path24"
     fill="#214668"
     d="m72 296h16v184h-16zm0 0" />
  <path
     id="path26"
     fill="#bc9677"
     d="m64 104h32v16h-32zm0 0" />
  <path
     id="path28"
     fill="#aa9581"
     d="m48 184h16v32h-16zm0 0" />
  <path
     id="path30"
     fill="#aa9581"
     d="m96 184h16v32h-16zm0 0" />
  <path
     id="path32"
     fill="#b4cbd1"
     d="m392 8h16v32h-16zm0 0" />
  <path
     id="path34"
     fill="#15364f"
     d="m376 56h48v16h-48zm0 0" />
  <path
     id="path36"
     fill="#15364f"
     d="m376 88h16v40h-16zm0 0" />
  <path
     id="path38"
     fill="#15364f"
     d="m408 88h16v40h-16zm0 0" />
  <path
     id="path40"
     fill="#15364f"
     d="m352 208h96v16h-96zm0 0" />
  <path
     id="path42"
     fill="#15364f"
     d="m360 168h16v24h-16zm0 0" />
  <path
     id="path44"
     fill="#15364f"
     d="m392 168h16v24h-16zm0 0" />
  <path
     id="path46"
     fill="#15364f"
     d="m424 168h16v24h-16zm0 0" />
  <path
     id="path48"
     fill="#214668"
     d="m 238.53916,112 -56,56 v 312 h 112 V 168 Z m 0,0" />
  <g
     id="g68"
     fill="#15364f">
    <path
       id="path50"
       d="m352 304h96v16h-96zm0 0" />
    <path
       id="path52"
       d="m360 264h16v24h-16zm0 0" />
    <path
       id="path54"
       d="m392 264h16v24h-16zm0 0" />
    <path
       id="path56"
       d="m424 264h16v24h-16zm0 0" />
    <path
       id="path58"
       d="m352 400h96v16h-96zm0 0" />
    <path
       id="path60"
       d="m360 360h16v24h-16zm0 0" />
    <path
       id="path62"
       d="m392 360h16v24h-16zm0 0" />
    <path
       id="path64"
       d="m424 360h16v24h-16zm0 0" />
    <path
       id="path66"
       d="m240 112 56 56v312h-56zm0 0" />
  </g>
  <path
     id="path70"
     fill="#bfbfbf"
     d="m 182.53916,299.19922 104,104 v 1.60156 l -53.60156,53.59766 11.20312,11.20312 50.39844,-50.40234 v -30.39844 l -104,-104 v -1.60156 l 104,-104 V 168 l -5.60156,-5.60156 -106.39844,106.40234 z m 0,0" />
  <path
     id="path72"
     fill="#bfbfbf"
     d="m 286.53916,283.19922 v 1.60156 l -104,104 v 30.39844 l 50.39844,50.40234 11.20312,-11.20312 -53.60156,-53.59766 v -1.60156 l 104,-104 V 268.80078 L 188.14072,162.39844 182.53916,168 v 11.19922 z m 0,0" />
  <path
     id="path74"
     fill="#bfbfbf"
     d="m 238.53916,112 -8,8 v 360 h 16 V 120 Z m 0,0" />
  <path
     id="path76"
     d="m104 240h-48v24h-24v216h16v-200h24v-24h16v24h24v200h16v-216h-24zm0 0" />
  <path
     id="path78"
     d="m72 296h16v184h-16zm0 0" />
  <path
     id="path80"
     d="m144 180.800781-40-40v-57.601562l-16-8v-59.199219h-16v59.199219l-16 8v57.601562l-40 40v27.199219h-16v272h16v-256h128v256h16v-272h-16zm-56-44.800781h-16v-16h16zm-8-47.199219 8 4v11.199219h-16v-11.199219zm-12.800781 63.199219h25.601562l24 24h-73.601562zm28.800781 40v16h-32v-16zm-64 0h16v16h-16zm80 16v-16h16v16zm0 0" />
  <path
     id="path82"
     d="m471.199219 144-8-88h-8l-4.800781-35.199219c-2.398438-12-12-20.800781-24-20.800781h-52c-12 0-22.398438 8.800781-24 20.800781l-5.597657 35.199219h-8l-8 88h-8.800781v336h16v-320h7.199219l8-88h8l7.199219-48.800781c.800781-4 4-7.199219 8-7.199219h17.601562v24h16v-24h18.398438c4 0 7.203124 3.199219 8 7.199219l7.203124 48.800781h8l8 88h6.398438v320h16v-336zm0 0" />
  <path
     id="path84"
     d="m376 56h48v16h-48zm0 0" />
  <path
     id="path86"
     d="m376 88h16v40h-16zm0 0" />
  <path
     id="path88"
     d="m408 88h16v40h-16zm0 0" />
  <path
     id="path90"
     d="m352 208h96v16h-96zm0 0" />
  <path
     id="path92"
     d="m360 168h16v24h-16zm0 0" />
  <path
     id="path94"
     d="m392 168h16v24h-16zm0 0" />
  <path
     id="path96"
     d="m424 168h16v24h-16zm0 0" />
  <path
     id="path100"
     d="m352 304h96v16h-96zm0 0" />
  <path
     id="path102"
     d="m360 264h16v24h-16zm0 0" />
  <path
     id="path104"
     d="m392 264h16v24h-16zm0 0" />
  <path
     id="path106"
     d="m424 264h16v24h-16zm0 0" />
  <path
     id="path108"
     d="m352 400h96v16h-96zm0 0" />
  <path
     id="path110"
     d="m360 360h16v24h-16zm0 0" />
  <path
     id="path112"
     d="m392 360h16v24h-16zm0 0" />
  <path
     id="path114"
     d="m424 360h16v24h-16zm0 0" />
  <path
     inkscape:connector-curvature="0"
     id="path939"
     d="M 176.31903,323.32457 V 165.33894 l 12.2771,-12.26123 12.27716,-12.26116 V 94.408269 48 h 7.58294 7.58293 v 12.277119 12.27713 h 24.5542 24.55427 V 60.277119 48 h 7.58295 7.58291 v 46.769599 46.769591 l 11.91604,11.8996 11.91602,11.89967 v 157.98587 157.98592 h -7.58294 -7.58293 v -26.5355 -26.53551 l -20.58221,20.57272 -20.58224,20.57274 v 5.96277 5.96278 h -7.58294 -7.58294 v -6.32395 -6.32393 l -20.22112,-20.21148 -20.22117,-20.21148 v 26.53542 26.53542 h -7.94402 -7.94401 z m 56.33032,81.98065 v -41.34015 l -20.22112,20.21148 c -11.12165,11.11629 -20.22117,20.69895 -20.22117,21.2948 0,0.83419 39.44128,41.17407 40.2569,41.17407 0.10196,0 0.18539,-18.60311 0.18539,-41.3402 z m 56.33033,0.17575 c 0,-1.38029 -39.96565,-41.40044 -40.65529,-40.71075 -0.66553,0.66553 -0.66553,80.7559 0,81.42143 0.68964,0.68971 40.65529,-39.3304 40.65529,-40.71068 z M 211.16967,363.76966 229.76075,345.16829 210.9839,326.4019 192.20706,307.63548 v 37.36777 c 0,20.5523 0.0834,37.36784 0.18576,37.36784 0.10217,0 8.55175,-8.37062 18.77685,-18.60143 z m 77.81001,-18.76641 v -37.36777 l -18.77685,18.76642 -18.77677,18.76639 18.59107,18.60137 c 10.22509,10.23081 18.67463,18.60143 18.77679,18.60143 0.10216,0 0.18576,-16.81554 0.18576,-37.36784 z m -56.33033,-60.3027 v -41.34022 l -20.22112,20.21149 c -11.12165,11.11636 -20.22117,20.69902 -20.22117,21.29487 0,0.8342 39.44128,41.17406 40.2569,41.17406 0.10196,0 0.18539,-18.60311 0.18539,-41.3402 z m 36.28499,21.30442 c 11.02494,-11.0197 20.04534,-20.52755 20.04534,-21.12874 0,-1.38027 -39.96565,-41.40038 -40.65529,-40.71067 -0.68368,0.68368 -0.65623,81.87519 0.0276,81.87519 0.29533,0 9.55731,-9.01609 20.58227,-20.03578 z M 211.16967,243.165 229.76075,224.56363 210.9839,205.79717 192.20706,187.03076 v 37.36784 c 0,20.5523 0.0834,37.36775 0.18576,37.36775 0.10217,0 8.55175,-8.37062 18.77685,-18.60135 z m 77.81001,-18.7664 v -37.36784 l -18.77685,18.76641 -18.77677,18.76646 18.59107,18.60137 c 10.22509,10.23073 18.67463,18.60135 18.77679,18.60135 0.10216,0 0.18576,-16.81545 0.18576,-37.36775 z m -56.71216,-92.52569 c -0.21738,-0.21739 -8.66999,7.87476 -18.78356,17.98251 l -18.38834,18.37771 18.59634,18.60687 18.59631,18.60684 0.18723,-36.58936 c 0.10297,-20.12417 0.009,-36.76718 -0.20798,-36.98457 z m 35.04666,55.14747 18.40507,-18.41572 -18.40507,-18.41565 c -10.12279,-10.12867 -18.65118,-18.41572 -18.95202,-18.41572 -0.30083,0 -0.54693,16.57417 -0.54693,36.83137 0,20.25728 0.2461,36.83137 0.54693,36.83137 0.30084,0 8.82923,-8.28705 18.95202,-18.41565 z m -15.1661,-73.66296 c 6.54491,6.5539 12.14729,11.91624 12.44972,11.91624 0.30237,0 0.54983,-8.44956 0.54983,-18.77679 V 87.720099 h -24.55427 -24.5542 v 18.949341 18.94937 l 12.10454,-12.08882 12.10455,-12.08883 z"
     style="fill:#999999;fill-opacity:1;stroke:none;stroke-width:0;stroke-miterlimit:4;stroke-dasharray:none" />
</svg>
