<?xml version="1.0" encoding="UTF-8" standalone="no"?>
<!-- Generator: Adobe Illustrator 19.0.0, SVG Export Plug-In . SVG Version: 6.00 Build 0)  -->

<svg
   xmlns:dc="http://purl.org/dc/elements/1.1/"
   xmlns:cc="http://creativecommons.org/ns#"
   xmlns:rdf="http://www.w3.org/1999/02/22-rdf-syntax-ns#"
   xmlns:svg="http://www.w3.org/2000/svg"
   xmlns="http://www.w3.org/2000/svg"
   xmlns:sodipodi="http://sodipodi.sourceforge.net/DTD/sodipodi-0.dtd"
   xmlns:inkscape="http://www.inkscape.org/namespaces/inkscape"
   version="1.1"
   id="Capa_1"
   x="0px"
   y="0px"
   viewBox="0 0 512.001 512.001"
   style="enable-background:new 0 0 512.001 512.001;"
   xml:space="preserve"
   sodipodi:docname="huawei.svg"
   inkscape:version="0.92.4 (5da689c313, 2019-01-14)"><metadata
   id="metadata87"><rdf:RDF><cc:Work
       rdf:about=""><dc:format>image/svg+xml</dc:format><dc:type
         rdf:resource="http://purl.org/dc/dcmitype/StillImage" /><dc:title></dc:title></cc:Work></rdf:RDF></metadata><defs
   id="defs85" /><sodipodi:namedview
   pagecolor="#ffffff"
   bordercolor="#666666"
   borderopacity="1"
   objecttolerance="10"
   gridtolerance="10"
   guidetolerance="10"
   inkscape:pageopacity="0"
   inkscape:pageshadow="2"
   inkscape:window-width="1920"
   inkscape:window-height="1017"
   id="namedview83"
   showgrid="false"
   inkscape:zoom="1.8437465"
   inkscape:cx="313.69345"
   inkscape:cy="278.70531"
   inkscape:window-x="-8"
   inkscape:window-y="-8"
   inkscape:window-maximized="1"
   inkscape:current-layer="Capa_1" />
<g
   id="g18"
   transform="translate(0.03218434,56.892076)">
	<path
   style="fill:#e85454"
   d="m 84.965,79.461 c -0.737,-0.913 -2.095,-0.975 -2.918,-0.14 -7.729,7.84 -41.567,44.403 -38.804,81.04 1.619,30.383 23.896,48.75 25.138,49.751 1.007,0.812 33.681,35.779 151.031,94.215 0.303,0.066 1.409,0.447 2.056,-0.356 0,0 0.909,-0.725 0.435,-1.878 C 167.972,184.289 95.733,92.806 84.965,79.461 Z"
   id="path2"
   inkscape:connector-curvature="0" />
	<path
   style="fill:#e85454"
   d="m 207.289,335.503 c -0.381,-1.305 -1.977,-1.305 -1.977,-1.305 v -0.079 l -149.513,5.222 c -1.496,0.052 -2.38,1.691 -1.615,2.978 16.734,28.158 43.788,49.399 71.878,42.535 20.073,-4.961 65.516,-36.689 80.509,-47.429 h -0.04 c 1.133,-1.093 0.758,-1.922 0.758,-1.922 z"
   id="path4"
   inkscape:connector-curvature="0" />
	<path
   style="fill:#e85454"
   d="M 209.027,319.545 C 146.919,277.638 30.95,215.009 13.976,205.889 c -1.088,-0.585 -2.449,-0.032 -2.797,1.153 -17.119,58.169 27.163,114.363 82.253,115.849 2.272,0.422 90.839,0.066 114.583,-0.053 1.013,-0.025 1.534,-1.007 1.534,-1.007 0.771,-1.218 -0.522,-2.286 -0.522,-2.286 z"
   id="path6"
   inkscape:connector-curvature="0" />
	<path
   style="fill:#e85454"
   d="m 195.14,16.478 c -40.517,10.517 -62.729,51.61 -49.832,95.608 0.01,0.032 0.017,0.061 0.024,0.094 13.52,59.906 79.921,158.302 94.201,178.944 0.994,1.015 1.806,0.585 1.806,0.585 1.528,-0.388 1.409,-1.882 1.409,-1.882 l 0.034,0.019 C 263.143,86.271 225.996,21.257 220.406,12.774 c -0.409,-0.62 -1.131,-0.953 -1.868,-0.859 -7.36,0.939 -23.398,4.563 -23.398,4.563 z"
   id="path8"
   inkscape:connector-curvature="0" />
	<path
   style="fill:#e85454"
   d="m 366.941,63.707 c -9.295,-25.967 -27.574,-41.58 -50.533,-47.169 0,0 -10.919,-2.763 -22.833,-4.576 -4.923,-0.749 -45.319,69.981 -24.45,278.049 0.187,1.363 1.174,1.681 1.174,1.681 1.469,0.591 2.2,-0.833 2.2,-0.833 l 0.008,0.021 c 14.691,-21.207 80.726,-119.135 94.164,-178.752 0.001,-0.001 7.274,-28.855 0.27,-48.421 z"
   id="path10"
   inkscape:connector-curvature="0" />
	<path
   style="fill:#e85454"
   d="m 306.454,334.251 c 0,0 -0.1,0.014 -0.253,0.054 -1.143,0.299 -1.815,1.582 -1.301,2.645 0.093,0.192 0.225,0.375 0.41,0.528 v 0.019 c 14.612,10.49 58.964,41.499 80.323,47.497 0,0 38.201,13.02 72.076,-42.613 0.782,-1.284 -0.104,-2.941 -1.606,-2.993 l -149.635,-5.164 z"
   id="path12"
   inkscape:connector-curvature="0" />
	<path
   style="fill:#e85454"
   d="m 500.827,206.775 c -0.359,-1.2 -1.711,-1.784 -2.814,-1.189 -16.929,9.135 -132.788,71.967 -194.906,113.829 v 0.028 c -1.689,1.131 -0.645,3.372 0.765,3.372 24.045,0.053 115.07,0.172 117.344,-0.223 0,0 11.732,-0.528 26.279,-6.076 0,0 32.376,-10.291 49.201,-47.064 10e-4,-0.003 14.322,-28.654 4.131,-62.677 z"
   id="path14"
   inkscape:connector-curvature="0" />
	<path
   style="fill:#e85454"
   d="m 468.723,160.16 c 2.393,-37.883 -31.106,-73.288 -38.792,-80.882 -0.827,-0.817 -2.17,-0.746 -2.9,0.159 -10.687,13.24 -82.766,104.472 -136.665,222.056 h 0.025 c -0.861,1.853 1.053,3.477 2.479,2.656 112.567,-56.021 145.102,-89.411 150.732,-94.033 1.178,-0.965 23.852,-19.957 25.121,-49.956 z"
   id="path16"
   inkscape:connector-curvature="0" />
</g>
<g
   id="g36"
   transform="translate(0.26271563,56.89323)">
	<path
   style="fill:#d84848"
   d="M 217.594,292.828 C 117.411,240.377 92.719,213.06 89.047,210.11 87.805,209.109 65.529,190.742 63.909,160.359 61.826,132.744 80.537,105.176 93.188,89.913 89.336,84.919 86.512,81.378 84.964,79.459 c -0.737,-0.913 -2.095,-0.975 -2.918,-0.14 -7.729,7.84 -41.567,44.403 -38.804,81.04 1.619,30.383 23.896,48.75 25.138,49.751 1.001,0.809 33.733,35.805 151.031,94.215 0.303,0.066 1.409,0.447 2.056,-0.356 0,0 0.909,-0.725 0.434,-1.878 -1.422,-3.107 -2.86,-6.192 -4.307,-9.263 z"
   id="path20"
   inkscape:connector-curvature="0" />
	<path
   style="fill:#d84848"
   d="M 114.098,322.892 C 63.395,321.524 18.296,272.156 29.992,214.558 c -7.608,-4.142 -13.19,-7.15 -16.015,-8.668 -1.088,-0.585 -2.449,-0.032 -2.798,1.153 -17.191,58.415 27.41,114.37 82.253,115.849 0.983,0.182 18.113,0.219 39.156,0.193 -10.629,-0.02 -17.862,-0.077 -18.49,-0.193 z"
   id="path22"
   inkscape:connector-curvature="0" />
	<path
   style="fill:#d84848"
   d="M 244.775,268.137 C 219.779,229.897 176.607,159.19 165.998,112.18 c -0.008,-0.033 -0.015,-0.062 -0.024,-0.094 -12.896,-43.996 9.314,-85.091 49.832,-95.608 0,0 2.539,-0.573 6.056,-1.323 -0.601,-1.043 -1.096,-1.833 -1.458,-2.381 -0.409,-0.62 -1.131,-0.953 -1.868,-0.859 -7.36,0.939 -23.398,4.562 -23.398,4.562 -40.517,10.517 -62.729,51.61 -49.832,95.608 0.01,0.032 0.017,0.061 0.024,0.094 13.52,59.906 79.921,158.302 94.201,178.944 0.994,1.015 1.805,0.585 1.805,0.585 1.528,-0.388 1.409,-1.882 1.409,-1.882 l 0.034,0.019 c 0.744,-7.427 1.402,-14.647 1.996,-21.708 z"
   id="path24"
   inkscape:connector-curvature="0" />
	<path
   style="fill:#d84848"
   d="m 310.871,15.239 c -4.304,-0.958 -10.643,-2.266 -17.294,-3.278 -4.923,-0.749 -45.319,69.981 -24.45,278.049 0.187,1.363 1.174,1.681 1.174,1.681 1.469,0.591 2.2,-0.833 2.2,-0.833 l 0.009,0.021 c 3.114,-4.495 8.54,-12.446 15.277,-22.74 -13.902,-166.106 12.742,-237.512 23.084,-252.9 z"
   id="path26"
   inkscape:connector-curvature="0" />
	<path
   style="fill:#d84848"
   d="m 326.856,334.927 -20.389,-0.704 -0.013,0.028 c 0,0 -0.1,0.014 -0.253,0.054 -1.143,0.299 -1.815,1.582 -1.301,2.646 0.093,0.192 0.225,0.375 0.41,0.528 v 0.019 c 14.612,10.49 58.964,41.499 80.323,47.497 0,0 9.896,3.367 24.076,-0.653 -22.956,-7.417 -66.95,-38.029 -82.853,-49.415 z"
   id="path28"
   inkscape:connector-curvature="0" />
	<path
   style="fill:#d84848"
   d="m 504.036,223.099 c -0.52,-5.226 -1.524,-10.699 -3.209,-16.324 -0.359,-1.2 -1.711,-1.784 -2.814,-1.189 -16.929,9.135 -132.788,71.967 -194.906,113.829 v 0.028 c -1.689,1.131 -0.645,3.372 0.765,3.372 6.329,0.014 17.303,0.032 30.074,0.045 50.92,-33.256 126.526,-75.757 170.09,-99.761 z"
   id="path30"
   inkscape:connector-curvature="0" />
	<path
   style="fill:#d84848"
   d="m 439.559,89.779 c -4.178,-4.971 -7.708,-8.603 -9.628,-10.5 -0.827,-0.817 -2.169,-0.746 -2.9,0.159 -10.687,13.24 -82.766,104.472 -136.664,222.056 h 0.025 c -0.861,1.854 1.053,3.477 2.479,2.656 7.77,-3.867 15.145,-7.622 22.17,-11.271 45.561,-96.754 102.349,-174.374 124.518,-203.1 z"
   id="path32"
   inkscape:connector-curvature="0" />
	<path
   style="fill:#d84848"
   d="m 76.791,345.471 h -0.004 c -0.636,-1 -2.836,-3.866 -2.904,-6.761 L 55.8,339.342 c -1.496,0.052 -2.38,1.691 -1.615,2.978 16.636,27.994 43.473,49.139 71.387,42.64 -19.058,-4.318 -36.409,-19.973 -48.781,-39.489 z"
   id="path34"
   inkscape:connector-curvature="0" />
</g>
<path
   d="m 494.45176,255.86415 c -10.982,5.927 -44.776,24.27 -83.494,46.32 14.608,-9.955 27.798,-20.045 37.613,-29.565 2.423,-2.031 16.421,-14.394 23.558,-34.475 1.387,-3.903 -0.653,-8.191 -4.556,-9.579 -3.901,-1.388 -8.19,0.652 -9.579,4.556 -6.13,17.251 -18.62,27.644 -19.132,28.063 -0.227,0.185 -0.408,0.348 -0.613,0.55 -31.124,30.268 -101.355,68.266 -134.249,85.236 48.008,-100.053 107.97,-179.38 124.947,-201.009 8.937,9.738 28.802,37.717 33.319,62.039 0.757,4.073 4.675,6.761 8.743,6.005 4.073,-0.757 6.761,-4.671 6.005,-8.743 -6.142,-33.066 -34.024,-66.743 -41.808,-74.437 -3.939,-3.896 -10.463,-3.614 -14.012,0.779 -8.218,10.181 -37.272,47.117 -70.821,100.632 25.553,-52.078 40.599,-110.372 -1.882,-149.821002 -3.036,-2.818 -7.782,-2.642 -10.6,0.393 -2.818,3.035 -2.643,7.78 0.393,10.6 8.899,8.263002 17.859,19.286002 21.594,29.704002 18.047,50.419 -54.218,161.831 -84.765,207.475 -15.415,-173.348 12.708,-238.699002 20.993,-253.741002 9.906,1.69 26.367,5.817 26.462,5.842 4.012,1.011 8.094,-1.416 9.109,-5.433 1.016,-4.016 -1.416,-8.094 -5.431,-9.109 -0.46,-0.117 -19.41,-4.873 -31.549,-6.721 -3.639,-0.554 -7.296,1.082 -9.321,4.155 -5.478,8.306 -26.284,46.149002 -29.421,144.245002 -3.085,-98.232 -23.828,-136.015002 -29.286,-144.297002 -1.997,-3.033 -5.474,-4.643 -9.081,-4.174 -7.235,0.923 -23.291,4.475 -24.333,4.742 -45.763,11.879 -68.707,57.756002 -55.203,104.775002 4.12,18.154 12.887,39.62 23.553,61.377 -33.536,-53.489 -62.576001,-90.424 -70.803001,-100.618 -2.892,-4.021 -9.829,-5.025 -14.097,-0.695 -10.342,10.489 -43.84,47.732 -40.948,86.784 1.764,32.44 24.27,52.118 27.694,54.931 10.106,9.786 23.776,20.181 38.891001,30.415 -39.268001,-22.319 -73.706001,-40.934 -84.817001,-46.904 -5.299,-2.846 -11.8539996,-0.092 -13.5429996,5.644 -10.851,36.873 3.745,66.341 5.293,69.306 16.0699996,33.834 49.6439996,55.231 83.9529996,56.158 l 10e-4,-0.032 c 0.648,0.03 1.553,0.056 2.696,0.08 l -40.386,1.411 c -7.18,0.247 -11.471,8.137 -7.802,14.304 14.363,24.17 38.816,47.531 67.425001,47.53 4.151,-10e-4 8.392,-0.492 12.699,-1.545 20.959,-5.18 65.081,-35.722 83.077,-48.612 0.604,-0.433 1.127,-0.942 1.563,-1.509 2.553,-2.983 2.708,-6.366 1.94,-8.771 -0.496,-1.6 -1.352,-2.871 -2.393,-3.866 1.815,-0.913 3.16,-2.35 3.972,-3.756 2.326,-3.909 1.415,-8.857 -2.217,-11.858 -0.187,-0.155 -0.382,-0.3 -0.582,-0.436 -8.738,-5.896 -18.495,-12.177 -28.866,-18.649 13.524,7.207 24.787,12.914 31.712,16.362 0.52,0.258 1.066,0.455 1.63,0.588 0.951,0.238 1.832,0.341 2.644,0.341 3.147,0 5.254,-1.535 6.337,-2.602 2.279,-2.17 3.83,-6.069 2.159,-10.13 -0.037,-0.09 -0.075,-0.179 -0.116,-0.268 -6.284,-13.726 -12.801,-27.074 -19.431,-39.982 10.993,17.299 20.01,30.528 24.074,36.402 0.242,0.35 0.514,0.679 0.811,0.982 2.049,2.091 4.468,2.926 6.695,2.926 0.994,0 1.951,-0.167 2.818,-0.463 3.896,-1.205 6.04,-4.464 6.478,-7.683 0.033,-0.185 0.06,-0.372 0.078,-0.562 3.173,-31.726 4.965,-60.136 5.702,-85.538 0.732,25.447 2.527,53.912 5.716,85.705 0.01,0.09 0.02,0.18 0.032,0.269 0.576,4.213 3.438,6.705 5.886,7.653 1.166,0.458 2.312,0.663 3.409,0.663 3.113,0 5.827,-1.653 7.445,-3.868 0.082,-0.105 0.162,-0.214 0.238,-0.325 4.095,-5.911 13.221,-19.283 24.329,-36.758 -6.636,12.904 -13.16,26.25 -19.452,39.976 -0.197,0.43 -0.352,0.873 -0.462,1.323 -0.172,0.596 -0.323,1.322 -0.381,2.144 -0.199,2.898 0.939,5.681 3.122,7.633 1.745,1.561 3.943,2.396 6.21,2.396 0.554,-10e-4 1.112,-0.051 1.669,-0.151 0.921,-0.167 1.804,-0.473 2.628,-0.91 6.84,-3.405 17.852,-8.982 31.061,-16.011 -10.227,6.39 -19.85,12.588 -28.481,18.404 -0.353,0.238 -0.682,0.504 -0.983,0.793 -2.393,2.135 -4.03,5.767 -2.787,9.877 0.152,0.506 0.358,0.994 0.613,1.456 0.857,1.552 2.336,3.168 4.326,4.127 -0.817,0.8 -1.501,1.742 -1.995,2.812 -1.176,2.55 -1.154,5.45 0.055,7.949 0.417,0.865 0.957,1.645 1.609,2.328 0.353,0.388 0.748,0.742 1.182,1.054 17.443,12.522 60.346,42.281 82.529,48.585 1.2,0.379 5.804,1.67 12.628,1.67 15.727,-10e-4 43.238,-6.861 68.022,-47.563 1.744,-2.862 1.839,-6.475 0.247,-9.426 -1.59,-2.946 -4.655,-4.849 -7.999,-4.964 l -47.34,-1.634 c 6.194,-0.05 10.63,-0.117 12.532,-0.206 l 10e-4,0.03 c 0.527,-0.023 13.027,-0.646 28.449,-6.498 3.37,-1.126 36.029,-12.896 53.47,-50.917 1.249,-2.559 15.203,-32.438 4.538,-68.045 -1.722,-5.755 -8.274,-8.491 -13.56,-5.64 z m -45.719,16.599 c 0.013,-0.012 0.024,-0.024 0.037,-0.036 -0.017,0.017 -0.032,0.032 -0.048,0.047 z m -354.386001,99.864 c 0.208,0.022 0.359,0.053 0.453,0.07 -0.15,-0.028 -0.301,-0.051 -0.453,-0.07 z m 29.934001,62.122 c -22.987,5.608 -44.326001,-11.183 -58.441001,-31.073 l 120.715001,-4.217 c -24.198,16.53 -49.955,32.245 -62.274,35.29 z m 64.804,-62.146 c -14.147,0.057 -81.225,0.357 -95.452001,-0.029 -28.832,-0.854 -57.278,-18.995 -70.869,-47.729 -7.548,-15.878 -9.612,-34.529 -6.067,-51.787 26.049,14.09 114.208001,62.236 172.388001,99.545 z m -115.997001,-111.15 c -0.853,-0.688 -20.909,-17.161 -22.356,-44.313 -1.382,-25.785 15.183,-51.762 32.358,-70.803 17.038001,21.72 76.930001,101.007 124.914001,200.963 -103.172,-53.289 -128.613001,-80.737 -134.916001,-85.847 z m 163.684001,69.435 c -22.661,-33.921 -72.747,-112.767 -84.105,-163.086 -0.039,-0.178 -0.103,-0.44 -0.164,-0.649 -11.688,-39.906 7.757,-76.628002 44.403,-86.205002 1.224,-0.275 11.791,-2.636 19.02,-3.868 8.249,14.993 36.269,80.222002 20.846,253.808002 z m 209.248,72.836 c -20.744,29.361 -43.952,35.285 -58.359,31.229 -13.206,-3.708 -38.683,-19.252 -62.308,-35.394 z m -26.083,-31.343 c 0.086,-0.016 0.222,-0.041 0.408,-0.06 -0.136,0.015 -0.272,0.036 -0.408,0.06 z m 0.942,-0.103 c -8.806,0.38 -88.773,0.26 -97.905,0.248 58.169,-37.306 146.315,-85.634 172.343,-99.772 10.819,52.569 -29.727,97.067 -74.438,99.524 z"
   id="path38"
   inkscape:connector-curvature="0"
   sodipodi:nodetypes="cccccccccccccccccsccccccccccccccccccccccccccccccccccccccccsccccccscccccccscccccccccccccccccccccccccccccccccccccccccccccccccccccccccccccccccccccc" />






<g
   id="g52">
</g>
<g
   id="g54">
</g>
<g
   id="g56">
</g>
<g
   id="g58">
</g>
<g
   id="g60">
</g>
<g
   id="g62">
</g>
<g
   id="g64">
</g>
<g
   id="g66">
</g>
<g
   id="g68">
</g>
<g
   id="g70">
</g>
<g
   id="g72">
</g>
<g
   id="g74">
</g>
<g
   id="g76">
</g>
<g
   id="g78">
</g>
<g
   id="g80">
</g>
</svg>