<?xml version="1.0" encoding="UTF-8" standalone="no"?>
<!-- Generator: Adobe Illustrator 16.0.0, SVG Export Plug-In . SVG Version: 6.00 Build 0)  -->

<svg
   xmlns:dc="http://purl.org/dc/elements/1.1/"
   xmlns:cc="http://creativecommons.org/ns#"
   xmlns:rdf="http://www.w3.org/1999/02/22-rdf-syntax-ns#"
   xmlns:svg="http://www.w3.org/2000/svg"
   xmlns="http://www.w3.org/2000/svg"
   xmlns:sodipodi="http://sodipodi.sourceforge.net/DTD/sodipodi-0.dtd"
   xmlns:inkscape="http://www.inkscape.org/namespaces/inkscape"
   version="1.1"
   id="Capa_1"
   x="0px"
   y="0px"
   width="800px"
   height="800px"
   viewBox="0 0 800 800"
   enable-background="new 0 0 800 800"
   xml:space="preserve"
   sodipodi:docname="iceland_flag.svg"
   inkscape:version="0.92.4 (5da689c313, 2019-01-14)"><metadata
   id="metadata39"><rdf:RDF><cc:Work
       rdf:about=""><dc:format>image/svg+xml</dc:format><dc:type
         rdf:resource="http://purl.org/dc/dcmitype/StillImage" /></cc:Work></rdf:RDF></metadata><defs
   id="defs37" /><sodipodi:namedview
   pagecolor="#ffffff"
   bordercolor="#666666"
   borderopacity="1"
   objecttolerance="10"
   gridtolerance="10"
   guidetolerance="10"
   inkscape:pageopacity="0"
   inkscape:pageshadow="2"
   inkscape:window-width="1920"
   inkscape:window-height="986"
   id="namedview35"
   showgrid="false"
   inkscape:zoom="3.337544"
   inkscape:cx="545.6095"
   inkscape:cy="341.57657"
   inkscape:window-x="-11"
   inkscape:window-y="-11"
   inkscape:window-maximized="1"
   inkscape:current-layer="g32" />
<g
   id="g32">
	<rect
   x="24.807"
   y="468.678"
   fill="#164FCE"
   width="211.708"
   height="177.483"
   id="rect2" />
	<rect
   x="25.807"
   y="469.678"
   fill="#164FCE"
   width="209.708"
   height="175.483"
   id="rect4" />
	<rect
   x="24.807"
   y="153.839"
   fill="#164FCE"
   width="211.708"
   height="177.484"
   id="rect6" />
	<rect
   x="25.807"
   y="154.839"
   fill="#164FCE"
   width="209.708"
   height="175.484"
   id="rect8" />
	<rect
   x="373.87"
   y="153.839"
   fill="#164FCE"
   width="401.323"
   height="177.484"
   id="rect10" />
	<rect
   x="374.87"
   y="154.839"
   fill="#164FCE"
   width="399.323"
   height="175.484"
   id="rect12" />
	<rect
   x="373.87"
   y="468.678"
   fill="#164FCE"
   width="401.323"
   height="177.483"
   id="rect14" />
	<rect
   x="374.87"
   y="469.678"
   fill="#164FCE"
   width="399.323"
   height="175.483"
   id="rect16" />
	<path
   fill="#FFFFFF"
   d="M374.87,469.678h399.323v-19.355h-90.322c-7.126,0-12.903-5.777-12.903-12.903h-25.807   c0,7.126-5.777,12.903-12.903,12.903H355.515v194.839h19.355V469.678z"
   id="path18" />
	<polygon
   fill="#FFFFFF"
   points="235.515,645.161 254.87,645.161 254.87,450.322 25.807,450.322 25.807,469.678 235.515,469.678     "
   id="polygon20" />
	<polygon
   fill="#FFFFFF"
   points="374.87,154.839 355.515,154.839 355.515,349.677 774.193,349.677 774.193,330.323 374.87,330.323     "
   id="polygon22" />
	<polygon
   fill="#FFFFFF"
   points="235.515,330.323 25.807,330.323 25.807,349.677 254.87,349.677 254.87,154.839 235.515,154.839     "
   id="polygon24" />
	<path
   fill="#ED1F34"
   d="M279.676,646.161V437.419c0-6.563-5.34-11.902-11.903-11.902H24.807v-51.033h242.966   c6.563,0,11.903-5.34,11.903-11.903V153.839h51.032v208.742c0,6.563,5.34,11.903,11.903,11.903h432.582v51.033h-91.322   c-6.563,0-11.903,5.339-11.903,11.902v1h-27.807v-1c0-6.563-5.34-11.902-11.903-11.902H342.611   c-6.563,0-11.903,5.339-11.903,11.902v208.742H279.676z"
   id="path26" />
	<path
   fill="#ED1F34"
   d="M683.871,424.517h90.322v-49.033H342.611c-7.126,0-12.903-5.777-12.903-12.903V154.839h-49.032v207.742   c0,7.126-5.777,12.903-12.903,12.903H25.807v49.033h241.966c7.126,0,12.903,5.776,12.903,12.902v207.742h49.032V437.419   c0-7.126,5.777-12.902,12.903-12.902h289.646c7.126,0,12.903,5.776,12.903,12.902h25.807   C670.968,430.293,676.745,424.517,683.871,424.517z"
   id="path28" />
	<path
   d="M 787.097,129.032 H 12.903 C 5.777,129.032 0,134.81 0,141.936 v 516.129 c 0,7.126 5.777,12.903 12.903,12.903 h 774.193 c 7.126,0 12.903,-5.777 12.903,-12.903 V 141.936 C 800,134.81 794.223,129.032 787.097,129.032 Z m -12.904,201.291 v 19.354 H 355.515 V 154.839 H 374.87 774.193 Z M 254.87,349.677 H 25.807 V 330.323 154.839 H 235.515 254.87 V 349.677 Z M 25.807,469.678 V 450.323 H 254.87 V 645.162 H 235.515 25.807 Z m 329.708,-19.356 h 326.743 c 7.126,0 -9.097,-5.777 -9.097,-12.903 0,-7.126 16.223,-12.902 9.097,-12.902 H 342.611 c -7.126,0 -12.903,5.776 -12.903,12.902 V 645.161 H 280.676 V 437.419 c 0,-7.126 -5.777,-12.902 -12.903,-12.902 H 25.807 v -49.033 h 241.966 c 7.126,0 12.903,-5.777 12.903,-12.903 V 154.839 h 49.032 v 207.742 c 0,7.126 5.777,12.903 12.903,12.903 h 431.582 v 49.033 h -90.322 c -7.126,0 -12.903,5.776 -12.903,12.902 0,7.126 5.777,12.903 12.903,12.903 h 90.322 V 469.677 645.16 H 374.87 355.515 Z"
   id="path30"
   inkscape:connector-curvature="0"
   sodipodi:nodetypes="ssssssscscccccccccccccccccccccccsssssccssccssccssccssscccccc" />
</g>
</svg>