<?xml version="1.0" encoding="UTF-8" standalone="no"?>
<!-- Generator: Adobe Illustrator 16.0.0, SVG Export Plug-In . SVG Version: 6.00 Build 0)  -->

<svg
   xmlns:dc="http://purl.org/dc/elements/1.1/"
   xmlns:cc="http://creativecommons.org/ns#"
   xmlns:rdf="http://www.w3.org/1999/02/22-rdf-syntax-ns#"
   xmlns:svg="http://www.w3.org/2000/svg"
   xmlns="http://www.w3.org/2000/svg"
   xmlns:sodipodi="http://sodipodi.sourceforge.net/DTD/sodipodi-0.dtd"
   xmlns:inkscape="http://www.inkscape.org/namespaces/inkscape"
   version="1.1"
   id="Capa_1"
   x="0px"
   y="0px"
   width="800px"
   height="800px"
   viewBox="0 0 800 800"
   enable-background="new 0 0 800 800"
   xml:space="preserve"
   sodipodi:docname="indonesia_flag.svg"
   inkscape:version="0.92.4 (5da689c313, 2019-01-14)"><metadata
   id="metadata17"><rdf:RDF><cc:Work
       rdf:about=""><dc:format>image/svg+xml</dc:format><dc:type
         rdf:resource="http://purl.org/dc/dcmitype/StillImage" /></cc:Work></rdf:RDF></metadata><defs
   id="defs15" /><sodipodi:namedview
   pagecolor="#ffffff"
   bordercolor="#666666"
   borderopacity="1"
   objecttolerance="10"
   gridtolerance="10"
   guidetolerance="10"
   inkscape:pageopacity="0"
   inkscape:pageshadow="2"
   inkscape:window-width="1920"
   inkscape:window-height="986"
   id="namedview13"
   showgrid="false"
   inkscape:zoom="37.76"
   inkscape:cx="57.70161"
   inkscape:cy="406.98955"
   inkscape:window-x="-11"
   inkscape:window-y="-11"
   inkscape:window-maximized="1"
   inkscape:current-layer="Capa_1" />
<g
   id="g10">
	<path
   fill="#B21727"
   d="M76.419,401v-1c0-6.563-5.34-11.903-11.903-11.903H24.807V153.839h750.387v234.258H116.129   c-6.563,0-11.903,5.34-11.903,11.903v1H76.419z"
   id="path2" />
	<path
   fill="#B21727"
   d="M116.129,387.097h658.064V154.839H25.807v232.258h38.709c7.126,0,12.903,5.775,12.903,12.903h25.806   C103.226,392.872,109.003,387.097,116.129,387.097z"
   id="path4" />
	<path
   fill="#FFFFFF"
   d="M116.129,412.903c-7.126,0-12.903-5.775-12.903-12.903H77.419c0,7.128-5.777,12.903-12.903,12.903H25.807   v232.258h748.387V412.903H116.129z"
   id="path6" />
	<path
   d="M787.097,129.032H12.903C5.777,129.032,0,134.808,0,141.936v516.129c0,7.128,5.777,12.903,12.903,12.903h774.193   c7.126,0,12.903-5.775,12.903-12.903V141.936C800,134.808,794.223,129.032,787.097,129.032z M25.807,645.161V412.903h38.709   c7.126,0,12.903-5.775,12.903-12.903s-5.777-12.903-12.903-12.903H25.807V154.839h748.387v232.258H116.129   c-7.126,0-12.903,5.775-12.903,12.903s5.777,12.903,12.903,12.903h658.064v232.258H25.807z"
   id="path8" />
</g>
<rect
   style="fill:#000000;fill-opacity:1;fill-rule:evenodd;stroke-width:0.98319709"
   id="rect827"
   width="72.028847"
   height="25.781725"
   x="56.141632"
   y="387.09702" /></svg>