<?xml version="1.0" encoding="UTF-8" standalone="no"?>
<!-- Generator: Adobe Illustrator 16.0.0, SVG Export Plug-In . SVG Version: 6.00 Build 0)  -->

<svg
   xmlns:dc="http://purl.org/dc/elements/1.1/"
   xmlns:cc="http://creativecommons.org/ns#"
   xmlns:rdf="http://www.w3.org/1999/02/22-rdf-syntax-ns#"
   xmlns:svg="http://www.w3.org/2000/svg"
   xmlns="http://www.w3.org/2000/svg"
   xmlns:sodipodi="http://sodipodi.sourceforge.net/DTD/sodipodi-0.dtd"
   xmlns:inkscape="http://www.inkscape.org/namespaces/inkscape"
   version="1.1"
   id="Capa_1"
   x="0px"
   y="0px"
   width="800px"
   height="800px"
   viewBox="0 0 800 800"
   enable-background="new 0 0 800 800"
   xml:space="preserve"
   sodipodi:docname="ireland_flag.svg"
   inkscape:version="0.92.4 (5da689c313, 2019-01-14)"><metadata
   id="metadata21"><rdf:RDF><cc:Work
       rdf:about=""><dc:format>image/svg+xml</dc:format><dc:type
         rdf:resource="http://purl.org/dc/dcmitype/StillImage" /></cc:Work></rdf:RDF></metadata><defs
   id="defs19" /><sodipodi:namedview
   pagecolor="#ffffff"
   bordercolor="#666666"
   borderopacity="1"
   objecttolerance="10"
   gridtolerance="10"
   guidetolerance="10"
   inkscape:pageopacity="0"
   inkscape:pageshadow="2"
   inkscape:window-width="1920"
   inkscape:window-height="986"
   id="namedview17"
   showgrid="false"
   inkscape:zoom="1.668772"
   inkscape:cx="229.89812"
   inkscape:cy="367.32712"
   inkscape:window-x="-11"
   inkscape:window-y="-11"
   inkscape:window-maximized="1"
   inkscape:current-layer="g14" />
<g
   id="g14">
	<path
   fill="#FFFFFF"
   d="M516.129,645.161V154.839H283.871v348.387c0,7.126-5.775,12.903-12.903,12.903v25.807   c7.128,0,12.903,5.777,12.903,12.903v90.322H516.129z"
   id="path2" />
	<rect
   x="540.936"
   y="153.839"
   fill="#FF7900"
   width="234.258"
   height="492.322"
   id="rect4" />
	<rect
   x="541.936"
   y="154.839"
   fill="#FF7900"
   width="232.258"
   height="490.322"
   id="rect6" />
	<path
   fill="#259245"
   d="M24.807,646.161V153.839h234.258v349.387c0,6.563,5.34,11.903,11.903,11.903h1v27.807h-1   c-6.563,0-11.903,5.34-11.903,11.903v91.322H24.807z"
   id="path8" />
	<path
   fill="#259245"
   d="M258.064,503.226V154.839H25.807v490.322h232.258v-90.322c0-7.126,5.775-12.903,12.903-12.903v-25.807   C263.84,516.129,258.064,510.352,258.064,503.226z"
   id="path10" />
	<path
   d="M 787.097,129.032 H 12.903 C 5.775,129.032 0,134.81 0,141.936 v 516.129 c 0,7.126 5.775,12.903 12.903,12.903 h 774.193 c 7.128,0 12.903,-5.777 12.903,-12.903 V 141.936 C 800,134.81 794.225,129.032 787.097,129.032 Z M 774.193,645.161 H 541.936 V 154.839 H 774.194 V 645.161 Z M 270.968,509.936 c -7.128,0 -12.903,-14.223 -12.903,-7.097 V 645.161 H 25.807 V 154.839 h 232.258 v 348.387 c 0,7.126 5.775,12.903 12.903,12.903 7.128,0 12.903,-5.777 12.903,-12.903 V 154.839 H 516.129 V 645.161 H 283.871 V 502.839 c 0,-7.126 -5.775,7.097 -12.903,7.097 z"
   id="path12"
   inkscape:connector-curvature="0"
   sodipodi:nodetypes="ssssssscsccccccssccccsssccccss" />
</g>
</svg>