<?xml version="1.0" encoding="UTF-8" standalone="no"?>
<!-- Generator: Adobe Illustrator 16.0.0, SVG Export Plug-In . SVG Version: 6.00 Build 0)  -->

<svg
   xmlns:dc="http://purl.org/dc/elements/1.1/"
   xmlns:cc="http://creativecommons.org/ns#"
   xmlns:rdf="http://www.w3.org/1999/02/22-rdf-syntax-ns#"
   xmlns:svg="http://www.w3.org/2000/svg"
   xmlns="http://www.w3.org/2000/svg"
   xmlns:sodipodi="http://sodipodi.sourceforge.net/DTD/sodipodi-0.dtd"
   xmlns:inkscape="http://www.inkscape.org/namespaces/inkscape"
   version="1.1"
   id="Capa_1"
   x="0px"
   y="0px"
   width="800px"
   height="800px"
   viewBox="0 0 800 800"
   enable-background="new 0 0 800 800"
   xml:space="preserve"
   sodipodi:docname="italy_flag.svg"
   inkscape:version="0.92.4 (5da689c313, 2019-01-14)"><metadata
   id="metadata21"><rdf:RDF><cc:Work
       rdf:about=""><dc:format>image/svg+xml</dc:format><dc:type
         rdf:resource="http://purl.org/dc/dcmitype/StillImage" /></cc:Work></rdf:RDF></metadata><defs
   id="defs19" /><sodipodi:namedview
   pagecolor="#ffffff"
   bordercolor="#666666"
   borderopacity="1"
   objecttolerance="10"
   gridtolerance="10"
   guidetolerance="10"
   inkscape:pageopacity="0"
   inkscape:pageshadow="2"
   inkscape:window-width="1920"
   inkscape:window-height="986"
   id="namedview17"
   showgrid="false"
   inkscape:zoom="2.36"
   inkscape:cx="589.17006"
   inkscape:cy="555.83199"
   inkscape:window-x="-11"
   inkscape:window-y="-11"
   inkscape:window-maximized="1"
   inkscape:current-layer="g14" />
<g
   id="g14">
	<path
   fill="#FFFFFF"
   d="M516.129,245.161v-90.322H283.871v490.322h232.258V296.774c0-7.126,5.777-12.903,12.903-12.903v-25.807   C521.906,258.064,516.129,252.287,516.129,245.161z"
   id="path2" />
	<rect
   x="24.807"
   y="153.839"
   fill="#259245"
   width="234.258"
   height="492.322"
   id="rect4" />
	<rect
   x="25.807"
   y="154.839"
   fill="#259245"
   width="232.258"
   height="490.322"
   id="rect6" />
	<path
   fill="#ED1F34"
   d="M540.936,646.161V296.774c0-6.563-5.34-11.903-11.903-11.903h-1v-27.807h1   c6.563,0,11.903-5.34,11.903-11.903v-91.322h234.258v492.322H540.936z"
   id="path8" />
	<path
   fill="#ED1F34"
   d="M541.936,245.161c0,7.126-5.777,12.903-12.903,12.903v25.807c7.126,0,12.903,5.777,12.903,12.903v348.387   h232.258V154.839H541.936V245.161z"
   id="path10" />
	<path
   d="M 787.097,129.032 H 12.903 C 5.777,129.032 0,134.81 0,141.936 v 516.129 c 0,7.126 5.777,12.903 12.903,12.903 h 774.193 c 7.126,0 12.903,-5.777 12.903,-12.903 V 141.936 C 800,134.81 794.223,129.032 787.097,129.032 Z M 774.193,645.161 H 541.936 V 296.774 c 0,-7.126 -5.777,-12.903 -12.903,-12.903 -7.126,0 -12.903,5.777 -12.903,12.903 V 645.161 H 283.871 V 154.839 h 232.258 v 142.322 c 0,7.126 5.777,-11.097 12.903,-11.097 7.126,0 12.903,18.223 12.903,11.097 V 154.839 H 774.193 V 645.161 Z M 25.807,154.839 H 258.065 V 645.161 H 25.807 Z"
   id="path12"
   inkscape:connector-curvature="0"
   sodipodi:nodetypes="ssssssscsccsssccccsssccccccccc" />
</g>
</svg>