<?xml version="1.0" encoding="UTF-8" standalone="no"?>
<!-- Generator: Adobe Illustrator 19.0.0, SVG Export Plug-In . SVG Version: 6.00 Build 0)  -->

<svg
   xmlns:dc="http://purl.org/dc/elements/1.1/"
   xmlns:cc="http://creativecommons.org/ns#"
   xmlns:rdf="http://www.w3.org/1999/02/22-rdf-syntax-ns#"
   xmlns:svg="http://www.w3.org/2000/svg"
   xmlns="http://www.w3.org/2000/svg"
   xmlns:sodipodi="http://sodipodi.sourceforge.net/DTD/sodipodi-0.dtd"
   xmlns:inkscape="http://www.inkscape.org/namespaces/inkscape"
   version="1.1"
   id="Layer_1"
   x="0px"
   y="0px"
   viewBox="0 0 256.00001 256.00001"
   xml:space="preserve"
   sodipodi:docname="japan_flag.svg"
   inkscape:version="0.92.4 (5da689c313, 2019-01-14)"
   width="256"
   height="256"><metadata
   id="metadata41"><rdf:RDF><cc:Work
       rdf:about=""><dc:format>image/svg+xml</dc:format><dc:type
         rdf:resource="http://purl.org/dc/dcmitype/StillImage" /><dc:title></dc:title></cc:Work></rdf:RDF></metadata><defs
   id="defs39" /><sodipodi:namedview
   pagecolor="#ffffff"
   bordercolor="#666666"
   borderopacity="1"
   objecttolerance="10"
   gridtolerance="10"
   guidetolerance="10"
   inkscape:pageopacity="0"
   inkscape:pageshadow="2"
   inkscape:window-width="1920"
   inkscape:window-height="986"
   id="namedview37"
   showgrid="false"
   inkscape:zoom="2.6074513"
   inkscape:cx="151.94977"
   inkscape:cy="101.30837"
   inkscape:window-x="-11"
   inkscape:window-y="-11"
   inkscape:window-maximized="1"
   inkscape:current-layer="Layer_1" />
<path
   style="fill:#f5f5f5;stroke:#000000;stroke-width:8;stroke-miterlimit:4;stroke-dasharray:none;stroke-opacity:1"
   d="M 247.81676,209.30471 H 8.182755 c -2.363165,0 -4.279385,-1.91623 -4.279385,-4.27939 V 50.97468 c 0,-2.363165 1.91622,-4.27939 4.279385,-4.27939 H 247.81724 c 2.36317,0 4.27939,1.916225 4.27939,4.27939 v 154.05064 c -4.8e-4,2.36365 -1.91671,4.27939 -4.27987,4.27939 z"
   id="path2"
   inkscape:connector-curvature="0" />
<circle
   style="fill:#ff4b55;stroke:#000000;stroke-width:8;stroke-miterlimit:4;stroke-dasharray:none;stroke-opacity:1"
   cx="128"
   cy="128"
   r="46.607998"
   id="circle4" />
<g
   id="g6"
   transform="matrix(0.48,0,0,0.48,69.120004,-58.880485)"
   style="stroke:#000000;stroke-width:16.66666667;stroke-miterlimit:4;stroke-dasharray:none;stroke-opacity:1">
</g>
<g
   id="g8"
   transform="matrix(0.48,0,0,0.48,69.120004,-58.880485)"
   style="stroke:#000000;stroke-width:16.66666667;stroke-miterlimit:4;stroke-dasharray:none;stroke-opacity:1">
</g>
<g
   id="g10"
   transform="matrix(0.48,0,0,0.48,69.120004,-58.880485)"
   style="stroke:#000000;stroke-width:16.66666667;stroke-miterlimit:4;stroke-dasharray:none;stroke-opacity:1">
</g>
<g
   id="g12"
   transform="matrix(0.48,0,0,0.48,69.120004,-58.880485)"
   style="stroke:#000000;stroke-width:16.66666667;stroke-miterlimit:4;stroke-dasharray:none;stroke-opacity:1">
</g>
<g
   id="g14"
   transform="matrix(0.48,0,0,0.48,69.120004,-58.880485)"
   style="stroke:#000000;stroke-width:16.66666667;stroke-miterlimit:4;stroke-dasharray:none;stroke-opacity:1">
</g>
<g
   id="g16"
   transform="matrix(0.48,0,0,0.48,69.120004,-58.880485)"
   style="stroke:#000000;stroke-width:16.66666667;stroke-miterlimit:4;stroke-dasharray:none;stroke-opacity:1">
</g>
<g
   id="g18"
   transform="matrix(0.48,0,0,0.48,69.120004,-58.880485)"
   style="stroke:#000000;stroke-width:16.66666667;stroke-miterlimit:4;stroke-dasharray:none;stroke-opacity:1">
</g>
<g
   id="g20"
   transform="matrix(0.48,0,0,0.48,69.120004,-58.880485)"
   style="stroke:#000000;stroke-width:16.66666667;stroke-miterlimit:4;stroke-dasharray:none;stroke-opacity:1">
</g>
<g
   id="g22"
   transform="matrix(0.48,0,0,0.48,69.120004,-58.880485)"
   style="stroke:#000000;stroke-width:16.66666667;stroke-miterlimit:4;stroke-dasharray:none;stroke-opacity:1">
</g>
<g
   id="g24"
   transform="matrix(0.48,0,0,0.48,69.120004,-58.880485)"
   style="stroke:#000000;stroke-width:16.66666667;stroke-miterlimit:4;stroke-dasharray:none;stroke-opacity:1">
</g>
<g
   id="g26"
   transform="matrix(0.48,0,0,0.48,69.120004,-58.880485)"
   style="stroke:#000000;stroke-width:16.66666667;stroke-miterlimit:4;stroke-dasharray:none;stroke-opacity:1">
</g>
<g
   id="g28"
   transform="matrix(0.48,0,0,0.48,69.120004,-58.880485)"
   style="stroke:#000000;stroke-width:16.66666667;stroke-miterlimit:4;stroke-dasharray:none;stroke-opacity:1">
</g>
<g
   id="g30"
   transform="matrix(0.48,0,0,0.48,69.120004,-58.880485)"
   style="stroke:#000000;stroke-width:16.66666667;stroke-miterlimit:4;stroke-dasharray:none;stroke-opacity:1">
</g>
<g
   id="g32"
   transform="matrix(0.48,0,0,0.48,69.120004,-58.880485)"
   style="stroke:#000000;stroke-width:16.66666667;stroke-miterlimit:4;stroke-dasharray:none;stroke-opacity:1">
</g>
<g
   id="g34"
   transform="matrix(0.48,0,0,0.48,69.120004,-58.880485)"
   style="stroke:#000000;stroke-width:16.66666667;stroke-miterlimit:4;stroke-dasharray:none;stroke-opacity:1">
</g>
</svg>