<?xml version="1.0" encoding="UTF-8" standalone="no"?>
<svg
   xmlns:dc="http://purl.org/dc/elements/1.1/"
   xmlns:cc="http://creativecommons.org/ns#"
   xmlns:rdf="http://www.w3.org/1999/02/22-rdf-syntax-ns#"
   xmlns:svg="http://www.w3.org/2000/svg"
   xmlns="http://www.w3.org/2000/svg"
   xmlns:sodipodi="http://sodipodi.sourceforge.net/DTD/sodipodi-0.dtd"
   xmlns:inkscape="http://www.inkscape.org/namespaces/inkscape"
   id="Capa_1"
   enable-background="new 0 0 512 512"
   height="512"
   viewBox="0 0 512 512"
   width="512"
   version="1.1"
   sodipodi:docname="kangaroo.svg"
   inkscape:version="1.0.2 (e86c870879, 2021-01-15, custom)">
  <metadata
     id="metadata51">
    <rdf:RDF>
      <cc:Work
         rdf:about="">
        <dc:format>image/svg+xml</dc:format>
        <dc:type
           rdf:resource="http://purl.org/dc/dcmitype/StillImage" />
        <dc:title></dc:title>
      </cc:Work>
    </rdf:RDF>
  </metadata>
  <defs
     id="defs49" />
  <sodipodi:namedview
     pagecolor="#ffffff"
     bordercolor="#666666"
     borderopacity="1"
     objecttolerance="10"
     gridtolerance="10"
     guidetolerance="10"
     inkscape:pageopacity="0"
     inkscape:pageshadow="2"
     inkscape:window-width="1920"
     inkscape:window-height="986"
     id="namedview47"
     showgrid="false"
     inkscape:zoom="9.0377085"
     inkscape:cx="330.28182"
     inkscape:cy="474.94553"
     inkscape:window-x="-11"
     inkscape:window-y="-11"
     inkscape:window-maximized="1"
     inkscape:current-layer="g42" />
  <g
     id="g44">
    <g
       id="g30">
      <path
         d="m212.964 361.683v110.412c0 17.894 14.506 32.4 32.4 32.4h114.124c12.46 0 22.561-10.101 22.561-22.561 0-12.46-10.101-22.561-22.561-22.561h-66.657v-62.917"
         fill="#e7a561"
         id="path2" />
      <path
         d="m221.695 418.043h40.641c53.787 0 126.593-32.83 146.1-79.544 2.787-6.674-21.655-13.63-20.01-20.815 2.134-9.32 3.262-19.024 3.262-28.992v-120.509h.18c27.353 0 51.052-18.959 57.056-45.645 3.65-16.222-6.683-32.293-22.957-35.705l-85.673-17.96c-20.961-4.394-40.659 11.602-40.659 33.019v59.118c0 37.163-30.127 67.289-67.289 67.289-69.2 0-125.298 56.098-125.298 125.298v21.007c0 22.282-18.064 40.346-40.346 40.346-12.46 0-22.561 10.101-22.561 22.561 0 12.46 10.101 22.561 22.561 22.561h75.128"
         fill="#ecb780"
         id="path4" />
      <path
         d="m368.698 18.445c-14.594-14.594-38.255-14.594-52.849 0s-14.594 38.255 0 52.849z"
         fill="#ecb780"
         id="path6" />
      <path
         d="m263 18.445c-14.594 14.594-14.594 38.255 0 52.849s38.255 14.594 52.849 0z"
         fill="#e7a561"
         id="path8" />
      <path
         d="m141.828 361.683v110.412c0 17.894 14.506 32.4 32.4 32.4h114.124c12.46 0 22.561-10.101 22.561-22.561 0-12.46-10.101-22.561-22.561-22.561h-66.657v-41.33c43.044 0 77.939-34.894 77.939-77.939v-51.688"
         fill="#ecb780"
         id="path10" />
      <path
         d="m216.027 504.5h-41.795c-17.893 0-32.405-14.502-32.405-32.405v-110.409l41.795-36.294v146.703c0 17.903 14.502 32.405 32.405 32.405z"
         fill="#e7a561"
         id="path12" />
      <path
         d="m355.612 72.079c-10.547 5.616-17.933 16.696-17.933 29.809v59.124c0 4.639-.47 9.369-1.364 14.094-5.34 28.213-27.548 49.938-55.502 56.503-23.062 5.415-43.673 17.201-59.863 33.391-22.684 22.673-36.702 54.002-36.702 88.601v92.344l-42.418 14.129h-75.126c-6.229 0-11.865-2.526-15.951-6.612s-6.612-9.722-6.612-15.951 2.526-11.865 6.612-15.951c4.167-4.167 9.945-6.711 16.321-6.609 22.15.355 39.975-18.284 39.975-40.437v-20.914c0-34.599 14.029-65.927 36.702-88.601 22.665-22.665 53.978-36.691 88.561-36.702 37.177-.012 67.326-30.109 67.326-67.286v-59.124c0-21.416 19.705-37.407 40.657-33.019z"
         fill="#e7a561"
         id="path14" />
      <g
         id="g24">
        <path
           d="m422.773 234.879c-12.457-12.457-32.653-12.457-45.11 0s-12.457 32.653 0 45.11z"
           fill="#d19734"
           id="path16" />
        <path
           d="m332.554 234.879c-12.457 12.457-12.457 32.653 0 45.11s32.653 12.457 45.11 0z"
           fill="#d19734"
           id="path18" />
        <path
           d="m431.196 337.77h.114c17.295 0 32.279-11.988 36.076-28.861 2.308-10.257-4.226-20.419-14.516-22.576l-54.17-11.356c-13.254-2.778-25.708 7.336-25.708 20.878v41.915"
           fill="#d6a33c"
           id="path20" />
        <path
           d="m410.177 277.389c-6.31 3.643-10.677 10.456-10.677 18.467v41.915h-26.508v-41.915c0-13.536 12.459-23.65 25.713-20.872z"
           fill="#d19734"
           id="path22" />
      </g>
      <path
         d="m280.472 265.897v17.459c24.516 7.218 42.461 29.926 42.461 56.747 0 9.213-7.468 16.681-16.681 16.681s-16.681-7.468-16.681-16.681c0-14.215-11.565-25.779-25.78-25.779-9.213 0-16.681-7.468-16.681-16.681v-31.746"
         fill="#ecb780"
         id="path26" />
      <path
         d="m314.395 354.674c-2.405 1.349-5.183 2.113-8.142 2.113-9.208 0-16.685-7.467-16.685-16.686 0-14.259-11.643-25.853-25.921-25.773-9.182.052-16.538-7.65-16.538-16.832v-31.595c8.993 0 16.283 7.29 16.283 16.283v15.292c0 9.188 7.358 16.897 16.546 16.852 14.279-.071 25.913 11.52 25.913 25.773-.001 6.261 3.441 11.715 8.544 14.573z"
         fill="#e7a561"
         id="path28" />
    </g>
    <g
       id="g42">
      <path
         d="m372.166 112.787v-11.237c0-4.142-3.357-7.5-7.5-7.5s-7.5 3.358-7.5 7.5v11.237c0 4.142 3.357 7.5 7.5 7.5s7.5-3.358 7.5-7.5z"
         id="path32" />
      <path
         d="m345.178 112.787v-11.237c0-4.142-3.357-7.5-7.5-7.5s-7.5 3.358-7.5 7.5v11.237c0 4.142 3.357 7.5 7.5 7.5s7.5-3.358 7.5-7.5z"
         id="path34" />
      <path
         d="m 471.16,290.528 c -3.845,-5.979 -9.794,-10.076 -16.751,-11.534 l -53.854,-11.29 27.522,-27.522 c 1.406,-1.406 2.196,-3.314 2.196,-5.303 0,-1.989 -0.79,-3.897 -2.197,-5.303 -7.94,-7.94 -18.454,-11.765 -28.882,-11.496 v -42.801 c 12.332,-1.389 24.155,-6.256 33.894,-14.049 11.651,-9.323 19.873,-22.479 23.158,-37.065 0.603,-2.718 0.908,-5.474 0.908,-8.194 0,-17.533 -12.47,-32.875 -29.651,-36.48 l -85.671,-17.96 c -1.627,-0.341 -3.26,-0.575 -4.892,-0.718 l 37.062,-37.062 c 2.929,-2.929 2.929,-7.677 0,-10.606 C 365.526,4.667 354.259,0 342.274,0 330.289,0 319.021,4.667 310.545,13.142 302.44,21.247 298.097,31.708 297.503,42.341 l -29.2,-29.199 c -2.93,-2.929 -7.678,-2.929 -10.607,0 -17.494,17.495 -17.494,45.961 0,63.456 8.476,8.475 19.743,13.142 31.729,13.142 1.552,0 3.091,-0.082 4.615,-0.237 -1.219,3.884 -1.882,7.97 -1.906,12.154 -0.023,4.142 3.315,7.519 7.458,7.542 h 0.043 c 4.122,0 7.476,-3.33 7.499,-7.458 0.045,-7.908 3.601,-15.294 9.757,-20.266 6.155,-4.969 14.127,-6.887 21.864,-5.266 l 85.669,17.96 c 10.273,2.156 17.73,11.324 17.73,21.8 0,1.629 -0.186,3.293 -0.547,4.923 -5.276,23.432 -25.728,39.797 -49.733,39.797 h -0.18 c -4.143,0 -7.5,3.358 -7.5,7.5 v 53.262 c -4.295,1.906 -8.319,4.608 -11.835,8.124 -6.511,6.511 -10.251,14.754 -11.242,23.26 l -23.26,-23.26 c -1.407,-1.407 -3.314,-2.197 -5.304,-2.197 -1.99,0 -3.896,0.79 -5.304,2.197 -15.36,15.361 -15.36,40.355 0,55.716 7.441,7.441 17.335,11.539 27.858,11.539 3.562,0 7.048,-0.48 10.395,-1.39 -0.002,0.139 -0.011,0.276 -0.011,0.415 v 34.415 h -22.153 c -4.143,0 -7.5,3.358 -7.5,7.5 0,4.142 3.357,7.5 7.5,7.5 h 52.826 c -10.135,16.341 -27.896,31.555 -51.202,43.637 -23.428,12.146 -50.676,19.882 -74.527,21.354 10.566,-7.337 19.523,-17.079 25.988,-28.712 2.012,-3.621 0.708,-8.187 -2.913,-10.199 -3.62,-2.012 -8.188,-0.708 -10.198,2.913 -12.395,22.306 -35.895,36.186 -61.373,36.274 h -0.246 c -0.022,0 -0.043,0.007 -0.066,0.008 -4.112,0.036 -7.433,3.377 -7.433,7.497 v 41.33 c 0,4.142 3.357,7.5 7.5,7.5 h 66.657 c 8.305,0 15.061,6.756 15.061,15.061 0,8.305 -6.756,15.061 -15.061,15.061 H 174.228 c -13.73,0 -24.9,-11.17 -24.9,-24.9 V 361.683 c 0,-4.142 -3.357,-7.5 -7.5,-7.5 -4.143,0 -7.5,3.358 -7.5,7.5 V 452.57 H 66.704 c -4.033,0 -7.815,-1.565 -10.656,-4.413 -2.84,-2.839 -4.403,-6.62 -4.403,-10.647 0,-4.02 1.565,-7.803 4.409,-10.653 2.835,-2.842 6.617,-4.407 10.65,-4.407 26.385,0 47.85,-21.465 47.85,-47.85 v -21 c 0,-31.471 12.25,-61.053 34.492,-83.296 22.261,-22.25 51.843,-34.504 83.298,-34.504 41.239,0 74.79,-33.551 74.79,-74.79 V 103.4 c 0,-4.142 -3.357,-7.5 -7.5,-7.5 -4.143,0 -7.5,3.358 -7.5,7.5 v 57.61 c 0,32.968 -26.821,59.79 -59.79,59.79 -35.461,0 -68.809,13.813 -93.903,38.897 -25.076,25.077 -38.887,58.426 -38.887,93.903 v 21 c 0,18.114 -14.736,32.85 -32.85,32.85 -8.047,0 -15.601,3.13 -21.27,8.813 -5.668,5.682 -8.79,13.228 -8.79,21.247 0,8.033 3.124,15.581 8.79,21.247 5.669,5.683 13.223,8.813 21.27,8.813 h 67.624 v 4.525 c 0,22.001 17.899,39.9 39.9,39.9 L 359.484,512 c 16.58,0 30.069,-13.489 30.069,-30.07 0,-8.02 -3.131,-15.568 -8.817,-21.254 -0.749,-0.749 -1.551,-1.471 -2.383,-2.144 -3.219,-2.607 -7.942,-2.109 -10.549,1.109 -2.606,3.219 -2.109,7.942 1.109,10.548 0.427,0.346 0.837,0.714 1.217,1.094 2.853,2.852 4.423,6.633 4.423,10.647 0,8.31 -6.76,15.07 -15.069,15.07 h -45.136 c 2.579,-4.433 4.064,-9.578 4.064,-15.066 0,-5.487 -1.485,-10.631 -4.063,-15.064 h 42.135 c 4.143,0 7.5,-3.358 7.5,-7.5 0,-4.142 -3.357,-7.5 -7.5,-7.5 h -56.15 v -30.826 c 17.46,-3.931 35.161,-10.332 51.533,-18.82 29.237,-15.157 50.833,-35.236 61.415,-56.954 h 18.028 c 20.95,0 38.794,-14.275 43.393,-34.714 1.56,-6.936 0.302,-14.049 -3.543,-20.028 z M 321.153,23.749 C 326.795,18.107 334.296,15 342.274,15 c 5.414,0 10.607,1.43 15.149,4.113 l -40.9,40.901 c -6.728,-11.447 -5.185,-26.45 4.63,-36.265 z m -52.85,42.242 c -9.815,-9.815 -11.358,-24.819 -4.63,-36.265 l 40.901,40.901 c -4.542,2.683 -9.736,4.113 -15.15,4.113 -7.978,0 -15.479,-3.107 -21.121,-8.749 z m 17.031,385.882 h -56.139 v -26.334 h 33.137 c 7.42,0 15.14,-0.598 23.002,-1.725 z m 97.632,-211.691 c 4.757,-4.756 11.005,-7.134 17.252,-7.134 3.819,0 7.637,0.888 11.115,2.665 l -32.836,32.835 c -4.684,-9.169 -3.194,-20.703 4.469,-28.366 z m -45.109,34.503 c -7.663,-7.663 -9.152,-19.198 -4.47,-28.366 l 32.843,32.843 c -3.4,1.745 -7.19,2.669 -11.122,2.669 -6.516,0 -12.643,-2.538 -17.251,-7.146 z m 122.211,32.578 c -3.047,13.546 -14.873,23.007 -28.758,23.007 h -50.818 v -34.415 c 0,-4.185 1.863,-8.099 5.112,-10.737 3.249,-2.638 7.462,-3.658 11.557,-2.8 l 54.17,11.356 c 2.996,0.628 5.557,2.392 7.212,4.966 1.656,2.575 2.197,5.637 1.525,8.623 z"
         id="path36"
         sodipodi:nodetypes="sccsscccscscccscscccccscccsccccscssscscssccscscssscccccccscssssssssssscscscssscssssssscssssscscsccssccccsscscsssccccscsssccssccsscccscccscccsccsscscsscccc" />
      <path
         d="m399.498 289.802c-4.143 0-7.5 3.358-7.5 7.5v8.841c0 4.142 3.357 7.5 7.5 7.5s7.5-3.358 7.5-7.5v-8.841c0-4.142-3.358-7.5-7.5-7.5z"
         id="path38" />
      <path
         d="m247.109 258.397c-4.143 0-7.5 3.358-7.5 7.5v31.746c0 13.334 10.848 24.182 24.181 24.182 10.08 0 18.28 8.2 18.28 18.279 0 13.334 10.848 24.181 24.182 24.181 13.333 0 24.181-10.848 24.181-24.181 0-27.446-17.2-52.217-42.461-62.101v-12.106c0-4.142-3.357-7.5-7.5-7.5s-7.5 3.358-7.5 7.5v17.459c0 3.326 2.19 6.255 5.382 7.195 21.832 6.428 37.079 26.805 37.079 49.552 0 5.063-4.118 9.181-9.181 9.181s-9.182-4.119-9.182-9.181c0-18.35-14.93-33.279-33.28-33.279-5.062 0-9.181-4.119-9.181-9.182v-31.746c0-4.141-3.357-7.499-7.5-7.499z"
         id="path40" />
    </g>
  </g>
</svg>
