<?xml version="1.0" encoding="UTF-8" standalone="no"?>
<!-- Created with Inkscape (http://www.inkscape.org/) -->

<svg
   xmlns:dc="http://purl.org/dc/elements/1.1/"
   xmlns:cc="http://creativecommons.org/ns#"
   xmlns:rdf="http://www.w3.org/1999/02/22-rdf-syntax-ns#"
   xmlns:svg="http://www.w3.org/2000/svg"
   xmlns="http://www.w3.org/2000/svg"
   xmlns:sodipodi="http://sodipodi.sourceforge.net/DTD/sodipodi-0.dtd"
   xmlns:inkscape="http://www.inkscape.org/namespaces/inkscape"
   width="256"
   height="256"
   viewBox="0 0 67.733332 67.733335"
   version="1.1"
   id="svg8"
   sodipodi:docname="karachi_three_swords.svg"
   inkscape:version="0.92.4 (5da689c313, 2019-01-14)">
  <defs
     id="defs2">
    <clipPath
       clipPathUnits="userSpaceOnUse"
       id="clipPath828">
      <rect
         style="fill:#0000ff;fill-rule:evenodd;stroke-width:0.26458332"
         id="rect830"
         width="56.69643"
         height="67.657738"
         x="-38.931545"
         y="214.97916" />
    </clipPath>
  </defs>
  <sodipodi:namedview
     id="base"
     pagecolor="#ffffff"
     bordercolor="#666666"
     borderopacity="1.0"
     inkscape:pageopacity="0.0"
     inkscape:pageshadow="2"
     inkscape:zoom="2.8"
     inkscape:cx="38.961109"
     inkscape:cy="-54.831094"
     inkscape:document-units="mm"
     inkscape:current-layer="layer1"
     showgrid="false"
     units="px"
     inkscape:window-width="1920"
     inkscape:window-height="986"
     inkscape:window-x="-11"
     inkscape:window-y="-11"
     inkscape:window-maximized="1" />
  <metadata
     id="metadata5">
    <rdf:RDF>
      <cc:Work
         rdf:about="">
        <dc:format>image/svg+xml</dc:format>
        <dc:type
           rdf:resource="http://purl.org/dc/dcmitype/StillImage" />
        <dc:title></dc:title>
      </cc:Work>
    </rdf:RDF>
  </metadata>
  <g
     inkscape:label="Layer 1"
     inkscape:groupmode="layer"
     id="layer1"
     transform="translate(0,-229.26665)">
    <path
       style="fill:#c8b7b7;fill-opacity:1;stroke:none;stroke-width:0.10690781"
       d="m 50.218339,292.63274 c -0.101796,-0.13307 -0.677654,-5.2356 -0.674148,-5.97347 0.0017,-0.34797 0.03595,-0.39436 0.335927,-0.45436 0.183747,-0.0367 1.30493,-0.0668 2.491521,-0.0668 h 2.157432 l -0.34768,3.0736 c -0.191224,1.69048 -0.350236,3.18185 -0.353365,3.31414 -0.0057,0.23943 -0.0138,0.24055 -1.756573,0.24055 -1.274917,0 -1.778677,-0.0363 -1.853114,-0.13364 z"
       id="path884-7-2"
       inkscape:connector-curvature="0" />
    <path
       style="fill:#c8b7b7;fill-opacity:1;stroke:none;stroke-width:0.10690781"
       d="m 30.744991,292.63274 c -0.101796,-0.13307 -0.677655,-5.2356 -0.674149,-5.97347 0.0017,-0.34797 0.03595,-0.39436 0.335927,-0.45436 0.183748,-0.0367 1.304931,-0.0668 2.491522,-0.0668 h 2.157434 l -0.34768,3.0736 c -0.191223,1.69048 -0.350236,3.18185 -0.353365,3.31414 -0.0057,0.23943 -0.0138,0.24055 -1.756574,0.24055 -1.274918,0 -1.778678,-0.0363 -1.853115,-0.13364 z"
       id="path884-7"
       inkscape:connector-curvature="0" />
    <path
       style="fill:#c8b7b7;fill-opacity:1;stroke:none;stroke-width:0.10690781"
       d="m 12.633222,292.56089 c -0.101797,-0.13307 -0.677656,-5.2356 -0.67415,-5.97347 0.0017,-0.34797 0.03595,-0.39436 0.335928,-0.45436 0.183747,-0.0367 1.304931,-0.0668 2.491522,-0.0668 h 2.157433 l -0.347679,3.0736 c -0.191224,1.69048 -0.350237,3.18185 -0.353365,3.31415 -0.0057,0.23942 -0.0138,0.24054 -1.756575,0.24054 -1.274917,0 -1.778678,-0.0363 -1.853114,-0.13364 z"
       id="path884"
       inkscape:connector-curvature="0" />
    <path
       style="fill:#916f6f;fill-opacity:1;stroke:none;stroke-width:0.10690781"
       d="m 54.717159,291.96457 c 0.0355,-0.1764 0.21226,-1.47532 0.392813,-2.88651 0.180551,-1.41118 0.354781,-2.67403 0.387174,-2.80633 l 0.0589,-0.24054 h 2.458202 2.458202 l -0.802181,0.66818 c -0.752069,0.62642 -2.271761,2.29411 -4.116024,4.51684 -0.439086,0.5292 -0.821575,0.98623 -0.849977,1.01563 -0.0284,0.0294 -0.0226,-0.0909 0.01289,-0.26727 z"
       id="path886-3-0"
       inkscape:connector-curvature="0" />
    <path
       style="fill:#916f6f;fill-opacity:1;stroke:none;stroke-width:0.10690781"
       d="m 17.132044,291.89273 c 0.0355,-0.1764 0.21226,-1.47533 0.392814,-2.88652 0.180551,-1.41118 0.354781,-2.67403 0.387174,-2.80633 l 0.0589,-0.24054 h 2.458203 2.458204 l -0.802183,0.66818 c -0.752069,0.62642 -2.271761,2.29411 -4.116025,4.51685 -0.439086,0.5292 -0.821576,0.98622 -0.849977,1.01562 -0.02841,0.0294 -0.0226,-0.0909 0.01289,-0.26726 z"
       id="path886"
       inkscape:connector-curvature="0" />
    <path
       style="fill:#916f6f;fill-opacity:1;stroke:none;stroke-width:0.10690781"
       d="m 35.243814,291.96457 c 0.0355,-0.1764 0.212259,-1.47532 0.392813,-2.88651 0.180552,-1.41118 0.354781,-2.67403 0.387174,-2.80633 l 0.0589,-0.24054 h 2.458204 2.458203 l -0.802182,0.66818 c -0.752069,0.62642 -2.271762,2.29411 -4.116026,4.51684 -0.439085,0.5292 -0.821576,0.98623 -0.849977,1.01563 -0.0284,0.0294 -0.0226,-0.0909 0.01289,-0.26727 z"
       id="path886-3"
       inkscape:connector-curvature="0" />
    <rect
       style="fill:#f0dddf;fill-opacity:0.94117647;fill-rule:evenodd;stroke:#000000;stroke-width:1.58749998;stroke-linecap:butt;stroke-linejoin:bevel;stroke-miterlimit:4;stroke-dasharray:none;stroke-opacity:1"
       id="rect871"
       width="2.662375"
       height="42.121376"
       x="17.45875"
       y="240.28085" />
    <path
       style="fill:#e9ddaf;stroke:#000000;stroke-width:0.10689167;stroke-miterlimit:4;stroke-dasharray:none;stroke-opacity:1"
       d="m 15.41758,285.10973 c -6.7129272,-0.0325 -12.2345512,-0.0883 -12.270272,-0.12407 -0.03572,-0.0358 -0.094786,-0.38452 -0.1312584,-0.77509 l -0.066312,-0.71011 h 2.3199088 2.3199111 l 1.7847737,-1.51328 c 1.1173838,-0.94741 1.7951548,-1.59703 1.8125398,-1.73725 0.03523,-0.28416 1.627693,-32.91419 1.633944,-33.47997 0.0043,-0.39359 0.112367,-0.53408 1.720335,-2.23739 0.943634,-0.9996 2.201872,-2.25538 2.278677,-2.27324 0.165597,-0.0385 0.316112,1.01765 0.323548,5.48047 0.01266,7.59901 -0.220619,7.65193 -0.04626,13.73765 0.174352,6.08573 0.348596,12.85342 0.38721,15.03932 l 0.07021,3.97436 1.856512,1.50466 1.856514,1.50467 h 3.457684 3.457688 l 0.06626,0.40091 c 0.03645,0.22049 0.06679,0.60536 0.06744,0.85526 0.001,0.44587 -0.0053,0.45396 -0.346274,0.43328 -0.191097,-0.0116 -5.839847,-0.0477 -12.552777,-0.0802 z"
       id="path882"
       inkscape:connector-curvature="0"
       sodipodi:nodetypes="sccccccccscsssccccccccs" />
    <rect
       style="fill:#d3bc5f;fill-rule:evenodd;stroke-width:0.20455463"
       id="rect888"
       width="1.2829361"
       height="33.147205"
       x="9.956871"
       y="244.02861"
       transform="matrix(0.99981469,-0.01925074,0.01582196,0.99987482,0,0)" />
    <path
       style="fill:#000000;stroke:#000000;stroke-width:0.92604167;stroke-miterlimit:4;stroke-dasharray:none;stroke-opacity:1"
       d="m 16.856949,293.61809 -5.093643,0.0424 -0.113392,-0.86935 -0.002,-0.47625 c -0.0038,-0.8746 -0.631488,-6.12345 -0.756545,-6.3258 -0.07034,-0.11382 -1.7296082,-0.1922 -3.8627843,-0.18244 -2.0567127,0.009 -3.9537847,0.0131 -4.2157223,0.008 -0.4502176,-0.008 -0.4762504,-0.0945 -0.4762504,-1.57605 v -1.56727 l 2.4744,-0.0258 c 2.7274535,-0.0285 2.5595951,0.0381 4.674428,-1.85199 l 0.90466,-0.80851 0.410078,-8.36083 c 0.225542,-4.59846 0.462478,-9.31334 0.526525,-10.47751 0.06405,-1.16416 0.261726,-5.06083 0.439287,-8.65924 l 0.322838,-6.54259 2.585142,-2.751 2.585143,-2.75099 0.04838,0.72108 c 0.04611,0.68721 0.580828,19.82301 0.797921,28.55525 0.05644,2.27012 0.161871,5.53332 0.234297,7.25153 l 0.131681,3.12404 1.469664,1.26805 1.469663,1.26804 h 3.700015 3.700012 l 0.05356,3.16747 -3.623487,0.0577 c -3.432737,-0.0363 -8.383872,7.76178 -8.383872,7.76178 z m -0.357859,-3.10235 c 0.137805,-1.25148 0.306853,-2.77548 0.375665,-3.38666 l 0.125111,-1.11126 h -2.569143 c -2.306497,0 -2.568926,0.0378 -2.567028,0.37043 0.0012,0.20372 0.14218,1.60866 0.313371,3.12208 0.171191,1.51341 0.313115,2.87072 0.315385,3.01624 0.003,0.19146 0.522639,0.26459 1.880107,0.26459 h 1.875979 z m 2.887087,-0.95912 1.913714,-2.1942 1.695866,-1.42593 c -5.80187,-0.0446 -5.028146,-0.0808 -5.112777,0.1398 -0.05818,0.15161 -0.273798,1.72449 -0.479148,3.49528 l -0.373362,2.79628 1.189733,-1.47428 c 0,0 -0.137787,0.21218 1.165974,-1.33695 z m 8.961872,-4.34408 -0.0508,-1.7925 -3.116921,0.0578 h -3.851441 l -1.876155,-1.51658 -1.876154,-1.51658 v -1.99544 c 0,-1.88567 -0.140427,-7.18037 -0.632921,-23.8639 -0.116844,-3.95817 -0.229366,-8.31825 -0.25005,-9.68907 -0.02068,-1.37082 -0.110961,-2.46619 -0.200616,-2.43417 -0.08966,0.032 -0.955421,0.91556 -1.923923,1.9634 l -1.760913,1.90516 -0.833874,17.04455 -0.833875,17.04453 -1.808998,1.52691 -1.8089977,1.52691 -2.2754167,0.002 -2.2754168,0.002 v 0.70556 c 0,0.38805 0.063496,0.76905 0.1411112,0.84666 0.077608,0.0776 8.554862,0.14111 18.838334,0.14111 z"
       id="path843"
       inkscape:connector-curvature="0"
       sodipodi:nodetypes="sccccccscsccssscccccsccccccccsscscscscsscccsccsccccccssccccccccccscscc" />
    <rect
       style="fill:#f0dddf;fill-opacity:0.94117647;fill-rule:evenodd;stroke:#000000;stroke-width:1.58749998;stroke-linecap:butt;stroke-linejoin:bevel;stroke-miterlimit:4;stroke-dasharray:none;stroke-opacity:1"
       id="rect871-0"
       width="2.662375"
       height="42.12138"
       x="35.570751"
       y="240.35286" />
    <path
       style="fill:#e9ddaf;stroke:#000000;stroke-width:0.10689167;stroke-miterlimit:4;stroke-dasharray:none;stroke-opacity:1"
       d="m 33.52935,285.18157 c -6.712928,-0.0325 -12.234551,-0.0883 -12.270272,-0.12406 -0.03572,-0.0358 -0.09479,-0.38452 -0.131259,-0.77509 l -0.06631,-0.71011 h 2.319909 2.319911 l 1.784773,-1.51328 c 1.117385,-0.94742 1.795156,-1.59703 1.81254,-1.73726 0.03523,-0.28415 1.627694,-32.91418 1.633944,-33.47996 0.0043,-0.3936 0.112367,-0.53408 1.720336,-2.2374 0.943633,-0.99959 2.201871,-2.25537 2.278676,-2.27323 0.165598,-0.0385 0.316111,1.01765 0.323547,5.48047 0.01266,7.59901 -0.220617,7.65192 -0.04626,13.73765 0.174352,6.08572 0.348596,12.85342 0.387211,15.03931 l 0.07021,3.97436 1.856511,1.50467 1.856514,1.50467 h 3.457684 3.457688 l 0.06626,0.4009 c 0.03645,0.2205 0.06679,0.60537 0.06744,0.85527 10e-4,0.44587 -0.0053,0.45396 -0.346274,0.43328 -0.191097,-0.0116 -5.839846,-0.0477 -12.552777,-0.0802 z"
       id="path882-9"
       inkscape:connector-curvature="0"
       sodipodi:nodetypes="sccccccccscsssccccccccs" />
    <rect
       style="fill:#d3bc5f;fill-rule:evenodd;stroke-width:0.20455463"
       id="rect888-8"
       width="1.2829361"
       height="33.147205"
       x="28.065374"
       y="244.44952"
       transform="matrix(0.99981469,-0.01925074,0.01582196,0.99987482,0,0)" />
    <path
       style="fill:#000000;stroke:#000000;stroke-width:0.92604167;stroke-miterlimit:4;stroke-dasharray:none;stroke-opacity:1"
       d="m 34.968719,293.68993 -5.093643,0.0424 -0.113393,-0.86934 -0.002,-0.47625 c -0.0038,-0.8746 -0.631488,-6.12345 -0.756544,-6.3258 -0.07034,-0.11382 -1.729608,-0.1922 -3.862784,-0.18245 -2.056713,0.009 -3.953785,0.0131 -4.215723,0.008 -0.450217,-0.008 -0.47625,-0.0945 -0.47625,-1.57604 v -1.56727 l 2.4744,-0.0258 c 2.727453,-0.0285 2.559595,0.0381 4.674428,-1.85199 l 0.90466,-0.80851 0.410077,-8.36083 c 0.225543,-4.59846 0.462479,-9.31334 0.526526,-10.47751 0.06405,-1.16417 0.261726,-5.06083 0.439286,-8.65925 l 0.322828,-6.54258 2.585143,-2.751 2.585142,-2.75099 0.04838,0.72108 c 0.04611,0.68721 0.580828,19.82301 0.797921,28.55525 0.05644,2.27012 0.161871,5.53332 0.234297,7.25153 l 0.131681,3.12404 1.469664,1.26805 1.469664,1.26804 h 3.700015 3.700011 l 0.05356,3.16747 -3.623488,0.0577 c -3.432736,-0.0363 -8.383871,7.76178 -8.383871,7.76178 z m -0.35786,-3.10234 c 0.137805,-1.25148 0.306854,-2.77548 0.375665,-3.38666 l 0.125111,-1.11126 h -2.569142 c -2.306497,0 -2.568926,0.0378 -2.567028,0.37042 0.0012,0.20373 0.14218,1.60867 0.31337,3.12208 0.171192,1.51342 0.313116,2.87073 0.315386,3.01625 0.003,0.19146 0.522638,0.26459 1.880107,0.26459 h 1.875979 z m 2.887088,-0.95912 1.913713,-2.1942 1.695867,-1.42593 c -5.801871,-0.0446 -5.028146,-0.0808 -5.112777,0.13979 -0.05818,0.15162 -0.273799,1.7245 -0.479148,3.49528 l -0.373363,2.79628 1.189733,-1.47428 c 0,0 -0.137786,0.21219 1.165975,-1.33694 z m 8.961872,-4.34408 -0.0508,-1.7925 -3.116921,0.0578 h -3.851441 l -1.876155,-1.51658 -1.876155,-1.51658 v -1.99544 c 0,-1.88568 -0.140426,-7.18037 -0.63292,-23.8639 -0.116844,-3.95817 -0.229367,-8.31825 -0.250051,-9.68907 -0.02068,-1.37083 -0.110961,-2.46619 -0.200616,-2.43417 -0.08966,0.032 -0.955421,0.91556 -1.923922,1.9634 l -1.760913,1.90516 -0.833874,17.04454 -0.833876,17.04454 -1.808997,1.5269 -1.808998,1.52692 -2.275417,0.002 -2.275416,0.002 v 0.70556 c 0,0.38805 0.0635,0.76905 0.141111,0.84666 0.07761,0.0776 8.554861,0.14111 18.838333,0.14111 z"
       id="path843-2"
       inkscape:connector-curvature="0"
       sodipodi:nodetypes="sccccccscsccssscccccsccccccccsscscscscsscccsccsccccccssccccccccccscscc" />
    <rect
       style="fill:#f0dddf;fill-opacity:0.94117647;fill-rule:evenodd;stroke:#000000;stroke-width:1.58749998;stroke-linecap:butt;stroke-linejoin:bevel;stroke-miterlimit:4;stroke-dasharray:none;stroke-opacity:1"
       id="rect871-0-9"
       width="2.662375"
       height="42.121384"
       x="55.043751"
       y="240.35385" />
    <path
       style="fill:#e9ddaf;stroke:#000000;stroke-width:0.10689167;stroke-miterlimit:4;stroke-dasharray:none;stroke-opacity:1"
       d="m 53.002696,285.18157 c -6.712924,-0.0325 -12.234547,-0.0883 -12.270268,-0.12406 -0.03572,-0.0358 -0.09479,-0.38452 -0.131259,-0.77509 l -0.06631,-0.71011 h 2.31991 2.319911 l 1.784773,-1.51328 c 1.117384,-0.94742 1.795154,-1.59703 1.812538,-1.73726 0.03523,-0.28415 1.627693,-32.91418 1.633943,-33.47996 0.0043,-0.3936 0.112367,-0.53408 1.720335,-2.2374 0.943632,-0.99959 2.201869,-2.25537 2.278675,-2.27323 0.165597,-0.0385 0.316111,1.01765 0.323547,5.48047 0.01266,7.59901 -0.220618,7.65192 -0.04626,13.73765 0.174352,6.08572 0.348595,12.85342 0.38721,15.03931 l 0.07021,3.97436 1.85651,1.50467 1.856513,1.50467 h 3.457682 3.457688 l 0.06626,0.4009 c 0.03645,0.2205 0.06679,0.60537 0.06744,0.85527 0.001,0.44587 -0.0053,0.45396 -0.346275,0.43328 -0.191097,-0.0116 -5.839844,-0.0477 -12.55277,-0.0802 z"
       id="path882-9-6"
       inkscape:connector-curvature="0"
       sodipodi:nodetypes="sccccccccscsssccccccccs" />
    <rect
       style="fill:#d3bc5f;fill-rule:evenodd;stroke-width:0.20455463"
       id="rect888-8-3"
       width="1.2829361"
       height="33.147205"
       x="47.536392"
       y="244.82504"
       transform="matrix(0.99981469,-0.01925074,0.01582196,0.99987482,0,0)" />
    <path
       style="fill:#000000;stroke:#000000;stroke-width:0.92604167;stroke-miterlimit:4;stroke-dasharray:none;stroke-opacity:1"
       d="m 54.442064,293.68993 -5.093639,0.0424 -0.113393,-0.86934 -0.002,-0.47625 c -0.0038,-0.8746 -0.631488,-6.12345 -0.756545,-6.3258 -0.07034,-0.11382 -1.729606,-0.1922 -3.862782,-0.18245 -2.056713,0.009 -3.953785,0.0131 -4.215722,0.008 -0.450218,-0.008 -0.476251,-0.0945 -0.476251,-1.57604 v -1.56727 l 2.4744,-0.0258 c 2.727454,-0.0285 2.559595,0.0381 4.674427,-1.85199 l 0.90466,-0.80851 0.410077,-8.36083 c 0.225543,-4.59846 0.462479,-9.31334 0.526526,-10.47751 0.06405,-1.16417 0.261725,-5.06083 0.439286,-8.65925 l 0.322818,-6.54258 2.585141,-2.751 2.58514,-2.75099 0.04838,0.72108 c 0.04611,0.68721 0.580828,19.82301 0.79792,28.55525 0.05644,2.27012 0.161872,5.53332 0.234297,7.25153 l 0.131682,3.12404 1.469663,1.26805 1.469662,1.26804 h 3.700012 3.700013 l 0.05356,3.16747 -3.623489,0.0577 c -3.432734,-0.0363 -8.383866,7.76178 -8.383866,7.76178 z m -0.357859,-3.10234 c 0.137805,-1.25148 0.306854,-2.77548 0.375665,-3.38666 l 0.125111,-1.11126 H 52.01584 c -2.306495,0 -2.568925,0.0378 -2.567026,0.37042 0.0012,0.20373 0.14218,1.60867 0.31337,3.12208 0.171191,1.51342 0.313115,2.87073 0.315385,3.01625 0.003,0.19146 0.522638,0.26459 1.880106,0.26459 h 1.875977 z m 2.887086,-0.95912 1.913712,-2.1942 1.695865,-1.42593 c -5.801866,-0.0446 -5.028142,-0.0808 -5.112773,0.13979 -0.05818,0.15162 -0.273799,1.7245 -0.479148,3.49528 l -0.373362,2.79628 1.189732,-1.47428 c 0,0 -0.137786,0.21219 1.165974,-1.33694 z m 8.961869,-4.34408 -0.0508,-1.7925 -3.116921,0.0578 H 58.914 l -1.876154,-1.51658 -1.876154,-1.51658 v -1.99544 c 0,-1.88568 -0.140425,-7.18037 -0.63292,-23.8639 -0.116844,-3.95817 -0.229366,-8.31825 -0.25005,-9.68907 -0.02068,-1.37083 -0.11096,-2.46619 -0.200616,-2.43417 -0.08966,0.032 -0.95542,0.91556 -1.923921,1.9634 l -1.760912,1.90516 -0.833874,17.04454 -0.833875,17.04454 -1.808996,1.5269 -1.808997,1.52692 -2.275417,0.002 -2.275417,0.002 v 0.70556 c 0,0.38805 0.0635,0.76905 0.141111,0.84666 0.07761,0.0776 8.55486,0.14111 18.838326,0.14111 z"
       id="path843-2-7"
       inkscape:connector-curvature="0"
       sodipodi:nodetypes="sccccccscsccssscccccsccccccccsscscscscsscccsccsccccccssccccccccccscscc" />
  </g>
</svg>
