<?xml version="1.0" encoding="UTF-8" standalone="no"?>
<!-- Created with Inkscape (http://www.inkscape.org/) -->

<svg
   xmlns:dc="http://purl.org/dc/elements/1.1/"
   xmlns:cc="http://creativecommons.org/ns#"
   xmlns:rdf="http://www.w3.org/1999/02/22-rdf-syntax-ns#"
   xmlns:svg="http://www.w3.org/2000/svg"
   xmlns="http://www.w3.org/2000/svg"
   xmlns:sodipodi="http://sodipodi.sourceforge.net/DTD/sodipodi-0.dtd"
   xmlns:inkscape="http://www.inkscape.org/namespaces/inkscape"
   width="256"
   height="256"
   viewBox="0 0 67.733332 67.733335"
   version="1.1"
   id="svg8"
   inkscape:version="0.92.4 (5da689c313, 2019-01-14)"
   sodipodi:docname="karachi_mausoleum.svg">
  <defs
     id="defs2">
    <clipPath
       clipPathUnits="userSpaceOnUse"
       id="clipPath828">
      <rect
         style="fill:#0000ff;fill-rule:evenodd;stroke-width:0.26458332"
         id="rect830"
         width="25.390606"
         height="31.270533"
         x="110.24868"
         y="201.98567" />
    </clipPath>
  </defs>
  <sodipodi:namedview
     id="base"
     pagecolor="#ffffff"
     bordercolor="#666666"
     borderopacity="1.0"
     inkscape:pageopacity="0.0"
     inkscape:pageshadow="2"
     inkscape:zoom="2.8"
     inkscape:cx="100.09173"
     inkscape:cy="206.01375"
     inkscape:document-units="mm"
     inkscape:current-layer="layer1"
     showgrid="false"
     units="px"
     inkscape:window-width="1920"
     inkscape:window-height="986"
     inkscape:window-x="-11"
     inkscape:window-y="-11"
     inkscape:window-maximized="1" />
  <metadata
     id="metadata5">
    <rdf:RDF>
      <cc:Work
         rdf:about="">
        <dc:format>image/svg+xml</dc:format>
        <dc:type
           rdf:resource="http://purl.org/dc/dcmitype/StillImage" />
        <dc:title />
      </cc:Work>
    </rdf:RDF>
  </metadata>
  <g
     inkscape:label="Layer 1"
     inkscape:groupmode="layer"
     id="layer1"
     transform="translate(0,-229.26665)">
    <ellipse
       style="fill:#f2f2f2;fill-opacity:1;fill-rule:nonzero;stroke:none;stroke-width:0.81739491;stroke-linecap:butt;stroke-linejoin:round;stroke-miterlimit:4;stroke-dasharray:none;stroke-opacity:1;paint-order:normal"
       id="path886"
       cx="33.876411"
       cy="250.99622"
       rx="15.234363"
       ry="13.730972" />
    <rect
       style="fill:#c8b7b7;fill-rule:evenodd;stroke-width:0.1991303"
       id="rect920-4"
       width="2.8748298"
       height="3.6475031"
       x="32.667725"
       y="250.10144" />
    <rect
       style="fill:#f9f9f9;fill-opacity:1;fill-rule:evenodd;stroke-width:0.19006096"
       id="rect903-2"
       width="42.412514"
       height="14.169456"
       x="12.7991"
       y="267.99951" />
    <rect
       style="fill:#f9f9f9;fill-opacity:1;fill-rule:evenodd;stroke-width:0.18967929"
       id="rect903"
       width="40.617126"
       height="14.73642"
       x="13.60356"
       y="253.72636" />
    <rect
       style="fill:#e3dbdb;fill-rule:evenodd;stroke-width:0.26458332"
       id="rect848"
       width="49.913025"
       height="1.96688"
       x="8.8912201"
       y="283.2215" />
    <rect
       style="fill:#e3dbdb;fill-rule:evenodd;stroke-width:0.2658385"
       id="rect848-5"
       width="53.314812"
       height="1.8588942"
       x="7.1149597"
       y="286.70435" />
    <rect
       style="fill:#e3dbdb;fill-rule:evenodd;stroke-width:0.29505083"
       id="rect848-5-9"
       width="59.173443"
       height="2.0631635"
       x="4.2375975"
       y="290.10196" />
    <path
       style="fill:#6c6753;stroke:none;stroke-width:0.14699824"
       d="m 29.537144,282.28908 c -0.348921,-0.0659 -0.351269,-0.0785 -0.263253,-1.41321 0.285096,-4.32336 2.961629,-13.3161 4.382212,-14.72356 l 0.296737,-0.294 0.419947,0.49642 c 0.804323,0.95078 2.373622,5.24729 3.299545,9.03367 0.477911,1.95432 0.85098,4.2148 1.016973,6.16198 l 0.07205,0.84524 -4.436075,-0.02 c -2.439843,-0.011 -4.594503,-0.0499 -4.788139,-0.0865 z"
       id="path845"
       inkscape:connector-curvature="0" />
    <rect
       style="fill:#c8b7b7;fill-rule:evenodd;stroke-width:0.1991303"
       id="rect920"
       width="2.8748298"
       height="3.6475031"
       x="26.741814"
       y="249.96083" />
    <rect
       style="fill:#c8b7b7;fill-rule:evenodd;stroke-width:0.1991303"
       id="rect920-4-3"
       width="2.8748298"
       height="3.6475031"
       x="38.405087"
       y="249.89429" />
    <path
       style="fill:#000000;stroke:#000000;stroke-width:0.92604166;stroke-miterlimit:4;stroke-dasharray:none;stroke-opacity:1"
       d="m 3.7084368,292.69433 c -0.1036687,-0.27018 -0.1389679,-1.27022 -0.07844,-2.22234 0.1059782,-1.66689 0.1529051,-1.73526 1.2646312,-1.84244 1.1123732,-0.10728 1.1545698,-0.16893 1.1545698,-1.68745 0,-1.44437 0.07425,-1.57614 0.8881301,-1.57614 0.815765,0 0.88813,-0.13024 0.88813,-1.59863 v -1.59864 h 1.745035 c 1.7441661,0 1.7451351,-7e-4 1.9446391,-1.33218 0.109778,-0.73272 0.531604,-5.96824 0.937384,-11.63452 0.405779,-5.66627 0.849566,-11.66116 0.986192,-13.32195 l 0.248411,-3.01965 2.0427,-0.10661 2.0427,-0.10647 v -1.26319 c 0,-2.08375 1.039072,-5.44428 2.278935,-7.37047 2.554446,-3.96842 6.573243,-6.65562 11.11802,-7.43411 l 2.234142,-0.38269 1.065756,0.006 2.623563,0.44083 c 6.960814,1.16963 13.007532,7.99159 13.007532,14.67522 v 1.32864 l 2.042708,0.10647 2.042695,0.10661 0.240569,2.84203 c 0.339457,4.01036 1.334884,17.53512 1.555742,21.13749 0.335645,5.47496 0.272418,5.32878 2.30519,5.32878 h 1.760167 v 1.59864 c 0,1.46838 0.07237,1.59863 0.888132,1.59863 0.813882,0 0.88812,0.13172 0.88812,1.57614 0,1.51852 0.04216,1.58019 1.154575,1.68745 l 1.154575,0.11131 v 2.13151 2.13151 l -30.118014,0.0908 c -25.3693061,0.0765 -30.1477196,0.0134 -30.3064949,-0.40039 z m 16.3732272,-1.82195 v -1.06575 h -7.633056 c -7.0810591,0 -7.6420049,0.0464 -7.7567803,0.64243 -0.3199915,1.66159 -0.1951674,1.68684 7.8322983,1.58497 l 7.557538,-0.0959 z m 26.288662,0 v -1.06575 H 33.9365 21.502673 l -0.111658,1.15914 -0.111658,1.15914 12.545488,-0.0933 12.545494,-0.0933 z m 16.696857,0 v -1.06575 h -7.633059 c -7.081068,0 -7.642002,0.0464 -7.756788,0.64243 -0.319989,1.66159 -0.195159,1.68684 7.832301,1.58497 l 7.557546,-0.0959 z m -40.031092,-3.28609 -0.11241,-0.97693 -7.90436,-0.0956 -7.9043611,-0.0956 v 1.07255 1.07256 h 8.0167701 8.016772 z m 20.669843,-0.0888 v -1.06575 H 33.9365 24.167064 v 1.06575 1.06577 h 9.769436 9.769434 z m 17.052099,0 v -1.06575 h -7.993168 -7.993174 v 1.06575 1.06577 h 7.993174 7.993168 z m -35.235176,-3.10845 -0.11241,-0.97694 -8.259614,-0.0953 -8.2596131,-0.0953 v 0.83548 c 0,0.4595 0.106569,0.94204 0.236835,1.0723 0.130254,0.13024 3.8976701,0.23683 8.3720231,0.23683 h 8.135187 z m 15.696312,-0.0888 v -1.06576 H 33.9365 26.653829 v 1.06576 1.06576 h 7.282671 7.282669 z m 17.697398,-0.0888 0.112382,-0.97695 h -8.205553 c -6.966102,0 -8.23643,0.0806 -8.410027,0.53288 -0.112464,0.29308 -0.111309,0.77569 0.0026,1.07245 0.178319,0.46469 1.329904,0.52631 8.297631,0.44406 l 8.090646,-0.0955 z m -30.841728,-3.10832 c 0,-0.89996 0.195973,-2.50014 0.290526,-3.4848 0.07829,-0.81529 0.195055,-2.13417 0.459917,-2.6291 0.623012,-2.44416 1.122862,-4.02791 1.241457,-4.33697 0.154584,-0.40284 0.847458,-1.87216 1.14835,-2.53255 0.551333,-1.21004 1.17965,-2.45228 1.300407,-2.64766 0.120761,-0.19539 0.760211,-0.35526 1.421009,-0.35526 0.660798,0 1.300252,0.15987 1.421009,0.35526 0.120761,0.19538 0.88813,1.54527 0.88813,1.59586 0,0.0506 0.392429,0.97934 0.872066,2.06388 1.090137,2.465 2.206866,7.08719 2.527513,10.46153 l 0.244747,2.57557 h 7.571046 c 4.164084,0 7.652716,-0.13212 7.752518,-0.29359 0.426571,-0.69022 -0.04999,-3.07393 -0.139532,-3.96944 l -0.710482,-7.10492 c -0.05184,-0.51845 -0.177556,-2.19147 -0.177556,-2.84203 0,-0.70478 -0.144527,-2.25477 -0.243953,-3.28607 -0.09278,-0.96281 0,0 -0.422194,-6.7054 l -0.22204,-4.24188 -3.993764,0.10044 -3.993782,0.10043 -0.307676,1.68745 -0.30768,1.68744 H 33.936546 23.178215 l -0.307679,-1.68744 -0.307678,-1.68745 -3.950482,-0.10003 -3.950483,-0.10003 -0.254675,4.07594 c -0.14007,2.24177 -0.377996,5.85331 -0.476073,6.87053 -0.09309,0.96551 -0.262038,2.62279 -0.65884,7.5491 -0.228202,2.83313 -0.428031,6.23024 -0.444065,7.54912 l -0.02914,2.39794 h 7.637921 7.637922 z m 10.512625,-1.615 c -0.271323,-2.99417 -1.514205,-7.61004 -2.974377,-11.04639 -1.582208,-3.72353 -2.49224,-2.99922 -4.698533,3.73971 -0.187278,0.57202 -0.36806,1.19146 -0.53757,1.8308 -0.842401,3.17729 -1.406393,6.84614 -1.105564,7.63008 0.164463,0.42858 1.073907,0.52674 4.880558,0.52674 h 4.678425 z m 5.279567,-23.69654 c 0.07634,-0.24423 0.23843,-1.04355 0.3602,-1.77626 l 0.221404,-1.33219 h 2.293037 2.293039 v -1.19898 c 0,-2.85963 -0.303233,-3.38605 -2.265352,-3.93269 -3.56503,-0.9932 -8.248636,-1.37197 -14.352117,-1.16069 -5.628452,0.19485 -12.341373,1.05649 -12.987231,1.66699 -0.163021,0.15408 -0.385053,1.25784 -0.493406,2.45277 l -0.197004,2.1726 h 2.330253 2.330252 l 0.232376,1.15456 c 0.529489,2.63082 -0.474494,2.39796 10.339105,2.39796 7.494458,0 9.788828,-0.10298 9.895444,-0.44407 z m -17.923705,-3.23841 c -10e-7,-2.58798 0.676016,-3.54837 2.497703,-3.54837 1.535599,0 2.095892,0.95152 2.109277,3.58213 l 0.01128,2.22033 h -2.309121 -2.309138 z m 3.552521,-0.39265 c 0,-1.76722 -0.733525,-2.5296 -1.855901,-1.92892 -0.459708,0.24602 -0.630864,0.76795 -0.630864,1.92376 0,1.5759 0.0081,1.58614 1.243382,1.58614 1.234747,0 1.243383,-0.0107 1.243383,-1.58098 z m 2.486765,0.4055 c 0,-2.70854 0.51157,-3.56122 2.13659,-3.56122 1.735777,0 2.481688,1.1152 2.481688,3.7103 v 2.09216 h -2.309138 -2.30914 z m 3.552521,-0.22016 c 0,-1.26412 -0.683252,-2.51214 -1.375332,-2.51214 -0.652645,0 -1.111432,0.98253 -1.111432,2.3802 0,1.50897 0.01513,1.52758 1.243383,1.52758 1.21001,0 1.243381,-0.0375 1.243381,-1.39564 z m 2.340787,0.13762 c 0.136013,-2.68858 0.639766,-3.47865 2.310861,-3.47865 1.583068,0 2.098145,0.87425 2.098145,3.56122 v 2.24124 H 39.927149 37.75836 Z m 3.343249,-0.26954 c 0,-1.39767 -0.458787,-2.38019 -1.111432,-2.38019 -0.638892,0 -1.375334,1.21834 -1.375334,2.2753 0,1.41738 0.195041,1.63248 1.48022,1.63248 0.949172,0 1.006546,-0.0871 1.006546,-1.52759 z m -6.927417,-6.766 c 6.330018,-0.0212 8.731036,0.10177 10.657565,0.54565 1.367718,0.31516 2.604881,0.50213 2.74926,0.41551 0.742573,-0.44553 -2.984054,-4.91212 -5.373788,-6.44081 -5.765506,-3.68816 -12.790816,-3.32703 -18.11016,0.93092 -1.408089,1.12714 -3.955338,4.54773 -3.955338,5.31147 0,0.17127 1.318873,0.0759 2.93083,-0.21201 1.980445,-0.35368 5.58039,-0.53227 11.101631,-0.55073 z"
       id="path843"
       inkscape:connector-curvature="0"
       sodipodi:nodetypes="cccssscscsscccscscccscccccscssscccccccccscccccccccccccccscccccccccccccccccccccccccccccccccccscscccccccccccccscccccccccccscscccscssscccccccccccccscscccccscsssscscccccscccsccccscssccccsscsssssscccssssssssscccsssssscccccssc" />
  </g>
</svg>
