<svg id="Layer_1" enable-background="new 0 0 512 512" height="512" viewBox="0 0 512 512" width="512" xmlns="http://www.w3.org/2000/svg"><g><g><path clip-rule="evenodd" d="m420.363 432.783 3.94-154.857 5.981-234.483c.057-2.608 2.154-4.762 4.762-4.762h23.697v398.864h-33.618c-2.636 0-4.847-2.126-4.762-4.762z" fill="#e29d7b" fill-rule="evenodd"/></g><g><path clip-rule="evenodd" d="m458.743 437.545v-398.864h23.697c2.608 0 4.705 2.126 4.762 4.762l5.981 234.483 3.968 154.857c.057 2.636-2.154 4.762-4.79 4.762z" fill="#e29d7b" fill-rule="evenodd"/></g><g><path clip-rule="evenodd" d="m349.555 7.5h-313.277c-11.82.255-21.429 10.035-21.429 21.94v453.12c0 11.906 9.609 21.685 21.458 21.94h313.249c11.849-.255 21.458-10.035 21.458-21.94v-43.314-409.806c-.001-11.905-9.61-21.685-21.459-21.94z" fill="#f9f7f8" fill-rule="evenodd"/></g><g><path clip-rule="evenodd" d="m181.748 58.751c-6.69 6.633-18.737 4.082-28.346-.198-3.855-1.701-8.844-3.345-13.719 2.636-4.79 5.896-7.993 11.65-21.713 10.261-8.56-.85-18.198 2.438-18.765 12.217-.255 3.884-.227 5.272-4.365 4.932-10.941-.935-20.097 7.965-19.275 22.847.198 3.6-.028 2.92-1.757 6.151-9.014 16.81-10.29 25.143-12.699 42.832-.198 1.247.992 2.324 2.268 2.324h243.178c18.538 0 13.719-28.743-1.361-34.583-21.713-8.476-3.458-28.261-21.798-32.315-11.565-2.58-12.047-10.12-12.642-16.441-3.373-34.808-68.795-40.676-89.006-20.663z" fill="#ffd772" fill-rule="evenodd"/></g><g><path clip-rule="evenodd" d="m323.477 198.556h-268.463c-1.701 0-3.487 1.446-3.061 3.09l11.962 48.643c.397 1.644 1.361 3.09 3.061 3.09h244.539c1.672 0 2.664-1.446 3.061-3.09l11.962-48.643c.397-1.645-1.389-3.09-3.061-3.09z" fill="#ffd772" fill-rule="evenodd"/></g><g><path clip-rule="evenodd" d="m309.106 289.208h-239.749c-1.276 0-2.608 1.049-2.296 2.296l10.63 45.553c.312 1.219 1.049 2.296 2.324 2.296h218.461c1.247 0 2.013-1.077 2.296-2.296l10.658-45.553c.284-1.247-1.049-2.296-2.324-2.296z" fill="#ffd772" fill-rule="evenodd"/></g><g><path clip-rule="evenodd" d="m291.191 375.183h-201.907c-3.515 0-3.883.425-3.543 4.28 1.729 19.446 13.323 42.265 37.133 57.005 20.097 12.416 51.561 18.482 66.357 18.482 22.393 0 34.185 3.09 55.841-19.956 2.098-2.211 2.835-2.211 5.754-2.778 16.072-3.09 17.886-13.068 17.858-22.961 0-3.118.368-2.92 2.409-5.102 11.367-12.274 21.77-15.704 21.77-26.674.001-1.247-.765-2.296-1.672-2.296z" fill="#ffd772" fill-rule="evenodd"/></g><g><path clip-rule="evenodd" d="m242.72 95.856c18.311 4.054.057 23.839 21.798 32.315 15.052 5.839 19.87 34.583 1.361 34.583h40.676c18.538 0 13.719-28.743-1.361-34.583-21.713-8.476-3.458-28.261-21.798-32.315-11.565-2.58-12.047-10.12-12.642-16.441-2.721-27.893-45.24-37.191-72.423-29.48 16.526 4.309 30.217 14.032 31.719 29.48.623 6.321 1.077 13.862 12.67 16.441z" fill="#fbba58" fill-rule="evenodd"/></g><g><path clip-rule="evenodd" d="m323.477 198.556h-40.705c1.672 0 3.458 1.446 3.061 3.09l-11.962 48.643c-.397 1.644-1.389 3.09-3.061 3.09h40.705c1.672 0 2.664-1.446 3.061-3.09l11.962-48.643c.397-1.645-1.389-3.09-3.061-3.09z" fill="#fbba58" fill-rule="evenodd"/></g><g><path clip-rule="evenodd" d="m309.106 289.208h-40.676c1.247 0 2.579 1.049 2.296 2.296l-10.658 45.553c-.283 1.219-1.02 2.296-2.296 2.296h40.705c1.247 0 2.013-1.077 2.296-2.296l10.658-45.553c.283-1.247-1.05-2.296-2.325-2.296z" fill="#fbba58" fill-rule="evenodd"/></g><g><path clip-rule="evenodd" d="m291.191 375.183h-40.705c.935 0 1.672 1.049 1.672 2.296 0 10.97-10.403 14.4-21.77 26.674-2.041 2.183-2.409 1.984-2.409 5.102.028 9.893-1.786 19.871-17.858 22.961-2.92.567-3.657.567-5.754 2.778-11.225 11.962-19.814 16.895-28.601 18.85 5.216.737 9.836 1.106 13.464 1.106 22.393 0 34.185 3.09 55.841-19.956 2.098-2.211 2.835-2.211 5.754-2.778 16.072-3.09 17.886-13.068 17.858-22.961 0-3.118.368-2.92 2.409-5.102 11.367-12.274 21.77-15.704 21.77-26.674.002-1.247-.764-2.296-1.671-2.296z" fill="#fbba58" fill-rule="evenodd"/></g><g><path clip-rule="evenodd" d="m283.396 95.856c18.34 4.054.085 23.839 21.798 32.315 15.08 5.839 19.899 34.583 1.361 34.583h-40.676-49.435c1.984 11.565 3.713 23.528 5.102 35.802h61.227 40.705c1.672 0 3.458 1.446 3.061 3.09l-11.962 48.643c-.397 1.644-1.389 3.09-3.061 3.09h-40.705-45.212c.283 8.504.454 17.121.454 25.852 0 3.317-.028 6.661-.085 9.978h42.462 40.676c1.276 0 2.608 1.049 2.324 2.296l-10.658 45.553c-.283 1.219-1.049 2.296-2.296 2.296h-40.705-34.185c-1.02 12.246-2.353 24.208-3.968 35.83h30.869 40.705c.907 0 1.672 1.049 1.672 2.296 0 10.97-10.403 14.4-21.77 26.674-2.041 2.183-2.409 1.984-2.409 5.102.028 9.893-1.786 19.871-17.858 22.961-2.92.567-3.657.567-5.754 2.778-16.922 18.028-27.807 20.069-42.462 20.098-5.499 18.284-11.849 34.866-18.907 49.408h165.851c11.849-.255 21.458-10.035 21.458-21.94v-43.314l-.028-148.706.028-34.611v-226.49c0-11.906-9.609-21.685-21.458-21.94h-197.542c12.019 11.622 23.073 28.176 32.768 48.699 3.713-2.721 8.334-4.819 13.549-6.265 27.184-7.71 69.702 1.587 72.423 29.48.596 6.322 1.078 13.863 12.643 16.442z" fill="#e5e4ed" fill-rule="evenodd"/></g><g><path d="m333.83 203.403c.69-2.861.016-5.861-1.849-8.229-2.031-2.579-5.21-4.119-8.504-4.119h-118.485c-4.143 0-7.5 3.357-7.5 7.5s3.357 7.5 7.5 7.5h112.739l-9.793 39.822h-237.385l-9.793-39.822h111.832c4.143 0 7.5-3.357 7.5-7.5s-3.357-7.5-7.5-7.5h-117.578c-3.341 0-6.545 1.563-8.571 4.179-1.854 2.396-2.493 5.416-1.773 8.202l11.955 48.613c1.296 5.363 5.359 8.828 10.352 8.828h244.539c4.992 0 9.056-3.465 10.345-8.799z"/><path d="m308.075 338.766 10.669-45.601c.613-2.7-.041-5.509-1.796-7.707-1.875-2.348-4.807-3.75-7.842-3.75h-239.749c-3.073 0-6.022 1.428-7.891 3.82-1.73 2.216-2.349 5.023-1.7 7.716l10.621 45.517c.012.052.024.103.037.153 1.232 4.822 4.997 7.938 9.591 7.938h218.461c4.617.001 8.476-3.254 9.599-8.086zm-13.788-6.913h-210.109l-8.201-35.145h226.533z"/><path d="m53.684 159.366c-.387 2.648.398 5.345 2.165 7.416 1.882 2.206 4.625 3.472 7.527 3.472h243.178c9.972 0 17.292-6.027 19.104-15.729 2.228-11.922-4.376-28.167-17.737-33.341-6.84-2.67-7.047-5.817-7.458-12.087-.428-6.509-1.144-17.402-15.435-20.562-6.016-1.342-6.222-3.551-6.772-9.453l-.037-.392c-1.482-15.3-12.363-27.364-30.638-33.969-21.96-7.938-55.391-6.867-71.113 8.702-3.042 3.014-10.896 2.338-20.039-1.735-9.117-4.021-16.708-2.42-22.567 4.77-.421.518-.83 1.035-1.234 1.547-3.831 4.84-5.419 6.84-13.916 5.981-7.914-.79-15.317 1.204-20.301 5.462-3.528 3.014-5.738 7.012-6.464 11.616-5.865.303-11.286 2.643-15.534 6.765-5.915 5.739-8.875 14.273-8.336 24.028.013.229.021.42.029.577-.254.434-.555.956-.908 1.618-9.435 17.595-10.967 26.618-13.514 45.314zm26.735-38.229c.31-.577.562-1.005.765-1.351 1.839-3.13 2.08-4.93 1.869-8.754-.296-5.353 1.056-9.77 3.806-12.438 1.952-1.894 4.489-2.771 7.368-2.521 1.531.129 5.607.46 8.842-2.331 3.176-2.74 3.411-6.361 3.6-9.271l.024-.372c.108-1.864.837-2.714 1.46-3.246 1.812-1.547 5.367-2.313 9.063-1.942 16.647 1.692 22.488-5.679 27.173-11.597.366-.462.735-.93 1.108-1.389 1.386-1.7 1.599-1.959 4.854-.524 15.725 7.008 28.752 6.535 36.675-1.322 9.969-9.871 35.882-12.325 55.457-5.251 7.253 2.622 19.602 8.876 20.805 21.288l.033.361c.62 6.633 1.772 18.979 18.456 22.701 3.188.705 3.313.732 3.719 6.901.465 7.083 1.243 18.938 16.99 25.084 5.791 2.242 9.475 11.005 8.429 16.604-.487 2.605-1.587 3.484-4.36 3.484h-237.157c1.824-12.677 3.588-20.252 11.021-34.114z"/><path d="m147.56 91.317c-2.929 2.93-2.929 7.678 0 10.607l.028.028c1.462 1.461 3.371 2.189 5.283 2.189 1.92 0 3.842-.736 5.31-2.204 2.929-2.929 2.915-7.691-.014-10.621-2.929-2.926-7.677-2.926-10.607.001z"/><path d="m109.407 120.94c-2.929 2.93-2.929 7.678 0 10.607l.028.028c1.462 1.461 3.371 2.189 5.283 2.189 1.92 0 3.842-.736 5.31-2.204 2.929-2.929 2.915-7.691-.014-10.621-2.93-2.926-7.678-2.926-10.607.001z"/><path d="m169.556 120.741c-2.929 2.93-2.929 7.678 0 10.607l.028.028c1.462 1.461 3.371 2.189 5.283 2.189 1.92 0 3.842-.736 5.31-2.204 2.929-2.929 2.915-7.691-.014-10.621-2.929-2.927-7.677-2.927-10.607.001z"/><path d="m494.701 43.282c-.146-6.785-5.531-12.101-12.261-12.101h-47.394c-6.61 0-12.106 5.418-12.26 12.07l-9.92 389.29c-.105 3.275 1.1 6.384 3.395 8.754 2.308 2.383 5.539 3.75 8.864 3.75h67.235c3.303 0 6.521-1.353 8.829-3.711 2.302-2.351 3.53-5.445 3.459-8.743zm-56.985 2.9h13.526v383.864h-23.308zm28.527 383.864v-383.864h13.527l9.81 383.864z"/><path d="m349.045 0h-312.257c-16.234 0-29.44 13.207-29.44 29.44v453.12c0 16.233 13.206 29.44 29.439 29.44h312.258c16.249 0 29.468-13.207 29.468-29.44v-43.314l-.028-148.706c-.001-4.143-3.359-7.5-7.501-7.499-4.143.001-7.5 3.359-7.499 7.501l.028 148.705v43.313c0 7.963-6.49 14.44-14.468 14.44h-312.257c-7.962 0-14.439-6.478-14.439-14.44v-453.12c0-7.963 6.478-14.44 14.439-14.44h312.258c7.978 0 14.468 6.478 14.468 14.44v226.488c0 4.143 3.357 7.5 7.5 7.5s7.5-3.357 7.5-7.5v-226.488c-.001-16.233-13.22-29.44-29.469-29.44z"/><path d="m234.16 88.101c-4.143 0-7.5 3.357-7.5 7.5s3.357 7.5 7.5 7.5h.028c4.143 0 7.486-3.357 7.486-7.5s-3.372-7.5-7.514-7.5z"/><path d="m117.481 222.653c-2.879 2.979-2.798 7.727.18 10.605l.029.028c1.453 1.404 3.322 2.101 5.191 2.101 1.963 0 3.925-.77 5.399-2.295 2.879-2.978 2.783-7.74-.194-10.619-2.978-2.878-7.726-2.797-10.605.18z"/><path d="m147.673 322.149c1.462 1.461 3.371 2.189 5.283 2.189 1.92 0 3.842-.736 5.31-2.204 2.929-2.929 2.915-7.691-.014-10.621-2.93-2.928-7.678-2.928-10.607 0-2.929 2.93-2.929 7.678 0 10.607z"/><path d="m204.575 231.334c1.92 0 3.842-.736 5.31-2.204 2.929-2.929 2.915-7.691-.014-10.621-2.93-2.928-7.678-2.928-10.607 0-2.929 2.93-2.929 7.678 0 10.607l.028.028c1.461 1.461 3.371 2.19 5.283 2.19z"/><path d="m264.384 237.116c1.92 0 3.842-.736 5.31-2.204 2.929-2.929 2.915-7.691-.014-10.621-2.93-2.928-7.678-2.928-10.607 0-2.929 2.93-2.929 7.678 0 10.607l.028.028c1.462 1.462 3.371 2.19 5.283 2.19z"/><path d="m118.932 442.85c21.646 13.371 54.745 19.601 70.3 19.601 2.428 0 4.729.037 6.931.072 2.025.033 4.002.064 5.948.064 15.682 0 29.265-2.064 48.402-22.431.117-.123.213-.22.289-.296.246-.051.559-.11.831-.162l.608-.117c23.545-4.525 23.956-22.58 23.944-29.897.128-.134.265-.277.411-.435 3.435-3.709 6.882-6.63 9.923-9.206 7.119-6.032 13.844-11.73 13.844-22.563 0-5.402-4.115-9.797-9.173-9.797h-201.905c-2.057 0-5.885 0-8.708 3.083-2.856 3.119-2.513 7.023-2.307 9.356v.006c2.213 24.882 17.411 48.327 40.662 62.722zm164.289-60.167c-1.342 1.566-3.397 3.374-6.397 5.916-3.366 2.852-7.182 6.084-11.207 10.432-.269.287-.503.524-.707.732-2.854 2.905-3.725 5.123-3.725 9.515.027 9.382-1.604 13.618-11.789 15.576l-.572.109c-3.372.644-5.834 1.329-9.217 4.896-16.996 18.087-25.751 17.95-43.204 17.666-2.277-.036-4.658-.074-7.171-.074-14.385 0-44.078-6.033-62.41-17.358-18.011-11.15-30.17-28.655-33.132-47.409h189.531z"/><path d="m205.792 421.837c1.928 0 3.856-.735 5.325-2.203 2.929-2.93 2.929-7.678 0-10.607-2.93-2.928-7.678-2.928-10.607 0l-.028.028c-2.929 2.93-2.914 7.664.015 10.593 1.461 1.46 3.378 2.189 5.295 2.189z"/><path d="m168.66 417.329c1.928 0 3.856-.735 5.325-2.203 2.929-2.93 2.929-7.678 0-10.607-2.93-2.928-7.678-2.928-10.607 0l-.028.028c-2.929 2.93-2.914 7.664.015 10.593 1.46 1.461 3.377 2.189 5.295 2.189z"/></g></g></svg>