<?xml version="1.0" encoding="UTF-8" standalone="no"?>
<!-- Created with Inkscape (http://www.inkscape.org/) -->

<svg
   xmlns:dc="http://purl.org/dc/elements/1.1/"
   xmlns:cc="http://creativecommons.org/ns#"
   xmlns:rdf="http://www.w3.org/1999/02/22-rdf-syntax-ns#"
   xmlns:svg="http://www.w3.org/2000/svg"
   xmlns="http://www.w3.org/2000/svg"
   xmlns:sodipodi="http://sodipodi.sourceforge.net/DTD/sodipodi-0.dtd"
   xmlns:inkscape="http://www.inkscape.org/namespaces/inkscape"
   width="256"
   height="256"
   viewBox="0 0 67.733332 67.733335"
   version="1.1"
   id="svg8"
   inkscape:version="0.92.4 (5da689c313, 2019-01-14)"
   sodipodi:docname="kowloon_council.svg">
  <defs
     id="defs2">
    <clipPath
       clipPathUnits="userSpaceOnUse"
       id="clipPath832">
      <ellipse
         style="fill:#e21c2a;fill-opacity:1;fill-rule:nonzero;stroke:#000000;stroke-width:1.84801018;stroke-linecap:butt;stroke-linejoin:round;stroke-miterlimit:4;stroke-dasharray:none;stroke-opacity:0.78431373;paint-order:normal"
         id="ellipse834"
         cx="-24.606251"
         cy="244.87706"
         rx="31.487453"
         ry="30.958286" />
    </clipPath>
  </defs>
  <sodipodi:namedview
     id="base"
     pagecolor="#ffffff"
     bordercolor="#666666"
     borderopacity="1.0"
     inkscape:pageopacity="0.0"
     inkscape:pageshadow="2"
     inkscape:zoom="2"
     inkscape:cx="101.62137"
     inkscape:cy="148.18028"
     inkscape:document-units="mm"
     inkscape:current-layer="layer1"
     showgrid="false"
     units="px"
     inkscape:window-width="1920"
     inkscape:window-height="986"
     inkscape:window-x="-11"
     inkscape:window-y="-11"
     inkscape:window-maximized="1"
     scale-x="0.3" />
  <metadata
     id="metadata5">
    <rdf:RDF>
      <cc:Work
         rdf:about="">
        <dc:format>image/svg+xml</dc:format>
        <dc:type
           rdf:resource="http://purl.org/dc/dcmitype/StillImage" />
        <dc:title></dc:title>
      </cc:Work>
    </rdf:RDF>
  </metadata>
  <g
     inkscape:label="Layer 1"
     inkscape:groupmode="layer"
     id="layer1"
     transform="translate(0,-229.26665)">
    <circle
       style="fill:#fcce02;fill-opacity:1;fill-rule:nonzero;stroke:#000000;stroke-width:2.3812499;stroke-linecap:butt;stroke-linejoin:round;stroke-miterlimit:4;stroke-dasharray:none;stroke-opacity:0.93333334;paint-order:normal"
       id="path828"
       cx="33.866665"
       cy="263.13333"
       r="32.419338" />
    <circle
       style="fill:#e21c2a;fill-opacity:1;fill-rule:nonzero;stroke:none;stroke-width:3.34090686;stroke-linecap:butt;stroke-linejoin:round;stroke-miterlimit:4;stroke-dasharray:none;stroke-opacity:0.93333333;paint-order:normal"
       id="path836"
       cx="33.866665"
       cy="263.13333"
       r="29" />
    <path
       style="fill:#fcce02;fill-opacity:1;stroke:none;stroke-width:0.5291667;stroke-miterlimit:4;stroke-dasharray:none;stroke-opacity:0.78431373"
       d="m -27.32716,279.03211 c -9.956888,-0.80564 -18.995769,-5.82008 -24.998421,-13.86822 -3.506459,-4.70133 -5.795475,-10.37783 -6.518304,-16.16465 -0.34982,-2.80057 -0.34982,-5.96379 0,-8.76437 1.06251,-8.50622 5.440317,-16.52065 12.042274,-22.04573 5.589435,-4.67772 12.359613,-7.44142 19.576929,-7.99163 1.218305,-0.0929 4.029961,-0.0933 5.205955,-7.6e-4 7.395963,0.58192 14.2334803,3.40105 19.8184383,8.17121 7.006169,5.98401 11.284987,14.41092 12.014476,23.66186 0.154745,1.96248 0.07837,4.88296 -0.18223,6.96942 -1.046518,8.37819 -5.305398,16.2676 -11.770688,21.80477 -5.626759,4.81901 -12.4615703,7.64967 -19.8799963,8.23336 -1.047399,0.0824 -4.264318,0.0792 -5.308433,-0.005 z m 5.619089,-1.09164 c 7.854401,-0.68323 15.1569723,-4.09038 20.7460543,-9.67947 4.095349,-4.09534 6.994728,-9.05326 8.589044,-14.68719 0.763194,-2.69694 1.120735,-5.19954 1.17864,-8.24994 0.05072,-2.6701 -0.07947,-4.39098 -0.512177,-6.77021 -1.287571,-7.08014 -4.980962,-13.7584 -10.264896,-18.5606 -6.365783,-5.78542 -14.1314723,-8.80701 -22.6345603,-8.80701 -5.620878,0 -10.975934,1.33623 -15.797063,3.94181 -9.268407,5.0091 -15.579527,13.87836 -17.246404,24.23705 -0.459472,2.85534 -0.513542,6.64885 -0.136099,9.54854 0.957013,7.35221 4.297176,14.11673 9.570351,19.38196 5.54633,5.53795 12.828223,8.94542 20.605299,9.64196 1.482703,0.1328 4.393255,0.13433 5.901811,0.003 z m -5.901811,-2.40813 c -9.810368,-0.9643 -18.504909,-6.46065 -23.62663,-14.93585 -2.295969,-3.79927 -3.67971,-7.92259 -4.271416,-12.72813 -0.05995,-0.48693 -0.09064,-1.62932 -0.08922,-3.32199 0.0023,-2.78268 0.08569,-3.76018 0.500279,-5.86646 1.756313,-8.92276 7.264065,-16.58384 15.153265,-21.07761 3.542931,-2.01809 7.270381,-3.25462 11.508487,-3.81779 1.038272,-0.13796 1.494296,-0.15661 3.829153,-0.15661 2.334857,0 2.790881,0.0187 3.829151,0.15661 6.933529,0.92134 13.0305343,3.86864 17.9278143,8.66633 3.505461,3.43417 6.21002,7.77871 7.748927,12.44766 0.623254,1.89091 1.110522,4.14818 1.396072,6.46726 0.123966,1.00678 0.123966,5.49581 0,6.5026 -0.911929,7.40623 -3.857401,13.58372 -8.88319,18.63056 -5.185954,5.20769 -11.8247483,8.346 -19.1164533,9.03676 -1.434534,0.1359 -4.507336,0.13416 -5.906237,-0.003 z m 7.032698,-2.25313 c 8.508526,-0.98701 15.2473253,-4.66845 19.8558013,-10.84733 2.488135,-3.336 4.28934,-7.5013 5.121011,-11.84233 0.415956,-2.17117 0.498081,-3.12719 0.500866,-5.83113 0.002,-1.64141 -0.03005,-2.80248 -0.09195,-3.35732 -1.020121,-9.15614 -5.524687,-16.44147 -12.415935,-20.08054 -1.902739,-1.00479 -3.9890753,-1.70117 -6.3618103,-2.12345 -2.117405,-0.37684 -4.598591,-0.16735 -7.293925,0.61586 -2.485758,0.72231 -4.861303,2.24893 -7.46864,4.79962 -1.37209,1.34229 -2.240163,2.34234 -4.581886,5.27849 -1.863327,2.3363 -2.353051,2.91942 -3.516897,4.18754 -1.296174,1.41231 -3.371756,3.20713 -4.181533,3.61591 -1.486356,0.75031 -3.414426,0.52859 -4.31787,-0.49653 -0.61071,-0.69296 -1.170582,-2.16981 -1.292281,-3.40882 -0.09837,-1.00146 0.195278,-2.39748 0.710544,-3.37803 0.678629,-1.29144 2.001815,-2.35595 3.49834,-2.81444 0.720077,-0.22061 1.942724,-0.39022 2.485117,-0.34475 1.203718,0.10091 1.923129,0.84622 1.922897,1.99212 -2.13e-4,1.14207 -1.029795,2.61192 -1.500104,2.14162 -0.05056,-0.0506 -0.08482,-0.29435 -0.08482,-0.6036 0,-0.60623 -0.150342,-0.97043 -0.515584,-1.24902 -1.04051,-0.79364 -2.471742,-0.32284 -2.73384,0.89927 -0.211165,0.98464 0.385843,1.84377 1.558956,2.24342 0.582538,0.19847 1.713747,0.21574 2.397272,0.0366 1.919559,-0.50306 3.173721,-2.06026 3.17939,-3.94761 9.75e-4,-0.32551 0.02639,-0.4171 0.124917,-0.45027 0.737774,-0.24836 1.351823,-0.79771 1.713923,-1.53332 0.197031,-0.40027 0.243477,-0.585 0.268911,-1.0696 0.04184,-0.79708 -0.09224,-1.19069 -0.552108,-1.62085 -0.433661,-0.40563 -0.564891,-0.41876 -0.564891,-0.0565 0,0.32646 -0.167103,0.98825 -0.359575,1.42403 -0.158473,0.35882 -0.494941,0.74176 -0.785471,0.89396 -0.680477,0.35649 -1.960402,-0.26152 -2.403099,-1.16034 -0.134625,-0.27334 -0.161738,-0.43916 -0.157959,-0.9661 0.0053,-0.74352 0.07007,-0.89861 0.889036,-2.12983 1.282969,-1.9288 3.20496,-3.35789 5.577616,-4.14722 1.535673,-0.51088 1.904,-0.57868 3.141263,-0.57819 1.318446,5e-4 1.588003,0.0495 3.88742,0.70691 2.932218,0.83826 3.932788,0.86791 4.662547,0.13814 0.360996,-0.36099 0.497122,-0.70873 0.497122,-1.26989 0,-0.73612 -0.320672,-1.26034 -0.985787,-1.61155 -0.399733,-0.21107 -1.163319,-0.21133 -1.558708,-5.2e-4 -0.550455,0.29348 -0.913167,0.80543 -1.0073,1.42173 l -0.0529,0.34637 -1.024865,-0.38485 c -2.166339,-0.81351 -3.46966,-1.09537 -5.053647,-1.0929 -2.339555,0.004 -5.499272,0.80204 -7.350759,1.85741 -1.884656,1.07428 -3.198926,2.48603 -4.177771,4.48763 -0.248486,0.50812 -0.451793,0.96075 -0.451793,1.00585 0,0.0451 -0.07156,0.0974 -0.159031,0.1164 -1.619537,0.35036 -2.600022,0.67422 -3.69305,1.21984 -4.295079,2.14404 -6.33318,6.50879 -5.332395,11.41972 0.32847,1.61183 0.962013,3.10437 1.751127,4.12541 1.360178,1.75996 3.456144,2.82865 6.008085,3.06342 1.764442,0.16234 3.361491,-0.20649 4.631301,-1.06955 1.421703,-0.9663 3.345347,-2.83458 5.70504,-5.54088 0.638482,-0.73226 1.247732,-1.42876 1.35389,-1.54775 l 0.193015,-0.21636 -0.01631,2.03614 -0.01631,2.03615 -0.936547,0.40825 c -0.515103,0.22453 -0.957738,0.42943 -0.983636,0.45533 -0.0259,0.0259 0.4035,0.0471 0.954218,0.0471 h 1.001306 l -5.66e-4,4.0818 -5.65e-4,4.08179 -0.499792,0.38874 c -0.659842,0.51322 -1.686262,1.57756 -2.283438,2.36779 -0.264397,0.34987 -0.510025,0.62797 -0.54584,0.61801 -0.03581,-0.01 -0.45932,-0.0518 -0.941124,-0.0929 -0.951035,-0.0813 -1.911777,-0.0233 -3.194572,0.19287 l -0.715916,0.12063 -0.361094,-0.23171 c -0.78381,-0.50297 -1.515402,-1.58447 -1.609183,-2.37884 -0.08727,-0.73916 0.280352,-1.37722 0.865359,-1.50199 0.352964,-0.0753 0.885051,0.0166 1.273699,0.2199 0.263695,0.13794 0.662267,0.46425 0.662267,0.5422 0,0.0304 -0.12244,0.075 -0.272091,0.0988 -0.516067,0.0826 -0.859007,0.50153 -0.858531,1.04893 9.98e-4,1.15859 1.656009,1.37377 1.990079,0.25875 0.06461,-0.21567 0.06442,-0.40367 -8.42e-4,-0.82394 -0.164283,-1.05785 -0.703889,-1.84178 -1.550096,-2.25196 -0.353032,-0.17112 -0.489024,-0.19616 -1.076768,-0.19839 -0.61835,-0.002 -0.710325,0.016 -1.138307,0.22656 -1.01647,0.50014 -1.687662,1.67552 -1.687662,2.9554 v 0.29598 l -0.349292,0.0463 c -0.902526,0.11972 -1.555469,0.68261 -1.841259,1.5873 -0.332922,1.05388 -0.02093,2.07682 0.738679,2.42186 0.362719,0.16476 0.564748,0.16348 0.937979,-0.006 0.377271,-0.17126 0.584045,-0.49747 0.584045,-0.9214 0,-0.53963 -0.160743,-0.71135 -1.059677,-1.13202 -0.329839,-0.15436 0.285821,-0.56431 0.847464,-0.56431 0.626479,0 1.906936,0.77741 2.493146,1.51368 1.000693,1.25685 1.969969,3.06121 2.281301,4.24677 0.232702,0.88614 0.305967,2.20635 0.175491,3.16227 -0.09644,0.70659 -0.400246,1.86778 -0.627031,2.39664 -0.126328,0.29459 -0.181946,0.34392 -0.537874,0.47709 -0.794884,0.2974 -1.693609,0.13323 -2.328112,-0.42528 -0.335196,-0.29504 -0.435342,-0.47956 -0.18862,-0.34751 0.362981,0.19426 1.022127,0.007 1.287695,-0.36609 0.185592,-0.26064 0.248296,-0.7608 0.130909,-1.04419 -0.123051,-0.29707 -0.51391,-0.62083 -0.818482,-0.67797 -0.488008,-0.0915 -1.160944,0.26375 -1.402733,0.74062 -0.43152,0.85108 -0.0139,2.27658 0.953082,3.25319 l 0.498344,0.50331 -0.356976,0.53372 c -0.421305,0.62991 -0.600506,1.16903 -0.592076,1.78123 0.01712,1.24315 1.175703,2.29895 2.80558,2.55668 0.590649,0.0935 1.495692,-0.0523 1.872128,-0.30142 0.504723,-0.33401 0.71164,-1.06989 0.466084,-1.65758 -0.141953,-0.33975 -0.288536,-0.49569 -0.633427,-0.67384 -0.791269,-0.40874 -1.685331,0.0497 -1.939775,0.99463 -0.04853,0.18022 -0.121485,0.29734 -0.18522,0.29734 -0.165006,0 -0.692779,-0.56966 -0.873349,-0.94268 -0.216547,-0.44732 -0.183508,-0.98843 0.08158,-1.33597 0.323695,-0.42439 1.44869,-0.90196 2.124685,-0.90196 0.392859,0 0.885812,0.39042 2.647804,2.09711 3.099964,3.00267 4.555687,4.12402 6.687536,5.15146 1.507343,0.72646 3.096858,1.20246 4.571772,1.36908 0.782123,0.0884 2.684752,0.0396 3.883601,-0.0994 z m -2.100705,-6.25891 c -2.673614,-0.21504 -4.5353,-1.19462 -6.566726,-3.45529 -0.364011,-0.40508 -0.654009,-0.74394 -0.644438,-0.75303 0.0096,-0.009 0.526298,0.15354 1.148286,0.36137 3.294923,1.10093 6.395291,1.14837 9.118302,0.13953 3.496225,-1.2953 5.354277,-4.27655 3.781666,-6.06768 -0.127411,-0.1451 -0.219469,-0.27295 -0.204574,-0.28409 0.01488,-0.0112 0.321062,-0.20361 0.68037,-0.42771 0.847975,-0.52887 2.526482,-1.73053 3.435666,-2.45962 0.611603,-0.49045 0.971821,-0.79664 1.9943283,-1.69524 0.144462,-0.12695 0.150951,-0.12133 0.565439,0.49013 0.884534,1.30487 2.031127,2.51533 3.14727,3.32258 l 0.554418,0.40098 -0.184447,0.32063 c -0.436591,0.759 -1.411517,2.15756 -2.12045,3.04184 -1.356308,1.69179 -3.0159563,3.22609 -4.7217293,4.36507 -0.895865,0.5982 -2.60631,1.46559 -3.571172,1.811 -1.994647,0.71406 -4.416601,1.05003 -6.412209,0.88953 z m 0.510396,-5.30631 c -1.277314,-0.1842 -2.522394,-0.81449 -3.50391,-1.77376 -0.484509,-0.47353 -1.125654,-1.26738 -1.125654,-1.39377 0,-0.0418 0.07917,-0.0761 0.175942,-0.0761 1.129564,0 3.218815,-2.10156 5.089745,-5.11974 l 0.636119,-1.02619 0.649032,-0.002 c 0.715602,-0.002 0.669468,-0.0335 0.764612,0.52678 0.07378,0.43482 0.37071,1.31899 0.529518,1.57695 l 0.143025,0.23233 0.77782,-0.39786 c 2.742875,-1.40301 3.834978,-2.84011 4.276781,-5.62778 0.07787,-0.49113 0.128339,-1.40525 0.154526,-2.79698 l 0.03884,-2.06739 h 0.55285 0.55285 l 0.03694,0.22971 c 0.02027,0.12634 0.08706,0.56367 0.148396,0.97185 0.217402,1.44763 0.723689,3.39372 1.189782,4.57344 l 0.173304,0.43864 -0.707545,1.0443 c -1.327805,1.95975 -2.530535,3.42632 -3.795573,4.62817 -1.010288,0.95981 -1.011126,0.96032 -1.33712,0.80417 -1.113307,-0.53329 -2.218668,0.20819 -2.118104,1.42084 0.08346,1.00643 1.147442,1.59083 2.057494,1.13011 0.181521,-0.0919 0.330047,-0.15377 0.330047,-0.13748 0,0.12669 -0.644559,0.92741 -1.077527,1.33858 -0.851698,0.80883 -1.770955,1.2735 -2.913614,1.47276 -0.675269,0.11776 -1.044852,0.12429 -1.698631,0.0299 z m -5.595295,-6.19544 c -0.421565,-0.11878 -0.448646,-0.14099 -0.838973,-0.68818 -0.221841,-0.31099 -0.605817,-0.79234 -0.853282,-1.06965 l -0.449935,-0.5042 3.322028,-4.0124 c 1.827115,-2.2068 3.309149,-4.02526 3.293407,-4.04101 -0.04308,-0.043 -2.54927,0.38828 -3.136442,0.53984 l -0.512434,0.13226 v -3.11412 -3.11412 l 2.1967,0.0489 c 1.77896,0.0396 2.186065,0.0317 2.140778,-0.0418 -0.06377,-0.10339 -2.492641,-3.384 -2.566766,-3.46686 -0.02667,-0.0299 -0.371283,0.087 -0.765807,0.25952 -0.394522,0.17254 -0.782022,0.33426 -0.861109,0.35935 -0.142951,0.0454 -0.143796,0.0293 -0.143796,-2.74813 v -2.79378 l -0.583112,-0.0206 -0.583113,-0.0206 1.519628,-1.52386 c 2.14737,-2.15336 3.481386,-3.18769 5.195007,-4.02802 1.785404,-0.87552 3.196841,-1.08594 5.204926,-0.77596 3.958645,0.61106 7.1274203,2.11506 9.5098393,4.51362 1.321175,1.33013 2.44833,2.99269 3.162954,4.66537 0.138482,0.32416 0.251796,0.60246 0.251796,0.61845 0,0.016 -0.113524,0.0291 -0.252265,0.0291 -0.224131,0 -0.393642,-0.12267 -1.519609,-1.09977 l -1.267354,-1.09977 -1.201463,1.09977 c -0.713166,0.65282 -1.258958,1.09977 -1.34294,1.09977 -0.138861,0 -0.141497,-0.0467 -0.142565,-2.52682 -5.59e-4,-1.38975 -0.02446,-2.56169 -0.05301,-2.60431 -0.0583,-0.087 -4.0557753,-2.30347 -4.0909373,-2.2683 -0.01238,0.0124 0.007,1.07003 0.04373,2.35036 0.03644,1.28034 0.08107,2.94016 0.09914,3.68848 l 0.03285,1.36059 h -3.483167 -3.483178 l -1.017126,-0.48408 -1.017122,-0.48409 -0.02114,0.64312 c -0.01163,0.35372 0.02816,2.20162 0.08843,4.10646 0.173003,5.46835 0.128925,8.95452 -0.133866,10.58763 -0.211189,1.31242 -0.669804,2.5967 -1.236606,3.46295 -0.478612,0.73146 -0.54064,0.768 -0.596698,0.35153 -0.103927,-0.7721 -0.667162,-1.53032 -1.295912,-1.74456 -0.862994,-0.29406 -1.679326,-0.009 -2.006988,0.70104 -0.267607,0.57982 -0.08352,1.26283 0.456085,1.69223 0.247155,0.19668 0.318235,0.21613 0.789388,0.21613 0.468649,0 0.548256,-0.0215 0.839017,-0.22642 l 0.32124,-0.22644 0.0468,0.24947 c 0.1419,0.75639 -0.252497,1.53895 -0.96047,1.90573 -0.357429,0.18518 -1.512709,0.21055 -2.096617,0.046 z m 7.539002,-4.36513 c 0,-0.0203 0.124395,-0.28431 0.276435,-0.58669 0.933344,-1.85635 1.299322,-3.16427 1.595444,-5.70186 0.0589,-0.50513 0.107174,-0.95836 0.107174,-1.00719 0,-0.0664 0.218071,-0.0889 0.865835,-0.0889 l 0.865835,-6e-5 -0.01877,1.71406 c -0.01028,0.94274 -0.05122,1.93672 -0.09095,2.20884 -0.129168,0.88553 -0.702884,1.87392 -1.560911,2.68914 -0.810237,0.76982 -0.883786,0.80953 -1.499033,0.80953 -0.2976,0 -0.5411,-0.0166 -0.5411,-0.0369 z m 16.7915043,-0.5234 c -0.489564,-0.51101 -1.54288,-0.68672 -2.246862,-0.37482 l -0.333581,0.1478 -0.310918,-0.47217 c -0.532074,-0.808 -0.52256,-0.74961 -0.190167,-1.16669 1.392029,-1.74668 2.519234,-3.3725 3.502735,-5.05212 0.467021,-0.79758 0.535509,-0.95425 0.450998,-1.03173 -0.05481,-0.0502 -0.719855,-0.5936 -1.477898,-1.20744 -0.758052,-0.61384 -1.432123,-1.16269 -1.497944,-1.21968 -0.110029,-0.0952 -0.220957,0.099 -1.376435,2.41111 -0.811594,1.62399 -1.27577,2.48076 -1.310443,2.4188 -0.09385,-0.16761 -0.398245,-2.17732 -0.513435,-3.38932 -0.09375,-0.98653 -0.241243,-4.14035 -0.247543,-5.2933 l -0.002,-0.33573 h 3.106937 3.106946 l 0.137185,0.4771 c 0.544334,1.89308 0.747699,3.51558 0.746361,5.95482 -9.98e-4,2.59357 -0.239506,4.45215 -0.887289,6.92667 -0.157731,0.60256 -0.303301,1.16712 -0.323468,1.25458 -0.04792,0.20758 -0.09514,0.20079 -0.333351,-0.0479 z M -18.141852,241.991 c 0.02236,-0.32445 0.07208,-1.48047 0.110378,-2.56895 0.03834,-1.08848 0.09005,-2.28916 0.115031,-2.66818 l 0.04532,-0.68914 h 2.457106 2.457116 l 0.03963,0.6538 c 0.02176,0.35959 0.07528,1.41714 0.118774,2.35012 0.04353,0.93298 0.101094,1.97463 0.12789,2.31478 0.02676,0.34015 0.02416,0.61845 -0.006,0.61845 -0.03005,0 -0.512616,-0.25362 -1.072395,-0.5636 -0.559779,-0.30998 -1.095667,-0.59909 -1.19087,-0.64247 -0.178127,-0.0812 -0.134738,-0.10501 -3.185507,1.75029 -0.03145,0.0192 -0.03894,-0.23064 -0.01657,-0.5551 z m 13.2031903,-11.65982 c -0.482686,-0.18551 -1.09374,-0.74794 -1.324041,-1.21864 -0.771451,-1.57679 0.133121,-3.34337 1.878119,-3.66789 1.321674,-0.24579 2.632707,0.71349 2.886289,2.11191 0.204034,1.12521 -0.51039,2.37475 -1.588385,2.77807 -0.52276,0.19559 -1.338088,0.19408 -1.851982,-0.003 z m 1.806566,-0.95917 c 1.406975,-0.86987 0.7838,-3.06117 -0.870537,-3.06117 -1.235317,0 -2.028591,1.28431 -1.476989,2.39123 0.436681,0.8763 1.515685,1.18422 2.347526,0.66994 z m -45.3589933,23.54375 c 2.031627,-0.59407 2.701951,-3.15596 1.216689,-4.65 -1.089463,-1.0959 -2.856496,-1.11852 -3.957095,-0.0506 -0.60655,0.58851 -0.920956,1.43366 -0.843837,2.26827 0.104461,1.13052 1.036207,2.2183 2.122161,2.47756 0.384905,0.0918 1.065212,0.0709 1.462082,-0.0452 z"
       id="path826"
       inkscape:connector-curvature="0"
       clip-path="url(#clipPath832)"
       transform="matrix(0.95276044,0,0,0.95276044,57.310529,29.824141)" />
  </g>
</svg>
