<?xml version="1.0" encoding="UTF-8" standalone="no"?>
<!-- Generator: Adobe Illustrator 19.0.0, SVG Export Plug-In . SVG Version: 6.00 Build 0)  -->

<svg
   xmlns:dc="http://purl.org/dc/elements/1.1/"
   xmlns:cc="http://creativecommons.org/ns#"
   xmlns:rdf="http://www.w3.org/1999/02/22-rdf-syntax-ns#"
   xmlns:svg="http://www.w3.org/2000/svg"
   xmlns="http://www.w3.org/2000/svg"
   xmlns:sodipodi="http://sodipodi.sourceforge.net/DTD/sodipodi-0.dtd"
   xmlns:inkscape="http://www.inkscape.org/namespaces/inkscape"
   version="1.1"
   id="Capa_1"
   x="0px"
   y="0px"
   viewBox="0 0 511.999 511.999"
   style="enable-background:new 0 0 511.999 511.999;"
   xml:space="preserve"
   sodipodi:docname="kualalumpur_petaling.svg"
   inkscape:version="0.92.4 (5da689c313, 2019-01-14)"><metadata
   id="metadata55"><rdf:RDF><cc:Work
       rdf:about=""><dc:format>image/svg+xml</dc:format><dc:type
         rdf:resource="http://purl.org/dc/dcmitype/StillImage" /></cc:Work></rdf:RDF></metadata><defs
   id="defs53" /><sodipodi:namedview
   pagecolor="#ffffff"
   bordercolor="#666666"
   borderopacity="1"
   objecttolerance="10"
   gridtolerance="10"
   guidetolerance="10"
   inkscape:pageopacity="0"
   inkscape:pageshadow="2"
   inkscape:window-width="1920"
   inkscape:window-height="986"
   id="namedview51"
   showgrid="false"
   inkscape:zoom="1.3037307"
   inkscape:cx="247.4428"
   inkscape:cy="266.24892"
   inkscape:window-x="-11"
   inkscape:window-y="-11"
   inkscape:window-maximized="1"
   inkscape:current-layer="g981" />
<rect
   x="177.56729"
   y="286.45142"
   style="fill:#39437d;fill-opacity:1;stroke:#000000;stroke-width:17;stroke-linejoin:round;stroke-miterlimit:4;stroke-dasharray:none;stroke-opacity:1"
   width="156.86441"
   height="36.975624"
   id="rect2" />
<g
   id="g8"
   transform="translate(0,12.015148)">
	<rect
   x="356.76401"
   y="247.16499"
   style="fill:#c43341"
   width="54.703999"
   height="188.51601"
   id="rect4" />
	<rect
   x="100.533"
   y="247.16499"
   style="fill:#c43341"
   width="54.703999"
   height="188.51601"
   id="rect6" />
</g>
<polygon
   style="fill:#306d52;fill-opacity:1"
   points="106.442,178.065 405.559,178.065 451.619,251.181 60.381,251.181 "
   id="polygon10"
   transform="translate(0,12.015148)" />



<path
   d="m 353.985,216.45015 h -55.55 c -5.544,0 -10.039,4.496 -10.039,10.039 0,5.544 4.496,10.039 10.039,10.039 h 55.55 c 5.544,0 10.039,-4.496 10.039,-10.039 0,-5.543 -4.494,-10.039 -10.039,-10.039 z"
   id="path18"
   inkscape:connector-curvature="0" />
<g
   id="g20">
</g>
<g
   id="g22">
</g>
<g
   id="g24">
</g>
<g
   id="g26">
</g>
<g
   id="g28">
</g>
<g
   id="g30">
</g>
<g
   id="g32">
</g>
<g
   id="g34">
</g>
<g
   id="g36">
</g>
<g
   id="g38">
</g>
<g
   id="g40">
</g>
<g
   id="g42">
</g>
<g
   id="g44">
</g>
<g
   id="g46">
</g>
<g
   id="g48">
</g>
<g
   id="g981"
   transform="translate(-9.805021)"><rect
     style="fill:#e3e2db;fill-rule:evenodd;stroke:#000000;stroke-width:12;stroke-miterlimit:4;stroke-dasharray:none;stroke-opacity:1"
     id="rect988-9"
     width="20"
     height="50"
     x="402.80176"
     y="2.837662"
     transform="rotate(20)" /><rect
     style="fill:#e3e2db;fill-rule:evenodd;stroke:#000000;stroke-width:12;stroke-miterlimit:4;stroke-dasharray:none;stroke-opacity:1"
     id="rect988"
     width="20"
     height="50"
     x="76.378227"
     y="185.67258"
     transform="rotate(-20)" /><rect
     y="-143.7289"
     x="231.73129"
     height="30.088902"
     width="30.0889"
     id="rect886-0-1-8-4"
     style="fill:#85f0da;fill-opacity:1;fill-rule:evenodd;stroke:#000000;stroke-width:11.91100025;stroke-linejoin:round;stroke-miterlimit:4;stroke-dasharray:none;stroke-opacity:1"
     transform="rotate(45)" /><rect
     transform="rotate(-10)"
     y="129.75067"
     x="1.1825641"
     height="35.950485"
     width="228.28072"
     id="rect886"
     style="fill:#85f0da;fill-opacity:1;fill-rule:evenodd;stroke:#000000;stroke-width:16;stroke-linejoin:round;stroke-miterlimit:4;stroke-dasharray:none;stroke-opacity:1" /><rect
     transform="rotate(10)"
     y="37.437725"
     x="294.0694"
     height="35.950485"
     width="228.28072"
     id="rect886-0"
     style="fill:#85f0da;fill-opacity:1;fill-rule:evenodd;stroke:#000000;stroke-width:16;stroke-linejoin:round;stroke-miterlimit:4;stroke-dasharray:none;stroke-opacity:1" /></g><path
   d="m 447.98,271.22715 h 2.489 c 22.123,0 28.93,3.384 44.587,-12.261 3.921,-3.919 3.924,-10.275 0.006,-14.198 -3.92,-3.921 -10.277,-3.924 -14.198,-0.006 -11.154,11.146 -11.755,5.581 -27.39,6.314 l -44.514,-68.736 c 0,-5.544 5.504,-12.039 -0.039,-12.039 -5.544,0 -23.52267,11.39927 -58.039,10.039 H 161.12 c -29.91415,-1.70885 -11.84343,2.23347 -58.039,-10.039 -5.357176,-1.42321 1.961,6.496 1.961,12.039 l -46.517,68.736 c -15.635,-0.733 -14.236,2.832 -25.39,-8.314 -3.922,-3.918 -10.279,-3.915 -14.198,0.006 -3.918,3.922 -3.915,10.278 0.006,14.198 15.658,15.645 20.464,14.261 42.588,14.261 h 2.489 28.481 v 164.422 H 33.762 c -5.544,0 -10.039,4.496 -10.039,10.039 0,5.544 4.496,10.039 10.039,10.039 h 444.476 c 5.544,0 10.039,-4.496 10.039,-10.039 0,-5.544 -4.496,-10.039 -10.039,-10.039 h -58.739 v -164.422 z m -304.79,164.423 h -30.61 v -164.423 h 30.61 z m 205.543,0 H 163.267 v -164.423 h 24.064 v 9.767 c 0,5.544 4.496,10.039 10.039,10.039 5.543,0 10.039,-4.496 10.039,-10.039 v -9.767 h 38.411 v 9.767 c 0,5.544 4.496,10.039 10.039,10.039 5.544,0 10.039,-4.496 10.039,-10.039 v -9.767 h 38.691 v 9.767 c 0,5.544 4.496,10.039 10.039,10.039 5.544,0 10.039,-4.496 10.039,-10.039 v -9.767 h 24.064 v 164.423 z m 50.688,0 h -30.61 v -164.423 h 30.61 z m 10.039,-184.501 H 358.772 153.229 102.541 82.21 l 30.882,-49.021 H 398.91 l 30.882,49.021 z"
   id="path14"
   inkscape:connector-curvature="0"
   sodipodi:nodetypes="cscccccsccscccccscccssssssccccccccccccsssccsssccssscccccccccccccccccc" /></svg>