<?xml version="1.0" encoding="UTF-8" standalone="no"?>
<svg
   xmlns:dc="http://purl.org/dc/elements/1.1/"
   xmlns:cc="http://creativecommons.org/ns#"
   xmlns:rdf="http://www.w3.org/1999/02/22-rdf-syntax-ns#"
   xmlns:svg="http://www.w3.org/2000/svg"
   xmlns="http://www.w3.org/2000/svg"
   xmlns:sodipodi="http://sodipodi.sourceforge.net/DTD/sodipodi-0.dtd"
   xmlns:inkscape="http://www.inkscape.org/namespaces/inkscape"
   height="480pt"
   viewBox="0 0 480 480"
   width="480pt"
   version="1.1"
   id="svg64"
   sodipodi:docname="kualalumpur_petronas.svg"
   inkscape:version="0.92.4 (5da689c313, 2019-01-14)">
  <metadata
     id="metadata70">
    <rdf:RDF>
      <cc:Work
         rdf:about="">
        <dc:format>image/svg+xml</dc:format>
        <dc:type
           rdf:resource="http://purl.org/dc/dcmitype/StillImage" />
      </cc:Work>
    </rdf:RDF>
  </metadata>
  <defs
     id="defs68" />
  <sodipodi:namedview
     pagecolor="#ffffff"
     bordercolor="#666666"
     borderopacity="1"
     objecttolerance="10"
     gridtolerance="10"
     guidetolerance="10"
     inkscape:pageopacity="0"
     inkscape:pageshadow="2"
     inkscape:window-width="1920"
     inkscape:window-height="986"
     id="namedview66"
     showgrid="false"
     inkscape:zoom="0.7375"
     inkscape:cx="426.80392"
     inkscape:cy="307.73179"
     inkscape:window-x="-11"
     inkscape:window-y="-11"
     inkscape:window-maximized="1"
     inkscape:current-layer="svg64" />
  <path
     d="m312 480h-19.199219l-58.402343-58.398438 11.203124-11.203124 53.597657 53.601562h12.800781zm0 0"
     fill="#a9aaaa"
     id="path2" />
  <path
     d="m187.199219 480h-19.199219v-16h12.800781l53.597657-53.601562 11.203124 11.203124zm0 0"
     fill="#a9aaaa"
     id="path4" />
  <path
     d="m184 408h112v16h-112zm0 0"
     fill="#bfbfbf"
     id="path6" />
  <path
     d="m176 392v-88l-8-8v-56l-8-8-8-48-8-8-8-40-8-8-8-40h-16l-8 40-8 8-8 40-8 8-8 48-8 8v56l-8 8v88l-8 8v80h144v-80zm0 0"
     id="path8"
     fill="#214668"
     style="fill:#295984;fill-opacity:1" />
  <path
     d="m104 0h16v88h-16zm0 0"
     fill="#15364f"
     id="path10" />
  <path
     d="m128 72c0 8.835938-7.164062 16-16 16s-16-7.164062-16-16 7.164062-16 16-16 16 7.164062 16 16zm0 0"
     fill="#15364f"
     id="path12" />
  <path
     d="m48 392h128l8 8v80h-144v-80zm0 0"
     fill="#36607f"
     id="path14"
     style="fill:#3f7196;fill-opacity:1" />
  <path
     d="m160 232h-96l-8 8v56h112v-56zm0 0"
     fill="#36607f"
     id="path16"
     style="fill:#3f7196;fill-opacity:1" />
  <path
     d="m128 128h-32l-8 8-8 40h64l-8-40zm0 0"
     fill="#36607f"
     id="path18" />
  <path
     d="m152 480h-16v-76.800781l-8-8v-88l-8-8v-56l-8-8 8-14.398438 16 16v56l8 8v88l8 8zm0 0"
     fill="#15364f"
     id="path20" />
  <path
     d="m88 480h-16v-83.199219l8-8v-88l8-8v-56l16-16 8 14.398438-8 8v56l-8 8v88l-8 8zm0 0"
     fill="#15364f"
     id="path22" />
  <path
     d="m104 128h16v112h-16zm0 0"
     fill="#15364f"
     id="path24" />
  <path
     d="m432 392v-88l-8-8v-56l-8-8-8-48-8-8-8-40-8-8-8-40h-16l-8 40-8 8-8 40-8 8-8 48-8 8v56l-8 8v88l-8 8v80h144v-80zm0 0"
     fill="#214668"
     id="path26"
     style="fill:#295984;fill-opacity:1" />
  <path
     d="m360 0h16v88h-16zm0 0"
     fill="#15364f"
     id="path28" />
  <path
     d="m384 72c0 8.835938-7.164062 16-16 16s-16-7.164062-16-16 7.164062-16 16-16 16 7.164062 16 16zm0 0"
     fill="#15364f"
     id="path30" />
  <path
     d="m304 392h128l8 8v80h-144v-80zm0 0"
     fill="#36607f"
     id="path32"
     style="fill:#3f7196;fill-opacity:1" />
  <path
     d="m416 232h-96l-8 8v56h112v-56zm0 0"
     fill="#36607f"
     id="path34"
     style="fill:#3f7196;fill-opacity:1" />
  <path
     d="m384 128h-32l-8 8-8 40h64l-8-40zm0 0"
     fill="#36607f"
     id="path36" />
  <path
     d="m408 480h-16v-76.800781l-8-8v-88l-8-8v-56l-8-8 8-14.398438 16 16v56l8 8v88l8 8zm0 0"
     fill="#15364f"
     id="path38" />
  <path
     d="m344 480h-16v-83.199219l8-8v-88l8-8v-56l16-16 8 14.398438-8 8v56l-8 8v88l-8 8zm0 0"
     fill="#15364f"
     id="path40" />
  <path
     d="m360 128h16v112h-16zm0 0"
     fill="#15364f"
     id="path42" />
  <path
     d="m440 300.800781-8-8v-56l-8.800781-8.800781-8-48-8-8-8-40-8-8-7.199219-34.398438c9.601562-8.800781 10.398438-24 .800781-33.601562-2.402343-3.199219-5.601562-4.800781-9.601562-6.398438v-49.601562h-16v49.601562c-12.800781 4-19.199219 17.597657-14.398438 30.398438 1.597657 4 3.199219 7.199219 6.398438 9.601562l-7.199219 34.398438-8 8-8 40-8 8-8 48-8 8.800781v56l-8 8v88l-8 8v11.199219h-96v-11.199219l-8-8v-88l-8-8v-56l-8.800781-8.800781-8-48-8-8-8-40-8-8-7.199219-34.398438c9.601562-8.800781 10.398438-24 .800781-33.601562-2.402343-3.199219-5.601562-4.800781-9.601562-6.398438v-49.601562h-16v49.601562c-12.800781 4-19.199219 17.597657-14.398438 30.398438 1.597657 4 3.199219 7.199219 6.398438 9.601562l-7.199219 34.398438-8 8-8 40-8 8-8 48-8 8.800781v56l-8 8v88l-8 8v83.199219h16v-76.800781l3.199219-3.199219h20.800781v80h16v-76.800781l3.199219-3.199219h41.601562l3.199219 3.199219v76.800781h16v-80h20.800781l3.199219 3.199219v76.800781h16v-4.800781l48-48 48 48v4.800781h16v-76.800781l3.199219-3.199219h20.800781v80h16v-76.800781l3.199219-3.199219h41.601562l3.199219 3.199219v76.800781h16v-80h20.800781l3.199219 3.199219v76.800781h16v-83.199219l-8-8zm-340.800781 3.199219h25.601562l3.199219 3.199219v76.800781h-32v-76.800781zm57.601562-64 3.199219 3.199219v44.800781h-24v-48zm-49.601562 0h9.601562l3.199219 3.199219v44.800781h-16v-44.800781zm36.800781 64h20.800781l3.199219 3.199219v76.800781h-24zm6.398438-80h-30.398438v-40h20.800781l4 4zm-16-56h-14.398438v-32h4.800781l4 4zm-22.398438-104c4.800781 0 8 3.199219 8 8s-3.199219 8-8 8-8-3.199219-8-8 3.199219-8 8-8zm1.601562 32 4.796876 24h-12.796876l4.796876-24zm-14.402343 40h4.800781v32h-14.398438l5.597657-28zm-16 48h20.800781v40h-30.398438l6.398438-36zm-16 56h20.800781v48h-24v-44.800781zm-8 64h20.800781v80h-24v-76.800781zm132.800781 120h28.800781l-28.800781 28.800781zm67.199219 0h28.800781v28.800781zm96-120h25.601562l3.199219 3.199219v76.800781h-32v-76.800781zm57.601562-64 3.199219 3.199219v44.800781h-24v-48zm-49.601562 0h9.601562l3.199219 3.199219v44.800781h-16v-44.800781zm36.800781 64h20.800781l3.199219 3.199219v76.800781h-24zm6.398438-80h-30.398438v-40h20.800781l4 4zm-16-56h-14.398438v-32h4.800781l4 4zm-22.398438-104c4.800781 0 8 3.199219 8 8s-3.199219 8-8 8-8-3.199219-8-8 3.199219-8 8-8zm1.601562 32 4.796876 24h-12.796876l4.796876-24zm-14.402343 40h4.800781v32h-14.398438l5.597657-28zm-16 48h20.800781v40h-30.398438l6.398438-36zm-16 56h20.800781v48h-24v-44.800781zm-8 64h20.800781v80h-24v-76.800781zm0 0"
     id="path54" />
</svg>
