<?xml version="1.0" encoding="UTF-8" standalone="no"?>
<svg
   xmlns:dc="http://purl.org/dc/elements/1.1/"
   xmlns:cc="http://creativecommons.org/ns#"
   xmlns:rdf="http://www.w3.org/1999/02/22-rdf-syntax-ns#"
   xmlns:svg="http://www.w3.org/2000/svg"
   xmlns="http://www.w3.org/2000/svg"
   xmlns:sodipodi="http://sodipodi.sourceforge.net/DTD/sodipodi-0.dtd"
   xmlns:inkscape="http://www.inkscape.org/namespaces/inkscape"
   id="Capa_1"
   enable-background="new 0 0 512 512"
   height="512"
   viewBox="0 0 512 512"
   width="512"
   version="1.1"
   sodipodi:docname="laisee.svg"
   inkscape:version="1.0.1 (3bc2e813f5, 2020-09-07)">
  <metadata
     id="metadata41">
    <rdf:RDF>
      <cc:Work
         rdf:about="">
        <dc:format>image/svg+xml</dc:format>
        <dc:type
           rdf:resource="http://purl.org/dc/dcmitype/StillImage" />
        <dc:title></dc:title>
      </cc:Work>
    </rdf:RDF>
  </metadata>
  <defs
     id="defs39" />
  <sodipodi:namedview
     pagecolor="#ffffff"
     bordercolor="#666666"
     borderopacity="1"
     objecttolerance="10"
     gridtolerance="10"
     guidetolerance="10"
     inkscape:pageopacity="0"
     inkscape:pageshadow="2"
     inkscape:window-width="1920"
     inkscape:window-height="986"
     id="namedview37"
     showgrid="false"
     inkscape:zoom="1.5976562"
     inkscape:cx="256"
     inkscape:cy="256"
     inkscape:window-x="-11"
     inkscape:window-y="-11"
     inkscape:window-maximized="1"
     inkscape:current-layer="g32" />
  <g
     id="g34">
    <g
       id="g22">
      <g
         id="g20">
        <path
           d="m394.893 504h-277.786c-5.523 0-10-4.477-10-10v-476c0-5.523 4.477-10 10-10h277.786c5.523 0 10 4.477 10 10v476c0 5.523-4.477 10-10 10z"
           fill="#cb3541"
           id="path2" />
        <path
           d="m394.893 486h-277.786c-5.523 0-10-4.477-10-10v18c0 5.523 4.477 10 10 10h277.786c5.523 0 10-4.477 10-10v-18c0 5.523-4.477 10-10 10z"
           fill="#ba3243"
           id="path4" />
        <circle
           cx="256"
           cy="276.311"
           fill="#ffe08c"
           r="87.6"
           id="circle6" />
        <path
           d="m256 345.911c-45.341 0-82.636-34.448-87.142-78.6-.302 2.959-.457 5.961-.457 9 0 48.38 39.22 87.6 87.6 87.6s87.6-39.22 87.6-87.6c0-3.039-.155-6.041-.457-9-4.508 44.152-41.803 78.6-87.144 78.6z"
           fill="#f9d375"
           id="path8" />
        <path
           d="m224.779 245.09h62.443v62.443h-62.443z"
           fill="#febd55"
           transform="matrix(-.707 -.707 .707 -.707 241.638 652.712)"
           id="path10" />
        <path
           d="m259.535 253.693 31.618 31.618 9-9-44.153-44.153-44.154 44.154 9 9 31.618-31.618c1.953-1.953 5.119-1.953 7.071-.001z"
           fill="#f9ab43"
           id="path12" />
        <path
           d="m109.037 12.112 37.537 60.797h218.852l37.537-60.797c-1.819-2.489-4.751-4.112-8.07-4.112h-277.786c-3.319 0-6.251 1.623-8.07 4.112z"
           fill="#f7594e"
           id="path14" />
        <path
           d="m109.037 12.112 37.537 60.797h218.852l37.537-60.797c-1.819-2.489-4.751-4.112-8.07-4.112h-277.786c-3.319 0-6.251 1.623-8.07 4.112z"
           fill="#f7594e"
           id="path16" />
        <path
           d="m135.46 54.908 11.114 18h218.852l11.114-18z"
           fill="#ea4642"
           id="path18" />
      </g>
    </g>
    <g
       id="g32">
      <path
         d="m261.314 226.798c-1.41-1.41-3.321-2.201-5.314-2.201s-3.905.792-5.314 2.201l-44.24 44.24c-1.41 1.409-2.201 3.32-2.201 5.314 0 1.993.791 3.905 2.201 5.314l44.24 44.24c1.467 1.467 3.391 2.201 5.314 2.201s3.846-.734 5.314-2.201l44.24-44.24c2.934-2.935 2.934-7.693 0-10.627zm-5.314 83.166-33.613-33.612 33.613-33.614 33.613 33.613z"
         id="path24" />
      <path
         d="m313.232 209.383c2.42-3.371 1.649-8.067-1.722-10.487-16.25-11.664-35.444-17.83-55.51-17.83-52.541 0-95.286 42.745-95.286 95.286s42.746 95.285 95.286 95.285c52.541 0 95.286-42.745 95.286-95.286 0-19.307-5.745-37.901-16.613-53.772-2.344-3.425-7.023-4.299-10.446-1.955-3.425 2.344-4.299 7.022-1.955 10.446 9.149 13.36 13.984 29.018 13.984 45.281 0 44.253-36.003 80.256-80.256 80.256s-80.256-36.003-80.256-80.256 36.003-80.256 80.256-80.256c16.901 0 33.066 5.19 46.745 15.01 3.371 2.42 8.066 1.65 10.487-1.722z"
         id="path26" />
      <path
         d="M 395.165,0 H 116.835 C 107.167,0 99.301,7.866 99.301,17.534 v 125.095 c 0,4.15 3.365,7.515 7.515,7.515 4.15,0 7.515,-3.364 7.515,-7.515 V 34.977 l 25.636,41.52 c 1.369,2.217 3.789,3.567 6.394,3.567 h 219.28 c 2.606,0 5.025,-1.35 6.394,-3.567 L 397.67,34.978 v 390.93 c 0,4.15 3.364,7.515 7.515,7.515 4.151,0 7.515,-3.365 7.515,-7.515 V 17.534 C 412.699,7.866 404.833,0 395.165,0 Z M 361.448,65.035 H 150.552 L 119.677,15.029 h 272.646 z"
         id="path28"
         sodipodi:nodetypes="ssssssccssccssscsccccc" />
      <path
         d="m405.184 418.452c-4.151 0-7.515 3.364-7.515 7.515v68.499c0 1.381-1.123 2.505-2.505 2.505h-278.329c-1.381 0-2.505-1.124-2.505-2.505v-355.779c0-4.15-3.364-7.515-7.515-7.515-4.15 0-7.515 3.364-7.515 7.515v355.778c0 9.668 7.866 17.534 17.534 17.534h278.329c9.668 0 17.534-7.866 17.534-17.534v-68.499c.002-4.149-3.362-7.514-7.513-7.514z"
         id="path30" />
    </g>
  </g>
</svg>
