<svg id="Capa_1" enable-background="new 0 0 512 512" height="512" viewBox="0 0 512 512" width="512" xmlns="http://www.w3.org/2000/svg"><g><g><path d="m226 307h60v195h-60z" fill="#eefaff"/><path d="m256 10c-72.57 0-133.1 51.53-147 120v60c13.912 68.532 74.489 120 147 120 72.49 0 133.085-51.449 147-120v-60c-13.9-68.47-74.43-120-147-120z" fill="#ff7b79"/><path d="m256 70c-39.19 0-72.52 25.04-84.88 60v60c12.36 34.96 45.69 60 84.88 60s72.52-25.04 84.88-60v-60c-12.36-34.96-45.69-60-84.88-60z" fill="#eefaff"/><path d="m436 130v60c-13.647 0-331.286 0-360 0v-60z" fill="#9bc5ff"/></g><g><path d="m66 190c0 5.522 4.477 10 10 10h25.068c14.461 56.237 58.614 100.454 114.932 114.933v187.067c0 5.522 4.477 10 10 10h60c5.522 0 10-4.478 10-10v-187.06c10.025-2.582 19.798-6.127 29.139-10.61 4.979-2.39 7.079-8.362 4.689-13.342s-8.362-7.08-13.342-4.689c-18.189 8.727-38.597 13.688-60.486 13.688-62.691-.001-116.737-41.047-134.192-99.986h42.526c15.79 36.163 51.761 60 91.666 60s75.876-23.847 91.666-60.01l42.522.01c-3.09 10.385-7.369 20.382-12.816 29.828-2.759 4.784-1.116 10.899 3.668 13.658 4.81 2.774 10.914 1.09 13.658-3.668 7.221-12.523 12.666-25.885 16.251-39.818h25.051c5.522 0 10-4.478 10-10v-60c0-5.522-4.478-10-10-10h-25.055c-18.178-70.419-81.829-120.001-154.945-120.001-73.014 0-136.744 49.489-154.945 120h-25.055c-5.523 0-10 4.478-10 10zm170 128.759c6.612.824 13.303 1.241 20 1.241s13.388-.417 20-1.241v173.241h-40zm20-78.759c-28.881 0-55.183-15.608-69.291-40l138.581-.01c-14.108 24.392-40.409 40.01-69.29 40.01zm0-220c62.166 0 116.756 41.377 134.205 100h-42.54c-15.789-36.163-51.76-60-91.665-60s-75.876 23.837-91.666 60h-42.539c17.449-58.623 72.038-100 134.205-100zm69.291 100h-138.582c14.108-24.392 40.41-40 69.291-40s55.182 15.608 69.291 40zm-239.291 20h340v40c-12.27 0-317.74 0-340 0z"/><circle cx="358" cy="270" r="10"/></g></g></svg>