<?xml version="1.0" encoding="UTF-8" standalone="no"?>
<svg
   xmlns:dc="http://purl.org/dc/elements/1.1/"
   xmlns:cc="http://creativecommons.org/ns#"
   xmlns:rdf="http://www.w3.org/1999/02/22-rdf-syntax-ns#"
   xmlns:svg="http://www.w3.org/2000/svg"
   xmlns="http://www.w3.org/2000/svg"
   xmlns:sodipodi="http://sodipodi.sourceforge.net/DTD/sodipodi-0.dtd"
   xmlns:inkscape="http://www.inkscape.org/namespaces/inkscape"
   version="1.1"
   id="Capa_1"
   x="0px"
   y="0px"
   viewBox="0 0 468.797 468.797"
   style="enable-background:new 0 0 468.797 468.797;"
   xml:space="preserve"
   sodipodi:docname="longan.svg"
   inkscape:version="1.0.1 (3bc2e813f5, 2020-09-07)"><metadata
   id="metadata69"><rdf:RDF><cc:Work
       rdf:about=""><dc:format>image/svg+xml</dc:format><dc:type
         rdf:resource="http://purl.org/dc/dcmitype/StillImage" /><dc:title></dc:title></cc:Work></rdf:RDF></metadata><defs
   id="defs67" /><sodipodi:namedview
   pagecolor="#ffffff"
   bordercolor="#666666"
   borderopacity="1"
   objecttolerance="10"
   gridtolerance="10"
   guidetolerance="10"
   inkscape:pageopacity="0"
   inkscape:pageshadow="2"
   inkscape:window-width="1920"
   inkscape:window-height="986"
   id="namedview65"
   showgrid="false"
   inkscape:zoom="1.2338248"
   inkscape:cx="255.9585"
   inkscape:cy="243.04782"
   inkscape:window-x="-11"
   inkscape:window-y="-11"
   inkscape:window-maximized="1"
   inkscape:current-layer="Capa_1" />


<ellipse
   style="fill:#fff6d5;stroke:none;stroke-width:5.12133;stroke-linecap:round;stroke-linejoin:round;paint-order:markers fill stroke"
   id="path894"
   cx="356.20941"
   cy="327.03186"
   rx="101.71623"
   ry="96.042809" /><g
   id="g30"
   transform="rotate(180,350.16213,336.89417)">
	<path
   style="fill:#ffffff"
   d="m 330.397,386.856 c -43.2,-9.6 -45.6,-68 -45.6,-68.8 0,-4.8 -4,-8.8 -8.8,-8.8 v 0 c -4.8,0 -8.8,4 -8.8,9.6 v 0 c 0,3.2 3.2,72.8 60,85.6 h 2.4 c 4.8,0 8.8,-4.8 8,-9.6 -0.8,-3.2 -4,-6.4 -7.2,-8 z"
   id="path26" />
	
</g><ellipse
   style="fill:#fdbb58;stroke:none;stroke-width:5.12133;stroke-linecap:round;stroke-linejoin:round;paint-order:markers fill stroke;fill-opacity:1"
   id="path894-1"
   cx="107.79488"
   cy="321.76367"
   rx="101.71623"
   ry="96.042809" />
<path
   style="fill:#d2b48c;fill-opacity:1"
   d="M165.597,248.456c31.2,38.4,24.8,96-13.6,127.2c-32.8,26.4-80.8,26.4-113.6,0  c-3.2,23.2,40.8,45.6,69.6,45.6c49.6,0,104.8-61.6,104.8-112C211.997,280.456,185.597,242.856,165.597,248.456z"
   id="path8" />


<path
   style="fill:#fdbb58;fill-opacity:1;stroke:#000000;stroke-width:24;stroke-miterlimit:4;stroke-dasharray:none;stroke-opacity:1;paint-order:stroke markers fill"
   d="m 282.05685,298.90634 c 12.67742,-27.64204 42.68306,-41.27076 50.99691,-46.07076 28.72717,-11.04308 61.69743,-5.13692 85.50408,15.29743 6.84975,0.6641 6.60667,-9.35692 6.49949,-11.14257 -29.29949,-28.3482 -84.52614,-40.80357 -119.85998,-20.40357 -46.41895,26.8 -67.42356,100.81897 -40.62356,147.23793 1.2,2.07847 7.6,13.16358 15.88512,1.91384 -13.12153,-27.52717 -12.17231,-59.48307 1.59794,-86.8323 z"
   id="path14" />
<path
   style="fill:#ffb84a;fill-opacity:1;stroke:#000000;stroke-width:24;stroke-miterlimit:4;stroke-dasharray:none;stroke-opacity:1;paint-order:stroke markers fill"
   d="m 410.83555,257.69045 c 11.56269,14.03473 17.34404,30.28549 17.34404,47.27491 0,49.49091 -44.59897,89.37911 -99.93474,89.37911 -1.65182,0 -10.7368,-0.73867 -11.5627,-0.73867 -18.16996,-2.21602 -35.514,-8.12538 -49.55442,-17.7281 -4.12954,32.5015 47.0767,46.53623 79.28707,46.53623 55.33577,0 109.84563,-50.22958 109.84563,-99.72049 0,-25.85346 -21.47358,-72.38969 -45.42488,-65.00299 z"
   id="path16" />


<path
   style="fill:#1c1211"
   d="m 353.597,218.856 c -4,0 -8,0 -12,0.8 -8,-20.8 -27.07415,-128.597808 -84.67415,-150.197808 -54.63861,-22.030377 -11.01067,-46.041445 -45.01763,-53.744285 4.23861,27.63038 -2.40806,62.766707 1.80715,89.227453 4.8,44 -35.31537,108.31464 -47.31537,122.71464 -13.6,-8.8 -28.8,-13.6 -44,-16 h -0.8 c -60,-7.2 -113.6,35.2 -120.8,95.2 -7.2,60 35.2,113.6 95.2,120.8 60,7.2 113.6,-35.2 120.8,-95.2 4,-35.2 -8.8,-70.4 -36,-94.4 24.86122,-15.49235 58.70731,-108.59872 46.46293,-159.829272 58.4,11.2 85.53707,119.829272 95.93707,143.829272 -50.4,11.2 -84.8,51.2 -84.8,103.2 -1.6,64 48.8,116.8 112,118.4 64,1.6 116.8,-48.8 118.4,-112 v -6.4 c 0,-61.6 -48.8,-106.4 -115.2,-106.4 z m -154.4,100 c 0,49.6 -40.8,90.4 -90.4,90.4 -49.6,0 -90.4,-40.8 -90.4,-90.4 0,-49.6 40,-90.4 90.4,-90.4 v 0 h 8 c 36,11.2 -8,0 36,11.2 28,16 46.4,46.4 46.4,79.2 z m 154.4,104 c -53.6,0 -96.8,-43.2 -96.8,-96.8 0,-40 26.4,-74.4 64.8,-84 31.2,-4.8 0,0 32,-4.8 h 0.8 c 56,0 96.8,37.6 96.8,88.8 -0.8,53.6 -44,96.8 -97.6,96.8 z"
   id="path32"
   sodipodi:nodetypes="scccccccsscccccccsssssscccsssccscs" />
<g
   id="g34">
</g>
<g
   id="g36">
</g>
<g
   id="g38">
</g>
<g
   id="g40">
</g>
<g
   id="g42">
</g>
<g
   id="g44">
</g>
<g
   id="g46">
</g>
<g
   id="g48">
</g>
<g
   id="g50">
</g>
<g
   id="g52">
</g>
<g
   id="g54">
</g>
<g
   id="g56">
</g>
<g
   id="g58">
</g>
<g
   id="g60">
</g>
<g
   id="g62">
</g>
<rect
   style="fill:#1c1211;fill-opacity:1;fill-rule:evenodd;stroke-width:0.802991"
   id="rect911"
   width="13"
   height="13"
   x="91.585129"
   y="372.82443" /><rect
   style="fill:#1c1211;fill-opacity:1;fill-rule:evenodd;stroke-width:0.802991"
   id="rect911-8"
   width="13"
   height="13"
   x="63.201958"
   y="351.73563" /><rect
   style="fill:#1c1211;fill-opacity:1;fill-rule:evenodd;stroke-width:0.802991"
   id="rect911-1"
   width="13"
   height="13"
   x="104.58513"
   y="359.82443" /></svg>
