<?xml version="1.0" encoding="UTF-8" standalone="no"?>
<svg
   xmlns:dc="http://purl.org/dc/elements/1.1/"
   xmlns:cc="http://creativecommons.org/ns#"
   xmlns:rdf="http://www.w3.org/1999/02/22-rdf-syntax-ns#"
   xmlns:svg="http://www.w3.org/2000/svg"
   xmlns="http://www.w3.org/2000/svg"
   xmlns:sodipodi="http://sodipodi.sourceforge.net/DTD/sodipodi-0.dtd"
   xmlns:inkscape="http://www.inkscape.org/namespaces/inkscape"
   id="Capa_1"
   enable-background="new 0 0 512 512"
   height="512"
   viewBox="0 0 512 512"
   width="512"
   version="1.1"
   sodipodi:docname="lord_of_the_rings_elf.svg"
   inkscape:version="1.0.2 (e86c870879, 2021-01-15, custom)">
  <metadata
     id="metadata13">
    <rdf:RDF>
      <cc:Work
         rdf:about="">
        <dc:format>image/svg+xml</dc:format>
        <dc:type
           rdf:resource="http://purl.org/dc/dcmitype/StillImage" />
        <dc:title></dc:title>
      </cc:Work>
    </rdf:RDF>
  </metadata>
  <defs
     id="defs11" />
  <sodipodi:namedview
     pagecolor="#ffffff"
     bordercolor="#666666"
     borderopacity="1"
     objecttolerance="10"
     gridtolerance="10"
     guidetolerance="10"
     inkscape:pageopacity="0"
     inkscape:pageshadow="2"
     inkscape:window-width="1920"
     inkscape:window-height="986"
     id="namedview9"
     showgrid="false"
     inkscape:zoom="1.1297136"
     inkscape:cx="370.13242"
     inkscape:cy="275.62114"
     inkscape:window-x="-11"
     inkscape:window-y="-11"
     inkscape:window-maximized="1"
     inkscape:current-layer="Capa_1"
     inkscape:document-rotation="0" />
  <g
     id="g44"
     transform="matrix(0.89169135,0,0,0.89169135,27.727014,27.727014)">
    <g
       id="g4">
      <path
         d="M 100.124,128.174 H 48.742 v 1.12 c 17.845,4.263 31.116,20.304 31.116,39.455 v 36.035 c 0,22.409 18.166,40.575 40.575,40.575 h 20.266 v -76.61 c 0,-22.409 -18.166,-40.575 -40.575,-40.575 z"
         fill="#ffccbd"
         id="path2-3" />
    </g>
    <g
       id="g8">
      <path
         d="m 411.876,128.174 h 51.382 v 1.12 c -17.845,4.263 -31.116,20.304 -31.116,39.455 v 36.035 c 0,22.409 -18.166,40.575 -40.575,40.575 h -20.266 v -76.61 c 0,-22.409 18.166,-40.575 40.575,-40.575 z"
         fill="#ffbda9"
         id="path6" />
    </g>
    <g
       id="g14">
      <path
         d="M 133.523,207.771 V 429.386 H 303.285 V 144.532 Z"
         fill="#fddc65"
         id="path10" />
      <path
         d="M 378.477,207.771 256,144.532 v 284.854 l 122.477,10e-4 z"
         fill="#fcb365"
         id="path12" />
    </g>
    <g
       id="g26">
      <path
         d="M 195.456,358.374 102.8,379.864 C 65.815,388.442 37.867,418.81 32.383,456.378 L 24.263,512 H 256 l 33.732,-153.626 z"
         fill="#71cea1"
         id="path16" />
      <path
         d="M 479.617,456.379 C 474.132,418.811 446.184,388.443 409.2,379.865 l -92.656,-21.49 H 256 V 512 h 231.737 z"
         fill="#00959b"
         id="path18" />
      <g
         id="g24">
        <path
           d="m 195.456,304.897 v 53.477 L 256,447.254 293.092,304.897 Z"
           fill="#ffccbd"
           id="path20" />
        <path
           d="m 256,304.897 v 142.357 l 60.544,-88.88 v -53.477 z"
           fill="#ffbda9"
           id="path22" />
      </g>
    </g>
    <g
       id="g32">
      <path
         d="M 256,37.849 133.523,155.482 v 52.289 c 0,67.642 54.835,122.477 122.477,122.477 l 52.721,-100.777 z"
         fill="#ffddce"
         id="path28" />
      <path
         d="m 256,37.849 v 292.399 c 67.642,0 122.477,-54.835 122.477,-122.477 v -52.289 z"
         fill="#ffccbd"
         id="path30" />
    </g>
    <path
       d="M 256,0 C 188.358,0 133.523,54.835 133.523,122.477 v 33.005 l 75.306,-22.673 11.452,13.181 c 8.987,10.344 22.017,16.285 35.72,16.285 l 30.272,-71.424 z"
       fill="#fddc65"
       id="path34" />
    <path
       d="m 291.72,145.99 11.452,-13.181 75.306,22.673 V 122.477 C 378.477,54.835 323.642,0 256,0 v 162.275 c 13.703,0 26.733,-5.94 35.72,-16.285 z"
       fill="#fcb365"
       id="path36" />
    <g
       id="g42">
      <path
         d="m 231.692,256.959 v 30 H 256 l 12.154,-15 -12.154,-15 z"
         fill="#eb806b"
         id="path38" />
      <path
         d="m 256,256.959 h 24.308 v 30 H 256 Z"
         fill="#c4715a"
         id="path40" />
    </g>
  </g>
  <g
     id="g6"
     transform="matrix(0.89169135,0,0,0.89169135,27.72746,27.727014)">
    <path
       d="m 481.357,442.471 c -2.971,-20.351 -11.903,-39.107 -25.831,-54.24 -13.928,-15.134 -31.879,-25.589 -51.914,-30.236 L 386.3,353.98 v -93.621 h 5.266 c 30.644,0 55.575,-24.931 55.575,-55.575 v -36.035 c 0,-14.102 11.473,-25.575 25.575,-25.575 v -30 h -60.84 c -9.394,0 -18.245,2.351 -26.012,6.483 C 380.43,52.769 324.264,0 256,0 187.736,0 131.57,52.769 126.136,119.657 c -7.766,-4.132 -16.618,-6.483 -26.012,-6.483 h -60.84 v 30 c 14.102,0 25.574,11.473 25.574,25.575 v 36.035 c 0,30.644 24.931,55.575 55.575,55.575 h 5.266 v 93.621 l -17.312,4.015 C 88.352,362.642 70.4,373.097 56.472,388.231 42.545,403.364 33.613,422.12 30.641,442.471 L 20.492,512 H 491.507 Z M 327.996,340.456 v -21.312 c 10.632,-7.075 20.172,-15.665 28.304,-25.466 V 347.02 Z M 256,409.699 214.003,349.046 v -15.094 c 13.183,4.5 27.309,6.946 41.997,6.946 14.688,0 28.814,-2.445 41.997,-6.946 v 15.094 z M 155.699,168.749 v -4.278 l 48.167,-14.502 5.09,5.859 c 11.841,13.63 28.988,21.447 47.043,21.447 18.055,0 35.202,-7.817 47.043,-21.447 l 5.091,-5.86 48.167,14.502 v 4.278 41.848 c 0,55.306 -44.995,100.301 -100.301,100.301 -55.306,0 -100.301,-44.995 -100.301,-100.301 v -41.847 z m 256.176,-25.576 h 11.508 c -3.987,7.66 -6.242,16.36 -6.242,25.575 v 36.035 c 0,14.102 -11.473,25.575 -25.575,25.575 h -6.762 c 0.985,-6.446 1.496,-13.045 1.496,-19.761 v -41.848 c 10e-4,-14.103 11.473,-25.576 25.575,-25.576 z M 256,30 c 55.306,0 100.301,44.995 100.301,100.301 v 2.839 l -58.092,-17.49 -17.813,20.503 c -6.141,7.068 -15.033,11.122 -24.396,11.122 -9.363,0 -18.255,-4.054 -24.396,-11.123 l -17.813,-20.502 -58.092,17.49 v -2.839 C 155.699,74.995 200.694,30 256,30 Z M 94.858,204.783 v -36.035 c 0,-9.215 -2.255,-17.916 -6.242,-25.575 h 11.508 c 14.102,0 25.575,11.473 25.575,25.575 v 41.848 c 0,6.717 0.511,13.316 1.496,19.761 h -6.762 c -14.102,0.001 -25.575,-11.472 -25.575,-25.574 z m 60.841,88.896 c 8.132,9.801 17.672,18.391 28.304,25.466 v 21.312 l -28.304,6.565 z M 60.328,446.805 C 64.63,417.336 86.155,393.948 115.166,387.22 L 191.661,369.478 241,440.734 V 482 H 55.19 Z M 271,482 v -41.266 l 49.339,-71.258 76.495,17.742 c 29.011,6.728 50.536,30.117 54.837,59.585 L 456.809,482 Z"
       id="path2" />
  </g>
</svg>
