<?xml version="1.0" encoding="UTF-8" standalone="no"?>
<svg
   xmlns:dc="http://purl.org/dc/elements/1.1/"
   xmlns:cc="http://creativecommons.org/ns#"
   xmlns:rdf="http://www.w3.org/1999/02/22-rdf-syntax-ns#"
   xmlns:svg="http://www.w3.org/2000/svg"
   xmlns="http://www.w3.org/2000/svg"
   xmlns:sodipodi="http://sodipodi.sourceforge.net/DTD/sodipodi-0.dtd"
   xmlns:inkscape="http://www.inkscape.org/namespaces/inkscape"
   version="1.1"
   id="Layer_1"
   x="0px"
   y="0px"
   viewBox="0 0 511.996 511.996"
   style="enable-background:new 0 0 511.996 511.996;"
   xml:space="preserve"
   sodipodi:docname="lord_of_the_rings_ring.svg"
   inkscape:version="1.0.2 (e86c870879, 2021-01-15, custom)"><metadata
   id="metadata71"><rdf:RDF><cc:Work
       rdf:about=""><dc:format>image/svg+xml</dc:format><dc:type
         rdf:resource="http://purl.org/dc/dcmitype/StillImage" /><dc:title></dc:title></cc:Work></rdf:RDF></metadata><defs
   id="defs69" /><sodipodi:namedview
   pagecolor="#ffffff"
   bordercolor="#666666"
   borderopacity="1"
   objecttolerance="10"
   gridtolerance="10"
   guidetolerance="10"
   inkscape:pageopacity="0"
   inkscape:pageshadow="2"
   inkscape:window-width="1920"
   inkscape:window-height="986"
   id="namedview67"
   showgrid="false"
   inkscape:zoom="0.79883436"
   inkscape:cx="29.850265"
   inkscape:cy="271.47311"
   inkscape:window-x="-11"
   inkscape:window-y="-11"
   inkscape:window-maximized="1"
   inkscape:current-layer="Layer_1" />
<polygon
   style="fill:#FFCE54;"
   points="426.652,126.843 399.669,90.671 360.341,58.671 329.889,42.671 226.342,104.015   144.343,184.67 31.999,334.669 48.343,373.34 118.999,447.996 144.999,442.012 225.67,393.34 315.67,320.669 405.324,213.342   436.34,142.015 "
   id="polygon2" />









<path
   d="M229.81,348.355c-9.453-8.233-18.906-8.452-24.546-8.577c-0.859,0-1.922-0.031-2.703-0.094  c-0.203-0.531-0.484-1.406-0.766-2.766c-0.688-3.297,0.094-5.797,2.156-6.859c1.922-1,5.203-0.75,8.672,2.953  c4.016,4.312,10.765,4.547,15.078,0.516c4.297-4.016,4.531-10.766,0.516-15.078c-9.562-10.234-22.937-13.109-34.078-7.328  c-10.703,5.531-15.891,17.375-13.234,30.156c4.047,19.405,16.953,19.687,23.891,19.843c4.438,0.094,7.359,0.156,10.984,3.312  c2.031,1.766,4.531,2.625,7.015,2.625c2.969,0,5.938-1.234,8.047-3.656C234.701,358.965,234.248,352.23,229.81,348.355z"
   id="path22" />
<path
   d="M281.186,295.278c-0.016,0-1.969-0.281-3.719-1.219c-1.734-0.938-2.281-1.828-2.281-3.812  c-0.031-17.171-13.844-24.499-23.938-25.53c-0.438-0.062-0.891-0.094-1.344-0.094c-0.016,0-0.047,0-0.078-0.016v0.016  c-0.016,0-0.016-0.016-0.016-0.016c-5.891,0-10.672,4.781-10.672,10.672c0,5.577,4.281,10.155,9.75,10.624v0.016l-0.172-0.016  c0.547,0.062,2.25,0.344,3.594,1.125c0.906,0.531,1.531,1.062,1.547,3.266c0.031,17.703,15.312,25.391,25.578,26.234  c0.297,0.031,0.594,0.047,0.891,0.047c5.484,0,10.156-4.219,10.609-9.797C291.436,300.903,287.06,295.763,281.186,295.278z"
   id="path24" />
<path
   d="M171.405,378.371c-1.594-1.844-3.469-3.891-5.5-5.969c-9.969-10.141-18.765-15.625-26.859-16.781  c-5.641-0.812-10.922,0.5-15.234,3.797s-6.984,8.016-7.703,13.672c-1.578,12.312,7.031,27.844,13.328,37.281  c-1.562,3.469-1.219,7.641,1.234,10.859c2.094,2.766,5.281,4.203,8.484,4.203c2.266,0,4.531-0.703,6.469-2.172l4.234-3.234  c2.266-1.719,3.75-4.297,4.125-7.125c0.359-2.844-0.438-5.688-2.188-7.938c-0.047-0.062-4.594-5.875-8.703-13.156  c-4.359-7.688-5.625-12.453-5.844-14.75c2.141,0.812,6.344,3.25,12.516,9.375c5.953,5.906,10.5,12,10.546,12.047  c1.688,2.297,4.25,3.812,7.062,4.219c2.828,0.391,5.703-0.359,7.969-2.078l4.25-3.234c4.688-3.578,5.594-10.266,2.016-14.953  C179.139,379.199,175.17,377.762,171.405,378.371z"
   id="path26" />
<path
   d="M329.42,192.998c-4.172-4.156-10.922-4.156-15.078,0l-3.781,3.781c-2.016,2.016-3.141,4.75-3.125,7.609  c0.031,2.859,1.188,5.578,3.234,7.578c0.062,0.047,5.328,5.203,10.391,11.859c5.344,7.047,7.234,11.578,7.766,13.828  c-2.234-0.5-6.719-2.375-13.656-7.594c-6.703-5.062-12.016-10.484-12.062-10.531c-2-2.047-4.719-3.219-7.578-3.234  s-5.594,1.109-7.609,3.125l-3.781,3.766c-4.156,4.172-4.156,10.938,0,15.094c2.891,2.875,7.016,3.766,10.656,2.656  c1.844,1.625,3.969,3.406,6.266,5.188c11.234,8.719,20.688,12.969,28.859,13.031c0.062,0,0.109,0,0.172,0  c5.625,0,10.609-2,14.405-5.812c3.844-3.844,5.859-8.875,5.812-14.594c-0.094-12.391-10.702-26.625-18.202-35.156  C333.186,199.967,332.295,195.873,329.42,192.998z"
   id="path28" />
<path
   d="M405.809,148.061l-11.843-6.125c-0.125-0.062-0.25-0.125-0.375-0.188l-26.609-13.719c-4.219-2.188-9.375-1.312-12.641,2.125  c-1.281,1.375-12.578,13.781-11.859,30.905c0.453,10.938,5.594,20.844,15.25,29.438c1.969,1.75,4.5,2.703,7.094,2.703  c0.328,0,0.672-0.016,1-0.047c2.938-0.281,5.641-1.75,7.453-4.094l18.625-24.156l4.125,2.125c5.234,2.688,11.671,0.641,14.374-4.594  S411.043,150.765,405.809,148.061z M364.825,165.076c-0.609-1.562-0.938-3.156-1.016-4.766c-0.172-3.297,0.719-6.39,1.875-8.937  l6.953,3.578L364.825,165.076z"
   id="path30" />
<path
   d="M443.277,154.655c4.719-16.906,3.047-29.531-4.969-37.547l-75.42-75.422c-5.031-5.031-11.969-7.594-20.609-7.594  c-23.499,0-57.515,19.781-81.921,36.375c-34.266,23.297-71.843,55.078-108.655,91.905c-42.891,42.875-79.281,87.266-102.5,124.983  c-11.609,18.859-19.39,35.234-23.14,48.656c-4.734,16.89-3.062,29.515,4.953,37.546l75.421,75.406  c5.047,5.047,11.984,7.594,20.625,7.594c23.5,0,57.515-19.781,81.906-36.359c34.281-23.297,71.843-55.078,108.671-91.905  c42.874-42.875,79.265-87.265,102.482-124.983C431.73,184.436,439.512,168.076,443.277,154.655z M46.609,341.746  c3.172-11.343,10.344-26.28,20.766-43.202c22.375-36.358,57.671-79.358,99.405-121.093c35.375-35.374,72.875-67.108,105.578-89.343  c43.375-29.484,63.344-32.672,69.921-32.672c2.656,0,4.672,0.484,5.531,1.344c1.203,1.203,2.469,6.094-0.5,16.703  c-3.188,11.344-10.358,26.297-20.78,43.203c-22.359,36.359-57.672,79.374-99.406,121.093  c-35.375,35.375-72.874,67.124-105.577,89.358c-43.359,29.483-63.328,32.671-69.906,32.671l0,0c-2.672,0-4.688-0.5-5.531-1.344  C44.89,357.246,43.64,352.371,46.609,341.746z M302.545,313.216c-35.375,35.374-72.859,67.093-105.562,89.343  c-43.375,29.484-63.359,32.672-69.921,32.672c-2.672,0-4.688-0.484-5.531-1.344l-54.89-54.891  c21.547-5.547,47.328-20.906,66.906-34.219c34.265-23.312,71.843-55.093,108.655-91.904  c42.891-42.875,79.281-87.266,102.499-124.999c11.609-18.844,19.391-35.219,23.141-48.656c0.188-0.641,0.344-1.266,0.5-1.906  l54.89,54.875c1.203,1.219,2.469,6.094-0.5,16.719c-3.172,11.343-10.359,26.296-20.765,43.218  C379.591,228.467,344.278,271.467,302.545,313.216z"
   id="path32" />
<path
   d="M74.687,340.56c1.562,0,3.141-0.344,4.609-1.062c10.844-5.188,23.812-12.859,37.468-22.156  c31.766-21.625,68.281-52.562,102.812-87.093s65.469-71.047,87.094-102.812c9.297-13.672,16.969-26.625,22.172-37.469  c1.953-4.094,1.125-8.953-2.078-12.156s-8.078-4.031-12.156-2.078c-10.844,5.203-23.797,12.859-37.469,22.172  c-31.766,21.624-68.281,52.562-102.812,87.092c-34.531,34.531-65.453,71.031-87.093,102.812  c-9.297,13.656-16.969,26.625-22.172,37.469c-1.953,4.078-1.109,8.938,2.078,12.156C69.187,339.466,71.921,340.56,74.687,340.56z   M189.405,200.076c33.5-33.484,68.781-63.421,99.406-84.296c-20.906,30.609-50.828,65.89-84.312,99.374  c-33.5,33.5-68.781,63.422-99.39,84.312C125.999,268.842,155.92,233.56,189.405,200.076z"
   id="path34" />
<g
   id="g36">
</g>
<g
   id="g38">
</g>
<g
   id="g40">
</g>
<g
   id="g42">
</g>
<g
   id="g44">
</g>
<g
   id="g46">
</g>
<g
   id="g48">
</g>
<g
   id="g50">
</g>
<g
   id="g52">
</g>
<g
   id="g54">
</g>
<g
   id="g56">
</g>
<g
   id="g58">
</g>
<g
   id="g60">
</g>
<g
   id="g62">
</g>
<g
   id="g64">
</g>
</svg>
