<?xml version="1.0" encoding="UTF-8" standalone="no"?>
<svg
   xmlns:dc="http://purl.org/dc/elements/1.1/"
   xmlns:cc="http://creativecommons.org/ns#"
   xmlns:rdf="http://www.w3.org/1999/02/22-rdf-syntax-ns#"
   xmlns:svg="http://www.w3.org/2000/svg"
   xmlns="http://www.w3.org/2000/svg"
   xmlns:sodipodi="http://sodipodi.sourceforge.net/DTD/sodipodi-0.dtd"
   xmlns:inkscape="http://www.inkscape.org/namespaces/inkscape"
   height="496pt"
   viewBox="-8 0 496 496"
   width="496pt"
   version="1.1"
   id="svg98"
   sodipodi:docname="macau_saint_paul.svg"
   inkscape:version="0.92.4 (5da689c313, 2019-01-14)">
  <metadata
     id="metadata104">
    <rdf:RDF>
      <cc:Work
         rdf:about="">
        <dc:format>image/svg+xml</dc:format>
        <dc:type
           rdf:resource="http://purl.org/dc/dcmitype/StillImage" />
      </cc:Work>
    </rdf:RDF>
  </metadata>
  <defs
     id="defs102" />
  <sodipodi:namedview
     pagecolor="#ffffff"
     bordercolor="#666666"
     borderopacity="1"
     objecttolerance="10"
     gridtolerance="10"
     guidetolerance="10"
     inkscape:pageopacity="0"
     inkscape:pageshadow="2"
     inkscape:window-width="1920"
     inkscape:window-height="986"
     id="namedview100"
     showgrid="false"
     inkscape:zoom="0.35685484"
     inkscape:cx="1.4011299"
     inkscape:cy="330.66667"
     inkscape:window-x="-11"
     inkscape:window-y="-11"
     inkscape:window-maximized="1"
     inkscape:current-layer="svg98" />
  <path
     d="m 255.2,15.2 h -7.6 V 7.6 C 247.6,3.402929 244.19707,0 240,0 c -4.19707,0 -7.6,3.402929 -7.6,7.6 v 7.6 h -7.6 c -4.19707,0 -7.6,3.402929 -7.6,7.6 0,4.197071 3.40293,7.6 7.6,7.6 h 7.6 v 30.4 c 0,4.197071 3.40293,7.6 7.6,7.6 4.19707,0 7.6,-3.402929 7.6,-7.6 V 30.4 h 7.6 c 4.19707,0 7.6,-3.402929 7.6,-7.6 0,-4.197071 -3.40293,-7.6 -7.6,-7.6 z m 0,0"
     id="path2"
     inkscape:connector-curvature="0"
     style="fill:#6a5949;stroke-width:0.94999999" />
  <path
     d="m 224.8,30.4 h 7.6 V 53.2 H 240 V 22.8 h -22.8 c 0,4.197071 3.40293,7.6 7.6,7.6 z m 0,0"
     id="path4"
     inkscape:connector-curvature="0"
     style="fill:#5d4e40;stroke-width:0.94999999" />
  <path
     d="m 110.8,174.8 c -4.19707,0 -7.6,-3.40293 -7.6,-7.6 v -38 c 0,-4.19707 3.40293,-7.6 7.6,-7.6 4.19707,0 7.6,3.40293 7.6,7.6 v 38 c 0,4.19707 -3.40293,7.6 -7.6,7.6 z m 0,0"
     id="path6"
     inkscape:connector-curvature="0"
     style="fill:#746250;stroke-width:0.94999999" />
  <path
     d="m 376.8,174.8 c -4.19707,0 -7.6,-3.40293 -7.6,-7.6 v -38 c 0,-4.19707 3.40293,-7.6 7.6,-7.6 4.19707,0 7.6,3.40293 7.6,7.6 v 38 c 0,4.19707 -3.40293,7.6 -7.6,7.6 z m 0,0"
     id="path8"
     inkscape:connector-curvature="0"
     style="fill:#746250;stroke-width:0.94999999" />
  <path
     d="M 50,463.6 V 174.8 L 156.4,144.4 H 323.6 L 430,174.8 v 288.8 z m 0,0"
     id="path10"
     inkscape:connector-curvature="0"
     style="fill:#b69b88;stroke-width:0.94999999" />
  <path
     d="m 186.8,91.2 -9.55195,23.8873 C 173.8377,123.61133 165.58086,129.2 156.4,129.2 v 76 h 167.2 v -76 c -9.18086,0 -17.4377,-5.58867 -20.84805,-14.1127 L 293.2,91.2 Z m 0,0"
     id="path12"
     inkscape:connector-curvature="0"
     style="fill:#b49a86;stroke-width:0.94999999" />
  <path
     d="m 323.6,144.4 106.4,30.4 15.2,-7.6 15.2,7.6 v 30.4 H 323.6 Z m 0,0"
     id="path14"
     inkscape:connector-curvature="0"
     style="fill:#816d58;stroke-width:0.94999999" />
  <path
     d="m 460.4,174.8 -15.2,-7.6 -15.2,7.6 -91.2,-26.06191 V 190 h 121.6 z m 0,0"
     id="path16"
     inkscape:connector-curvature="0"
     style="fill:#8d7761;stroke-width:0.94999999" />
  <path
     d="M 156.4,144.4 50,174.8 34.8,167.2 19.6,174.8 v 30.4 h 136.8 z m 0,0"
     id="path18"
     inkscape:connector-curvature="0"
     style="fill:#816d58;stroke-width:0.94999999" />
  <path
     d="M 19.6,174.8 V 190 H 141.2 V 148.73809 L 50,174.8 34.8,167.2 Z m 0,0"
     id="path20"
     inkscape:connector-curvature="0"
     style="fill:#8d7761;stroke-width:0.94999999" />
  <path
     d="m 50,349.6 h 380 v 15.2 H 50 Z m 0,0"
     id="path22"
     inkscape:connector-curvature="0"
     style="fill:#998372;stroke-width:0.94999999" />
  <path
     d="m 19.6,326.8 h 440.8 v 30.4 H 19.6 Z m 0,0"
     id="path24"
     inkscape:connector-curvature="0"
     style="fill:#ac9380;stroke-width:0.94999999" />
  <path
     d="M 19.6,205.2 H 50 V 463.6 H 19.6 Z m 0,0"
     id="path26"
     inkscape:connector-curvature="0"
     style="fill:#9a826a;stroke-width:0.94999999" />
  <path
     d="M 34.8,205.2 H 50 V 463.6 H 34.8 Z m 0,0"
     id="path28"
     inkscape:connector-curvature="0"
     style="fill:#917b64;stroke-width:0.94999999" />
  <path
     d="m 430,205.2 h 30.4 V 463.6 H 430 Z m 0,0"
     id="path30"
     inkscape:connector-curvature="0"
     style="fill:#9a826a;stroke-width:0.94999999" />
  <path
     d="m 110.8,266 c 8.39414,0 15.2,6.80586 15.2,15.2 v 45.6 H 95.6 v -45.6 c 0,-8.39414 6.80586,-15.2 15.2,-15.2 z m 0,0"
     id="path32"
     inkscape:connector-curvature="0"
     style="fill:#766452;stroke-width:0.94999999" />
  <path
     d="m 114.6,266.53809 c -6.69082,1.72929 -11.37402,7.75214 -11.4,14.66191 v 45.6 H 126 v -45.6 c -0.026,-6.90977 -4.70918,-12.93262 -11.4,-14.66191 z m 0,0"
     id="path34"
     inkscape:connector-curvature="0"
     style="fill:#d9d9d9;stroke-width:0.94999999" />
  <path
     d="m 240,235.6 c 12.59121,0 22.8,10.20879 22.8,22.8 v 68.4 h -45.6 v -68.4 c 0,-12.59121 10.20879,-22.8 22.8,-22.8 z m 0,0"
     id="path36"
     inkscape:connector-curvature="0"
     style="fill:#766452;stroke-width:0.94999999" />
  <path
     d="m 243.8,235.97852 c -10.94727,1.85175 -18.97031,11.31836 -19,22.42148 v 68.4 h 38 v -68.4 c -0.0297,-11.10312 -8.05273,-20.56973 -19,-22.42148 z m 0,0"
     id="path38"
     inkscape:connector-curvature="0"
     style="fill:#d9d9d9;stroke-width:0.94999999" />
  <path
     d="m 217.2,387.6 h 45.6 v 76 h -45.6 z m 0,0"
     id="path40"
     inkscape:connector-curvature="0"
     style="fill:#766452;stroke-width:0.94999999" />
  <path
     d="m 224.8,395.2 h 38 v 68.4 h -38 z m 0,0"
     id="path42"
     inkscape:connector-curvature="0"
     style="fill:#d9d9d9;stroke-width:0.94999999" />
  <path
     d="m 354,402.8 h 45.6 v 60.8 H 354 Z m 0,0"
     id="path44"
     inkscape:connector-curvature="0"
     style="fill:#766452;stroke-width:0.94999999" />
  <path
     d="m 361.6,410.4 h 38 v 53.2 h -38 z m 0,0"
     id="path46"
     inkscape:connector-curvature="0"
     style="fill:#d9d9d9;stroke-width:0.94999999" />
  <path
     d="M 126,463.6 H 80.4 V 402.8 H 126 Z m 0,0"
     id="path48"
     inkscape:connector-curvature="0"
     style="fill:#766452;stroke-width:0.94999999" />
  <path
     d="M 126,463.6 H 88 v -53.2 h 38 z m 0,0"
     id="path50"
     inkscape:connector-curvature="0"
     style="fill:#d9d9d9;stroke-width:0.94999999" />
  <path
     d="m 240,45.6 -53.2,45.6 h 106.4 z m 0,0"
     id="path52"
     inkscape:connector-curvature="0"
     style="fill:#836f5b;stroke-width:0.94999999" />
  <path
     d="m 262.8,205.2 h -45.6 v -30.4 c 0,-12.59121 10.20879,-22.8 22.8,-22.8 12.59121,0 22.8,10.20879 22.8,22.8 z m 0,0"
     id="path54"
     inkscape:connector-curvature="0"
     style="fill:#766452;stroke-width:0.94999999" />
  <path
     d="m 243.8,152.37852 c -10.94727,1.85175 -18.97031,11.31836 -19,22.42148 v 30.4 h 38 v -30.4 c -0.0297,-11.10312 -8.05273,-20.56973 -19,-22.42148 z m 0,0"
     id="path56"
     inkscape:connector-curvature="0"
     style="fill:#8d7761;stroke-width:0.94999999" />
  <path
     d="m 50,205.2 h 380 v 30.4 H 50 Z m 0,0"
     id="path58"
     inkscape:connector-curvature="0"
     style="fill:#ac9380;stroke-width:0.94999999" />
  <path
     d="m 50,205.2 h 380 v 15.2 H 50 Z m 0,0"
     id="path60"
     inkscape:connector-curvature="0"
     style="fill:#998372;stroke-width:0.94999999" />
  <path
     d="m 186.8,114 h 106.4 v 15.2 H 186.8 Z m 0,0"
     id="path62"
     inkscape:connector-curvature="0"
     style="fill:#a48c7a;stroke-width:0.94999999" />
  <path
     d="m 186.8,91.2 h 106.4 v 30.4 H 186.8 Z m 0,0"
     id="path64"
     inkscape:connector-curvature="0"
     style="fill:#8d7761;stroke-width:0.94999999" />
  <path
     d="M 302.75195,115.0873 296.23926,98.8 H 293.2 v 106.4 h 15.2 v -81.92637 c -2.47148,-2.27109 -4.40117,-5.06914 -5.64805,-8.18633 z m 0,0"
     id="path66"
     inkscape:connector-curvature="0"
     style="fill:#a48c7a;stroke-width:0.94999999" />
  <path
     d="m 300.8,53.2 c 0,-4.197071 -3.40293,-7.6 -7.6,-7.6 -4.19707,0 -7.6,3.402929 -7.6,7.6 v 410.4 h 15.2 z m 0,0"
     id="path68"
     inkscape:connector-curvature="0"
     style="fill:#746250;stroke-width:0.94999999" />
  <path
     d="m 331.2,91.2 c 0,-4.197071 -3.40293,-7.6 -7.6,-7.6 -4.19707,0 -7.6,3.402929 -7.6,7.6 v 372.4 h 15.2 z m 0,0"
     id="path70"
     inkscape:connector-curvature="0"
     style="fill:#746250;stroke-width:0.94999999" />
  <path
     d="m 430,205.2 h 15.2 V 463.6 H 430 Z m 0,0"
     id="path72"
     inkscape:connector-curvature="0"
     style="fill:#917b64;stroke-width:0.94999999" />
  <g
     id="g84"
     transform="matrix(0.95,0,0,0.95,12,0)"
     style="fill:#746250">
    <path
       d="m 448,152 c 0,-4.41797 -3.58203,-8 -8,-8 -4.41797,0 -8,3.58203 -8,8 v 336 h 16 z m 0,0"
       id="path74"
       inkscape:connector-curvature="0" />
    <path
       d="m 472,144 c -4.41797,0 -8,3.58203 -8,8 v 336 h 16 V 152 c 0,-4.41797 -3.58203,-8 -8,-8 z m 0,0"
       id="path76"
       inkscape:connector-curvature="0" />
    <path
       d="m 48,152 c 0,-4.41797 -3.582031,-8 -8,-8 -4.417969,0 -8,3.58203 -8,8 v 336 h 16 z m 0,0"
       id="path78"
       inkscape:connector-curvature="0" />
    <path
       d="m 16,152 c 0,-4.41797 -3.582031,-8 -8,-8 -4.417969,0 -8,3.58203 -8,8 v 336 h 16 z m 0,0"
       id="path80"
       inkscape:connector-curvature="0" />
    <path
       d="m 160,96 c 0,-4.417969 -3.58203,-8 -8,-8 -4.41797,0 -8,3.582031 -8,8 v 392 h 16 z m 0,0"
       id="path82"
       inkscape:connector-curvature="0" />
  </g>
  <path
     d="m 180.72148,106.4 -3.47343,8.6873 c -1.24688,3.11719 -3.17657,5.91524 -5.64805,8.18633 V 205.2 h 15.2 v -98.8 z m 0,0"
     id="path86"
     inkscape:connector-curvature="0"
     style="fill:#a48c7a;stroke-width:0.94999999" />
  <path
     d="m 194.4,53.2 c 0,-4.197071 -3.40293,-7.6 -7.6,-7.6 -4.19707,0 -7.6,3.402929 -7.6,7.6 v 410.4 h 15.2 z m 0,0"
     id="path88"
     inkscape:connector-curvature="0"
     style="fill:#746250;stroke-width:0.94999999" />
  <path
     d="m 12,197.6 h 456 v 15.2 H 12 Z m 0,0"
     id="path90"
     inkscape:connector-curvature="0"
     style="fill:#746250;stroke-width:0.94999999" />
  <path
     d="m 376.8,266 c 8.39414,0 15.2,6.80586 15.2,15.2 v 45.6 h -30.4 v -45.6 c 0,-8.39414 6.80586,-15.2 15.2,-15.2 z m 0,0"
     id="path92"
     inkscape:connector-curvature="0"
     style="fill:#766452;stroke-width:0.94999999" />
  <path
     d="m 380.6,266.53809 c -6.69082,1.72929 -11.37402,7.75214 -11.4,14.66191 v 45.6 H 392 v -45.6 c -0.026,-6.90977 -4.70918,-12.93262 -11.4,-14.66191 z m 0,0"
     id="path94"
     inkscape:connector-curvature="0"
     style="fill:#d9d9d9;stroke-width:0.94999999" />
  <path
     d="m 460.4,136.8 c -4.19707,0 -7.6,3.40293 -7.6,7.6 v 18.10195 l -4.20449,-2.1041 c -2.1375,-1.06875 -4.65352,-1.06875 -6.79102,0 L 437.6,162.50195 V 144.4 c 0,-4.19707 -3.40293,-7.6 -7.6,-7.6 -4.19707,0 -7.6,3.40293 -7.6,7.6 v 20.32109 L 384.04375,153.7627 c 0.19297,-0.57149 0.31172,-1.16153 0.35625,-1.7627 v -22.8 c 0,-4.19707 -3.40293,-7.6 -7.6,-7.6 -4.19707,0 -7.6,3.40293 -7.6,7.6 v 20.32109 l -38,-10.85078 V 91.2 c 0,-4.197071 -3.40293,-7.6 -7.6,-7.6 -4.19707,0 -7.6,3.402929 -7.6,7.6 v 28.21055 c -2.79434,-1.63653 -4.96895,-4.14883 -6.18613,-7.15098 L 300.8,89.73418 V 53.2 c 0,-4.197071 -3.40293,-7.6 -7.6,-7.6 -4.19707,0 -7.6,3.402929 -7.6,7.6 v 21.478906 l -38,-32.57461 V 30.4 h 7.6 c 4.19707,0 7.6,-3.402929 7.6,-7.6 0,-4.197071 -3.40293,-7.6 -7.6,-7.6 h -7.6 V 7.6 C 247.6,3.402929 244.19707,0 240,0 c -4.19707,0 -7.6,3.402929 -7.6,7.6 v 7.6 h -7.6 c -4.19707,0 -7.6,3.402929 -7.6,7.6 0,4.197071 3.40293,7.6 7.6,7.6 h 7.6 v 11.704296 l -38,32.57461 V 53.2 c 0,-4.197071 -3.40293,-7.6 -7.6,-7.6 -4.19707,0 -7.6,3.402929 -7.6,7.6 v 36.53418 l -9.01387,22.52539 c -1.21718,3.00215 -3.39179,5.51445 -6.18613,7.15098 V 91.2 c 0,-4.197071 -3.40293,-7.6 -7.6,-7.6 -4.19707,0 -7.6,3.402929 -7.6,7.6 v 47.47031 l -30.4,8.68731 V 129.2 c 0,-4.19707 -3.40293,-7.6 -7.6,-7.6 -4.19707,0 -7.6,3.40293 -7.6,7.6 v 22.4957 L 57.6,164.72109 V 144.4 c 0,-4.19707 -3.402929,-7.6 -7.6,-7.6 -4.197071,0 -7.6,3.40293 -7.6,7.6 v 18.10195 l -4.204492,-2.1041 c -2.1375,-1.06875 -4.653516,-1.06875 -6.791016,0 L 27.2,162.50195 V 144.4 c 0,-4.19707 -3.402929,-7.6 -7.6,-7.6 -4.197071,0 -7.6,3.40293 -7.6,7.6 v 319.2 c 0,4.19707 3.402929,7.6 7.6,7.6 h 440.8 c 4.19707,0 7.6,-3.40293 7.6,-7.6 V 144.4 c 0,-4.19707 -3.40293,-7.6 -7.6,-7.6 z M 42.4,456 H 27.2 v -91.2 h 15.2 z m 0,-106.4 H 27.2 v -15.2 h 15.2 z m 0,-30.4 H 27.2 V 212.8 h 15.2 z m 0,-121.6 H 27.2 v -18.10195 l 7.6,-3.8 7.6,3.8 z m 76,258.4 H 88 v -45.6 h 30.4 z m 30.4,0 h -15.2 v -53.2 c 0,-4.19707 -3.40293,-7.6 -7.6,-7.6 H 80.4 c -4.197071,0 -7.6,3.40293 -7.6,7.6 V 456 H 57.6 v -91.2 h 91.2 z m 0,-106.4 H 57.6 v -15.2 h 91.2 z m -45.6,-30.4 v -38 c 0,-4.19707 3.40293,-7.6 7.6,-7.6 4.19707,0 7.6,3.40293 7.6,7.6 v 38 z m 45.6,0 h -15.2 v -38 c 0,-12.59121 -10.20879,-22.8 -22.8,-22.8 -12.591211,0 -22.8,10.20879 -22.8,22.8 v 38 H 57.6 v -76 h 91.2 z m 0,-91.2 H 57.6 v -15.2 h 91.2 z m 0,-30.4 H 57.6 v -17.07031 l 91.2,-26.05078 z M 179.2,456 H 164 v -91.2 h 15.2 z m 0,-106.4 H 164 v -15.2 h 15.2 z m 0,-30.4 H 164 V 212.8 h 15.2 z m 0,-121.6 H 164 v -61.75742 c 5.95977,-1.60313 11.27383,-5.0209 15.2,-9.78203 z M 240,55.608398 272.67852,83.6 H 207.32148 Z M 255.2,456 h -30.4 v -60.8 h 30.4 z m 30.4,0 h -15.2 v -68.4 c 0,-4.19707 -3.40293,-7.6 -7.6,-7.6 h -45.6 c -4.19707,0 -7.6,3.40293 -7.6,7.6 V 456 h -15.2 v -91.2 h 91.2 z m 0,-106.4 h -91.2 v -15.2 h 91.2 z m -60.8,-30.4 v -60.8 c 0,-8.39414 6.80586,-15.2 15.2,-15.2 8.39414,0 15.2,6.80586 15.2,15.2 v 60.8 z m 60.8,0 h -15.2 v -60.8 c 0,-16.78828 -13.61172,-30.4 -30.4,-30.4 -16.78828,0 -30.4,13.61172 -30.4,30.4 v 60.8 H 194.4 V 212.8 h 91.2 z M 224.8,197.6 v -22.8 c 0,-8.39414 6.80586,-15.2 15.2,-15.2 8.39414,0 15.2,6.80586 15.2,15.2 v 22.8 z m 60.8,0 h -15.2 v -22.8 c 0,-16.78828 -13.61172,-30.4 -30.4,-30.4 -16.78828,0 -30.4,13.61172 -30.4,30.4 v 22.8 h -15.2 v -68.4 h 91.2 z m 0,-83.6 H 194.4 V 98.8 h 91.2 z M 316,456 H 300.8 V 364.8 H 316 Z m 0,-106.4 H 300.8 V 334.4 H 316 Z m 0,-30.4 H 300.8 V 212.8 H 316 Z m 0,-174.8 v 53.2 h -15.2 v -71.53945 c 3.92617,4.76113 9.24023,8.1789 15.2,9.78203 z M 392,456 H 361.6 V 410.4 H 392 Z m 30.4,0 h -15.2 v -53.2 c 0,-4.19707 -3.40293,-7.6 -7.6,-7.6 H 354 c -4.19707,0 -7.6,3.40293 -7.6,7.6 V 456 h -15.2 v -91.2 h 91.2 z m 0,-106.4 h -91.2 v -15.2 h 91.2 z m -53.2,-30.4 v -38 c 0,-4.19707 3.40293,-7.6 7.6,-7.6 4.19707,0 7.6,3.40293 7.6,7.6 v 38 z m 53.2,0 h -22.8 v -38 c 0,-12.59121 -10.20879,-22.8 -22.8,-22.8 -12.59121,0 -22.8,10.20879 -22.8,22.8 v 38 h -22.8 v -76 h 91.2 z m 0,-91.2 h -91.2 v -15.2 h 91.2 z m 0,-30.4 h -91.2 v -43.12109 l 91.2,26.05078 z M 452.8,456 h -15.2 v -91.2 h 15.2 z m 0,-106.4 h -15.2 v -15.2 h 15.2 z m 0,-30.4 H 437.6 V 212.8 h 15.2 z m 0,-121.6 h -15.2 v -18.10195 l 7.6,-3.8 7.6,3.8 z m 0,0"
     id="path96"
     inkscape:connector-curvature="0"
     style="stroke-width:0.94999999" />
</svg>
