<?xml version="1.0" encoding="UTF-8" standalone="no"?>
<!-- Created with Inkscape (http://www.inkscape.org/) -->

<svg
   xmlns:dc="http://purl.org/dc/elements/1.1/"
   xmlns:cc="http://creativecommons.org/ns#"
   xmlns:rdf="http://www.w3.org/1999/02/22-rdf-syntax-ns#"
   xmlns:svg="http://www.w3.org/2000/svg"
   xmlns="http://www.w3.org/2000/svg"
   xmlns:sodipodi="http://sodipodi.sourceforge.net/DTD/sodipodi-0.dtd"
   xmlns:inkscape="http://www.inkscape.org/namespaces/inkscape"
   width="256"
   height="256"
   viewBox="0 0 67.733331 67.733331"
   version="1.1"
   id="svg8"
   inkscape:version="0.92.4 (5da689c313, 2019-01-14)"
   sodipodi:docname="macau_casino.svg">
  <defs
     id="defs2">
    <inkscape:path-effect
       effect="bspline"
       id="path-effect854"
       is_visible="true"
       weight="33.333333"
       steps="2"
       helper_size="0"
       apply_no_weight="true"
       apply_with_weight="true"
       only_selected="false" />
    <inkscape:path-effect
       effect="bspline"
       id="path-effect850"
       is_visible="true"
       weight="33.333333"
       steps="2"
       helper_size="0"
       apply_no_weight="true"
       apply_with_weight="true"
       only_selected="false" />
    <clipPath
       clipPathUnits="userSpaceOnUse"
       id="clipPath844">
      <rect
         style="fill:#0000ff;fill-rule:evenodd;stroke-width:0.24762295"
         id="rect846"
         width="31.126829"
         height="66.783234"
         x="45.564079"
         y="209.20735" />
    </clipPath>
  </defs>
  <sodipodi:namedview
     id="base"
     pagecolor="#ffffff"
     bordercolor="#666666"
     borderopacity="1.0"
     inkscape:pageopacity="0.0"
     inkscape:pageshadow="2"
     inkscape:zoom="1.4"
     inkscape:cx="168.58196"
     inkscape:cy="69.59714"
     inkscape:document-units="mm"
     inkscape:current-layer="g826"
     showgrid="false"
     units="px"
     inkscape:window-width="1920"
     inkscape:window-height="986"
     inkscape:window-x="-11"
     inkscape:window-y="-11"
     inkscape:window-maximized="1" />
  <metadata
     id="metadata5">
    <rdf:RDF>
      <cc:Work
         rdf:about="">
        <dc:format>image/svg+xml</dc:format>
        <dc:type
           rdf:resource="http://purl.org/dc/dcmitype/StillImage" />
        <dc:title />
      </cc:Work>
    </rdf:RDF>
  </metadata>
  <g
     inkscape:label="Layer 1"
     inkscape:groupmode="layer"
     id="layer1"
     transform="translate(0,-229.26668)">
    <g
       id="g826"
       transform="translate(-27.260827,18.871269)"
       clip-path="url(#clipPath844)"
       style="stroke:#000000;stroke-opacity:1;fill:#1a1a1a;stroke-width:0.79375;stroke-miterlimit:4;stroke-dasharray:none;stroke-linejoin:round;paint-order:stroke markers fill;stroke-linecap:butt">
      <path
         style="fill:#eeffaa;stroke:none;stroke-width:0.07500464;stroke-linecap:butt;stroke-linejoin:round;stroke-miterlimit:4;stroke-dasharray:none;stroke-opacity:1;paint-order:stroke markers fill"
         d="m 53.543238,274.77158 c 0.209933,-1.43766 0.329935,-3.58848 0.349136,-6.25775 0.02188,-3.03983 -0.0716,-3.90375 -0.699469,-6.46487 -0.728076,-2.96987 -1.613868,-5.33219 -3.076732,-8.20533 -0.570271,-1.12004 -0.925793,-1.91802 -0.857371,-1.92439 0.251355,-0.0234 0.518008,0.0289 1.084728,0.21257 0.432857,0.14032 0.667196,0.28354 0.880416,0.5381 0.706786,0.84382 1.654225,3.31962 2.501296,6.53625 0.570449,2.16621 0.817464,2.8773 1.107839,3.18918 0.255619,0.27455 0.407509,0.26851 0.599043,-0.0238 0.177059,-0.27023 0.15076,-0.71259 -0.159337,-2.67999 -0.585732,-3.71616 -0.949981,-4.71531 -4.052458,-11.11597 -1.982063,-4.08916 -2.686175,-5.61555 -2.620644,-5.68108 0.01688,-0.0169 0.183603,0.0115 0.370504,0.0631 0.991919,0.27388 3.213784,2.19404 4.001842,3.45842 1.278853,2.05183 2.450626,5.41837 2.971737,8.53786 0.284334,1.7021 0.334901,1.85976 0.613587,1.91304 0.405408,0.0775 0.459007,-0.10824 0.396213,-1.37287 -0.05837,-1.17541 -0.301812,-2.72349 -0.642194,-4.08369 -0.295992,-1.18281 -1.110879,-3.61511 -1.464717,-4.37191 -0.17657,-0.37766 -0.321167,-0.76036 -0.321326,-0.85045 -5.29e-4,-0.25807 -0.613836,-1.40924 -1.009897,-1.89534 -0.197988,-0.24301 -0.828353,-0.93083 -1.400813,-1.52851 -1.259751,-1.31524 -1.47746,-1.70534 -2.737565,-4.90531 -0.49448,-1.25571 -0.899054,-2.30226 -0.899054,-2.32567 0,-0.0833 1.855812,0.94254 2.635426,1.45682 0.923338,0.60909 2.50258,2.08422 3.336055,3.11614 1.385184,1.71498 2.528123,3.77264 3.287228,5.91807 0.502343,1.41974 0.726699,1.70179 1.046843,1.31605 0.256894,-0.30954 -0.30379,-2.57904 -1.099611,-4.45094 -1.014699,-2.38672 -2.284656,-4.26162 -4.155527,-6.13501 -1.707598,-1.70991 -2.076704,-2.30983 -2.660419,-4.32412 -0.611831,-2.11132 -1.257736,-4.62591 -1.20243,-4.68122 0.276552,-0.27655 3.536522,2.78765 4.792859,4.50503 1.413915,1.9328 2.962587,5.077 4.36227,8.85652 0.585086,1.57989 0.785519,1.85122 1.12024,1.5165 0.214273,-0.21427 0.05888,-0.91927 -0.709191,-3.21739 -1.40235,-4.19597 -2.888618,-7.07908 -5.20939,-10.10536 -0.396232,-0.51669 -0.706286,-0.95357 -0.689007,-0.97085 0.01728,-0.0173 0.388285,0.0509 0.824458,0.15151 2.032162,0.46874 5.101484,0.79676 7.454868,0.7967 1.973731,-4e-5 3.452128,-0.13036 5.24442,-0.46228 0.675632,-0.12512 1.280697,-0.2279 1.344592,-0.22839 0.06389,-5.2e-4 -0.167463,0.34991 -0.514125,0.77867 -1.45047,1.79401 -2.842276,4.19275 -3.90687,6.73338 -0.843928,2.01402 -1.018518,2.49518 -1.542671,4.25156 -0.728007,2.43947 -0.745755,2.59858 -0.289841,2.59858 0.296498,0 0.505643,-0.41209 1.252892,-2.46865 1.310791,-3.60753 2.639589,-6.2205 4.325681,-8.5061 0.953183,-1.2921 3.331504,-3.65412 4.385773,-4.35572 0.441759,-0.29399 0.816962,-0.49549 0.833779,-0.44778 0.0438,0.12423 -0.530593,2.40741 -1.290114,5.12809 l -0.654018,2.34277 -1.598496,1.62598 c -1.891866,1.9244 -2.486681,2.64543 -3.308038,4.00998 -1.142841,1.89865 -1.980668,3.94773 -2.342658,5.72945 -0.164147,0.80794 -0.135122,1.04774 0.144963,1.19764 0.2227,0.11918 0.560565,-0.0324 0.560565,-0.25147 0,-0.57906 1.299652,-3.55453 2.150186,-4.9227 1.162722,-1.87036 2.833524,-3.72974 4.409845,-4.90758 0.941673,-0.70362 2.813037,-1.72621 2.866345,-1.56628 0.06238,0.18713 -1.404228,3.83944 -2.033505,5.06408 -0.490839,0.95522 -0.797544,1.36339 -1.940653,2.58267 -1.099156,1.17239 -1.644277,1.93471 -1.822926,2.54924 -0.08206,0.28229 -0.268034,0.77686 -0.413266,1.09905 -1.02376,2.27116 -1.722813,4.93691 -2.07404,7.90909 -0.432361,3.65878 -0.43576,3.92894 -0.05068,4.0256 0.121481,0.0305 0.260461,0.031 0.308845,10e-4 0.04839,-0.0299 0.138039,-0.46978 0.199224,-0.97747 0.307125,-2.54835 1.020974,-5.76067 1.706536,-7.67942 0.403529,-1.12939 1.553262,-3.34938 2.276403,-4.39544 0.806238,-1.16626 2.211914,-2.37125 3.418091,-2.93008 0.268555,-0.12442 0.50106,-0.21344 0.516679,-0.19782 0.04375,0.0437 -0.946579,2.18913 -2.382346,5.16099 -3.039485,6.29136 -3.698531,7.98273 -4.265599,10.94722 -0.294156,1.53778 -0.380066,3.24657 -0.171905,3.41932 0.188696,0.1566 0.405635,0.0488 0.525002,-0.26088 0.0556,-0.14426 0.329174,-1.04893 0.607936,-2.01041 0.80904,-2.79046 2.212562,-6.22072 2.97035,-7.25966 0.356439,-0.48868 0.913119,-0.76738 1.538581,-0.77027 0.565767,-0.003 0.570735,0.0801 0.05513,0.91758 -1.415719,2.29948 -3.183514,7.11176 -3.949621,10.75161 -0.32028,1.5217 -0.449204,5.25388 -0.296309,8.5778 0.06744,1.46616 0.144142,2.84646 0.17045,3.06734 l 0.04783,0.4016 h -7.598023 -7.598024 l 0.1142,-0.78205 z"
         id="path831-2"
         inkscape:connector-curvature="0" />
      <path
         style="fill:#fe01fa;fill-opacity:1;stroke:none;stroke-width:0.07500464;stroke-linecap:butt;stroke-linejoin:round;stroke-miterlimit:4;stroke-dasharray:none;stroke-opacity:1;paint-order:stroke markers fill"
         d="m 53.543237,276.35907 c 0.209933,-1.43766 0.329935,-3.58848 0.349136,-6.25775 0.02188,-3.03983 -0.0716,-3.90375 -0.699469,-6.46487 -0.728076,-2.96988 -1.613868,-5.3322 -3.076732,-8.20534 -0.570271,-1.12003 -0.925793,-1.91801 -0.857371,-1.92438 0.251355,-0.0234 0.518008,0.0289 1.084728,0.21257 0.432857,0.14032 0.667196,0.28354 0.880416,0.5381 0.706786,0.84382 1.654225,3.31962 2.501296,6.53625 0.570449,2.16621 0.817464,2.8773 1.107839,3.18918 0.255619,0.27454 0.407509,0.26851 0.599043,-0.0238 0.177059,-0.27023 0.15076,-0.71258 -0.159337,-2.67998 -0.585732,-3.71615 -0.949981,-4.71529 -4.052458,-11.11596 -1.982063,-4.08917 -2.686175,-5.61555 -2.620644,-5.68108 0.01688,-0.0169 0.183603,0.0115 0.370504,0.0631 0.991919,0.27388 3.213784,2.19403 4.001842,3.45842 1.278853,2.05183 2.450627,5.41837 2.971737,8.53786 0.284334,1.7021 0.334901,1.85976 0.613587,1.91304 0.405408,0.0775 0.459007,-0.10823 0.396213,-1.37287 -0.05837,-1.17542 -0.301812,-2.72349 -0.642194,-4.08369 -0.295992,-1.18282 -1.110879,-3.61511 -1.464717,-4.37191 -0.17657,-0.37766 -0.321167,-0.76036 -0.321326,-0.85045 -5.29e-4,-0.25807 -0.613836,-1.40924 -1.009897,-1.89535 -0.197987,-0.243 -0.828353,-0.93082 -1.400813,-1.5285 -1.259751,-1.31524 -1.47746,-1.70534 -2.737565,-4.90531 -0.49448,-1.25571 -0.899054,-2.30226 -0.899054,-2.32567 0,-0.0833 1.855812,0.94254 2.635426,1.45682 0.923338,0.60908 2.50258,2.08422 3.336055,3.11614 1.385184,1.71498 2.528123,3.77264 3.287228,5.91807 0.502344,1.41974 0.7267,1.70179 1.046843,1.31604 0.256894,-0.30953 -0.30379,-2.57903 -1.099611,-4.45093 -1.014698,-2.38672 -2.284656,-4.26162 -4.155527,-6.13502 -1.707598,-1.7099 -2.076704,-2.30982 -2.660419,-4.32412 -0.611831,-2.11131 -1.257736,-4.6259 -1.20243,-4.68121 0.276552,-0.27655 3.536522,2.78765 4.792859,4.50503 1.413915,1.93279 2.962587,5.077 4.36227,8.85652 0.585086,1.57989 0.785519,1.85122 1.120241,1.51649 0.214272,-0.21427 0.05888,-0.91926 -0.709192,-3.21738 -1.40235,-4.19597 -2.888618,-7.07909 -5.209389,-10.10536 -0.396233,-0.51669 -0.706287,-0.95357 -0.689007,-0.97085 0.01728,-0.0173 0.388284,0.0509 0.824457,0.15151 2.032162,0.46874 5.101484,0.79676 7.454869,0.7967 1.97373,-5e-5 3.452127,-0.13036 5.24442,-0.46228 0.675632,-0.12512 1.280697,-0.2279 1.344591,-0.22839 0.06389,-5.1e-4 -0.167463,0.34991 -0.514125,0.77867 -1.45047,1.79401 -2.842276,4.19275 -3.906869,6.73338 -0.843929,2.01401 -1.018519,2.49518 -1.542672,4.25156 -0.728006,2.43947 -0.745755,2.59858 -0.289841,2.59858 0.296498,0 0.505643,-0.41209 1.252893,-2.46865 1.31079,-3.60753 2.639589,-6.2205 4.32568,-8.5061 0.953183,-1.2921 3.331504,-3.65412 4.385773,-4.35573 0.441759,-0.29398 0.816962,-0.49548 0.833779,-0.44778 0.0438,0.12424 -0.530593,2.40742 -1.290113,5.1281 l -0.654019,2.34277 -1.598496,1.62598 c -1.891866,1.9244 -2.486681,2.64543 -3.308038,4.00998 -1.142841,1.89865 -1.980668,3.94773 -2.342657,5.72945 -0.164148,0.80794 -0.135123,1.04774 0.144962,1.19764 0.2227,0.11918 0.560565,-0.0324 0.560565,-0.25147 0,-0.57906 1.299652,-3.55453 2.150187,-4.9227 1.162722,-1.87036 2.833523,-3.72975 4.409844,-4.90758 0.941674,-0.70362 2.813037,-1.72621 2.866345,-1.56628 0.06238,0.18713 -1.404228,3.83944 -2.033505,5.06408 -0.490839,0.95522 -0.797544,1.36339 -1.940653,2.58267 -1.099156,1.17239 -1.644277,1.93471 -1.822926,2.54924 -0.08206,0.28228 -0.268033,0.77686 -0.413266,1.09905 -1.02376,2.27116 -1.722813,4.93691 -2.074039,7.90909 -0.432361,3.65878 -0.435761,3.92895 -0.05068,4.0256 0.121481,0.0305 0.260461,0.031 0.308845,10e-4 0.04839,-0.0299 0.138039,-0.46977 0.199224,-0.97747 0.307125,-2.54834 1.020974,-5.76066 1.706536,-7.67941 0.403529,-1.12939 1.553263,-3.34938 2.276403,-4.39544 0.806239,-1.16626 2.211914,-2.37125 3.418092,-2.93008 0.268554,-0.12442 0.50106,-0.21344 0.516678,-0.19782 0.04375,0.0437 -0.946579,2.18913 -2.382345,5.16099 -3.039486,6.29136 -3.698531,7.98273 -4.2656,10.94722 -0.294156,1.53777 -0.380066,3.24656 -0.171905,3.41932 0.188696,0.1566 0.405636,0.0488 0.525002,-0.26088 0.0556,-0.14426 0.329174,-1.04894 0.607936,-2.01042 0.80904,-2.79045 2.212562,-6.22071 2.97035,-7.25965 0.356439,-0.48868 0.91312,-0.76738 1.538581,-0.77027 0.565767,-0.003 0.570736,0.0801 0.05513,0.91758 -1.415719,2.29947 -3.183514,7.11175 -3.94962,10.75161 -0.320281,1.52169 -0.449205,5.25388 -0.29631,8.5778 0.06744,1.46616 0.144143,2.84646 0.17045,3.06734 l 0.04783,0.4016 h -7.598023 -7.598023 l 0.114199,-0.78206 z"
         id="path831-5"
         inkscape:connector-curvature="0" />
      <path
         style="fill:#6cbbc7;fill-opacity:0.80000001;stroke:none;stroke-width:0.07500464"
         d="m 54.072404,279.00484 c 0.209933,-1.43766 0.329935,-3.58848 0.349136,-6.25775 0.02188,-3.03983 -0.0716,-3.90375 -0.699469,-6.46487 -0.728076,-2.96987 -1.613868,-5.33219 -3.076732,-8.20533 -0.570271,-1.12004 -0.925793,-1.91802 -0.857371,-1.92439 0.251355,-0.0234 0.518008,0.0289 1.084728,0.21257 0.432857,0.14032 0.667196,0.28354 0.880416,0.5381 0.706786,0.84382 1.654225,3.31962 2.501296,6.53625 0.570449,2.16621 0.817464,2.8773 1.107839,3.18918 0.255619,0.27455 0.407509,0.26851 0.599043,-0.0238 0.177059,-0.27023 0.15076,-0.71259 -0.159337,-2.67999 -0.585732,-3.71615 -0.949981,-4.71529 -4.052458,-11.11596 -1.982063,-4.08916 -2.686175,-5.61555 -2.620644,-5.68108 0.01688,-0.0169 0.183603,0.0115 0.370504,0.0631 0.991919,0.27388 3.213784,2.19404 4.001842,3.45842 1.278853,2.05183 2.450626,5.41837 2.971737,8.53787 0.284334,1.70209 0.334901,1.85975 0.613587,1.91303 0.405408,0.0775 0.459007,-0.10823 0.396213,-1.37287 -0.05837,-1.17541 -0.301812,-2.72349 -0.642194,-4.08369 -0.295992,-1.18281 -1.110879,-3.61511 -1.464717,-4.37191 -0.17657,-0.37766 -0.321167,-0.76036 -0.321326,-0.85045 -5.29e-4,-0.25807 -0.613836,-1.40924 -1.009897,-1.89534 -0.197988,-0.24301 -0.828353,-0.93083 -1.400813,-1.52851 -1.259751,-1.31524 -1.47746,-1.70534 -2.737565,-4.90531 -0.49448,-1.25571 -0.899054,-2.30226 -0.899054,-2.32567 0,-0.0833 1.855812,0.94254 2.635426,1.45682 0.923338,0.60909 2.50258,2.08422 3.336055,3.11614 1.385184,1.71498 2.528123,3.77264 3.287228,5.91807 0.502343,1.41974 0.726699,1.70179 1.046843,1.31605 0.256894,-0.30954 -0.30379,-2.57904 -1.099611,-4.45094 -1.014699,-2.38672 -2.284656,-4.26162 -4.155527,-6.13501 -1.707598,-1.70991 -2.076704,-2.30983 -2.660419,-4.32412 -0.611831,-2.11132 -1.257736,-4.62591 -1.20243,-4.68122 0.276552,-0.27655 3.536522,2.78765 4.792859,4.50503 1.413915,1.9328 2.962587,5.077 4.36227,8.85652 0.585086,1.57989 0.785519,1.85122 1.12024,1.5165 0.214273,-0.21427 0.05888,-0.91927 -0.709191,-3.21739 -1.40235,-4.19597 -2.888618,-7.07908 -5.20939,-10.10536 -0.396232,-0.51669 -0.706286,-0.95357 -0.689007,-0.97085 0.01728,-0.0173 0.388285,0.0509 0.824458,0.15151 2.032162,0.46874 5.101484,0.79676 7.454868,0.7967 1.973731,-4e-5 3.452128,-0.13036 5.24442,-0.46228 0.675632,-0.12512 1.280697,-0.2279 1.344592,-0.22839 0.06389,-5.1e-4 -0.167463,0.34991 -0.514125,0.77867 -1.45047,1.79401 -2.842276,4.19275 -3.90687,6.73338 -0.843928,2.01402 -1.018518,2.49518 -1.542671,4.25156 -0.728007,2.43947 -0.745755,2.59858 -0.289841,2.59858 0.296498,0 0.505643,-0.41209 1.252892,-2.46865 1.310791,-3.60753 2.639589,-6.2205 4.325681,-8.5061 0.953183,-1.2921 3.331504,-3.65412 4.385773,-4.35572 0.441759,-0.29399 0.816962,-0.49549 0.833779,-0.44778 0.0438,0.12423 -0.530593,2.40741 -1.290114,5.12809 l -0.654018,2.34277 -1.598496,1.62598 c -1.891866,1.9244 -2.486681,2.64543 -3.308038,4.00998 -1.142841,1.89865 -1.980668,3.94773 -2.342658,5.72945 -0.164147,0.80794 -0.135122,1.04774 0.144963,1.19764 0.2227,0.11918 0.560565,-0.0324 0.560565,-0.25147 0,-0.57906 1.299652,-3.55453 2.150186,-4.9227 1.162722,-1.87036 2.833524,-3.72974 4.409845,-4.90758 0.941673,-0.70362 2.813037,-1.72621 2.866345,-1.56628 0.06238,0.18713 -1.404228,3.83944 -2.033505,5.06408 -0.490839,0.95522 -0.797544,1.36339 -1.940653,2.58267 -1.099156,1.17239 -1.644277,1.93471 -1.822926,2.54924 -0.08206,0.28229 -0.268034,0.77686 -0.413266,1.09905 -1.02376,2.27116 -1.722813,4.93691 -2.07404,7.90909 -0.432361,3.65878 -0.43576,3.92895 -0.05068,4.0256 0.121481,0.0305 0.260461,0.031 0.308845,10e-4 0.04839,-0.0299 0.138039,-0.46977 0.199224,-0.97746 0.307125,-2.54835 1.020974,-5.76067 1.706536,-7.67942 0.403529,-1.12939 1.553262,-3.34938 2.276403,-4.39544 0.806238,-1.16626 2.211914,-2.37125 3.418091,-2.93008 0.268555,-0.12442 0.50106,-0.21344 0.516679,-0.19782 0.04375,0.0437 -0.946579,2.18913 -2.382346,5.16099 -3.039485,6.29136 -3.698531,7.98273 -4.265599,10.94722 -0.294156,1.53777 -0.380066,3.24657 -0.171905,3.41932 0.188696,0.1566 0.405635,0.0488 0.525002,-0.26088 0.0556,-0.14426 0.329174,-1.04894 0.607936,-2.01042 0.80904,-2.79045 2.212562,-6.22071 2.97035,-7.25965 0.356439,-0.48868 0.913119,-0.76738 1.538581,-0.77027 0.565767,-0.003 0.570735,0.0801 0.05513,0.91758 -1.415719,2.29948 -3.183514,7.11176 -3.949621,10.75161 -0.32028,1.52169 -0.449204,5.25388 -0.296309,8.5778 0.06744,1.46616 0.144142,2.84646 0.17045,3.06734 l 0.04783,0.4016 H 61.556234 53.95821 l 0.1142,-0.78205 z"
         id="path831"
         inkscape:connector-curvature="0" />
      <path
         style="fill:#aaeeff;stroke:none;stroke-width:0.07650474"
         d="m 60.187511,227.56432 c -0.648215,-0.0614 -1.228649,-0.1641 -1.293343,-0.22885 -0.09223,-0.0923 -0.08139,-0.33997 0.05062,-1.15661 0.291214,-1.80145 0.82979,-3.10315 1.368695,-3.30805 0.741325,-0.28185 1.939381,0.0507 2.271651,0.63064 0.203437,0.35505 0.604728,1.93581 0.766434,3.01914 0.135963,0.91087 0.127246,0.92746 -0.534166,1.01633 -0.937327,0.12594 -1.524977,0.13206 -2.629889,0.0274 z"
         id="path4536"
         inkscape:connector-curvature="0" />
      <path
         style="fill:#1a1a1a;fill-opacity:1;stroke:#000000;stroke-width:0.5291667;stroke-linecap:butt;stroke-linejoin:round;stroke-miterlimit:4;stroke-dasharray:none;stroke-opacity:1;paint-order:stroke markers fill"
         d="m 54.39224,308.01773 c -0.08109,-0.21131 -0.07032,-0.50897 0.02392,-0.66145 0.115901,-0.18753 4.621495,-0.27726 13.922374,-0.27726 12.364339,0 13.767413,0.0427 13.913564,0.42358 0.0894,0.23297 -0.0036,0.5288 -0.20674,0.65741 -0.203108,0.1286 -6.474973,0.23565 -13.937482,0.23788 -11.620285,0.003 -13.589367,-0.0511 -13.715634,-0.38016 z m -12.1505,-3.60301 c -0.419915,-0.67944 0.555739,-0.78223 6.776334,-0.71395 5.538072,0.0608 6.464249,0.12782 6.464249,0.46783 0,0.34015 -0.933379,0.40699 -6.52999,0.46761 -4.550143,0.0493 -6.584749,-0.0179 -6.710593,-0.22149 z m 22.493382,0.006 c -0.358728,-0.58044 0.346559,-0.80532 2.282213,-0.72769 1.529797,0.0614 1.958737,0.16546 1.958737,0.47543 0,0.31158 -0.435919,0.41339 -2.028274,0.47375 -1.298268,0.0492 -2.094643,-0.0305 -2.212676,-0.22149 z m 6.357617,0.0123 c -0.08994,-0.14552 -0.08994,-0.38365 0,-0.52917 0.105132,-0.17011 4.456567,-0.26458 12.186448,-0.26458 11.846536,0 12.022926,0.008 12.022926,0.52916 0,0.52141 -0.17639,0.52917 -12.022926,0.52917 -7.729881,0 -12.081316,-0.0945 -12.186448,-0.26458 z m -54.422208,-1.90602 -0.08196,-1.13669 -2.38125,-0.0239 c -1.309687,-0.0131 -2.530877,-0.0429 -2.713754,-0.0661 -0.26414,-0.0336 -0.318539,-3.89026 -0.264583,-18.75794 0.05989,-16.504 0.115471,-18.72482 0.470305,-18.79313 0.243362,-0.0469 1.91637,1.6718 4.233333,4.34884 l 3.830949,4.42631 0.164776,-2.89724 c 0.09063,-1.59348 0.194011,-5.93334 0.229742,-9.64412 0.03573,-3.71078 0.140175,-7.10406 0.232098,-7.54062 0.150718,-0.71579 0.303569,-0.81799 1.556196,-1.04048 l 1.389063,-0.24672 v -2.30057 c 0,-2.63408 0.112535,-2.81128 1.944922,-3.06244 l 1.230077,-0.1686 v -3.2535 c 0,-3.02112 0.03779,-3.26549 0.529167,-3.42144 0.314386,-0.0998 0.529167,-0.40033 0.529167,-0.74047 0,-0.36761 0.856014,-1.4321 2.391814,-2.97431 2.377295,-2.38722 2.388537,-2.40476 1.852084,-2.89025 -0.818521,-0.74075 -0.736029,-2.33028 0.157408,-3.03306 0.910765,-0.71641 1.750161,-0.69376 2.639494,0.0712 0.91078,0.78342 0.96729,2.03224 0.132188,2.92117 l -0.588121,0.62603 2.131523,2.25181 c 1.231972,1.30149 2.131526,2.4794 2.131526,2.7911 0,0.29661 0.297656,0.89304 0.661458,1.32539 0.633299,0.75263 0.661458,0.93654 0.661466,4.31978 l 8e-6,3.53368 0.940684,0.75057 0.940681,0.75057 -0.155776,16.97651 c -0.08568,9.33708 -0.218403,17.57183 -0.294947,18.29943 l -0.139168,1.32292 1.346123,-1.50602 c 1.682919,-1.88282 4.482015,-3.76164 7.114704,-4.77557 1.111903,-0.42823 2.102765,-0.85693 2.20192,-0.95267 0.09915,-0.0957 0.374592,-1.48376 0.612087,-3.08449 0.570752,-3.84689 0.576062,-8.93032 0.01212,-11.59782 -0.807341,-3.81875 -2.633419,-8.34695 -4.41153,-10.93944 -1.173496,-1.71095 -1.061455,-1.9367 0.961213,-1.9367 0.945885,0 1.719792,-0.0738 1.719792,-0.16393 0,-0.0902 -0.892969,-2.04817 -1.984375,-4.35113 -1.091407,-2.30296 -1.984375,-4.38746 -1.984375,-4.63223 0,-0.3746 0.209367,-0.42492 1.322916,-0.31792 0.727604,0.0699 1.322917,0.0472 1.322917,-0.0504 0,-0.0976 -0.595313,-1.64967 -1.322917,-3.44895 -0.727604,-1.79928 -1.322916,-3.48785 -1.322916,-3.75238 0,-0.62371 0.624464,-0.60616 2.089917,0.0587 0.64013,0.29044 1.209204,0.48273 1.26461,0.42733 0.0554,-0.0554 -0.304826,-1.58037 -0.800515,-3.3888 -1.12698,-4.11159 -1.354275,-5.40834 -0.987692,-5.63491 0.154408,-0.0954 1.589357,0.24954 3.188776,0.7666 1.59942,0.51706 3.014417,0.9401 3.144438,0.9401 0.130022,0 0.306568,-0.35081 0.392322,-0.77959 0.145534,-0.72768 0.246517,-0.78494 1.516263,-0.8599 1.357069,-0.0801 1.361287,-0.0832 1.752079,-1.27092 0.215455,-0.65485 0.719434,-1.60735 1.119952,-2.11667 0.580694,-0.73844 0.759627,-1.30123 0.883282,-2.77812 0.08529,-1.01865 0.34189,-2.20927 0.57023,-2.64584 0.228338,-0.43656 0.427763,-1.32953 0.443164,-1.98437 0.05794,-2.46325 0.407948,-2.614 0.626094,-0.26966 0.124455,1.33746 0.351388,2.35281 0.561782,2.51354 0.194141,0.14831 0.474583,1.22216 0.62321,2.38633 0.18225,1.42756 0.530371,2.6241 1.069282,3.6753 0.439481,0.85726 0.799055,1.77999 0.799055,2.05052 0,0.41387 0.209814,0.49189 1.322916,0.49189 1.365406,0 1.431182,0.0634 1.32987,1.28269 -0.04737,0.57012 0.02098,0.60621 0.830609,0.43859 0.485228,-0.10046 1.894261,-0.59866 3.131188,-1.1071 3.250311,-1.33606 3.319121,-1.32666 3.252747,0.44415 -0.03,0.80036 -0.469455,2.88106 -0.976569,4.62378 -0.507113,1.74271 -0.895913,3.19468 -0.864004,3.22659 0.03191,0.0319 0.74387,-0.25229 1.582134,-0.63155 1.088974,-0.49269 1.605494,-0.60819 1.809146,-0.40453 0.246912,0.24691 -0.64693,2.8766 -2.599631,7.64813 -0.09207,0.22498 0.145015,0.24438 0.885745,0.0725 1.386888,-0.32189 1.66759,-0.30458 1.827713,0.11269 0.076,0.19804 -0.820711,2.35911 -1.99268,4.80238 -1.171967,2.44326 -2.130851,4.46172 -2.130851,4.48545 0,0.0237 0.689419,-0.007 1.53204,-0.0677 2.16892,-0.15689 2.504234,0.29276 1.407282,1.88712 -1.97185,2.86598 -3.675779,7.11067 -4.522692,11.26654 -0.609174,2.98926 -0.708155,7.71045 -0.241438,11.51605 0.367202,2.99415 0.556943,3.47551 1.45923,3.70197 0.402241,0.10095 1.435172,0.53276 2.295406,0.95956 0.860232,0.42681 1.611373,0.77602 1.669198,0.77602 0.05783,0 0.10514,-0.80963 0.10514,-1.79917 0,-1.04658 0.13281,-1.93198 0.3175,-2.11667 0.228378,-0.22838 2.010833,-0.3175 6.35,-0.3175 h 6.0325 V 274.28 c 0,-2.0782 0.257011,-2.39056 1.966981,-2.39056 h 0.943435 v -1.5875 c 0,-0.87313 0.02977,-1.592 0.06615,-1.59749 0.03638,-0.006 0.542396,-0.0756 1.124479,-0.15569 1.343792,-0.185 1.743133,-0.57716 1.859179,-1.82579 0.05112,-0.55004 0.23499,-1.08786 0.408596,-1.19516 0.173604,-0.10729 0.413883,-0.81653 0.533951,-1.57607 0.24271,-1.53537 0.844566,-2.64563 1.434155,-2.64563 0.466278,0 1.158997,1.56606 1.368356,3.09351 0.08362,0.61006 0.315389,1.17188 0.515043,1.24849 0.199658,0.0766 0.363011,0.47747 0.363011,0.89079 0,1.13887 0.572305,1.71358 1.880196,1.88811 l 1.16251,0.15514 0.13229,1.5875 0.1323,1.5875 1.36229,0.16628 c 0.74926,0.0915 1.4934,0.2473 1.65364,0.34634 0.17237,0.10653 0.29136,1.03509 0.29136,2.27365 v 2.09359 l 3.63802,0.0736 3.63802,0.0736 v 10.45104 10.45104 l -34.660416,0.13229 -34.660415,0.1323 -2.904551,1.69327 -2.904551,1.69327 -6.21998,0.0265 c -5.701213,0.0243 -6.227413,0.0651 -6.309119,0.48954 -0.137758,0.71556 -2.571501,0.66118 -2.960756,-0.0661 -0.209021,-0.39055 -0.55399,-0.52916 -1.317014,-0.52916 -1.027097,0 -1.034339,0.007 -1.115169,1.12448 l -0.08136,1.12448 -1.637836,0.0784 -1.637836,0.0784 z m 2.167002,-8.94449 c 0,-9.875 -0.152365,-8.88708 1.5875,-10.29316 l 0.661458,-0.53456 -1.653645,-0.009 -1.653646,-0.009 v 9.92187 c 0,9.74548 0.0094,9.92187 0.529166,9.92187 0.518794,0 0.529167,-0.17639 0.529167,-8.99842 z m 5.55625,0.62707 c 0,-6.15052 0.04323,-6.81666 0.463021,-7.13533 0.420923,-0.31953 0.396867,-0.35225 -0.264584,-0.3599 l -0.727604,-0.008 v 7.14374 c 0,4.58612 0.09473,7.14375 0.264583,7.14375 0.169511,0 0.264584,-2.43767 0.264584,-6.78385 z m -10.245698,5.06406 c -0.756301,-0.50932 -1.439321,-0.92604 -1.517822,-0.92604 -0.0785,0 -0.14273,0.41672 -0.14273,0.92604 v 0.92604 h 1.517823 1.517822 z m 8.393615,0.51986 c 0,-0.32419 -0.106813,-0.34902 -0.529167,-0.12298 -0.291042,0.15576 -0.529167,0.33854 -0.529167,0.40618 0,0.0676 0.238125,0.12298 0.529167,0.12298 0.299371,0 0.529167,-0.17639 0.529167,-0.40618 z m 3.571874,0.1416 c -0.08994,-0.14552 -0.275558,-0.26458 -0.41249,-0.26458 -0.136933,0 -0.248968,0.11906 -0.248968,0.26458 0,0.14552 0.185621,0.26458 0.412491,0.26458 0.226869,0 0.338905,-0.11906 0.248967,-0.26458 z m 3.042709,-3.81482 c 0,-2.24367 0.07227,-4.26773 0.160599,-4.49791 0.105386,-0.27464 0.01442,-0.41852 -0.264583,-0.41852 -0.373849,0 -0.425183,0.54307 -0.425183,4.49792 0,2.82222 0.09857,4.49791 0.264583,4.49791 0.164949,0 0.264584,-1.53618 0.264584,-4.0794 z m 3.174999,1.83045 v -2.24896 h -1.058333 -1.058333 v 2.24896 2.24895 h 1.058333 1.058333 z m 1.897169,-1.90641 c 0.212799,-0.25641 0.176339,-0.34255 -0.144981,-0.34255 -0.367271,0 -0.421677,0.33437 -0.376698,2.3151 l 0.05257,2.31511 0.09241,-1.97256 c 0.05082,-1.0849 0.22034,-2.1267 0.376701,-2.3151 z m 2.865331,2.1803 c 0,-1.66006 -0.07909,-2.01739 -0.495863,-2.24045 -0.86717,-0.46409 -1.35622,0.41952 -1.35622,2.45041 v 1.7651 h 0.926042 0.926041 z m -20.372915,-1.19994 c 0,-1.4552 -0.07473,-2.64583 -0.166076,-2.64583 -0.313815,0 -3.824521,2.71218 -3.687748,2.84896 0.317062,0.31706 3.473732,2.4132 3.655386,2.4273 0.109141,0.008 0.198438,-1.17522 0.198438,-2.63043 z m 4.835876,1.78554 0.734835,-0.50895 -0.969653,-0.77059 c -0.53331,-0.42382 -1.012814,-0.77058 -1.065565,-0.77058 -0.05275,0 -0.09591,0.66187 -0.09591,1.47083 0,1.57413 -0.02507,1.56373 1.396293,0.57929 z m 5.699236,-0.8825 -0.08407,-0.69174 -0.750965,0.59339 -0.750966,0.59339 0.750966,0.60259 c 0.713307,0.57237 0.755179,0.57731 0.835036,0.0984 0.04624,-0.27733 0.04624,-0.81552 0,-1.19598 z m 14.387348,-0.0723 c 0.101153,-0.0931 -0.583457,-0.35375 -1.521354,-0.57917 l -1.705274,-0.40986 v 1.4273 1.4273 l 1.521354,-0.84812 c 0.836745,-0.46647 1.604118,-0.92432 1.705274,-1.01745 z m -19.185503,-3.11951 c -0.06336,-0.0634 -0.55807,0.096 -1.099365,0.35412 l -0.984169,0.46932 1.01756,0.85654 1.017558,0.85654 0.0818,-1.21066 c 0.04499,-0.66587 0.02997,-1.26251 -0.03339,-1.32586 z m 4.330388,1.6114 c 0.31959,-0.38508 0.287633,-0.50554 -0.24951,-0.94049 -0.911318,-0.73794 -1.086586,-0.62485 -1.086586,0.70109 0,1.08133 0.04792,1.17429 0.48478,0.94049 0.266631,-0.1427 0.649722,-0.45819 0.851316,-0.70109 z m 85.182648,-0.37908 v -0.79567 l -33.932809,-0.004 c -37.499278,-0.004 -35.50573,0.0824 -39.220464,-1.70657 -1.020855,-0.49163 -2.607484,-1.5746 -3.525847,-2.4066 -2.492169,-2.25779 -15.352153,-16.37758 -21.678019,-23.80168 l -1.122771,-1.3177 0.0056,1.45521 0.0056,1.45521 3.207097,3.70417 c 12.834661,14.82391 18.495333,20.81999 20.79397,22.02605 1.830154,0.96026 3.894806,1.65223 5.720056,1.9171 0.744019,0.10796 16.741589,0.21289 35.550155,0.23318 l 34.197392,0.0369 z M 14.6042,294.5564 c 0.800364,-0.57607 1.545864,-1.12691 1.656665,-1.22406 0.168997,-0.14819 -2.362555,-2.36811 -3.442602,-3.01883 -0.256701,-0.15466 -0.33073,0.45918 -0.33073,2.74239 0,2.28192 0.07417,2.89749 0.33073,2.74478 0.181901,-0.10827 0.985572,-0.6682 1.785937,-1.24428 z m 6.962809,-1.56219 c -0.409805,-0.30924 -0.893929,-0.67457 -1.07583,-0.81184 -0.254066,-0.19175 -0.330729,0.0658 -0.330729,1.11109 v 1.36069 l 1.07583,-0.54885 1.07583,-0.54885 z m 5.73719,0.40906 v -1.24013 l -0.779174,0.7465 -0.779176,0.7465 0.580739,0.48482 c 0.858469,0.71669 0.977611,0.62679 0.977611,-0.73769 z m 6.592536,0.89132 c -0.06063,-0.0463 -0.73813,-0.66054 -1.505543,-1.36495 -1.334222,-1.22468 -1.412031,-1.25863 -1.777524,-0.77568 -0.210222,0.27778 -0.386008,0.89201 -0.390638,1.36496 l -0.0084,0.85989 h 1.896181 c 1.042898,0 1.84657,-0.0379 1.785938,-0.0842 z m 19.894617,-0.77567 c -0.125476,-0.34154 -0.48841,-0.6338 -0.851371,-0.68559 -0.787622,-0.11238 -1.5587,-0.77876 -1.5587,-1.34707 0,-0.81178 -0.789151,-1.60536 -1.596403,-1.60536 -0.529135,0 -0.907243,-0.20542 -1.199708,-0.65178 -0.405857,-0.61942 -0.45898,-0.63086 -1.070017,-0.2305 -0.910945,0.59688 -2.578335,0.3103 -3.991941,-0.6861 -1.37206,-0.96712 -1.977397,-1.00345 -3.386722,-0.20328 l -1.058333,0.60089 0.01913,1.84215 0.01913,1.84216 1.682104,0.60433 c 2.439911,0.8766 3.844692,1.04996 8.78831,1.08453 l 4.423232,0.0309 z m -4.857466,-0.22807 c -0.254662,-0.14369 -0.463021,-0.3744 -0.463021,-0.51269 0,-0.34713 0.986277,-0.31749 1.204873,0.0362 0.275677,0.44606 -0.225396,0.7679 -0.741852,0.47649 z m -4.053179,-1.32287 c -0.226946,-0.36721 0.355698,-0.75476 1.142762,-0.76012 0.730414,-0.005 0.77488,0.4104 0.08354,0.78039 -0.657831,0.35206 -0.999681,0.34641 -1.226302,-0.0203 z m -3.726873,-1.17245 c -0.08617,-0.22456 -0.08757,-0.47739 -0.0031,-0.56186 0.266978,-0.26697 0.97014,0.14251 0.97014,0.56496 0,0.52812 -0.764122,0.52567 -0.967031,-0.003 z m 16.503978,2.49349 c 0.402129,-0.66577 0.379013,-0.75794 -0.590378,-2.35373 l -1.008896,-1.66081 -0.762881,1.50869 c -0.698577,1.38151 -0.734732,1.58654 -0.428911,2.43227 0.311462,0.86134 0.402667,0.91829 1.353259,0.84504 0.769205,-0.0593 1.121971,-0.24855 1.437807,-0.77146 z m 4.559014,0.0488 0.552831,-0.77638 -0.722223,-1.47258 c -0.397221,-0.80992 -0.786715,-1.47127 -0.865542,-1.46967 -0.07883,0.002 -0.586023,0.71817 -1.127106,1.59237 -0.815758,1.31798 -0.941152,1.7016 -0.734153,2.24605 0.20773,0.54637 0.425365,0.65659 1.296498,0.65659 0.855991,0 1.147665,-0.14156 1.599695,-0.77638 z m 3.451955,0.43545 c 0,-0.18752 0.23541,-0.80268 0.523137,-1.36703 0.477662,-0.93691 0.501091,-2.26079 0.04001,-2.26079 -0.09528,0 -0.671089,0.63744 -1.279575,1.41654 -1.299443,1.6638 -1.315617,2.55221 -0.04646,2.55221 0.446101,0 0.762892,-0.14157 0.762892,-0.34093 z m 19.600822,-0.14778 c -0.175083,-0.32714 -0.166341,-0.7989 0.02643,-1.42704 0.372846,-1.21484 0.137536,-2.08775 -0.873077,-3.23877 -0.609772,-0.6945 -1.02875,-0.93086 -1.649822,-0.93077 -0.914792,1.5e-4 -2.893491,0.69018 -4.697394,1.63812 -0.915024,0.48083 -1.513906,0.59682 -2.816106,0.54541 -1.555657,-0.0614 -1.710253,-0.0122 -2.601936,0.82889 -0.928651,0.87593 -1.945193,1.21154 -3.688908,1.21787 -1.002808,0.004 -1.977102,0.6644 -1.977102,1.34083 0,0.49938 0.26655,0.51417 9.269725,0.51417 8.931899,0 9.260194,-0.0178 9.008181,-0.48871 z M 73.73141,293.3091 c -0.239057,-0.3868 0.369731,-1.04674 0.965599,-1.04674 0.628404,0 0.633127,0.32375 0.01291,0.88503 -0.563732,0.51017 -0.744675,0.54007 -0.978517,0.16171 z m 7.415495,-0.25299 c -0.21114,-0.34164 0.02997,-0.72038 0.680119,-1.06833 0.729414,-0.39037 1.028134,0.42322 0.345255,0.94033 -0.596241,0.4515 -0.809022,0.47806 -1.025374,0.128 z m -1.982163,-2.10971 c -0.302186,-0.19104 -0.321852,-0.32232 -0.08393,-0.56024 0.393115,-0.39312 1.140052,-0.12273 1.140052,0.41268 0,0.4561 -0.465283,0.5211 -1.056122,0.14756 z m 3.428066,-1.2088 c -0.216715,-0.26112 -0.247084,-0.49969 -0.08432,-0.66245 0.34041,-0.34041 1.295408,0.3598 1.044477,0.76582 -0.256452,0.41494 -0.556829,0.38261 -0.960154,-0.10337 z m 6.094722,2.95403 c 0,-1.46729 -0.202565,-1.81133 -1.256771,-2.13451 -0.507378,-0.15555 -0.595313,-0.0847 -0.595313,0.47956 0,0.36413 -0.119078,0.97526 -0.26462,1.35807 -0.39833,1.04768 0.07059,1.71969 1.19997,1.71969 h 0.916734 z m 2.910416,-9.16052 c 0,-8.29221 -0.0716,-10.58255 -0.330729,-10.57973 -0.181901,0.002 -0.59862,0.0754 -0.926042,0.16316 l -0.595312,0.15953 v 10.42019 10.42018 h 0.926042 0.926041 z m 20.372914,5.29166 v -5.29166 h -9.65729 -9.657291 v 5.29166 5.29167 h 9.657291 9.65729 z m -15.963191,-0.70555 c -0.460944,-0.46095 -0.124142,-0.88195 0.705554,-0.88195 1.047506,0 1.33791,0.21833 0.935447,0.70326 -0.307845,0.37093 -1.336722,0.48296 -1.641001,0.17869 z m 6.036291,-0.0963 c -0.28926,-0.46802 0.25659,-0.83621 1.09728,-0.74015 1.06364,0.12155 1.00613,0.85668 -0.0752,0.96164 -0.45929,0.0446 -0.91921,-0.0551 -1.02205,-0.22149 z m -6.212681,-2.37311 c 0,-0.4866 0.131747,-0.5502 0.992188,-0.47899 0.66906,0.0554 0.992187,0.21137 0.992187,0.47899 0,0.26763 -0.323127,0.42362 -0.992187,0.479 -0.860441,0.0712 -0.992188,0.008 -0.992188,-0.479 z m 6.212681,0.25644 c -0.28926,-0.46802 0.25659,-0.83621 1.09728,-0.74014 1.06364,0.12155 1.00613,0.85667 -0.0752,0.96163 -0.45929,0.0446 -0.91921,-0.0551 -1.02205,-0.22149 z m -79.5999,1.6744 c -0.06511,-0.0651 -0.605565,0.204 -1.200999,0.59804 -0.94097,0.62271 -1.082611,0.84375 -1.082611,1.68949 0,0.84426 0.148828,1.07776 1.124479,1.76425 l 1.124479,0.79121 0.07652,-2.3623 c 0.04209,-1.29927 0.02326,-2.41558 -0.04187,-2.48069 z m 4.073396,3.67184 c -0.545047,-0.18168 -1.06534,0.20177 -1.06534,0.78514 v 0.58359 l 0.677191,-0.63619 c 0.372456,-0.3499 0.547123,-0.67954 0.388149,-0.73254 z m -9.796589,-2.46007 c 0,-2.52359 -0.07051,-3.15381 -0.33073,-2.95605 -1.876364,1.426 -3.505729,2.83895 -3.505729,3.04008 0,0.26349 3.301799,3.08541 3.638021,3.10928 0.109141,0.008 0.198438,-1.42925 0.198438,-3.19331 z m 37.831604,1.36285 c 0.438658,-0.86897 0.794872,-1.67264 0.791583,-1.78593 -0.0033,-0.11329 -0.41212,-0.85843 -0.908521,-1.65585 l -0.902544,-1.44987 -0.811061,1.71445 c -0.921237,1.94734 -0.929542,2.00595 -0.485717,3.42802 0.213386,0.68372 0.510019,1.08057 0.859896,1.15043 0.293772,0.0587 0.562184,0.12286 0.596469,0.14268 0.03429,0.0198 0.42124,-0.67495 0.859895,-1.54393 z m 6.004452,-1.94724 c -0.0687,-0.17009 -0.512459,-0.8391 -0.986126,-1.48669 l -0.861216,-1.17743 -0.712896,0.85394 c -1.451224,1.73833 -1.465998,1.88564 -0.373132,3.72024 l 0.987015,1.65691 1.035635,-1.62886 c 0.569598,-0.89587 0.979421,-1.76802 0.91072,-1.93811 z m 4.129341,2.21115 c 0.540385,-0.72382 0.982517,-1.45129 0.982517,-1.61661 0,-0.39774 -1.615332,-3.41947 -1.822802,-3.40984 -0.219975,0.0102 -1.881365,2.77889 -1.881365,3.13526 0,0.38733 1.394585,3.20724 1.58614,3.20724 0.08415,0 0.595122,-0.59222 1.13551,-1.31605 z m -26.865693,-2.18968 0.06146,-3.24115 -0.989438,-0.0505 c -1.758008,-0.0898 -2.70923,-0.35497 -2.70923,-0.75519 0,-0.43625 0.830461,-0.4827 2.579687,-0.14431 l 1.124479,0.21753 v -2.43219 -2.43219 l -0.727604,0.10149 c -1.116618,0.15575 -2.844271,-0.29018 -2.844271,-0.73415 0,-0.29363 0.280567,-0.36259 1.181862,-0.29052 0.650023,0.052 1.437852,0.19184 1.750735,0.3108 l 0.568875,0.21628 0.166108,-6.5285 c 0.09136,-3.59068 0.242867,-12.31973 0.33668,-19.39789 0.195678,-14.76347 0.479708,-13.26268 -2.57156,-13.58786 l -1.742299,-0.18568 -0.17593,15.15098 c -0.09676,8.33303 -0.175929,19.26695 -0.175929,24.2976 v 9.14662 l 1.918229,1.78988 c 1.055026,0.98443 1.978631,1.78994 2.052455,1.79001 0.07382,7e-5 0.161885,-1.45839 0.195688,-3.24102 z m -1.785122,-14.13302 c -1.509091,-0.23769 -1.852083,-0.38423 -1.852083,-0.79126 0,-0.36559 0.22212,-0.40216 1.517792,-0.24988 1.59181,0.18709 2.100641,0.44937 1.803747,0.92975 -0.179832,0.29098 -0.280726,0.29863 -1.469456,0.11139 z m -0.926042,-5.61234 c -0.450908,-0.0964 -0.79375,-0.34003 -0.79375,-0.56401 0,-0.30457 0.268886,-0.37277 1.181862,-0.29976 1.478423,0.11822 2.472465,0.48406 2.258028,0.83103 -0.177837,0.28775 -1.383821,0.30267 -2.64614,0.0327 z m 0.926042,-5.23558 c -1.504482,-0.23697 -1.852083,-0.38351 -1.852083,-0.78081 0,-0.35587 0.24517,-0.39038 1.653645,-0.23275 1.735659,0.19423 2.227967,0.42406 1.932477,0.90218 -0.177617,0.28739 -0.489442,0.30742 -1.734039,0.11138 z m -0.992188,-5.56545 c -0.795694,-0.10425 -1.164597,-0.65333 -0.651846,-0.97023 0.340517,-0.21045 3.363825,0.47154 3.363825,0.75881 0,0.28704 -1.338381,0.39138 -2.711979,0.21142 z m 0.992188,-5.2779 c -1.528471,-0.25128 -1.852083,-0.3893 -1.852083,-0.78988 0,-0.35897 0.224507,-0.39427 1.496687,-0.23532 1.83466,0.22922 2.25838,0.38157 2.131792,0.76647 -0.108333,0.32938 -0.764926,0.42501 -1.776396,0.25873 z M 35.837011,246.96 c -1.089879,-0.1662 -1.653645,-0.37428 -1.653645,-0.61034 0,-0.55291 0.265639,-0.58796 2.116666,-0.27929 1.172398,0.1955 1.719792,0.40608 1.719792,0.66161 0,0.49936 -0.239496,0.52438 -2.182813,0.22802 z m 34.264038,43.26023 c 0.327697,-0.4048 0.667287,-0.95742 0.754647,-1.22805 0.165584,-0.51295 -1.159888,-3.39495 -1.585608,-3.44761 -0.129334,-0.016 -0.703183,0.74066 -1.275223,1.68147 -1.013783,1.66732 -1.031851,1.73991 -0.714872,2.87204 0.319894,1.14255 0.340688,1.15902 1.27522,1.00982 0.596924,-0.0953 1.171474,-0.42523 1.545836,-0.88767 z m -41.747555,-1.58977 c -0.795393,-0.83337 -1.486064,-1.57751 -1.534824,-1.65364 -0.254822,-0.39787 -1.366554,1.43873 -1.366554,2.25758 v 0.91129 h 2.173774 2.173775 z m 46.102863,0.51601 1.511533,-0.10513 -0.499866,-1.31554 c -0.274926,-0.72355 -0.828879,-1.7469 -1.231001,-2.27411 l -0.731133,-0.95856 -0.299239,1.30492 c -0.164579,0.71771 -0.499179,1.68597 -0.743553,2.15169 -0.598122,1.13987 -0.590087,1.78975 0.01871,1.51263 0.254661,-0.11593 1.143212,-0.25808 1.974556,-0.3159 z m 14.231173,-5.61536 v -6.08542 h -5.688542 -5.688541 v 1.8819 1.88191 l 1.785937,1.65903 c 0.982266,0.91247 2.083594,2.146 2.447396,2.74119 0.485632,0.7945 0.837284,1.08431 1.322917,1.09026 0.917112,0.0112 2.324917,0.92342 2.857603,1.85158 0.332348,0.57908 0.681005,0.80144 1.373589,0.87604 0.510501,0.055 1.07701,0.11998 1.258911,0.14445 0.256286,0.0345 0.33073,-1.32528 0.33073,-6.04094 z m -38.793887,3.41477 -0.741688,-1.65271 -0.46115,1.0372 c -0.447326,1.0061 -0.445638,1.04435 0.05633,1.27606 0.284615,0.13138 0.51748,0.34358 0.51748,0.47155 0,0.23289 1.110967,0.75499 1.28067,0.60186 0.04953,-0.0447 -0.243713,-0.82497 -0.651642,-1.73396 z m 28.673056,1.07102 c 0.677145,-0.29003 0.825979,-0.48206 0.701879,-0.90559 -0.169127,-0.57718 -1.36312,-2.52187 -1.548376,-2.52187 -0.06155,0 -0.05082,0.38695 0.02384,0.85989 0.07466,0.47295 0.01892,1.37208 -0.123881,1.99808 -0.14279,0.626 -0.181594,1.09304 -0.08623,1.03788 0.09537,-0.0552 0.560112,-0.26594 1.032769,-0.46839 z m -32.967905,-1.17043 c -0.40805,-1.13474 -0.438438,-1.15881 -0.751585,-0.59531 -0.625473,1.12551 -0.380395,1.70226 0.746595,1.75697 0.396534,0.0193 0.396926,-0.0717 0.005,-1.16166 z m -28.92731,-3.28355 0.08291,-0.82556 h -2.133431 -2.13343 v 2.53799 2.53799 l 2.050521,-1.71242 c 1.644574,-1.37341 2.066935,-1.87587 2.13343,-2.538 z m 4.811882,3.24505 c 0,-0.056 -0.297656,-0.10186 -0.661458,-0.10186 -0.487582,0 -0.661458,0.1407 -0.661458,0.53526 0,0.51014 0.03105,0.51492 0.661458,0.10186 0.363802,-0.23837 0.661458,-0.47924 0.661458,-0.53526 z m 25.929166,0.32424 c 0,-0.18503 0.294838,-0.9188 0.655195,-1.6306 0.504431,-0.99638 0.61772,-1.52856 0.492324,-2.31273 l -0.162873,-1.01855 -1.153781,1.13235 c -1.272088,1.24846 -1.382472,1.76283 -0.728866,3.39636 0.392303,0.98045 0.898001,1.22439 0.898001,0.43317 z m 5.53113,-2.38021 c 0.266456,-0.32106 -0.199369,-2.54381 -0.533109,-2.54381 -0.10138,0 -0.740431,0.50601 -1.420114,1.12448 l -1.235789,1.12448 0.74717,1.60889 0.74717,1.6089 0.722415,-1.31095 c 0.397328,-0.72102 0.834846,-1.44642 0.972257,-1.61199 z m 14.652206,1.35879 0.984176,-1.65364 -1.303668,-1.25677 c -0.717018,-0.69123 -1.407954,-1.25677 -1.535414,-1.25677 -0.127458,0 -0.47643,0.57915 -0.775491,1.28701 -0.526757,1.2468 -0.528786,1.30675 -0.06493,1.91823 0.263348,0.34717 0.681083,1.0777 0.928296,1.6234 0.247214,0.5457 0.524489,0.99219 0.616167,0.99219 0.09168,0 0.609568,-0.74414 1.150866,-1.65365 z m -10.52278,-0.0449 0.987888,-1.30171 -0.753631,-1.39318 c -0.837756,-1.54871 -0.870876,-1.54566 -2.259828,0.20804 l -0.811686,1.02483 0.87313,1.44066 c 0.480224,0.79237 0.896332,1.41421 0.924687,1.38187 0.02835,-0.0323 0.496102,-0.64457 1.03944,-1.36051 z m 5.291534,-0.19225 0.895765,-1.41645 -1.084701,-1.10905 -1.084699,-1.10904 -0.702183,0.97675 c -0.386202,0.53721 -0.788633,1.12018 -0.894295,1.29547 -0.187677,0.31137 1.622198,3.13093 1.85823,2.89489 0.06386,-0.0639 0.51921,-0.75352 1.011883,-1.53257 z m 9.929865,-0.49041 c 0.122819,-1.72851 0.006,-2.01466 -1.16599,-2.85633 l -1.154864,-0.82936 -0.155167,1.31015 c -0.139901,1.18125 -0.06533,1.44655 0.757991,2.6967 0.502235,0.76261 0.917925,1.50834 0.923751,1.65718 0.02477,0.63286 0.734314,-1.13442 0.794279,-1.97834 z m 4.480983,0.7276 c -0.01029,-2.46217 -1.09574,-3.98802 -3.876537,-5.44941 l -0.575056,-0.30221 0.451284,1.28146 c 0.248205,0.70481 0.949534,1.84751 1.558507,2.53934 0.608975,0.69183 1.319516,1.71875 1.578983,2.28205 0.259463,0.5633 0.561051,1.02725 0.670192,1.03101 0.10914,0.004 0.195823,-0.61825 0.192627,-1.38224 z m -37.086374,0.78848 c 0.403754,-0.48649 0.556085,-38.07789 0.154853,-38.21317 -0.21008,-0.0708 -0.341654,4.17374 -0.466773,15.05808 -0.09583,8.3362 -0.248642,17.03195 -0.339587,19.3239 -0.162288,4.08979 -0.06039,4.68897 0.651507,3.83119 z m 41.325517,0.17301 c 0,-0.24108 -1.780132,-2.62292 -2.25462,-3.01671 -0.224906,-0.18665 0.01177,0.28579 0.525973,1.04988 0.514194,0.76409 0.934897,1.55588 0.934897,1.75953 0,0.20366 0.178594,0.37029 0.396875,0.37029 0.218282,0 0.396875,-0.0733 0.396875,-0.16299 z m -37.306248,-0.59384 c 0,-0.12521 0.281403,-0.64233 0.625343,-1.14915 0.343937,-0.50682 0.679246,-1.28877 0.74513,-1.73767 l 0.11979,-0.81619 -0.678984,0.52832 c -0.624965,0.48628 -2.398779,2.54692 -2.398779,2.78666 0,0.11223 1.065326,0.57156 1.389063,0.59892 0.10914,0.009 0.198437,-0.0857 0.198437,-0.21089 z m -10.882246,-28.61192 0.03466,-18.65312 -1.314101,0.0911 -1.314098,0.0911 -0.07513,2.68705 c -0.06091,2.17871 -0.150207,2.68705 -0.472001,2.68705 -0.320463,0 -0.411456,-0.49668 -0.472601,-2.57969 -0.04165,-1.41883 -0.18074,-2.57969 -0.309089,-2.57969 -0.970769,0 -1.070393,0.29658 -1.070393,3.18655 v 2.86534 l 0.859896,0.0829 0.859896,0.0829 -0.06538,10.58334 c -0.03596,5.82083 -0.136023,14.156 -0.222361,18.5226 l -0.15698,7.93927 1.677572,1.83208 1.677569,1.83208 0.163944,-5.00885 c 0.09017,-2.75487 0.179541,-13.40276 0.198601,-23.66198 z m -8.121181,26.78906 c -0.285245,-0.40018 -0.758616,-0.94447 -1.051936,-1.20953 -0.519943,-0.46986 -0.570388,-0.45732 -2.012931,0.50048 -0.813791,0.54032 -1.479621,1.08462 -1.479621,1.20954 0,0.12491 1.1392,0.22712 2.531557,0.22712 h 2.531559 z m 34.975595,-1.94316 0.758629,-1.07197 -0.758629,-0.83929 c -0.417246,-0.46161 -0.792208,-0.89331 -0.833253,-0.95933 -0.04104,-0.066 -0.432472,0.2378 -0.869838,0.67517 l -0.795214,0.79521 0.694024,1.24174 c 0.381711,0.68295 0.773139,1.2392 0.869836,1.23609 0.0967,-0.003 0.517199,-0.48804 0.934445,-1.07762 z m -3.739785,-2.14956 c -0.20646,-0.7895 -0.539202,-0.80218 -1.515203,-0.0577 -0.932232,0.71105 -1.086045,1.21625 -0.75122,2.4674 0.162901,0.60872 0.210208,0.58475 1.280498,-0.64898 0.705647,-0.8134 1.065562,-1.45614 0.985925,-1.76067 z m 8.286326,2.05066 c 0.539655,-1.29157 0.520092,-1.34205 -0.807759,-2.0842 -1.140339,-0.63735 -1.202394,-0.64469 -1.455209,-0.17231 -0.14524,0.27139 -0.264075,0.64507 -0.264075,0.8304 0,0.29098 1.796862,2.34366 2.051571,2.34366 0.05065,0 0.264615,-0.4129 0.475472,-0.91755 z m -11.834126,-2.37489 c 0.08024,-0.67077 0.04696,-0.69581 -0.529167,-0.39826 -1.675236,0.86519 -2.334583,1.58477 -2.334583,2.54784 v 0.94688 l 1.389063,-1.19034 c 0.9238,-0.79163 1.41774,-1.43008 1.474687,-1.90612 z m 16.711365,1.64865 c 0.0033,-0.58223 -0.292946,-0.91943 -1.568931,-1.78594 -0.86514,-0.5875 -1.639046,-1.06819 -1.719792,-1.06819 -0.08075,0 -0.145997,0.38695 -0.145002,0.85989 0.0013,0.67758 0.189391,0.98761 0.886521,1.46224 0.486592,0.33129 1.162573,0.8981 1.502182,1.2596 0.695934,0.74079 1.038077,0.50257 1.045022,-0.7276 z m -20.368865,-1.19558 c 0,-0.36888 -2.236962,1.22941 -2.417556,1.72733 -0.181901,0.50152 0.01011,0.41335 1.098563,-0.50444 0.725446,-0.6117 1.318993,-1.16201 1.318993,-1.22289 z m 52.387502,-4.44339 v -6.48902 l -4.167192,0.0729 -4.167187,0.0729 -0.0748,6.07048 c -0.04114,3.33876 -0.01511,6.22603 0.05784,6.41615 0.101295,0.26397 1.10387,0.34567 4.241993,0.34567 h 4.109346 z m -5.244638,4.45581 c 0.06827,-0.35453 0.334113,-0.48035 1.014925,-0.48035 1.345444,0 1.264709,0.7656 -0.09251,0.87723 -0.860975,0.0708 -1.000892,0.0106 -0.922415,-0.39688 z m -0.04703,-2.84562 c 0,-0.30667 0.277855,-0.41285 1.080381,-0.41285 1.378546,0 1.287135,0.62562 -0.108646,0.74358 -0.739169,0.0625 -0.971735,-0.0167 -0.971735,-0.33073 z m 0,-2.92639 c 0,-0.28663 0.293981,-0.39688 1.058334,-0.39688 0.764352,0 1.058333,0.11025 1.058333,0.39688 0,0.28663 -0.293981,0.39687 -1.058333,0.39687 -0.764353,0 -1.058334,-0.11024 -1.058334,-0.39687 z m 8.731248,3.07356 c 0,-4.68322 -0.006,-4.73327 -0.59531,-4.89117 -1.58181,-0.42391 -1.52136,-0.61178 -1.52136,4.72802 v 4.8948 h 1.05834 1.05833 z m 7.40833,2.2181 v -2.51354 h -3.0427 -3.04271 v 2.51354 2.51355 h 3.04271 3.0427 z m -3.79236,0.22049 c -0.46094,-0.46094 -0.12414,-0.88194 0.70556,-0.88194 1.0475,0 1.33791,0.21832 0.93545,0.70326 -0.30785,0.37093 -1.33673,0.48296 -1.64101,0.17868 z m -79.853604,-26.34809 0.03764,-7.34219 h -1.047634 -1.047633 l -0.07685,2.18282 c -0.06089,1.72973 -0.159224,2.18281 -0.473721,2.18281 -0.325855,0 -0.381862,-0.36694 -0.312983,-2.05052 0.07041,-1.72099 0.01725,-2.05052 -0.330729,-2.05052 -0.342985,0 -0.414621,0.37772 -0.414621,2.18621 0,1.99179 0.05141,2.20945 0.57807,2.4474 0.56684,0.2561 0.577109,0.35626 0.528624,5.15597 -0.0272,2.69214 -0.125939,8.72258 -0.21943,13.40098 l -0.169984,8.50619 1.295006,1.50073 1.295006,1.50073 0.160797,-10.13921 c 0.08844,-5.57657 0.177734,-13.4432 0.198438,-17.4814 z m 43.429304,27.4156 c 0,-0.3855 -1.143458,-1.97639 -1.593755,-2.21738 -1.389319,-0.74354 -1.369054,-0.0391 0.03816,1.32655 1.012793,0.98288 1.555596,1.29373 1.555595,0.89083 z m -50.446781,-0.69268 c -0.293026,-0.32743 -2.177904,-2.50032 -4.188614,-4.82865 -2.010711,-2.32833 -3.87531,-4.46815 -4.143553,-4.75515 -0.475023,-0.50824 -0.487716,-0.38257 -0.487716,4.82865 v 5.35046 h 4.676329 4.676329 z m 39.547382,-2.03944 c -0.435512,-0.35297 -0.704569,-0.41599 -0.940704,-0.22033 -0.47362,0.39244 -0.411539,0.75058 0.252666,1.45759 l 0.583396,0.621 0.357312,-0.68195 c 0.324437,-0.61921 0.301193,-0.72743 -0.25267,-1.17631 z m -2.77491,-0.17375 c -0.361214,-0.94131 -1.848741,0.24582 -1.537359,1.2269 0.180864,0.56986 0.185944,0.56907 0.929929,-0.14371 0.411437,-0.39418 0.684781,-0.88162 0.60743,-1.08319 z m -2.903781,0.12889 c 0.122624,-0.0957 -0.175032,-0.0931 -0.661458,0.006 -0.675677,0.13739 -0.90597,0.33364 -0.975767,0.8315 l -0.09136,0.65166 0.752816,-0.6575 c 0.414049,-0.36162 0.853144,-0.73579 0.975767,-0.83149 z m 9.698924,1.10456 c 0,-0.13868 -0.138174,-0.55539 -0.307054,-0.92604 -0.239808,-0.52633 -0.500552,-0.67391 -1.190625,-0.67391 -1.185294,0 -1.138764,0.54182 0.108616,1.26483 1.102072,0.63879 1.389063,0.70803 1.389063,0.33512 z m 4.453927,-4.01125 c -0.178517,-1.07488 -0.318482,-4.03792 -0.311034,-6.58453 0.01259,-4.30735 0.07017,-4.84238 0.825683,-7.67292 0.875159,-3.27882 2.275178,-6.78401 3.513796,-8.7974 l 0.773152,-1.25677 h -0.940991 c -1.46282,0 -1.95132,0.42605 -2.93861,2.56291 -1.754677,3.79777 -3.131455,9.08517 -2.754593,6.48401 0.59569,-4.11151 1.241393,-5.94249 4.26303,-12.08839 1.622059,-3.29921 2.887752,-6.06002 2.812647,-6.13513 -0.364715,-0.36471 -2.282497,0.66925 -3.500538,1.88729 -2.894636,2.89463 -3.695922,2.17584 -0.46039,-1.14276 1.248092,-1.28013 1.63713,-1.95055 2.764345,-4.7637 0.721511,-1.80065 1.274043,-3.3117 1.227849,-3.35789 -0.04619,-0.0462 -0.854967,0.29064 -1.797277,0.74853 -3.40931,1.65663 -6.852388,5.94399 -8.230328,10.24848 -0.583197,1.82183 -0.646191,0.87705 -0.07175,-1.07605 0.844537,-2.87141 2.459107,-5.53749 4.758412,-7.85741 l 2.167559,-2.18698 1.108459,-3.98839 c 0.609656,-2.19362 1.045181,-4.05167 0.967838,-4.12902 -0.2965,-0.2965 -2.482681,1.26537 -4.033091,2.88136 -2.58272,2.69196 -4.612788,6.21479 -6.199039,10.75734 -0.468768,1.34242 -0.904761,2.3883 -0.968873,2.32419 -0.200911,-0.20091 1.96065,-6.3707 2.850722,-8.13688 1.148172,-2.27832 2.400154,-4.20542 3.608765,-5.55476 0.660784,-0.73772 0.832991,-1.05778 0.502674,-0.93429 -0.276344,0.10332 -1.586031,0.37748 -2.910416,0.60924 -3.607771,0.63134 -9.765757,0.23383 -13.183888,-0.85104 -0.341927,-0.10852 0.03215,0.52535 1.111856,1.88405 0.894932,1.12617 2.163045,3.11463 2.818034,4.41879 1.208156,2.40558 3.01407,7.39623 3.004116,8.30189 -0.003,0.27261 -0.35678,-0.54175 -0.786188,-1.80968 -0.846738,-2.5002 -2.664846,-6.2717 -3.907163,-8.10505 -1.560935,-2.30356 -5.88138,-6.17805 -5.886484,-5.27889 -0.0011,0.18889 0.485646,2.06985 1.081593,4.1799 1.019466,3.6096 1.144394,3.88562 2.112634,4.66775 2.611088,2.10919 4.805926,5.55469 5.781866,9.07649 0.632933,2.28402 0.55146,2.81598 -0.116224,0.75884 -1.391208,-4.28633 -4.49631,-8.13287 -8.063232,-9.98859 l -2.121173,-1.10355 0.559028,1.40339 c 0.307464,0.77186 0.916863,2.3336 1.354217,3.47055 0.578842,1.50474 1.085363,2.33258 1.861711,3.0427 3.390667,3.10143 3.033562,5.09614 0.324035,1.95716 -0.868312,-1.00594 -3.103745,-2.43682 -3.806989,-2.43682 -0.301722,0 0.790067,2.45197 3.563409,8.00281 2.218906,4.44114 2.875306,6.45342 3.43096,10.51802 0.400365,2.92867 -0.459282,1.23785 -1.224804,-2.07929 -0.590526,-2.55885 -1.907574,-5.87637 -2.571406,-6.47713 -0.426378,-0.38586 -2.692841,-0.92753 -2.692841,-0.64356 0,0.0704 0.589568,1.24796 1.31015,2.61672 1.506725,2.86206 2.712215,6.35406 3.34404,9.68685 0.505388,2.66587 0.374171,8.89665 -0.254244,12.07257 l -0.359074,1.81471 0.956128,-0.16702 c 4.583951,-0.80072 10.473096,-0.83484 13.920707,-0.0806 0.873125,0.19101 1.620867,0.32817 1.661647,0.3048 0.04078,-0.0234 -0.07191,-0.92193 -0.250428,-1.99681 z M 24.483413,263.88579 24.642237,252.57486 H 23.105315 21.56839 l -0.174802,7.18673 c -0.09614,3.95271 -0.174802,8.78834 -0.174802,10.74585 v 3.5591 l 1.3858,1.59965 1.385798,1.59965 0.167102,-1.03455 c 0.09191,-0.56901 0.238573,-6.12448 0.325927,-12.3455 z M 98.68171,268.516 c -0.223623,-0.25466 -0.488225,-0.73091 -0.588005,-1.05833 -0.148008,-0.48569 -0.37302,-0.59531 -1.22192,-0.59531 -0.820697,0 -1.040503,0.0993 -1.040503,0.47029 0,0.25867 -0.185346,0.73492 -0.411877,1.05833 l -0.411879,0.58804 h 2.040384 c 1.921727,0 2.016742,-0.0269 1.6338,-0.46302 z m -1.366912,-3.39508 c -0.08833,-0.23018 -0.162422,-0.67666 -0.16465,-0.99218 -0.0033,-0.46739 -0.05157,-0.50014 -0.260532,-0.1768 -0.413436,0.63975 -0.317556,1.5875 0.160599,1.5875 0.279008,0 0.369969,-0.14388 0.264583,-0.41852 z M 36.580284,237.26008 c -0.421822,-0.52641 -1.345406,-1.52192 -2.052404,-2.21225 l -1.285452,-1.25516 -2.167014,2.1812 -2.167012,2.1812 4.219419,0.031 4.219419,0.0311 z m -2.52921,-6.38106 c 0,-0.52524 -0.150146,-0.67872 -0.72911,-0.74532 -0.781965,-0.0899 -1.172241,0.41972 -0.888201,1.15992 0.103749,0.27037 0.412729,0.38542 0.888201,0.33073 0.578964,-0.0666 0.72911,-0.22008 0.72911,-0.74533 z m 29.043351,-3.0811 c 0.977008,-0.16147 0.994362,-0.18454 0.843949,-1.12157 -0.554585,-3.45493 -1.139494,-4.52857 -2.467112,-4.52857 -1.310312,0 -2.161151,1.4222 -2.562831,4.28385 l -0.174212,1.24114 1.284467,0.10023 c 0.706459,0.0551 1.463064,0.12038 1.681345,0.14501 0.218281,0.0246 0.845759,-0.0294 1.394394,-0.12009 z m 3.125163,-0.35848 c 0.552828,0 0.191127,-0.74196 -0.418516,-0.85851 -0.561054,-0.10725 -0.661458,-0.0273 -0.661458,0.52663 0,0.48682 0.106545,0.61219 0.418515,0.49248 0.230183,-0.0883 0.527839,-0.1606 0.661459,-0.1606 z m -8.488307,-0.52917 c 0,-0.41157 -0.17639,-0.52916 -0.79375,-0.52916 -0.485068,0 -0.79375,0.13719 -0.79375,0.35278 0,0.50985 0.269092,0.70555 0.97014,0.70555 0.44097,0 0.61736,-0.15119 0.61736,-0.52917 z m 4.074311,-7.47447 c -0.211318,-1.65608 -0.368771,-1.95331 -0.373756,-0.70556 -0.0021,0.4972 -0.07541,1.17188 -0.163153,1.49931 -0.118289,0.4414 -0.0466,0.59531 0.27731,0.59531 0.373108,0 0.410985,-0.20267 0.259599,-1.38906 z m -19.038553,81.81979 c -0.452954,-0.0785 -0.778465,-0.29975 -0.778465,-0.52917 0,-0.34462 2.190712,-0.40284 17.396353,-0.46232 17.263337,-0.0675 17.396353,-0.064 17.396353,0.46302 0,0.29209 -0.0893,0.53928 -0.198437,0.54931 -1.086483,0.0999 -33.23339,0.0801 -33.815804,-0.0208 z m 43.274657,-1.05574 c 0,-0.48413 0.17639,-0.52916 2.072569,-0.52916 2.186596,0 2.476262,0.0886 2.246519,0.68732 -0.1055,0.27493 -0.683197,0.37101 -2.230729,0.37101 -1.911969,0 -2.088359,-0.0447 -2.088359,-0.52917 z"
         id="path840"
         inkscape:connector-curvature="0"
         sodipodi:nodetypes="ccscccccccsccccsccccssscccccscsccssccsccscsscscsccscscccsccsccsccsssscsssccscsscccscccccccsscccsccsccccsscsssccsscscsscsccscssccsccccccsccccccccccccsccccccscccssccscccsssscssccccscssscssscscssssccccccccccssccccscscccsssccscccsscccccccccccccccccccccsccccscccccscccccsccscccccsccccsccccsccccsccsccsccccssscccccccccccscccccccccscccccccccccccscscccscsccccccccccsscccscccccccccsccccccscscscsscccccccsccccccccccscccccccscscscccccccsscccccscccscscsccccsccccccccscsccscssccccscccccscccssscssccscccsccccscccccscccccsccsccccscsccccccscccsccccccccccccccscccccccccccsscccscsccsccccccccccccccccscssscsscccscssscccccscccssccsccsccccccssccccccssccsccsccccccccccsccsccsssscsccscscccccscsscccsscccscccccssccccsccccccccccccsccsssccscccccsccccscssccccscscccsccsscssssssscscccscccccccccsscscccccssssccscccsccccsccsssccccccccccccsccccccccscscscccscsscscscsccscccscscccccsccscsccscssccscccsssscsscsccccccscccssccccsccssccsccscscccccccccscccsccsccaccscscsssssssccsscscscccsssss" />
      <path
         style="fill:none;stroke:#000000;stroke-width:0.26458332px;stroke-linecap:butt;stroke-linejoin:miter;stroke-opacity:1"
         d="m 53.063486,275.70423 16.128016,-0.022"
         id="path829"
         inkscape:connector-curvature="0" />
    </g>
  </g>
</svg>
