<?xml version="1.0" encoding="UTF-8" standalone="no"?>
<!-- Generator: Adobe Illustrator 16.0.0, SVG Export Plug-In . SVG Version: 6.00 Build 0)  -->

<svg
   version="1.1"
   id="Capa_1"
   x="0px"
   y="0px"
   width="95.562px"
   height="95.562px"
   viewBox="0 0 95.562 95.562"
   style="enable-background:new 0 0 95.562 95.562;"
   xml:space="preserve"
   sodipodi:docname="madrid_metro.svg"
   inkscape:version="1.1 (c68e22c387, 2021-05-23)"
   xmlns:inkscape="http://www.inkscape.org/namespaces/inkscape"
   xmlns:sodipodi="http://sodipodi.sourceforge.net/DTD/sodipodi-0.dtd"
   xmlns="http://www.w3.org/2000/svg"
   xmlns:svg="http://www.w3.org/2000/svg"><defs
   id="defs51">
	
</defs><sodipodi:namedview
   id="namedview49"
   pagecolor="#ffffff"
   bordercolor="#666666"
   borderopacity="1.0"
   inkscape:pageshadow="2"
   inkscape:pageopacity="0.0"
   inkscape:pagecheckerboard="0"
   showgrid="false"
   inkscape:zoom="8.9784646"
   inkscape:cx="25.672541"
   inkscape:cy="47.613932"
   inkscape:window-width="1920"
   inkscape:window-height="1017"
   inkscape:window-x="-8"
   inkscape:window-y="-8"
   inkscape:window-maximized="1"
   inkscape:current-layer="g14" />
<g
   id="g14">
		
		
		
		
		<path
   d="M 47.780998,21.555316 4.9286177,47.780998 47.780998,74.00668 90.633379,47.780998 Z m 0,11.37923 10.498524,6.424136 H 37.283371 Z M 27.295155,50.090386 23.521211,47.780998 27.295155,45.47161 Z M 47.780998,62.62745 37.283371,56.202418 H 58.279522 Z M 67.406763,55.344133 H 28.154337 V 40.217864 h 39.252426 z m 0.860079,-9.872523 3.773047,2.309388 -3.773047,2.309388 z"
   id="path12"
   style="fill:none;stroke:#000000;stroke-width:2.24212;stroke-linecap:round;stroke-miterlimit:4;stroke-dasharray:none;stroke-opacity:1;paint-order:stroke fill markers" /><rect
   style="fill:#0d4ea2;fill-opacity:1;fill-rule:evenodd;stroke-width:1.6309"
   id="rect1024"
   width="38"
   height="13.5"
   x="28.780998"
   y="41.030998" /><g
   id="g952"
   transform="translate(5.1765204,3.1679325)"
   style="fill:#ffffff"><path
     d="m 44.204458,46.872679 c 0,0.550666 0.06816,0.957835 0.206275,1.222406 0.138115,0.264571 0.356946,0.473537 0.656494,0.626001 0.299548,0.150671 0.656494,0.2278 1.073529,0.2278 h 1.052902 v -1.238549 c -0.435869,0 -1.096847,-0.07175 -1.252002,-0.216141 -0.156052,-0.143496 -0.234975,-0.413448 -0.234975,-0.808959 v -3.083369 h 1.382046 v -1.105816 h -1.381149 v -1.751548 h -1.415229 v 1.751548 h -0.946177 v 1.106712 h 0.858286 z"
     id="path2"
     style="stroke-width:0.89685;fill:#ffffff" /><polygon
     points="39.665,42.946 36.729,42.946 34.598,49.074 32.428,42.946 29.391,42.946 29.391,52.462 31.032,52.462 31.032,44.131 33.915,52.462 34.893,52.462 37.761,44.131 37.761,52.462 39.665,52.462 "
     id="polygon4"
     transform="matrix(0.89684981,0,0,0.89684981,-0.24700609,1.7611336)"
     style="fill:#ffffff" /><path
     d="m 55.83929,48.943505 c 0.943486,0 1.721952,-0.303135 2.336294,-0.911199 0.615239,-0.606271 0.921065,-1.407158 0.921065,-2.404455 0,-0.965907 -0.295961,-1.752444 -0.887882,-2.356921 -0.591921,-0.604477 -1.347965,-0.906715 -2.268133,-0.906715 -0.970391,0 -1.751547,0.31031 -2.343468,0.931827 -0.591024,0.621517 -0.886985,1.399085 -0.886985,2.331809 0,0.868151 0.267261,1.636751 0.803578,2.307595 0.533625,0.672637 1.3094,1.008059 2.325531,1.008059 z m -1.096847,-4.830433 c 0.259189,-0.385645 0.6547,-0.578468 1.191016,-0.578468 0.516586,0 0.900438,0.186545 1.149762,0.560531 0.249324,0.373089 0.373986,0.881603 0.373986,1.528232 0,1.429579 -0.521966,2.145265 -1.565003,2.145265 -0.47533,0 -0.852007,-0.182061 -1.125546,-0.543491 -0.275333,-0.362328 -0.411654,-0.887882 -0.411654,-1.574868 0.0018,-0.641248 0.130043,-1.151556 0.387439,-1.537201 z"
     id="path6"
     style="stroke-width:0.89685;fill:#ffffff" /><path
     d="m 39.443082,48.943505 c 0.793712,0 1.453794,-0.185648 1.979348,-0.556944 0.52645,-0.371296 0.878912,-0.842142 1.06187,-1.413435 L 41.082523,46.79824 c -0.268158,0.684297 -0.784743,1.026893 -1.55155,1.026893 -0.393717,0 -0.723757,-0.09596 -0.986534,-0.287889 -0.262777,-0.191925 -0.43856,-0.417035 -0.527348,-0.674431 -0.08879,-0.258292 -0.131837,-0.602683 -0.131837,-1.032274 h 4.714739 l 0.0072,-0.162329 c 0,-0.965908 -0.268158,-1.758723 -0.803577,-2.375756 -0.53542,-0.617032 -1.292361,-0.925549 -2.272618,-0.925549 -1.001781,0 -1.795493,0.313001 -2.380239,0.938105 -0.584746,0.625105 -0.878016,1.415229 -0.878016,2.369477 0,1.004472 0.289682,1.800875 0.870841,2.389208 0.579365,0.585643 1.346172,0.87981 2.299523,0.87981 z m -1.054695,-5.173927 c 0.285198,-0.269054 0.641247,-0.403582 1.067251,-0.403582 0.431385,0 0.792815,0.143496 1.085188,0.431385 0.292373,0.286992 0.44125,0.658288 0.445735,1.11299 h -3.102204 c 0.05022,-0.491473 0.217935,-0.872634 0.50403,-1.140793 z"
     id="path8"
     style="stroke-width:0.89685;fill:#ffffff" /><path
     d="m 50.076133,45.886144 c 0,-0.433178 0.129147,-0.881603 0.383852,-1.344378 0.257396,-0.462774 0.779363,-0.694162 1.569487,-0.694162 v -1.531819 c -0.08789,-0.0036 -0.156052,-0.0054 -0.205378,-0.0054 -0.367709,0 -0.726449,0.135424 -1.075323,0.406273 -0.348875,0.270848 -0.622414,0.700439 -0.823308,1.287876 v -1.506708 h -1.40088 v 6.315617 h 1.55155 z"
     id="path10"
     style="stroke-width:0.89685;fill:#ffffff" /></g>
		
	<path
   style="fill:#ed1c22;stroke:none;stroke-width:0.111378;fill-opacity:1"
   d="M 27.733027,60.361056 C 16.7679,53.648301 7.6608609,48.07052 7.4951613,47.965989 L 7.1938893,47.775932 27.376066,35.419541 C 38.476264,28.623525 47.658483,23.062758 47.780998,23.06228 c 0.122516,-4.78e-4 9.30356,5.558724 20.402321,12.353781 16.963912,10.385913 20.149721,12.375027 19.992282,12.482523 -0.712665,0.486592 -40.192573,24.592572 -40.331027,24.625665 -0.09622,0.023 -9.146421,-5.450438 -20.111547,-12.163193 z m 26.184515,-0.105765 6.097637,-3.73115 h 4.266857 4.266856 l 0.02986,-2.629524 0.02986,-2.629523 2.78444,-1.705456 c 1.531443,-0.938002 2.768363,-1.746983 2.748714,-1.797738 -0.01965,-0.05075 -1.272648,-0.851415 -2.78444,-1.779247 l -2.748714,-1.686968 -0.02986,-2.628915 -0.02986,-2.628915 h -4.266856 -4.266857 l -6.097637,-3.73115 c -3.353702,-2.052133 -6.114586,-3.73115 -6.1353,-3.73115 -0.02071,0 -2.779734,1.679017 -6.131155,3.73115 l -6.093493,3.73115 h -4.272245 -4.272245 l -0.02986,2.630679 -0.02986,2.630678 -2.766642,1.696669 c -1.521653,0.933169 -2.774651,1.731559 -2.78444,1.774201 -0.0098,0.04264 1.235199,0.845945 2.766641,1.785117 l 2.784441,1.707585 0.02986,2.630678 0.02986,2.630679 h 4.273776 4.273775 l 6.054483,3.721424 c 3.329966,2.046784 6.088297,3.725802 6.129625,3.73115 0.04133,0.0053 2.819077,-1.669291 6.172779,-3.721424 z"
   id="path1285" /></g>
<g
   id="g18">
</g>
<g
   id="g20">
</g>
<g
   id="g22">
</g>
<g
   id="g24">
</g>
<g
   id="g26">
</g>
<g
   id="g28">
</g>
<g
   id="g30">
</g>
<g
   id="g32">
</g>
<g
   id="g34">
</g>
<g
   id="g36">
</g>
<g
   id="g38">
</g>
<g
   id="g40">
</g>
<g
   id="g42">
</g>
<g
   id="g44">
</g>
<g
   id="g46">
</g>
</svg>
