<?xml version="1.0" encoding="UTF-8" standalone="no"?>
<!-- Generator: Adobe Illustrator 19.0.0, SVG Export Plug-In . SVG Version: 6.00 Build 0)  -->

<svg
   xmlns:dc="http://purl.org/dc/elements/1.1/"
   xmlns:cc="http://creativecommons.org/ns#"
   xmlns:rdf="http://www.w3.org/1999/02/22-rdf-syntax-ns#"
   xmlns:svg="http://www.w3.org/2000/svg"
   xmlns="http://www.w3.org/2000/svg"
   xmlns:sodipodi="http://sodipodi.sourceforge.net/DTD/sodipodi-0.dtd"
   xmlns:inkscape="http://www.inkscape.org/namespaces/inkscape"
   version="1.1"
   id="Layer_1"
   x="0px"
   y="0px"
   viewBox="0 0 256 256"
   xml:space="preserve"
   sodipodi:docname="malta_flag.svg"
   inkscape:version="0.92.4 (5da689c313, 2019-01-14)"
   width="256"
   height="256"><metadata
   id="metadata59"><rdf:RDF><cc:Work
       rdf:about=""><dc:format>image/svg+xml</dc:format><dc:type
         rdf:resource="http://purl.org/dc/dcmitype/StillImage" /><dc:title></dc:title></cc:Work></rdf:RDF></metadata><defs
   id="defs57" /><sodipodi:namedview
   pagecolor="#ffffff"
   bordercolor="#666666"
   borderopacity="1"
   objecttolerance="10"
   gridtolerance="10"
   guidetolerance="10"
   inkscape:pageopacity="0"
   inkscape:pageshadow="2"
   inkscape:window-width="1920"
   inkscape:window-height="986"
   id="namedview55"
   showgrid="false"
   inkscape:zoom="1.3037281"
   inkscape:cx="-67.610394"
   inkscape:cy="139.06484"
   inkscape:window-x="-11"
   inkscape:window-y="-11"
   inkscape:window-maximized="1"
   inkscape:current-layer="Layer_1" />
<path
   style="fill:#ff4b55;stroke:#000000;stroke-width:8;stroke-miterlimit:4;stroke-dasharray:none;stroke-opacity:1"
   d="M 245.4067,48.3311 H 128 v 159.3378 h 117.4067 c 2.31563,0 4.1933,-1.87768 4.1933,-4.1933 V 52.523925 c 0,-2.315625 -1.87768,-4.192825 -4.1933,-4.192825 z"
   id="path2"
   inkscape:connector-curvature="0" />
<path
   style="fill:#f5f5f5;stroke:#000000;stroke-width:8;stroke-miterlimit:4;stroke-dasharray:none;stroke-opacity:1"
   d="M 10.5933,207.6689 H 128 V 48.3311 H 10.5933 C 8.27767,48.3311 6.4,50.2083 6.4,52.523925 V 203.4756 c 0,2.3161 1.87767,4.1933 4.1933,4.1933 z"
   id="path4"
   inkscape:connector-curvature="0" />
<path
   style="fill:#ff4b55;stroke-width:0.47499999"
   d="m 47.3429,64.11515 v 11.2195 c 0.61797,0.02425 1.3072,0.304475 1.88005,0.877325 0.57285,0.57285 0.85405,1.262075 0.87732,1.88005 h 11.2195 v 11.1815 H 50.0998 c -0.0242,0.617975 -0.30448,1.3072 -0.87733,1.88005 -0.57285,0.57285 -1.26207,0.8531 -1.88005,0.877325 v 11.2195 H 36.16092 V 92.0309 c -0.61797,-0.02425 -1.3072,-0.304475 -1.88005,-0.877325 -0.57285,-0.57285 -0.8531,-1.262075 -0.87732,-1.88005 H 22.18405 V 78.0925 h 11.2195 c 0.0242,-0.617975 0.30447,-1.3072 0.87732,-1.88005 0.57285,-0.57285 1.26208,-0.8531 1.88005,-0.877325 v -11.2195 H 47.3429 m 1.39697,-1.3984 H 47.34195 36.16045 34.763 v 1.397925 10.118925 c -0.53343,0.2185 -1.03408,0.553375 -1.4706,0.989425 -0.43653,0.436525 -0.77093,0.937175 -0.9899,1.4706 H 22.18405 20.78612 v 1.397925 11.1815 1.397925 h 1.39793 10.11892 c 0.21898,0.533425 0.55338,1.03455 0.9899,1.4706 0.43605,0.43605 0.9367,0.770925 1.47013,0.989425 v 10.118925 1.39745 h 1.39792 11.1815 1.39793 V 103.24993 93.131 c 0.53342,-0.2185 1.03407,-0.553375 1.4706,-0.9899 0.43605,-0.43605 0.77092,-0.9367 0.98942,-1.470125 H 61.3193 62.71675 V 89.27305 78.09155 76.693625 H 61.31882 51.20085 C 50.98235,76.1602 50.64747,75.65955 50.21095,75.223025 49.7749,74.786975 49.27425,74.4521 48.74035,74.2336 V 64.11515 Z"
   id="path6"
   inkscape:connector-curvature="0" />
<polygon
   style="fill:#cdcdcd"
   points="73.564,108.874 50.023,108.874 50.023,138.298 20.598,138.298 20.598,161.839 50.023,161.839 50.023,191.264 73.564,191.264 73.564,161.839 102.988,161.839 102.988,138.298 73.564,138.298 "
   id="polygon8"
   transform="matrix(0.475,0,0,0.475,12.4,12.4)" />
<g
   id="g22"
   transform="matrix(0.475,0,0,0.475,12.4,12.4)">
	<circle
   style="fill:#b4a08c"
   cx="61.792999"
   cy="150.07001"
   r="11.77"
   id="circle10" />
	
		<ellipse
   transform="matrix(-0.7071,-0.7071,0.7071,-0.7071,-32.3423,313.0141)"
   style="fill:#b4a08c"
   cx="48.655998"
   cy="163.205"
   rx="5.2340002"
   ry="3.6630001"
   id="ellipse12" />
	
		<ellipse
   transform="matrix(0.7071,-0.7071,0.7071,0.7071,-93.4508,100.7868)"
   style="fill:#b4a08c"
   cx="74.934998"
   cy="163.198"
   rx="5.2340002"
   ry="3.6630001"
   id="ellipse14" />
	
		<ellipse
   transform="matrix(0.7071,0.7071,-0.7071,0.7071,118.7734,-12.8702)"
   style="fill:#b4a08c"
   cx="74.921997"
   cy="136.937"
   rx="5.2340002"
   ry="3.6630001"
   id="ellipse16" />
	
		<ellipse
   transform="matrix(-0.7071,0.7071,-0.7071,-0.7071,179.8759,199.3544)"
   style="fill:#b4a08c"
   cx="48.650002"
   cy="136.931"
   rx="5.2340002"
   ry="3.6630001"
   id="ellipse18" />
	<path
   style="fill:#b4a08c"
   d="m 61.793,166.182 c -8.885,0 -16.113,-7.226 -16.113,-16.113 0,-8.887 7.228,-16.113 16.113,-16.113 8.885,0 16.113,7.228 16.113,16.113 0,8.885 -7.228,16.113 -16.113,16.113 z m 0,-30.754 c -8.072,0 -14.641,6.569 -14.641,14.641 0,8.072 6.569,14.641 14.641,14.641 8.072,0 14.641,-6.569 14.641,-14.641 0,-8.072 -6.569,-14.641 -14.641,-14.641 z"
   id="path20"
   inkscape:connector-curvature="0" />
</g>
<g
   id="g24"
   transform="matrix(0.475,0,0,0.475,134.4,-121.6)">
</g>
<g
   id="g26"
   transform="matrix(0.475,0,0,0.475,134.4,-121.6)">
</g>
<g
   id="g28"
   transform="matrix(0.475,0,0,0.475,134.4,-121.6)">
</g>
<g
   id="g30"
   transform="matrix(0.475,0,0,0.475,134.4,-121.6)">
</g>
<g
   id="g32"
   transform="matrix(0.475,0,0,0.475,134.4,-121.6)">
</g>
<g
   id="g34"
   transform="matrix(0.475,0,0,0.475,134.4,-121.6)">
</g>
<g
   id="g36"
   transform="matrix(0.475,0,0,0.475,134.4,-121.6)">
</g>
<g
   id="g38"
   transform="matrix(0.475,0,0,0.475,134.4,-121.6)">
</g>
<g
   id="g40"
   transform="matrix(0.475,0,0,0.475,134.4,-121.6)">
</g>
<g
   id="g42"
   transform="matrix(0.475,0,0,0.475,134.4,-121.6)">
</g>
<g
   id="g44"
   transform="matrix(0.475,0,0,0.475,134.4,-121.6)">
</g>
<g
   id="g46"
   transform="matrix(0.475,0,0,0.475,134.4,-121.6)">
</g>
<g
   id="g48"
   transform="matrix(0.475,0,0,0.475,134.4,-121.6)">
</g>
<g
   id="g50"
   transform="matrix(0.475,0,0,0.475,134.4,-121.6)">
</g>
<g
   id="g52"
   transform="matrix(0.475,0,0,0.475,134.4,-121.6)">
</g>
</svg>