<?xml version="1.0" encoding="UTF-8" standalone="no"?>
<svg
   xmlns:dc="http://purl.org/dc/elements/1.1/"
   xmlns:cc="http://creativecommons.org/ns#"
   xmlns:rdf="http://www.w3.org/1999/02/22-rdf-syntax-ns#"
   xmlns:svg="http://www.w3.org/2000/svg"
   xmlns="http://www.w3.org/2000/svg"
   xmlns:sodipodi="http://sodipodi.sourceforge.net/DTD/sodipodi-0.dtd"
   xmlns:inkscape="http://www.inkscape.org/namespaces/inkscape"
   version="1.1"
   viewBox="0 0 470 470"
   enable-background="new 0 0 470 470"
   id="svg10"
   sodipodi:docname="manchester-tram.svg"
   inkscape:version="0.92.4 (5da689c313, 2019-01-14)">
  <metadata
     id="metadata16">
    <rdf:RDF>
      <cc:Work
         rdf:about="">
        <dc:format>image/svg+xml</dc:format>
        <dc:type
           rdf:resource="http://purl.org/dc/dcmitype/StillImage" />
      </cc:Work>
    </rdf:RDF>
  </metadata>
  <defs
     id="defs14" />
  <sodipodi:namedview
     pagecolor="#ffffff"
     bordercolor="#666666"
     borderopacity="1"
     objecttolerance="10"
     gridtolerance="10"
     guidetolerance="10"
     inkscape:pageopacity="0"
     inkscape:pageshadow="2"
     inkscape:window-width="1920"
     inkscape:window-height="986"
     id="namedview12"
     showgrid="false"
     inkscape:zoom="0.50212766"
     inkscape:cx="389.74824"
     inkscape:cy="221.43628"
     inkscape:window-x="-11"
     inkscape:window-y="-11"
     inkscape:window-maximized="1"
     inkscape:current-layer="svg10" />
  <rect
     style="fill:#ffe713;fill-opacity:1;stroke-width:3.77228475;stroke-miterlimit:4;stroke-dasharray:none"
     id="rect4532"
     width="263.72345"
     height="93.218544"
     x="103.82091"
     y="307.41974" />
  <g
     id="g8">
    <path
       d="m386.032,146.681h-9.045v-23.144c0-25.859-21.038-46.898-46.898-46.898h-70.411l26.433-61.639h25.056c4.143,0 7.5-3.358 7.5-7.5s-3.357-7.5-7.5-7.5h-29.929c-0.023,0-0.045,0-0.068,0h-90.215c-0.023,0-0.047,0-0.07,0h-29.929c-4.143,0-7.5,3.358-7.5,7.5s3.357,7.5 7.5,7.5h25.056l26.433,61.639h-72.533c-25.86,0-46.898,21.039-46.898,46.898v23.144h-9.045c-11.304,0-20.5,9.196-20.5,20.5v50.88c0,4.142 3.357,7.5 7.5,7.5s7.5-3.358 7.5-7.5v-50.88c0-3.033 2.468-5.5 5.5-5.5h9.045v240.819c0,4.142 3.357,7.5 7.5,7.5h41.893l-47.197,47.197c-2.145,2.145-2.786,5.371-1.625,8.173 1.16,2.803 3.896,4.63 6.929,4.63h268.975c3.033,0 5.769-1.827 6.929-4.63 1.161-2.803 0.52-6.028-1.625-8.173l-30-29.999c-0.003-0.002-17.199-17.198-17.199-17.198h41.893c4.143,0 7.5-3.358 7.5-7.5v-240.819h9.045c3.032,0 5.5,2.467 5.5,5.5v50.88c0,4.142 3.357,7.5 7.5,7.5s7.5-3.358 7.5-7.5v-50.88c0-11.304-9.196-20.5-20.5-20.5zm-183.7-131.681h67.459l-26.433,61.639h-14.593l-26.433-61.639zm-94.319,108.537c0-17.588 14.31-31.898 31.898-31.898h83.86c0.018,0 0.036,0.004 0.054,0.004 0.026,0 0.052-0.004 0.078-0.004h24.365c0.049,0 81.82,0 81.82,0 17.589,0 31.898,14.31 31.898,31.898v23.144h-253.973v-23.144zm79.487,178.247v-140.103h95v140.104h-95zm-68.881,153.215l15-15h202.761l15,15h-232.761zm202.761-30h-172.761l15-15h142.76l15.001,15zm40.607-30h-253.974v-233.319h64.487v140.104h-41.987c-4.143,0-7.5,3.358-7.5,7.5s3.357,7.5 7.5,7.5h208.975c4.143,0 7.5-3.358 7.5-7.5s-3.357-7.5-7.5-7.5h-41.988v-140.104h64.487v233.319z"
       id="path2" />
    <path
       d="M290,126.66c4.143,0,7.5-3.358,7.5-7.5s-3.357-7.5-7.5-7.5H180c-4.143,0-7.5,3.358-7.5,7.5s3.357,7.5,7.5,7.5H290z"
       id="path4" />
    <path
       d="m235,333.392c-12.406,0-22.5,10.093-22.5,22.5s10.094,22.5 22.5,22.5 22.5-10.093 22.5-22.5-10.094-22.5-22.5-22.5zm0,30c-4.136,0-7.5-3.364-7.5-7.5s3.364-7.5 7.5-7.5 7.5,3.364 7.5,7.5-3.364,7.5-7.5,7.5z"
       id="path6" />
  </g>
  <path
     style="fill:#ffe713;fill-opacity:1;stroke-width:9.03243065;stroke-miterlimit:4;stroke-dasharray:none"
     d="m 108.57696,130.66951 c 1.40671,-18.24188 4.58375,-25.677 13.77223,-32.230722 l 6.5025,-4.637941 104.19207,-0.549512 c 103.33671,-0.545001 104.25443,-0.514462 111.78853,3.719942 11.51492,6.471743 16.03212,16.176053 16.03212,34.441833 v 15.16316 H 234.10736 107.35032 Z m 188.48856,-7.86062 c 2.66625,-4.98192 2.63448,-5.24811 -1.06794,-8.95054 -2.70228,-2.70227 -11.07668,-3.12954 -61.33899,-3.12954 -59.8838,0 -62.9891,0.39272 -62.9891,7.96611 0,7.58521 3.06281,7.9661 64.05705,7.9661 56.56758,0 59.37163,-0.17609 61.33898,-3.85213 z"
     id="path4526"
     inkscape:connector-curvature="0" />
  <path
     style="fill:#ffe713;fill-opacity:1;stroke-width:9.03243065;stroke-miterlimit:4;stroke-dasharray:none"
     d="m 109.02665,134.12924 c 2.07218,-20.09136 4.39534,-26.53777 11.95602,-33.17613 l 7.01186,-6.1565 82.08112,-0.11 c 131.11896,-0.175718 128.8301,-0.246922 136.07919,4.233268 8.55601,5.287912 12.83022,15.205582 14.16624,32.870712 l 1.11824,14.78568 H 234.5911 107.74289 Z m 187.71064,-9.85805 c 3.58845,-3.58846 2.87915,-9.15731 -1.4623,-11.48078 -4.13442,-2.21268 -111.17326,-2.93723 -119.12457,-0.80637 -5.66386,1.51786 -6.43954,11.88156 -0.99576,13.30417 1.91684,0.50092 29.51939,1.01473 61.33898,1.14179 42.60828,0.17014 58.48358,-0.39875 60.24365,-2.15881 z"
     id="path4528"
     inkscape:connector-curvature="0" />
  <path
     style="fill:#c2c2c2;fill-opacity:1;stroke-width:3.1934464;stroke-miterlimit:4;stroke-dasharray:none"
     d="m 187.60791,231.81537 v -69.70694 h 47.17541 47.1754 v 69.70694 69.70695 h -47.1754 -47.17541 z"
     id="path4534"
     inkscape:connector-curvature="0" />
</svg>
