<svg height="512pt" viewBox="-85 0 512 512" width="512pt" xmlns="http://www.w3.org/2000/svg"><path d="m23.136719 203.011719c14.96875-8.640625 34.101562-3.515625 42.742187 11.449219l19.539063 33.84375v-172.160157c0-17.277343 14.007812-31.285156 31.289062-31.285156s31.289063 14.007813 31.289063 31.285156v-37.355469c0-17.28125 14.007812-31.289062 31.285156-31.289062 17.28125 0 31.289062 14.007812 31.289062 31.289062v37.359376c0-17.28125 14.007813-31.289063 31.289063-31.289063 17.277344 0 31.289063 14.007813 31.289063 31.289063v41.800781c0-17.28125 14.007812-31.289063 31.285156-31.289063 17.28125 0 31.289062 14.007813 31.289062 31.289063v222.054687c0 29.046875-9.894531 55.78125-26.5 77.019532-10.195312 13.039062-15.457031 29.261718-15.457031 45.816406l-.003906 33.363281c-.003907 4.582031-3.714844 8.296875-8.296875 8.296875h-149.789063c-4.582031 0-8.296875-3.714844-8.296875-8.296875l-.003906-33.382813c-.003906-16.707031-5.5-32.96875-15.742188-46.171874-4.238281-5.464844-8.035156-11.289063-11.335937-17.421876l-88.609375-153.476562c-8.640625-14.964844-3.515625-34.101562 11.449219-42.738281zm0 0" fill="#ffcdbe"/><path d="m306.808594 86.75c-4.433594-.332031-8.683594.277344-12.585938 1.625.96875 3.015625 1.496094 6.234375 1.496094 9.574219v222.054687c0 29.046875-9.894531 55.78125-26.496094 77.015625-10.195312 13.042969-15.457031 29.265625-15.460937 45.820313-.003907 23.007812-18.65625 41.660156-41.664063 41.660156h-84.71875v11.703125c0 4.582031 3.714844 8.296875 8.296875 8.296875h149.785157c4.582031 0 8.296874-3.714844 8.296874-8.296875l.003907-33.363281c.003906-16.554688 5.265625-32.777344 15.460937-45.820313 16.601563-21.234375 26.496094-47.972656 26.496094-77.015625v-221.414062c0-16.472656-12.480469-30.609375-28.910156-31.839844zm0 0" fill="#faa68e"/><path d="m224.3125 282.015625c0 9.78125-7.929688 17.707031-17.707031 17.707031-9.78125 0-17.707031-7.925781-17.707031-17.707031 0-9.777344 7.925781-17.707031 17.707031-17.707031 9.777343 0 17.707031 7.929687 17.707031 17.707031zm0 0" fill="#2c6a73"/><path d="m305.628906 278.042969c-5.664062-9.804688-29.046875-6.90625-52.226562 6.476562-23.183594 13.382813-37.382813 32.183594-31.722656 41.992188 5.664062 9.808593 29.046874 6.910156 52.226562-6.476563 23.183594-13.382812 37.382812-32.183594 31.722656-41.992187zm0 0" fill="#badfe4"/><path d="m263.523438 325.351562c-19.410157 8.65625-37.023438 9.503907-41.835938 1.167969-.683594-1.183593-1.070312-2.503906-1.195312-3.925781-.785157 8.117188 9.765624 20.683594 25.808593 29.945312 18.1875 10.496094 36.527344 12.769532 40.96875 5.078126 4.347657-7.53125-6.238281-21.820313-23.746093-32.265626zm0 0" fill="#95ced6"/><path d="m159.792969 284.535156c-23.183594-13.386718-46.566407-16.285156-52.226563-6.476562-5.664062 9.808594 8.539063 28.605468 31.71875 41.992187 23.183594 13.382813 46.5625 16.28125 52.226563 6.476563 5.664062-9.808594-8.539063-28.609375-31.71875-41.992188zm0 0" fill="#badfe4"/><path d="m149.683594 325.351562c19.410156 8.65625 37.023437 9.503907 41.835937 1.167969.683594-1.183593 1.074219-2.503906 1.195313-3.925781.785156 8.117188-9.765625 20.683594-25.808594 29.945312-18.183594 10.496094-36.523438 12.769532-40.964844 5.078126-4.351562-7.53125 6.238282-21.820313 23.742188-32.265626zm0 0" fill="#95ced6"/><path d="m220.492188 322.59375v.003906c-.398438-4.570312 2.003906-10.230468 6.5625-16.144531-5.425782-4.183594-12.589844-6.730469-20.449219-6.730469s-15.023438 2.546875-20.449219 6.730469c4.558594 5.914063 6.957031 11.574219 6.558594 16.144531 0 0 0 0 0-.003906.503906 5.191406-3.644532 12.210938-10.894532 19.019531 5.574219 6.582031 14.59375 10.863281 24.785157 10.863281 10.1875 0 19.210937-4.28125 24.785156-10.863281-7.253906-6.808593-11.398437-13.828125-10.898437-19.019531zm0 0" fill="#23535a"/><path d="m223.644531 348.019531c-4.871093 2.8125-10.730469 4.457031-17.039062 4.457031-6.308594 0-12.167969-1.644531-17.042969-4.457031-5.582031 9.609375-9.125 23.84375-9.125 39.742188 0 28.9375 21.414062 52.394531 26.167969 52.394531 4.75 0 26.167969-23.457031 26.167969-52.394531 0-15.898438-3.542969-30.132813-9.128907-39.742188zm0 0" fill="#ffe046"/><path d="m223.644531 348.019531c-4.121093 2.378907-8.953125 3.910157-14.164062 4.328125 2.09375 7.527344 3.292969 16.1875 3.292969 25.414063 0 21.796875-12.148438 40.480469-20.175782 48.375 5.707032 8.695312 11.746094 14.019531 14.007813 14.019531 4.753906 0 26.167969-23.457031 26.167969-52.394531 0-15.898438-3.542969-30.132813-9.128907-39.742188zm0 0" fill="#eec707"/><path d="m323.476562 394.519531c-3.617187-2.019531-8.1875-.71875-10.203124 2.898438-2.902344 5.210937-6.25 10.246093-9.957032 14.980469-10.996094 14.058593-17.050781 31.972656-17.050781 50.4375l-.011719 33.363281c0 .449219-.347656.800781-.789062.800781h-149.789063c-.449219 0-.800781-.359375-.800781-.800781v-33.378907c0-18.34375-6.148438-36.375-17.3125-50.765624-6.703125-8.644532-.507812 1.195312-99.382812-170.058594-9.179688-15.890625 2.441406-35.6875 20.574218-35.6875 8.476563 0 16.378906 4.5625 20.625 11.898437l19.539063 33.851563c1.699219 2.941406 5.160156 4.375 8.4375 3.496094 3.277343-.878907 5.558593-3.851563 5.558593-7.246094v-100.988282c0-4.140624-3.359374-7.5-7.5-7.5-4.144531 0-7.5 3.359376-7.5 7.5v72.996094l-5.546874-9.609375c-10.570313-18.273437-34.160157-25.035156-52.984376-14.191406-18.519531 10.695313-24.886718 34.464844-14.191406 52.984375 98.464844 170.542969 92.925782 161.949219 100.519532 171.746094 9.132812 11.777344 14.164062 26.542968 14.164062 41.574218v33.398438c.019531 8.703125 7.109375 15.78125 15.800781 15.78125h149.789063c8.707031 0 15.789062-7.089844 15.789062-15.796875l.011719-33.363281c0-15.136719 4.925781-29.765625 13.863281-41.195313 4.183594-5.34375 7.96875-11.039062 11.246094-16.925781 2.015625-3.617188.71875-8.183594-2.898438-10.199219zm0 0"/><path d="m331.863281 90.511719c-14.070312-14.042969-36.027343-15.011719-51.21875-3.179688v-11.183593c0-10.351563-4.03125-20.09375-11.359375-27.4375-14.070312-14.042969-36.027344-15.011719-51.21875-3.179688v-6.742188c0-21.398437-17.300781-38.789062-38.78125-38.789062-21.390625 0-38.789062 17.402344-38.789062 38.789062v6.714844c-6.773438-5.28125-15.0625-8.144531-23.792969-8.144531-21.386719 0-38.789063 17.402344-38.789063 38.789063v36.171874c0 4.140626 3.359376 7.5 7.5 7.5 4.144532 0 7.5-3.359374 7.5-7.5v-36.171874c0-13.117188 10.671876-23.789063 23.789063-23.789063 13.160156 0 23.78125 10.652344 23.792969 23.777344 0 .152343-.003906-4.824219-.003906 140.261719 0 4.140624 3.359374 7.5 7.5 7.5 4.144531 0 7.5-3.359376 7.5-7.5 0-14.683594.003906-131.402344.003906-177.609376 0-13.117187 10.671875-23.789062 23.789062-23.789062 13.203125 0 23.78125 10.691406 23.78125 23.789062 0 17.601563.003906 39.214844.003906 177.609376 0 4.140624 3.355469 7.5 7.5 7.5 4.140626 0 7.5-3.359376 7.5-7.5v-140.253907c0-13.144531 10.695313-23.785156 23.785157-23.785156 13.023437 0 23.789062 10.511719 23.789062 23.789063v140.246093c0 4.144531 3.355469 7.5 7.5 7.5s7.5-3.355469 7.5-7.5v-98.445312c0-13.117188 10.671875-23.789063 23.789063-23.789063 13.054687 0 23.792968 10.539063 23.792968 23.789063v222.050781c0 8.984375-1.023437 17.949219-3.039062 26.648438-.933594 4.035156 1.578125 8.0625 5.613281 8.996093 4.046875.9375 8.066407-1.589843 9-5.613281 2.269531-9.804688 3.425781-19.910156 3.425781-30.03125v-222.050781c0-10.351563-4.03125-20.09375-11.363281-27.4375zm0 0"/><path d="m101.078125 274.300781c-9.148437 15.84375 10.183594 38.105469 34.105469 52.023438-13.105469 10.582031-22.015625 24.167969-15.738282 35.042969 1.894532 3.285156 6.59375 8.3125 17.578126 8.3125 13.804687 0 30.207031-7.613282 41.570312-15.777344-3.925781 10.59375-5.65625 22.738281-5.65625 33.859375 0 5.957031.820312 11.5625 2.082031 16.6875.066407.402343.171875.789062.300781 1.167969 4.726563 18.019531 15.835938 33.359374 23.785157 39.09375v11.4375c0 4.140624 3.355469 7.5 7.5 7.5s7.5-3.359376 7.5-7.5v-11.4375c7.949219-5.730469 19.054687-21.0625 23.785156-39.09375.128906-.378907.234375-.769532.304687-1.167969 1.257813-5.125 2.078126-10.730469 2.078126-16.6875 0-11.121094-1.730469-23.261719-5.65625-33.859375 11.34375 8.148437 27.75 15.773437 41.570312 15.773437 10.980469 0 15.679688-5.023437 17.578125-8.3125 6.277344-10.871093-2.636719-24.457031-15.738281-35.039062 23.917968-13.921875 43.253906-36.179688 34.105468-52.023438-4.910156-8.503906-16.1875-11.476562-31.757812-8.363281-4.0625.8125-6.699219 4.761719-5.886719 8.824219s4.765625 6.699219 8.828125 5.882812c10.265625-2.050781 15.097656-.105469 15.828125 1.15625 1.886719 3.269531-5.933593 18.441407-28.980469 31.75-10.210937 5.894531-21.09375 9.898438-29.855468 10.984375-7.601563.945313-11.414063-.539062-12.125-1.765625-.242188-.414062-.214844-.808593-.257813-1.148437-.066406-4.449219 7.078125-16.726563 25.640625-28.425782 3.507813-2.210937 4.554688-6.839843 2.347656-10.34375-2.207031-3.503906-6.84375-4.554687-10.34375-2.34375-6.214843 3.917969-11.652343 8.09375-16.21875 12.367188 3.398438-7.097656 3.300782-15.476562-.433593-22.566406l7.015625-7.011719c3.113281-3.117187 7.257812-4.835937 11.667968-4.835937 4.140626 0 7.5-3.355469 7.5-7.5 0-4.140626-3.359374-7.5-7.5-7.5-8.414062 0-16.324218 3.277343-22.277343 9.226562l-7.011719 7.015625c-7.167969-3.773437-15.929688-3.941406-23.414062 0l-7.015626-7.015625c-5.949218-5.949219-13.859374-9.226562-22.273437-9.226562-4.140625 0-7.5 3.359374-7.5 7.5 0 4.144531 3.359375 7.5 7.5 7.5 4.410156 0 8.550781 1.71875 11.667969 4.835937l7.015625 7.011719c-3.753907 7.128906-3.824219 15.546875-.402344 22.632812-25.277344-23.628906-70.90625-39.257812-82.8125-18.640625zm62.078125 71.742188c-16.566406 9.5625-28.632812 9.472656-30.699219 7.8125-.347656-2.335938 4.539063-11.265625 17.90625-20.074219 7.074219 2.847656 14.820313 5.097656 22.289063 5.816406-2.714844 2.164063-5.867188 4.347656-9.496094 6.445313zm24.8125 39.359375c11.933594 2.878906 24.804688 3.007812 37.273438 0 .089843 3.722656 0 6.996094-.75 11.4375-11.738282 2.121094-24.035157 2.121094-35.773438 0-.742188-4.390625-.839844-7.695313-.75-11.4375zm35.695312-15.074219c-11.046874 3.039063-23.058593 3.042969-34.117187 0 .867187-4.523437 2.082031-8.738281 3.59375-12.507813 8.574219 2.851563 18.21875 2.898438 26.929687 0 1.511719 3.769532 2.722657 7.984376 3.59375 12.507813zm-7.171874-61.265625c-2.441407 4.683594-3.652344 9.222656-3.496094 13.386719-.394532 6.3125 2.722656 12.742187 7.589844 18.652343-8.296876 5.160157-19.652344 5.167969-27.964844 0 4.710937-5.71875 7.792968-11.925781 7.628906-18.042968.367188-4.472656-.914062-9.234375-3.457031-14.027344 6.15625-2.371094 13.285156-2.464844 19.699219.03125zm-9.886719 122.503906c-3.308594-2.976562-8.765625-9.753906-12.929688-18.839844 8.445313.945313 17.105469.980469 25.855469 0-4.160156 9.085938-9.617188 15.867188-12.925781 18.839844zm56.242187-97.785156c13.367188 8.808594 18.253906 17.738281 17.90625 20.074219-2.066406 1.660156-14.132812 1.753906-30.699218-7.8125-3.628907-2.097657-6.78125-4.28125-9.5-6.445313 7.472656-.71875 15.222656-2.96875 22.292968-5.816406zm-46.035156-51.765625c0 5.628906-4.578125 10.207031-10.207031 10.207031-5.628907 0-10.207031-4.578125-10.207031-10.207031s4.578124-10.207031 10.207031-10.207031c5.628906 0 10.207031 4.578125 10.207031 10.207031zm-31.515625 39.535156c-.0625.433594-.035156.808594-.269531 1.21875-.710938 1.226563-4.523438 2.710938-12.128906 1.765625-8.761719-1.085937-19.644532-5.089844-29.855469-10.984375-23.046875-13.308593-30.863281-28.480469-28.976563-31.75.550782-.953125 2.984375-2.0625 7.625-2.0625 10.960938 0 24.746094 5.734375 34.355469 11.285157 20.890625 12.058593 29.269531 25.652343 29.25 30.527343zm0 0"/></svg>