<?xml version="1.0" encoding="UTF-8" standalone="no"?>
<svg
   xmlns:dc="http://purl.org/dc/elements/1.1/"
   xmlns:cc="http://creativecommons.org/ns#"
   xmlns:rdf="http://www.w3.org/1999/02/22-rdf-syntax-ns#"
   xmlns:svg="http://www.w3.org/2000/svg"
   xmlns="http://www.w3.org/2000/svg"
   xmlns:sodipodi="http://sodipodi.sourceforge.net/DTD/sodipodi-0.dtd"
   xmlns:inkscape="http://www.inkscape.org/namespaces/inkscape"
   height="480pt"
   viewBox="0 0 480 480"
   width="480pt"
   version="1.1"
   id="svg4"
   sodipodi:docname="manchester_football.svg"
   inkscape:version="0.92.4 (5da689c313, 2019-01-14)">
  <metadata
     id="metadata10">
    <rdf:RDF>
      <cc:Work
         rdf:about="">
        <dc:format>image/svg+xml</dc:format>
        <dc:type
           rdf:resource="http://purl.org/dc/dcmitype/StillImage" />
      </cc:Work>
    </rdf:RDF>
  </metadata>
  <defs
     id="defs8" />
  <sodipodi:namedview
     pagecolor="#ffffff"
     bordercolor="#666666"
     borderopacity="1"
     objecttolerance="10"
     gridtolerance="10"
     guidetolerance="10"
     inkscape:pageopacity="0"
     inkscape:pageshadow="2"
     inkscape:window-width="1920"
     inkscape:window-height="986"
     id="namedview6"
     showgrid="false"
     inkscape:zoom="0.7375"
     inkscape:cx="66.922007"
     inkscape:cy="365.65185"
     inkscape:window-x="-11"
     inkscape:window-y="-11"
     inkscape:window-maximized="1"
     inkscape:current-layer="svg4" />
  <ellipse
     style="fill:#f9f9fa;fill-opacity:1;stroke:none;stroke-width:6.66736269;stroke-miterlimit:4;stroke-dasharray:none;stroke-opacity:1"
     id="path812"
     cx="240"
     cy="240"
     rx="184.06781"
     ry="182.54236" />
  <path
     d="M 240,48 C 133.9625,48 48,133.9625 48,240 48,346.0375 133.9625,432 240,432 346.0375,432 432,346.0375 432,240 431.88125,134.0125 345.9875,48.11875 240,48 Z m 6.85312,55.35312 L 313.6,76.671875 C 321.175,80.1 328.50312,84.05 335.53125,88.49375 l 0.175,0.109375 c 6.90625,4.375 13.50625,9.215625 19.75625,14.487495 L 356,103.55938 c 2.80312,2.3875 5.52812,4.85937 8.17812,7.40937 0.33438,0.32813 0.68438,0.64063 1.01876,0.975 2.77812,2.7125 5.46874,5.50937 8.07187,8.3875 0.21563,0.24375 0.42187,0.5 0.6375,0.74375 2.28437,2.55938 4.48125,5.20938 6.6125,7.90312 0.5125,0.64063 1.025,1.28126 1.52187,1.92188 2.3125,2.99375 4.55,6.04062 6.6625,9.18438 l -13.30624,56.5625 -65.46563,21.825 -63.0625,-50.45938 z M 97.953125,130.9375 c 0.496875,-0.64062 1.003125,-1.28125 1.515625,-1.91875 2.10625,-2.67187 4.28437,-5.27813 6.53437,-7.82187 0.24376,-0.26876 0.46876,-0.54376 0.70938,-0.8125 2.5875,-2.88438 5.26562,-5.67813 8.04062,-8.38438 0.31876,-0.3125 0.6375,-0.64062 0.97188,-0.92812 2.62812,-2.53438 5.33125,-4.99063 8.10938,-7.36563 l 0.64062,-0.5375 c 6.19375,-5.234375 12.73125,-10.04375 19.56875,-14.4 l 0.25,-0.159375 C 151.28125,84.175 158.5625,80.23125 166.09375,76.8 l 67.05313,26.55312 v 64.64063 l -63.06563,50.45 -65.46563,-21.78437 -13.306245,-56.5625 c 2.13125,-3.1375 4.34375,-6.17813 6.64375,-9.15938 z m -7.7125,207.27188 c -1.88125,-2.86876 -3.68125,-5.79063 -5.396875,-8.76876 l -0.415625,-0.71874 c -1.70625,-2.9625 -3.321875,-5.975 -4.84375,-9.03438 l -0.05312,-0.0969 C 76.325,313.15312 73.509375,306.52812 71.103125,299.75 v -0.0625 c -1.1375,-3.2 -2.175,-6.47812 -3.134375,-9.775 l -0.346875,-1.21562 c -0.878125,-3.09688 -1.675,-6.22813 -2.3875,-9.39376 -0.0625,-0.30937 -0.140625,-0.60312 -0.203125,-0.90937 -1.571875,-7.15 -2.7,-14.3875 -3.38125,-21.67813 l 39.07188,-46.88437 65.0125,21.66875 18.86874,75.46875 -31.00312,41.25 z m 192.378125,75.825 c -3.2,0.79374 -6.48437,1.47812 -9.76875,2.09374 -0.45938,0.0906 -0.92812,0.16563 -1.3875,0.25 -2.79688,0.5 -5.625,0.92813 -8.45938,1.27813 -0.75624,0.0969 -1.50624,0.2 -2.25937,0.29063 -2.63125,0.30624 -5.2875,0.5375 -7.95,0.72812 -0.8375,0.0562 -1.66563,0.14062 -2.50313,0.19375 C 246.8875,419.07812 243.45625,419.2 240,419.2 c -3.16562,0 -6.3125,-0.0844 -9.44062,-0.25 -0.37813,0 -0.74063,-0.0625 -1.11876,-0.0906 -2.78437,-0.15938 -5.55624,-0.36876 -8.32187,-0.6375 L 220.8,418.1625 c -6.05938,-0.65625 -12.08438,-1.61875 -18.04688,-2.87812 L 164.89688,356.0125 195.4125,315.32188 h 89.175 l 31.01562,40.95937 z M 415.01562,278.4 c -0.0656,0.30625 -0.14062,0.60312 -0.20624,0.90938 -0.71563,3.1625 -1.5125,6.29374 -2.3875,9.39374 l -0.34376,1.21563 c -0.9625,3.29687 -1.99687,6.5625 -3.1375,9.775 v 0.0625 c -2.40624,6.77813 -5.21874,13.40313 -8.42812,19.84063 l -0.0531,0.0969 c -1.53126,3.0625 -3.14376,6.075 -4.84376,9.03437 L 395.2,329.44688 c -1.70625,2.9875 -3.50312,5.90312 -5.3875,8.75624 l -63.14375,9.95626 -31.21875,-41.21563 18.85938,-75.45 65.0125,-21.66875 39.07187,46.88438 c -0.67813,7.29374 -1.80625,14.5375 -3.37813,21.69062 z m 0,0"
     id="path2"
     inkscape:connector-curvature="0"
     style="stroke-width:0.80000001" />
</svg>
