<?xml version="1.0" encoding="UTF-8" standalone="no"?>
<!-- Generator: Adobe Illustrator 19.0.0, SVG Export Plug-In . SVG Version: 6.00 Build 0)  -->

<svg
   xmlns:dc="http://purl.org/dc/elements/1.1/"
   xmlns:cc="http://creativecommons.org/ns#"
   xmlns:rdf="http://www.w3.org/1999/02/22-rdf-syntax-ns#"
   xmlns:svg="http://www.w3.org/2000/svg"
   xmlns="http://www.w3.org/2000/svg"
   xmlns:sodipodi="http://sodipodi.sourceforge.net/DTD/sodipodi-0.dtd"
   xmlns:inkscape="http://www.inkscape.org/namespaces/inkscape"
   version="1.1"
   id="Capa_1"
   x="0px"
   y="0px"
   viewBox="0 0 479 479"
   style="enable-background:new 0 0 479 479;"
   xml:space="preserve"
   sodipodi:docname="mars.svg"
   inkscape:version="0.92.4 (5da689c313, 2019-01-14)"><metadata
   id="metadata63"><rdf:RDF><cc:Work
       rdf:about=""><dc:format>image/svg+xml</dc:format><dc:type
         rdf:resource="http://purl.org/dc/dcmitype/StillImage" /></cc:Work></rdf:RDF></metadata><defs
   id="defs61" /><sodipodi:namedview
   pagecolor="#ffffff"
   bordercolor="#666666"
   borderopacity="1"
   objecttolerance="10"
   gridtolerance="10"
   guidetolerance="10"
   inkscape:pageopacity="0"
   inkscape:pageshadow="2"
   inkscape:window-width="1920"
   inkscape:window-height="986"
   id="namedview59"
   showgrid="false"
   inkscape:zoom="0.49269311"
   inkscape:cx="-25.370763"
   inkscape:cy="239.5"
   inkscape:window-x="-11"
   inkscape:window-y="-11"
   inkscape:window-maximized="1"
   inkscape:current-layer="Capa_1" />
<g
   id="g90"
   transform="translate(-0.5,-0.5)"><path
     inkscape:connector-curvature="0"
     style="fill:#ff4f19"
     d="m 24.746,346.221 c -0.636,-1.286 -1.262,-2.579 -1.876,-3.878 0.613,1.3 1.24,2.592 1.876,3.878 z"
     id="path2-8" /><path
     inkscape:connector-curvature="0"
     style="fill:#ff4f19"
     d="m 22.327,341.18 c -0.588,-1.263 -1.168,-2.53 -1.735,-3.804 0.566,1.275 1.147,2.541 1.735,3.804 z"
     id="path4-6" /><path
     inkscape:connector-curvature="0"
     style="fill:#ff4f19"
     d="m 20.031,336.094 c -0.549,-1.254 -1.093,-2.512 -1.621,-3.777 0.528,1.265 1.072,2.522 1.621,3.777 z"
     id="path6-9" /><path
     inkscape:connector-curvature="0"
     style="fill:#ff4f19"
     d="m 17.864,330.98 c -0.519,-1.265 -1.035,-2.533 -1.533,-3.809 0.498,1.277 1.014,2.544 1.533,3.809 z"
     id="path8-9" /><path
     inkscape:connector-curvature="0"
     style="fill:#ff4f19"
     d="m 303.561,8.525 c 38.557,10.583 73.23,30.554 101.437,57.281 C 395.485,64.659 385.822,64 376,64 251.73,64 149.521,158.448 137.238,279.477 v 0 c -0.003,0.032 -0.006,0.065 -0.009,0.097 -0.001,0.014 -0.002,0.028 -0.004,0.042 31.69,5.489 67.028,8.384 102.775,8.384 41.859,0 82.789,-3.922 118.367,-11.344 14.039,-2.938 27.203,-6.406 39.141,-10.328 4.195,-1.391 8.711,0.906 10.094,5.109 1.375,4.195 -0.906,8.711 -5.109,10.094 -7.778,2.554 -16.087,4.897 -24.746,7.059 -0.101,0.083 -0.148,0.205 -0.254,0.285 l -15.656,11.742 16.289,4.492 c 3.508,0.969 5.922,4.172 5.875,7.805 -0.047,3.641 -2.531,6.789 -6.063,7.664 C 337.57,330.672 289.867,336 240,336 c -3.523,0 -6.633,-2.305 -7.656,-5.68 -1.023,-3.375 0.289,-7.023 3.219,-8.977 2.563,-1.711 2.469,-4.25 2.313,-5.258 -0.156,-1.016 -0.844,-3.469 -3.813,-4.313 l -43.789,-9.68 c -0.065,-0.015 -0.112,-0.062 -0.177,-0.078 -18.638,-1.396 -36.801,-3.486 -53.936,-6.363 -0.095,2.772 -0.16,5.552 -0.16,8.348 0,54.205 18.011,104.173 48.33,144.339 18.574,-8.458 37.683,-17.042 56.006,-16.331 28.82,1.266 43.547,-6.867 43.688,-6.953 3.828,-2.133 8.711,-0.82 10.891,2.984 2.18,3.813 0.914,8.656 -2.883,10.867 -0.734,0.438 -18.305,10.547 -52.367,9.086 -13.441,-0.686 -29.28,6.086 -44.936,13.195 0,0 0.001,0.001 0.002,0.002 -0.001,0.001 -0.002,0.001 -0.004,0.002 5.148,5.928 10.579,11.605 16.276,17.003 -12.859,-1.55 -25.402,-4.12 -37.553,-7.619 -0.001,0 -0.003,10e-4 -0.004,0.002 -0.035,-0.01 -0.07,-0.022 -0.105,-0.032 -2.008,-0.579 -4.005,-1.186 -5.992,-1.816 -1.236,-0.389 -2.461,-0.801 -3.688,-1.208 -0.474,-0.159 -0.949,-0.314 -1.421,-0.475 -5.38,-1.822 -10.685,-3.803 -15.878,-6.005 0.055,0.002 0.115,-0.003 0.171,-0.002 C 97.059,440.104 56.062,403.067 30.136,356.486 71.109,430.151 149.727,480 240,480 372.548,480 480,372.548 480,240 480,129.458 405.259,36.388 303.561,8.525 Z M 272,232 c -0.258,0.016 -0.68,-0.008 -1.023,-0.008 -11.43,0 -18.469,3.594 -26.594,7.742 -8.633,4.406 -18.18,9.281 -32.875,9.281 -3.891,0 -8.133,-0.344 -12.82,-1.125 -4.359,-0.727 -7.305,-4.852 -6.578,-9.203 0.719,-4.359 4.828,-7.352 9.203,-6.578 17.211,2.852 25.813,-1.531 35.797,-6.625 8.938,-4.57 18.742,-9.945 35.023,-9.484 4.414,0.07 7.938,3.711 7.867,8.133 -0.07,4.367 -3.641,7.867 -8,7.867 z m 62.289,-11.055 c -7.18,9.141 -24.672,10.766 -29.859,11.047 -0.149,0.008 -0.289,0.008 -0.438,0.008 -4.219,0 -7.742,-3.297 -7.977,-7.563 -0.242,-4.406 3.133,-8.18 7.539,-8.422 7.672,-0.438 16.492,-2.844 18.156,-4.961 2.727,-3.469 7.75,-4.086 11.234,-1.344 3.47,2.727 4.079,7.759 1.345,11.235 z M 205.68,333.601 c -1.523,1.516 -3.602,2.398 -5.68,2.398 -2.078,0 -4.164,-0.883 -5.68,-2.32 -1.445,-1.523 -2.32,-3.602 -2.32,-5.68 0,-2.078 0.875,-4.164 2.32,-5.68 2.961,-2.961 8.32,-2.961 11.359,0 1.516,1.516 2.32,3.602 2.32,5.68 0,2.078 -0.804,4.157 -2.319,5.602 z m 103.999,40 c -1.523,1.516 -3.602,2.398 -5.68,2.398 -2.078,0 -4.164,-0.883 -5.68,-2.32 -1.445,-1.523 -2.32,-3.602 -2.32,-5.68 0,-2.078 0.875,-4.164 2.32,-5.68 2.961,-2.961 8.32,-2.961 11.359,0 1.516,1.516 2.32,3.602 2.32,5.68 0,2.078 -0.803,4.157 -2.319,5.602 z m 64,-176.099 c -1.523,1.516 -3.602,2.398 -5.68,2.398 -2.078,0 -4.164,-0.883 -5.68,-2.32 -1.445,-1.523 -2.32,-3.602 -2.32,-5.68 0,-2.078 0.875,-4.164 2.32,-5.68 2.961,-2.961 8.32,-2.961 11.359,0 1.516,1.516 2.32,3.602 2.32,5.68 0,2.078 -0.803,4.157 -2.319,5.602 z m 32,32.099 c -1.523,1.516 -3.602,2.398 -5.68,2.398 -2.078,0 -4.164,-0.883 -5.68,-2.32 -1.445,-1.523 -2.32,-3.602 -2.32,-5.68 0,-2.078 0.875,-4.164 2.32,-5.68 2.961,-2.961 8.32,-2.961 11.359,0 1.516,1.516 2.32,3.602 2.32,5.68 0,2.078 -0.803,4.157 -2.319,5.602 z m -35.906,-99.07 c -0.602,0.141 -1.195,0.203 -1.789,0.203 -3.648,0 -6.945,-2.508 -7.789,-6.219 -0.984,-4.305 1.703,-8.594 6.016,-9.578 24.808,-5.672 46.328,-12.667 64.396,-20.713 3.315,4.328 6.492,8.763 9.511,13.315 -19.603,9.038 -43.199,16.792 -70.345,22.992 z"
     id="path10-6" /><path
     inkscape:connector-curvature="0"
     style="fill:#ff4f19"
     d="m 27.283,351.207 c -0.696,-1.327 -1.378,-2.663 -2.05,-4.004 0.672,1.342 1.355,2.677 2.05,4.004 z"
     id="path12-8" /><path
     inkscape:connector-curvature="0"
     style="fill:#ff4f19"
     d="m 29.933,356.127 c -0.771,-1.391 -1.525,-2.791 -2.269,-4.198 0.743,1.407 1.499,2.807 2.269,4.198 z"
     id="path14-3" /><path
     inkscape:connector-curvature="0"
     style="fill:#ff4f19"
     d="m 2.998,277.952 c -0.143,-0.898 -0.281,-1.798 -0.414,-2.7 0.133,0.902 0.271,1.802 0.414,2.7 z"
     id="path16-7" /><path
     inkscape:connector-curvature="0"
     style="fill:#ff4f19"
     d="m 275.665,2.641 c 1.355,0.202 2.703,0.423 4.05,0.648 -1.348,-0.224 -2.696,-0.446 -4.05,-0.648 z"
     id="path18-7" /><path
     inkscape:connector-curvature="0"
     style="fill:#ff4f19"
     d="m 281.394,3.568 c 1.446,0.252 2.885,0.522 4.322,0.8 -1.437,-0.277 -2.876,-0.549 -4.322,-0.8 z"
     id="path20-7" /><path
     inkscape:connector-curvature="0"
     style="fill:#ff4f19"
     d="m 0.435,254.289 c -0.047,-0.793 -0.101,-1.583 -0.14,-2.378 0.039,0.795 0.094,1.585 0.14,2.378 z"
     id="path22-5" /><path
     inkscape:connector-curvature="0"
     style="fill:#ff4f19"
     d="m 0.146,247.974 c -0.022,-0.667 -0.054,-1.332 -0.07,-2.001 0.016,0.668 0.048,1.333 0.07,2.001 z"
     id="path24-8" /><path
     inkscape:connector-curvature="0"
     style="fill:#ff4f19"
     d="m 269.87,1.849 c 1.265,0.157 2.523,0.334 3.782,0.511 -1.259,-0.177 -2.517,-0.354 -3.782,-0.511 z"
     id="path26" /><path
     inkscape:connector-curvature="0"
     style="fill:#ff4f19"
     d="m 246.08,0.077 c 0.765,0.019 1.525,0.058 2.288,0.084 -0.763,-0.026 -1.523,-0.065 -2.288,-0.084 z"
     id="path28" /><path
     inkscape:connector-curvature="0"
     style="fill:#ff4f19"
     d="m 252.11,0.303 c 0.956,0.048 1.907,0.116 2.86,0.175 -0.953,-0.058 -1.903,-0.127 -2.86,-0.175 z"
     id="path30" /><path
     inkscape:connector-curvature="0"
     style="fill:#ff4f19"
     d="m 287.051,4.623 c 1.539,0.306 3.071,0.631 4.599,0.967 -1.529,-0.335 -3.061,-0.661 -4.599,-0.967 z"
     id="path32" /><path
     inkscape:connector-curvature="0"
     style="fill:#ff4f19"
     d="m 292.635,5.805 c 1.633,0.366 3.259,0.75 4.879,1.149 -1.62,-0.398 -3.245,-0.784 -4.879,-1.149 z"
     id="path34" /><path
     inkscape:connector-curvature="0"
     style="fill:#ff4f19"
     d="m 298.142,7.107 c 1.735,0.432 3.462,0.883 5.182,1.353 -1.72,-0.469 -3.447,-0.921 -5.182,-1.353 z"
     id="path36" /><path
     inkscape:connector-curvature="0"
     style="fill:#ff4f19"
     d="m 2.149,272.147 c -0.119,-0.886 -0.236,-1.772 -0.345,-2.66 0.11,0.888 0.227,1.774 0.345,2.66 z"
     id="path38" /><path
     inkscape:connector-curvature="0"
     style="fill:#ff4f19"
     d="m 1.438,266.279 c -0.095,-0.869 -0.191,-1.737 -0.276,-2.609 0.085,0.872 0.181,1.74 0.276,2.609 z"
     id="path40" /><path
     inkscape:connector-curvature="0"
     style="fill:#ff4f19"
     d="m 0.866,260.34 c -0.071,-0.843 -0.146,-1.684 -0.208,-2.529 0.062,0.845 0.138,1.687 0.208,2.529 z"
     id="path42" /><path
     inkscape:connector-curvature="0"
     style="fill:#ff4f19"
     d="m 258.089,0.676 c 1.073,0.08 2.141,0.181 3.21,0.276 -1.069,-0.095 -2.137,-0.196 -3.21,-0.276 z"
     id="path44" /><path
     inkscape:connector-curvature="0"
     style="fill:#ff4f19"
     d="m 7.731,300.627 c -0.249,-0.956 -0.482,-1.918 -0.72,-2.879 0.238,0.961 0.471,1.923 0.72,2.879 z"
     id="path46" /><path
     inkscape:connector-curvature="0"
     style="fill:#ff4f19"
     d="m 15.854,325.916 c -0.506,-1.318 -1.009,-2.638 -1.492,-3.967 0.483,1.329 0.986,2.648 1.492,3.967 z"
     id="path48" /><path
     inkscape:connector-curvature="0"
     style="fill:#ff4f19"
     d="m 9.241,306.163 c -0.29,-1.011 -0.56,-2.031 -0.837,-3.047 0.277,1.017 0.548,2.036 0.837,3.047 z"
     id="path50" /><path
     inkscape:connector-curvature="0"
     style="fill:#ff4f19"
     d="m 6.349,295.035 c -0.219,-0.931 -0.424,-1.867 -0.632,-2.802 0.208,0.935 0.414,1.871 0.632,2.802 z"
     id="path52" /><path
     inkscape:connector-curvature="0"
     style="fill:#ff4f19"
     d="m 14.108,321.229 c -1.555,-4.322 -2.983,-8.703 -4.293,-13.136 1.31,4.432 2.739,8.814 4.293,13.136 z"
     id="path54" /><path
     inkscape:connector-curvature="0"
     style="fill:#ff4f19"
     d="m 5.1,289.396 c -0.192,-0.919 -0.375,-1.842 -0.557,-2.764 0.182,0.923 0.364,1.845 0.557,2.764 z"
     id="path56" /><path
     inkscape:connector-curvature="0"
     style="fill:#ff4f19"
     d="m 3.981,283.7 c -0.167,-0.907 -0.327,-1.817 -0.483,-2.728 0.157,0.911 0.317,1.82 0.483,2.728 z"
     id="path58" /><path
     inkscape:connector-curvature="0"
     style="fill:#ff4f19"
     d="m 264.01,1.192 c 1.172,0.117 2.338,0.254 3.506,0.387 -1.168,-0.133 -2.334,-0.27 -3.506,-0.387 z"
     id="path60" /><path
     inkscape:connector-curvature="0"
     style="fill:#db3f3d"
     d="m 146.532,461.038 c -0.055,-0.001 -0.116,0.004 -0.171,0.002 5.193,2.203 10.499,4.183 15.878,6.005 0.472,0.162 0.948,0.317 1.421,0.475 1.227,0.407 2.452,0.819 3.688,1.208 1.986,0.63 3.983,1.236 5.992,1.816 0.035,0.01 0.07,0.022 0.105,0.032 0.001,0 0.003,-0.001 0.004,-0.002 12.15,3.499 24.694,6.069 37.553,7.619 -5.697,-5.398 -11.128,-11.075 -16.276,-17.003 -1.46,0.663 -2.921,1.326 -4.375,1.989 -5.725,2.606 -11.35,5.158 -16.817,7.36 -0.763,-0.219 -1.527,-0.437 -2.288,-0.663 -2.699,-0.804 -5.369,-1.67 -8.03,-2.559 -1.713,-0.578 -3.439,-1.131 -5.135,-1.747 -1.86,-0.668 -3.681,-1.418 -5.519,-2.133 -2.014,-0.789 -4.034,-1.565 -6.021,-2.406 9.272,0.228 23.412,-6.149 37.177,-12.414 0.22,-0.1 0.441,-0.2 0.662,-0.3 3.32,4.398 6.74,8.715 10.348,12.87 15.656,-7.109 31.495,-13.881 44.936,-13.195 34.063,1.461 51.633,-8.648 52.367,-9.086 3.797,-2.211 5.063,-7.055 2.883,-10.867 -2.18,-3.805 -7.063,-5.117 -10.891,-2.984 -0.141,0.086 -14.867,8.219 -43.688,6.953 -18.323,-0.711 -37.432,7.873 -56.006,16.331 C 154.011,408.173 136,358.205 136,304 c 0,-2.796 0.065,-5.575 0.16,-8.348 17.136,2.878 35.298,4.968 53.936,6.363 0.065,0.016 0.111,0.063 0.177,0.078 l 43.789,9.68 c 2.969,0.844 3.656,3.297 3.813,4.313 0.156,1.008 0.25,3.547 -2.313,5.258 -2.93,1.953 -4.242,5.602 -3.219,8.977 1.023,3.375 4.133,5.679 7.657,5.679 49.867,0 97.57,-5.328 137.937,-15.422 3.531,-0.875 6.016,-4.023 6.063,-7.664 0.047,-3.633 -2.367,-6.836 -5.875,-7.805 l -16.289,-4.492 15.656,-11.742 c 0.106,-0.08 0.153,-0.201 0.254,-0.285 8.658,-2.162 16.968,-4.505 24.746,-7.059 4.203,-1.383 6.484,-5.898 5.109,-10.094 -1.383,-4.203 -5.898,-6.5 -10.094,-5.109 -11.938,3.922 -25.102,7.391 -39.141,10.328 C 322.789,284.078 281.859,288 240,288 c -35.747,0 -71.085,-2.895 -102.775,-8.384 0.001,-0.014 0.002,-0.028 0.004,-0.042 -0.534,5.292 -0.831,10.651 -1.017,16.039 -3.252,-0.546 -6.532,-1.072 -9.705,-1.676 -4.344,-0.828 -7.195,-5.016 -6.367,-9.352 0.82,-4.344 5.008,-7.188 9.352,-6.367 2.503,0.477 5.193,0.816 7.745,1.259 C 149.521,158.448 251.73,64 376,64 c 9.822,0 19.485,0.659 28.998,1.806 C 376.79,39.079 342.118,19.108 303.561,8.525 303.482,8.503 303.403,8.482 303.324,8.461 301.605,7.991 299.877,7.54 298.142,7.108 297.934,7.056 297.724,7.006 297.515,6.955 295.895,6.556 294.269,6.172 292.636,5.806 292.308,5.732 291.978,5.663 291.65,5.591 290.122,5.255 288.59,4.931 287.051,4.624 286.607,4.536 286.161,4.454 285.717,4.368 284.28,4.09 282.841,3.82 281.395,3.568 280.837,3.471 280.275,3.383 279.716,3.29 278.369,3.065 277.02,2.844 275.666,2.642 274.997,2.542 274.324,2.455 273.653,2.36 272.394,2.183 271.136,2.006 269.871,1.849 269.089,1.752 268.301,1.67 267.517,1.58 266.35,1.446 265.184,1.309 264.011,1.193 263.11,1.103 262.204,1.032 261.301,0.952 260.232,0.858 259.164,0.757 258.091,0.676 257.055,0.599 256.012,0.542 254.972,0.478 254.019,0.419 253.068,0.35 252.112,0.303 250.868,0.241 249.618,0.204 248.369,0.161 247.606,0.135 246.846,0.096 246.081,0.077 244.059,0.027 242.033,0 240,0 134.986,0 45.739,67.453 13.186,161.39 c 0.463,-1.356 0.939,-2.706 1.431,-4.048 0.176,0.157 0.398,0.225 0.563,0.4 12.797,13.672 36.086,26.328 67.344,36.594 4.203,1.383 6.484,5.898 5.109,10.094 -1.109,3.375 -4.234,5.508 -7.602,5.508 -0.828,0 -1.664,-0.125 -2.492,-0.398 -29.783,-9.778 -53.172,-21.912 -68.33,-35.342 1.216,-4.272 2.51,-8.51 3.935,-12.688 C 4.635,186.105 0,212.51 0,240 c 0,1.997 0.027,3.987 0.076,5.973 0.016,0.669 0.049,1.334 0.07,2.001 0.043,1.314 0.086,2.628 0.15,3.937 0.039,0.795 0.093,1.585 0.14,2.378 0.069,1.176 0.137,2.351 0.223,3.522 0.062,0.845 0.137,1.686 0.208,2.529 0.094,1.112 0.187,2.223 0.296,3.33 0.085,0.872 0.181,1.74 0.276,2.609 0.117,1.071 0.236,2.141 0.367,3.208 0.109,0.889 0.226,1.775 0.345,2.66 0.139,1.037 0.282,2.072 0.434,3.105 0.133,0.902 0.271,1.802 0.414,2.7 0.16,1.009 0.327,2.015 0.5,3.02 0.157,0.911 0.316,1.821 0.483,2.728 0.18,0.98 0.37,1.956 0.562,2.932 0.182,0.923 0.364,1.845 0.557,2.764 0.198,0.948 0.408,1.893 0.618,2.837 0.208,0.935 0.413,1.871 0.632,2.802 0.213,0.907 0.439,1.81 0.662,2.713 0.237,0.961 0.471,1.923 0.72,2.879 0.217,0.833 0.448,1.66 0.674,2.489 0.277,1.017 0.547,2.036 0.837,3.047 0.185,0.646 0.384,1.286 0.574,1.929 1.31,4.433 2.738,8.815 4.293,13.136 0.086,0.239 0.167,0.481 0.254,0.72 0.483,1.329 0.986,2.649 1.492,3.967 0.16,0.418 0.315,0.839 0.477,1.255 0.498,1.276 1.014,2.544 1.533,3.809 0.183,0.445 0.361,0.892 0.546,1.336 0.528,1.266 1.072,2.523 1.621,3.777 0.187,0.427 0.371,0.856 0.561,1.283 0.567,1.274 1.147,2.541 1.735,3.804 0.181,0.388 0.36,0.776 0.543,1.163 0.614,1.299 1.24,2.592 1.876,3.878 0.162,0.327 0.324,0.655 0.488,0.981 0.671,1.342 1.354,2.677 2.05,4.004 0.126,0.241 0.254,0.481 0.381,0.722 0.744,1.407 1.499,2.808 2.269,4.198 0.067,0.12 0.134,0.239 0.201,0.359 25.923,46.584 66.92,83.62 116.394,104.554 z M 170.32,74.32 c 2.961,-2.961 8.32,-2.961 11.359,0 1.516,1.516 2.32,3.602 2.32,5.68 0,2.078 -0.805,4.156 -2.32,5.602 C 180.156,87.117 178.078,88 176,88 173.922,88 171.836,87.117 170.32,85.68 168.875,84.156 168,82.078 168,80 c 0,-2.078 0.875,-4.164 2.32,-5.68 z m -65.485,31.708 c 6.196,-9.737 17.263,-13.784 24.718,-9.04 7.455,4.744 8.476,16.483 2.28,26.22 -6.196,9.737 -17.262,13.784 -24.718,9.04 -7.456,-4.744 -8.476,-16.483 -2.28,-26.22 z m -49.2,168.79 c -1.982,-9.17 2.103,-17.834 9.124,-19.352 7.021,-1.518 14.32,4.686 16.302,13.856 1.982,9.17 -2.103,17.834 -9.124,19.352 -7.021,1.517 -14.32,-4.687 -16.302,-13.856 z"
     id="path62" /><path
     inkscape:connector-curvature="0"
     style="fill:#db3f3d"
     d="m 272.133,216 c -16.281,-0.461 -26.086,4.914 -35.023,9.484 -9.984,5.094 -18.586,9.477 -35.797,6.625 -4.375,-0.773 -8.484,2.219 -9.203,6.578 -0.727,4.352 2.219,8.477 6.578,9.203 4.688,0.781 8.93,1.125 12.82,1.125 14.695,0 24.242,-4.875 32.875,-9.281 8.125,-4.148 15.164,-7.742 26.594,-7.742 0.344,0 0.766,0.023 1.023,0.008 4.359,0 7.93,-3.5 8,-7.867 0.07,-4.422 -3.453,-8.063 -7.867,-8.133 z"
     id="path64" /><path
     inkscape:connector-curvature="0"
     style="fill:#db3f3d"
     d="m 332.945,209.711 c -3.484,-2.742 -8.508,-2.125 -11.234,1.344 -1.664,2.117 -10.484,4.523 -18.156,4.961 -4.406,0.242 -7.781,4.016 -7.539,8.422 0.234,4.266 3.758,7.563 7.977,7.563 0.148,0 0.289,0 0.438,-0.008 5.187,-0.281 22.68,-1.906 29.859,-11.047 2.733,-3.477 2.124,-8.509 -1.345,-11.235 z"
     id="path66" /><ellipse
     transform="matrix(-0.5369,0.8437,-0.8437,-0.5369,278.5632,76.3195)"
     style="fill:#a03939"
     cx="118.334"
     cy="114.618"
     rx="20.896999"
     ry="16"
     id="ellipse68" /><ellipse
     transform="matrix(0.9774,-0.2113,0.2113,0.9774,-55.9416,20.5831)"
     style="fill:#a03939"
     cx="68.348"
     cy="272.069"
     rx="13.006"
     ry="16.987"
     id="ellipse70" /><path
     inkscape:connector-curvature="0"
     style="fill:#a03939"
     d="m 176,88 c 2.078,0 4.156,-0.883 5.68,-2.398 1.515,-1.446 2.32,-3.524 2.32,-5.602 0,-2.078 -0.805,-4.164 -2.32,-5.68 -3.039,-2.961 -8.398,-2.961 -11.359,0 C 168.875,75.836 168,77.922 168,80 c 0,2.078 0.875,4.156 2.32,5.68 1.516,1.437 3.602,2.32 5.68,2.32 z"
     id="path72" /><path
     inkscape:connector-curvature="0"
     style="fill:#db3f3d"
     d="m 362.32,186.221 c -1.445,1.516 -2.32,3.602 -2.32,5.68 0,2.078 0.875,4.156 2.32,5.68 1.516,1.438 3.602,2.32 5.68,2.32 2.078,0 4.156,-0.883 5.68,-2.398 1.516,-1.445 2.32,-3.523 2.32,-5.602 0,-2.079 -0.805,-4.164 -2.32,-5.68 -3.04,-2.961 -8.399,-2.961 -11.36,0 z"
     id="path74" /><path
     inkscape:connector-curvature="0"
     style="fill:#db3f3d"
     d="m 394.32,218.32 c -1.445,1.516 -2.32,3.602 -2.32,5.68 0,2.078 0.875,4.156 2.32,5.68 1.516,1.438 3.602,2.32 5.68,2.32 2.078,0 4.156,-0.883 5.68,-2.398 1.516,-1.445 2.32,-3.523 2.32,-5.602 0,-2.079 -0.805,-4.164 -2.32,-5.68 -3.04,-2.961 -8.399,-2.961 -11.36,0 z"
     id="path76" /><path
     inkscape:connector-curvature="0"
     style="fill:#db3f3d"
     d="m 194.32,322.32 c -1.445,1.516 -2.32,3.602 -2.32,5.68 0,2.078 0.875,4.156 2.32,5.68 1.516,1.438 3.602,2.32 5.68,2.32 2.078,0 4.156,-0.883 5.68,-2.398 1.516,-1.445 2.32,-3.523 2.32,-5.602 0,-2.079 -0.805,-4.164 -2.32,-5.68 -3.039,-2.961 -8.399,-2.961 -11.36,0 z"
     id="path78" /><path
     inkscape:connector-curvature="0"
     style="fill:#db3f3d"
     d="m 298.32,362.32 c -1.445,1.516 -2.32,3.602 -2.32,5.68 0,2.078 0.875,4.156 2.32,5.68 1.516,1.438 3.602,2.32 5.68,2.32 2.078,0 4.156,-0.883 5.68,-2.398 1.516,-1.445 2.32,-3.523 2.32,-5.602 0,-2.079 -0.805,-4.164 -2.32,-5.68 -3.04,-2.961 -8.399,-2.961 -11.36,0 z"
     id="path80" /><path
     inkscape:connector-curvature="0"
     style="fill:#a03939"
     d="m 120.141,284.586 c -0.828,4.336 2.023,8.523 6.367,9.352 3.173,0.604 6.453,1.13 9.705,1.676 0.185,-5.388 0.482,-10.747 1.017,-16.039 0.003,-0.032 0.005,-0.065 0.009,-0.097 v 0 c -2.552,-0.443 -5.243,-0.782 -7.745,-1.259 -4.346,-0.821 -8.533,2.023 -9.353,6.367 z"
     id="path82" /><path
     inkscape:connector-curvature="0"
     style="fill:#a03939"
     d="m 77.539,209.539 c 0.828,0.273 1.664,0.398 2.492,0.398 3.367,0 6.492,-2.133 7.602,-5.508 1.375,-4.195 -0.906,-8.711 -5.109,-10.094 -31.258,-10.266 -54.547,-22.922 -67.344,-36.594 -0.164,-0.175 -0.387,-0.243 -0.563,-0.4 -0.492,1.342 -0.968,2.692 -1.431,4.048 -0.014,0.04 -0.028,0.079 -0.042,0.119 -1.425,4.178 -2.719,8.417 -3.935,12.688 15.158,13.431 38.547,25.565 68.33,35.343 z"
     id="path84" /><path
     inkscape:connector-curvature="0"
     style="fill:#a03939"
     d="m 184.38,448.317 c -0.22,0.1 -0.442,0.2 -0.662,0.3 -13.765,6.265 -27.904,12.642 -37.177,12.414 1.987,0.841 4.007,1.618 6.021,2.406 1.838,0.714 3.659,1.464 5.519,2.133 1.696,0.616 3.421,1.169 5.135,1.747 2.661,0.889 5.331,1.755 8.03,2.559 0.76,0.227 1.524,0.444 2.288,0.663 5.467,-2.202 11.092,-4.754 16.817,-7.36 1.454,-0.663 2.915,-1.326 4.375,-1.989 0.001,-10e-4 0.002,-10e-4 0.004,-0.002 -10e-4,-10e-4 -10e-4,-10e-4 -10e-4,-10e-4 -3.608,-4.155 -7.029,-8.472 -10.349,-12.87 z"
     id="path86" /><path
     inkscape:connector-curvature="0"
     style="fill:#db3f3d"
     d="m 430.607,94.224 c -18.068,8.047 -39.588,15.041 -64.396,20.713 -4.313,0.984 -7,5.273 -6.016,9.578 0.844,3.711 4.141,6.219 7.789,6.219 0.594,0 1.188,-0.063 1.789,-0.203 27.146,-6.2 50.742,-13.954 70.345,-22.992 -3.02,-4.552 -6.196,-8.987 -9.511,-13.315 z"
     id="path88" /></g><g
   id="g92"
   transform="translate(125.33898,-418.61017)" /><g
   id="g94"
   transform="translate(125.33898,-418.61017)" /><g
   id="g96"
   transform="translate(125.33898,-418.61017)" /><g
   id="g98"
   transform="translate(125.33898,-418.61017)" /><g
   id="g100"
   transform="translate(125.33898,-418.61017)" /><g
   id="g102"
   transform="translate(125.33898,-418.61017)" /><g
   id="g104"
   transform="translate(125.33898,-418.61017)" /><g
   id="g106"
   transform="translate(125.33898,-418.61017)" /><g
   id="g108"
   transform="translate(125.33898,-418.61017)" /><g
   id="g110"
   transform="translate(125.33898,-418.61017)" /><g
   id="g112"
   transform="translate(125.33898,-418.61017)" /><g
   id="g114"
   transform="translate(125.33898,-418.61017)" /><g
   id="g116"
   transform="translate(125.33898,-418.61017)" /><g
   id="g118"
   transform="translate(125.33898,-418.61017)" /><g
   id="g120"
   transform="translate(125.33898,-418.61017)" /><g
   id="g26">
	<path
   d="M408.852,70.148C363.616,24.913,303.473,0,239.5,0S115.384,24.913,70.148,70.148C24.913,115.384,0,175.527,0,239.5   s24.913,124.117,70.148,169.352C115.383,454.088,175.527,479,239.5,479s124.117-24.912,169.352-70.148   C454.087,363.617,479,303.473,479,239.5S454.087,115.384,408.852,70.148z M398.246,398.246C355.843,440.648,299.466,464,239.5,464   c-12.284,0-24.414-0.996-36.308-2.919c1.035-0.691,2.062-1.391,3.085-2.089c9.501-6.479,18.475-12.607,32.91-11.999   c33.815,1.411,51.361-8.589,52.092-9.015c3.578-2.087,4.811-6.694,2.724-10.271c-2.088-3.578-6.655-4.802-10.233-2.713   c-0.146,0.083-14.949,8.229-43.958,7.013c-19.388-0.806-31.924,7.731-41.986,14.593c-9.35,6.376-15.021,9.892-22.786,8.018   c-0.098-0.024-0.196-0.036-0.294-0.056c-35.134-10.528-67.326-29.652-93.991-56.316C38.352,355.843,15,299.466,15,239.5   c0-19.812,2.565-39.228,7.508-57.882c13.06,10.187,31.662,19.389,54.681,26.948c0.777,0.255,1.565,0.376,2.341,0.376   c3.152,0,6.087-2.003,7.124-5.162c1.292-3.935-0.85-8.173-4.786-9.465c-24.459-8.032-43.192-17.761-54.61-28.29   c10.958-31.739,29.055-60.829,53.496-85.271C123.157,38.352,179.534,15,239.5,15s116.343,23.352,158.746,65.754   c6.028,6.028,11.657,12.348,16.903,18.911c-14.138,5.875-30.677,10.996-49.325,15.257c-4.038,0.923-6.563,4.944-5.641,8.982   c0.794,3.476,3.884,5.831,7.305,5.831c0.553,0,1.115-0.062,1.678-0.19c20.985-4.795,39.514-10.674,55.203-17.502   C450.125,149.235,464,193.298,464,239.5C464,299.466,440.648,355.843,398.246,398.246z"
   id="path2" />
	<path
   d="M406.625,271.091c-1.292-3.936-5.531-6.078-9.466-4.785c-11.918,3.915-25.104,7.392-39.19,10.333   C322.375,284.072,281.41,288,239.5,288c-38.723,0-76.965-3.385-110.594-9.79c-4.07-0.776-7.997,1.896-8.771,5.964   c-0.775,4.069,1.896,7.996,5.964,8.771C160.638,299.523,199.851,303,239.5,303c42.923,0,84.949-4.038,121.535-11.677   c14.63-3.055,28.359-6.677,40.805-10.766C405.775,279.264,407.917,275.026,406.625,271.091z"
   id="path4" />
	<path
   d="M373.684,305.043C334.532,314.828,288.132,320,239.5,320c-4.142,0-7.5,3.358-7.5,7.5s3.358,7.5,7.5,7.5   c49.839,0,97.497-5.327,137.82-15.404c4.019-1.004,6.462-5.076,5.458-9.095C381.773,306.482,377.7,304.038,373.684,305.043z"
   id="path6" />
	<path
   d="M198.267,246.898c4.65,0.775,8.863,1.113,12.722,1.113c14.595,0,24.085-4.844,32.669-9.225   c8.39-4.283,15.63-7.98,27.721-7.787c4.146,0.048,7.553-3.236,7.62-7.378s-3.236-7.553-7.378-7.62   c-15.803-0.259-25.894,4.888-34.783,9.425c-10.059,5.135-18.746,9.568-36.105,6.676c-4.085-0.679-7.95,2.079-8.631,6.165   C191.421,242.353,194.181,246.217,198.267,246.898z"
   id="path8" />
	<path
   d="M303.494,231c0.136,0,0.273-0.003,0.411-0.011c3.656-0.198,22.26-1.65,29.493-10.855c2.559-3.257,1.993-7.972-1.264-10.531   c-3.256-2.558-7.972-1.993-10.531,1.264c-1.93,2.457-11.367,4.742-18.516,5.145c-4.132,0.228-7.299,3.76-7.076,7.894   C296.227,227.903,299.537,231,303.494,231z"
   id="path10" />
	<path
   d="M137.66,126.735c3.877-6.092,5.697-13.073,5.124-19.659c-0.628-7.225-4.166-13.391-9.705-16.916   c-5.54-3.526-12.623-4.118-19.434-1.626c-6.208,2.271-11.761,6.876-15.637,12.967c-3.877,6.092-5.697,13.073-5.124,19.658   c0.628,7.226,4.165,13.391,9.704,16.916c3.279,2.086,7.099,3.146,11.084,3.146c2.746,0,5.57-0.503,8.349-1.519   C128.23,137.432,133.784,132.826,137.66,126.735z M110.642,125.421c-2.146-1.366-2.684-4.07-2.814-5.56   c-0.284-3.271,0.749-7.028,2.835-10.306c2.086-3.278,5.051-5.805,8.135-6.933c0.784-0.287,1.963-0.618,3.226-0.618   c1.001,0,2.054,0.208,3.003,0.813c2.146,1.366,2.684,4.07,2.813,5.56c0.285,3.271-0.749,7.027-2.834,10.305l0,0   c-2.086,3.278-5.051,5.805-8.135,6.933C115.464,126.128,112.787,126.786,110.642,125.421z"
   id="path12" />
	<path
   d="M87.891,267.237c-1.305-6.037-4.407-11.387-8.735-15.065c-4.828-4.104-10.836-5.758-16.482-4.536   c-5.647,1.22-10.436,5.208-13.137,10.938c-2.422,5.137-3.038,11.292-1.732,17.328c1.305,6.037,4.407,11.387,8.735,15.066   c3.786,3.218,8.297,4.929,12.792,4.929c1.236,0,2.472-0.129,3.69-0.393c5.647-1.22,10.436-5.208,13.138-10.938   C88.581,279.428,89.196,273.274,87.891,267.237L87.891,267.237z M72.591,278.169c-0.408,0.866-1.307,2.364-2.739,2.674   c-1.429,0.309-2.87-0.684-3.599-1.304c-1.804-1.533-3.184-4.013-3.788-6.806c-0.604-2.792-0.371-5.621,0.639-7.762   c0.408-0.866,1.307-2.364,2.739-2.674c0.186-0.04,0.371-0.058,0.555-0.058c1.237,0,2.409,0.823,3.043,1.362   c1.804,1.533,3.184,4.014,3.788,6.806C73.833,273.198,73.601,276.028,72.591,278.169z"
   id="path14" />
	<path
   d="M367.5,199.005c1.97,0,3.91-0.81,5.3-2.2c1.4-1.4,2.2-3.33,2.2-5.3c0-1.98-0.8-3.91-2.2-5.31c-1.39-1.39-3.33-2.2-5.3-2.2   c-1.97,0-3.91,0.81-5.3,2.2c-1.4,1.4-2.2,3.33-2.2,5.31c0,1.97,0.8,3.9,2.2,5.3C363.59,198.195,365.53,199.005,367.5,199.005z"
   id="path16" />
	<path
   d="M399.5,230.995c1.98,0,3.91-0.8,5.3-2.19c1.4-1.4,2.2-3.33,2.2-5.31c0-1.97-0.8-3.9-2.2-5.3c-1.39-1.39-3.32-2.2-5.3-2.2   c-1.97,0-3.91,0.81-5.3,2.2c-1.4,1.4-2.2,3.33-2.2,5.3c0,1.98,0.8,3.91,2.2,5.31C395.59,230.195,397.53,230.995,399.5,230.995z"
   id="path18" />
	<path
   d="M303.5,360.005c-1.97,0-3.91,0.8-5.3,2.19c-1.4,1.4-2.2,3.33-2.2,5.31c0,1.97,0.8,3.9,2.2,5.3   c1.39,1.39,3.33,2.19,5.3,2.19c1.97,0,3.91-0.8,5.3-2.19c1.4-1.4,2.2-3.33,2.2-5.3c0-1.98-0.8-3.91-2.2-5.31   C307.41,360.805,305.48,360.005,303.5,360.005z"
   id="path20" />
	<path
   d="M175.5,87.005c1.97,0,3.91-0.81,5.3-2.2c1.4-1.4,2.2-3.33,2.2-5.3c0-1.98-0.8-3.91-2.2-5.31c-1.39-1.39-3.32-2.19-5.3-2.19   c-1.97,0-3.91,0.8-5.3,2.19c-1.4,1.4-2.2,3.33-2.2,5.31c0,1.97,0.8,3.9,2.2,5.3C171.59,86.195,173.53,87.005,175.5,87.005z"
   id="path22" />
	<path
   d="M199.5,320.005c-1.97,0-3.91,0.8-5.3,2.19c-1.4,1.4-2.2,3.33-2.2,5.3c0,1.98,0.8,3.91,2.2,5.31   c1.39,1.39,3.33,2.19,5.3,2.19c1.97,0,3.91-0.8,5.3-2.19c1.4-1.4,2.2-3.33,2.2-5.31c0-1.97-0.8-3.9-2.2-5.3   C203.41,320.805,201.47,320.005,199.5,320.005z"
   id="path24" />
</g>
<g
   id="g28">
</g>
<g
   id="g30">
</g>
<g
   id="g32">
</g>
<g
   id="g34">
</g>
<g
   id="g36">
</g>
<g
   id="g38">
</g>
<g
   id="g40">
</g>
<g
   id="g42">
</g>
<g
   id="g44">
</g>
<g
   id="g46">
</g>
<g
   id="g48">
</g>
<g
   id="g50">
</g>
<g
   id="g52">
</g>
<g
   id="g54">
</g>
<g
   id="g56">
</g>
</svg>