<svg height="511pt" viewBox="-16 1 511 511.999" width="511pt" xmlns="http://www.w3.org/2000/svg"><g fill-rule="evenodd"><path d="m240.496094 79.6875c8.59375 0 16.90625 1.195312 24.785156 3.433594v-42.128906h-49.566406v42.128906c7.875-2.238282 16.1875-3.433594 24.78125-3.433594zm0 0" fill="#009d86"/><path d="m265.28125 83.121094c-7.878906-2.238282-16.191406-3.433594-24.785156-3.433594s-16.90625 1.199219-24.78125 3.433594c-37.933594 10.777344-65.714844 45.675781-65.714844 87.0625h180.992188c.003906-41.386719-27.78125-76.285156-65.710938-87.0625zm0 0" fill="#009d86"/><path d="m330.996094 170.183594h-198.585938v71.167968l108.085938-55.003906 108.085937 55.003906v-71.167968zm0 0" fill="#ffd777"/><path d="m348.582031 241.351562-108.085937-55.003906-108.085938 55.003906h84.421875c0-13.070312 10.59375-23.664062 23.664063-23.664062 13.070312 0 23.664062 10.59375 23.664062 23.664062zm0 0" fill="#ffba4a"/><path d="m264.160156 241.347656c0 13.070313-10.59375 23.664063-23.664062 23.664063-13.070313 0-23.664063-10.59375-23.664063-23.664063 0-13.066406 10.59375-23.664062 23.664063-23.664062 13.070312 0 23.664062 10.597656 23.664062 23.664062zm0 0" fill="#e6e6e6"/><path d="m264.160156 241.351562c0 13.066407-10.59375 23.664063-23.664062 23.664063-13.070313 0-23.664063-10.597656-23.664063-23.664063h-84.421875v55.640626h216.171875v-55.640626zm0 0" fill="#1cd3fb"/><path d="m348.582031 296.992188h-216.171875v165.007812h53.246094v-69.582031c0-30.164063 24.679688-54.84375 54.839844-54.84375 30.164062 0 54.84375 24.679687 54.84375 54.84375v69.582031h53.242187zm0 0" fill="#ffba4a"/><path d="m295.339844 392.417969c0-30.164063-24.679688-54.84375-54.84375-54.84375-30.160156 0-54.839844 24.679687-54.839844 54.84375zm0 0" fill="#1cd3fb"/><path d="m185.65625 392.417969h109.683594v69.582031h-109.683594zm0 0" fill="#1cd3fb"/><path d="m132.410156 462v-196.988281h-102.332031v196.988281zm0 0" fill="#ffba4a"/><path d="m30.078125 265.011719h102.332031v-39.011719h-102.332031zm0 0" fill="#ffd777"/><path d="m42.148438 226h78.191406c6.605468-13.222656 3.59375-29.113281-9.042969-39.898438l-30.050781-25.652343-30.054688 25.652343c-12.636718 10.785157-15.648437 26.675782-9.042968 39.898438zm0 0" fill="#009d86"/><path d="m369.695312 186.101562c-12.636718 10.789063-15.648437 26.675782-9.039062 39.898438h78.1875c6.605469-13.222656 3.59375-29.113281-9.042969-39.898438l-30.050781-25.652343zm0 0" fill="#009d86"/><path d="m438.84375 226h-90.261719v39.011719h102.332031v-39.011719zm0 0" fill="#ffd777"/><path d="m450.914062 265.011719h-102.332031v196.988281h102.332031zm0 0" fill="#ffba4a"/><path d="m399.75 462h-389.253906v40h460v-40zm0 0" fill="#009d86"/></g><path d="m470.496094 452h-9.582032v-176.988281h9.582032c5.523437 0 10-4.476563 10-10 0-5.519531-4.476563-10-10-10h-9.582032v-29.011719c0-5.15625-3.902343-9.398438-8.914062-9.941406 1.417969-13.730469-4.125-27.679688-15.707031-37.5625l-30.050781-25.652344c-3.742188-3.191406-9.246094-3.191406-12.984376 0l-30.050781 25.652344c-1.671875 1.421875-3.207031 2.9375-4.625 4.519531v-12.832031c0-5.523438-4.476562-10-10-10h-8.082031c-3.855469-38.820313-29.890625-71.214844-65.21875-84.289063v-34.902343c0-5.523438-4.480469-10-10-10h-14.78125v-20.992188c0-5.523438-4.480469-10-10-10-5.523438 0-10 4.476562-10 10v20.992188h-14.785156c-5.523438 0-10 4.476562-10 10v34.902343c-35.328125 13.074219-61.363282 45.46875-65.21875 84.289063h-8.082032c-5.523437 0-10 4.476562-10 10v12.832031c-1.417968-1.582031-2.953124-3.097656-4.621093-4.523437l-30.054688-25.652344c-3.738281-3.1875-9.246093-3.191406-12.984375.003906l-30.050781 25.652344c-11.582031 9.882812-17.125 23.832031-15.707031 37.5625-5.011719.542968-8.914063 4.785156-8.914063 9.941406v29.011719h-9.582031c-5.523438 0-10 4.476562-10 10 0 5.523437 4.476562 10 10 10h9.582031v176.988281h-9.582031c-5.523438 0-10 4.476562-10 10v40c0 5.519531 4.476562 10 10 10h459.996094c5.523437 0 10-4.480469 10-10v-40c0-5.523438-4.476563-10-10-10zm-29.582032 0h-31.164062v-114.421875c0-5.523437-4.480469-10-10-10-5.523438 0-10 4.476563-10 10v114.421875h-31.167969v-145.164062c4.71875-.800782 8.316407-4.898438 8.316407-9.84375 0-4.949219-3.597657-9.046876-8.316407-9.847657v-12.132812h82.332031zm-135.574218 0v-49.582031h2.375c5.519531 0 10-4.476563 10-10 0-5.519531-4.480469-10-10-10h-3.148438c-4.820312-31.023438-31.714844-54.839844-64.070312-54.839844-32.351563 0-59.246094 23.816406-64.066406 54.839844h-3.148438c-5.519531 0-10 4.480469-10 10 0 5.523437 4.480469 10 10 10h2.375v49.582031h-33.246094v-145.007812h196.175782v145.007812zm-21.136719-69.582031h-87.410156c4.558593-19.925781 22.417969-34.839844 43.707031-34.839844s39.144531 14.914063 43.703125 34.839844zm54.378906-202.234375v44.859375l-88.148437-44.859375zm-196.171875 71.167968h65.941406c4.265626 13.691407 17.0625 23.660157 32.144532 23.660157 15.082031 0 27.878906-9.96875 32.148437-23.660157h65.9375v35.640626h-196.171875zm98.085938 3.660157c-7.535156 0-13.664063-6.128907-13.664063-13.664063 0-7.53125 6.128907-13.660156 13.664063-13.660156s13.664062 6.128906 13.664062 13.660156c0 7.535156-6.128906 13.664063-13.664062 13.664063zm66.386718-23.660157h-34.238281c-4.269531-13.695312-17.066406-23.664062-32.148437-23.664062-15.082032 0-27.878906 9.96875-32.144532 23.664062h-34.242187l66.386719-33.785156zm51.699219 23.660157v-3.816407c4.71875-.800781 8.316407-4.898437 8.316407-9.84375 0-1.972656-.578126-3.804687-1.5625-5.351562h73.464843.035157.027343 2.050781v19.011719zm17.605469-61.304688 23.5625-20.109375 23.558594 20.109375c7.066406 6.027344 10.101562 14.332031 8.5 22.292969h-64.117188c-1.601562-7.960938 1.433594-16.265625 8.496094-22.292969zm-150.472656-142.714843h29.566406v19.785156c-4.828125-.714844-9.761719-1.089844-14.785156-1.089844-5.023438 0-9.957032.375-14.78125 1.089844zm14.78125 38.695312c41 0 74.914062 30.816406 79.855468 70.496094h-79.855468c-5.523438 0-10 4.480468-10 10 0 3.273437 1.578125 6.167968 4.007812 7.992187l-92.09375 46.867188v-44.859375h18.085938c5.523437 0 10-4.476563 10-10 0-5.472656-4.398438-9.914063-9.855469-9.992188 4.941406-39.683594 38.855469-70.503906 79.855469-70.503906zm-182.8125 104.019531 23.5625-20.109375 23.558594 20.109375c7.0625 6.027344 10.101562 14.332031 8.496093 22.292969h-64.113281c-1.601562-7.960938 1.433594-16.265625 8.496094-22.292969zm-17.605469 42.292969h75.582031c-.984375 1.546875-1.5625 3.378906-1.5625 5.351562 0 4.945313 3.59375 9.042969 8.3125 9.84375v3.816407h-82.332031zm0 39.011719h82.332031v12.132812c-4.71875.800781-8.3125 4.898438-8.3125 9.847657 0 4.945312 3.59375 9.042968 8.3125 9.84375v145.164062h-31.164062v-114.421875c0-5.523437-4.480469-10-10-10-5.523438 0-10 4.476563-10 10v114.421875h-31.167969zm420.417969 216.988281h-440v-20h111.894531.019531.019532 68.0625c5.523437 0 10-4.480469 10-10 0-5.523438-4.476563-10-10-10h-4.839844v-49.582031h89.6875v49.582031h-4.847656c-5.519532 0-10 4.476562-10 10 0 5.519531 4.480468 10 10 10h68.070312.019531.019531 111.894532zm0 0"/><path d="m200.5 180.183594c5.523438 0 10-4.476563 10-10 0-5.519532-4.476562-10-10-10h-.007812c-5.519532 0-9.996094 4.480468-9.996094 10 0 5.523437 4.480468 10 10.003906 10zm0 0"/><path d="m240.496094 452h-.007813c-5.519531 0-9.996093 4.476562-9.996093 10 0 5.519531 4.480468 10 10.003906 10 5.523437 0 10-4.480469 10-10 0-5.523438-4.476563-10-10-10zm0 0"/></svg>