<svg id="Capa_1" enable-background="new 0 0 512 512" height="512" viewBox="0 0 512 512" width="512" xmlns="http://www.w3.org/2000/svg"><g><path d="m361 120h-210l-40.155 23.424c-12.289 7.168-19.845 20.324-19.845 34.551v284.025c0 22.091 17.909 40 40 40h250c22.091 0 40-17.909 40-40v-284.025c0-14.227-7.556-27.383-19.845-34.551z" fill="#fff"/><path d="m269 442c10 31 92 3.667 92 60 0 0-142.154 0-160 0-33.137 0-60-26.863-60-60s26.863-60 60-60 57.362 27.022 68 60z" fill="#cad7e2"/><path d="m361 80h-210l-14.73-25.777c-3.454-6.044-5.27-12.884-5.27-19.846v-24.377h250v24.377c0 6.961-1.817 13.802-5.27 19.846z" fill="#ddb9a3"/><path d="m151 80h210c11.046 0 20 8.954 20 20 0 11.046-8.954 20-20 20h-210c-11.046 0-20-8.954-20-20 0-11.046 8.954-20 20-20z" fill="#e2e9ee"/><path d="m173.5 120h165l-20 40h-125z" fill="#ddb9a3"/><g><circle cx="421" cy="374.94" r="10"/><path d="m424.359 153.07c-4.35-7.56-10.63-13.89-18.17-18.28l-23.734-13.851c5.282-5.41 8.545-12.799 8.545-20.939 0-11.103-6.067-20.809-15.056-25.996l8.468-14.819c4.31-7.542 6.588-16.12 6.588-24.808v-24.377c0-5.523-4.478-10-10-10h-250c-5.523 0-10 4.477-10 10v24.377c0 8.688 2.278 17.266 6.588 24.807l8.468 14.819c-8.989 5.188-15.056 14.894-15.056 25.997 0 8.14 3.263 15.529 8.545 20.939l-23.735 13.851c-7.54 4.39-13.82 10.72-18.17 18.28-4.34 7.57-6.64 16.18-6.64 24.9v284.03c0 6.75 1.32 13.3 3.93 19.46 2.52 5.96 6.13 11.3 10.72 15.89 4.59 4.601 9.93 8.2 15.89 10.72 6.16 2.61 12.71 3.93 19.46 3.93h250c6.75 0 13.3-1.32 19.46-3.931 5.96-2.52 11.3-6.13 15.89-10.72s8.2-9.93 10.72-15.89c2.6-6.159 3.93-12.709 3.93-19.459v-42.061c0-5.51-4.49-10-10-10s-10 4.49-10 10v42.061c-.03 16.51-13.49 29.97-30 30h-10.826c-2.295-13.261-9.392-23.354-21.195-30.074-11.621-6.616-25.626-8.896-39.17-11.1-14.901-2.425-28.977-4.716-31.292-11.896-13.317-41.284-43.02-66.93-77.517-66.93-38.598 0-70 31.402-70 70 0 19.572 8.084 37.284 21.077 50h-21.077c-16.51-.03-29.97-13.49-30-30v-284.03c0-10.62 5.7-20.55 14.88-25.91l37.82-22.06h13.62l17.236 34.472c1.694 3.388 5.157 5.528 8.944 5.528h125c3.788 0 7.25-2.14 8.944-5.528l17.236-34.472h13.62l37.82 22.06c9.18 5.36 14.88 15.29 14.88 25.91v151.97c0 5.52 4.49 10 10 10s10-4.48 10-10v-.01-151.96c0-8.72-2.3-17.33-6.641-24.9zm-273.359 288.93c0-27.57 22.43-50 50-50 30.498 0 50.207 27.414 58.482 53.07 6.07 18.816 26.936 22.212 47.114 25.496 24.887 4.05 38.921 7.956 43.08 21.434h-148.676c-27.57 0-50-22.43-50-50zm-10-422h230v14.377c0 5.212-1.367 10.359-3.953 14.884l-11.851 20.739h-198.393l-11.851-20.739c-2.585-4.524-3.952-9.671-3.952-14.884zm171.319 130h-112.639l-10-20h132.639zm-161.319-40c-5.514 0-10-4.486-10-10s4.486-10 10-10h210c5.514 0 10 4.486 10 10s-4.486 10-10 10z"/><path d="m236 309.5c5.51 0 10-4.49 10-10v-80c0-5.51-4.49-10-10-10s-10 4.49-10 10v30h-20v-30c0-5.51-4.49-10-10-10s-10 4.49-10 10v80c0 5.51 4.49 10 10 10s10-4.49 10-10v-30h20v30c0 5.51 4.49 10 10 10z"/><path d="m201 452c-5.514 0-10-4.486-10-10 0-5.522-4.477-10-10-10s-10 4.478-10 10c0 16.542 13.458 30 30 30 5.523 0 10-4.478 10-10s-4.477-10-10-10z"/><path d="m316 249.5c-2.763 0-5.264 1.121-7.074 2.932-3.917-1.878-8.3-2.932-12.926-2.932-16.542 0-30 13.458-30 30s13.458 30 30 30c3.506 0 6.87-.61 10-1.72v12.72c0 5.514-4.486 10-10 10-8.165 0-12.526-1.944-12.57-1.964-4.917-2.487-10.853-.459-13.34 4.458s-.506 10.95 4.41 13.437c1.349.679 8.724 4.069 21.5 4.069 16.542 0 30-13.458 30-30v-61c0-5.523-4.478-10-10-10zm-20 40c-5.514 0-10-4.486-10-10s4.486-10 10-10 10 4.486 10 10-4.486 10-10 10z"/></g></g></svg>