<?xml version="1.0" encoding="UTF-8" standalone="no"?>
<!-- Generator: Adobe Illustrator 19.0.0, SVG Export Plug-In . SVG Version: 6.00 Build 0)  -->

<svg
   xmlns:dc="http://purl.org/dc/elements/1.1/"
   xmlns:cc="http://creativecommons.org/ns#"
   xmlns:rdf="http://www.w3.org/1999/02/22-rdf-syntax-ns#"
   xmlns:svg="http://www.w3.org/2000/svg"
   xmlns="http://www.w3.org/2000/svg"
   xmlns:sodipodi="http://sodipodi.sourceforge.net/DTD/sodipodi-0.dtd"
   xmlns:inkscape="http://www.inkscape.org/namespaces/inkscape"
   version="1.1"
   id="Capa_1"
   x="0px"
   y="0px"
   viewBox="0 0 465 465"
   style="enable-background:new 0 0 465 465;"
   xml:space="preserve"
   sodipodi:docname="mexico_flag.svg"
   inkscape:version="0.92.4 (5da689c313, 2019-01-14)"><metadata
   id="metadata51"><rdf:RDF><cc:Work
       rdf:about=""><dc:format>image/svg+xml</dc:format><dc:type
         rdf:resource="http://purl.org/dc/dcmitype/StillImage" /></cc:Work></rdf:RDF></metadata><defs
   id="defs49" /><sodipodi:namedview
   pagecolor="#ffffff"
   bordercolor="#666666"
   borderopacity="1"
   objecttolerance="10"
   gridtolerance="10"
   guidetolerance="10"
   inkscape:pageopacity="0"
   inkscape:pageshadow="2"
   inkscape:window-width="1920"
   inkscape:window-height="986"
   id="namedview47"
   showgrid="false"
   inkscape:zoom="2.8710056"
   inkscape:cx="109.62316"
   inkscape:cy="189.84783"
   inkscape:window-x="-11"
   inkscape:window-y="-11"
   inkscape:window-maximized="1"
   inkscape:current-layer="g14" />
<g
   id="g14">
	<path
   style="fill:#FFFFFF;"
   d="M300,375V90H165v202.5c0,4.143-3.358,7.5-7.5,7.5v15c4.142,0,7.5,3.357,7.5,7.5V375H300z    M232.5,196.25c15.164,0,27.5,12.336,27.5,27.5s-12.336,27.5-27.5,27.5s-27.5-12.336-27.5-27.5S217.336,196.25,232.5,196.25z    M187.5,216.25c4.142,0,7.5,3.357,7.5,7.5c0,20.678,16.822,37.5,37.5,37.5s37.5-16.822,37.5-37.5c0-4.143,3.357-7.5,7.5-7.5   s7.5,3.357,7.5,7.5c0,28.948-23.552,52.5-52.5,52.5c-28.949,0-52.5-23.552-52.5-52.5C180,219.607,183.358,216.25,187.5,216.25z"
   id="path2" />
	<path
   style="fill:#259245;"
   d="M150,292.5V90H15v285h135v-52.5c0-4.143,3.358-7.5,7.5-7.5v-15C153.358,300,150,296.643,150,292.5z"
   id="path4" />
	<rect
   x="315"
   y="90"
   style="fill:#ED1F34;"
   width="135"
   height="285"
   id="rect6" />
	<path
   d="M 457.5,75 H 7.5 C 3.358,75 0,78.357 0,82.5 v 300 c 0,4.143 3.358,7.5 7.5,7.5 h 450 c 4.143,0 7.5,-3.357 7.5,-7.5 V 82.5 C 465,78.357 461.643,75 457.5,75 Z M 450,375 H 315 V 90 H 450 Z M 157.5,297 c -4.142,0 -7.5,-10.643 -7.5,-6.5 V 375 H 15 V 90 h 135 v 202.5 c 0,4.143 3.358,7.5 7.5,7.5 4.142,0 7.5,-3.357 7.5,-7.5 V 90 H 300 V 375 H 165 v -84.5 c 0,-4.143 -3.358,6.5 -7.5,6.5 z"
   id="path8"
   inkscape:connector-curvature="0"
   sodipodi:nodetypes="ssssssssscccccssccccsssccccss" />
	<path
   style="fill:#134923;"
   d="M232.5,276.25c28.948,0,52.5-23.552,52.5-52.5c0-4.143-3.357-7.5-7.5-7.5s-7.5,3.357-7.5,7.5   c0,20.678-16.822,37.5-37.5,37.5s-37.5-16.822-37.5-37.5c0-4.143-3.358-7.5-7.5-7.5s-7.5,3.357-7.5,7.5   C180,252.698,203.551,276.25,232.5,276.25z"
   id="path10" />
	<path
   style="fill:#F2A643;"
   d="M232.5,251.25c15.164,0,27.5-12.336,27.5-27.5s-12.336-27.5-27.5-27.5s-27.5,12.336-27.5,27.5   S217.336,251.25,232.5,251.25z"
   id="path12" />
</g>
<g
   id="g16">
</g>
<g
   id="g18">
</g>
<g
   id="g20">
</g>
<g
   id="g22">
</g>
<g
   id="g24">
</g>
<g
   id="g26">
</g>
<g
   id="g28">
</g>
<g
   id="g30">
</g>
<g
   id="g32">
</g>
<g
   id="g34">
</g>
<g
   id="g36">
</g>
<g
   id="g38">
</g>
<g
   id="g40">
</g>
<g
   id="g42">
</g>
<g
   id="g44">
</g>
</svg>