<?xml version="1.0" encoding="UTF-8" standalone="no"?>
<svg
   xmlns:dc="http://purl.org/dc/elements/1.1/"
   xmlns:cc="http://creativecommons.org/ns#"
   xmlns:rdf="http://www.w3.org/1999/02/22-rdf-syntax-ns#"
   xmlns:svg="http://www.w3.org/2000/svg"
   xmlns="http://www.w3.org/2000/svg"
   xmlns:sodipodi="http://sodipodi.sourceforge.net/DTD/sodipodi-0.dtd"
   xmlns:inkscape="http://www.inkscape.org/namespaces/inkscape"
   height="496pt"
   viewBox="0 0 496 496"
   width="496pt"
   version="1.1"
   id="svg42"
   sodipodi:docname="minzu.svg"
   inkscape:version="0.92.5 (2060ec1f9f, 2020-04-08)">
  <metadata
     id="metadata48">
    <rdf:RDF>
      <cc:Work
         rdf:about="">
        <dc:format>image/svg+xml</dc:format>
        <dc:type
           rdf:resource="http://purl.org/dc/dcmitype/StillImage" />
        <dc:title></dc:title>
      </cc:Work>
    </rdf:RDF>
  </metadata>
  <defs
     id="defs46" />
  <sodipodi:namedview
     pagecolor="#ffffff"
     bordercolor="#666666"
     borderopacity="1"
     objecttolerance="10"
     gridtolerance="10"
     guidetolerance="10"
     inkscape:pageopacity="0"
     inkscape:pageshadow="2"
     inkscape:window-width="1920"
     inkscape:window-height="1017"
     id="namedview44"
     showgrid="false"
     inkscape:zoom="0.50466895"
     inkscape:cx="-306.05866"
     inkscape:cy="478.0499"
     inkscape:window-x="1912"
     inkscape:window-y="-8"
     inkscape:window-maximized="1"
     inkscape:current-layer="svg42"
     showguides="false" />
  <circle
     style="opacity:1;fill:#e9ddaf;fill-opacity:1;fill-rule:nonzero;stroke:#000000;stroke-width:8.16147423;stroke-linecap:round;stroke-linejoin:round;stroke-miterlimit:4;stroke-dasharray:none;stroke-opacity:1;paint-order:markers fill stroke"
     id="path1784"
     cx="248.00002"
     cy="248.00002"
     r="238.46796" />
  <ellipse
     style="opacity:1;fill:#4d4d4d;fill-opacity:0.39215686;fill-rule:nonzero;stroke:none;stroke-width:8.86784554;stroke-linecap:round;stroke-linejoin:round;stroke-miterlimit:4;stroke-dasharray:none;stroke-opacity:1;paint-order:markers fill stroke"
     id="path1786-5-3-6"
     cx="368.55847"
     cy="130.4138"
     rx="109.23001"
     ry="109.97309" />
  <ellipse
     style="opacity:1;fill:#02639d;fill-opacity:0.39215686;fill-rule:nonzero;stroke:none;stroke-width:8.86784554;stroke-linecap:round;stroke-linejoin:round;stroke-miterlimit:4;stroke-dasharray:none;stroke-opacity:1;paint-order:markers fill stroke"
     id="path1786-5-3"
     cx="126.32043"
     cy="128.92769"
     rx="109.23001"
     ry="109.97309" />
  <ellipse
     style="opacity:1;fill:#ffc600;fill-opacity:0.39215686;fill-rule:nonzero;stroke:none;stroke-width:8.86784554;stroke-linecap:round;stroke-linejoin:round;stroke-miterlimit:4;stroke-dasharray:none;stroke-opacity:1;paint-order:markers fill stroke"
     id="path1786-5"
     cx="367.8154"
     cy="368.93652"
     rx="109.23001"
     ry="109.97309" />
  <ellipse
     style="opacity:1;fill:#df1b12;fill-opacity:0.39215686;fill-rule:nonzero;stroke:none;stroke-width:8.86784554;stroke-linecap:round;stroke-linejoin:round;stroke-miterlimit:4;stroke-dasharray:none;stroke-opacity:1;paint-order:markers fill stroke"
     id="path1786"
     cx="128.54955"
     cy="370.42267"
     rx="109.23002"
     ry="109.97309" />
  <g
     id="g1686"
     transform="translate(13.5,-13.5)">
    <g
       style="fill:#ff958a"
       transform="matrix(0.46118953,0,0,0.46118953,0,267.25001)"
       id="g20">
      <path
         inkscape:connector-curvature="0"
         id="path4"
         d="M 136,410.87891 V 456 l -1.67969,3.35937 C 113.67969,448.23828 94.800781,434.16016 78.320312,417.67969 L 80,416 V 391.19922 C 80,372.87891 92.480469,356.87891 110.32031,352.39844 126.64063,367.44141 136,388.64062 136,410.87891 Z m 0,0" />
      <path
         inkscape:connector-curvature="0"
         id="path6"
         d="m 248,448 v 40 c -41.12109,0 -79.83984,-10.32031 -113.67969,-28.64063 L 136,456 v -45.12109 c 0,-22.23829 -9.35937,-43.4375 -25.67969,-58.48047 L 176,336 l 72,32 z m 0,0" />
      <path
         inkscape:connector-curvature="0"
         id="path8"
         d="m 416,416 1.67969,1.67969 c -16.48047,16.48047 -35.35938,30.55859 -56,41.67968 L 360,456 v -45.12109 c 0,-22.23829 9.35937,-43.4375 25.67969,-58.48047 C 403.51953,356.87891 416,372.87891 416,391.19922 Z m 0,0" />
      <path
         inkscape:connector-curvature="0"
         id="path10"
         d="M 288,310.23828 320,296 v 40 l -72,32 v -40 z m 0,0" />
      <path
         inkscape:connector-curvature="0"
         id="path12"
         d="m 320,296 -32,14.23828 V 280 Z m 0,0" />
      <path
         inkscape:connector-curvature="0"
         id="path14"
         d="m 248,400 v -32 l 72,-32 65.67969,16.39844 C 369.35937,367.44141 360,388.64062 360,410.87891 V 456 l 1.67969,3.35937 C 327.83984,477.67969 289.12109,488 248,488 Z m 0,0" />
      <path
         inkscape:connector-curvature="0"
         id="path16"
         d="m 208,280 v 30.23828 L 176,296 Z m 0,0" />
      <path
         inkscape:connector-curvature="0"
         id="path18"
         d="M 208,310.23828 248,328 v 40 l -72,-32 v -40 z m 0,0" />
    </g>
    <path
       inkscape:connector-curvature="0"
       style="fill:#502d16;stroke-width:0.46118954"
       id="path22"
       d="m 184.47581,296.76614 c 0,11.69548 -7.78437,21.58403 -18.44758,24.75651 h -0.036 c -0.25942,-13.83568 -5.97745,-26.30582 -15.09135,-35.45574 -3.06258,-3.02656 -6.45665,-5.682 -10.1822,-7.89607 4.64793,-4.5002 10.95686,-7.23131 17.93055,-7.23131 14.27886,0 25.82661,11.54775 25.82661,25.82661 z m 0,0" />
    <path
       inkscape:connector-curvature="0"
       style="fill:#502d16;stroke-width:0.46118954"
       id="path24"
       d="m 140.71865,278.17084 c 3.72555,2.21407 7.11962,4.86951 10.1822,7.89607 9.1139,9.14992 14.83193,21.62006 15.09135,35.45574 0.036,0.36931 0.036,0.70079 0.036,1.07011 v 25.82661 c 0,-8.15369 -6.60438,-14.75806 -14.75806,-14.75806 v 7.37903 c -9.37152,-2.32396 -17.22976,-8.67073 -21.5462,-17.30362 l -0.5909,-1.14396 c -7.23131,4.79565 -15.05352,8.48516 -23.28107,10.99468 -8.227544,2.47169 -16.786573,3.76338 -25.457297,3.76338 h -2.914862 v -3.68951 c -8.153687,0 -14.758065,6.60437 -14.758065,14.75806 v -25.82661 c 0,-0.36932 0,-0.7008 0.03603,-1.07011 0.369311,-18.44758 10.405588,-34.53336 25.273546,-43.35181 7.712314,-4.6119 16.750548,-7.23131 26.343648,-7.23131 9.59311,0 18.63134,2.61941 26.34365,7.23131 z m 0,0" />
    <path
       inkscape:connector-curvature="0"
       style="fill:#502d16;stroke-width:0.46118954"
       id="path26"
       d="m 88.031353,278.17084 c -14.867958,8.81845 -24.904235,24.90423 -25.273546,43.35181 h -0.03603 C 52.05857,318.35017 44.274195,308.46162 44.274195,296.76614 c 0,-0.25761 0,-0.55306 0.03603,-0.81248 0.407144,-13.90955 11.771142,-25.01413 25.790584,-25.01413 6.97369,0 13.282618,2.73111 17.930544,7.23131 z m 0,0" />
    <path
       style="fill:#f5f7fa;stroke-width:0.46118954"
       inkscape:connector-curvature="0"
       id="path28"
       d="m 151.27017,333.66131 c 8.15368,0 14.75806,6.60437 14.75806,14.75806 0,8.15369 -6.60438,14.75807 -14.75806,14.75807 h -0.18376 c 0.10989,-1.21783 0.18376,-2.43566 0.18376,-3.68952 z m 0,0" />
    <path
       style="fill:#f5f7fa;stroke-width:0.46118954"
       inkscape:connector-curvature="0"
       id="path30"
       d="m 129.72397,323.73672 -0.5909,-1.14396 c -7.23131,4.79565 -15.05352,8.48516 -23.28107,10.99468 -8.227544,2.47169 -16.786573,3.76338 -25.457297,3.76338 h -2.914862 v 22.1371 c 0,1.25386 0.07386,2.47169 0.183756,3.68952 0.848516,8.70675 4.759619,16.52896 10.627175,22.39471 2.433856,2.43566 5.164963,4.502 8.189718,6.16301 l -0.553068,0.95841 v 17.63509 l 18.447578,8.19152 18.44758,-8.19152 v -17.63509 l -0.55306,-0.95841 c 10.29389,-5.71984 17.59906,-16.23532 18.81689,-28.55772 0.10989,-1.21783 0.18376,-2.43566 0.18376,-3.68952 v -18.44758 c -9.37152,-2.32396 -17.22976,-8.67073 -21.5462,-17.30362 z m 0,0" />
    <path
       style="fill:#f5f7fa;stroke-width:0.46118954"
       inkscape:connector-curvature="0"
       id="path32"
       d="m 77.479841,337.35082 v 22.1371 c 0,1.25386 0.07386,2.47169 0.183756,3.68952 h -0.183756 c -8.153687,0 -14.758065,-6.60438 -14.758065,-14.75807 0,-8.15369 6.604378,-14.75806 14.758065,-14.75806 z m 0,0" />
    <path
       style="fill:#232323;stroke-width:0.46118954"
       inkscape:connector-curvature="0"
       id="path34"
       d="m 114.375,385.31453 c 8.13928,0 14.75807,-6.61879 14.75807,-14.75806 h -7.37903 c 0,4.06964 -3.3094,7.37903 -7.37904,7.37903 -4.06963,0 -7.37903,-3.30939 -7.37903,-7.37903 h -7.379031 c 0,8.13927 6.618791,14.75806 14.758061,14.75806 z m 0,0" />
    <path
       style="fill:#232323;stroke-width:0.46118954"
       inkscape:connector-curvature="0"
       id="path36"
       d="m 99.616939,348.41937 c 0,2.03752 -1.651996,3.68952 -3.689517,3.68952 -2.037521,0 -3.689516,-1.652 -3.689516,-3.68952 0,-2.03752 1.651995,-3.68952 3.689516,-3.68952 2.037521,0 3.689517,1.652 3.689517,3.68952 z m 0,0" />
    <path
       style="fill:#232323;stroke-width:0.46118954"
       inkscape:connector-curvature="0"
       id="path38"
       d="m 136.5121,348.41937 c 0,2.03752 -1.65199,3.68952 -3.68952,3.68952 -2.03752,0 -3.68951,-1.652 -3.68951,-3.68952 0,-2.03752 1.65199,-3.68952 3.68951,-3.68952 2.03753,0 3.68952,1.652 3.68952,3.68952 z m 0,0" />
    <path
       style="fill:#232323;stroke-width:0.46118954"
       inkscape:connector-curvature="0"
       id="path40"
       d="m 188.03202,294.13232 c -1.33853,-15.04271 -13.99783,-26.88231 -29.38282,-26.88231 -6.76291,0 -13.19795,2.27352 -18.41516,6.44945 -7.72492,-4.10206 -16.51635,-6.44945 -25.85904,-6.44945 -9.34269,0 -18.134113,2.34739 -25.859037,6.44945 -5.217207,-4.17593 -11.652243,-6.44945 -18.415154,-6.44945 -15.395804,0 -28.062302,11.85762 -29.382818,26.91834 C 14.835531,315.98117 0,347.7474 0,381.62502 c 0,63.06406 51.305534,114.375 114.375,114.375 63.06947,0 114.37501,-51.31094 114.37501,-114.375 0,-33.81817 -14.83914,-65.68528 -40.71799,-87.4927 z m 33.33895,87.4927 c 0,26.55803 -9.74803,50.86776 -25.82661,69.59097 v -3.53818 c 0,-10.175 -6.89622,-19.00426 -16.76856,-21.47594 l -27.50563,-6.87281 v -17.84767 l -14.75807,-7.37903 v -0.64135 c 9.20578,-6.01708 15.80295,-15.66603 17.79003,-26.90032 8.72657,-1.45743 15.41562,-9.00941 15.41562,-18.14132 v -24.3872 c 8.90312,-3.63187 15.44084,-11.42345 17.59906,-20.67606 21.70834,20.22568 34.05416,48.43931 34.05416,78.26891 z M 49.85711,434.01687 c 5.83693,6.09094 9.17515,14.24103 9.17515,22.72259 v 16.42267 c -6.667431,-4.04442 -12.835841,-8.81845 -18.447581,-14.17077 v -11.31355 c 0,-6.09815 3.738157,-11.44507 9.272431,-13.66094 z m 7.883459,-2.14742 23.093706,-5.77387 29.851215,13.27001 v 8.67072 H 99.616939 v 7.37903 h 11.068551 v 14.75807 H 99.616939 v 7.37903 h 11.068551 v 10.97667 C 94.814082,487.98685 79.81101,483.97667 66.411292,477.22456 v -20.4851 c 0,-9.06886 -3.132846,-17.82065 -8.670723,-24.87001 z m 16.049756,-73.0607 c -4.284018,-1.52769 -7.379033,-5.58652 -7.379033,-10.38938 0,-4.80286 3.095015,-8.86168 7.379033,-10.38937 z m 7.379032,-17.79363 c 16.50374,-0.14052 32.512063,-4.66054 46.580143,-13.17273 4.4984,7.51595 11.52974,13.1385 19.83115,15.92905 v 15.71648 c 0,18.30706 -14.89498,33.20565 -33.20565,33.20565 -18.310662,0 -33.205643,-14.89859 -33.205643,-33.20565 z M 154.95968,338.03 c 4.28402,1.52769 7.37903,5.58651 7.37903,10.38937 0,4.80286 -3.09501,8.86169 -7.37903,10.38938 z M 84.858874,409.44051 110.68549,420.918 v 10.37497 L 84.858874,419.81547 Z M 114.375,400.0726 c 5.21,0 10.175,-1.02147 14.75807,-2.81938 v 10.67041 l -14.75807,6.55934 -14.758061,-6.55934 v -10.67041 c 4.583071,1.79791 9.548061,2.81938 14.758061,2.81938 z m 3.68952,20.8454 25.82661,-11.47749 v 10.37496 l -25.82661,11.4775 z m 18.44758,-16.27494 v -2.28974 l 2.42845,1.21243 z m -44.274194,0 -2.428451,-1.07731 2.428451,-1.21243 z m 25.826614,72.90938 h 11.06855 v -7.37903 h -11.06855 v -14.75807 h 11.06855 v -7.37903 h -11.06855 v -8.67072 l 29.85482,-13.26641 23.0937,5.77388 c -5.53788,7.04575 -8.67072,15.80114 -8.67072,24.87 v 20.4851 c -13.39972,6.75211 -28.40099,10.76229 -44.2742,11.30455 v -10.98027 z m 51.65323,-20.81298 c 0,-8.48156 3.33822,-16.63165 9.17515,-22.7262 5.53427,2.21948 9.27243,7.5664 9.27243,13.66815 v 11.31355 c -5.61174,5.35233 -11.78015,10.12636 -18.44758,14.17077 z M 158.6492,274.62905 c 12.20891,0 22.1371,9.92818 22.1371,22.13709 0,8.12126 -4.56686,15.49309 -11.4811,19.33393 -1.83755,-15.6372 -10.22364,-29.26211 -22.32626,-38.1292 3.47153,-2.16543 7.48352,-3.34182 11.67026,-3.34182 z m 3.68951,47.96371 v 11.16403 c -2.15462,-1.63038 -4.63711,-2.85181 -7.37903,-3.40848 v -15.13459 h -7.37903 v 20.64724 c -6.2765,-2.7311 -11.46308,-7.54657 -14.57071,-13.77083 l -2.44466,-4.88392 -3.47694,2.31675 c -13.65373,9.1067 -29.519731,13.9618 -45.91538,14.10952 v -18.41876 h -7.379032 v 15.13098 c -2.741916,0.56028 -5.224413,1.77811 -7.379033,3.40848 v -11.16042 c 0,-26.44634 21.517374,-47.96371 47.963715,-47.96371 26.44633,0 47.9601,21.51737 47.9601,47.96371 z M 70.100809,274.62905 c 4.186736,0 8.198725,1.17639 11.670257,3.34182 -12.102623,8.87069 -20.488706,22.4956 -22.326258,38.1292 -6.914239,-3.84084 -11.481097,-11.21267 -11.481097,-19.33393 0,-12.20891 9.928186,-22.13709 22.137098,-22.13709 z m -28.664011,28.73787 c 2.161826,9.24541 8.695945,17.03338 17.595462,20.66525 v 24.3872 c 0,9.13191 6.689049,16.68389 15.41562,18.14132 1.983475,11.23429 8.58425,20.87964 17.790026,26.90032 v 0.64135 l -14.758065,7.37903 v 17.84767 l -27.505632,6.87641 c -9.872338,2.46808 -16.768563,11.30095 -16.768563,21.47594 v 3.53819 C 17.127066,432.49278 7.3790325,408.18305 7.3790325,381.62502 c 0,-29.89265 12.3422245,-58.03242 34.0577655,-78.2581 z m 0,0" />
  </g>
  <g
     id="g1706"
     transform="translate(-232.79239,-44.631353)">
    <path
       id="path4-3"
       d="m 678.39724,252.75333 0.77466,0.77466 c -7.60062,7.60062 -16.30738,14.09331 -25.82661,19.22223 l -0.77466,-1.5493 v -28.18841 c 0,-10.25607 4.31644,-20.03292 11.84321,-26.97058 8.22754,2.06634 13.9834,9.44538 13.9834,17.89451 z m 0,0"
       style="fill:#ff958a;stroke-width:0.46118954"
       inkscape:connector-curvature="0" />
    <path
       id="path6-0"
       d="m 600.9174,220.47007 33.20565,-14.75807 30.29079,7.56279 c -7.52677,6.93766 -11.84321,16.71452 -11.84321,26.97058 v 28.18841 l 0.77466,1.54931 c -15.60658,8.44913 -33.46327,13.20875 -52.42789,13.20875 -18.96461,0 -36.82129,-4.75962 -52.42788,-13.20875 l 0.77466,-1.54931 v -28.18841 c 0,-10.25606 -4.31645,-20.03292 -11.84321,-26.97058 l 30.29079,-7.56279 z m 0,0"
       style="fill:#ff958a;stroke-width:0.46118954"
       inkscape:connector-curvature="0" />
    <path
       id="path8-2"
       d="m 652.57063,95.026511 v 36.895169 c 0,-8.15369 -6.60438,-14.75807 -14.75806,-14.75807 v -7.37903 c 5.71803,-5.71803 9.92458,-12.655691 12.3224,-20.218479 1.51328,1.327723 2.43566,3.284176 2.43566,5.46041 z m 0,0"
       style="fill:#6c5d53;stroke-width:0.46118954"
       inkscape:connector-curvature="0" />
    <path
       id="path10-9"
       d="m 650.13497,89.566101 c -2.39782,7.562788 -6.60437,14.500449 -12.3224,20.218479 l -8.85448,-6.64041 c -3.83724,-2.87883 -8.48697,-4.428138 -13.28262,-4.428138 -3.46793,0 -6.862,0.812486 -9.88856,2.323958 -3.06078,1.51328 -5.75586,3.72735 -7.8204,6.53052 l -4.42814,5.90359 -7.23131,-7.23131 c -2.47168,-2.47169 -5.79189,-3.83724 -9.22379,-3.83724 -3.61565,0 -6.86199,1.47544 -9.22379,3.83724 -2.36179,2.36179 -3.83724,5.60813 -3.83724,9.22379 v 1.69703 c -8.15369,0 -14.75806,6.60438 -14.75806,14.75807 V 98.162964 c 0,-4.502003 1.03227,-8.928343 3.06258,-12.951138 4.86952,-9.776859 14.83193,-15.938065 25.71492,-16.011924 4.53803,-3.947137 10.22003,-6.566546 16.56679,-7.195281 0.18376,-0.03602 0.40535,-0.03602 0.62694,-0.03602 1.21782,-0.07386 2.43565,-0.111695 3.68951,-0.111695 6.42062,0.221587 12.58183,2.547352 17.59906,6.530517 l 2.32397,1.88259 c 5.12893,4.09486 11.43786,6.308929 17.96837,6.308929 3.09862,0 6.19904,-0.517039 9.1139,-1.475446 l 4.57407,-1.513279 c 0.70079,0.295448 1.40158,0.664759 2.06634,1.034075 -0.0739,5.127127 -0.88635,10.14617 -2.43566,14.941817 z m 0,0"
       style="fill:#483e37;stroke-width:0.46118954"
       inkscape:connector-curvature="0" />
    <path
       id="path12-8"
       d="m 637.81257,117.16361 c 8.15368,0 14.75806,6.60438 14.75806,14.75807 0,8.15368 -6.60438,14.75806 -14.75806,14.75806 h -0.18376 c 0.1099,-1.21783 0.18376,-2.43566 0.18376,-3.68951 z m 0,0"
       style="fill:#f5f7fa;stroke-width:0.46118954"
       inkscape:connector-curvature="0" />
    <path
       id="path14-3"
       d="m 637.81257,117.16361 v 25.82662 c 0,1.25385 -0.0739,2.47168 -0.18376,3.68951 -0.84852,8.70676 -4.75962,16.52896 -10.62718,22.39471 -2.43385,2.43567 -5.16496,4.50201 -8.18971,6.16301 -5.31269,2.98693 -11.40183,4.64793 -17.89452,4.64793 -6.49268,0 -12.58182,-1.661 -17.89451,-4.64793 -10.29389,-5.71983 -17.59907,-16.23531 -18.81689,-28.55772 -0.10989,-1.21783 -0.18376,-2.43566 -0.18376,-3.68951 v -27.52365 c 0,-3.61566 1.47545,-6.862 3.83724,-9.22379 2.3618,-2.3618 5.60814,-3.83724 9.22379,-3.83724 3.4319,0 6.75211,1.36555 9.22379,3.83724 l 7.23131,7.23131 4.42814,-5.90359 c 2.06455,-2.80317 4.75962,-5.01724 7.8204,-6.53052 3.02656,-1.511472 6.42063,-2.323958 9.88856,-2.323958 4.79565,0 9.44538,1.549308 13.28262,4.428138 l 8.85448,6.64041 z m 0,0"
       style="fill:#f5f7fa;stroke-width:0.46118954"
       inkscape:connector-curvature="0" />
    <path
       id="path16-9"
       d="m 619.36498,193.83097 14.75807,-6.56655 V 205.712 l -33.20565,14.75807 v -18.44758 z m 0,0"
       style="fill:#ff958a;stroke-width:0.46118954"
       inkscape:connector-curvature="0" />
    <path
       id="path18-8"
       d="m 634.12305,187.26442 -14.75807,6.56655 v -13.94558 z m 0,0"
       style="fill:#ff958a;stroke-width:0.46118954"
       inkscape:connector-curvature="0" />
    <path
       id="path20"
       d="m 619.36498,179.88539 v 13.94558 l -18.44758,8.19152 -18.44758,-8.19152 v -17.6351 l 0.55307,-0.95841 c 5.31269,2.98693 11.40183,4.64793 17.89451,4.64793 6.49269,0 12.58183,-1.661 17.89452,-4.64793 l 0.55306,0.95841 z m 0,0"
       style="fill:#f5f7fa;stroke-width:0.46118954"
       inkscape:connector-curvature="0" />
    <path
       id="path22-4"
       d="m 582.46982,193.83097 18.44758,8.19152 v 18.44758 L 567.71176,205.712 v -18.44758 z m 0,0"
       style="fill:#ff958a;stroke-width:0.46118954"
       inkscape:connector-curvature="0" />
    <path
       id="path24-4"
       d="m 582.46982,179.88539 v 13.94558 l -14.75806,-6.56655 z m 0,0"
       style="fill:#ff958a;stroke-width:0.46118954"
       inkscape:connector-curvature="0" />
    <path
       id="path26-5"
       d="m 564.206,146.67974 h -0.18376 c -8.15369,0 -14.75806,-6.60438 -14.75806,-14.75806 0,-8.15369 6.60437,-14.75807 14.75806,-14.75807 v 25.82662 c 0,1.25385 0.0739,2.47168 0.18376,3.68951 z m 0,0"
       style="fill:#f5f7fa;stroke-width:0.46118954"
       inkscape:connector-curvature="0" />
    <path
       id="path28-8"
       d="m 549.26418,240.93716 v 28.1884 l -0.77466,1.54931 c -9.51924,-5.12893 -18.22599,-11.62161 -25.82661,-19.22223 l 0.77465,-0.77466 v -18.81689 c 0,-8.44914 5.75586,-15.82817 13.98341,-17.89451 7.52676,6.93766 11.84321,16.71451 11.84321,26.97058 z m 0,0"
       style="fill:#ff958a;stroke-width:0.46118954"
       inkscape:connector-curvature="0" />
    <g
       transform="matrix(0.46118953,0,0,0.46118953,486.5424,58.131353)"
       id="g38"
       style="fill:#232323">
      <path
         id="path30-5"
         d="m 248,240 c 17.64844,0 32,-14.35156 32,-32 h -16 c 0,8.82422 -7.17578,16 -16,16 -8.82422,0 -16,-7.17578 -16,-16 h -16 c 0,17.64844 14.35156,32 32,32 z m 0,0"
         inkscape:connector-curvature="0" />
      <path
         id="path32-2"
         d="m 216,160 c 0,4.41797 -3.58203,8 -8,8 -4.41797,0 -8,-3.58203 -8,-8 0,-4.41797 3.58203,-8 8,-8 4.41797,0 8,3.58203 8,8 z m 0,0"
         inkscape:connector-curvature="0" />
      <path
         id="path34-2"
         d="m 296,160 c 0,4.41797 -3.58203,8 -8,8 -4.41797,0 -8,-3.58203 -8,-8 0,-4.41797 3.58203,-8 8,-8 4.41797,0 8,3.58203 8,8 z m 0,0"
         inkscape:connector-curvature="0" />
      <path
         id="path36-2"
         d="m 248,0 c -1.44141,0 -2.86328,0.078125 -4.30469,0.113281 C 242.84766,0.078125 242,0 241.15234,0 238.48047,0 235.84766,0.191406 233.23828,0.480469 103.33594,8.152344 0,116.21484 0,248 0,384.74219 111.25781,496 248,496 384.74219,496 496,384.74219 496,248 496,111.25781 384.74219,0 248,0 Z m 232,248 c 0,57.58594 -21.13672,110.29687 -56,150.90234 v -23.67187 c 0,-22.0625 -14.95313,-41.20703 -36.35156,-46.56641 L 328,313.75391 v -38.69922 l -32,-16 v -1.39063 c 19.96094,-13.04687 34.26562,-33.96875 38.57422,-58.32812 C 353.49609,196.17578 368,179.80078 368,160 V 80 c 0,-4.9375 -1.67969,-9.585938 -4.39844,-13.535156 1.58985,-5.703125 2.75,-11.542969 3.46875,-17.488282 C 434.65625,89.566406 480,163.57422 480,248 Z m -92.10547,97.60156 C 399.89453,350.40625 408,362 408,375.23047 v 40.53125 c -12.16797,11.60547 -25.54297,21.94922 -40,30.72656 v -51.60937 c 0,-18.39063 7.23828,-36.0625 19.89453,-49.27735 z M 160,182.52734 C 150.71094,179.21484 144,170.41406 144,160 c 0,-10.41406 6.71094,-19.21484 16,-22.52734 z m 0.35156,-61.75 c -6.07812,1.1836 -11.58984,3.82422 -16.35156,7.42969 V 86.832031 c 0,-8.472656 2,-16.953125 5.79297,-24.519531 6.10156,-12.214844 16.27734,-21.328125 28.40625,-26.234375 -4.78516,8.058594 -8.12109,17.089844 -9.48047,26.808594 l 15.83984,2.226562 c 3.64063,-25.855469 24.67188,-45.808593 50.1836,-48.714843 2.64062,-0.152344 5.3125,-0.207032 7.97656,-0.269532 12.37891,0.34375 24.44922,4.648438 34.12891,12.390625 l 5.07422,4.054688 c 18.34375,14.671875 43.8789,19.234375 66.21484,11.816406 l 3.46484,-1.152344 C 349.80859,64.800781 341.32031,85 327.07031,101.30469 L 313.60156,91.199219 C 303.97656,83.976562 292.03906,80 280,80 c -17.53516,0 -34.28125,8.375 -44.80078,22.39844 l -4.07031,5.42578 -9.19141,-9.191408 C 215.08984,91.777344 205.97656,88 196.28906,88 c -18.80859,0 -34.13672,14.43359 -35.9375,32.77734 z M 336,137.47266 c 9.28906,3.3125 16,12.11328 16,22.52734 0,10.41406 -6.71094,19.21484 -16,22.52734 z m 16,-9.26563 c -4.67188,-3.53515 -10.05469,-6.18359 -16,-7.39062 v -5.5586 c 6.23828,-6.60156 11.51172,-13.86718 16,-21.53906 z M 292.17578,20.273438 c 13.55078,2.621093 26.67188,6.4375 39.28125,11.320312 -13.92187,1.351562 -28.25,-2.609375 -39.28125,-11.320312 z M 176,124.28906 C 176,113.10547 185.10547,104 196.28906,104 c 5.41407,0 10.51172,2.11328 14.34375,5.94531 L 232.86328,132.18359 248,112 c 7.51172,-10.01562 19.47266,-16 32,-16 8.60156,0 17.12891,2.839844 24,8 l 16,12 v 68 c 0,39.69531 -32.30469,72 -72,72 -39.69531,0 -72,-32.30469 -72,-72 z m 72,178.95703 -32,-14.22265 v -23.13672 c 9.9375,3.89844 20.70313,6.11328 32,6.11328 11.29687,0 22.0625,-2.21484 32,-6.11328 v 23.13672 z m 48,-26.30078 5.26562,2.62891 L 296,281.91016 Z m -96,4.96485 -5.26563,-2.33594 L 200,276.94531 Z m -16,10.40234 56,24.88672 v 22.49609 l -56,-24.88672 z m 72,24.88672 56,-24.88672 v 22.49609 l -56,24.88672 z M 146.01562,39.679688 c -4.09375,4.609374 -7.67968,9.769531 -10.53515,15.480468 C 130.58594,64.9375 128,75.886719 128,86.832031 V 160 c 0,19.80078 14.50391,36.17578 33.42578,39.33594 4.30078,24.35937 18.61328,45.27343 38.57422,58.32812 v 1.39063 l -32,16 v 38.69922 l -59.64844,14.91015 C 86.953125,334.01563 72,353.16797 72,375.23047 v 23.67187 C 37.136719,358.29688 16,305.58594 16,248 16,156.64844 69.089844,77.496094 146.01562,39.679688 Z M 128,446.48828 C 113.54297,437.71875 100.16797,427.36719 88,415.76172 V 375.23047 C 88,362 96.105469,350.40625 108.10547,345.60156 120.76172,358.81641 128,376.48828 128,394.87109 Z m 16,8.80078 v -60.41797 c 0,-19.66406 -6.79297,-38.64062 -18.80078,-53.92578 L 175.27344,328.42578 240,357.19922 v 12.1289 l -21.20703,3.85547 -2.95313,-14.75 -15.6875,3.14063 2.89453,14.47265 -16.67968,3.03125 -2.52735,-12.64453 -15.6875,3.14063 2.47266,12.37109 -12.05859,2.19141 2.85937,15.74219 12.33594,-2.23829 2.39062,11.94532 15.6875,-3.14453 -2.33593,-11.66407 16.67968,-3.03515 1.96875,9.84375 15.6875,-3.14453 -1.91015,-9.5625 L 256,382.67187 v -25.47265 l 64.72656,-28.76563 50.07422,12.51953 C 358.79297,356.23047 352,375.21484 352,394.87109 v 60.41797 C 320.69531,471.0625 285.38281,480 248,480 c -37.38281,0 -72.69531,-8.9375 -104,-24.71094 z m 0,0"
         inkscape:connector-curvature="0" />
    </g>
  </g>
  <g
     id="g1730"
     transform="translate(-289.53815,-318.3983)">
    <path
       id="path862"
       d="m 709.31637,638.55962 v 59.03226 c 0,5.27665 -1.58714,10.40378 -4.46417,14.75806 2.87703,4.35428 4.46417,9.4814 4.46417,14.75806 0,3.98497 -0.88635,7.85824 -2.58338,11.40003 -0.21979,0.51703 -0.47921,0.99624 -0.77466,1.51328 2.17805,3.9111 3.35804,8.33743 3.35804,12.9133 0,7.08358 -2.80317,13.87171 -7.82221,18.89075 l -3.24634,3.24634 -3.24633,-3.24634 c -5.01905,-5.01904 -7.82222,-11.80717 -7.82222,-18.89075 0,-4.57587 1.18,-9.0022 3.35804,-12.9133 -0.77465,-1.40159 -1.43941,-2.87703 -1.95645,-4.42814 -0.92238,-2.69328 -1.40159,-5.57031 -1.40159,-8.48517 0,-3.57962 0.73863,-7.12141 2.10238,-10.36775 0.66476,-1.54931 1.43942,-2.98873 2.36179,-4.39031 -2.87702,-4.35428 -4.46417,-9.48141 -4.46417,-14.75806 4.6119,-6.16121 7.37904,-13.83569 7.37904,-22.1371 v -36.89516 z m 0,0"
       style="fill:#917c6f;stroke-width:0.46118948"
       inkscape:connector-curvature="0" />
    <g
       transform="matrix(0.46118947,0,0,0.46118947,543.28816,572.14834)"
       id="g872"
       style="fill:#ff958a">
      <path
         id="path864"
         d="m 417.67969,417.67969 c -16.48047,16.48047 -35.28125,30.55859 -56,41.67968 L 360,456 v -29.12109 c 0,-22.23829 9.35937,-43.4375 25.67969,-58.48047 C 403.51953,372.87891 416,388.87891 416,407.19922 V 416 Z m 0,0"
         inkscape:connector-curvature="0" />
      <path
         id="path866"
         d="m 248,416 v -32 l 64,-28.48047 3.03906,-1.12109 c 1.1211,3.36328 2.5625,6.5625 4.24219,9.60156 C 314.55859,372.48047 312,382.07813 312,392 c 0,15.35938 6.07812,30.07813 16.96094,40.96094 L 336,440 l 7.03906,-7.03906 C 353.92187,422.07813 360,407.35938 360,392 c 0,-9.92187 -2.55859,-19.51953 -7.28125,-28 0.64062,-1.12109 1.20312,-2.16016 1.67969,-3.28125 L 360,362 l 25.67969,6.39844 C 369.35937,383.44141 360,404.64063 360,426.87891 V 456 l 1.67969,3.35937 C 327.83984,477.67969 289.12109,488 248,488 Z m 0,0"
         inkscape:connector-curvature="0" />
      <path
         id="path868"
         d="m 376,112 -16,32 H 136 l -16,-32 z m 0,0"
         inkscape:connector-curvature="0" />
      <path
         id="path870"
         d="M 360,112 H 128 L 235.12109,33.441406 C 238,37.441406 242.71875,40 248,40 c 5.12109,0 9.67969,-2.398438 12.55859,-6.160156 z m 0,0"
         inkscape:connector-curvature="0" />
    </g>
    <path
       id="path874"
       d="m 694.55831,653.31768 v 22.1371 c 0,8.30141 -2.76714,15.97589 -7.37904,22.1371 -3.13644,4.13269 -7.08358,7.60061 -11.62161,10.11013 -5.31269,2.98692 -11.40183,4.64793 -17.89451,4.64793 -6.49268,0 -12.58183,-1.66101 -17.89451,-4.64793 -3.02476,-1.661 -5.75586,-3.72735 -8.18972,-6.16301 -1.21783,-1.21602 -2.3618,-2.54554 -3.4319,-3.94712 -4.61189,-6.16121 -7.37903,-13.83569 -7.37903,-22.1371 v -22.1371 h 13.0232 c 10.11014,0 19.33393,-5.71802 23.87196,-14.75806 4.53803,9.04004 13.76182,14.75806 23.87196,14.75806 z m 0,0"
       style="fill:#f5f7fa;stroke-width:0.46118948"
       inkscape:connector-curvature="0" />
    <path
       id="path876"
       d="m 694.55831,638.55962 v 14.75806 h -13.0232 c -10.11014,0 -19.33393,-5.71802 -23.87196,-14.75806 z m 0,0"
       style="fill:#806600;stroke-width:0.46118948"
       inkscape:connector-curvature="0" />
    <path
       id="path878"
       d="m 676.11073,722.606 13.17092,-5.86575 c -1.36375,3.24634 -2.10238,6.78813 -2.10238,10.36775 0,2.91486 0.47921,5.79189 1.40159,8.48517 l -1.40159,0.51703 -29.51612,13.1349 v -18.44758 z m 0,0"
       style="fill:#ff958a;stroke-width:0.46118948"
       inkscape:connector-curvature="0" />
    <path
       id="path880"
       d="M 676.11073,708.66042 V 722.606 l -18.44758,8.19152 -18.44758,-8.19152 v -13.94558 l 0.55307,-0.95841 c 5.31268,2.98692 11.40182,4.64793 17.89451,4.64793 6.49268,0 12.58182,-1.66101 17.89451,-4.64793 z m 0,0"
       style="fill:#f5f7fa;stroke-width:0.46118948"
       inkscape:connector-curvature="0" />
    <path
       id="path882"
       d="m 663.45504,587.75492 c -1.32772,1.73486 -3.4301,2.841 -5.79189,2.841 -2.43566,0 -4.6119,-1.18 -5.93962,-3.02475 -0.92238,-1.21784 -1.43941,-2.73111 -1.43941,-4.35428 0,-3.79941 2.91486,-6.97369 6.64041,-7.343 0.25942,-0.036 0.481,-0.036 0.73862,-0.036 0.25762,0 0.4792,0 0.73862,0.036 3.72555,0.36931 6.64041,3.54359 6.64041,7.343 0,1.69703 -0.5909,3.28417 -1.58714,4.53803 z m 0,0"
       style="fill:#f9d48a;stroke-width:0.46118948"
       inkscape:connector-curvature="0" />
    <path
       id="path884"
       d="m 657.66315,778.76122 v 18.44758 c -18.96462,0 -36.8213,-4.75962 -52.42788,-13.20876 l 0.77466,-1.5493 V 769.0204 c 0,-10.25607 -4.31645,-20.03292 -11.84321,-26.97058 l 30.29079,-7.56279 33.20564,14.75807 z m 0,0"
       style="fill:#ff958a;stroke-width:0.46118948"
       inkscape:connector-curvature="0" />
    <path
       id="path886"
       d="m 639.21557,722.606 18.44758,8.19152 v 18.44758 l -33.20564,-14.75807 v -18.44758 z m 0,0"
       style="fill:#ff958a;stroke-width:0.46118948"
       inkscape:connector-curvature="0" />
    <path
       id="path888"
       d="m 620.76799,638.55962 h 36.89516 c -4.53803,9.04004 -13.76182,14.75806 -23.87196,14.75806 h -13.0232 z m 0,0"
       style="fill:#6c5d53;stroke-width:0.46118948"
       inkscape:connector-curvature="0" />
    <path
       id="path890"
       d="M 639.21557,708.66042 V 722.606 l -14.75806,-6.56655 z m 0,0"
       style="fill:#ff958a;stroke-width:0.46118948"
       inkscape:connector-curvature="0" />
    <path
       id="path892"
       d="m 676.11073,722.606 v -13.94558 l 14.75806,6.56654 z m 0,0"
       style="fill:#ff958a;stroke-width:0.46118948"
       inkscape:connector-curvature="0" />
    <path
       id="path894"
       d="m 620.76799,675.45478 c 0,8.30141 2.76714,15.97589 7.37903,22.1371 -12.21251,0 -22.13709,-9.92459 -22.13709,-22.1371 v -36.89516 h 14.75806 z m 0,0"
       style="fill:#806600;stroke-width:0.46118948"
       inkscape:connector-curvature="0" />
    <path
       id="path896"
       d="m 606.00993,769.0204 v 13.43034 l -0.77466,1.5493 c -9.51923,-5.12892 -18.22599,-11.62161 -25.82661,-19.22223 l 0.77465,-0.77465 v -4.05883 c 0,-8.44913 5.75587,-15.82816 13.98341,-17.89451 7.52676,6.93766 11.84321,16.71451 11.84321,26.97058 z m 0,0"
       style="fill:#ff958a;stroke-width:0.46118948"
       inkscape:connector-curvature="0" />
    <path
       id="path898"
       d="m 657.66315,701.28139 c 8.13927,0 14.75806,-6.61879 14.75806,-14.75806 h -7.37903 c 0,4.06963 -3.3094,7.37903 -7.37903,7.37903 -4.06964,0 -7.37903,-3.3094 -7.37903,-7.37903 h -7.37904 c 0,8.13927 6.6188,14.75806 14.75807,14.75806 z m 0,0"
       style="fill:#232323;stroke-width:0.46118948"
       inkscape:connector-curvature="0" />
    <path
       id="path900"
       d="m 642.90508,664.38623 c 0,2.03752 -1.65199,3.68952 -3.68951,3.68952 -2.03752,0 -3.68952,-1.652 -3.68952,-3.68952 0,-2.03752 1.652,-3.68951 3.68952,-3.68951 2.03752,0 3.68951,1.65199 3.68951,3.68951 z m 0,0"
       style="fill:#232323;stroke-width:0.46118948"
       inkscape:connector-curvature="0" />
    <path
       id="path902"
       d="m 679.80024,664.38623 c 0,2.03752 -1.65199,3.68952 -3.68951,3.68952 -2.03752,0 -3.68952,-1.652 -3.68952,-3.68952 0,-2.03752 1.652,-3.68951 3.68952,-3.68951 2.03752,0 3.68951,1.65199 3.68951,3.68951 z m 0,0"
       style="fill:#232323;stroke-width:0.46118948"
       inkscape:connector-curvature="0" />
    <path
       id="path904"
       d="m 657.66315,572.14834 c -63.06947,0 -114.37499,51.31093 -114.37499,114.37499 0,63.06406 51.30552,114.37499 114.37499,114.37499 63.06946,0 114.37502,-51.31093 114.37502,-114.37499 0,-63.06406 -51.30556,-114.37499 -114.37502,-114.37499 z m 106.996,114.37499 c 0,26.72016 -9.86877,51.1632 -26.1221,69.93505 -1.37636,-8.6491 -7.75555,-15.79573 -16.47312,-17.97557 l -10.40918,-2.6014 c 0.86833,-2.8482 1.35113,-5.7991 1.35113,-8.77341 0,-5.19198 -1.31331,-10.24886 -3.82282,-14.75806 2.50951,-4.51282 3.82282,-9.56608 3.82282,-14.75806 v -58.16212 l 9.65976,-19.31772 h -12.07199 l -42.48528,-33.38219 c 0.37291,-1.11154 0.62333,-2.27712 0.62333,-3.51296 0,-1.10614 -0.21438,-2.15462 -0.51704,-3.16528 54.06366,5.3199 96.44449,51.0335 96.44449,106.47172 z M 593.14527,746.2942 c 5.83692,6.09095 9.17514,14.24103 9.17514,22.72259 v 9.04364 c -6.66743,-4.04442 -12.83584,-8.81845 -18.44758,-14.17077 v -3.93452 c 0,-6.09815 3.73816,-11.44506 9.27244,-13.66094 z m 7.88345,-2.14741 23.0937,-5.77388 29.85121,13.27001 v 8.67073 h -11.06855 v 7.37902 h 11.06855 v 7.37903 h -11.06855 v 7.37904 h 11.06855 v 10.97667 c -15.8714,-0.54226 -30.87447,-4.55244 -44.27418,-11.30455 v -13.10607 c 0,-9.06886 -3.13285,-17.82065 -8.67073,-24.87 z m 60.32395,-160.9299 c 0,2.03211 -1.6538,3.68951 -3.68952,3.68951 -2.03572,0 -3.68952,-1.6574 -3.68952,-3.68951 0,-2.03212 1.6538,-3.68952 3.68952,-3.68952 2.03572,0 3.68952,1.6574 3.68952,3.68952 z m -9.91378,9.14272 c 1.7745,1.21422 3.91831,1.92582 6.22426,1.92582 2.17264,0 4.18673,-0.65215 5.89998,-1.73846 l 35.08643,27.56507 h -85.05703 z m 60.91845,154.47325 c -0.23781,-1.14757 -0.53506,-2.28433 -0.90437,-3.39947 l 2.8446,0.7134 c -0.68277,0.87374 -1.33312,1.76729 -1.94023,2.68607 z m -6.73049,-49.24098 c 0,4.53442 -1.32411,8.93194 -3.83723,12.72234 l -1.34574,2.03572 1.34574,2.03571 c 2.51312,3.7904 3.83723,8.18793 3.83723,12.72235 0,3.86607 -0.99984,7.71411 -2.88603,11.128 l -0.98724,1.78531 0.98724,1.7853 c 1.88619,3.41389 2.88603,7.26194 2.88603,11.128 0,6.154 -2.39422,11.93509 -6.74489,16.28576 l -0.63414,0.63413 -0.63413,-0.63413 c -4.35067,-4.35067 -6.7449,-10.13176 -6.7449,-16.28576 0,-3.86606 0.99984,-7.71411 2.88604,-11.128 l 0.98724,-1.7853 -0.98724,-1.78531 c -1.8862,-3.41389 -2.88604,-7.26193 -2.88604,-11.128 0,-4.53442 1.32412,-8.93195 3.83724,-12.72235 l 1.34574,-2.03571 -1.34574,-2.03572 c -2.32036,-3.50216 -3.57602,-7.52676 -3.76337,-11.69728 4.59027,-6.57735 7.30516,-14.55449 7.30516,-23.16216 v -33.20564 h 7.37903 z m -21.45071,35.83225 -22.82347,10.14257 v -10.37136 l 22.38029,-9.94619 c -0.16213,1.27187 -0.2432,2.55996 -0.2432,3.85885 0,2.1258 0.2432,4.23898 0.68638,6.31613 z m -56.02912,-11.70628 25.82661,11.47749 v 10.37496 l -25.82661,-11.47749 z m 29.51613,-5.6784 c 5.21,0 10.17499,-1.02146 14.75806,-2.81938 v 6.9809 l -14.75806,6.55934 -14.75807,-6.55934 v -6.9809 c 4.58307,1.79792 9.54807,2.81938 14.75807,2.81938 z m 26.95616,-10.32992 c 0.3531,1.27187 0.79267,2.51493 1.30971,3.73275 l -3.63187,-1.81413 c 0.80168,-0.60891 1.57273,-1.25206 2.32216,-1.91862 z m -2.39422,10.13356 -2.42485,1.07731 v -2.28974 z m -73.93444,-80.97298 -3.68952,-7.37903 h 106.12403 l -3.68952,7.37903 z m 16.16686,7.37903 h 26.22474 c -4.27861,4.65332 -10.34073,7.37903 -16.89827,7.37903 h -9.32647 z m 66.41128,0 v 7.37903 h -9.32648 c -6.55753,0 -12.61425,-2.72571 -16.89826,-7.37903 z m -81.16934,0 h 7.37903 v 33.20564 c 0,6.0405 1.36194,11.75493 3.73815,16.90908 -6.53052,-2.841 -11.11718,-9.34629 -11.11718,-16.90908 z m 14.75806,33.20564 V 657.0072 h 9.32647 c 9.51924,0 18.19356,-4.39391 23.87917,-11.69187 5.6856,7.29796 14.35993,11.69187 23.87916,11.69187 h 9.32648 v 18.44758 c 0,18.30706 -14.89498,33.20564 -33.20564,33.20564 -18.31067,0 -33.20564,-14.89858 -33.20564,-33.20564 z m 11.06854,41.46562 -2.42845,-1.07731 2.42845,-1.21243 z m 25.82662,65.53034 h 11.06854 v -7.37904 h -11.06854 v -7.37903 h 11.06854 v -7.37902 h -11.06854 v -8.67073 l 24.79073,-11.0163 c -1.72405,3.87687 -2.65364,8.07622 -2.65364,12.30799 0,8.12486 3.16167,15.76151 8.90672,21.50296 l 5.85134,5.85134 5.85135,-5.85134 c 0.53865,-0.53865 1.03407,-1.11154 1.52768,-1.68262 v 9.36791 c -13.39971,6.75211 -28.40278,10.76229 -44.27418,11.30455 z m 51.65321,-13.43395 c 0,-8.48156 3.33822,-16.63164 9.17515,-22.72619 5.53428,2.21948 9.27244,7.56639 9.27244,13.66815 v 3.93452 c -5.61175,5.35232 -11.78015,10.12635 -18.44759,14.17076 z M 647.11164,580.05161 c -0.30266,1.01066 -0.51704,2.05914 -0.51704,3.16528 0,1.10613 0.21438,2.15462 0.51704,3.16167 l -46.00185,33.73348 h -8.44914 l 9.65976,19.31772 v 36.02502 c 0,13.62131 10.60736,24.78172 23.98546,25.73473 1.97807,2.40503 4.24618,4.54524 6.71787,6.44224 l -12.25575,6.12698 v 17.84767 l -27.50562,6.87641 c -8.71757,2.17984 -15.09676,9.32647 -16.47312,17.97558 -16.25333,-18.77186 -26.12206,-43.2149 -26.12206,-69.93506 0,-55.43822 42.38079,-101.15182 96.44445,-106.47172 z m 0,0"
       style="fill:#232323;stroke-width:0.46118948"
       inkscape:connector-curvature="0" />
  </g>
  <g
     id="g1752"
     transform="translate(409.98738,449.24371)">
    <g
       id="g1782"
       transform="translate(13.5,13.5)">
      <path
         inkscape:connector-curvature="0"
         style="fill:#f5f7fa;stroke-width:0.46118951"
         d="m -254.43679,-232.15314 c -12.72955,5.16676 -26.63911,7.96993 -41.17559,7.96993 -5.71803,0 -11.36399,-0.44317 -16.86043,-1.29169 l -3.83724,-3.83724 57.59284,-57.59285 0.036,-0.22158 18.63314,3.46792 3.87327,0.73863 c 10.44163,1.95465 18.04225,11.10458 18.04225,21.76778 v 3.76338 l 0.77466,0.77466 c -10.47765,10.51548 -23.05948,18.89075 -37.07892,24.46106 z m 0,0"
         id="path952" />
      <path
         inkscape:connector-curvature="0"
         style="fill:#f5f7fa;stroke-width:0.46118951"
         d="m -335.93944,-231.81986 c -1.32771,-0.481 -2.65544,-0.99624 -3.94713,-1.62317 -12.76558,-5.53428 -24.27731,-13.43034 -33.9803,-23.17117 l 0.77465,-0.77466 v -3.76338 c 0,-10.6632 7.60062,-19.81313 18.04224,-21.76778 l 3.87327,-0.73863 18.63314,-3.46792 0.036,0.22158 25.82662,25.82663 z m 0,0"
         id="path954" />
      <path
         inkscape:connector-curvature="0"
         style="fill:#ff958a;stroke-width:0.46118951"
         d="m -316.31005,-229.31214 3.83724,3.83724 c -8.15369,-1.21783 -16.01373,-3.35624 -23.46663,-6.34496 l 58.77465,-58.77464 18.48361,3.46793 -0.036,0.22158 z m 0,0"
         id="path956" />
      <path
         inkscape:connector-curvature="0"
         style="fill:#ff958a;stroke-width:0.46118951"
         d="m -295.61238,-272.14692 -11.06854,11.06856 -25.82662,-25.82663 -0.036,-0.22158 18.4836,-3.46793 z m 0,0"
         id="path958" />
      <path
         inkscape:connector-curvature="0"
         style="fill:#f5f7fa;stroke-width:0.46118951"
         d="m -277.16479,-305.35257 v 14.75807 l -18.44759,18.44758 -18.44757,-18.44758 v -14.75807 l 0.55306,-0.95841 c 5.31269,2.98693 11.40183,4.64793 17.89451,4.64793 6.49269,0 12.58183,-1.661 17.89452,-4.64793 z m 0,0"
         id="path960" />
      <path
         inkscape:connector-curvature="0"
         style="fill:#f9d48a;stroke-width:0.46118951"
         d="m -294.87375,-445.51816 c 3.72555,0.36931 6.64041,3.54359 6.64041,7.343 0,4.05883 -3.3202,7.37903 -7.37904,7.37903 -4.05882,0 -7.37903,-3.3202 -7.37903,-7.37903 0,-3.79941 2.91487,-6.97369 6.64042,-7.343 0.25942,-0.036 0.481,-0.036 0.73861,-0.036 0.25763,0 0.47921,0 0.73863,0.036 z m 0,0"
         id="path962" />
      <path
         inkscape:connector-curvature="0"
         style="fill:#f9d48a;stroke-width:0.46118951"
         d="m -288.23334,-430.42682 v 32.83634 h -14.75807 v -32.83634 c 2.39783,-0.22159 4.86951,-0.36931 7.37903,-0.36931 2.50953,0 4.98121,0.14772 7.37904,0.36931 z m 0,0"
         id="path964" />
      <path
         inkscape:connector-curvature="0"
         style="fill:#ff958a;stroke-width:0.46118951"
         d="m -247.64866,-397.59048 h -40.58468 v -32.83634 c 22.98561,2.47169 40.58468,16.23352 40.58468,32.83634 z m 0,0"
         id="path966" />
      <path
         inkscape:connector-curvature="0"
         style="fill:#ff958a;stroke-width:0.46118951"
         d="m -302.99141,-430.42682 v 32.83634 h -40.58467 c 0,-16.60282 17.59906,-30.36465 40.58467,-32.83634 z m 0,0"
         id="path968" />
      <path
         inkscape:connector-curvature="0"
         style="fill:#f5f7fa;stroke-width:0.46118951"
         d="m -247.64866,-397.59048 h -106.99597 l 7.37903,22.1371 h 103.30646 l 7.37903,-22.1371 z m 0,0"
         id="path970" />
      <path
         inkscape:connector-curvature="0"
         style="fill:#483e37;stroke-width:0.46118951"
         d="m -332.50754,-375.45338 h -14.75806 v 18.226 c 0,4.86951 -1.91863,9.51924 -5.38655,12.98716 -3.65348,3.65349 -5.682,8.55903 -5.682,13.7258 0,3.24634 0.81249,6.38279 2.28793,9.18595 1.51148,2.76714 3.68952,5.2028 6.38279,6.9737 l 2.39783,1.62316 -0.73862,0.73863 c -4.24259,4.24258 -6.64041,10.03447 -6.64041,16.04796 0,3.50576 0.81248,6.97369 2.39782,10.14617 l 1.0701,2.1402 18.63314,-3.46792 18.48362,-3.46793 v -14.75807 l 0.55306,-0.95841 c -3.02475,-1.661 -5.75586,-3.72735 -8.18971,-6.163 -5.05508,-5.05327 -8.6347,-11.54776 -10.11014,-18.8151 l -0.7008,0.1099 c -8.15368,0 -14.75806,-6.60438 -14.75806,-14.75807 0,-8.15369 6.60438,-14.75806 14.75806,-14.75806 h 13.0232 c 10.11014,0 19.33394,-5.71803 23.87196,-14.75807 z m 0,0"
         id="path972" />
      <path
         inkscape:connector-curvature="0"
         style="fill:#483e37;stroke-width:0.46118951"
         d="m -235.17853,-321.32847 c 1.47545,-2.80316 2.28793,-5.93961 2.28793,-9.18595 0,-5.16677 -2.02851,-10.07231 -5.68199,-13.7258 -3.46793,-3.46792 -5.38655,-8.11765 -5.38655,-12.98716 v -18.226 h -51.65324 c 4.53804,9.04004 13.76183,14.75807 23.87197,14.75807 h 13.0232 c 8.15369,0 14.75807,6.60437 14.75807,14.75806 0,8.15369 -6.60438,14.75807 -14.75807,14.75807 l -0.70079,-0.1099 c -2.17624,10.7731 -9.0022,19.84916 -18.29986,24.9781 l 0.55307,0.95841 v 14.75807 l 18.48362,3.46793 18.63313,3.46792 1.0701,-2.1402 c 1.58534,-3.17248 2.39783,-6.64041 2.39783,-10.14617 0,-6.01349 -2.39783,-11.80538 -6.64041,-16.04796 l -0.73862,-0.73863 2.39782,-1.62316 c 2.69328,-1.7709 4.87132,-4.20656 6.38279,-6.9737 z m 0,0"
         id="path974" />
      <path
         inkscape:connector-curvature="0"
         style="fill:#f5f7fa;stroke-width:0.46118951"
         d="m -243.95914,-345.93725 c 0,8.15369 -6.60438,14.75807 -14.75807,14.75807 l -0.70079,-0.1099 c 0.44318,-2.32576 0.70079,-4.75961 0.70079,-7.26914 v -22.13709 c 8.15369,0 14.75807,6.60437 14.75807,14.75806 z m 0,0"
         id="path976" />
      <path
         inkscape:connector-curvature="0"
         style="fill:#f5f7fa;stroke-width:0.46118951"
         d="m -319.48434,-360.69531 c 10.11014,0 19.33394,-5.71803 23.87196,-14.75807 4.53804,9.04004 13.76183,14.75807 23.87197,14.75807 h 13.0232 v 22.13709 c 0,2.50953 -0.25761,4.94338 -0.70079,7.26914 -2.17624,10.7731 -9.0022,19.84916 -18.29986,24.9781 -5.31269,2.98693 -11.40183,4.64793 -17.89452,4.64793 -6.49268,0 -12.58182,-1.661 -17.89451,-4.64793 -3.02475,-1.661 -5.75586,-3.72735 -8.18971,-6.163 -5.05508,-5.05327 -8.6347,-11.54776 -10.11014,-18.8151 -0.44318,-2.32576 -0.7008,-4.75961 -0.7008,-7.26914 v -22.13709 z m 0,0"
         id="path978" />
      <path
         inkscape:connector-curvature="0"
         style="fill:#f5f7fa;stroke-width:0.46118951"
         d="m -332.50754,-338.55822 c 0,2.50953 0.25762,4.94338 0.7008,7.26914 l -0.7008,0.1099 c -8.15368,0 -14.75806,-6.60438 -14.75806,-14.75807 0,-8.15369 6.60438,-14.75806 14.75806,-14.75806 z m 0,0"
         id="path980" />
      <g
         id="g1759">
        <g
           transform="matrix(0.46118953,0,0,0.46118953,-409.98738,-449.24371)"
           id="g990"
           style="fill:#232323">
          <path
             id="path982"
             d="m 248,280 c -8.82422,0 -16,-7.17578 -16,-16 h -16 c 0,17.64844 14.35156,32 32,32 17.64844,0 32,-14.35156 32,-32 h -16 c 0,8.82422 -7.17578,16 -16,16 z m 0,0"
             inkscape:connector-curvature="0" />
          <path
             id="path984"
             d="m 216,216 c 0,4.41797 -3.58203,8 -8,8 -4.41797,0 -8,-3.58203 -8,-8 0,-4.41797 3.58203,-8 8,-8 4.41797,0 8,3.58203 8,8 z m 0,0"
             inkscape:connector-curvature="0" />
          <path
             id="path986"
             d="m 296,216 c 0,4.41797 -3.58203,8 -8,8 -4.41797,0 -8,-3.58203 -8,-8 0,-4.41797 3.58203,-8 8,-8 4.41797,0 8,3.58203 8,8 z m 0,0"
             inkscape:connector-curvature="0" />
          <path
             id="path988"
             d="M 496,248 C 496,111.25781 384.75391,0 248,0 111.24609,0 0,111.25781 0,248 c 0,136.74219 111.24609,248 248,248 33.11328,0 64.69531,-6.57422 93.60156,-18.39844 l 0.0547,0.0547 0.12891,-0.12891 C 432.16016,440.46484 496,351.56641 496,248 Z m -16,0 c 0,57.97656 -21.43359,111.01562 -56.71875,151.72656 -3.33594,-22.77344 -20.40234,-41.4375 -43.30469,-46.46094 C 382.57422,346.625 384,339.51172 384,332.38281 c 0,-12.83203 -4.24609,-25 -12,-34.98437 12.53516,-9.44532 20,-24.125 20,-39.94922 C 392,244.05469 386.78516,231.46484 377.3125,222 371.30469,216 368,208.00781 368,199.51172 V 161.29687 L 387.10547,104 H 359.43359 C 354.52734,68.871094 317.67187,40.375 269.98437,33.566406 271.26562,30.632812 272,27.398438 272,24 272,21.601562 271.53516,19.328125 270.87891,17.136719 388.10547,28.671875 480,127.79297 480,248 Z m -352,84.38281 c 0,-11 4.28906,-21.35156 12.07031,-29.14453 l 9.58594,-9.58203 -11.3125,-11.3125 -3.35156,3.35156 C 125.60938,279.33594 120,268.80859 120,257.45703 c 0,-8.80859 3.38281,-17.07422 9.42578,-23.4414 4.08594,15.70312 17.41406,27.54296 33.86328,29.5039 5.78906,20.83984 19.03125,38.57813 36.71094,50.13672 v 23.69531 l -67.95313,12.7461 C 129.42578,344.58594 128,338.48047 128,332.38281 Z M 240,24 c 0,-4.40625 3.58594,-8 8,-8 4.41406,0 8,3.59375 8,8 0,4.40625 -3.58594,8 -8,8 -4.41406,0 -8,-3.59375 -8,-8 z m 40,316.6875 -32,32 -32,-32 v -18.80078 c 9.9375,3.89844 20.70312,6.11328 32,6.11328 11.29687,0 22.0625,-2.21484 32,-6.11328 z m -56,56 -40.03906,-40.03906 21.36718,-4.00782 L 236.6875,384 Z M 248,312 c -39.70313,0 -72,-32.30469 -72,-72 v -40 h 20.22266 C 216.86328,200 235.67187,190.47266 248,174.64844 260.32812,190.47266 279.13672,200 299.77734,200 H 320 v 40 c 0,39.69531 -32.29688,72 -72,72 z M 160.33594,246.63281 C 150.87109,243.41406 144,234.53516 144,224 c 0,-10.41406 6.71094,-19.21484 16,-22.52734 V 240 c 0,2.23828 0.16797,4.43359 0.33594,6.63281 z M 248,48 c 2.70312,0 5.35156,0.121094 8,0.273438 V 104 H 240 V 48.273438 C 242.64844,48.121094 245.29687,48 248,48 Z m 72,136 h -20.22266 c -14.21875,0 -27.35156,-5.91016 -36.64062,-16 H 320 Z M 176,168 h 56.86328 c -9.27734,10.08984 -22.42187,16 -36.64062,16 H 176 Z m 121.44141,-16 5.33593,-32 h 23.77344 l -5.33594,32 z m -16.21875,0 H 256 v -32 h 30.55859 z M 240,120 v 32 h -25.22266 l -5.33593,-32 z m -46.77734,0 5.33593,32 h -23.77343 l -5.33594,-32 z M 160,184.80859 c -5.94531,1.21485 -11.32812,3.85547 -16,7.39063 V 168 h 16 z M 336,240 v -38.52734 c 9.28906,3.3125 16,12.11328 16,22.52734 0,10.53516 -6.87109,19.41406 -16.33594,22.63281 C 335.83203,244.43359 336,242.23828 336,240 Z m 0,-55.19141 V 168 h 16 v 24.20703 c -4.67188,-3.54297 -10.05469,-6.18359 -16,-7.39844 z M 354.23047,152 h -16.78906 l 5.33593,-32 h 22.11719 z M 272,104 V 50.105469 C 309.56641,56.585938 338.23828,77.832031 343.16797,104 Z m -48,0 H 152.83203 C 157.76172,77.832031 186.43359,56.59375 224,50.105469 Z m -70.77734,16 5.33593,32 H 141.76953 L 131.10547,120 Z M 120.63281,368.51953 164.90234,360.21484 212.6875,408 160,460.6875 156.07031,456.76172 C 148.28906,448.96875 144,438.625 144,427.61719 c 0,-6.35938 1.50391,-12.73828 4.35156,-18.4336 l 2.8086,-5.60937 -14.3125,-7.16016 -2.8086,5.61719 C 130.08984,409.9375 128,418.78516 128,427.61719 c 0,7.375 1.39844,14.54297 4.05469,21.19922 C 116.0625,439.55078 101.28906,428.43359 88,415.76172 v -7.92188 c 0,-19.23828 13.72656,-35.77734 32.63281,-39.32031 z m 170.03906,-15.87891 21.36719,4.00782 -117.14453,117.14453 c -6.71094,-1.57813 -13.30859,-3.44141 -19.78125,-5.59375 z M 296,337.35937 v -23.69531 c 17.67969,-11.55859 30.91016,-29.30469 36.71094,-50.13672 16.4414,-1.96093 29.76953,-13.80859 33.86328,-29.5039 6.04297,6.35156 9.42578,14.61718 9.42578,23.43359 0,11.35156 -5.60938,21.87891 -14.99219,28.23828 l -3.35156,-3.35156 -11.3125,11.3125 9.58594,9.58203 C 363.71094,311.03125 368,321.375 368,332.38281 c 0,6.10547 -1.42578,12.20313 -4.04688,17.72266 z M 225.12109,17.136719 C 224.46484,19.328125 224,21.601562 224,24 c 0,3.398438 0.73437,6.632812 2.01562,9.566406 C 178.32812,40.375 141.47266,68.871094 136.56641,104 H 108.89453 L 128,161.29688 v 38.21484 C 128,208.00781 124.69531,216 118.6875,222 109.21484,231.47266 104,244.05469 104,257.45703 c 0,15.82422 7.46484,30.50391 20,39.94922 -7.75391,9.98437 -12,22.14453 -12,34.98437 0,7.12891 1.42578,14.23438 4.02344,20.88282 -22.902346,5.03125 -39.968752,23.6875 -43.30469,46.46093 C 37.433594,359.01562 16,305.97656 16,248 16,127.79297 107.89453,28.671875 225.12109,17.136719 Z m -11.27343,460.328121 117.25,-117.25 44.26953,8.30469 C 394.27344,372.0625 408,388.60156 408,407.83203 v 7.92188 c -13.29687,12.6875 -28.07812,23.80468 -44.07812,33.07812 C 366.58594,442.16797 368,435 368,427.61719 c 0,-8.83203 -2.08984,-17.67969 -6.03906,-25.58594 l -2.8086,-5.60547 -14.3125,7.16016 2.8086,5.60547 c 2.84765,5.6875 4.35156,12.0664 4.35156,18.42578 0,11 -4.28906,21.35156 -12.07031,29.14453 l -7.1211,7.11719 C 306.51953,474.23828 277.92969,480 248,480 c -11.60156,0 -23,-0.87891 -34.15234,-2.53516 z m 0,0"
             inkscape:connector-curvature="0" />
        </g>
      </g>
    </g>
  </g>
</svg>
