<?xml version="1.0" encoding="UTF-8" standalone="no"?>
<!-- Generator: Adobe Illustrator 19.0.0, SVG Export Plug-In . SVG Version: 6.00 Build 0)  -->

<svg
   xmlns:dc="http://purl.org/dc/elements/1.1/"
   xmlns:cc="http://creativecommons.org/ns#"
   xmlns:rdf="http://www.w3.org/1999/02/22-rdf-syntax-ns#"
   xmlns:svg="http://www.w3.org/2000/svg"
   xmlns="http://www.w3.org/2000/svg"
   xmlns:sodipodi="http://sodipodi.sourceforge.net/DTD/sodipodi-0.dtd"
   xmlns:inkscape="http://www.inkscape.org/namespaces/inkscape"
   version="1.1"
   id="Capa_1"
   x="0px"
   y="0px"
   viewBox="0 0 465 465"
   style="enable-background:new 0 0 465 465;"
   xml:space="preserve"
   sodipodi:docname="mongolia_flag.svg"
   inkscape:version="0.92.4 (5da689c313, 2019-01-14)"><metadata
   id="metadata63"><rdf:RDF><cc:Work
       rdf:about=""><dc:format>image/svg+xml</dc:format><dc:type
         rdf:resource="http://purl.org/dc/dcmitype/StillImage" /></cc:Work></rdf:RDF></metadata><defs
   id="defs61" /><sodipodi:namedview
   pagecolor="#ffffff"
   bordercolor="#666666"
   borderopacity="1"
   objecttolerance="10"
   gridtolerance="10"
   guidetolerance="10"
   inkscape:pageopacity="0"
   inkscape:pageshadow="2"
   inkscape:window-width="1920"
   inkscape:window-height="986"
   id="namedview59"
   showgrid="false"
   inkscape:zoom="11.484022"
   inkscape:cx="301.52138"
   inkscape:cy="122.43537"
   inkscape:window-x="-11"
   inkscape:window-y="-11"
   inkscape:window-maximized="1"
   inkscape:current-layer="g26" />
<g
   id="g26">
	<path
   style="fill:#103B9B;"
   d="M300,322.5V90H165v285h135v-22.5c0-4.143,3.358-7.5,7.5-7.5v-15C303.358,330,300,326.643,300,322.5z   "
   id="path2" />
	<path
   style="fill:#ED1F34;"
   d="M315,322.5c0,4.143-3.358,7.5-7.5,7.5v15c4.142,0,7.5,3.357,7.5,7.5V375h135V90H315V322.5z"
   id="path4" />
	<path
   style="fill:#ED1F34;"
   d="M150,90H15v285h135V90z M75,139.565c0-4.143,3.358-7.5,7.5-7.5s7.5,3.357,7.5,7.5v9.271   c0,4.143-3.358,7.5-7.5,7.5s-7.5-3.357-7.5-7.5V139.565z M82.5,166.337c9.925,0,18,8.075,18,18s-8.075,18-18,18s-18-8.075-18-18   S72.575,166.337,82.5,166.337z M50,325.435c0,4.143-3.358,7.5-7.5,7.5s-7.5-3.357-7.5-7.5v-80.473c0-4.143,3.358-7.5,7.5-7.5   s7.5,3.357,7.5,7.5V325.435z M97.5,332.337h-30c-4.142,0-7.5-3.357-7.5-7.5s3.358-7.5,7.5-7.5h30c4.142,0,7.5,3.357,7.5,7.5   S101.642,332.337,97.5,332.337z M82.5,307.337c-12.407,0-22.5-10.094-22.5-22.5s10.093-22.5,22.5-22.5s22.5,10.094,22.5,22.5   S94.907,307.337,82.5,307.337z M97.5,252.336h-30c-4.142,0-7.5-3.357-7.5-7.5s3.358-7.5,7.5-7.5h30c4.142,0,7.5,3.357,7.5,7.5   S101.642,252.336,97.5,252.336z M82.5,227.336c-18.946,0-35.913-12.698-41.261-30.881c-1.169-3.974,1.105-8.143,5.079-9.312   c3.973-1.169,8.143,1.105,9.312,5.079c3.483,11.843,14.532,20.113,26.87,20.113s23.388-8.271,26.871-20.113   c1.168-3.975,5.338-6.249,9.312-5.079c3.974,1.169,6.248,5.338,5.079,9.312C118.414,214.638,101.446,227.336,82.5,227.336z    M122.5,332.935c-4.142,0-7.5-3.357-7.5-7.5v-80.473c0-4.143,3.358-7.5,7.5-7.5s7.5,3.357,7.5,7.5v80.473   C130,329.577,126.642,332.935,122.5,332.935z"
   id="path6" />
	<path
   d="M 457.5,75 H 7.5 C 3.358,75 0,78.357 0,82.5 v 300 c 0,4.143 3.358,7.5 7.5,7.5 h 450 c 4.142,0 7.5,-3.357 7.5,-7.5 V 82.5 C 465,78.357 461.642,75 457.5,75 Z M 450,375 H 315 v -52.5 c 0,-4.143 -3.358,4.5 -7.5,4.5 -4.142,0 -7.5,-8.643 -7.5,-4.5 V 375 H 165 V 90 h 135 v 232.5 c 0,4.143 3.358,7.5 7.5,7.5 4.142,0 7.5,-3.357 7.5,-7.5 V 90 H 450 Z M 15,90 H 150 V 375 H 15 Z"
   id="path8"
   inkscape:connector-curvature="0"
   sodipodi:nodetypes="sssssssssccsssccccssscccccccc" />
	<path
   style="fill:#FFE000;"
   d="M118.682,187.144c-3.974-1.17-8.143,1.104-9.312,5.079c-3.483,11.843-14.533,20.113-26.871,20.113   s-23.387-8.271-26.87-20.113c-1.168-3.974-5.338-6.248-9.312-5.079c-3.974,1.169-6.248,5.338-5.079,9.312   c5.348,18.183,22.315,30.881,41.261,30.881c18.946,0,35.914-12.698,41.261-30.881C124.93,192.481,122.656,188.313,118.682,187.144z   "
   id="path10" />
	<path
   style="fill:#FFE000;"
   d="M82.5,202.337c9.925,0,18-8.075,18-18s-8.075-18-18-18s-18,8.075-18,18S72.575,202.337,82.5,202.337   z"
   id="path12" />
	<path
   style="fill:#FFE000;"
   d="M122.5,237.462c-4.142,0-7.5,3.357-7.5,7.5v80.473c0,4.143,3.358,7.5,7.5,7.5s7.5-3.357,7.5-7.5   v-80.473C130,240.819,126.642,237.462,122.5,237.462z"
   id="path14" />
	<path
   style="fill:#FFE000;"
   d="M42.5,237.462c-4.142,0-7.5,3.357-7.5,7.5v80.473c0,4.143,3.358,7.5,7.5,7.5s7.5-3.357,7.5-7.5   v-80.473C50,240.819,46.642,237.462,42.5,237.462z"
   id="path16" />
	<path
   style="fill:#FFE000;"
   d="M82.5,156.337c4.142,0,7.5-3.357,7.5-7.5v-9.271c0-4.143-3.358-7.5-7.5-7.5s-7.5,3.357-7.5,7.5   v9.271C75,152.979,78.358,156.337,82.5,156.337z"
   id="path18" />
	<path
   style="fill:#FFE000;"
   d="M82.5,262.337c-12.407,0-22.5,10.094-22.5,22.5s10.093,22.5,22.5,22.5s22.5-10.094,22.5-22.5   S94.907,262.337,82.5,262.337z"
   id="path20" />
	<path
   style="fill:#FFE000;"
   d="M97.5,317.337h-30c-4.142,0-7.5,3.357-7.5,7.5s3.358,7.5,7.5,7.5h30c4.142,0,7.5-3.357,7.5-7.5   S101.642,317.337,97.5,317.337z"
   id="path22" />
	<path
   style="fill:#FFE000;"
   d="M97.5,237.336h-30c-4.142,0-7.5,3.357-7.5,7.5s3.358,7.5,7.5,7.5h30c4.142,0,7.5-3.357,7.5-7.5   S101.642,237.336,97.5,237.336z"
   id="path24" />
</g>
<g
   id="g28">
</g>
<g
   id="g30">
</g>
<g
   id="g32">
</g>
<g
   id="g34">
</g>
<g
   id="g36">
</g>
<g
   id="g38">
</g>
<g
   id="g40">
</g>
<g
   id="g42">
</g>
<g
   id="g44">
</g>
<g
   id="g46">
</g>
<g
   id="g48">
</g>
<g
   id="g50">
</g>
<g
   id="g52">
</g>
<g
   id="g54">
</g>
<g
   id="g56">
</g>
</svg>