<?xml version="1.0" encoding="UTF-8" standalone="no"?>
<!-- Created with Inkscape (http://www.inkscape.org/) -->

<svg
   xmlns:dc="http://purl.org/dc/elements/1.1/"
   xmlns:cc="http://creativecommons.org/ns#"
   xmlns:rdf="http://www.w3.org/1999/02/22-rdf-syntax-ns#"
   xmlns:svg="http://www.w3.org/2000/svg"
   xmlns="http://www.w3.org/2000/svg"
   xmlns:sodipodi="http://sodipodi.sourceforge.net/DTD/sodipodi-0.dtd"
   xmlns:inkscape="http://www.inkscape.org/namespaces/inkscape"
   width="256"
   height="256"
   viewBox="0 0 67.733332 67.733335"
   version="1.1"
   id="svg8"
   inkscape:version="0.92.4 (5da689c313, 2019-01-14)"
   sodipodi:docname="mumbai_sealink.svg">
  <defs
     id="defs2" />
  <sodipodi:namedview
     id="base"
     pagecolor="#ffffff"
     bordercolor="#666666"
     borderopacity="1.0"
     inkscape:pageopacity="0.0"
     inkscape:pageshadow="2"
     inkscape:zoom="1.4"
     inkscape:cx="207.65036"
     inkscape:cy="-46.934041"
     inkscape:document-units="mm"
     inkscape:current-layer="layer1"
     showgrid="false"
     units="px"
     inkscape:window-width="1920"
     inkscape:window-height="986"
     inkscape:window-x="-11"
     inkscape:window-y="-11"
     inkscape:window-maximized="1" />
  <metadata
     id="metadata5">
    <rdf:RDF>
      <cc:Work
         rdf:about="">
        <dc:format>image/svg+xml</dc:format>
        <dc:type
           rdf:resource="http://purl.org/dc/dcmitype/StillImage" />
        <dc:title></dc:title>
      </cc:Work>
    </rdf:RDF>
  </metadata>
  <g
     inkscape:label="Layer 1"
     inkscape:groupmode="layer"
     id="layer1"
     transform="translate(0,-229.26665)">
    <rect
       style="fill:#aaeeff;fill-rule:evenodd;stroke-width:0.26473093"
       id="rect937"
       width="63.570873"
       height="3.96875"
       x="2.4710193"
       y="288.94904" />
    <rect
       style="fill:#cccccc;fill-rule:evenodd;stroke-width:0.33007976"
       id="rect830"
       width="1.6"
       height="42"
       x="201.16376"
       y="153.65755"
       transform="rotate(45)" />
    <rect
       style="fill:#cccccc;fill-rule:evenodd;stroke-width:0.33007976"
       id="rect830-4"
       width="1.6"
       height="42"
       x="152.34818"
       y="202.47252"
       transform="matrix(-0.70710678,0.70710678,0.70710678,0.70710678,0,0)" />
    <rect
       style="fill:#cccccc;fill-rule:evenodd;stroke-width:0.33007976"
       id="rect830-8"
       width="1.6"
       height="42"
       x="170.82047"
       y="184.0327"
       transform="rotate(35)" />
    <rect
       style="fill:#cccccc;fill-rule:evenodd;stroke-width:0.33007976"
       id="rect830-8-5"
       width="1.6"
       height="42"
       x="114.0778"
       y="223.76376"
       transform="matrix(-0.81915204,0.57357644,0.57357644,0.81915204,0,0)" />
    <rect
       style="fill:#cccccc;fill-rule:evenodd;stroke-width:0.30559447"
       id="rect830-8-2"
       width="1.6"
       height="36"
       x="135.99242"
       y="210.2137"
       transform="rotate(25)" />
    <rect
       style="fill:#cccccc;fill-rule:evenodd;stroke-width:0.30559447"
       id="rect830-8-2-8"
       width="1.6"
       height="36"
       x="73.18045"
       y="239.50287"
       transform="matrix(-0.90630779,0.42261826,0.42261826,0.90630779,0,0)" />
    <rect
       style="fill:#cccccc;fill-rule:evenodd;stroke-width:0.30559447"
       id="rect830-8-2-3"
       width="1.6"
       height="36"
       x="97.261902"
       y="230.40161"
       transform="rotate(15)" />
    <rect
       style="fill:#cccccc;fill-rule:evenodd;stroke-width:0.30559447"
       id="rect830-8-2-3-6"
       width="1.6"
       height="36"
       x="30.351204"
       y="248.33073"
       transform="matrix(-0.96592583,0.25881905,0.25881905,0.96592583,0,0)" />
    <path
       style="fill:#666666;stroke-width:1.5875;stroke-miterlimit:4;stroke-dasharray:none;stroke:#000000;stroke-opacity:0.78431374"
       d="m 9.2329658,290.93916 c -0.584136,-0.19342 -1.290695,-0.56459 -2.239447,-1.17642 -0.823798,-0.53125 -2.511447,-1.14594 -3.170143,-1.15466 -0.625929,-0.008 -0.789948,-0.31444 -0.588837,-1.09913 0.09974,-0.38917 0.175116,-0.41138 0.941221,-0.27721 1.029965,0.18036 2.18239,0.58453 2.917503,1.02319 0.306796,0.18307 0.594717,0.25579 0.63982,0.16161 0.0451,-0.0942 0.06893,-1.21524 0.05294,-2.49123 l -0.02907,-2.32 -2.892616,-0.0565 c -1.926464,-0.0377 -2.9379508,-0.13508 -3.0283437,-0.29173 -0.1935273,-0.33538 -0.1677107,-1.11963 0.050428,-1.53186 0.1712601,-0.32364 1.2731097,-0.35178 13.7725099,-0.35178 h 13.586356 l 0.112654,-0.69083 c 0.06196,-0.37995 0.21199,-1.40821 0.333402,-2.28502 0.121411,-0.87681 0.259739,-1.83334 0.307394,-2.12561 0.04766,-0.29226 0.185077,-1.24879 0.305379,-2.1256 0.120304,-0.87681 0.257724,-1.83334 0.30538,-2.12561 0.04766,-0.29226 0.186014,-1.24879 0.307464,-2.1256 0.121449,-0.87681 0.351921,-2.5029 0.512157,-3.61353 0.160237,-1.11063 0.501549,-3.50193 0.758472,-5.31401 0.256922,-1.81208 0.507423,-3.53381 0.556669,-3.82608 0.04925,-0.29227 0.187968,-1.2488 0.308271,-2.12561 0.120303,-0.87681 0.257724,-1.83333 0.30538,-2.1256 0.04766,-0.29227 0.184019,-1.2488 0.303031,-2.12561 0.467381,-3.4434 0.546564,-3.93767 0.654225,-4.08377 0.07414,-0.1006 0.128643,-2.06137 0.162467,-5.84541 0.04355,-4.8724 0.07293,-5.69401 0.203586,-5.69401 0.131167,0 0.156517,0.78831 0.17984,5.59262 0.02049,4.21989 0.06064,5.70683 0.163576,6.05797 0.07504,0.25595 0.207083,0.99145 0.293442,1.63444 0.08636,0.643 0.233998,1.74299 0.328085,2.44444 0.09409,0.70145 0.209802,1.5145 0.257144,1.80677 0.04734,0.29227 0.185403,1.24879 0.306803,2.1256 0.1214,0.87681 0.325908,2.26377 0.454462,3.08213 0.128554,0.81836 0.32758,2.15749 0.442282,2.97585 0.1147,0.81835 0.671195,4.74009 1.236654,8.71497 0.565459,3.97488 1.123294,7.89662 1.239635,8.71498 0.11634,0.81836 0.263133,1.84662 0.326206,2.28502 l 0.114679,0.79711 h 12.836265 c 12.306286,0 12.843218,0.0161 13.004727,0.38871 0.203161,0.46877 0.218581,1.17286 0.03274,1.49493 -0.09039,0.15665 -1.101881,0.25409 -3.028346,0.29173 l -2.892616,0.0565 -0.02849,2.71015 c -0.02536,2.41307 -0.0099,2.71015 0.141406,2.71015 0.09344,0 0.610139,-0.28302 1.148214,-0.62891 0.986629,-0.63426 1.797608,-0.93898 3.129188,-1.17578 0.800015,-0.14227 1.086038,0.13414 0.983781,0.95071 -0.04427,0.35348 -0.137926,0.42885 -0.532873,0.42885 -0.70888,0 -2.405592,0.57546 -3.16164,1.07231 -1.661629,1.09197 -2.195678,1.298 -3.664551,1.41377 -1.816627,0.14318 -2.832968,-0.10891 -4.478894,-1.11097 -1.566854,-0.95391 -2.73709,-1.36768 -3.868137,-1.36768 -1.131047,0 -2.301282,0.41377 -3.868135,1.36768 -1.64946,1.0042 -2.662047,1.25504 -4.492168,1.1128 -1.355645,-0.10538 -1.620517,-0.19521 -2.951998,-1.00124 -3.027818,-1.83291 -4.903384,-1.9398 -7.41762,-0.42272 -2.351843,1.4191 -2.162779,1.35922 -4.326205,1.37019 -2.158117,0.0109 -2.418567,-0.0686 -4.210534,-1.28549 -0.911752,-0.61916 -2.54308,-1.15 -3.51822,-1.14483 -0.90744,0.005 -2.32574,0.4571 -3.315792,1.05741 -2.141774,1.29865 -2.136275,1.29674 -3.96993,1.38099 -0.979758,0.045 -2.0333162,-0.002 -2.3412392,-0.10354 z m 3.1067802,-1.75413 c 0.03128,-0.26305 0.0436,-1.62609 0.02739,-3.02899 l -0.02948,-2.55073 H 10.556278 8.7748998 l -0.02869,2.49893 c -0.01652,1.43881 0.016,2.67329 0.07665,2.90992 0.125508,0.48971 0.389238,0.56446 2.1640972,0.61339 1.265792,0.0349 1.297243,0.0246 1.352789,-0.44252 z m 14.401625,-0.7971 v -1.27537 h 0.801881 c 0.520653,0 0.836723,-0.0932 0.901233,-0.2657 0.0991,-0.26503 0.302116,-1.65407 0.404055,-2.76462 l 0.05378,-0.58587 -7.773368,0.0545 -7.773367,0.0545 -0.0285,2.71437 c -0.02291,2.18211 -3.05e-4,2.73695 0.115276,2.82958 0.07908,0.0634 0.412554,-0.0408 0.741057,-0.2316 1.970783,-1.14435 2.46455,-1.36738 3.510838,-1.5858 1.560181,-0.3257 3.386121,0.0353 4.771812,0.94338 1.57974,1.03525 2.299336,1.31993 3.435516,1.3591 l 0.839793,0.0289 z m 18.049744,0.63982 c 0.402091,-0.22952 1.028819,-0.61271 1.392729,-0.85152 0.363911,-0.23882 1.2915,-0.58689 2.06131,-0.77349 1.280057,-0.31029 1.519252,-0.31043 2.799309,-0.002 0.769809,0.18572 1.76611,0.57794 2.213999,0.87161 0.447889,0.29367 0.873013,0.53537 0.944718,0.53713 0.100495,0.002 0.123825,-0.59359 0.101794,-2.60068 l -0.02858,-2.60378 -6.865219,-0.0546 c -3.807845,-0.0303 -6.904737,0.0279 -6.953952,0.13064 -0.08609,0.17977 0.129575,1.95915 0.357906,2.953 0.100107,0.43572 0.180775,0.47826 0.907023,0.47826 h 0.797143 v 1.13365 c 0,0.62351 0.03435,1.20775 0.07635,1.29831 0.115567,0.24925 1.371367,-0.0464 2.195476,-0.51677 z m 14.065965,-2.44659 v -2.97585 h -1.730482 -1.730483 l -0.02827,2.90715 c -0.03356,3.45063 -0.251003,3.1103 1.96234,3.07139 l 1.526896,-0.0268 z m -19.18949,0.0531 c -8.04e-4,-0.26305 -0.08727,-1.05218 -0.192096,-1.75363 l -0.190597,-1.27537 -4.560578,-0.0553 c -2.928599,-0.0355 -4.59686,0.0204 -4.661967,0.15636 -0.119517,0.24957 -0.467111,2.49705 -0.469276,3.03426 -0.0014,0.3493 0.305732,0.37198 5.037257,0.37198 h 5.038756 l -0.0015,-0.47825 z m -0.743229,-5.63286 c -0.03075,-0.20459 -0.127713,-0.87415 -0.215458,-1.48793 -0.08775,-0.61376 -0.228248,-1.59419 -0.312228,-2.17874 -0.08398,-0.58454 -0.221399,-1.54106 -0.305379,-2.1256 l -0.305378,-2.1256 c -0.08398,-0.58455 -0.221401,-1.54107 -0.305379,-2.12561 -0.08398,-0.58454 -0.221401,-1.54106 -0.30538,-2.1256 l -0.305379,-2.12561 c -0.362033,-2.51994 -0.453144,-3.16786 -0.657589,-4.67633 -0.118836,-0.87681 -0.350251,-2.50289 -0.514255,-3.61352 -0.164004,-1.11063 -0.45181,-3.10155 -0.639571,-4.42425 -0.378158,-2.664 -0.428019,-2.70328 -0.724852,-0.57092 -0.09764,0.70144 -0.21627,1.51449 -0.263612,1.80676 -0.04734,0.29227 -0.184506,1.24879 -0.30481,2.1256 -0.120302,0.87682 -0.257723,1.83334 -0.305379,2.1256 -0.04766,0.29228 -0.185076,1.2488 -0.305378,2.12561 -0.120304,0.87681 -0.257725,1.83334 -0.305379,2.12561 -0.04766,0.29226 -0.185077,1.24879 -0.30538,2.1256 -0.120303,0.87681 -0.257724,1.83334 -0.305379,2.12561 -0.04766,0.29227 -0.185076,1.24878 -0.305379,2.1256 -0.120304,0.87681 -0.257724,1.83333 -0.305379,2.1256 -0.04766,0.29228 -0.179498,1.20097 -0.292983,2.01933 -0.113486,0.81835 -0.368831,2.62395 -0.567436,4.01244 -0.198604,1.38849 -0.361098,2.65588 -0.361098,2.81643 0,0.24287 0.720025,0.2919 4.28718,0.2919 4.03647,0 4.283911,-0.0218 4.23126,-0.37198 z"
       id="path826"
       inkscape:connector-curvature="0"
       sodipodi:nodetypes="cscccscsccccscccccccscsccccsssccccccsssscsccccsscccssscscccccccccccccccsscccccssccccscccccccccccscsccccscsccccccccccccsccccsccccccccccscscscsccscssccsssc" />
  </g>
</svg>
