<?xml version="1.0" encoding="UTF-8" standalone="no"?>
<svg
   xmlns:dc="http://purl.org/dc/elements/1.1/"
   xmlns:cc="http://creativecommons.org/ns#"
   xmlns:rdf="http://www.w3.org/1999/02/22-rdf-syntax-ns#"
   xmlns:svg="http://www.w3.org/2000/svg"
   xmlns="http://www.w3.org/2000/svg"
   xmlns:sodipodi="http://sodipodi.sourceforge.net/DTD/sodipodi-0.dtd"
   xmlns:inkscape="http://www.inkscape.org/namespaces/inkscape"
   version="1.1"
   id="Capa_1"
   x="0px"
   y="0px"
   viewBox="0 0 465 465"
   style="enable-background:new 0 0 465 465;"
   xml:space="preserve"
   sodipodi:docname="myanmar_flag.svg"
   inkscape:version="1.0.1 (3bc2e813f5, 2020-09-07)"><metadata
   id="metadata53"><rdf:RDF><cc:Work
       rdf:about=""><dc:format>image/svg+xml</dc:format><dc:type
         rdf:resource="http://purl.org/dc/dcmitype/StillImage" /><dc:title></dc:title></cc:Work></rdf:RDF></metadata><defs
   id="defs51" /><sodipodi:namedview
   pagecolor="#ffffff"
   bordercolor="#666666"
   borderopacity="1"
   objecttolerance="10"
   gridtolerance="10"
   guidetolerance="10"
   inkscape:pageopacity="0"
   inkscape:pageshadow="2"
   inkscape:window-width="1920"
   inkscape:window-height="986"
   id="namedview49"
   showgrid="false"
   inkscape:zoom="1.7591398"
   inkscape:cx="232.5"
   inkscape:cy="232.5"
   inkscape:window-x="-11"
   inkscape:window-y="-11"
   inkscape:window-maximized="1"
   inkscape:current-layer="g16" />
<g
   id="g16">
	<path
   style="fill:#259245;"
   d="M258.555,204.557l53.192,2.748c3.103,0.16,5.786,2.217,6.746,5.172   c0.96,2.955-0.001,6.196-2.417,8.15l-41.417,33.489l7.628,28.384H450v-100H250.107L258.555,204.557z"
   id="path2" />
	<path
   style="fill:#259245;"
   d="M190.342,254.116l-41.417-33.489c-2.417-1.954-3.378-5.195-2.417-8.15   c0.96-2.955,3.643-5.012,6.746-5.172l53.192-2.748l8.448-22.057H15v100h167.714L190.342,254.116z"
   id="path4" />
	<path
   style="fill:#ED1F34;"
   d="M93.047,375H450v-92.5H282.286l6.195,23.053c0.806,3.001-0.321,6.188-2.835,8.014   c-1.312,0.953-2.859,1.432-4.409,1.432c-1.42,0-2.843-0.403-4.089-1.213L232.5,284.745l-44.648,29.042   c-2.604,1.694-5.984,1.607-8.498-0.219c-2.514-1.826-3.641-5.013-2.835-8.014l6.195-23.053H15V375h42.5c4.142,0,7.5,3.358,7.5,7.5   h20.547C85.547,378.358,88.905,375,93.047,375z"
   id="path6" />
	<path
   style="fill:#FFE000;"
   d="M225.496,154.817c1.111-2.902,3.897-4.817,7.004-4.817s5.893,1.916,7.004,4.817l10.603,27.683H450   V90H15v92.5h199.893L225.496,154.817z"
   id="path8" />
	<path
   d="M 457.5,75 H 7.5 C 3.358,75 0,78.358 0,82.5 v 300 c 0,4.142 3.358,7.5 7.5,7.5 h 88 c 4.142,0 7.5,-3.358 7.5,-7.5 0,-4.142 -3.358,-7.5 -7.5,-7.5 H 15 V 282.5 182.5 90 h 435 v 92.5 100 92.5 H 93.047 c -4.142,0 -7.5,3.358 -7.5,7.5 0,4.142 3.358,7.5 7.5,7.5 H 457.5 c 4.142,0 7.5,-3.358 7.5,-7.5 v -300 c 0,-4.142 -3.358,-7.5 -7.5,-7.5 z"
   id="path10"
   sodipodi:nodetypes="ssssssssccccccccsssssss" />
	<path
   style="fill:#FFFFFF;"
   d="M261.433,245.519l29.985-24.244l-38.509-1.99c-2.962-0.153-5.556-2.038-6.617-4.807L232.5,178.469   l-13.792,36.009c-1.061,2.77-3.655,4.654-6.617,4.807l-38.509,1.99l29.985,24.244c2.306,1.865,3.297,4.914,2.527,7.779   l-10.007,37.239l32.323-21.025c1.243-0.809,2.666-1.213,4.089-1.213s2.846,0.404,4.089,1.213l32.323,21.025l-10.007-37.239   C258.136,250.433,259.126,247.384,261.433,245.519z"
   id="path12" />
	<path
   d="M316.075,220.627c2.417-1.954,3.378-5.195,2.417-8.15c-0.96-2.955-3.643-5.012-6.746-5.172l-53.192-2.748l-8.448-22.057   l-10.603-27.683c-1.111-2.902-3.897-4.817-7.004-4.817s-5.893,1.916-7.004,4.817L214.893,182.5l-8.448,22.057l-53.192,2.748   c-3.103,0.16-5.786,2.217-6.746,5.172c-0.96,2.955,0.001,6.196,2.417,8.15l41.417,33.489l-7.628,28.384l-6.195,23.053   c-0.806,3.001,0.321,6.188,2.835,8.014c2.513,1.826,5.893,1.914,8.498,0.219l44.648-29.042l44.648,29.042   c1.246,0.81,2.668,1.213,4.089,1.213c1.55,0,3.097-0.479,4.409-1.432c2.514-1.826,3.641-5.013,2.835-8.014l-6.195-23.053   l-7.628-28.384L316.075,220.627z M268.913,290.536l-32.323-21.025c-1.243-0.809-2.666-1.213-4.089-1.213s-2.846,0.404-4.089,1.213   l-32.323,21.025l10.007-37.239c0.77-2.865-0.221-5.914-2.527-7.779l-29.985-24.244l38.509-1.99   c2.962-0.153,5.556-2.038,6.617-4.807l13.792-36.009l13.792,36.009c1.061,2.77,3.655,4.654,6.617,4.807l38.509,1.99l-29.985,24.244   c-2.306,1.865-3.297,4.914-2.527,7.779L268.913,290.536z"
   id="path14" />
</g>
<g
   id="g18">
</g>
<g
   id="g20">
</g>
<g
   id="g22">
</g>
<g
   id="g24">
</g>
<g
   id="g26">
</g>
<g
   id="g28">
</g>
<g
   id="g30">
</g>
<g
   id="g32">
</g>
<g
   id="g34">
</g>
<g
   id="g36">
</g>
<g
   id="g38">
</g>
<g
   id="g40">
</g>
<g
   id="g42">
</g>
<g
   id="g44">
</g>
<g
   id="g46">
</g>
</svg>
