<?xml version="1.0" encoding="UTF-8" standalone="no"?>
<svg
   xmlns:dc="http://purl.org/dc/elements/1.1/"
   xmlns:cc="http://creativecommons.org/ns#"
   xmlns:rdf="http://www.w3.org/1999/02/22-rdf-syntax-ns#"
   xmlns:svg="http://www.w3.org/2000/svg"
   xmlns="http://www.w3.org/2000/svg"
   xmlns:sodipodi="http://sodipodi.sourceforge.net/DTD/sodipodi-0.dtd"
   xmlns:inkscape="http://www.inkscape.org/namespaces/inkscape"
   viewBox="0 0 64 64"
   width="512"
   height="512"
   version="1.1"
   id="svg47"
   sodipodi:docname="nanjing_mausoleum.svg"
   inkscape:version="0.92.4 (5da689c313, 2019-01-14)">
  <metadata
     id="metadata53">
    <rdf:RDF>
      <cc:Work
         rdf:about="">
        <dc:format>image/svg+xml</dc:format>
        <dc:type
           rdf:resource="http://purl.org/dc/dcmitype/StillImage" />
        <dc:title>temple-landmark-construction-Architecture-Building</dc:title>
      </cc:Work>
    </rdf:RDF>
  </metadata>
  <defs
     id="defs51" />
  <sodipodi:namedview
     pagecolor="#ffffff"
     bordercolor="#666666"
     borderopacity="1"
     objecttolerance="10"
     gridtolerance="10"
     guidetolerance="10"
     inkscape:pageopacity="0"
     inkscape:pageshadow="2"
     inkscape:window-width="1920"
     inkscape:window-height="986"
     id="namedview49"
     showgrid="false"
     inkscape:zoom="0.921875"
     inkscape:cx="148.14802"
     inkscape:cy="191.56098"
     inkscape:window-x="-11"
     inkscape:window-y="-11"
     inkscape:window-maximized="1"
     inkscape:current-layer="svg47" />
  <title
     id="title2">temple-landmark-construction-Architecture-Building</title>
  <g
     id="g965"
     transform="matrix(0.91933376,0,0,0.91933376,2.5813198,2.5813197)">
    <rect
       x="20"
       y="5"
       width="24"
       height="7"
       style="fill:#527cd1;fill-opacity:1"
       id="rect4" />
    <rect
       x="3"
       y="53"
       width="5"
       height="8"
       style="fill:#333333"
       id="rect6" />
    <rect
       x="10"
       y="35"
       width="44"
       height="18"
       style="fill:#e6e6e6"
       id="rect8" />
    <polygon
       points="49,27 15,27 5,35 59,35 "
       style="fill:#527cd1;fill-opacity:1"
       id="polygon10" />
    <polygon
       points="20,11 44,11 54,19 10,19 "
       style="fill:#527cd1;fill-opacity:1"
       id="polygon12" />
    <rect
       x="15"
       y="19"
       width="34"
       height="8"
       style="fill:#ececec"
       id="rect14" />
    <rect
       x="8"
       y="53"
       width="4"
       height="8"
       style="fill:#c1272d"
       id="rect16" />
    <path
       d="m 8,53 v -2 a 2,2 0 0 1 2,-2 v 0 a 2,2 0 0 1 2,2 v 2 z"
       style="fill:#fbb03b"
       id="path18"
       inkscape:connector-curvature="0" />
    <rect
       x="12"
       y="53"
       width="40"
       height="4"
       style="fill:#c8b7b7"
       id="rect20" />
    <rect
       x="12"
       y="57"
       width="40"
       height="4"
       style="fill:#916f6f"
       id="rect22" />
    <path
       d="m 29,53 v -7 a 3,3 0 0 1 3,-3 v 0 a 3,3 0 0 1 3,3 v 7 z"
       style="fill:#fbb03b"
       id="path24"
       inkscape:connector-curvature="0" />
    <path
       d="m 41,53 v -7 a 3,3 0 0 1 3,-3 v 0 a 3,3 0 0 1 3,3 v 7 z"
       style="fill:#fbb03b"
       id="path26"
       inkscape:connector-curvature="0" />
    <path
       d="m 17,53 v -7 a 3,3 0 0 1 3,-3 v 0 a 3,3 0 0 1 3,3 v 7 z"
       style="fill:#fbb03b"
       id="path28"
       inkscape:connector-curvature="0" />
    <rect
       x="56"
       y="53"
       width="5"
       height="8"
       style="fill:#333333"
       id="rect30" />
    <rect
       x="-56"
       y="-61"
       width="4"
       height="8"
       transform="scale(-1)"
       style="fill:#c1272d"
       id="rect32" />
    <path
       d="m 56,53 v -2 a 2,2 0 0 0 -2,-2 v 0 a 2,2 0 0 0 -2,2 v 2 z"
       style="fill:#fbb03b"
       id="path34"
       inkscape:connector-curvature="0" />
    <path
       d="M 61,52 H 57 V 51 A 3,3 0 0 0 55,48.184 V 40 h 2 v -2 h -2 v -2 h 4 a 1,1 0 0 0 0.625,-1.781 L 50,26.519 V 24 h 2 v -2 h -2 v -2 h 4 a 1,1 0 0 0 0.625,-1.781 L 45,10.519 V 5.858 A 4,4 0 0 0 48,2 H 46 A 2,2 0 0 1 44,4 V 2 H 42 V 4 H 22 V 2 H 20 V 4 A 2,2 0 0 1 18,2 h -2 a 4,4 0 0 0 3,3.858 v 4.661 l -9.625,7.7 A 1,1 0 0 0 10,20 h 4 v 2 h -2 v 2 h 2 v 2.519 l -9.625,7.7 A 1,1 0 0 0 5,36 h 4 v 2 H 7 v 2 h 2 v 8.184 A 3,3 0 0 0 7,51 v 1 H 3 a 1,1 0 0 0 -1,1 v 8 a 1,1 0 0 0 1,1 h 58 a 1,1 0 0 0 1,-1 v -8 a 1,1 0 0 0 -1,-1 z m -48,6 h 38 v 2 H 13 Z m 0,-2 v -2 h 38 v 2 z m 9,-4 h -4 v -6 a 2,2 0 0 1 4,0 z m 12,0 h -4 v -6 a 2,2 0 0 1 4,0 z m 12,0 h -4 v -6 a 2,2 0 0 1 4,0 z m 8,-2 a 1,1 0 0 1 1,1 v 1 h -2 v -1 a 1,1 0 0 1 1,-1 z M 21,6 h 22 v 4 H 21 Z m -0.648,6 h 23.3 l 7.5,6 h -38.3 z M 16,20 h 32 v 2 H 16 Z m 32,4 v 2 H 16 v -2 z m -32.648,4 h 33.3 l 7.5,6 H 7.851 Z M 11,36 h 42 v 2 H 11 Z m 42,4 v 8.184 A 3,3 0 0 0 51,51 v 1 h -3 v -6 a 4,4 0 0 0 -8,0 v 6 h -4 v -6 a 4,4 0 0 0 -8,0 v 6 h -4 v -6 a 4,4 0 0 0 -8,0 v 6 H 13 V 51 A 3,3 0 0 0 11,48.184 V 40 Z M 10,50 a 1,1 0 0 1 1,1 v 1 H 9 v -1 a 1,1 0 0 1 1,-1 z m -6,4 h 3 v 6 H 4 Z m 7,6 H 9 v -6 h 2 z m 44,0 h -2 v -6 h 2 z m 5,0 h -3 v -6 h 3 z"
       id="path44"
       inkscape:connector-curvature="0" />
    <rect
       y="33.948441"
       x="-0.38533181"
       height="27.051559"
       width="12.385332"
       id="rect881"
       style="fill:#cccccc;fill-rule:evenodd;stroke:#000000;stroke-width:1.875;stroke-linecap:round;stroke-linejoin:round;stroke-miterlimit:4;stroke-dasharray:none;stroke-opacity:1" />
    <rect
       y="33.948441"
       x="52"
       height="27.051559"
       width="12.385332"
       id="rect881-0"
       style="fill:#cccccc;fill-rule:evenodd;stroke:#000000;stroke-width:1.875;stroke-linecap:round;stroke-linejoin:round;stroke-miterlimit:4;stroke-dasharray:none;stroke-opacity:1" />
    <rect
       y="27.404266"
       x="-1.0545075"
       height="6.5441756"
       width="13.304507"
       id="rect881-8"
       style="fill:#cccccc;fill-rule:evenodd;stroke:#000000;stroke-width:1.875;stroke-linecap:round;stroke-linejoin:round;stroke-miterlimit:4;stroke-dasharray:none;stroke-opacity:1" />
    <rect
       y="27.404264"
       x="51.75"
       height="6.5441756"
       width="13.304507"
       id="rect881-8-3"
       style="fill:#cccccc;fill-rule:evenodd;stroke:#000000;stroke-width:1.875;stroke-linecap:round;stroke-linejoin:round;stroke-miterlimit:4;stroke-dasharray:none;stroke-opacity:1" />
    <rect
       y="19.778759"
       x="30.234112"
       height="6.5441756"
       width="3.5317769"
       id="rect881-8-6"
       style="fill:#527cd1;fill-opacity:1;fill-rule:evenodd;stroke:#000000;stroke-width:1.25;stroke-linecap:round;stroke-linejoin:round;stroke-miterlimit:4;stroke-dasharray:none;stroke-opacity:1" />
  </g>
</svg>
