<?xml version="1.0" encoding="UTF-8" standalone="no"?>
<!-- Generator: Adobe Illustrator 16.0.0, SVG Export Plug-In . SVG Version: 6.00 Build 0)  -->

<svg
   xmlns:dc="http://purl.org/dc/elements/1.1/"
   xmlns:cc="http://creativecommons.org/ns#"
   xmlns:rdf="http://www.w3.org/1999/02/22-rdf-syntax-ns#"
   xmlns:svg="http://www.w3.org/2000/svg"
   xmlns="http://www.w3.org/2000/svg"
   xmlns:sodipodi="http://sodipodi.sourceforge.net/DTD/sodipodi-0.dtd"
   xmlns:inkscape="http://www.inkscape.org/namespaces/inkscape"
   version="1.1"
   id="Capa_1"
   x="0px"
   y="0px"
   width="92.797px"
   height="92.797px"
   viewBox="0 0 92.797 92.797"
   style="enable-background:new 0 0 92.797 92.797;"
   xml:space="preserve"
   sodipodi:docname="nanjing_metro.svg"
   inkscape:version="0.92.4 (5da689c313, 2019-01-14)"><metadata
   id="metadata41"><rdf:RDF><cc:Work
       rdf:about=""><dc:format>image/svg+xml</dc:format><dc:type
         rdf:resource="http://purl.org/dc/dcmitype/StillImage" /><dc:title></dc:title></cc:Work></rdf:RDF></metadata><defs
   id="defs39" /><sodipodi:namedview
   pagecolor="#ffffff"
   bordercolor="#666666"
   borderopacity="1"
   objecttolerance="10"
   gridtolerance="10"
   guidetolerance="10"
   inkscape:pageopacity="0"
   inkscape:pageshadow="2"
   inkscape:window-width="1920"
   inkscape:window-height="986"
   id="namedview37"
   showgrid="false"
   inkscape:zoom="2.5431857"
   inkscape:cx="-84.343034"
   inkscape:cy="46.398498"
   inkscape:window-x="-11"
   inkscape:window-y="-11"
   inkscape:window-maximized="1"
   inkscape:current-layer="Capa_1" />
<g
   id="g4"
   style="fill:#de0010;fill-opacity:1;stroke:#000000;stroke-width:3.51956329;stroke-linecap:round;stroke-linejoin:round;stroke-miterlimit:4;stroke-dasharray:none;stroke-opacity:1;paint-order:markers fill stroke"
   transform="matrix(0.90920371,0,0,0.90920371,4.2123837,4.2183039)">
	<path
   d="M 91.81,34.294 C 88.38,23.735 77.041,17.954 66.486,21.382 66.486,10.286 57.492,1.291 46.391,1.291 l 0.003,0.004 C 35.296,1.295 26.3,10.291 26.3,21.387 15.748,17.957 4.418,23.739 0.99,34.293 -2.439,44.848 3.329,56.175 13.882,59.605 7.36,68.583 9.351,81.146 18.329,87.667 c 8.977,6.521 21.541,4.529 28.063,-4.447 6.522,8.977 19.1,10.969 28.078,4.447 C 83.447,81.146 85.426,68.582 78.904,59.605 89.456,56.176 95.237,44.848 91.81,34.294 Z m -28.618,41.3 -5.357,-7.232 c 4.698,-3.492 7.74,-9.084 7.74,-15.387 0,-9.035 -6.267,-16.615 -14.683,-18.642 V 69.555 H 41.904 V 34.333 c -8.417,2.023 -14.668,9.602 -14.668,18.642 0,6.303 3.031,11.896 7.727,15.387 l -5.368,7.227 C 22.698,70.453 18.233,62.235 18.233,52.976 18.233,38.948 28.485,27.32 41.904,25.169 v -7.944 0.007 h 8.991 v 7.943 c 13.414,2.155 23.67,13.783 23.67,27.805 0.001,9.261 -4.471,17.479 -11.373,22.614 z"
   id="path2"
   style="fill:#de0010;fill-opacity:1;stroke:#000000;stroke-width:3.51956329;stroke-linecap:round;stroke-linejoin:round;stroke-miterlimit:4;stroke-dasharray:none;stroke-opacity:1;paint-order:markers fill stroke"
   inkscape:connector-curvature="0" />
</g>
<g
   id="g6">
</g>
<g
   id="g8">
</g>
<g
   id="g10">
</g>
<g
   id="g12">
</g>
<g
   id="g14">
</g>
<g
   id="g16">
</g>
<g
   id="g18">
</g>
<g
   id="g20">
</g>
<g
   id="g22">
</g>
<g
   id="g24">
</g>
<g
   id="g26">
</g>
<g
   id="g28">
</g>
<g
   id="g30">
</g>
<g
   id="g32">
</g>
<g
   id="g34">
</g>
</svg>