<?xml version="1.0" encoding="iso-8859-1"?>
<!-- Generator: Adobe Illustrator 19.0.0, SVG Export Plug-In . SVG Version: 6.00 Build 0)  -->
<svg version="1.1" id="Capa_1" xmlns="http://www.w3.org/2000/svg" xmlns:xlink="http://www.w3.org/1999/xlink" x="0px" y="0px"
	 viewBox="0 0 512 512" style="enable-background:new 0 0 512 512;" xml:space="preserve">
<g>
	<rect x="173.922" y="352.344" style="fill:#EDCE83;" width="164.16" height="96.094"/>
	<rect x="194.652" y="237.232" style="fill:#EDCE83;" width="122.71" height="64.063"/>
	<rect x="210.357" y="122.119" style="fill:#EDCE83;" width="91.279" height="64.063"/>
</g>
<polygon style="fill:#BCAAA4;" points="391.134,504.493 391.134,487.476 338.082,448.438 173.922,448.438 120.87,487.476 
	120.87,504.493 "/>
<path style="fill:#616161;" d="M256.002,381.372L256.002,381.372c-17.69,0-32.031,14.341-32.031,32.031v35.034h64.063v-35.034
	C288.033,395.713,273.692,381.372,256.002,381.372z"/>
<g>
	<path style="fill:#80CBC4;" d="M317.356,301.294c0,22.022,59.167,23.022,59.167,23.022v17.017l-38.441,11.011h-164.16
		l-38.441-11.011v-17.017c0,0,59.167,2.002,59.167-23.022H317.356z"/>
	<path style="fill:#80CBC4;" d="M301.644,186.182c0,22.021,44.446,23.022,44.446,23.022v17.017l-28.734,11.011H194.648
		l-28.734-11.011v-17.017c0,0,44.446,2.002,44.446-23.022H301.644z"/>
	<path style="fill:#80CBC4;" d="M287.026,79.278c7.564,14.078,34.039,14.813,34.039,14.813v17.017l-19.422,11.011H210.36
		l-19.422-11.011V94.092c0,0,26.899,1.494,34.216-14.238c2.479-5.331,7.774-8.785,13.652-8.785h34.948
		C279.378,71.069,284.366,74.327,287.026,79.278z"/>
	<path style="fill:#80CBC4;" d="M256.002,35.034L256.002,35.034c8.292,0,15.015,6.723,15.015,15.015v21.021h-30.029V50.049
		C240.987,41.757,247.71,35.034,256.002,35.034z"/>
</g>
<g>
	<rect x="210.357" y="122.119" style="fill:#EABE5C;" width="91.279" height="20.02"/>
	<rect x="194.652" y="237.232" style="fill:#EABE5C;" width="122.71" height="20.02"/>
	<rect x="173.922" y="352.344" style="fill:#EABE5C;" width="164.16" height="20.02"/>
</g>
<rect x="120.87" y="487.476" style="fill:#A1887F;" width="270.264" height="17.017"/>
<g>
	<rect x="240.987" y="51.05" style="fill:#26A69A;" width="30.029" height="20.02"/>
	<polygon style="fill:#26A69A;" points="321.066,102.1 321.066,111.109 301.644,122.119 210.36,122.119 190.938,111.109 
		190.938,102.1 	"/>
	<polygon style="fill:#26A69A;" points="346.09,217.212 346.09,226.221 317.356,237.232 194.648,237.232 165.914,226.221 
		165.914,217.212 	"/>
	<polygon style="fill:#26A69A;" points="376.523,332.325 376.523,341.333 338.082,352.344 173.922,352.344 135.481,341.333 
		135.481,332.325 	"/>
</g>
<path style="fill:#424242;" d="M256.002,381.372L256.002,381.372c-17.69,0-32.031,14.341-32.031,32.031v22.022
	c0-17.69,14.341-32.031,32.031-32.031l0,0c17.69,0,32.031,14.341,32.031,32.031v-22.022
	C288.033,395.713,273.692,381.372,256.002,381.372z"/>
<path d="M345.589,444.641v-86.639l38.441-11.011l-0.003-30.051l-7.375-0.13c-24.496-0.432-51.79-6.911-51.79-15.516v-58.9
	l28.734-11.011v-29.52l-7.338-0.165c-11.625-0.262-37.108-4.532-37.108-15.517v-59.688l19.422-11.011l-0.013-28.668l-7.274-0.226
	c-5.755-0.179-23.186-2.56-27.647-10.863c-3.237-6.025-8.791-10.211-15.116-11.628V50.049c0-9.788-6.277-18.132-15.015-21.231V0
	h-15.015v28.818c-8.738,3.099-15.015,11.443-15.015,21.231v14.176c-6.549,1.621-12.197,6.152-15.132,12.463
	c-4.187,9.002-21.334,10.194-26.993,9.909l-7.924-0.44v29.327l19.422,11.011v59.688c0,3.016-1.002,5.38-3.153,7.442
	c-7.795,7.468-26.79,8.366-33.449,8.081l-7.845-0.353v30.032l28.734,11.011v58.9c0,2.062-0.766,3.723-2.481,5.382
	c-8.551,8.275-34.551,10.608-48.925,10.137l-7.761-0.262v30.441l38.441,11.011v86.639l-53.052,39.038V512h285.279v-28.321
	L345.589,444.641z M248.495,50.049c0-4.14,3.367-7.507,7.507-7.507s7.507,3.367,7.507,7.507v13.513h-15.015V50.049z
	 M198.446,106.734v-5.338c10.107-0.834,27.004-4.375,33.516-18.377c1.255-2.7,3.942-4.443,6.846-4.443h34.949
	c2.696,0,5.247,1.631,6.656,4.255c6.786,12.629,23.357,16.764,33.145,18.116v5.787l-13.895,7.878h-87.322L198.446,106.734z
	 M294.136,129.627v49.048h-76.267v-49.048H294.136z M173.421,221.058v-4.41c9.987-0.481,26.809-2.76,36.643-12.161
	c3.221-3.079,5.484-6.737,6.717-10.799h78.564c5.731,16.679,30.403,21.281,43.238,22.547v4.822l-22.616,8.666H196.037
	L173.421,221.058z M309.849,244.739v49.048H202.155v-49.048H309.849z M142.989,335.675v-3.838
	c13.408-0.304,39.811-2.477,52.103-14.36c2.648-2.56,4.58-5.488,5.748-8.674h110.476c3.854,9.211,15.287,15.793,34.131,19.619
	c8.863,1.799,17.636,2.652,23.57,3.053v4.2l-31.987,9.162H174.976L142.989,335.675z M256.002,373.865
	c-21.801,0-39.539,17.737-39.539,39.539v27.527h-35.034v-81.079h149.146v81.079h-35.034v-27.527
	C295.541,391.602,277.803,373.865,256.002,373.865z M280.526,413.404v27.527h-49.048v-27.527c0-13.522,11.002-24.524,24.524-24.524
	C269.524,388.88,280.526,399.882,280.526,413.404z M383.627,496.985H128.377v-5.713l48.009-35.328h159.232l48.009,35.328
	L383.627,496.985L383.627,496.985z"/>
<g>
	<rect x="231.979" y="319.312" style="fill:#FFFFFF;" width="48.047" height="15.015"/>
	<rect x="231.979" y="204.199" style="fill:#FFFFFF;" width="48.047" height="15.015"/>
	<path style="fill:#FFFFFF;" d="M293.539,276.77h-15.015v-15.015h15.015V276.77z M263.509,276.77h-15.015v-15.015h15.015V276.77z
		 M233.48,276.77h-15.015v-15.015h15.015V276.77z"/>
	<rect x="248.495" y="89.087" style="fill:#FFFFFF;" width="15.015" height="15.015"/>
	<path style="fill:#FFFFFF;" d="M278.524,161.658h-15.015v-15.015h15.015V161.658z M248.495,161.658H233.48v-15.015h15.015V161.658z
		"/>
	<path style="fill:#FFFFFF;" d="M323.568,483.973h-15.015v-15.015h15.015V483.973z M293.539,483.973h-15.015v-15.015h15.015V483.973
		z M263.509,483.973h-15.015v-15.015h15.015V483.973z M233.48,483.973h-15.015v-15.015h15.015V483.973z M203.451,483.973h-15.015
		v-15.015h15.015V483.973z"/>
	<rect x="300.545" y="374.366" style="fill:#FFFFFF;" width="15.015" height="15.015"/>
	<rect x="196.444" y="374.366" style="fill:#FFFFFF;" width="15.015" height="15.015"/>
</g>
<g>
</g>
<g>
</g>
<g>
</g>
<g>
</g>
<g>
</g>
<g>
</g>
<g>
</g>
<g>
</g>
<g>
</g>
<g>
</g>
<g>
</g>
<g>
</g>
<g>
</g>
<g>
</g>
<g>
</g>
</svg>
