<?xml version="1.0" encoding="UTF-8" standalone="no"?>
<!-- Generator: Adobe Illustrator 16.0.0, SVG Export Plug-In . SVG Version: 6.00 Build 0)  -->

<svg
   xmlns:dc="http://purl.org/dc/elements/1.1/"
   xmlns:cc="http://creativecommons.org/ns#"
   xmlns:rdf="http://www.w3.org/1999/02/22-rdf-syntax-ns#"
   xmlns:svg="http://www.w3.org/2000/svg"
   xmlns="http://www.w3.org/2000/svg"
   xmlns:sodipodi="http://sodipodi.sourceforge.net/DTD/sodipodi-0.dtd"
   xmlns:inkscape="http://www.inkscape.org/namespaces/inkscape"
   version="1.1"
   id="Capa_1"
   x="0px"
   y="0px"
   width="800px"
   height="800px"
   viewBox="0 0 800 800"
   enable-background="new 0 0 800 800"
   xml:space="preserve"
   sodipodi:docname="netherlands_flag.svg"
   inkscape:version="0.92.4 (5da689c313, 2019-01-14)"><metadata
   id="metadata21"><rdf:RDF><cc:Work
       rdf:about=""><dc:format>image/svg+xml</dc:format><dc:type
         rdf:resource="http://purl.org/dc/dcmitype/StillImage" /></cc:Work></rdf:RDF></metadata><defs
   id="defs19" /><sodipodi:namedview
   pagecolor="#ffffff"
   bordercolor="#666666"
   borderopacity="1"
   objecttolerance="10"
   gridtolerance="10"
   guidetolerance="10"
   inkscape:pageopacity="0"
   inkscape:pageshadow="2"
   inkscape:window-width="1920"
   inkscape:window-height="986"
   id="namedview17"
   showgrid="false"
   inkscape:zoom="2.36"
   inkscape:cx="659.03435"
   inkscape:cy="423.65281"
   inkscape:window-x="-11"
   inkscape:window-y="-11"
   inkscape:window-maximized="1"
   inkscape:current-layer="g14" />
<g
   id="g14">
	<path
   fill="#FFFFFF"
   d="M632.258,326.882H25.807v146.236h748.387V326.882h-90.322c-7.128,0-12.903-5.777-12.903-12.903h-25.807   C645.161,321.104,639.386,326.882,632.258,326.882z"
   id="path2" />
	<path
   fill="#B21727"
   d="M644.161,314.979v-1c0-6.563-5.34-11.903-11.903-11.903H24.807V153.839h750.387v148.236h-91.322   c-6.563,0-11.903,5.34-11.903,11.903v1H644.161z"
   id="path4" />
	<path
   fill="#B21727"
   d="M632.258,301.075c7.128,0,12.903,5.777,12.903,12.903h25.807c0-7.126,5.775-12.903,12.903-12.903h90.322   V154.839H25.807v146.236H632.258z"
   id="path6" />
	<rect
   x="24.807"
   y="497.925"
   fill="#103B9B"
   width="750.387"
   height="148.236"
   id="rect8" />
	<rect
   x="25.807"
   y="498.925"
   fill="#103B9B"
   width="748.387"
   height="146.236"
   id="rect10" />
	<path
   d="M 787.097,129.032 H 12.903 C 5.777,129.032 0,134.81 0,141.936 v 516.129 c 0,7.126 5.777,12.903 12.903,12.903 h 774.193 c 7.128,0 12.903,-5.777 12.903,-12.903 V 141.936 C 800,134.81 794.225,129.032 787.097,129.032 Z m -12.904,25.807 V 301.075 H 631.871 c -7.128,0 7.097,5.777 7.097,12.903 0,7.126 -14.225,12.903 -7.097,12.903 H 774.193 V 473.117 H 25.807 V 326.882 h 606.451 c 7.128,0 12.903,-5.777 12.903,-12.903 0,-7.126 -5.775,-12.903 -12.903,-12.903 H 25.807 V 154.839 Z M 25.807,645.161 V 498.925 H 774.194 V 645.161 H 25.807 Z"
   id="path12"
   inkscape:connector-curvature="0"
   sodipodi:nodetypes="ssssssscsccsssccccsssccccccccc" />
</g>
</svg>