<?xml version="1.0" encoding="iso-8859-1"?>
<!-- Generator: Adobe Illustrator 19.0.0, SVG Export Plug-In . SVG Version: 6.00 Build 0)  -->
<svg version="1.1" id="Layer_1" xmlns="http://www.w3.org/2000/svg" xmlns:xlink="http://www.w3.org/1999/xlink" x="0px" y="0px"
	 viewBox="0 0 512 512" style="enable-background:new 0 0 512 512;" xml:space="preserve">
<g>
	<path style="fill:#BFA083;" d="M238.365,93.151h-23.529c-2.873,0-5.224,2.351-5.224,5.224v43.311h9.888v-13.397
		c0-12.822,7.619-23.979,18.866-29.773L238.365,93.151L238.365,93.151z"/>
	<path style="fill:#BFA083;" d="M297.165,93.151h-23.528v5.365l-0.001-0.001c11.248,5.794,18.868,16.953,18.868,29.775v13.397h9.887
		V98.375C302.389,95.502,300.038,93.151,297.165,93.151z"/>
	<path style="fill:#BFA083;" d="M292.502,147.239c9.146,8.986,14.797,21.327,14.797,34.953v10.356h13.63v-45.637
		c0-2.873-2.351-5.224-5.224-5.224h-23.202L292.502,147.239L292.502,147.239z"/>
	<path style="fill:#BFA083;" d="M204.703,182.192c0-13.625,5.651-25.968,14.797-34.953v-5.552h-23.202
		c-2.873,0-5.225,2.351-5.225,5.224v45.637h13.63V182.192z"/>
	<path style="fill:#BFA083;" d="M307.299,195.582c6.231,9.441,9.864,20.699,9.864,32.8v18.423h14.407v-49.032
		c0-2.873-2.351-5.224-5.224-5.224h-19.046V195.582z"/>
	<path style="fill:#BFA083;" d="M194.839,228.381c0-12.101,3.634-23.359,9.864-32.8v-3.033h-19.047
		c-2.873,0-5.224,2.351-5.224,5.224v49.032h14.407v-18.423H194.839z"/>
	<path style="fill:#BFA083;" d="M174.857,335.928c0-14.489,3.777-28.084,10.373-39.875c-0.084,0.149-0.173,0.297-0.256,0.447
		v-11.701c0-13.135,3.605-25.429,9.865-35.971v-2.025h-18.721c-2.873,0-5.225,2.351-5.225,5.224V341.1h3.964L174.857,335.928
		L174.857,335.928z"/>
	<path style="fill:#BFA083;" d="M335.884,246.804h-18.721v2.023l-0.003-0.005c6.261,10.544,9.868,22.838,9.868,35.977v11.703
		c6.439,11.686,10.116,25.122,10.116,39.426v5.171h3.965v-89.071C341.109,249.155,338.758,246.804,335.884,246.804z"/>
</g>
<g>
	<path style="fill:#E0E0E0;" d="M158.18,341.1c-2.873,0-5.224,2.351-5.224,5.224v152.615c0,2.873,2.351,5.224,5.224,5.224h16.678
		V341.1H158.18z"/>
	<path style="fill:#E0E0E0;" d="M353.822,341.1h-16.679v163.064h16.679c2.873,0,5.224-2.351,5.224-5.224V346.324
		C359.047,343.451,356.696,341.1,353.822,341.1z"/>
	<path style="fill:#E0E0E0;" d="M256.001,94.284c6.397,0,12.406,1.538,17.635,4.231V64.83c0-9.075-7.895-16.43-17.635-16.43
		c-9.739,0-17.636,7.355-17.636,16.43v33.686C243.594,95.822,249.604,94.284,256.001,94.284z"/>
</g>
<path style="fill:#E2C3AA;" d="M256.001,132.432c14.285,0,27.2,5.668,36.501,14.806v-18.949c0-18.782-16.343-34.005-36.501-34.005
	S219.5,109.507,219.5,128.289v18.949C228.801,138.1,241.717,132.432,256.001,132.432z"/>
<path style="fill:#E0E0E0;" d="M256.001,168.119c21.498,0,40.392,10.937,51.298,27.462v-13.389
	c0-27.482-22.967-49.759-51.298-49.759c-28.33,0-51.298,22.277-51.298,49.759v13.389
	C215.609,179.056,234.503,168.119,256.001,168.119z"/>
<path style="fill:#E2C3AA;" d="M256.001,214.033c26.043,0,48.798,13.972,61.162,34.795v-20.446
	c0-33.282-27.383-60.262-61.162-60.262s-61.162,26.979-61.162,60.262v20.447C207.203,228.006,229.958,214.033,256.001,214.033z"/>
<path style="fill:#E0E0E0;" d="M256.001,254.394c30.58,0,57.196,17.004,71.028,42.108v-11.703c0-39.081-31.799-70.767-71.028-70.767
	c-39.228,0-71.028,31.684-71.028,70.767V296.5C198.805,271.397,225.422,254.394,256.001,254.394z"/>
<path style="fill:#E2C3AA;" d="M337.144,504.163V335.928c0-45.031-36.329-81.534-81.143-81.534s-81.144,36.505-81.144,81.534
	v168.235H337.144z"/>
<g>
	<rect x="174.854" y="397.678" style="fill:#BFA083;" width="37.611" height="24.792"/>
	<rect x="299.531" y="397.678" style="fill:#BFA083;" width="37.61" height="24.792"/>
	<rect x="174.854" y="448.502" style="fill:#BFA083;" width="37.611" height="24.792"/>
	<rect x="299.531" y="448.502" style="fill:#BFA083;" width="37.61" height="24.792"/>
	<rect x="174.854" y="346.864" style="fill:#BFA083;" width="37.611" height="24.791"/>
	<rect x="299.531" y="346.864" style="fill:#BFA083;" width="37.61" height="24.791"/>
</g>
<path style="fill:#E0E0E0;" d="M299.534,504.163V335.928c0-24.119-19.528-43.74-43.533-43.74s-43.533,19.621-43.533,43.74v168.235
	H299.534z"/>
<g style="opacity:0.1;">
	<path d="M264.706,293.068c-2.813-0.576-5.725-0.88-8.705-0.88c-24.004,0-43.533,19.621-43.533,43.74v168.235h17.41V335.928
		C229.879,314.804,244.859,297.13,264.706,293.068z"/>
</g>
<path style="fill:#58595B;" d="M267.295,504.163V335.928c0-6.258-5.068-11.347-11.294-11.347c-6.227,0-11.295,5.089-11.295,11.347
	v168.235H267.295z"/>
<path d="M359.047,389.846c4.329,0,7.837-3.508,7.837-7.837v-35.684c0-7.202-5.859-13.061-13.061-13.061h-4.877v-81.235
	c0-5.98-4.045-11.023-9.539-12.565v-41.69c0-6.375-4.593-11.689-10.642-12.827v-38.033c0-7.202-5.859-13.061-13.061-13.061h-5.478
	V98.378c0-7.202-5.859-13.061-13.061-13.061h-15.691V64.83c0-9.821-6.161-18.293-14.99-22.107L263.815,7.25
	C263.509,3.16,260.101,0,256.001,0c-4.1,0-7.508,3.16-7.815,7.25l-2.668,35.473c-8.83,3.814-14.991,12.286-14.991,22.107v20.484
	h-15.692c-7.202,0-13.061,5.859-13.061,13.061v35.474h-5.477c-7.202,0-13.061,5.859-13.061,13.061v38.033
	c-6.049,1.139-10.642,6.453-10.642,12.827v41.69c-5.494,1.543-9.539,6.586-9.539,12.565v81.235h-4.877
	c-7.202,0-13.061,5.859-13.061,13.061v91.063c0,4.329,3.508,7.837,7.837,7.837c4.329,0,7.837-3.508,7.837-7.837v-88.451h6.229
	v147.392h-6.229V463.51c0-4.329-3.508-7.837-7.837-7.837c-4.329,0-7.837,3.508-7.837,7.837v35.428
	c0,7.201,5.859,13.061,13.061,13.061H353.82c7.202,0,13.061-5.86,13.061-13.061v-89.763c0-4.329-3.508-7.837-7.837-7.837
	s-7.837,3.508-7.837,7.837v87.151h-6.23v-147.39h6.23v33.072C351.21,386.337,354.719,389.846,359.047,389.846z M323.733,200.384
	v15.032c-1.03-5.249-2.674-10.284-4.854-15.032H323.733z M313.092,149.524v17.695c-1.776-6.407-4.661-12.374-8.443-17.695H313.092z
	 M282.123,195.267c-4.329,0-7.837,3.508-7.837,7.837v5.247c-3.406-0.809-6.89-1.415-10.449-1.767v-10.569
	c0-4.329-3.508-7.837-7.837-7.837c-4.329,0-7.837,3.508-7.837,7.837v10.569c-3.196,0.317-6.331,0.839-9.404,1.526v-5.007
	c0-4.329-3.508-7.837-7.837-7.837c-4.329,0-7.837,3.508-7.837,7.837v10.292c-7.496,3.447-14.364,8.019-20.373,13.519
	c0.796-28.23,24.384-50.959,53.288-50.959c28.904,0,52.491,22.729,53.288,50.959c-5.73-5.245-12.237-9.659-19.329-13.047v-10.763
	C289.96,198.775,286.452,195.267,282.123,195.267z M294.553,100.987v6.674c-1.436-2.379-3.111-4.613-4.995-6.674H294.553z
	 M246.202,64.83c0-4.738,4.396-8.593,9.799-8.593c5.403,0,9.798,3.855,9.798,8.593v22.66c-3.155-0.674-6.43-1.042-9.798-1.042
	c-3.368,0-6.643,0.369-9.799,1.043V64.83z M227.336,128.289c0-14.43,12.86-26.168,28.665-26.168
	c15.805,0,28.665,11.738,28.665,26.168v3.548c-6.325-3.429-13.358-5.753-20.828-6.722v-6.424c0-4.329-3.508-7.837-7.837-7.837
	s-7.837,3.508-7.837,7.837v6.424c-7.469,0.969-14.503,3.291-20.828,6.722L227.336,128.289L227.336,128.289z M217.45,100.987h4.996
	c-1.885,2.062-3.56,4.293-4.996,6.676V100.987z M256.001,140.269c21.435,0,39.284,15.051,42.816,34.769
	c-2.787-2.184-5.746-4.158-8.857-5.902v-5.512c0-4.329-3.508-7.837-7.837-7.837c-4.03,0-7.346,3.043-7.783,6.955
	c-3.404-0.927-6.91-1.606-10.502-2.008v-4.198c0-4.329-3.508-7.837-7.837-7.837c-4.329,0-7.837,3.508-7.837,7.837v4.198
	c-3.238,0.364-6.413,0.936-9.5,1.727c-0.562-3.776-3.809-6.675-7.741-6.675c-4.329,0-7.837,3.508-7.837,7.837v4.919
	c-3.498,1.881-6.801,4.067-9.901,6.495C216.717,155.32,234.566,140.269,256.001,140.269z M198.91,149.524h8.443
	c-3.781,5.322-6.666,11.288-8.443,17.695V149.524z M256.001,221.869c30.345,0,55.753,21.414,61.811,49.863
	c-7.995-7.769-17.422-14.052-27.852-18.395v-7.54c0-4.329-3.508-7.837-7.837-7.837s-7.837,3.508-7.837,7.837v2.667
	c-3.415-0.719-6.904-1.227-10.449-1.539v-8.215c0-4.329-3.508-7.837-7.837-7.837c-4.329,0-7.837,3.508-7.837,7.837v8.214
	c-3.185,0.281-6.324,0.722-9.404,1.331v-2.458c0-4.329-3.508-7.837-7.837-7.837c-4.329,0-7.837,3.508-7.837,7.837v7.125
	c-10.843,4.353-20.637,10.782-28.897,18.808C200.248,243.284,225.656,221.869,256.001,221.869z M188.269,200.384h4.854
	c-2.18,4.748-3.822,9.782-4.854,15.032V200.384z M178.73,254.641h4.453c-1.926,4.6-3.43,9.416-4.453,14.405V254.641z
	 M204.632,496.327h-21.938v-15.196h21.938V496.327z M204.632,465.457h-21.938v-9.119h21.938V465.457z M204.632,440.665h-21.938
	V430.31h21.938V440.665z M204.632,414.636h-21.938v-9.119h21.938V414.636z M204.632,389.845h-21.938V379.49h21.938V389.845z
	 M204.632,363.817h-21.938v-9.119h21.938V363.817z M259.459,496.327h-6.915V335.928c0-1.936,1.551-3.51,3.459-3.51
	c1.906,0,3.458,1.575,3.458,3.51v160.398H259.459z M329.307,496.327H307.37v-15.196h21.937V496.327z M329.307,465.457H307.37v-9.119
	h21.937V465.457z M329.307,440.665H307.37V430.31h21.937V440.665z M329.307,414.636H307.37v-9.119h21.937V414.636z M329.307,389.845
	H307.37V379.49h21.937V389.845z M329.307,363.817H307.37v-9.119h21.937V363.817z M329.307,339.024H307.37v-3.096
	c0-8.551-2.139-17.031-6.185-24.522c-2.055-3.809-6.812-5.23-10.618-3.171c-3.81,2.056-5.229,6.81-3.172,10.618
	c2.814,5.211,4.302,11.116,4.302,17.075v8.256h-2.621c-4.329,0-7.837,3.508-7.837,7.837c0,4.328,3.508,7.837,7.837,7.837h2.621
	v5.922h-2.621c-4.329,0-7.837,3.508-7.837,7.837s3.508,7.837,7.837,7.837h2.621v5.925h-2.621c-4.329,0-7.837,3.508-7.837,7.837
	s3.508,7.837,7.837,7.837h2.621v5.922h-2.621c-4.329,0-7.837,3.508-7.837,7.837s3.508,7.837,7.837,7.837h2.621v5.922h-2.621
	c-4.329,0-7.837,3.508-7.837,7.837s3.508,7.837,7.837,7.837h2.621v5.924h-2.621c-4.329,0-7.837,3.509-7.837,7.837
	c0,4.329,3.508,7.837,7.837,7.837h2.621v5.922h-2.621c-4.329,0-7.837,3.508-7.837,7.837s3.508,7.837,7.837,7.837h2.621v6.89h-16.566
	V335.928c0-10.577-8.582-19.183-19.131-19.183s-19.132,8.606-19.132,19.183v160.398h-16.564v-6.89h2.62
	c4.329,0,7.837-3.508,7.837-7.837s-3.508-7.837-7.837-7.837h-2.62v-5.922h2.62c4.329,0,7.837-3.508,7.837-7.837
	c0-4.328-3.508-7.837-7.837-7.837h-2.62v-5.924h2.62c4.329,0,7.837-3.508,7.837-7.837s-3.508-7.837-7.837-7.837h-2.62v-5.922h2.62
	c4.329,0,7.837-3.508,7.837-7.837s-3.508-7.837-7.837-7.837h-2.62v-5.922h2.62c4.329,0,7.837-3.508,7.837-7.837
	s-3.508-7.837-7.837-7.837h-2.62v-5.925h2.62c4.329,0,7.837-3.508,7.837-7.837s-3.508-7.837-7.837-7.837h-2.62v-5.922h2.62
	c4.329,0,7.837-3.509,7.837-7.837c0-4.329-3.508-7.837-7.837-7.837h-2.62v-8.256c0-19.798,16.013-35.904,35.696-35.904
	c4.423,0,8.74,0.807,12.83,2.398c4.033,1.572,8.575-0.429,10.145-4.464c1.568-4.033-0.429-8.576-4.464-10.145
	c-5.909-2.298-12.138-3.463-18.512-3.463c-28.325,0-51.369,23.137-51.369,51.577v3.096h-21.938v-3.096
	c0-40.637,32.886-73.698,73.307-73.698s73.306,33.062,73.306,73.698v3.096H329.307z M333.272,269.046
	c-1.023-4.989-2.528-9.805-4.453-14.405h4.453V269.046z"/>
<path d="M256.001,265.502c-4.329,0-7.837,3.508-7.837,7.837v1.045c0,4.329,3.508,7.837,7.837,7.837c4.329,0,7.837-3.508,7.837-7.837
	v-1.045C263.838,269.01,260.33,265.502,256.001,265.502z"/>
<path d="M194.874,314.612c-4.329,0-7.837,3.508-7.837,7.837v1.045c0,4.329,3.508,7.837,7.837,7.837c4.329,0,7.837-3.508,7.837-7.837
	v-1.045C202.711,318.12,199.204,314.612,194.874,314.612z"/>
<path d="M317.128,331.331c4.329,0,7.837-3.508,7.837-7.837v-1.045c0-4.329-3.508-7.837-7.837-7.837
	c-4.329,0-7.837,3.508-7.837,7.837v1.045C309.291,327.822,312.799,331.331,317.128,331.331z"/>
<path d="M299.364,284.31c-4.329,0-7.837,3.508-7.837,7.837v1.045c0,4.329,3.508,7.837,7.837,7.837s7.837-3.508,7.837-7.837v-1.045
	C307.201,287.818,303.693,284.31,299.364,284.31z"/>
<path d="M212.638,284.31c-4.329,0-7.837,3.508-7.837,7.837v1.045c0,4.329,3.508,7.837,7.837,7.837c4.329,0,7.837-3.508,7.837-7.837
	v-1.045C220.475,287.818,216.967,284.31,212.638,284.31z"/>
<g>
</g>
<g>
</g>
<g>
</g>
<g>
</g>
<g>
</g>
<g>
</g>
<g>
</g>
<g>
</g>
<g>
</g>
<g>
</g>
<g>
</g>
<g>
</g>
<g>
</g>
<g>
</g>
<g>
</g>
</svg>
