<?xml version="1.0" encoding="iso-8859-1"?>
<!-- Generator: Adobe Illustrator 19.0.0, SVG Export Plug-In . SVG Version: 6.00 Build 0)  -->
<svg version="1.1" id="Layer_1" xmlns="http://www.w3.org/2000/svg" xmlns:xlink="http://www.w3.org/1999/xlink" x="0px" y="0px"
	 viewBox="0 0 512 512" style="enable-background:new 0 0 512 512;" xml:space="preserve">
<path style="fill:#BFA083;" d="M246.01,118.937c-2.873,0-4.586-2.262-3.806-5.028l12.378-43.848c0.781-2.765,2.058-2.765,2.839,0
	l12.378,43.848c0.781,2.765-0.932,5.028-3.806,5.028C265.993,118.937,246.01,118.937,246.01,118.937z"/>
<path style="fill:#E2C3AA;" d="M299.7,220.9v-21.388c0-1.724-1.043-4.085-2.318-5.246l-7.768-7.077
	c-1.275-1.161-2.318-3.521-2.318-5.245V162.34c0-1.724-0.88-4.238-1.954-5.586l-4.728-5.931c-1.074-1.348-1.954-3.861-1.954-5.586
	v-22.879c0-1.724-1.411-3.135-3.135-3.135h-39.052c-1.724,0-3.135,1.411-3.135,3.135v22.879c0,1.724-0.88,4.238-1.954,5.586
	l-4.729,5.931c-1.074,1.348-1.954,3.861-1.954,5.586v19.603c0,1.724-1.043,4.085-2.317,5.245l-7.766,7.077
	c-1.275,1.161-2.317,3.521-2.317,5.246V220.9H299.7z"/>
<path style="fill:#BFA083;" d="M321.952,247.711v-21.587c0-2.873-2.351-5.224-5.225-5.224H195.277c-2.873,0-5.224,2.351-5.224,5.224
	v21.587H321.952z"/>
<path style="opacity:0.1;enable-background:new    ;" d="M234.059,220.9v-21.388c0-1.724,1.043-4.085,2.317-5.246l7.766-7.077
	c1.275-1.161,2.317-3.521,2.317-5.245V162.34c0-1.724,0.88-4.238,1.954-5.586l4.729-5.931c1.074-1.348,1.954-3.861,1.954-5.586
	v-22.879c0-1.724,1.411-3.135,3.135-3.135h-21.755c-1.724,0-3.135,1.411-3.135,3.135v22.879c0,1.724-0.88,4.238-1.954,5.586
	l-4.729,5.931c-1.074,1.348-1.954,3.861-1.954,5.586v19.603c0,1.724-1.043,4.085-2.317,5.245l-7.766,7.077
	c-1.275,1.161-2.317,3.521-2.317,5.246V220.9H234.059z"/>
<path style="fill:#E2C3AA;" d="M341.361,276.907v-23.971c0-2.873-2.351-5.224-5.224-5.224H175.869c-2.873,0-5.224,2.351-5.224,5.224
	v23.971H341.361z"/>
<path style="fill:#BFA083;" d="M361.493,498.939c0,2.873-2.351,5.224-5.224,5.224H155.737c-2.873,0-5.224-2.351-5.224-5.224V282.132
	c0-2.873,2.351-5.224,5.224-5.224h200.532c2.873,0,5.224,2.351,5.224,5.224V498.939z"/>
<g style="opacity:0.1;">
	<path d="M164.096,498.939V282.132c0-2.873,2.351-5.224,5.225-5.224h-13.584c-2.873,0-5.224,2.351-5.224,5.224v216.807
		c0,2.873,2.351,5.224,5.224,5.224h13.584C166.447,504.163,164.096,501.812,164.096,498.939z"/>
</g>
<path style="fill:#E2C3AA;" d="M196.685,429v-86.5c0-2.873-2.351-5.224-5.224-5.224h-65.365c-2.873,0-5.224,2.351-5.224,5.224V429
	H196.685z"/>
<path style="opacity:0.1;enable-background:new    ;" d="M134.66,429v-86.5c0-2.873,2.351-5.224,5.224-5.224h-13.787
	c-2.873,0-5.224,2.351-5.224,5.224V429H134.66z"/>
<path style="fill:#BFA083;" d="M208.723,498.939c0,2.873-2.351,5.224-5.225,5.224H114.06c-2.873,0-5.224-2.351-5.224-5.224v-64.715
	c0-2.873,2.351-5.224,5.224-5.224h89.438c2.873,0,5.225,2.351,5.225,5.224V498.939z"/>
<g style="opacity:0.1;">
	<path d="M125.613,498.939v-64.715c0-2.873,2.351-5.224,5.224-5.224H114.06c-2.873,0-5.224,2.351-5.224,5.224v64.715
		c0,2.873,2.351,5.224,5.224,5.224h16.778C127.964,504.163,125.613,501.812,125.613,498.939z"/>
</g>
<path d="M148.581,367.566c0,1.724-1.411,3.135-3.135,3.135h-4.949c-1.724,0-3.135-1.411-3.135-3.135v-11.559
	c0-1.724,1.411-3.135,3.135-3.135h4.949c1.724,0,3.135,1.411,3.135,3.135V367.566z"/>
<path d="M164.389,367.566c0,1.724-1.411,3.135-3.135,3.135h-4.949c-1.724,0-3.135-1.411-3.135-3.135v-11.559
	c0-1.724,1.411-3.135,3.135-3.135h4.949c1.724,0,3.135,1.411,3.135,3.135V367.566z"/>
<path d="M180.195,367.566c0,1.724-1.411,3.135-3.135,3.135h-4.948c-1.724,0-3.135-1.411-3.135-3.135v-11.559
	c0-1.724,1.411-3.135,3.135-3.135h4.948c1.724,0,3.135,1.411,3.135,3.135V367.566z"/>
<path d="M148.581,390.638c0,1.724-1.411,3.135-3.135,3.135h-4.949c-1.724,0-3.135-1.411-3.135-3.135v-11.56
	c0-1.724,1.411-3.135,3.135-3.135h4.949c1.724,0,3.135,1.411,3.135,3.135V390.638z"/>
<path d="M164.389,390.638c0,1.724-1.411,3.135-3.135,3.135h-4.949c-1.724,0-3.135-1.411-3.135-3.135v-11.56
	c0-1.724,1.411-3.135,3.135-3.135h4.949c1.724,0,3.135,1.411,3.135,3.135V390.638z"/>
<path d="M180.195,390.638c0,1.724-1.411,3.135-3.135,3.135h-4.948c-1.724,0-3.135-1.411-3.135-3.135v-11.56
	c0-1.724,1.411-3.135,3.135-3.135h4.948c1.724,0,3.135,1.411,3.135,3.135V390.638z"/>
<path d="M148.581,413.711c0,1.724-1.411,3.135-3.135,3.135h-4.949c-1.724,0-3.135-1.411-3.135-3.135v-11.56
	c0-1.724,1.411-3.135,3.135-3.135h4.949c1.724,0,3.135,1.411,3.135,3.135V413.711z"/>
<path d="M164.389,413.711c0,1.724-1.411,3.135-3.135,3.135h-4.949c-1.724,0-3.135-1.411-3.135-3.135v-11.56
	c0-1.724,1.411-3.135,3.135-3.135h4.949c1.724,0,3.135,1.411,3.135,3.135V413.711z"/>
<path d="M180.195,413.711c0,1.724-1.411,3.135-3.135,3.135h-4.948c-1.724,0-3.135-1.411-3.135-3.135v-11.56
	c0-1.724,1.411-3.135,3.135-3.135h4.948c1.724,0,3.135,1.411,3.135,3.135V413.711z"/>
<path d="M140.078,461.429c0,1.724-1.411,3.135-3.135,3.135h-4.949c-1.724,0-3.135-1.411-3.135-3.135v-11.56
	c0-1.724,1.411-3.135,3.135-3.135h4.949c1.724,0,3.135,1.411,3.135,3.135V461.429z"/>
<path d="M155.885,461.429c0,1.724-1.411,3.135-3.135,3.135h-4.949c-1.724,0-3.135-1.411-3.135-3.135v-11.56
	c0-1.724,1.411-3.135,3.135-3.135h4.949c1.724,0,3.135,1.411,3.135,3.135V461.429z"/>
<path d="M171.691,461.429c0,1.724-1.411,3.135-3.135,3.135h-4.948c-1.724,0-3.135-1.411-3.135-3.135v-11.56
	c0-1.724,1.411-3.135,3.135-3.135h4.948c1.724,0,3.135,1.411,3.135,3.135V461.429z"/>
<path d="M140.078,484.501c0,1.724-1.411,3.135-3.135,3.135h-4.949c-1.724,0-3.135-1.411-3.135-3.135v-11.56
	c0-1.724,1.411-3.135,3.135-3.135h4.949c1.724,0,3.135,1.411,3.135,3.135V484.501z"/>
<path d="M155.885,484.501c0,1.724-1.411,3.135-3.135,3.135h-4.949c-1.724,0-3.135-1.411-3.135-3.135v-11.56
	c0-1.724,1.411-3.135,3.135-3.135h4.949c1.724,0,3.135,1.411,3.135,3.135V484.501z"/>
<path d="M171.691,484.501c0,1.724-1.411,3.135-3.135,3.135h-4.948c-1.724,0-3.135-1.411-3.135-3.135v-11.56
	c0-1.724,1.411-3.135,3.135-3.135h4.948c1.724,0,3.135,1.411,3.135,3.135V484.501z"/>
<path d="M188.699,461.429c0,1.724-1.411,3.135-3.135,3.135h-4.949c-1.724,0-3.135-1.411-3.135-3.135v-11.56
	c0-1.724,1.411-3.135,3.135-3.135h4.949c1.724,0,3.135,1.411,3.135,3.135L188.699,461.429L188.699,461.429z"/>
<path d="M188.699,484.501c0,1.724-1.411,3.135-3.135,3.135h-4.949c-1.724,0-3.135-1.411-3.135-3.135v-11.56
	c0-1.724,1.411-3.135,3.135-3.135h4.949c1.724,0,3.135,1.411,3.135,3.135L188.699,484.501L188.699,484.501z"/>
<path style="fill:#E2C3AA;" d="M391.13,429v-86.5c0-2.873-2.351-5.224-5.224-5.224h-65.364c-2.873,0-5.224,2.351-5.224,5.224V429
	H391.13z"/>
<path style="fill:#BFA083;" d="M403.169,498.939c0,2.873-2.351,5.224-5.224,5.224h-89.438c-2.873,0-5.224-2.351-5.224-5.224v-64.715
	c0-2.873,2.351-5.224,5.224-5.224h89.438c2.873,0,5.224,2.351,5.224,5.224V498.939z"/>
<path d="M343.025,367.566c0,1.724-1.411,3.135-3.135,3.135h-4.947c-1.724,0-3.135-1.411-3.135-3.135v-11.559
	c0-1.724,1.411-3.135,3.135-3.135h4.947c1.724,0,3.135,1.411,3.135,3.135V367.566z"/>
<path d="M358.834,367.566c0,1.724-1.411,3.135-3.135,3.135h-4.949c-1.724,0-3.135-1.411-3.135-3.135v-11.559
	c0-1.724,1.411-3.135,3.135-3.135h4.949c1.724,0,3.135,1.411,3.135,3.135V367.566z"/>
<path d="M374.641,367.566c0,1.724-1.411,3.135-3.135,3.135h-4.95c-1.724,0-3.135-1.411-3.135-3.135v-11.559
	c0-1.724,1.411-3.135,3.135-3.135h4.95c1.724,0,3.135,1.411,3.135,3.135V367.566z"/>
<path d="M343.025,390.638c0,1.724-1.411,3.135-3.135,3.135h-4.947c-1.724,0-3.135-1.411-3.135-3.135v-11.56
	c0-1.724,1.411-3.135,3.135-3.135h4.947c1.724,0,3.135,1.411,3.135,3.135V390.638z"/>
<path d="M358.834,390.638c0,1.724-1.411,3.135-3.135,3.135h-4.949c-1.724,0-3.135-1.411-3.135-3.135v-11.56
	c0-1.724,1.411-3.135,3.135-3.135h4.949c1.724,0,3.135,1.411,3.135,3.135V390.638z"/>
<path d="M374.641,390.638c0,1.724-1.411,3.135-3.135,3.135h-4.95c-1.724,0-3.135-1.411-3.135-3.135v-11.56
	c0-1.724,1.411-3.135,3.135-3.135h4.95c1.724,0,3.135,1.411,3.135,3.135V390.638z"/>
<path d="M343.025,413.711c0,1.724-1.411,3.135-3.135,3.135h-4.947c-1.724,0-3.135-1.411-3.135-3.135v-11.56
	c0-1.724,1.411-3.135,3.135-3.135h4.947c1.724,0,3.135,1.411,3.135,3.135V413.711z"/>
<path d="M358.834,413.711c0,1.724-1.411,3.135-3.135,3.135h-4.949c-1.724,0-3.135-1.411-3.135-3.135v-11.56
	c0-1.724,1.411-3.135,3.135-3.135h4.949c1.724,0,3.135,1.411,3.135,3.135V413.711z"/>
<path d="M374.641,413.711c0,1.724-1.411,3.135-3.135,3.135h-4.95c-1.724,0-3.135-1.411-3.135-3.135v-11.56
	c0-1.724,1.411-3.135,3.135-3.135h4.95c1.724,0,3.135,1.411,3.135,3.135V413.711z"/>
<path d="M334.523,461.429c0,1.724-1.411,3.135-3.135,3.135h-4.948c-1.724,0-3.135-1.411-3.135-3.135v-11.56
	c0-1.724,1.411-3.135,3.135-3.135h4.948c1.724,0,3.135,1.411,3.135,3.135V461.429z"/>
<path d="M350.331,461.429c0,1.724-1.411,3.135-3.135,3.135h-4.95c-1.724,0-3.135-1.411-3.135-3.135v-11.56
	c0-1.724,1.411-3.135,3.135-3.135h4.95c1.724,0,3.135,1.411,3.135,3.135V461.429z"/>
<path d="M366.137,461.429c0,1.724-1.411,3.135-3.135,3.135h-4.948c-1.724,0-3.135-1.411-3.135-3.135v-11.56
	c0-1.724,1.411-3.135,3.135-3.135h4.948c1.724,0,3.135,1.411,3.135,3.135V461.429z"/>
<path d="M334.523,484.501c0,1.724-1.411,3.135-3.135,3.135h-4.948c-1.724,0-3.135-1.411-3.135-3.135v-11.56
	c0-1.724,1.411-3.135,3.135-3.135h4.948c1.724,0,3.135,1.411,3.135,3.135V484.501z"/>
<path d="M350.331,484.501c0,1.724-1.411,3.135-3.135,3.135h-4.95c-1.724,0-3.135-1.411-3.135-3.135v-11.56
	c0-1.724,1.411-3.135,3.135-3.135h4.95c1.724,0,3.135,1.411,3.135,3.135V484.501z"/>
<path d="M366.137,484.501c0,1.724-1.411,3.135-3.135,3.135h-4.948c-1.724,0-3.135-1.411-3.135-3.135v-11.56
	c0-1.724,1.411-3.135,3.135-3.135h4.948c1.724,0,3.135,1.411,3.135,3.135V484.501z"/>
<path d="M383.145,461.429c0,1.724-1.411,3.135-3.135,3.135h-4.949c-1.724,0-3.135-1.411-3.135-3.135v-11.56
	c0-1.724,1.411-3.135,3.135-3.135h4.949c1.724,0,3.135,1.411,3.135,3.135V461.429z"/>
<path d="M383.145,484.501c0,1.724-1.411,3.135-3.135,3.135h-4.949c-1.724,0-3.135-1.411-3.135-3.135v-11.56
	c0-1.724,1.411-3.135,3.135-3.135h4.949c1.724,0,3.135,1.411,3.135,3.135V484.501z"/>
<path d="M222.697,297.289v184.579c0,4.329,3.509,7.837,7.837,7.837c4.328,0,7.837-3.508,7.837-7.837V297.289
	c0-4.328-3.509-7.837-7.837-7.837C226.206,289.452,222.697,292.96,222.697,297.289z"/>
<path d="M248.165,297.289v184.579c0,4.329,3.509,7.837,7.837,7.837c4.329,0,7.837-3.508,7.837-7.837V297.289
	c0-4.328-3.508-7.837-7.837-7.837C251.674,289.452,248.165,292.96,248.165,297.289z"/>
<path d="M273.633,297.289v184.579c0,4.329,3.508,7.837,7.837,7.837s7.837-3.508,7.837-7.837V297.289
	c0-4.328-3.508-7.837-7.837-7.837C277.14,289.452,273.633,292.96,273.633,297.289z"/>
<path d="M398.967,421.215V342.5c0-7.202-5.859-13.061-13.061-13.061H369.33v-4.475c0-4.329-3.508-7.837-7.837-7.837
	s-7.837,3.508-7.837,7.837v4.475h-8.591v-32.15c0-4.328-3.508-7.837-7.837-7.837c-4.328,0-7.837,3.509-7.837,7.837v32.15h-6.237
	v-32.15c0-4.328-3.508-7.837-7.837-7.837c-4.329,0-7.837,3.509-7.837,7.837v123.927c-6.724,0.526-12.037,6.153-12.037,13.009v22.396
	c0,4.329,3.508,7.837,7.837,7.837c4.329,0,7.837-3.508,7.837-7.837v-19.784h84.214v59.49h-84.214v-9.404
	c0-4.329-3.508-7.837-7.837-7.837c-4.329,0-7.837,3.508-7.837,7.837v9.404h-78.886v-62.102c0-6.856-5.313-12.483-12.037-13.009
	V405.42c0-4.329-3.509-7.837-7.837-7.837c-4.328,0-7.837,3.508-7.837,7.837v15.742h-60.14v-76.051h60.14v32.096
	c0,4.329,3.509,7.837,7.837,7.837c4.328,0,7.837-3.508,7.837-7.837v-79.919c0-4.328-3.509-7.837-7.837-7.837
	c-4.328,0-7.837,3.509-7.837,7.837v32.15h-6.237v-32.15c0-4.328-3.509-7.837-7.837-7.837s-7.837,3.509-7.837,7.837v32.15h-8.59
	v-44.694h195.307v10.961c0,4.329,3.508,7.837,7.837,7.837c4.329,0,7.837-3.508,7.837-7.837v-13.574
	c0-7.202-5.859-13.061-13.061-13.061h-7.071v-16.134c0-7.202-5.859-13.061-13.061-13.061h-6.348v-13.75
	c0-7.202-5.859-13.061-13.061-13.061h-9.191v-13.551c0-3.944-1.959-8.381-4.875-11.038l-7.501-6.835
	c-0.009-0.019-0.018-0.038-0.025-0.057v-19.242c0-3.514-1.472-7.723-3.663-10.471l-4.645-5.827
	c-0.124-0.229-0.282-0.679-0.328-0.936V122.36c0-5.455-4.005-9.979-9.225-10.819l-12.31-43.607c-0.306-1.086-0.693-2.004-1.124-2.81
	V7.837C263.837,3.508,260.329,0,256,0c-4.328,0-7.837,3.508-7.837,7.837v57.288c-0.432,0.805-0.818,1.723-1.124,2.809l-12.31,43.607
	c-5.221,0.84-9.227,5.365-9.227,10.819v22.746c-0.045,0.257-0.203,0.707-0.328,0.936l-4.647,5.827
	c-2.191,2.748-3.662,6.956-3.662,10.471v19.242c-0.008,0.02-0.017,0.039-0.025,0.059l-7.498,6.834
	c-2.916,2.657-4.876,7.093-4.876,11.038v13.551h-9.191c-7.202,0-13.061,5.859-13.061,13.061v13.75h-6.347
	c-7.202,0-13.061,5.859-13.061,13.061v16.134h-7.071c-7.202,0-13.061,5.859-13.061,13.061v47.307h-16.578
	c-7.202,0-13.061,5.859-13.061,13.061v78.715c-6.724,0.526-12.037,6.153-12.037,13.009v64.716c0,7.202,5.859,13.061,13.061,13.061
	h283.884c7.202,0,13.061-5.859,13.061-13.061v-64.715C411.005,427.368,405.692,421.741,398.967,421.215z M383.294,421.163h-60.139
	v-76.051h60.139V421.163z M256.002,93.881l4.861,17.219h-9.722L256.002,93.881z M220.141,199.873
	c0.008-0.02,0.017-0.039,0.025-0.059l7.498-6.834c2.916-2.657,4.875-7.093,4.875-11.038v-19.471
	c0.046-0.257,0.203-0.707,0.328-0.936l4.647-5.827c2.191-2.748,3.662-6.956,3.662-10.47v-18.177h6.988v35.942
	c0,4.329,3.509,7.837,7.837,7.837c4.329,0,7.837-3.508,7.837-7.837v-35.942h6.986v18.177c0,3.514,1.472,7.723,3.663,10.47
	l4.645,5.827c0.124,0.229,0.282,0.679,0.327,0.936v19.471c0,3.944,1.959,8.381,4.875,11.038l7.501,6.835
	c0.009,0.019,0.018,0.038,0.025,0.057v13.19h-28.023v-19.917c0-4.329-3.508-7.837-7.837-7.837c-4.328,0-7.837,3.508-7.837,7.837
	v19.917h-28.024V199.873z M197.889,228.737h116.226v11.138h-13.953v-0.206c0-4.329-3.508-7.837-7.837-7.837
	s-7.837,3.508-7.837,7.837v0.206h-8.543v-0.206c0-4.329-3.508-7.837-7.837-7.837c-4.329,0-7.837,3.508-7.837,7.837v0.206h-8.543
	v-0.206c0-4.329-3.509-7.837-7.837-7.837c-4.328,0-7.837,3.508-7.837,7.837v0.206h-8.543v-0.206c0-4.329-3.509-7.837-7.837-7.837
	c-4.328,0-7.837,3.508-7.837,7.837v0.206h-13.951v-11.138H197.889z M178.481,255.548h155.044v13.522h-9.145v-1.55
	c0-4.329-3.509-7.837-7.837-7.837c-4.329,0-7.837,3.508-7.837,7.837v1.55h-8.543v-1.55c0-4.329-3.508-7.837-7.837-7.837
	c-4.329,0-7.837,3.508-7.837,7.837v1.55h-8.543v-1.55c0-4.329-3.508-7.837-7.837-7.837s-7.837,3.508-7.837,7.837v1.55h-8.543v-1.55
	c0-4.329-3.509-7.837-7.837-7.837c-4.328,0-7.837,3.508-7.837,7.837v1.55h-8.543v-1.55c0-4.329-3.509-7.837-7.837-7.837
	c-4.328,0-7.837,3.508-7.837,7.837v1.55h-8.543v-1.55c0-4.329-3.509-7.837-7.837-7.837c-4.328,0-7.837,3.508-7.837,7.837v1.55
	h-9.144v-13.522H178.481z M200.886,496.327h-84.214v-59.49h84.214V496.327z"/>
<g>
</g>
<g>
</g>
<g>
</g>
<g>
</g>
<g>
</g>
<g>
</g>
<g>
</g>
<g>
</g>
<g>
</g>
<g>
</g>
<g>
</g>
<g>
</g>
<g>
</g>
<g>
</g>
<g>
</g>
</svg>
