<?xml version="1.0" encoding="UTF-8" standalone="no"?>
<!-- Created with Inkscape (http://www.inkscape.org/) -->

<svg
   xmlns:dc="http://purl.org/dc/elements/1.1/"
   xmlns:cc="http://creativecommons.org/ns#"
   xmlns:rdf="http://www.w3.org/1999/02/22-rdf-syntax-ns#"
   xmlns:svg="http://www.w3.org/2000/svg"
   xmlns="http://www.w3.org/2000/svg"
   xmlns:sodipodi="http://sodipodi.sourceforge.net/DTD/sodipodi-0.dtd"
   xmlns:inkscape="http://www.inkscape.org/namespaces/inkscape"
   width="256"
   height="256"
   viewBox="0 0 67.733331 67.733331"
   version="1.1"
   id="svg8"
   inkscape:version="0.92.4 (5da689c313, 2019-01-14)"
   sodipodi:docname="newcastle_metro.svg">
  <defs
     id="defs2" />
  <sodipodi:namedview
     id="base"
     pagecolor="#ffffff"
     bordercolor="#666666"
     borderopacity="1.0"
     inkscape:pageopacity="0.0"
     inkscape:pageshadow="2"
     inkscape:zoom="1.979899"
     inkscape:cx="263.97861"
     inkscape:cy="179.92631"
     inkscape:document-units="mm"
     inkscape:current-layer="layer1"
     showgrid="false"
     inkscape:window-width="1920"
     inkscape:window-height="986"
     inkscape:window-x="-11"
     inkscape:window-y="-11"
     inkscape:window-maximized="1"
     units="px" />
  <metadata
     id="metadata5">
    <rdf:RDF>
      <cc:Work
         rdf:about="">
        <dc:format>image/svg+xml</dc:format>
        <dc:type
           rdf:resource="http://purl.org/dc/dcmitype/StillImage" />
        <dc:title></dc:title>
      </cc:Work>
    </rdf:RDF>
  </metadata>
  <g
     inkscape:label="Layer 1"
     inkscape:groupmode="layer"
     id="layer1"
     transform="translate(0,-229.26668)">
    <rect
       style="fill:#fdb827;fill-opacity:1;fill-rule:evenodd;stroke:#000000;stroke-width:2.35332346;stroke-miterlimit:4;stroke-dasharray:none;stroke-opacity:1"
       id="rect843"
       width="54.345242"
       height="48.671333"
       x="6.694046"
       y="230.52621" />
    <rect
       style="fill:#030000;fill-opacity:1;fill-rule:evenodd;stroke:#000000;stroke-width:2.35332346;stroke-miterlimit:4;stroke-dasharray:none;stroke-opacity:1"
       id="rect845"
       width="54.345242"
       height="16.542952"
       x="6.694046"
       y="279.19754" />
    <path
       style="fill:#000000;stroke-width:0.0452877"
       d="m 11.585116,271.23352 v -2.92105 h 1.720935 1.720934 v -13.38252 -13.38252 h -1.720934 -1.720935 v -2.98912 -2.98913 l 7.347934,0.0115 7.347926,0.0115 3.758875,12.41758 c 2.067391,6.82967 3.769649,12.42781 3.782809,12.4403 0.01315,0.0125 1.778463,-5.57541 3.922892,-12.41758 l 3.898967,-12.4403 7.251851,-0.0115 7.251845,-0.0115 v 2.98913 2.98912 H 54.42728 52.706346 v 13.38252 13.38252 h 1.720934 1.720935 v 2.92105 2.92106 h -4.981566 -4.981572 l -0.01141,-13.07349 -0.01134,-13.0735 -4.32498,13.07277 -4.324965,13.07277 -3.369066,-0.0106 -3.369059,-0.0106 -4.601569,-13.08328 -4.601584,-13.08328 -0.01141,13.0946 -0.01134,13.09461 H 16.56678 11.585215 Z"
       id="path826"
       inkscape:connector-curvature="0"
       sodipodi:nodetypes="ccccccccccccscsccccccccccccccccccccccccccac" />
    <text
       xml:space="preserve"
       style="font-style:normal;font-variant:normal;font-weight:normal;font-stretch:normal;font-size:10.58333302px;line-height:1.25;font-family:KaiTi;-inkscape-font-specification:KaiTi;letter-spacing:0px;word-spacing:0px;fill:#000000;fill-opacity:1;stroke:none;stroke-width:0.26458332"
       x="14.612028"
       y="290.98645"
       id="text825" />
    <path
       style="fill:#ffffff;stroke-width:0.04378163"
       d="m 53.224242,291.90537 c 1.628228,-0.33632 2.791952,-1.45338 3.233922,-3.10421 0.10898,-0.40731 0.117174,-0.50035 0.117174,-1.33533 0,-0.835 -0.0082,-0.92804 -0.117174,-1.33535 -0.344721,-1.2876 -1.164257,-2.29709 -2.275389,-2.80275 -1.166291,-0.53077 -2.779851,-0.52248 -3.914924,0.0201 -1.414596,0.67621 -2.217826,1.89449 -2.386909,3.62031 -0.170216,1.73743 0.492691,3.35244 1.742329,4.24475 0.959202,0.68492 2.346226,0.95165 3.600971,0.69247 z M 51.50177,290.1423 c -0.777677,-0.22277 -1.374295,-0.83755 -1.641406,-1.69139 -0.135747,-0.43386 -0.166625,-1.19554 -0.06842,-1.68815 0.104064,-0.522 0.363199,-1.0295 0.699275,-1.36914 0.468478,-0.47346 1.008271,-0.68604 1.742029,-0.68604 0.741324,0 1.237511,0.19603 1.727115,0.68231 0.537594,0.53394 0.776258,1.1722 0.776258,2.07594 0,0.90373 -0.238664,1.54198 -0.776258,2.07592 -0.498823,0.49545 -0.987799,0.68465 -1.75533,0.6792 -0.276247,-0.001 -0.537526,-0.0311 -0.703222,-0.0787 z m -38.450515,-1.65856 0.0112,-3.31645 1.096902,3.30551 1.096902,3.30551 0.725463,0.0123 0.725463,0.0123 0.438674,-1.28163 c 0.24127,-0.70492 0.751073,-2.19367 1.132894,-3.30834 l 0.694222,-2.0267 0.0112,3.30816 0.0112,3.30816 0.951975,-0.0123 0.951975,-0.0123 0.0112,-4.32344 0.0112,-4.32343 h -1.439288 -1.439289 l -0.446174,1.25871 c -1.313438,3.70541 -1.55945,4.38218 -1.582785,4.35414 -0.01405,-0.0169 -0.454899,-1.2522 -0.979669,-2.74516 -0.524769,-1.49295 -0.972053,-2.74894 -0.993963,-2.79108 -0.03669,-0.0706 -0.151885,-0.0766 -1.461199,-0.0766 h -1.421363 v 4.33438 4.33438 h 0.94103 0.94103 z m 16.451226,2.41893 v -0.89751 h -2.079635 -2.07962 v -0.87564 -0.87563 h 1.860718 1.860718 v -0.87563 -0.87563 h -1.860718 -1.860718 v -0.78808 -0.78807 h 1.970162 1.970177 v -0.89783 -0.89782 l -2.922427,0.0109 -2.922414,0.0109 -0.01093,4.26871 c -0.0068,2.34778 -0.0014,4.29334 0.0096,4.32343 0.01639,0.043 0.665638,0.0548 3.043165,0.0548 h 3.022312 z m 5.822949,-2.58311 v -3.48064 h 1.225889 1.225889 v -0.85373 -0.85375 H 34.36224 30.947272 v 0.85375 0.85373 h 1.225889 1.225876 v 3.45146 c 0,1.8983 0.01366,3.46458 0.02922,3.48064 0.01598,0.0161 0.449481,0.0292 0.96319,0.0292 h 0.934005 z m 5.998081,1.74983 v -1.73081 l 0.486286,0.0123 0.486286,0.0123 0.897529,1.71843 0.897515,1.71843 h 1.133638 c 0.623494,0 1.133639,-0.008 1.133639,-0.0195 0,-0.0109 -0.490342,-0.83168 -1.089637,-1.82423 l -1.089637,-1.80463 0.342782,-0.11499 c 0.18853,-0.0632 0.454739,-0.19212 0.591579,-0.28637 0.771518,-0.53136 1.110695,-1.68543 0.823509,-2.802 -0.208359,-0.81006 -0.825367,-1.3816 -1.768262,-1.63794 -0.516495,-0.14042 -1.16397,-0.17893 -3.009407,-0.17895 l -1.718429,-5e-5 v 4.33439 4.33438 h 0.941311 0.941298 z m 0.0096,-4.3177 0.01229,-0.97843 0.91942,0.004 c 0.837549,0.004 0.941517,0.0123 1.167753,0.10038 0.29512,0.11458 0.543316,0.36649 0.586184,0.59502 0.04985,0.26547 9.43e-4,0.66836 -0.0971,0.80072 -0.112257,0.1516 -0.331187,0.30139 -0.535258,0.36627 -0.08931,0.0284 -0.574208,0.0591 -1.111487,0.0705 l -0.953098,0.0201 0.01229,-0.97844 z"
       id="path838"
       inkscape:connector-curvature="0"
       sodipodi:nodetypes="ccscccccccccscscscccccccccccccccccccccscccsccccccccccccccccccccccccccccsccccccccccccccscsccccccccsscccccccccccccccccccccccc" />
  </g>
</svg>
