<?xml version="1.0" encoding="UTF-8" standalone="no"?>
<!-- Generator: Adobe Illustrator 19.0.0, SVG Export Plug-In . SVG Version: 6.00 Build 0)  -->

<svg
   xmlns:dc="http://purl.org/dc/elements/1.1/"
   xmlns:cc="http://creativecommons.org/ns#"
   xmlns:rdf="http://www.w3.org/1999/02/22-rdf-syntax-ns#"
   xmlns:svg="http://www.w3.org/2000/svg"
   xmlns="http://www.w3.org/2000/svg"
   xmlns:sodipodi="http://sodipodi.sourceforge.net/DTD/sodipodi-0.dtd"
   xmlns:inkscape="http://www.inkscape.org/namespaces/inkscape"
   version="1.1"
   id="Layer_1"
   x="0px"
   y="0px"
   viewBox="0 0 511.999 511.999"
   style="enable-background:new 0 0 511.999 511.999;"
   xml:space="preserve"
   sodipodi:docname="newcastle_bridges.svg"
   inkscape:version="0.92.4 (5da689c313, 2019-01-14)"><metadata
   id="metadata93"><rdf:RDF><cc:Work
       rdf:about=""><dc:format>image/svg+xml</dc:format><dc:type
         rdf:resource="http://purl.org/dc/dcmitype/StillImage" /></cc:Work></rdf:RDF></metadata><defs
   id="defs91" /><sodipodi:namedview
   pagecolor="#ffffff"
   bordercolor="#666666"
   borderopacity="1"
   objecttolerance="10"
   gridtolerance="10"
   guidetolerance="10"
   inkscape:pageopacity="0"
   inkscape:pageshadow="2"
   inkscape:window-width="1920"
   inkscape:window-height="986"
   id="namedview89"
   showgrid="false"
   inkscape:zoom="0.92187682"
   inkscape:cx="416.56023"
   inkscape:cy="180.52114"
   inkscape:window-x="-11"
   inkscape:window-y="-11"
   inkscape:window-maximized="1"
   inkscape:current-layer="Layer_1" />







<g
   id="g916"
   transform="matrix(1.0090028,0,0,1.6602453,-731.25856,-377.64354)"><g
     id="g911"><rect
       x="722.84686"
       y="375.56509"
       style="fill:#36a9e1"
       width="511.189"
       height="143.772"
       id="rect14" /></g><polyline
     transform="translate(722.54186,39.771076)"
     id="polyline16"
     points="511.498,335.79 511.498,479.563 0.305,479.563 "
     style="fill:#297fa9" /></g><g
   id="g58"
   transform="translate(-0.00596735,11.843978)">
</g>
<g
   id="g60"
   transform="translate(-0.00596735,11.843978)">
</g>
<g
   id="g62"
   transform="translate(-0.00596735,11.843978)">
</g>
<g
   id="g64"
   transform="translate(-0.00596735,11.843978)">
</g>
<g
   id="g66"
   transform="translate(-0.00596735,11.843978)">
</g>
<g
   id="g68"
   transform="translate(-0.00596735,11.843978)">
</g>
<g
   id="g70"
   transform="translate(-0.00596735,11.843978)">
</g>
<g
   id="g72"
   transform="translate(-0.00596735,11.843978)">
</g>
<g
   id="g74"
   transform="translate(-0.00596735,11.843978)">
</g>
<g
   id="g76"
   transform="translate(-0.00596735,11.843978)">
</g>
<g
   id="g78"
   transform="translate(-0.00596735,11.843978)">
</g>
<g
   id="g80"
   transform="translate(-0.00596735,11.843978)">
</g>
<g
   id="g82"
   transform="translate(-0.00596735,11.843978)">
</g>
<g
   id="g84"
   transform="translate(-0.00596735,11.843978)">
</g>
<g
   id="g86"
   transform="translate(-0.00596735,11.843978)">
</g>
<g
   id="g968"
   transform="matrix(0.99072694,0,0,0.99072694,-676.99774,7.6777082)"><path
     inkscape:connector-curvature="0"
     id="path959"
     d="m 1142.7382,332.89612 c -1.5414,-0.70532 -6.5859,-4.78403 -11.2101,-9.06381 -5.0151,-4.64165 -10.5749,-8.86403 -13.7791,-10.46454 -3.1389,-1.56795 -5.3769,-3.25648 -5.3847,-4.06261 -0.023,-2.40574 9.3785,-103.80818 9.8871,-106.64034 l 0.4867,-2.70969 h 26.0573 26.0573 l 0.5255,3.54344 c 0.5519,3.72151 9.8648,103.70733 9.8648,105.91158 0,0.70097 -2.4172,2.4877 -5.3715,3.97051 -3.1204,1.56615 -9.182,6.14832 -14.464,10.93365 -5.0008,4.53071 -10.1779,8.60593 -11.5045,9.05606 -3.4949,1.18594 -7.9503,0.99669 -11.1648,-0.47425 z"
     style="fill:#d3bc5f;stroke:none;stroke-width:0.88253361" /><path
     inkscape:connector-curvature="0"
     id="path961"
     d="m 729.12113,334.87892 c -0.92951,-0.51187 -5.87281,-4.92991 -10.98511,-9.81789 -5.44816,-5.20909 -10.96371,-9.67867 -13.32684,-10.79954 l -4.03175,-1.91231 0.46704,-3.8774 c 0.55198,-4.58266 8.86397,-103.49832 8.86397,-105.48447 0,-1.22815 2.36485,-1.36188 24.08274,-1.36188 24.02149,0 24.08275,0.004 24.08275,1.77876 0,2.22095 8.2352,100.74502 8.81869,105.50492 0.42355,3.45509 0.39707,3.49501 -3.56223,5.37283 -2.31957,1.10012 -7.87892,5.61531 -13.28404,10.78903 -5.1123,4.89343 -10.12567,9.32289 -11.14081,9.84323 -2.33923,1.19903 -7.77783,1.17981 -9.98441,-0.0352 z"
     style="fill:#d3bc5f;fill-opacity:1;stroke:none;stroke-width:0.83936399" /><rect
     y="244.61002"
     x="778.74487"
     height="25.308716"
     width="326.0788"
     id="rect957"
     style="fill:#708978;fill-opacity:0.86666667;fill-rule:evenodd" /><path
     sodipodi:nodetypes="scsccccscscscscssscscscscsccccccsssccccscscccsccscccscscscscccccscccscccccccccccccccccccccccssscccscccscccccccccccssscccscac"
     id="path4"
     d="m 693.89977,327.28059 c 5.28122,0 8.00841,2.74292 13.19126,8.44916 5.76921,6.35559 13.67138,15.05662 28.11407,15.05662 14.44664,0 22.34881,-8.70103 28.11802,-15.05662 5.15529,-5.67477 7.87855,-8.41769 13.10074,-8.44916 h 0.15742 c 5.234,0.0236 7.95725,2.77048 13.11649,8.44916 5.76921,6.35559 13.67138,15.05662 28.11409,15.05662 14.44662,0 22.34878,-8.70103 28.11799,-15.05662 5.18284,-5.70624 7.9061,-8.44916 13.18733,-8.44916 5.28121,0 8.00448,2.74292 13.18727,8.44916 5.7693,6.35164 13.67148,15.05662 28.11811,15.05662 14.44268,0 22.34485,-8.70103 28.11404,-15.05662 5.18289,-5.70624 7.90603,-8.44916 13.18737,-8.44916 5.28123,0 8.00449,2.74292 13.18725,8.44916 5.77316,6.35164 13.67533,15.05662 28.11801,15.05662 5.56853,0 10.08229,-4.51384 10.08229,-10.08233 0,-5.56852 -4.51376,-10.08629 -10.08229,-10.08629 -5.28124,0 -8.00449,-2.74293 -13.18726,-8.44918 -5.7693,-6.35164 -13.67533,-15.0566 -28.118,-15.0566 -14.44279,0 -22.34496,8.70496 -28.11812,15.0566 -5.1788,5.70625 -7.90205,8.44918 -13.18329,8.44918 -5.28122,0 -8.00844,-2.74293 -13.18736,-8.44918 -5.77316,-6.35164 -13.67533,-15.0566 -28.11802,-15.0566 -14.4427,0 -22.3488,8.70496 -28.118,15.0566 -5.17892,5.70625 -7.90611,8.44918 -13.18732,8.44918 -5.28125,0 -8.0045,-2.74293 -13.18736,-8.44918 -4.37609,-4.81686 -9.97608,-10.98354 -18.72433,-13.68318 l -1.79452,-21.53812 h 315.23265 l -1.7946,21.53812 c -8.7483,2.69964 -14.3482,8.86632 -18.7243,13.68318 -5.1789,5.70625 -7.9061,8.44918 -13.1834,8.44918 -5.5724,0 -10.0863,4.51777 -10.0863,10.08629 0,5.56849 4.5139,10.08233 10.0863,10.08233 14.4426,0 22.3448,-8.70498 28.114,-15.05662 5.1592,-5.67868 7.8825,-8.42162 13.1164,-8.44916 h 0.1537 c 5.226,0.0314 7.9493,2.77439 13.1046,8.44916 5.7692,6.35559 13.6714,15.05662 28.1141,15.05662 14.4466,0 22.3488,-8.70498 28.118,-15.05662 5.1829,-5.70624 7.9061,-8.44916 13.1873,-8.44916 2.8216,0 5.5096,-1.18062 7.4221,-3.25453 1.9085,-2.07786 2.861,-4.85621 2.6288,-7.66606 l -10.0863,-121.01172 c -0.4368,-5.22613 -4.8051,-9.24806 -10.047,-9.24806 H 1152.363 C 1141.3874,140.3204 1115.5991,99.011142 1079.1145,69.075002 1040.4852,37.375829 991.69093,19.922595 941.72001,19.922595 c -42.98179,0 -84.57837,12.616704 -120.29159,36.480606 -4.63189,3.097109 -5.02323,10.306179 -1.93007,14.938079 3.09711,4.62796 8.50602,4.927522 13.13399,1.830402 32.38785,-21.640428 70.10812,-33.080471 109.09163,-33.080471 89.23763,0 167.17713,60.702639 189.84473,146.009009 h -14.549 c -2.1684,0 -4.1793,0.69655 -5.8322,1.87323 -21.1367,-73.65778 -89.104,-127.717555 -169.46749,-127.717555 -80.35968,0 -148.32694,54.059775 -169.45974,127.717555 -1.65284,-1.17273 -3.66774,-1.86929 -5.8361,-1.86929 h -14.54503 c 5.53703,-20.93995 14.40728,-40.63239 26.47304,-58.68381 3.09712,-4.62796 3.98745,-13.08135 -0.64444,-16.17453 -4.62795,-3.0971 -11.10937,-1.9663 -14.20255,2.6656 -14.30102,21.38857 -26.45046,47.17185 -32.42038,72.19274 h -27.09876 c -5.24581,0 -9.61405,4.01799 -10.05085,9.24805 L 683.85285,316.36 c -0.23219,2.80985 0.72016,5.59213 2.6288,7.66606 1.90864,2.07391 4.60042,3.25453 7.41812,3.25453 z M 785.9592,226.44141 c 1.75516,-27.35456 10.5782,-52.81228 24.6667,-74.5629 v 74.5629 z m -3.53394,40.33724 -1.68038,-20.16863 h 321.95802 l -1.6804,20.16863 z M 951.80627,226.44141 V 80.762962 c 14.02552,0.89726 27.55527,3.64806 40.34123,8.02415 V 226.44141 Z m -20.16472,0 H 891.30044 V 88.787112 c 12.78584,-4.37609 26.31559,-7.12689 40.34111,-8.02808 z m 141.18035,0 v -74.5629 c 14.0885,21.75062 22.9115,47.20834 24.6667,74.5629 z m 71.21,-20.16862 c 0.075,0 0.1456,0.009 0.2243,0.009 0.066,0 0.1338,-0.009 0.1968,-0.009 h 25.7292 l 8.5594,102.68484 c -7.9494,2.90035 -13.1794,8.65775 -17.3116,13.21094 -5.1828,5.70625 -7.906,8.44918 -13.1873,8.44918 -5.2812,0 -8.0044,-2.74293 -13.1873,-8.44524 -4.136,-4.55319 -9.3661,-10.31453 -17.3115,-13.21488 l 8.5594,-102.68484 z m -91.3786,-79.45848 v 99.6271 h -40.3412 V 97.322872 c 15.0054,7.638498 28.6099,17.634268 40.3412,29.491438 z M 871.13571,97.322872 V 226.44141 h -40.34119 v -99.6271 c 11.73126,-11.85717 25.33572,-21.85294 40.34119,-29.491438 z M 713.26559,206.27279 h 25.72532 c 0.067,0 0.1338,0.009 0.2007,0.009 0.0748,0 0.14955,-0.009 0.22431,-0.009 h 17.72871 l 8.55937,102.68484 c -7.94546,2.90035 -13.17552,8.66169 -17.31157,13.21094 -5.18284,5.70625 -7.90609,8.44918 -13.18733,8.44918 -5.28122,0 -8.00448,-2.74293 -13.18732,-8.44918 -4.13604,-4.54925 -9.3661,-10.31059 -17.31156,-13.21094 z"
     inkscape:connector-curvature="0"
     style="stroke-width:1.00744724" /><path
     sodipodi:nodetypes="ccsscscssssccccccsssscc"
     inkscape:connector-curvature="0"
     id="path955"
     d="m 770.71716,186.84063 c -0.91698,-0.50825 -3.79394,-0.72392 -9.83831,-0.73751 -4.69829,-0.0106 -8.54235,-0.23237 -8.54235,-0.49287 0,-1.32545 4.25697,-14.28239 6.88309,-20.95004 3.61777,-9.18545 11.39435,-24.64111 16.02956,-31.85819 1.86581,-2.90508 8.36452,-12.57188 14.44157,-21.48178 l 13.04918,-14.19981 9.45925,-9.707363 c 5.30088,-5.43992 14.51008,-9.782718 18.23889,-12.319263 39.86456,-27.118123 85.87125,-38.715765 132.82864,-33.48424 62.59122,6.97329 118.37492,43.976817 149.68262,99.290336 6.2078,10.96776 12.9518,26.83064 16.5317,38.88499 l 1.8563,6.25053 -9.0262,0.20275 c -4.9644,0.11152 -9.4761,0.30547 -10.0261,0.43102 -0.8461,0.19315 -1.3934,-0.8981 -3.5575,-7.09376 -6.5659,-18.79814 -14.2834,-33.31091 -26.1017,-49.08465 -29.2293,-39.011618 -73.2064,-64.054033 -121.85951,-69.391785 -8.92469,-0.979133 -27.00923,-1.116157 -35.72576,-0.270689 -40.49866,3.928205 -77.36955,21.091864 -106.45689,49.556424 -20.48764,20.04899 -34.94817,42.89824 -43.95,69.4459 l -2.62053,7.72829 z"
     style="fill:#708978;fill-opacity:0.86666667;stroke:none;stroke-width:0.54237181" /></g><polygon
   style="fill:#fac15c;stroke:#000000;stroke-width:1.08694565;stroke-miterlimit:4;stroke-dasharray:none;stroke-opacity:1"
   points="204.554,255.916 231.94,303.84 231.94,335.79 279.863,335.79 279.863,303.84 307.249,255.916 372.289,255.916 399.675,303.84 399.675,335.79 447.598,335.79 447.598,303.84 474.984,255.916 511.498,255.916 511.498,215.979 0.305,215.979 0.305,255.916 36.819,255.916 64.205,303.84 64.205,335.79 112.128,335.79 112.128,303.84 139.514,255.916 "
   id="polygon10"
   transform="matrix(1.0103545,0,0,0.95487237,-2.6567417,117.36871)" /><rect
   x="-2.3823733"
   y="356.64703"
   style="fill:#cbbba0;stroke:#000000;stroke-width:1;stroke-miterlimit:4;stroke-dasharray:none;stroke-opacity:1"
   width="516.54968"
   height="33.391392"
   id="rect12" /><g
   id="g42"
   transform="matrix(1.0104868,0,0,1.0104868,-2.6905864,69.022841)"
   style="stroke:#000000;stroke-width:0.98962206;stroke-miterlimit:4;stroke-dasharray:none;stroke-opacity:1">
	<path
   style="fill:#1d1d1b;stroke:#000000;stroke-width:0.98962206;stroke-miterlimit:4;stroke-dasharray:none;stroke-opacity:1"
   d="m 451.429,351.83576 c 0,-30.839 25.024,-55.943 55.831,-56.074 l 3.735,0.24 1.004,-15.617 -3.994,-0.257 -0.502,-0.017 c -39.548,0 -71.723,32.175 -71.723,71.723 v 8.151 h -24.288 v -8.151 c 0,-39.548 -32.175,-71.723 -71.723,-71.723 -39.548,0 -71.723,32.175 -71.723,71.723 v 8.151 h -24.288 v -8.151 c 0,-39.548 -32.175,-71.723 -71.723,-71.723 -39.548,0 -71.723,32.175 -71.723,71.723 v 8.151 H 76.023 v -8.151 c 0,-39.495 -32.091,-71.637 -71.566,-71.723 l -3.847,-0.15 -0.61,15.639 3.994,0.155 0.305,0.006 c 30.919,0 56.074,25.155 56.074,56.074 v 18.04722 l 15.143274,-9.89622 c 243.452996,-0.001 119.297696,-0.001 362.749696,0 l 13.16403,9.89622 v -18.04622 z m -167.735,0 c 0,-30.919 25.155,-56.074 56.074,-56.074 30.92,0 56.074,25.155 56.074,56.074 v 8.151 H 283.694 Z m -167.735,0 c 0,-30.919 25.155,-56.074 56.074,-56.074 30.919,0 56.074,25.155 56.074,56.074 v 8.151 H 115.959 Z"
   id="path18"
   inkscape:connector-curvature="0"
   sodipodi:nodetypes="ccccccsccsssccsssccscccccsccccccsssccsssscss" />
	
	
	<rect
   x="0.30500001"
   y="313.61191"
   style="fill:#1d1d1b;stroke:#000000;stroke-width:0.98962206;stroke-miterlimit:4;stroke-dasharray:none;stroke-opacity:1"
   width="511.189"
   height="15.649"
   id="rect24" />
	
	
	
	
	
	
	
	
<rect
   x="0.30500001"
   y="240.75186"
   style="fill:#1d1d1b;stroke:#000000;stroke-width:0.98962206;stroke-miterlimit:4;stroke-dasharray:none;stroke-opacity:1"
   width="511.189"
   height="15.649"
   id="rect24-0" /><rect
   x="0.81001228"
   y="268.50928"
   style="fill:#1d1d1b;stroke:#000000;stroke-width:0.98962206;stroke-miterlimit:4;stroke-dasharray:none;stroke-opacity:1"
   width="511.189"
   height="15.649"
   id="rect24-0-1" /></g><path
   style="stroke-width:0.99905586"
   inkscape:connector-curvature="0"
   d="m 503.44465,421.06734 c -14.43302,0 -22.32777,8.56476 -28.09153,14.82079 -5.17799,5.61687 -7.89877,8.31684 -13.17496,8.31684 -5.27629,0 -7.99697,-2.69997 -13.17486,-8.31684 -5.76375,-6.25603 -13.66243,-14.82079 -28.09155,-14.82079 -14.42912,0 -22.32387,8.56476 -28.08763,14.82079 -5.17799,5.61687 -7.89869,8.31684 -13.1749,8.31684 -5.27629,0 -8.00088,-2.69997 -13.1749,-8.31684 -5.76384,-6.25603 -13.66246,-14.82079 -28.09154,-14.82079 -14.42909,0 -22.32386,8.56476 -28.0876,14.82079 -5.17796,5.61687 -7.8987,8.31684 -13.17491,8.31684 -5.27628,0 -8.00087,-2.69997 -13.17491,-8.31684 -5.76777,-6.25603 -13.66245,-14.82079 -28.09154,-14.82079 -14.42915,0 -22.32384,8.56476 -28.0916,14.82079 -5.17404,5.61687 -7.89863,8.31684 -13.17491,8.31684 -5.27621,0 -7.99688,-2.69997 -13.17484,-8.31684 -5.76382,-6.25603 -13.65852,-14.82079 -28.08767,-14.82079 -14.4291,0 -22.32378,8.56476 -28.09154,14.82079 -5.17402,5.61687 -7.89861,8.31684 -13.1749,8.31684 -5.27622,0 -7.99695,-2.69997 -13.17491,-8.31684 -5.76376,-6.25603 -13.65844,-14.82079 -28.087602,-14.82079 -14.433017,0 -22.327701,8.56476 -28.091529,14.82079 -5.177963,5.61687 -7.89863,8.31684 -13.17491,8.31684 -5.276208,0 -7.996947,-2.69997 -13.174911,-8.31684 -5.763756,-6.25603 -13.658511,-14.82079 -28.0915382,-14.82079 -5.5632367,0 -10.0728124,4.44315 -10.0728124,9.92443 0,5.48129 4.5095757,9.92831 10.0728124,9.92831 5.2762912,0 8.0008842,2.69995 13.1749102,8.31295 5.767692,6.25603 13.662448,14.82079 28.091539,14.82079 14.42908,0 22.323846,-8.56476 28.091528,-14.82079 5.174027,-5.613 7.898702,-8.31295 13.174911,-8.31295 5.272354,0 7.996947,2.69995 13.170972,8.31295 5.76776,6.25603 13.66245,14.82079 28.09154,14.82079 14.42915,0 22.32383,-8.56476 28.09154,-14.82079 5.17401,-5.613 7.89869,-8.31295 13.1749,-8.31295 5.27629,0 7.99694,2.69995 13.17491,8.31295 5.76382,6.25603 13.65852,14.82079 28.0876,14.82079 14.42916,0 22.32778,-8.56476 28.09161,-14.82079 5.17403,-5.613 7.89862,-8.31295 13.1749,-8.31295 5.27622,0 7.99695,2.69995 13.17492,8.31295 5.76375,6.25603 13.65843,14.82079 28.08759,14.82079 14.42909,0 22.32378,-8.56476 28.09154,-14.82079 5.17796,-5.613 7.89862,-8.31295 13.17491,-8.31295 5.27621,0 7.99695,2.69995 13.1749,8.31295 5.76376,6.25603 13.65852,14.82079 28.08761,14.82079 14.42907,0 22.32775,-8.56476 28.0915,-14.82079 5.17799,-5.613 7.89867,-8.31295 13.17496,-8.31295 5.27619,0 7.99697,2.69995 13.17486,8.31295 5.76376,6.25603 13.65851,14.82079 28.08763,14.82079 14.43304,0 22.3278,-8.56476 28.09155,-14.82079 5.178,-5.613 7.89857,-8.31295 13.17484,-8.31295 5.56325,0 10.07285,-4.44702 10.07285,-9.92831 0,-5.48128 -4.50558,-9.92443 -10.06883,-9.92443 z m 0,0"
   id="path2" /><rect
   style="fill:#1d1d1b;fill-opacity:1;fill-rule:evenodd;stroke:#000000;stroke-width:1;stroke-miterlimit:4;stroke-dasharray:none;stroke-opacity:1"
   id="rect1006"
   width="13.806532"
   height="32.982273"
   x="100.97446"
   y="358.21597" /><rect
   style="fill:#1d1d1b;fill-opacity:1;fill-rule:evenodd;stroke:#000000;stroke-width:1;stroke-miterlimit:4;stroke-dasharray:none;stroke-opacity:1"
   id="rect1006-9"
   width="13.806532"
   height="32.982273"
   x="56.754223"
   y="356.44046" /><rect
   style="fill:#1d1d1b;fill-opacity:1;fill-rule:evenodd;stroke:#000000;stroke-width:1;stroke-miterlimit:4;stroke-dasharray:none;stroke-opacity:1"
   id="rect1006-9-1"
   width="13.806532"
   height="32.982273"
   x="226.75423"
   y="356.71292" /><rect
   style="fill:#1d1d1b;fill-opacity:1;fill-rule:evenodd;stroke:#000000;stroke-width:1;stroke-miterlimit:4;stroke-dasharray:none;stroke-opacity:1"
   id="rect1006-9-1-6"
   width="13.806532"
   height="32.982273"
   x="270.75421"
   y="356.71292" /><rect
   style="fill:#1d1d1b;fill-opacity:1;fill-rule:evenodd;stroke:#000000;stroke-width:1;stroke-miterlimit:4;stroke-dasharray:none;stroke-opacity:1"
   id="rect1006-9-1-6-1"
   width="13.806532"
   height="32.982273"
   x="397.22141"
   y="357.01404" /><rect
   style="fill:#1d1d1b;fill-opacity:1;fill-rule:evenodd;stroke:#000000;stroke-width:1;stroke-miterlimit:4;stroke-dasharray:none;stroke-opacity:1"
   id="rect1006-9-1-6-1-3"
   width="13.806532"
   height="32.982273"
   x="439.22141"
   y="357.01404" /></svg>