<?xml version="1.0" encoding="iso-8859-1"?>
<!-- Generator: Adobe Illustrator 19.0.0, SVG Export Plug-In . SVG Version: 6.00 Build 0)  -->
<svg version="1.1" id="Capa_1" xmlns="http://www.w3.org/2000/svg" xmlns:xlink="http://www.w3.org/1999/xlink" x="0px" y="0px"
	 viewBox="0 0 512 512" style="enable-background:new 0 0 512 512;" xml:space="preserve">
<polygon style="fill:#E9B875;" points="331.516,383.622 331.516,308.106 180.484,308.106 180.484,383.622 9.314,383.622 
	9.314,474.242 502.686,474.242 502.686,383.622 "/>
<rect x="9.314" y="454.104" style="fill:#DA9D4F;" width="493.373" height="20.138"/>
<rect x="180.484" y="162.108" style="fill:#BF8D56;" width="151.032" height="145.998"/>
<rect x="9.314" y="474.242" style="fill:#FDD844;" width="216.48" height="30.206"/>
<polygon style="fill:#616161;" points="180.484,383.622 9.314,383.622 39.52,333.278 180.484,333.278 "/>
<g>
	<path style="fill:#00E5FF;" d="M225.794,282.934L225.794,282.934c-8.341,0-15.103,6.762-15.103,15.103v35.241h30.206v-35.241
		C240.897,289.696,234.135,282.934,225.794,282.934z"/>
	<path style="fill:#00E5FF;" d="M286.207,282.934L286.207,282.934c-8.341,0-15.103,6.762-15.103,15.103v35.241h30.207v-35.241
		C301.31,289.696,294.548,282.934,286.207,282.934z"/>
</g>
<circle style="fill:#D8D7DA;" cx="256" cy="207.418" r="15.103"/>
<g>
	<path style="fill:#81C784;" d="M311.379,152.039c0-30.585-24.793-55.379-55.379-55.379s-55.379,24.793-55.379,55.379v10.069
		h110.757V152.039z"/>
	<path style="fill:#81C784;" d="M271.103,53.365h-30.206V36.248c0-8.341,6.762-15.103,15.103-15.103l0,0
		c8.341,0,15.103,6.762,15.103,15.103V53.365z"/>
	<path style="fill:#81C784;" d="M256,96.661c9.173,0,17.765,2.466,25.172,6.752V53.365h-50.344v50.048
		C238.235,99.127,246.827,96.661,256,96.661z"/>
</g>
<g>
	<path style="fill:#00E5FF;" d="M394.346,153.046c-10.009,0-18.124-8.114-18.124-18.124s8.114-18.124,18.124-18.124
		c0.202,0,0.399,0.024,0.6,0.03c2.787-13.802,14.982-24.195,29.606-24.195c10.577,0,19.878,5.44,25.274,13.67
		c2.663-1.01,5.54-1.588,8.557-1.588c13.346,0,24.165,10.819,24.165,24.165c0,13.346-10.819,24.165-24.165,24.165H394.346z"/>
	<path style="fill:#00E5FF;" d="M33.479,102.702c-13.346,0-24.165-10.819-24.165-24.165s10.819-24.165,24.165-24.165
		c0.27,0,0.533,0.031,0.8,0.04c3.716-18.403,19.976-32.261,39.475-32.261c14.102,0,26.504,7.254,33.698,18.228
		c3.551-1.347,7.386-2.117,11.41-2.117c17.795,0,32.22,14.426,32.22,32.22s-14.426,32.22-32.22,32.22H33.479z"/>
</g>
<path style="fill:#998061;" d="M286.207,504.448h-60.413v-60.413c0-16.683,13.523-30.206,30.206-30.206l0,0
	c16.683,0,30.207,13.523,30.207,30.206V504.448z"/>
<path style="fill:#00E5FF;" d="M276.138,393.691c0,11.122-9.016,20.138-20.138,20.138c-11.122,0-20.138-9.016-20.138-20.138
	c0-11.122,20.138-30.206,20.138-30.206S276.138,382.569,276.138,393.691z"/>
<rect x="286.207" y="474.242" style="fill:#FDD844;" width="216.48" height="30.206"/>
<polygon style="fill:#616161;" points="331.516,383.622 502.686,383.622 472.48,333.278 331.516,333.278 "/>
<g>
	<rect x="9.314" y="489.345" style="fill:#FDAB08;" width="216.48" height="15.103"/>
	<rect x="286.207" y="489.345" style="fill:#FDAB08;" width="216.48" height="15.103"/>
</g>
<path style="fill:#8E6D48;" d="M256,413.829L256,413.829c-16.683,0-30.206,13.523-30.206,30.206v20.138
	c0-16.683,13.523-30.206,30.206-30.206l0,0c16.682,0,30.207,13.523,30.207,30.206v-20.138
	C286.207,427.352,272.683,413.829,256,413.829z"/>
<g>
	<polygon style="fill:#424242;" points="9.314,383.622 180.484,383.622 180.484,363.485 21.396,363.485 	"/>
	<polygon style="fill:#424242;" points="331.516,363.485 331.516,383.622 502.686,383.622 490.604,363.485 	"/>
</g>
<g>
	<path style="fill:#4CAF50;" d="M281.172,103.413v-22.56c-7.879-2.794-16.348-4.33-25.172-4.33c-8.824,0-17.293,1.535-25.172,4.33
		v22.559c7.407-4.286,15.999-6.752,25.172-6.752S273.765,99.127,281.172,103.413z"/>
	<path style="fill:#4CAF50;" d="M201.552,141.971c-0.6,3.267-0.93,6.628-0.93,10.069v10.069h110.757v-10.069
		c0-3.441-0.329-6.801-0.93-10.069H201.552z"/>
	<rect x="240.897" y="37.255" style="fill:#4CAF50;" width="30.206" height="16.11"/>
</g>
<g>
	<path style="fill:#40C4FF;" d="M458.383,132.909h-64.038c-6.283,0-11.816-3.199-15.068-8.055
		c-1.928,2.881-3.056,6.342-3.056,10.069c0,10.009,8.114,18.124,18.124,18.124h64.038c13.346,0,24.165-10.819,24.165-24.165
		c0-3.595-0.79-7.003-2.199-10.069C476.532,127.129,468.135,132.909,458.383,132.909z"/>
	<path style="fill:#40C4FF;" d="M118.863,82.564H33.479c-9.752,0-18.148-5.78-21.966-14.096c-1.408,3.066-2.199,6.474-2.199,10.069
		c0,13.346,10.819,24.165,24.165,24.165h85.384c17.795,0,32.22-14.426,32.22-32.22c0-3.518-0.572-6.9-1.613-10.069
		C145.24,73.275,133.14,82.564,118.863,82.564z"/>
	<path style="fill:#40C4FF;" d="M256,383.622c0,0,11.348,10.755,17.006,20.822c1.973-3.113,3.131-6.794,3.131-10.754
		c0-11.122-20.138-30.206-20.138-30.206s-20.138,19.084-20.138,30.206c0,3.959,1.159,7.639,3.131,10.754
		C244.652,394.377,256,383.622,256,383.622z"/>
	<path style="fill:#40C4FF;" d="M225.794,282.934c-8.341,0-15.103,6.762-15.103,15.103v20.138c0-8.341,6.762-15.103,15.103-15.103
		s15.103,6.762,15.103,15.103v-20.138C240.897,289.696,234.135,282.934,225.794,282.934z"/>
	<path style="fill:#40C4FF;" d="M286.207,282.934c-8.341,0-15.103,6.762-15.103,15.103v20.138c0-8.341,6.762-15.103,15.103-15.103
		c8.341,0,15.103,6.762,15.103,15.103v-20.138C301.31,289.696,294.548,282.934,286.207,282.934z"/>
</g>
<rect x="261.034" y="245.176" width="15.103" height="15.103"/>
<path d="M495.135,333.278v23.08l-15.103-25.172v-28.114h-15.103v22.655h-125.86v-65.447h17.62v-15.103h-17.62v-90.619H318.93v-2.517
	V84.578h-15.103v26.63c-4.318-5.05-9.408-9.418-15.103-12.9V45.813h-10.069v-9.565c0-9.845-6.314-18.239-15.103-21.356V0h-15.103
	v14.892c-8.789,3.117-15.103,11.511-15.103,21.356v9.565h-10.069v52.495c-5.695,3.481-10.786,7.851-15.103,12.9v-26.63H193.07
	v67.461v2.517h-20.138v90.619h-17.62v15.103h17.62v65.447H47.072v-22.655H31.969v28.114l-15.103,25.172v-23.08H1.762V512h508.476
	V333.278H495.135z M339.068,340.83h129.136l21.145,35.241h-150.28V340.83z M248.448,36.248c0-4.164,3.387-7.552,7.552-7.552
	s7.552,3.387,7.552,7.552v9.565h-15.103V36.248z M238.38,60.916h35.241v30.721c-5.595-1.635-11.504-2.528-17.62-2.528
	s-12.025,0.894-17.62,2.528V60.916z M208.173,152.039c0-26.371,21.456-47.827,47.827-47.827s47.827,21.456,47.827,47.827v2.517
	h-95.654V152.039z M188.035,260.279h57.896v-15.103h-57.896V169.66h135.929v75.516h-32.724v15.103h32.724v40.275h-15.103v-2.517
	c0-12.492-10.162-22.655-22.655-22.655c-12.492,0-22.655,10.162-22.655,22.655v2.517h-15.103v-2.517
	c0-12.492-10.162-22.655-22.655-22.655s-22.655,10.162-22.655,22.655v2.517h-15.103V260.279z M293.758,298.037v27.689h-15.103
	v-27.689c0-4.164,3.387-7.552,7.552-7.552C290.371,290.486,293.758,293.873,293.758,298.037z M233.345,298.037v27.689h-15.103
	v-27.689c0-4.164,3.387-7.552,7.552-7.552S233.345,293.873,233.345,298.037z M43.796,340.83h129.136v35.241H22.651L43.796,340.83z
	 M16.865,391.174h156.067v75.516H16.865V391.174z M218.242,496.897H16.865v-15.103h201.377V496.897z M278.655,496.897h-45.31
	v-52.861c0-12.492,10.162-22.655,22.655-22.655c12.492,0,22.655,10.162,22.655,22.655V496.897z M243.414,393.691
	c0-3.676,5.931-12.098,12.59-19.408c6.655,7.3,12.582,15.717,12.582,19.408c0,6.94-5.646,12.586-12.586,12.586
	C249.06,406.277,243.414,400.632,243.414,393.691z M276.461,412.327c4.488-4.923,7.228-11.465,7.228-18.635
	c0-13.333-17.218-30.687-22.495-35.688L256,353.081l-5.195,4.923c-5.277,5.001-22.495,22.355-22.495,35.688
	c0,7.171,2.741,13.713,7.228,18.635c-10.397,6.733-17.297,18.426-17.297,31.709v22.655h-30.206V315.658h15.103v25.172h45.31v-25.172
	h15.103v25.172h45.31v-25.172h15.103V466.69h-30.206v-22.655C293.758,430.754,286.859,419.06,276.461,412.327z M495.135,496.897
	H293.758v-15.103h201.377V496.897z M495.135,466.69H339.068v-75.516h156.067V466.69z"/>
<path d="M278.655,207.418c0-12.492-10.162-22.655-22.655-22.655c-12.492,0-22.655,10.162-22.655,22.655
	c0,12.492,10.162,22.655,22.655,22.655C268.492,230.073,278.655,219.91,278.655,207.418z M248.448,207.418
	c0-4.164,3.387-7.552,7.552-7.552s7.552,3.387,7.552,7.552c0,4.164-3.387,7.552-7.552,7.552
	C251.836,214.97,248.448,211.582,248.448,207.418z"/>
<path d="M394.346,160.598h64.038c17.489,0,31.717-14.228,31.717-31.717s-14.228-31.717-31.717-31.717
	c-1.906,0-3.802,0.174-5.676,0.521c-7.112-7.976-17.286-12.603-28.155-12.603c-15.952,0-30.046,10.1-35.434,24.7
	c-11.66,2.421-20.448,12.773-20.448,25.141C368.67,149.08,380.188,160.598,394.346,160.598z M394.215,124.351
	c0.157,0.01,0.315,0.02,0.473,0.025l6.394,0.218l1.267-6.272c2.122-10.51,11.46-18.138,22.204-18.138
	c7.659,0,14.747,3.835,18.96,10.259l3.325,5.071l5.669-2.151c1.919-0.728,3.897-1.096,5.878-1.096
	c9.161,0,16.614,7.453,16.614,16.614s-7.453,16.614-16.614,16.614h-64.038c-5.83,0-10.572-4.742-10.572-10.572
	C383.773,129.137,388.445,124.422,394.215,124.351z"/>
<path d="M33.479,110.254h85.384c21.93,0,39.772-17.842,39.772-39.772S140.792,30.71,118.863,30.71c-2.862,0-5.707,0.314-8.508,0.936
	C101.316,20.882,88.006,14.6,73.754,14.6c-20.691,0-38.915,13.414-45.356,32.627c-15.082,2.439-26.636,15.55-26.636,31.31
	C1.762,96.025,15.99,110.254,33.479,110.254z M33.378,61.923l0.046,0.003c0.201,0.014,0.402,0.026,0.605,0.033l6.387,0.21
	l1.265-6.264c3.066-15.183,16.555-26.203,32.073-26.203c11.065,0,21.301,5.539,27.383,14.816l3.325,5.072l5.67-2.151
	c2.845-1.079,5.783-1.626,8.731-1.626c13.602,0,24.669,11.067,24.669,24.669s-11.067,24.669-24.669,24.669H33.479
	c-9.161,0-16.614-7.453-16.614-16.614C16.865,69.409,24.264,61.978,33.378,61.923z"/>
<g>
	<path style="fill:#FFFFFF;" d="M263.552,483.304h-15.103v-15.103h15.103V483.304z M263.552,453.097h-15.103v-15.103h15.103V453.097
		z"/>
	<path style="fill:#FFFFFF;" d="M308.861,413.829h-15.103v-15.103h15.103V413.829z M308.861,383.622h-15.103v-30.206h15.103V383.622
		z"/>
	<rect x="202.635" y="184.763" style="fill:#FFFFFF;" width="15.103" height="15.103"/>
	<path style="fill:#FFFFFF;" d="M308.861,227.556h-15.103v-15.103h15.103V227.556z M308.861,197.349h-15.103v-15.103h15.103V197.349
		z"/>
	<rect x="42.037" y="403.76" style="fill:#FFFFFF;" width="15.103" height="50.344"/>
	<rect x="72.244" y="403.76" style="fill:#FFFFFF;" width="15.103" height="50.344"/>
	<rect x="102.45" y="403.76" style="fill:#FFFFFF;" width="15.103" height="50.344"/>
	<rect x="132.657" y="403.76" style="fill:#FFFFFF;" width="15.103" height="50.344"/>
	<path style="fill:#FFFFFF;" d="M454.356,366.002h-35.241v-15.103h35.241V366.002z M404.012,366.002h-15.103v-15.103h15.103V366.002
		z M373.805,366.002h-15.103v-15.103h15.103V366.002z"/>
	<path style="fill:#FFFFFF;" d="M122.085,366.002H91.878v-15.103h30.206V366.002z M76.775,366.002H61.672v-15.103h15.103V366.002z"
		/>
	<rect x="454.859" y="403.76" style="fill:#FFFFFF;" width="15.103" height="50.344"/>
	<rect x="424.653" y="403.76" style="fill:#FFFFFF;" width="15.103" height="50.344"/>
	<rect x="394.446" y="403.76" style="fill:#FFFFFF;" width="15.103" height="50.344"/>
	<rect x="364.24" y="403.76" style="fill:#FFFFFF;" width="15.103" height="50.344"/>
	<rect x="248.448" y="119.819" style="fill:#FFFFFF;" width="15.103" height="21.145"/>
	<path style="fill:#FFFFFF;" d="M127.119,79.04H84.83V63.937h42.289V79.04z M69.727,79.04H54.623V63.937h15.103V79.04z"/>
	<rect x="418.108" y="115.288" style="fill:#FFFFFF;" width="15.103" height="15.103"/>
</g>
<g>
</g>
<g>
</g>
<g>
</g>
<g>
</g>
<g>
</g>
<g>
</g>
<g>
</g>
<g>
</g>
<g>
</g>
<g>
</g>
<g>
</g>
<g>
</g>
<g>
</g>
<g>
</g>
<g>
</g>
</svg>
