<?xml version="1.0" encoding="UTF-8" standalone="no"?>
<!-- Created with Inkscape (http://www.inkscape.org/) -->

<svg
   xmlns:dc="http://purl.org/dc/elements/1.1/"
   xmlns:cc="http://creativecommons.org/ns#"
   xmlns:rdf="http://www.w3.org/1999/02/22-rdf-syntax-ns#"
   xmlns:svg="http://www.w3.org/2000/svg"
   xmlns="http://www.w3.org/2000/svg"
   xmlns:sodipodi="http://sodipodi.sourceforge.net/DTD/sodipodi-0.dtd"
   xmlns:inkscape="http://www.inkscape.org/namespaces/inkscape"
   width="256"
   height="256"
   viewBox="0 0 67.73333 67.733335"
   version="1.1"
   id="svg8"
   inkscape:version="0.92.4 (5da689c313, 2019-01-14)"
   sodipodi:docname="oslo_opera.svg">
  <defs
     id="defs2">
    <inkscape:path-effect
       effect="simplify"
       id="path-effect1069"
       is_visible="true"
       steps="1"
       threshold="0.0389042"
       smooth_angles="360"
       helper_size="0"
       simplify_individual_paths="false"
       simplify_just_coalesce="false"
       simplifyindividualpaths="false"
       simplifyJustCoalesce="false" />
  </defs>
  <sodipodi:namedview
     id="base"
     pagecolor="#ffffff"
     bordercolor="#666666"
     borderopacity="1.0"
     inkscape:pageopacity="0.0"
     inkscape:pageshadow="2"
     inkscape:zoom="2.8284271"
     inkscape:cx="101.76933"
     inkscape:cy="123.07667"
     inkscape:document-units="mm"
     inkscape:current-layer="g1219"
     showgrid="false"
     units="px"
     inkscape:window-width="1920"
     inkscape:window-height="986"
     inkscape:window-x="-11"
     inkscape:window-y="-11"
     inkscape:window-maximized="1" />
  <metadata
     id="metadata5">
    <rdf:RDF>
      <cc:Work
         rdf:about="">
        <dc:format>image/svg+xml</dc:format>
        <dc:type
           rdf:resource="http://purl.org/dc/dcmitype/StillImage" />
        <dc:title />
      </cc:Work>
    </rdf:RDF>
  </metadata>
  <g
     inkscape:label="Layer 1"
     inkscape:groupmode="layer"
     id="layer1"
     transform="translate(0,-229.26664)">
    <g
       id="g1188">
      <path
         style="fill:#008bac;fill-opacity:0.45882353;stroke:none;stroke-width:2.0240624;stroke-miterlimit:4;stroke-dasharray:none"
         d="m 37.447982,265.52027 c -1.453088,-0.45931 -2.63385,-0.84182 -2.623918,-0.85002 0.05631,-0.0465 5.23747,-0.84476 5.270247,-0.81199 0.02175,0.0217 0.02968,0.59251 0.01761,1.26834 l -0.02195,1.22877 z"
         id="path967"
         inkscape:connector-curvature="0" />
      <path
         style="fill:#008bac;fill-opacity:0.45882353;stroke:none;stroke-width:2.0240624;stroke-miterlimit:4;stroke-dasharray:none"
         d="m 29.983873,263.35947 c -1.521767,-0.48922 -1.966482,-0.66035 -1.82879,-0.70373 0.100063,-0.0315 2.615021,-0.50649 5.588796,-1.05549 2.973773,-0.54899 5.505259,-1.01848 5.625522,-1.04331 l 0.21866,-0.0451 v 1.15564 1.15565 l -0.258417,0.0452 c -1.057283,0.18504 -7.177359,1.1529 -7.247122,1.14611 -0.04836,-0.005 -0.992748,-0.29945 -2.098649,-0.65497 z"
         id="path969"
         inkscape:connector-curvature="0" />
      <path
         style="fill:#008bac;fill-opacity:0.45882353;stroke:none;stroke-width:2.0240624;stroke-miterlimit:4;stroke-dasharray:none"
         d="m 22.405369,261.0057 c -1.452062,-0.46025 -2.631566,-0.84537 -2.621124,-0.85582 0.01045,-0.0105 4.347196,-0.77183 9.637227,-1.69198 5.290031,-0.92015 9.698745,-1.69184 9.797143,-1.71487 l 0.178903,-0.0419 v 1.1942 c 0,0.65681 -0.03002,1.19421 -0.06671,1.19421 -0.242424,0 -14.203957,2.63461 -14.240096,2.68717 -0.02488,0.0362 -1.233281,-0.31078 -2.685341,-0.77104 z"
         id="path971"
         inkscape:connector-curvature="0" />
      <path
         style="fill:#008bac;fill-opacity:0.45882353;stroke:none;stroke-width:2.0240624;stroke-miterlimit:4;stroke-dasharray:none"
         d="m 15.732138,258.76307 c -1.102195,-0.35412 -1.996195,-0.65165 -1.986666,-0.66118 0.01765,-0.0177 26.013708,-4.79903 26.092026,-4.79903 0.0236,0 0.04292,0.46447 0.04292,1.03215 0,1.00551 -0.0046,1.03318 -0.178903,1.07218 -0.0984,0.022 -4.830395,0.84656 -10.515553,1.83233 -12.05219,2.08975 -11.171532,1.9264 -11.171532,2.07219 0,0.0625 -0.06262,0.10948 -0.139147,0.10443 -0.07653,-0.005 -1.040943,-0.29894 -2.143138,-0.65307 z"
         id="path973"
         inkscape:connector-curvature="0" />
      <path
         sodipodi:nodetypes="cccccccccccc"
         inkscape:connector-curvature="0"
         id="path1142"
         d="m 45.236251,266.9802 -3.880559,-0.1388 -2.02e-4,-8.712 -0.490275,-5.93537 8.243072,0.2238 c 4.211042,0.0588 8.735445,-0.15054 10.408289,-0.0161 l 3.094817,0.31195 0.139818,5.99309 v 8.58674 l -6.8172,-0.0874 c -3.749468,-0.0479 -8.56346,-0.14974 -10.69776,-0.2261 z"
         style="fill:#008dac;fill-opacity:0.45882353;stroke:none;stroke-width:1.98302424;stroke-miterlimit:4;stroke-dasharray:none" />
      <path
         inkscape:connector-curvature="0"
         id="path1108"
         d="m 6.8170939,272.96386 c -4.5226254,-0.13442 -5.97408797,-0.21836 -6.09772407,-0.35263 -0.31812352,-0.3455 -3.58272383,-5.42179 -3.52433943,-5.48017 0.044602,-0.0445 14.8225976,5.30179 16.3685626,5.92183 0.324493,0.13014 0.869979,0.13734 -6.7464991,-0.089 z"
         style="fill:#a0a7af;fill-opacity:0.56470588;stroke:none;stroke-width:2.0240624;stroke-miterlimit:4;stroke-dasharray:none" />
      <path
         inkscape:connector-curvature="0"
         id="path1125"
         d="m 35.508986,249.50082 c -3.83e-4,-0.25961 0.670277,-5.52925 0.74963,-5.89071 l 0.06678,-0.30413 h 6.125994 c 3.369297,0 7.321906,0.04 8.783577,0.089 l 2.657581,0.089 6.7e-5,2.78339 6.9e-5,2.78339 -1.182819,-0.0329 c -0.650549,-0.0181 -3.64632,-0.0934 -6.657268,-0.16735 l -5.474447,-0.13445 -2.162746,0.40117 c -1.18951,0.22064 -2.330019,0.43765 -2.534466,0.48223 -0.259712,0.0566 -0.371788,0.0269 -0.371943,-0.0986 z"
         style="fill:#a0a0a0;fill-opacity:0.56470588;stroke:none;stroke-width:2.0240624;stroke-miterlimit:4;stroke-dasharray:none" />
      <path
         inkscape:connector-curvature="0"
         id="path1127"
         d="m 5.6841832,252.35535 v -2.43309 h 5.1823688 c 2.850307,0 6.374461,0.0399 7.83146,0.0887 l 2.649084,0.0887 0.09249,0.8636 c 0.05086,0.47499 0.06912,0.88698 0.04057,0.91553 -0.05513,0.0552 -15.4125101,2.9096 -15.6539778,2.9096 -0.093945,0 -0.1419889,-0.82326 -0.1419889,-2.43308 z"
         style="fill:#a0a0a0;fill-opacity:0.56470588;stroke:none;stroke-width:2.0240624;stroke-miterlimit:4;stroke-dasharray:none" />
      <path
         inkscape:connector-curvature="0"
         id="path1148"
         d="m 26.023979,273.46983 -9.414701,-0.26818 -10.0237652,-3.67209 -10.02376,-3.67207 -2.52582,-3.84806 c -1.3892001,-2.11643 -2.5055427,-3.86832 -2.4807617,-3.89311 0.03437,-0.0344 42.0174299,14.05355 45.7951249,15.36709 l 0.764645,0.26588 -1.33813,-0.006 c -0.735972,-0.003 -5.574746,-0.12631 -10.752832,-0.27382 z"
         style="fill:#008dac;fill-opacity:0.45882353;stroke:none;stroke-width:2.0240624;stroke-miterlimit:4;stroke-dasharray:none" />
      <g
         transform="matrix(0.7225,0,0,0.7225,-10.060457,89.778339)"
         id="g1106"
         style="stroke-width:2.80147052;stroke-miterlimit:4;stroke-dasharray:none">
        <g
           id="g1219"
           transform="translate(0.52916663,-0.26458331)"
           style="stroke-width:2.80147052;stroke-miterlimit:4;stroke-dasharray:none">
          <path
             inkscape:connector-curvature="0"
             id="path838"
             d="m 28.841433,233.10749 40.287831,-7.3107"
             style="fill:none;stroke:#000000;stroke-width:2.80147052;stroke-linecap:butt;stroke-linejoin:miter;stroke-miterlimit:4;stroke-dasharray:none;stroke-opacity:1"
             sodipodi:nodetypes="cc" />
          <path
             inkscape:connector-curvature="0"
             id="path832"
             d="m 43.731976,226.26578 -0.09354,-3.88209 -22.87159,-0.0935 0.08563,7.37336"
             style="fill:none;stroke:#000000;stroke-width:2.80147052;stroke-linecap:butt;stroke-linejoin:miter;stroke-miterlimit:4;stroke-dasharray:none;stroke-opacity:1" />
          <path
             inkscape:connector-curvature="0"
             id="path834"
             d="m 1.3229166,230.85414 14.4860754,22.08645 55.097613,1.49671"
             style="fill:none;stroke:#000000;stroke-width:2.80147052;stroke-linecap:butt;stroke-linejoin:miter;stroke-miterlimit:4;stroke-dasharray:none;stroke-opacity:1" />
          <path
             inkscape:connector-curvature="0"
             id="path836"
             d="M 9.5265217,243.29354 37.238582,253.43896"
             style="fill:none;stroke:#000000;stroke-width:2.80147052;stroke-linecap:butt;stroke-linejoin:miter;stroke-miterlimit:4;stroke-dasharray:none;stroke-opacity:1" />
          <path
             inkscape:connector-curvature="0"
             id="path855"
             d="m 38.17214,236.02777 31.131953,-5.42209"
             style="fill:none;stroke:#000000;stroke-width:2.80147052;stroke-linecap:butt;stroke-linejoin:miter;stroke-miterlimit:4;stroke-dasharray:none;stroke-opacity:1" />
          <path
             inkscape:connector-curvature="0"
             id="path859"
             d="m 49.750782,239.42323 19.404686,-3.60918"
             style="fill:none;stroke:#000000;stroke-width:2.80147052;stroke-linecap:butt;stroke-linejoin:miter;stroke-miterlimit:4;stroke-dasharray:none;stroke-opacity:1"
             sodipodi:nodetypes="cc" />
          <path
             inkscape:connector-curvature="0"
             id="path861"
             d="m 58.340328,242.47156 10.726571,-1.72882"
             style="fill:none;stroke:#000000;stroke-width:2.80147052;stroke-linecap:butt;stroke-linejoin:miter;stroke-miterlimit:4;stroke-dasharray:none;stroke-opacity:1" />
          <path
             inkscape:connector-curvature="0"
             id="path863"
             d="m 69.129264,225.79679 29.793868,0.74836"
             style="fill:none;stroke:#000000;stroke-width:2.80147052;stroke-linecap:butt;stroke-linejoin:miter;stroke-miterlimit:4;stroke-dasharray:none;stroke-opacity:1" />
          <path
             inkscape:connector-curvature="0"
             id="path863-6-5"
             d="m 69.221614,230.7714 29.793872,0.74836"
             style="fill:none;stroke:#000000;stroke-width:2.80147052;stroke-linecap:butt;stroke-linejoin:miter;stroke-miterlimit:4;stroke-dasharray:none;stroke-opacity:1" />
          <path
             inkscape:connector-curvature="0"
             id="path863-6-5-6"
             d="m 69.155468,235.81405 29.793872,0.74836"
             style="fill:none;stroke:#000000;stroke-width:2.80147052;stroke-linecap:butt;stroke-linejoin:miter;stroke-miterlimit:4;stroke-dasharray:none;stroke-opacity:1" />
          <path
             inkscape:connector-curvature="0"
             id="path863-6-5-6-6"
             d="m 69.122395,240.8567 29.793873,0.74836"
             style="fill:none;stroke:#000000;stroke-width:2.80147052;stroke-linecap:butt;stroke-linejoin:miter;stroke-miterlimit:4;stroke-dasharray:none;stroke-opacity:1" />
          <path
             inkscape:connector-curvature="0"
             id="path838-5"
             d="m 20.63837,230.30734 48.68246,-8.9782"
             style="fill:none;stroke:#000000;stroke-width:2.80147052;stroke-linecap:butt;stroke-linejoin:miter;stroke-miterlimit:4;stroke-dasharray:none;stroke-opacity:1" />
          <path
             inkscape:connector-curvature="0"
             id="path940-9"
             d="m 69.32083,221.32914 v 24.59782 0.8177"
             style="fill:none;stroke:#000000;stroke-width:2.81193566;stroke-linecap:butt;stroke-linejoin:miter;stroke-miterlimit:4;stroke-dasharray:none;stroke-opacity:1"
             sodipodi:nodetypes="ccc" />
          <path
             inkscape:connector-curvature="0"
             id="path940-2"
             d="m 75.330378,225.16197 v 1.64839 19.28067 0"
             style="fill:none;stroke:#000000;stroke-width:2.80147052;stroke-linecap:butt;stroke-linejoin:miter;stroke-miterlimit:4;stroke-dasharray:none;stroke-opacity:1"
             sodipodi:nodetypes="cccc" />
          <path
             inkscape:connector-curvature="0"
             id="path940-2-9"
             d="m 87.532344,225.55885 v 20.73062 0"
             style="fill:none;stroke:#000000;stroke-width:2.80147052;stroke-linecap:butt;stroke-linejoin:miter;stroke-miterlimit:4;stroke-dasharray:none;stroke-opacity:1" />
          <path
             inkscape:connector-curvature="0"
             id="path940-2-9-5"
             d="m 81.431361,225.42655 v 20.66448 0"
             style="fill:none;stroke:#000000;stroke-width:2.80147052;stroke-linecap:butt;stroke-linejoin:miter;stroke-miterlimit:4;stroke-dasharray:none;stroke-opacity:1" />
          <path
             inkscape:connector-curvature="0"
             id="path940-2-9-1"
             d="m 93.633327,225.42655 v 21.1275 0"
             style="fill:none;stroke:#000000;stroke-width:2.80147052;stroke-linecap:butt;stroke-linejoin:miter;stroke-miterlimit:4;stroke-dasharray:none;stroke-opacity:1" />
          <path
             inkscape:connector-curvature="0"
             id="path836-1"
             d="M 1.3632221,230.97358 93.504029,261.9885"
             style="fill:none;stroke:#000000;stroke-width:2.80147052;stroke-linecap:butt;stroke-linejoin:miter;stroke-miterlimit:4;stroke-dasharray:none;stroke-opacity:1" />
          <path
             inkscape:connector-curvature="0"
             id="path836-1-0"
             d="m 20.63837,230.30734 48.68246,15.43687"
             style="fill:none;stroke:#000000;stroke-width:2.80147052;stroke-linecap:butt;stroke-linejoin:miter;stroke-miterlimit:4;stroke-dasharray:none;stroke-opacity:1"
             sodipodi:nodetypes="cc" />
          <path
             inkscape:connector-curvature="0"
             id="path863-2"
             d="m 69.043206,221.33021 31.990384,0.81096"
             style="fill:none;stroke:#000000;stroke-width:2.80147052;stroke-linecap:butt;stroke-linejoin:miter;stroke-miterlimit:4;stroke-dasharray:none;stroke-opacity:1"
             sodipodi:nodetypes="cc" />
          <path
             inkscape:connector-curvature="0"
             id="path940-2-9-6-3"
             d="m 99.737246,220.86693 v 25.94302 0"
             style="fill:none;stroke:#000000;stroke-width:2.80147052;stroke-linecap:butt;stroke-linejoin:miter;stroke-miterlimit:4;stroke-dasharray:none;stroke-opacity:1" />
          <path
             inkscape:connector-curvature="0"
             id="path1065"
             d="m 68.916227,245.66329 30.198469,1.14666 22.064474,10.10565"
             style="fill:none;stroke:#000000;stroke-width:2.80147052;stroke-linecap:butt;stroke-linejoin:miter;stroke-miterlimit:4;stroke-dasharray:none;stroke-opacity:1"
             sodipodi:nodetypes="ccc" />
          <path
             transform="translate(-12.170835,0.396875)"
             inkscape:original-d="m 67.733332,266.17602 c 1.10285,-1.42805 1.996483,-1.6236 3.439584,-1.98438 0.399992,-0.1 0.815258,-0.53633 1.190625,-0.66146 0.36468,-0.12156 0.974304,-0.0451 1.322916,-0.13229 1.120588,-0.28014 2.451288,0.28015 3.571875,0 2.81907,-0.70477 6.1379,-0.5028 8.995834,0.13229 0.864401,0.19209 1.919755,-0.11295 2.778125,0.1323 0.884168,0.25261 1.629105,0.48457 2.513541,0.66145 0.298387,0.0597 0.790461,-0.13393 1.058334,0 1.721805,0.86091 4.070958,0.98071 5.953124,1.32292 3.09889,0.56344 6.11461,1.52025 9.12813,2.38125 0.4089,0.11683 0.90947,-0.10336 1.32291,0 1.87123,0.46781 3.90669,0.66146 5.95313,0.66146 1.42344,0 2.81441,-0.0145 4.10104,-0.52917 0.34122,-0.13649 0.84201,0.11621 1.19062,0 0.60905,-0.20302 3.36079,-2.43474 3.83646,-2.91041 0.12473,-0.12473 0,-0.35278 0,-0.52917 0,-0.90184 0.52917,-1.34425 0.52917,-2.38125"
             inkscape:path-effect="#path-effect1069"
             inkscape:connector-curvature="0"
             id="path1067"
             d="m 67.733332,266.17602 c 11.983843,-7.0748 27.024045,0.56855 39.952088,1.85208 5.50984,0.54703 16.39833,2.60072 16.93333,-5.68854"
             style="fill:none;stroke:#000000;stroke-width:2.80147052;stroke-linecap:butt;stroke-linejoin:miter;stroke-miterlimit:4;stroke-dasharray:none;stroke-opacity:1" />
          <path
             inkscape:connector-curvature="0"
             id="path1071"
             d="M 1.3229166,230.85414 20.63837,230.30734"
             style="fill:none;stroke:#000000;stroke-width:2.80147052;stroke-linecap:butt;stroke-linejoin:miter;stroke-miterlimit:4;stroke-dasharray:none;stroke-opacity:1" />
          <path
             inkscape:connector-curvature="0"
             id="path1075"
             d="m 61.647916,222.38748 1.256771,-9.72344 25.399999,0.19844 v 8.6651"
             style="fill:none;stroke:#000000;stroke-width:2.80147052;stroke-linecap:butt;stroke-linejoin:miter;stroke-miterlimit:4;stroke-dasharray:none;stroke-opacity:1" />
        </g>
      </g>
    </g>
  </g>
</svg>
