<?xml version="1.0" encoding="iso-8859-1"?>
<!-- Generator: Adobe Illustrator 19.0.0, SVG Export Plug-In . SVG Version: 6.00 Build 0)  -->
<svg version="1.1" id="Capa_1" xmlns="http://www.w3.org/2000/svg" xmlns:xlink="http://www.w3.org/1999/xlink" x="0px" y="0px"
	 viewBox="0 0 496 496" style="enable-background:new 0 0 496 496;" xml:space="preserve">
<g>
	<path style="fill:#D3A06C;" d="M104,184c0,0-48,24-48,96c0,64,56,144,56,144l24-32l-16-208H104z"/>
	<path style="fill:#D3A06C;" d="M392,184c0,0,48,24,48,96c0,64-56,144-56,144l-24-32l16-208H392z"/>
</g>
<g>
	<path style="fill:#B27946;" d="M397.704,190.248l-0.968-3.344C393.832,184.928,392,184,392,184h-16l-22.112,200l6.112,8
		l7.704,10.264C393.256,364.92,408,316.184,408,264C408,238.592,404.528,213.784,397.704,190.248z"/>
	<path style="fill:#B27946;" d="M104,184c0,0-1.832,0.928-4.728,2.904l-0.968,3.344C91.472,213.784,88,238.592,88,264
		c0,52.184,14.744,100.92,40.296,138.264L136,392l5.944-8.176L120,184H104z"/>
</g>
<path style="fill:#D3A06C;" d="M382.336,194.712C388.576,216.208,392,239.568,392,264c0,75.384-32.584,140.624-80,172.04L296,448
	l-48,8l-48-8l-16-11.96c-47.416-31.416-80-96.656-80-172.04c0-24.432,3.424-47.792,9.664-69.288H382.336z"/>
<path style="fill:#B27946;" d="M388.176,220.72c-1.544-8.896-3.4-17.632-5.832-26.008h-268.68
	c-2.432,8.376-4.296,17.112-5.832,26.008C124.824,232.816,145.552,240,168,240c32.176,0,60.92-14.624,80-37.568
	C267.08,225.376,295.824,240,328,240C350.448,240,371.176,232.816,388.176,220.72z"/>
<path style="fill:#ECECEC;" d="M328,56c-41.48,0-75.584,31.576-79.6,72h-0.8c-4.016-40.424-38.112-72-79.6-72
	c-44.184,0-80,35.816-80,80s35.816,80,80,80c18.016,0,34.584-6.024,47.96-16.08L216,200l32-24l32,24l0.04-0.08
	C293.416,209.976,309.984,216,328,216c44.184,0,80-35.816,80-80S372.184,56,328,56z"/>
<circle style="fill:#31353D;" cx="320" cy="128" r="40"/>
<circle style="fill:#798699;" cx="320" cy="128" r="16"/>
<circle style="fill:#31353D;" cx="176" cy="128" r="40"/>
<polygon style="fill:#FCD770;" points="248,176 280,200 248,256 216,200 "/>
<circle style="fill:#798699;" cx="176" cy="128" r="16"/>
<g>
	<path style="fill:#B27946;" d="M216,424L216,424c-17.672,0-32,14.328-32,32v32h64v-32C248,438.328,233.672,424,216,424z"/>
	<path style="fill:#B27946;" d="M96,8l152,144L408,8l-2.12,1.416c-28.72,19.144-65.024,22.928-97.072,10.104l-11.024-4.408
		C286.032,10.416,273.504,8,260.848,8h-23.752c-13.912,0-27.672,2.92-40.384,8.568l0,0C163.896,31.16,125.888,27.928,96,8L96,8z"/>
	<path style="fill:#B27946;" d="M280,424L280,424c-17.672,0-32,14.328-32,32v32h64v-32C312,438.328,297.672,424,280,424z"/>
</g>
<path d="M403.12,181.608C411.232,168.288,416,152.704,416,136c0-35.024-20.72-66.232-51.832-80.24l49.008-41.664l-9.608-12.76
	L401.44,2.76c-26.536,17.688-60.04,21.176-89.656,9.336L300.752,7.68C287.992,2.584,274.568,0,260.848,0h-23.752
	c-15.128,0-29.808,3.12-43.632,9.256c-30.496,13.552-65.28,10.592-93.032-7.912L90.656,13.96l44.992,40.256
	C102.448,67.328,80,99.576,80,136c0,16.704,4.768,32.288,12.88,45.608C78.36,192.016,48,220.808,48,280
	c0,65.768,55.104,145.232,57.448,148.584l6.328,9.048l26.368-35.16c11.52,15.776,25.128,29.208,40.512,39.568
	c-1.64,4.368-2.656,9.032-2.656,13.96v40h64h16h64v-40c0-4.928-1.016-9.592-2.648-13.96c15.376-10.368,28.992-23.792,40.512-39.568
	l26.368,35.16l6.328-9.048C392.896,425.232,448,345.768,448,280C448,220.808,417.64,192.016,403.12,181.608z M199.968,23.88
	c11.768-5.232,24.256-7.88,37.136-7.88h23.752c11.68,0,23.104,2.2,33.952,6.536l11.032,4.416c19.2,7.68,39.816,9.832,59.68,6.664
	l-117.384,99.768L134.832,32.016C156.496,35.816,179.104,33.16,199.968,23.88z M320,96c17.648,0,32,14.352,32,32s-14.352,32-32,32
	s-32-14.352-32-32c0-2.808,0.56-5.712,1.464-8.744l27.024-22.976C317.784,96.112,318.968,96,320,96z M208,128
	c0,17.648-14.352,32-32,32s-32-14.352-32-32s14.352-32,32-32c2.36,0,4.872,0.432,7.656,1.168l22.32,19.968
	C207.248,120.64,208,124.272,208,128z M149.328,66.456l16.408,14.68C144.192,85.848,128,105.056,128,128c0,26.472,21.528,48,48,48
	c24.768,0,45.216-18.864,47.736-42.976l24.136,21.592l24.512-20.84C275.248,157.528,295.488,176,320,176c26.472,0,48-21.528,48-48
	c0-21.824-14.656-40.256-34.624-46.064l16.904-14.368C379.736,77.136,400,104.68,400,136c0,39.704-32.296,72-72,72
	c-15.664,0-30.536-4.944-43.04-14.28L248,166l-36.96,27.72C198.536,203.056,183.664,208,168,208c-39.704,0-72-32.296-72-72
	C96,103.408,117.92,74.864,149.328,66.456z M269.544,202.168L248,239.872l-21.544-37.712L248,186L269.544,202.168z M240,480h-48v-24
	c0-10.416,6.712-19.216,16-22.528V456h16v-22.528c9.288,3.312,16,12.112,16,22.528V480z M304,480h-48v-24
	c0-10.416,6.712-19.216,16-22.528V456h16v-22.528c9.288,3.312,16,12.112,16,22.528V480z M383.552,410.08l-16.336-21.776
	C388.096,353.664,400,310.264,400,264c0-5.656-0.176-11.248-0.52-16.784l-15.968,1C383.832,253.424,384,258.688,384,264
	c0,70.12-28.768,132.92-75.144,164.44C301.568,420.816,291.36,416,280,416c-13.128,0-24.704,6.448-32,16.248
	c-7.296-9.8-18.872-16.248-32-16.248c-11.36,0-21.568,4.816-28.856,12.44C140.768,396.92,112,334.12,112,264
	c0-5.312,0.168-10.576,0.496-15.784l-15.968-1C96.176,252.752,96,258.344,96,264c0,46.264,11.904,89.664,32.776,124.296
	l-16.344,21.776C98.184,387.52,64,328.36,64,280c0-52.688,26.784-77.344,38.384-85.568c0.784,0.88,1.56,1.768,2.384,2.624
	c-1.552,5.76-2.96,11.592-4.088,17.432l15.72,3.016c0.576-2.984,1.24-5.96,1.936-8.936C132.48,218.288,149.576,224,168,224
	c16.184,0,31.656-4.368,45.304-12.6L248,272.128l34.696-60.72C296.344,219.632,311.816,224,328,224
	c18.424,0,35.52-5.712,49.672-15.424c0.696,2.968,1.36,5.952,1.936,8.936l15.72-3.016c-1.128-5.848-2.536-11.672-4.088-17.432
	c0.824-0.848,1.6-1.736,2.384-2.624C405.216,202.656,432,227.312,432,280C432,328.288,397.808,387.504,383.552,410.08z"/>
<path d="M327.976,355.872l13.72,8.248C358.656,335.904,368,300.344,368,264h-16C352,297.488,343.472,330.112,327.976,355.872z"/>
<path d="M184,304c6.144,0,11.752-2.32,16-6.128c4.248,3.808,9.856,6.128,16,6.128c13.232,0,24-10.768,24-24h-16c0,4.416-3.584,8-8,8
	s-8-3.584-8-8h-16c0,4.416-3.584,8-8,8s-8-3.584-8-8h-16c0,4.416-3.584,8-8,8s-8-3.584-8-8h-16c0,13.232,10.768,24,24,24
	c6.144,0,11.752-2.32,16-6.128C172.248,301.68,177.856,304,184,304z"/>
<path d="M200,345.872c4.248,3.808,9.856,6.128,16,6.128s11.752-2.32,16-6.128c4.248,3.808,9.856,6.128,16,6.128
	c13.232,0,24-10.768,24-24h-16c0,4.416-3.584,8-8,8s-8-3.584-8-8h-16c0,4.416-3.584,8-8,8s-8-3.584-8-8h-16c0,4.416-3.584,8-8,8
	s-8-3.584-8-8h-16c0,13.232,10.768,24,24,24C190.144,352,195.752,349.68,200,345.872z"/>
<path d="M336,280h-16c0,4.416-3.584,8-8,8s-8-3.584-8-8h-16c0,4.416-3.584,8-8,8s-8-3.584-8-8h-16c0,13.232,10.768,24,24,24
	c6.144,0,11.752-2.32,16-6.128c4.248,3.808,9.856,6.128,16,6.128C325.232,304,336,293.232,336,280z"/>
<path d="M272,384c-4.416,0-8-3.584-8-8h-16c0,4.416-3.584,8-8,8s-8-3.584-8-8h-16c0,4.416-3.584,8-8,8s-8-3.584-8-8h-16
	c0,13.232,10.768,24,24,24c6.144,0,11.752-2.32,16-6.128c4.248,3.808,9.856,6.128,16,6.128s11.752-2.32,16-6.128
	c4.248,3.808,9.856,6.128,16,6.128c13.232,0,24-10.768,24-24h-16C280,380.416,276.416,384,272,384z"/>
<g>
</g>
<g>
</g>
<g>
</g>
<g>
</g>
<g>
</g>
<g>
</g>
<g>
</g>
<g>
</g>
<g>
</g>
<g>
</g>
<g>
</g>
<g>
</g>
<g>
</g>
<g>
</g>
<g>
</g>
</svg>
