<?xml version="1.0" encoding="UTF-8" standalone="no"?>
<svg
   xmlns:dc="http://purl.org/dc/elements/1.1/"
   xmlns:cc="http://creativecommons.org/ns#"
   xmlns:rdf="http://www.w3.org/1999/02/22-rdf-syntax-ns#"
   xmlns:svg="http://www.w3.org/2000/svg"
   xmlns="http://www.w3.org/2000/svg"
   xmlns:sodipodi="http://sodipodi.sourceforge.net/DTD/sodipodi-0.dtd"
   xmlns:inkscape="http://www.inkscape.org/namespaces/inkscape"
   id="Capa_1"
   enable-background="new 0 0 512 512"
   height="512"
   viewBox="0 0 512 512"
   width="512"
   version="1.1"
   sodipodi:docname="paris_louvre.svg"
   inkscape:version="0.92.4 (5da689c313, 2019-01-14)">
  <metadata
     id="metadata23">
    <rdf:RDF>
      <cc:Work
         rdf:about="">
        <dc:format>image/svg+xml</dc:format>
        <dc:type
           rdf:resource="http://purl.org/dc/dcmitype/StillImage" />
      </cc:Work>
    </rdf:RDF>
  </metadata>
  <defs
     id="defs21" />
  <sodipodi:namedview
     pagecolor="#ffffff"
     bordercolor="#666666"
     borderopacity="1"
     objecttolerance="10"
     gridtolerance="10"
     guidetolerance="10"
     inkscape:pageopacity="0"
     inkscape:pageshadow="2"
     inkscape:window-width="1920"
     inkscape:window-height="986"
     id="namedview19"
     showgrid="false"
     inkscape:zoom="0.4609375"
     inkscape:cx="-481.62712"
     inkscape:cy="256"
     inkscape:window-x="-11"
     inkscape:window-y="-11"
     inkscape:window-maximized="1"
     inkscape:current-layer="Capa_1" />
  <path
     d="m 458.16,204.725 -18.05,-18.05 -18.05,18.05 H 400.4 l -18.05,-18.05 -18.05,18.05 h -23.465 l -18.05,-18.05 -18.05,18.05 H 205.46 l -18.05,-18.05 -18.05,18.05 H 147.7 l -18.05,-18.05 -18.05,18.05 H 88.135 l -18.05,-18.05 -18.05,18.05 H 33.985 V 322.05 h 444.03 V 204.725 Z"
     id="path2"
     inkscape:connector-curvature="0"
     style="fill:#ffc15a;stroke-width:0.90249997" />
  <path
     d="M 478.015,322.05 V 439.375 H 33.985 V 322.05 Z"
     id="path4"
     inkscape:connector-curvature="0"
     style="fill:#c68a65;stroke-width:0.90249997" />
  <path
     d="M 478.015,439.375 256,168.625 33.985,439.375 Z"
     id="path6"
     inkscape:connector-curvature="0"
     style="fill:#dff6fc;stroke-width:0.90249997" />
  <path
     d="m 70.085,267.9 c 4.972775,0 9.025,-4.05222 9.025,-9.025 0,-4.97277 -4.052225,-9.025 -9.025,-9.025 -4.972775,0 -9.025,4.05223 -9.025,9.025 0,4.97278 4.052225,9.025 9.025,9.025 z"
     id="path8"
     inkscape:connector-curvature="0"
     style="stroke-width:0.90249997" />
  <path
     d="m 106.185,267.9 c 4.97277,0 9.025,-4.05222 9.025,-9.025 0,-4.97277 -4.05223,-9.025 -9.025,-9.025 -4.97277,0 -9.025,4.05223 -9.025,9.025 0,4.97278 4.05223,9.025 9.025,9.025 z"
     id="path10"
     inkscape:connector-curvature="0"
     style="stroke-width:0.90249997" />
  <path
     d="m 441.915,267.9 c 4.97277,0 9.025,-4.05222 9.025,-9.025 0,-4.97277 -4.05223,-9.025 -9.025,-9.025 -4.97278,0 -9.025,4.05223 -9.025,9.025 0,4.97278 4.05222,9.025 9.025,9.025 z"
     id="path12"
     inkscape:connector-curvature="0"
     style="stroke-width:0.90249997" />
  <path
     d="m 405.815,267.9 c 4.97277,0 9.025,-4.05222 9.025,-9.025 0,-4.97277 -4.05223,-9.025 -9.025,-9.025 -4.97278,0 -9.025,4.05223 -9.025,9.025 0,4.97278 4.05222,9.025 9.025,9.025 z"
     id="path14"
     inkscape:connector-curvature="0"
     style="stroke-width:0.90249997" />
  <path
     d="m 478.015,195.7 h -16.11685 l -15.40657,-15.40658 c -3.52427,-3.52426 -9.2389,-3.52426 -12.76406,0 L 418.32184,195.7 h -14.18369 l -15.40748,-15.40658 c -3.52426,-3.52426 -9.23889,-3.52426 -12.76315,0 L 360.56094,195.7 h -15.98779 l -15.40657,-15.40658 c -3.52427,-3.52426 -9.2389,-3.52426 -12.76406,0 L 300.99684,195.7 h -11.12421 l -26.8936,-32.79775 C 261.26428,160.81206 258.70389,159.6 256,159.6 c -2.70389,0 -5.26428,1.21206 -6.97813,3.30225 L 222.12737,195.7 h -12.92922 l -15.40657,-15.40658 c -3.52427,-3.52426 -9.2389,-3.52426 -12.76406,0 L 165.62184,195.7 h -14.18368 l -15.40749,-15.40658 c -3.52426,-3.52426 -9.23889,-3.52426 -12.76315,0 L 107.86094,195.7 H 91.873155 L 76.466577,180.29342 c -3.524262,-3.52426 -9.238892,-3.52426 -12.764057,0 L 48.296845,195.7 H 33.985 c -4.984507,0 -9.025,4.04049 -9.025,9.025 v 234.65 c 0,0.0297 0.0045,0.0587 0.0045,0.0884 0.01985,2.19308 0.882645,4.37352 2.360038,5.9917 1.685015,1.84742 4.157865,2.94486 6.660497,2.94486 H 478.01503 c 2.45119,0 4.88072,-1.05502 6.56117,-2.83746 1.55501,-1.64977 2.46383,-3.91775 2.46383,-6.18754 v -234.65 c 0,-4.98451 -4.04049,-9.025 -9.025,-9.025 z m -173.28,18.05 c 2.39343,0 4.68939,-0.95123 6.38158,-2.64342 l 11.66842,-11.66842 11.66842,11.66842 c 1.69219,1.69219 3.98815,2.64342 6.38158,2.64342 H 364.3 c 2.39343,0 4.68939,-0.95123 6.38158,-2.64342 l 11.66842,-11.66842 11.66932,11.66842 c 1.69219,1.69219 3.98815,2.64342 6.38158,2.64342 h 21.66 c 2.39343,0 4.68939,-0.95123 6.38158,-2.64342 l 11.66752,-11.66842 11.66842,11.66842 c 1.69219,1.69219 3.98815,2.64342 6.38158,2.64342 h 10.83 v 99.275 h -18.05 v -18.05 c 0,-4.97277 -4.05223,-9.025 -9.025,-9.025 -4.97278,0 -9.025,4.05223 -9.025,9.025 v 18.05 h -18.05 v -18.05 c 0,-4.97277 -4.05223,-9.025 -9.025,-9.025 -4.97278,0 -9.025,4.05223 -9.025,9.025 v 18.05 h -10.71087 l -81.4055,-99.275 z m -134.02035,73.11423 33.00262,40.24789 -42.47887,51.8026 -33.00172,-40.24789 z m 11.67203,-14.23332 28.93867,-35.29046 33.00352,40.24789 -28.93957,35.29136 z M 256,291.82167 284.93956,327.11302 256,362.40619 227.06043,327.11302 Z m 11.67113,-14.23333 33.00352,-40.24789 28.93866,35.29046 -33.00262,40.24789 z m 73.61422,9.27589 42.47887,51.8026 -33.00172,40.24789 -42.47887,-51.8026 z M 256,182.85833 289.00352,223.10712 256,263.35501 222.99648,223.10712 Z M 43.01,213.75 h 9.025 c 2.39343,0 4.68939,-0.95123 6.381578,-2.64342 L 70.085,199.43816 81.753422,211.10658 C 83.44561,212.79877 85.74157,213.75 88.135,213.75 H 111.6 c 2.39343,0 4.68939,-0.95123 6.38158,-2.64342 l 11.66842,-11.66842 11.66932,11.66842 c 1.69219,1.69219 3.98815,2.64342 6.38158,2.64342 h 21.66 c 2.39343,0 4.68939,-0.95123 6.38158,-2.64342 l 11.66752,-11.66842 11.66842,11.66842 c 1.69219,1.69219 3.98815,2.64342 6.38158,2.64342 h 1.86637 l -81.4055,99.275 H 115.21 v -18.05 c 0,-4.97277 -4.05223,-9.025 -9.025,-9.025 -4.97277,0 -9.025,4.05223 -9.025,9.025 v 18.05 H 79.11 v -18.05 c 0,-4.97277 -4.052225,-9.025 -9.025,-9.025 -4.972775,0 -9.025,4.05223 -9.025,9.025 v 18.05 H 43.01 Z m 0,117.325 h 68.10987 L 43.01,414.13569 Z m 10.04663,99.275 63.50892,-77.44894 33.00172,40.24789 -30.5054,37.20105 z m 89.3484,0 18.83337,-22.96772 18.83247,22.96772 z m 30.5045,-37.20105 42.47887,-51.8035 28.93957,35.29317 -42.47797,51.8044 z M 223.62913,430.35 256,390.87194 288.37087,430.35 Z m 44.042,-53.71048 28.93956,-35.29317 42.47887,51.8035 -28.93956,35.29317 z m 64.258,53.71048 18.83247,-22.96772 18.83337,22.96772 z m 61.009,0 -30.5054,-37.20105 33.00171,-40.24789 63.50893,77.44894 z M 468.99,414.13569 400.88013,331.075 H 468.99 Z"
     id="path16"
     inkscape:connector-curvature="0"
     style="stroke-width:0.90249997" />
</svg>
