<?xml version="1.0" encoding="UTF-8" standalone="no"?>
<svg
   xmlns:dc="http://purl.org/dc/elements/1.1/"
   xmlns:cc="http://creativecommons.org/ns#"
   xmlns:rdf="http://www.w3.org/1999/02/22-rdf-syntax-ns#"
   xmlns:svg="http://www.w3.org/2000/svg"
   xmlns="http://www.w3.org/2000/svg"
   xmlns:sodipodi="http://sodipodi.sourceforge.net/DTD/sodipodi-0.dtd"
   xmlns:inkscape="http://www.inkscape.org/namespaces/inkscape"
   height="512pt"
   viewBox="-73 0 512 512"
   width="512pt"
   version="1.1"
   id="svg36"
   sodipodi:docname="paris_eiffel.svg"
   inkscape:version="0.92.4 (5da689c313, 2019-01-14)">
  <metadata
     id="metadata42">
    <rdf:RDF>
      <cc:Work
         rdf:about="">
        <dc:format>image/svg+xml</dc:format>
        <dc:type
           rdf:resource="http://purl.org/dc/dcmitype/StillImage" />
        <dc:title></dc:title>
      </cc:Work>
    </rdf:RDF>
  </metadata>
  <defs
     id="defs40" />
  <sodipodi:namedview
     pagecolor="#ffffff"
     bordercolor="#666666"
     borderopacity="1"
     objecttolerance="10"
     gridtolerance="10"
     guidetolerance="10"
     inkscape:pageopacity="0"
     inkscape:pageshadow="2"
     inkscape:window-width="1920"
     inkscape:window-height="986"
     id="namedview38"
     showgrid="false"
     inkscape:zoom="0.69140625"
     inkscape:cx="404.81746"
     inkscape:cy="694.68172"
     inkscape:window-x="-11"
     inkscape:window-y="-11"
     inkscape:window-maximized="1"
     inkscape:current-layer="svg36" />
  <path
     d="m305.304688 140.296875c-.203126 0-.40625.011719-.609376.015625.398438-1.832031.609376-3.738281.609376-5.691406 0-14.839844-12.03125-26.871094-26.871094-26.871094-14.644532 0-26.542969 11.710938-26.859375 26.277344-5.667969-3.441406-12.320313-5.421875-19.433594-5.421875-20.707031 0-37.492187 16.785156-37.492187 37.488281 0 6.277344 1.550781 12.1875 4.277343 17.382812h135.613281c1.445313-3.617187 2.253907-7.558593 2.253907-11.695312 0-17.386719-14.097657-31.484375-31.488281-31.484375zm0 0"
     fill="#c2f4ff"
     id="path2" />
  <path
     d="m305.304688 140.296875c-.203126 0-.40625.011719-.609376.015625.398438-1.832031.609376-3.738281.609376-5.691406 0-14.839844-12.03125-26.871094-26.871094-26.871094-3.875 0-7.550782.824219-10.875 2.300781 9.421875 4.175781 16 13.601563 16 24.570313 0 1.953125-.214844 3.859375-.609375 5.691406.203125-.003906.40625-.015625.609375-.015625 17.386718 0 31.484375 14.097656 31.484375 31.484375 0 4.136719-.804688 8.078125-2.253907 11.695312h21.75c1.445313-3.617187 2.253907-7.558593 2.253907-11.695312 0-17.386719-14.097657-31.484375-31.488281-31.484375zm0 0"
     fill="#87d1ea"
     id="path4" />
  <path
     d="m315.042969 504.5s-116.472657-181.476562-116.472657-428.308594c-11.671874 0-21.96875 0-32.144531 0 0 246.832032-116.46875 428.308594-116.46875 428.308594h61.382813c-.464844-3.308594-.722656-6.683594-.722656-10.121094 0-39.699218 32.183593-71.882812 71.882812-71.882812s71.882812 32.183594 71.882812 71.882812c0 3.4375-.257812 6.8125-.722656 10.121094zm-162.773438-153.917969c5.425781-16.652343 10.796875-34.6875 15.828125-53.953125h28.800782c5.035156 19.265625 10.402343 37.300782 15.832031 53.953125zm0 0"
     fill="#f27755"
     id="path10" />
  <g
     fill="#d14a3f"
     id="g18">
    <path
       d="m166.425781 76.191406c0 7.5625-.109375 15.0625-.324219 22.5h32.792969c-.214843-7.4375-.324219-14.9375-.324219-22.5-11.671874 0-21.96875 0-32.144531 0zm0 0"
       id="path12" />
    <path
       d="m264.609375 402.628906c-2.9375-7.175781-5.898437-14.679687-8.859375-22.5h-146.503906c-2.957032 7.820313-5.921875 15.324219-8.855469 22.5zm0 0"
       id="path14" />
    <path
       d="m220.140625 262.53125h-75.285156c-1.753907 7.640625-3.582031 15.144531-5.476563 22.5h86.238282c-1.890626-7.355469-3.722657-14.859375-5.476563-22.5zm0 0"
       id="path16" />
  </g>
  <path
     d="m235.683594 237.234375h-106.371094c-4.855469 0-8.796875 3.941406-8.796875 8.800781v7.699219c0 4.859375 3.9375 8.796875 8.796875 8.796875h106.371094c4.859375 0 8.800781-3.9375 8.800781-8.796875v-7.699219c0-4.859375-3.941406-8.800781-8.800781-8.800781zm0 0"
     fill="#fed89b"
     id="path20" />
  <path
     d="m235.683594 237.234375h-22.398438c4.855469 0 8.796875 3.941406 8.796875 8.800781v7.699219c0 4.859375-3.9375 8.796875-8.796875 8.796875h22.398438c4.859375 0 8.800781-3.9375 8.800781-8.796875v-7.699219c0-4.859375-3.941406-8.800781-8.800781-8.800781zm0 0"
     fill="#d69e5b"
     id="path22" />
  <path
     d="m155.644531 52.386719-1.503906 19.058593c-.203125 2.558594 1.820313 4.746094 4.386719 4.746094h47.945312c2.566406 0 4.585938-2.1875 4.382813-4.746094l-1.503907-19.058593c-.179687-2.285157-2.089843-4.050781-4.386718-4.050781h-44.933594c-2.296875 0-4.203125 1.765624-4.386719 4.050781zm0 0"
     fill="#fed89b"
     id="path24" />
  <path
     d="m209.351562 52.386719c-.179687-2.285157-2.089843-4.050781-4.386718-4.050781h-17.542969c2.296875 0 4.207031 1.765624 4.386719 4.050781l1.503906 19.058593c.203125 2.558594-1.820312 4.746094-4.386719 4.746094h17.546875c2.566406 0 4.585938-2.1875 4.386719-4.746094zm0 0"
     fill="#d69e5b"
     id="path26" />
  <path
     d="m285.070312 360.417969v10.910156c0 4.859375-3.9375 8.800781-8.796874 8.800781h-187.546876c-4.859374 0-8.800781-3.941406-8.800781-8.800781v-10.910156c0-4.859375 3.941407-8.796875 8.800781-8.796875h187.546876c4.859374 0 8.796874 3.9375 8.796874 8.796875zm0 0"
     fill="#fed89b"
     id="path28" />
  <path
     d="m276.273438 351.621094h-23.5c4.859374 0 8.796874 3.9375 8.796874 8.796875v10.910156c0 4.859375-3.9375 8.800781-8.796874 8.800781h23.5c4.859374 0 8.796874-3.941406 8.796874-8.800781v-10.910156c0-4.859375-3.9375-8.796875-8.796874-8.796875zm0 0"
     fill="#d69e5b"
     id="path30" />
  <path
     d="m357.5 175.980469h-13.433594c.148438-1.386719.226563-2.789063.226563-4.199219 0-18.976562-13.613281-34.773438-31.503907-38.261719-.582031-18.445312-15.773437-33.273437-34.355468-33.273437-14.847656 0-27.6875 9.667968-32.421875 23.039062-5.878907-1.898437-12.207031-2.578125-18.410157-1.957031-4.125.414063-7.128906 4.089844-6.714843 8.210937.414062 4.121094 4.082031 7.121094 8.210937 6.714844 6.367188-.644531 12.914063.738282 18.582032 4.183594 2.292968 1.390625 5.152343 1.453125 7.5.164062 2.351562-1.289062 3.832031-3.734374 3.890624-6.410156.230469-10.445312 8.914063-18.945312 19.363282-18.945312 10.316406 0 18.777344 8.109375 19.34375 18.289062-6.25 1.234375-12.15625 3.988282-17.128906 8.050782-3.207032 2.617187-3.679688 7.34375-1.058594 10.550781 1.480468 1.816406 3.636718 2.753906 5.808594 2.753906 1.671874 0 3.351562-.550781 4.742187-1.691406 15.503906-12.667969 39.152344-1.707031 39.152344 18.582031 0 1.417969-.125 2.820312-.367188 4.195312h-63.570312c-.070313 0-.140625.003907-.207031.003907h-52.765626c-3.875-30.945313-5.980468-61.804688-6.277343-92.289063h.367187c3.308594 0 6.496094-1.394531 8.738282-3.824218 2.246093-2.429688 3.386718-5.714844 3.125-9.011719l-1.503907-19.058594c-.488281-6.144531-5.699219-10.960937-11.863281-10.960937h-14.96875v-33.335938c0-4.144531-3.359375-7.5-7.5-7.5-4.144531 0-7.5 3.355469-7.5 7.5v33.335938h-14.96875c-6.164062 0-11.375 4.8125-11.859375 10.960937l-1.507813 19.058594c-.261718 3.296875.878907 6.582031 3.125 9.011719 2.246094 2.429687 5.429688 3.824218 8.738282 3.824218h.363281c-.464844 48.121094-5.4375 97.183594-14.789063 146.042969h-14.789062c-8.984375 0-16.296875 7.3125-16.296875 16.300781v7.699219c0 8.984375 7.3125 16.296875 16.296875 16.296875h6.074219c-5.988281 24.84375-13.128907 49.703125-21.28125 74.089844h-25.378907c-8.988281 0-16.300781 7.3125-16.300781 16.300781v10.90625c0 8.988281 7.3125 16.300781 16.300781 16.300781h9.589844c-3.816406 9.742188-7.78125 19.363282-11.839844 28.71875-1.644531 3.800782.097657 8.21875 3.898438 9.863282.972656.421874 1.984375.621093 2.980469.621093 2.898437 0 5.65625-1.6875 6.882812-4.519531 4.886719-11.265625 9.640625-22.910156 14.167969-34.683594h136.175781c20.617188 53.59375 40.917969 91.492188 51.214844 109.371094h-39.964844c1.554688-44.460938-34.316406-82-79.332031-82s-80.890625 37.535156-79.335938 82h-39.976562c5.609375-9.75 14.203125-25.488281 24.25-46.550781 1.785156-3.738281.199219-8.214844-3.539062-10-3.738282-1.785157-8.214844-.199219-10 3.542969-13.046876 27.351562-23.753907 45.765624-28.128907 53.007812h-23.085937c-4.140625 0-7.5 3.355469-7.5 7.5s3.359375 7.5 7.5 7.5h113.226562c4.140625 0 7.5-3.355469 7.5-7.5s-3.359375-7.5-7.5-7.5h-17.734375c-1.539062-36.128906 27.503907-67 64.324219-67 36.863281 0 65.859375 30.910156 64.320312 67h-17.730468c-4.144532 0-7.5 3.355469-7.5 7.5s3.355468 7.5 7.5 7.5h113.226562c4.140625 0 7.5-3.355469 7.5-7.5s-3.359375-7.5-7.5-7.5h-23.089844c-6.886718-11.40625-29.472656-50.546875-52.550781-109.371094h9.597657c8.984374 0 16.296874-7.3125 16.296874-16.300781v-10.910156c0-8.984375-7.3125-16.296875-16.296874-16.296875h-25.382813c-4.316406-12.917969-8.355469-25.972656-12.027344-38.882813-1.132812-3.984375-5.28125-6.296875-9.265625-5.164062-3.984375 1.136719-6.296875 5.28125-5.164062 9.269531 3.285156 11.542969 6.855468 23.199219 10.65625 34.777344h-16.566406c-5.234376-16.316406-10.0625-32.910156-14.367188-49.390625-.863281-3.300781-3.84375-5.601563-7.257812-5.601563h-28.800782c-3.410156 0-6.390625 2.300782-7.253906 5.601563-4.304688 16.484375-9.132812 33.074219-14.367188 49.390625h-16.570312c8.015625-24.421875 15.027344-49.273438 20.90625-74.089844h63.378906c.824219 3.472656 1.664063 6.929688 2.511719 10.328125.847656 3.410156 3.90625 5.691406 7.269531 5.691406.597656 0 1.207032-.070312 1.816406-.222656 4.019532-1 6.46875-5.070313 5.46875-9.089844-.550781-2.214843-1.097656-4.457031-1.640624-6.707031h6.066406c8.988281 0 16.300781-7.3125 16.300781-16.300781v-7.699219c0-8.984375-7.3125-16.296875-16.300781-16.296875h-14.789063c-2.46875-12.910156-4.636719-25.835937-6.492187-38.753906h143.097656c4.140625 0 7.5-3.359375 7.5-7.5 0-4.144531-3.359375-7.5-7.5-7.5zm-79.929688 184.4375v10.910156c0 2.023437 10.609376 1.296875-188.84375 1.300781-.71875 0-1.300781-.582031-1.300781-1.300781v-10.910156c0-.714844.582031-1.296875 1.300781-1.296875h30.597657.164062.164063 125.691406.164062.164063 30.601563c.714843 0 1.296874.582031 1.296874 1.296875zm-103.695312-56.289063h17.25c3.578125 13.351563 7.484375 26.75 11.65625 39.992188h-40.566406c4.175781-13.242188 8.082031-26.640625 11.660156-39.992188zm-10.976562-248.292968h39.203124l1.015626 12.855468h-41.234376zm74.085937 190.199218v7.695313c0 .71875-.585937 1.300781-1.300781 1.300781h-15.363282c-.117187-.003906-.234374-.003906-.351562 0-9.789062 0-80.113281 0-90.65625 0-.714844 0-1.296875-.582031-1.296875-1.300781v-7.695313c0-.71875.582031-1.300781 1.296875-1.300781h20.691406c.09375.003906.1875.007813.285156.007813.09375 0 .1875-.003907.285157-.007813h63.820312c.210938.007813.421875.007813.632813 0h20.65625c.714844 0 1.300781.582031 1.300781 1.300781zm-77.613281-16.300781c9.183594-48.859375 14.0625-97.90625 14.523437-146.042969h17.210938c.316406 33.144532 2.726562 66.714844 7.195312 100.355469.019531.289063.058594.570313.113281.847656 2 14.945313 4.40625 29.902344 7.214844 44.839844zm0 0"
     id="path32" />
</svg>
