<?xml version="1.0" encoding="UTF-8" standalone="no"?>
<!-- Generator: Adobe Illustrator 16.0.0, SVG Export Plug-In . SVG Version: 6.00 Build 0)  -->

<svg
   xmlns:dc="http://purl.org/dc/elements/1.1/"
   xmlns:cc="http://creativecommons.org/ns#"
   xmlns:rdf="http://www.w3.org/1999/02/22-rdf-syntax-ns#"
   xmlns:svg="http://www.w3.org/2000/svg"
   xmlns="http://www.w3.org/2000/svg"
   xmlns:sodipodi="http://sodipodi.sourceforge.net/DTD/sodipodi-0.dtd"
   xmlns:inkscape="http://www.inkscape.org/namespaces/inkscape"
   version="1.1"
   id="Capa_1"
   x="0px"
   y="0px"
   width="95.334px"
   height="95.334px"
   viewBox="0 0 95.334 95.334"
   style="enable-background:new 0 0 95.334 95.334;"
   xml:space="preserve"
   sodipodi:docname="paris_metro.svg"
   inkscape:version="0.92.4 (5da689c313, 2019-01-14)"><metadata
   id="metadata45"><rdf:RDF><cc:Work
       rdf:about=""><dc:format>image/svg+xml</dc:format><dc:type
         rdf:resource="http://purl.org/dc/dcmitype/StillImage" /><dc:title></dc:title></cc:Work></rdf:RDF></metadata><defs
   id="defs43" /><sodipodi:namedview
   pagecolor="#ffffff"
   bordercolor="#666666"
   borderopacity="1"
   objecttolerance="10"
   gridtolerance="10"
   guidetolerance="10"
   inkscape:pageopacity="0"
   inkscape:pageshadow="2"
   inkscape:window-width="1920"
   inkscape:window-height="986"
   id="namedview41"
   showgrid="false"
   inkscape:zoom="2.4755072"
   inkscape:cx="10.30092"
   inkscape:cy="47.667001"
   inkscape:window-x="-11"
   inkscape:window-y="-11"
   inkscape:window-maximized="1"
   inkscape:current-layer="Capa_1" />
<circle
   style="opacity:1;fill:#f9f9f9;fill-opacity:1;fill-rule:nonzero;stroke:none;stroke-width:17.59522438;stroke-linecap:round;stroke-linejoin:round;stroke-miterlimit:4;stroke-dasharray:none;stroke-opacity:1;paint-order:markers fill stroke"
   id="path830"
   cx="47.667"
   cy="47.667"
   r="45" /><g
   id="g8"
   style="fill:#030083;fill-opacity:1"
   transform="matrix(0.96502822,0,0,0.96502822,1.6669997,1.6669997)">
	<g
   id="g6"
   style="fill:#030083;fill-opacity:1">
		<path
   d="M 47.784,0 C 21.447,0 0,21.449 0,47.904 c 0,26.215 21.447,47.43 47.784,47.43 26.337,0 47.55,-21.098 47.55,-47.43 C 95.334,21.449 73.168,0 47.784,0 Z m 0,89.011 C 25.145,89.011 6.555,70.546 6.555,47.905 6.555,25.148 25.146,6.314 47.784,6.314 c 22.526,0 40.995,18.95 40.995,41.591 0,22.404 -18.468,41.106 -40.995,41.106 z"
   id="path2"
   style="fill:#030083;fill-opacity:1"
   inkscape:connector-curvature="0" />
		<path
   d="m 66.139,22.644 c -2.973,0 -4.17,1.311 -5.479,3.934 L 47.787,53.389 H 47.67 L 34.68,26.577 c -1.313,-2.624 -2.502,-3.934 -5.482,-3.934 -3.932,0 -5.244,2.502 -5.244,4.884 v 41.587 c 0,2.27 1.791,3.575 3.932,3.575 1.906,0 4.051,-1.306 4.051,-3.575 v -30.98 h 0.121 l 11.797,24.071 c 0.835,1.668 1.91,2.626 3.816,2.626 1.901,0 2.979,-0.958 3.813,-2.626 L 63.279,38.134 H 63.4 v 30.98 c 0,2.27 2.143,3.575 4.05,3.575 2.147,0 3.932,-1.306 3.932,-3.575 V 27.528 c -0.001,-2.382 -1.308,-4.884 -5.243,-4.884 z"
   id="path4"
   style="fill:#030083;fill-opacity:1"
   inkscape:connector-curvature="0" />
	</g>
</g>
<g
   id="g10"
   style="fill:#030083;fill-opacity:1"
   transform="matrix(0.96502822,0,0,0.96502822,1.6669997,1.6669997)">
</g>
<g
   id="g12"
   style="fill:#030083;fill-opacity:1"
   transform="matrix(0.96502822,0,0,0.96502822,1.6669997,1.6669997)">
</g>
<g
   id="g14"
   style="fill:#030083;fill-opacity:1"
   transform="matrix(0.96502822,0,0,0.96502822,1.6669997,1.6669997)">
</g>
<g
   id="g16"
   style="fill:#030083;fill-opacity:1"
   transform="matrix(0.96502822,0,0,0.96502822,1.6669997,1.6669997)">
</g>
<g
   id="g18"
   style="fill:#030083;fill-opacity:1"
   transform="matrix(0.96502822,0,0,0.96502822,1.6669997,1.6669997)">
</g>
<g
   id="g20"
   style="fill:#030083;fill-opacity:1"
   transform="matrix(0.96502822,0,0,0.96502822,1.6669997,1.6669997)">
</g>
<g
   id="g22"
   style="fill:#030083;fill-opacity:1"
   transform="matrix(0.96502822,0,0,0.96502822,1.6669997,1.6669997)">
</g>
<g
   id="g24"
   style="fill:#030083;fill-opacity:1"
   transform="matrix(0.96502822,0,0,0.96502822,1.6669997,1.6669997)">
</g>
<g
   id="g26"
   style="fill:#030083;fill-opacity:1"
   transform="matrix(0.96502822,0,0,0.96502822,1.6669997,1.6669997)">
</g>
<g
   id="g28"
   style="fill:#030083;fill-opacity:1"
   transform="matrix(0.96502822,0,0,0.96502822,1.6669997,1.6669997)">
</g>
<g
   id="g30"
   style="fill:#030083;fill-opacity:1"
   transform="matrix(0.96502822,0,0,0.96502822,1.6669997,1.6669997)">
</g>
<g
   id="g32"
   style="fill:#030083;fill-opacity:1"
   transform="matrix(0.96502822,0,0,0.96502822,1.6669997,1.6669997)">
</g>
<g
   id="g34"
   style="fill:#030083;fill-opacity:1"
   transform="matrix(0.96502822,0,0,0.96502822,1.6669997,1.6669997)">
</g>
<g
   id="g36"
   style="fill:#030083;fill-opacity:1"
   transform="matrix(0.96502822,0,0,0.96502822,1.6669997,1.6669997)">
</g>
<g
   id="g38"
   style="fill:#030083;fill-opacity:1"
   transform="matrix(0.96502822,0,0,0.96502822,1.6669997,1.6669997)">
</g>
</svg>