<?xml version="1.0" encoding="UTF-8" standalone="no"?>
<!-- Generator: Adobe Illustrator 19.0.0, SVG Export Plug-In . SVG Version: 6.00 Build 0)  -->

<svg
   xmlns:dc="http://purl.org/dc/elements/1.1/"
   xmlns:cc="http://creativecommons.org/ns#"
   xmlns:rdf="http://www.w3.org/1999/02/22-rdf-syntax-ns#"
   xmlns:svg="http://www.w3.org/2000/svg"
   xmlns="http://www.w3.org/2000/svg"
   xmlns:sodipodi="http://sodipodi.sourceforge.net/DTD/sodipodi-0.dtd"
   xmlns:inkscape="http://www.inkscape.org/namespaces/inkscape"
   version="1.1"
   id="Capa_1"
   x="0px"
   y="0px"
   viewBox="0 0 512 512"
   style="enable-background:new 0 0 512 512;"
   xml:space="preserve"
   sodipodi:docname="penguin.svg"
   inkscape:version="0.92.4 (5da689c313, 2019-01-14)"><metadata
   id="metadata53"><rdf:RDF><cc:Work
       rdf:about=""><dc:format>image/svg+xml</dc:format><dc:type
         rdf:resource="http://purl.org/dc/dcmitype/StillImage" /></cc:Work></rdf:RDF></metadata><defs
   id="defs51" /><sodipodi:namedview
   pagecolor="#ffffff"
   bordercolor="#666666"
   borderopacity="1"
   objecttolerance="10"
   gridtolerance="10"
   guidetolerance="10"
   inkscape:pageopacity="0"
   inkscape:pageshadow="2"
   inkscape:window-width="1920"
   inkscape:window-height="986"
   id="namedview49"
   showgrid="false"
   inkscape:zoom="0.4609375"
   inkscape:cx="1.0847458"
   inkscape:cy="256"
   inkscape:window-x="-11"
   inkscape:window-y="-11"
   inkscape:window-maximized="1"
   inkscape:current-layer="Capa_1" />
<path
   style="fill:#FFFFFF;"
   d="M287.14,278.28l-1.38-0.7l-55.12-89.02c0,0-13.67-54.66-17.5-69.99l-30.13-15.06  c-29.97,25.86-47.01,83.36-47.01,122.62c0,40.86,0,135.87,60,215.87l80,60h40c0,0,0-74.87,0-106.39  C315.829,327.21,288.53,281.83,287.14,278.28z"
   id="path2" />
<g
   id="g8"
   style="fill:#666666">
	<path
   style="fill:#666666"
   d="M285.76,277.58c-5.3,11.7-9.76,20.88-9.76,27.29V396c-39.18,0-64.47-57.66-55.44-102.79l11.94-65.72   c5.34-26.69,4.45-13.72-1.86-38.93c0,0-13.67-54.66-17.5-69.99c-2.492-1.246,13.816,6.908-57.14-28.57V30   c17-7.35,31.65-20,58.37-20c52.21,0,62.5,33.21,126.2,122.39c69.16,96.84,58.58,184.68,44.73,267.81C379.46,435.22,396,482,456,502   H316c0-31.077,0-70.091,0-106.39c-0.17-68.4-27.47-113.78-28.86-117.33L285.76,277.58z"
   id="path4" />
	<path
   style="fill:#666666"
   d="M276,502h-140c0-33.14,26.86-60,60-60L276,502z"
   id="path6" />
</g>
<path
   style="fill:#FFD87D;"
   d="M155.999,30v60L56,70l10.96-8.77C109.19,27.44,153.929,30.36,155.999,30z"
   id="path10" />
<path
   d="M296,160c-5.52,0-10,4.48-10,10s4.48,10,10,10s10-4.48,10-10S301.52,160,296,160z"
   id="path12" />
<path
   d="M195.999,40c-5.52,0-10,4.48-10,10s4.48,10,10,10s10-4.48,10-10S201.52,40,195.999,40z"
   id="path14" />
<path
   d="M404.018,270.48c-4.961-51.663-23.053-98.734-55.311-143.903c-12.117-16.964-22.269-31.858-31.226-44.999  C279.306,25.564,261.882,0,214.369,0c-22.376,0-37.178,7.856-50.236,14.789c-3.591,1.906-7.01,3.706-10.428,5.271  c-33.668,0.468-66.671,12.301-92.993,33.362l-10.96,8.77c-3.035,2.429-4.388,6.396-3.469,10.173s3.943,6.68,7.755,7.441  l98.686,19.737l13.545,6.773C140.042,137.144,126,188.727,126,226.13c0,39.368,0.011,128.658,52.349,208.128  C148.268,442.102,126,469.498,126,502c0,5.522,4.477,10,10,10c12.305,0,306.537,0,320,0c4.904,0,9.085-3.557,9.871-8.398  c0.785-4.841-2.056-9.537-6.709-11.089c-55.322-18.44-69.052-60.367-63.998-90.669C402.053,360.483,408.415,316.271,404.018,270.48z   M145.999,77.802L79.286,64.459c19.592-13.886,42.797-22.247,66.714-24.05V77.802z M184.817,115.59l19.735,9.868  c18.217,72.884,17.411,70.299,20.451,79.687c1.279,3.949,1.422,2.508-0.442,11.339c-0.506,2.396-1.127,5.344-1.868,9.045  c-0.012,0.059-0.022,0.116-0.033,0.175l-11.924,65.634c-6.283,31.548,2.394,68.468,21.604,91.902  C244.546,398.13,259.643,406,276,406c5.522,0,10-4.478,10-10v-91.13c0-1.003,0.29-2.363,0.777-3.962  c15.575,36.69,19.164,71.108,19.223,94.702V492h-26.667l-76.179-57.135c-57.155-77.104-57.154-169.268-57.154-208.735  C145.999,191.104,160.712,140.778,184.817,115.59z M192.815,452.112L245.999,492h-98.996  C151.445,470.217,170.096,453.548,192.815,452.112z M414.733,492H326v-96.414c-0.072-29.117-5.116-73.433-28.7-119.327  c8.212-18.721,16.108-40.668,15.718-67.026c-0.081-5.522-4.599-9.908-10.146-9.852c-5.522,0.082-9.934,4.625-9.852,10.146  c0.367,24.831-8.257,46.018-16.37,63.927l-1.365,3.004C270.096,287.853,266,296.854,266,304.87v79.371  c-7.902-2.834-14.033-8.607-18.191-13.681c-15.394-18.779-22.567-49.78-17.443-75.389c0.012-0.058,0.022-0.116,0.033-0.175  l11.924-65.635c3.938-19.662,5.051-20.053,1.709-30.378c-2.932-9.059-2.184-6.77-21.19-82.838c-0.708-2.833-2.619-5.216-5.23-6.521  L165.999,83.82V36.348c2.558-1.274,5.062-2.593,7.511-3.894C185.576,26.05,196.971,20,214.369,20  c36.939,0,49.45,18.355,86.586,72.842c9.015,13.227,19.231,28.217,31.477,45.359c64.771,90.695,57.796,171.569,43.003,260.354  C369.773,432.508,383.066,468.376,414.733,492z"
   id="path16" />
<g
   id="g18">
</g>
<g
   id="g20">
</g>
<g
   id="g22">
</g>
<g
   id="g24">
</g>
<g
   id="g26">
</g>
<g
   id="g28">
</g>
<g
   id="g30">
</g>
<g
   id="g32">
</g>
<g
   id="g34">
</g>
<g
   id="g36">
</g>
<g
   id="g38">
</g>
<g
   id="g40">
</g>
<g
   id="g42">
</g>
<g
   id="g44">
</g>
<g
   id="g46">
</g>
</svg>