<?xml version="1.0" encoding="UTF-8" standalone="no"?>
<svg
   xmlns:dc="http://purl.org/dc/elements/1.1/"
   xmlns:cc="http://creativecommons.org/ns#"
   xmlns:rdf="http://www.w3.org/1999/02/22-rdf-syntax-ns#"
   xmlns:svg="http://www.w3.org/2000/svg"
   xmlns="http://www.w3.org/2000/svg"
   xmlns:sodipodi="http://sodipodi.sourceforge.net/DTD/sodipodi-0.dtd"
   xmlns:inkscape="http://www.inkscape.org/namespaces/inkscape"
   id="emoji"
   viewBox="0 0 72 72"
   version="1.1"
   sodipodi:docname="people1.svg"
   inkscape:version="0.92.4 (5da689c313, 2019-01-14)">
  <metadata
     id="metadata32">
    <rdf:RDF>
      <cc:Work
         rdf:about="">
        <dc:format>image/svg+xml</dc:format>
        <dc:type
           rdf:resource="http://purl.org/dc/dcmitype/StillImage" />
        <dc:title></dc:title>
      </cc:Work>
    </rdf:RDF>
  </metadata>
  <defs
     id="defs30" />
  <sodipodi:namedview
     pagecolor="#ffffff"
     bordercolor="#666666"
     borderopacity="1"
     objecttolerance="10"
     gridtolerance="10"
     guidetolerance="10"
     inkscape:pageopacity="0"
     inkscape:pageshadow="2"
     inkscape:window-width="1920"
     inkscape:window-height="986"
     id="namedview28"
     showgrid="false"
     inkscape:zoom="3.2777778"
     inkscape:cx="37.220339"
     inkscape:cy="36"
     inkscape:window-x="-11"
     inkscape:window-y="-11"
     inkscape:window-maximized="1"
     inkscape:current-layer="emoji" />
  <g
     id="color" />
  <g
     id="skin"
     transform="matrix(0.97652975,0,0,0.97652975,-16.474258,0.87739901)">
    <g
       id="skin-b">
      <path
         d="M 51.8023,41.22 51.1091,24.2945 a 3.7052,3.7052 0 0 0 -3.64,-3.5586 h -5.2 a 3.7052,3.7052 0 0 0 -3.64,3.5586 l -1.9923,16.8384 c 0,0.0868 0.1733,0.6076 0.0866,0.6944 l 3.64,-2.17 -0.78,19.1821 a 1.41,1.41 0 0 0 0.4333,0.7812 0.3026,0.3026 0 0 0 0.1733,0.0868 0.9353,0.9353 0 0 0 0.6067,-0.9548 L 42.963,39.2234 A 4.3008,4.3008 0 0 1 43.31,38.095 l 0.8666,-0.5208 h 1.3866 l 0.6066,0.6944 A 2.47,2.47 0 0 1 46.516,39.31 l 2.5132,19.53 c 0.0867,0.6076 0.4333,0.9548 0.6066,0.9548 0.0867,0 0.0867,0 0.1733,-0.0868 a 0.8335,0.8335 0 0 0 0.1734,-0.7812 L 49.3758,39.7447 51.889,41.5674 A 0.5223,0.5223 0 0 1 51.8023,41.22 Z"
         id="path3"
         inkscape:connector-curvature="0"
         style="fill:#debb90" />
      <ellipse
         cx="44.782799"
         cy="14.2258"
         rx="2.5998001"
         ry="2.6039"
         id="ellipse5"
         style="fill:#debb90" />
    </g>
    <g
       id="skin-a">
      <path
         d="M 18.5642,41.6705 21.0774,39.8478 20.4708,59.03 a 0.8333,0.8333 0 0 0 0.1733,0.7811 c 0.0866,0.0868 0.0866,0.0868 0.1733,0.0868 0.1733,0 0.52,-0.3472 0.6066,-0.9547 l 2.5132,-19.5294 a 2.47,2.47 0 0 1 0.3466,-1.0416 l 0.6066,-0.6944 h 1.3866 l 0.8666,0.5208 A 4.3046,4.3046 0 0 1 27.49,39.327 l 2.1665,19.5294 a 0.9353,0.9353 0 0 0 0.6066,0.9547 0.3022,0.3022 0 0 0 0.1733,-0.0868 1.41,1.41 0 0 0 0.4333,-0.7811 L 30.09,39.761 l 3.64,2.17 c -0.0867,-0.0868 0.0867,-0.6076 0.0867,-0.6944 L 31.8233,24.3979 a 3.7051,3.7051 0 0 0 -3.64,-3.5587 h -5.2 a 3.705,3.705 0 0 0 -3.64,3.5587 L 18.65,41.3233 a 0.5223,0.5223 0 0 1 -0.0858,0.3472 z"
         id="path8"
         inkscape:connector-curvature="0"
         style="fill:#c19a65" />
      <ellipse
         cx="25.670401"
         cy="14.3294"
         rx="2.5998001"
         ry="2.6039"
         id="ellipse10"
         style="fill:#c19a65" />
    </g>
  </g>
  <g
     id="line"
     transform="matrix(0.97652975,0,0,0.97652975,-16.474258,0.87739901)">
    <ellipse
       cx="44.782799"
       cy="14.2258"
       rx="2.5998001"
       ry="2.6039"
       stroke-miterlimit="10"
       id="ellipse14"
       style="fill:none;stroke:#000000;stroke-width:2;stroke-miterlimit:10" />
    <path
       d="M 49.1159,25.4226 48.9647,29.464 A 7.2955,7.2955 0 0 0 49.01,30.59 l 0.6325,5.3742 1.12,22.441 A 1.47,1.47 0 0 1 49.5493,60.1411 1.7648,1.7648 0 0 1 48.076,58.4052 L 45.9094,39.31 c -0.0866,-0.9548 -0.6066,-1.736 -1.04,-1.736 -0.4334,0 -0.9533,0.7812 -1.04,1.736 L 41.6631,58.4056 A 1.8509,1.8509 0 0 1 40.19,60.1415 1.47,1.47 0 0 1 38.9768,58.4056 c 0,0 1.18,-13.9332 1.6436,-23.882 0.0739,-1.5875 0.3609,-2.689 0.3605,-4.0827 0,-0.2756 0.02,-0.81 0.011,-1.0611 -0.06,-1.7542 -0.3361,-3.2836 -0.3686,-3.9572"
       id="path16"
       inkscape:connector-curvature="0"
       style="fill:none;stroke:#000000;stroke-width:2;stroke-linecap:round;stroke-linejoin:round" />
    <path
       d="m 36.1168,41.3933 c 0,0 1.1266,-6.5966 1.3,-8.7665 0.1733,-1.9964 0.26,-8.0722 0.26,-8.0722 a 4.5,4.5 0 0 1 4.5063,-4.34 h 5.2 a 4.5,4.5 0 0 1 4.5063,4.34 l 0.6933,16.4915"
       id="path18"
       inkscape:connector-curvature="0"
       style="fill:none;stroke:#000000;stroke-width:2;stroke-linecap:round;stroke-linejoin:round" />
    <ellipse
       cx="25.670401"
       cy="14.3294"
       rx="2.5998001"
       ry="2.6039"
       stroke-miterlimit="10"
       id="ellipse20"
       style="fill:none;stroke:#000000;stroke-width:2;stroke-miterlimit:10" />
    <path
       d="m 29.83,25.5262 c -0.0324,0.6737 -0.3084,2.203 -0.3685,3.9572 -0.0086,0.2513 0.011,0.7855 0.0109,1.0611 0,1.3937 0.2866,2.4952 0.3606,4.0827 0.4633,9.9488 1.6435,23.882 1.6435,23.882 A 1.47,1.47 0 0 1 30.2633,60.2451 1.8508,1.8508 0 0 1 28.79,58.5092 L 26.6237,39.4138 c -0.0867,-0.9548 -0.6067,-1.736 -1.04,-1.736 -0.4333,0 -0.9532,0.7812 -1.04,1.736 l -2.1664,19.0954 a 1.7647,1.7647 0 0 1 -1.4732,1.7359 1.47,1.47 0 0 1 -1.2133,-1.7359 l 1.12,-22.4409 0.6325,-5.3743 a 7.3073,7.3073 0 0 0 0.045,-1.1263 l -0.1512,-4.0415"
       id="path22"
       inkscape:connector-curvature="0"
       style="fill:none;stroke:#000000;stroke-width:2;stroke-linecap:round;stroke-linejoin:round" />
    <path
       d="m 17.8709,41.15 0.6933,-16.4914 a 4.5,4.5 0 0 1 4.5064,-4.34 h 5.2 a 4.5,4.5 0 0 1 4.5063,4.34 c 0,0 0.0867,6.0758 0.26,8.0721 0.1733,2.17 1.3,8.7665 1.3,8.7665"
       id="path24"
       inkscape:connector-curvature="0"
       style="fill:none;stroke:#000000;stroke-width:2;stroke-linecap:round;stroke-linejoin:round" />
  </g>
  <g
     transform="translate(80.095234,-8.475872)"
     id="color-9" />
  <g
     transform="translate(21.518963,0.06650085)"
     id="color-5" />
  <g
     transform="matrix(0.97652975,0,0,0.97652975,19.674222,0.94233911)"
     id="skin-2">
    <g
       id="skin-b-6">
      <path
         style="fill:#fadcbc"
         inkscape:connector-curvature="0"
         d="M 51.8023,41.22 51.1091,24.2945 a 3.7052,3.7052 0 0 0 -3.64,-3.5586 h -5.2 a 3.7052,3.7052 0 0 0 -3.64,3.5586 l -1.9923,16.8384 c 0,0.0868 0.1733,0.6076 0.0866,0.6944 l 3.64,-2.17 -0.78,19.1821 a 1.41,1.41 0 0 0 0.4333,0.7812 0.3026,0.3026 0 0 0 0.1733,0.0868 0.9353,0.9353 0 0 0 0.6067,-0.9548 L 42.963,39.2234 A 4.3008,4.3008 0 0 1 43.31,38.095 l 0.8666,-0.5208 h 1.3866 l 0.6066,0.6944 A 2.47,2.47 0 0 1 46.516,39.31 l 2.5132,19.53 c 0.0867,0.6076 0.4333,0.9548 0.6066,0.9548 0.0867,0 0.0867,0 0.1733,-0.0868 a 0.8335,0.8335 0 0 0 0.1734,-0.7812 L 49.3758,39.7447 51.889,41.5674 A 0.5223,0.5223 0 0 1 51.8023,41.22 Z"
         id="path3-9" />
      <ellipse
         style="fill:#fadcbc"
         cx="44.782799"
         cy="14.2258"
         rx="2.5998001"
         ry="2.6039"
         id="ellipse5-2" />
    </g>
    <g
       id="skin-a-6">
      <path
         style="fill:#6a462f"
         inkscape:connector-curvature="0"
         d="M 18.5642,41.6705 21.0774,39.8478 20.4708,59.03 a 0.8333,0.8333 0 0 0 0.1733,0.7811 c 0.0866,0.0868 0.0866,0.0868 0.1733,0.0868 0.1733,0 0.52,-0.3472 0.6066,-0.9547 l 2.5132,-19.5294 a 2.47,2.47 0 0 1 0.3466,-1.0416 l 0.6066,-0.6944 h 1.3866 l 0.8666,0.5208 A 4.3046,4.3046 0 0 1 27.49,39.327 l 2.1665,19.5294 a 0.9353,0.9353 0 0 0 0.6066,0.9547 0.3022,0.3022 0 0 0 0.1733,-0.0868 1.41,1.41 0 0 0 0.4333,-0.7811 L 30.09,39.761 l 3.64,2.17 c -0.0867,-0.0868 0.0867,-0.6076 0.0867,-0.6944 L 31.8233,24.3979 a 3.7051,3.7051 0 0 0 -3.64,-3.5587 h -5.2 a 3.705,3.705 0 0 0 -3.64,3.5587 L 18.65,41.3233 a 0.5223,0.5223 0 0 1 -0.0858,0.3472 z"
         id="path8-9" />
      <ellipse
         style="fill:#6a462f"
         cx="25.670401"
         cy="14.3294"
         rx="2.5998001"
         ry="2.6039"
         id="ellipse10-6" />
    </g>
  </g>
  <g
     transform="matrix(0.97652975,0,0,0.97652975,19.674222,0.94233911)"
     id="line-0">
    <ellipse
       style="fill:none;stroke:#000000;stroke-width:2;stroke-miterlimit:10"
       cx="44.782799"
       cy="14.2258"
       rx="2.5998001"
       ry="2.6039"
       stroke-miterlimit="10"
       id="ellipse14-4" />
    <path
       style="fill:none;stroke:#000000;stroke-width:2;stroke-linecap:round;stroke-linejoin:round"
       inkscape:connector-curvature="0"
       d="M 49.1159,25.4226 48.9647,29.464 A 7.2955,7.2955 0 0 0 49.01,30.59 l 0.6325,5.3742 1.12,22.441 A 1.47,1.47 0 0 1 49.5493,60.1411 1.7648,1.7648 0 0 1 48.076,58.4052 L 45.9094,39.31 c -0.0866,-0.9548 -0.6066,-1.736 -1.04,-1.736 -0.4334,0 -0.9533,0.7812 -1.04,1.736 L 41.6631,58.4056 A 1.8509,1.8509 0 0 1 40.19,60.1415 1.47,1.47 0 0 1 38.9768,58.4056 c 0,0 1.18,-13.9332 1.6436,-23.882 0.0739,-1.5875 0.3609,-2.689 0.3605,-4.0827 0,-0.2756 0.02,-0.81 0.011,-1.0611 -0.06,-1.7542 -0.3361,-3.2836 -0.3686,-3.9572"
       id="path16-8" />
    <path
       style="fill:none;stroke:#000000;stroke-width:2;stroke-linecap:round;stroke-linejoin:round"
       inkscape:connector-curvature="0"
       d="m 36.1168,41.3933 c 0,0 1.1266,-6.5966 1.3,-8.7665 0.1733,-1.9964 0.26,-8.0722 0.26,-8.0722 a 4.5,4.5 0 0 1 4.5063,-4.34 h 5.2 a 4.5,4.5 0 0 1 4.5063,4.34 l 0.6933,16.4915"
       id="path18-6" />
    <ellipse
       style="fill:none;stroke:#000000;stroke-width:2;stroke-miterlimit:10"
       cx="25.670401"
       cy="14.3294"
       rx="2.5998001"
       ry="2.6039"
       stroke-miterlimit="10"
       id="ellipse20-0" />
    <path
       style="fill:none;stroke:#000000;stroke-width:2;stroke-linecap:round;stroke-linejoin:round"
       inkscape:connector-curvature="0"
       d="m 29.83,25.5262 c -0.0324,0.6737 -0.3084,2.203 -0.3685,3.9572 -0.0086,0.2513 0.011,0.7855 0.0109,1.0611 0,1.3937 0.2866,2.4952 0.3606,4.0827 0.4633,9.9488 1.6435,23.882 1.6435,23.882 A 1.47,1.47 0 0 1 30.2633,60.2451 1.8508,1.8508 0 0 1 28.79,58.5092 L 26.6237,39.4138 c -0.0867,-0.9548 -0.6067,-1.736 -1.04,-1.736 -0.4333,0 -0.9532,0.7812 -1.04,1.736 l -2.1664,19.0954 a 1.7647,1.7647 0 0 1 -1.4732,1.7359 1.47,1.47 0 0 1 -1.2133,-1.7359 l 1.12,-22.4409 0.6325,-5.3743 a 7.3073,7.3073 0 0 0 0.045,-1.1263 l -0.1512,-4.0415"
       id="path22-9" />
    <path
       style="fill:none;stroke:#000000;stroke-width:2;stroke-linecap:round;stroke-linejoin:round"
       inkscape:connector-curvature="0"
       d="m 17.8709,41.15 0.6933,-16.4914 a 4.5,4.5 0 0 1 4.5064,-4.34 h 5.2 a 4.5,4.5 0 0 1 4.5063,4.34 c 0,0 0.0867,6.0758 0.26,8.0721 0.1733,2.17 1.3,8.7665 1.3,8.7665"
       id="path24-7" />
  </g>
</svg>
