<?xml version="1.0" encoding="UTF-8" standalone="no"?>
<!-- Generator: Adobe Illustrator 16.0.0, SVG Export Plug-In . SVG Version: 6.00 Build 0)  -->

<svg
   xmlns:dc="http://purl.org/dc/elements/1.1/"
   xmlns:cc="http://creativecommons.org/ns#"
   xmlns:rdf="http://www.w3.org/1999/02/22-rdf-syntax-ns#"
   xmlns:svg="http://www.w3.org/2000/svg"
   xmlns="http://www.w3.org/2000/svg"
   xmlns:sodipodi="http://sodipodi.sourceforge.net/DTD/sodipodi-0.dtd"
   xmlns:inkscape="http://www.inkscape.org/namespaces/inkscape"
   version="1.1"
   id="Capa_1"
   x="0px"
   y="0px"
   width="800px"
   height="800px"
   viewBox="0 0 800 800"
   enable-background="new 0 0 800 800"
   xml:space="preserve"
   sodipodi:docname="peru_flag.svg"
   inkscape:version="0.92.4 (5da689c313, 2019-01-14)"><metadata
   id="metadata21"><rdf:RDF><cc:Work
       rdf:about=""><dc:format>image/svg+xml</dc:format><dc:type
         rdf:resource="http://purl.org/dc/dcmitype/StillImage" /></cc:Work></rdf:RDF></metadata><defs
   id="defs19" /><sodipodi:namedview
   pagecolor="#ffffff"
   bordercolor="#666666"
   borderopacity="1"
   objecttolerance="10"
   gridtolerance="10"
   guidetolerance="10"
   inkscape:pageopacity="0"
   inkscape:pageshadow="2"
   inkscape:window-width="1920"
   inkscape:window-height="986"
   id="namedview17"
   showgrid="false"
   inkscape:zoom="3.337544"
   inkscape:cx="441.49237"
   inkscape:cy="231.64264"
   inkscape:window-x="-11"
   inkscape:window-y="-11"
   inkscape:window-maximized="1"
   inkscape:current-layer="g14" />
<g
   id="g14">
	<path
   fill="#FFFFFF"
   d="M516.129,503.226V154.839H283.871v490.322h232.258v-90.322c0-7.128,5.775-12.903,12.903-12.903v-25.807   C521.904,516.129,516.129,510.354,516.129,503.226z"
   id="path2" />
	<path
   fill="#ED1F34"
   d="M540.936,646.161v-91.322c0-6.563-5.34-11.903-11.903-11.903h-1v-27.807h1   c6.563,0,11.903-5.34,11.903-11.903V153.839h234.258v492.322H540.936z"
   id="path4" />
	<path
   fill="#ED1F34"
   d="M541.936,503.226c0,7.128-5.775,12.903-12.903,12.903v25.807c7.128,0,12.903,5.775,12.903,12.903v90.322   h232.258V154.839H541.936V503.226z"
   id="path6" />
	<rect
   x="24.807"
   y="153.839"
   fill="#ED1F34"
   width="234.258"
   height="492.322"
   id="rect8" />
	<rect
   x="25.807"
   y="154.839"
   fill="#ED1F34"
   width="232.258"
   height="490.322"
   id="rect10" />
	<path
   d="M 787.097,129.032 H 12.903 C 5.777,129.032 0,134.808 0,141.936 v 516.129 c 0,7.128 5.777,12.903 12.903,12.903 h 774.193 c 7.128,0 12.903,-5.775 12.903,-12.903 V 141.936 C 800,134.808 794.225,129.032 787.097,129.032 Z M 774.193,645.161 H 541.936 V 502.839 c 0,-7.128 -5.775,7.097 -12.903,7.097 -7.128,0 -12.903,-14.225 -12.903,-7.097 V 645.161 H 283.871 V 154.839 h 232.258 v 348.387 c 0,7.128 5.775,12.903 12.903,12.903 7.128,0 12.903,-5.775 12.903,-12.903 V 154.839 H 774.193 V 645.161 Z M 25.807,154.839 H 258.065 V 645.161 H 25.807 Z"
   id="path12"
   inkscape:connector-curvature="0"
   sodipodi:nodetypes="ssssssscsccsssccccsssccccccccc" />
</g>
<g
   id="g862"
   transform="matrix(2.2033692,0,0,2.2033692,504.56667,-1624.112)"><path
     id="path28"
     d="m -38.561803,961.63179 -4.705,-3.668 c -3.684,-2.873 -7.947,-4.848 -12.326,-5.712 -26.705001,-5.265 -40.049001,-35.512 -25.870001,-58.793 0.972,-1.596 3.054,-2.104 4.651001,-1.13 1.597,0.972 2.102,3.055 1.13,4.651 -11.716001,19.238 -0.726,44.269 21.398,48.632 5.414,1.067 10.663,3.493 15.179,7.014 l 4.704,3.668 c 1.474,1.149 1.737,3.276 0.588,4.75 -1.149,1.474 -3.276,1.737 -4.749,0.588 z"
     style="fill:#1da774"
     inkscape:connector-curvature="0" /><path
     id="path30"
     d="m -61.100803,961.04379 c -1.15,-1.474 -0.886,-3.6 0.588,-4.75 l 4.704,-3.668 c 4.516,-3.521 9.764,-5.946 15.178,-7.014 22.093,-4.357 33.1279996,-29.373 21.399,-48.632 -0.972,-1.596 -0.466,-3.679 1.13,-4.651 1.596,-0.972 3.678,-0.467 4.651,1.13 14.1609996,23.253 0.872,53.521 -25.87,58.793 -4.379,0.864 -8.642,2.839 -12.326,5.712 l -4.705,3.668 c -1.473,1.149 -3.6,0.886 -4.749,-0.588 z"
     style="fill:#29b784"
     inkscape:connector-curvature="0" /><path
     id="path32"
     d="m -41.467803,881.68279 c 9.976,1.321 9.386,10.513 -0.411,13.139 -0.532,0.137 -0.991,0.403 -1.377,0.742 3.555,0.64 6.741,-0.776 8.03,-1.471 0.363,-0.195 0.811,-0.108 1.074,0.21 l 2.222,2.687 c 2.427,-2.144 4.444,-5.204 4.444,-9.453 0,-8.643 -8.588,-12.001 -13.129,-12.569 -1.848,-0.233 -3.529,1.076 -3.769,2.924 -0.238,1.848 1.069,3.543 2.916,3.791 z"
     style="fill:#1da774"
     inkscape:connector-curvature="0" /><path
     id="path34"
     d="m -62.983803,896.98979 2.222,-2.687 c 0.263,-0.318 0.711,-0.405 1.074,-0.21 1.288,0.694 4.472,2.11 8.024,1.472 -0.382,-0.336 -0.835,-0.601 -1.358,-0.74 -9.755,-2.618 -10.452,-11.799 -0.424,-13.142 1.848,-0.238 3.157,-1.926 2.925,-3.776 -0.232,-1.855 -1.923,-3.168 -3.778,-2.938 -4.541,0.568 -13.128,3.926 -13.128,12.569 -10e-4,4.248 2.015,7.307 4.443,9.452 z"
     style="fill:#1da774"
     inkscape:connector-curvature="0" /><path
     id="path36"
     d="m -53.217803,959.72979 c -1.591,0 -2.88,-1.289 -2.88,-2.88 v -9.74 c 0,-1.591 1.29,-2.88 2.88,-2.88 1.591,0 2.88,1.289 2.88,2.88 v 9.74 c 10e-4,1.591 -1.289,2.88 -2.88,2.88 z"
     style="fill:#f94169"
     inkscape:connector-curvature="0" /><path
     id="path40"
     d="m -41.695803,959.72979 c -1.591,0 -2.88,-1.289 -2.88,-2.88 v -9.74 c 0,-1.591 1.29,-2.88 2.88,-2.88 1.591,0 2.88,1.289 2.88,2.88 v 9.74 c 0,1.591 -1.29,2.88 -2.88,2.88 z"
     style="fill:#f94169"
     inkscape:connector-curvature="0" /><path
     id="path44"
     d="m -66.361803,926.32779 c 0,7.336 9.805,10.793 13.615,10.793 2.524,0 4.026,0.867 4.752,1.452 0.315,0.254 0.762,0.254 1.077,0 0.726,-0.585 2.228,-1.452 4.752,-1.452 3.809,0 13.615,-3.456 13.615,-10.793 0,-3.399 -1.877,-6.465 -3.023,-9.983 h -31.765 c -1.146,3.519 -3.023,6.584 -3.023,9.983 z"
     style="fill:#f94169"
     inkscape:connector-curvature="0" /><path
     id="path46"
     d="m -47.456803,916.34479 v -22.419 c -0.166,0 -0.332,0.048 -0.477,0.143 -4.872,3.197 -10.023,0.956 -11.755,0.023 -0.363,-0.195 -0.811,-0.108 -1.074,0.21 l -5.18,6.265 c -0.246,0.297 -0.264,0.722 -0.045,1.039 4.3,6.237 3.938,10.775 2.648,14.739 z"
     style="fill:#3ca6ee"
     inkscape:connector-curvature="0" /><path
     id="path48"
     d="m -25.874803,927.12379 c 0.653,-8.673 -8.32,-13.107 -0.823,-23.981 0.901,-1.307 0.825,-3.076 -0.187,-4.301 l -5.181,-6.265 c -1.08,-1.305 -2.947,-1.672 -4.445,-0.867 -1.507,0.812 -5.4,2.449 -8.984,0.096 -1.22,-0.8 -2.765,-0.761 -3.925,0 -3.585,2.351 -7.477,0.716 -8.987,-0.098 -1.493,-0.804 -3.362,-0.438 -4.442,0.869 l -5.181,6.264 c -1.012,1.225 -1.089,2.993 -0.187,4.301 7.447,10.8 -1.468,15.41 -0.823,23.981 0.528,7.46 9.499,12.705 16.291,12.705 1.801,0 2.735,0.596 3.053,0.853 1.298,1.046 3.178,1.045 4.475,-10e-4 0.318,-0.256 1.251,-0.852 3.052,-0.852 5.294,10e-4 15.699,-4.296 16.294,-12.704 z m -9.449,-29.99 3.398,4.108 c -3.053,4.889 -3.562,8.929 -3.073,12.396 h -9.75 v -15.635 c 3.81,1.01 7.351,0 9.425,-0.869 z m -14.84,0.87 v 15.634 h -9.75 c 0.49,-3.467 -0.019,-7.507 -3.072,-12.396 l 3.397,-4.109 c 2.965,1.244 6.315,1.695 9.425,0.871 z m 2.707,37.68 c -1.216,-0.681 -2.945,-1.27 -5.291,-1.27 -2.803,0 -10.907,-2.78 -10.907,-8.086 0,-2.266 1.201,-4.672 2.217,-7.275 h 27.962 c 0.997,2.563 2.217,5.025 2.217,7.275 0,5.306 -8.104,8.086 -10.907,8.086 -2.346,0 -4.076,0.589 -5.291,1.27 z"
     style="fill:#ffcb37"
     inkscape:connector-curvature="0" /></g></svg>