<?xml version="1.0" encoding="UTF-8" standalone="no"?>
<!-- Generator: Adobe Illustrator 16.0.0, SVG Export Plug-In . SVG Version: 6.00 Build 0)  -->

<svg
   xmlns:dc="http://purl.org/dc/elements/1.1/"
   xmlns:cc="http://creativecommons.org/ns#"
   xmlns:rdf="http://www.w3.org/1999/02/22-rdf-syntax-ns#"
   xmlns:svg="http://www.w3.org/2000/svg"
   xmlns="http://www.w3.org/2000/svg"
   xmlns:sodipodi="http://sodipodi.sourceforge.net/DTD/sodipodi-0.dtd"
   xmlns:inkscape="http://www.inkscape.org/namespaces/inkscape"
   version="1.1"
   id="Capa_1"
   x="0px"
   y="0px"
   width="800px"
   height="800px"
   viewBox="0 0 800 800"
   enable-background="new 0 0 800 800"
   xml:space="preserve"
   sodipodi:docname="philadelphia_liberty_place.svg"
   inkscape:version="0.92.4 (5da689c313, 2019-01-14)"><metadata
   id="metadata21"><rdf:RDF><cc:Work
       rdf:about=""><dc:format>image/svg+xml</dc:format><dc:type
         rdf:resource="http://purl.org/dc/dcmitype/StillImage" /><dc:title /></cc:Work></rdf:RDF></metadata><defs
   id="defs19" /><sodipodi:namedview
   pagecolor="#ffffff"
   bordercolor="#666666"
   borderopacity="1"
   objecttolerance="10"
   gridtolerance="10"
   guidetolerance="10"
   inkscape:pageopacity="0"
   inkscape:pageshadow="2"
   inkscape:window-width="1920"
   inkscape:window-height="986"
   id="namedview17"
   showgrid="false"
   inkscape:zoom="0.834386"
   inkscape:cx="1101.0752"
   inkscape:cy="266.78885"
   inkscape:window-x="-11"
   inkscape:window-y="-11"
   inkscape:window-maximized="1"
   inkscape:current-layer="g1262" />
<g
   id="g14">
	
	
	
	
	
	
<g
   id="g880"
   transform="matrix(1.7983376,0,0,1.7983376,-465.64669,-330.26855)"><g
     id="g1060"
     transform="translate(670.79089,-9.7296795)"><g
       id="g1106"
       transform="translate(-268.57576,-24.65832)"><g
         id="g1262"
         transform="translate(-44.517231,-124.40868)"><path
           sodipodi:nodetypes="scccscsccscsccs"
           inkscape:connector-curvature="0"
           id="path882-9"
           d="m 245.86901,726.11381 c -15.62971,-0.90973 -24.23514,-1.08758 -39.13888,-0.8089 l -19.10416,0.3572 -0.29312,-9.39327 c -0.16121,-5.1663 -0.38696,-20.3546 -0.50168,-33.75179 l -0.20857,-31.03137 15.59889,-16.69851 c 15.53791,-16.63324 24.02059,-24.07144 26.74554,-26.26104 1.05868,-0.85068 1.30913,-0.74007 4.00694,1.76954 1.58271,1.47231 10.19182,8.43743 20.51892,19.71147 l 17.64122,19.25881 -0.72285,26.92481 c -0.50521,18.81801 -1.83335,39.61492 -2.656,47.55329 -0.24159,2.33126 -0.58006,3.3931 -1.10022,3.45152 -0.41322,0.0464 -9.76693,-0.4404 -20.78603,-1.08176 z"
           style="fill:#b7bec8;stroke:none;stroke-width:0.55441946;fill-opacity:1" /><path
           style="fill:#000000;stroke:#000000;stroke-width:8.3410368;stroke-miterlimit:4;stroke-dasharray:none;stroke-opacity:1"
           d="m 154.68455,730.65127 c -0.23693,-0.23693 3.92108,-1.18436 3.69275,-2.75035 -0.22832,-1.56598 25.95702,0.64947 25.77473,-2.06173 -0.18228,-2.71118 -0.33219,-10.349 -0.43099,-14.02153 -0.0988,-3.67254 -0.14653,-28.91041 -0.12443,-33.36044 l 0.16479,-33.18821 20.42522,-20.31911 c 11.23387,-11.1755 22.08185,-20.31912 24.10662,-20.31912 2.02477,0 12.83663,8.42432 24.02635,18.72072 l 20.34497,18.7207 v 35.609 c 0,31.14737 -0.5002,54.51535 -3.9922,54.51535 -3.16139,0 -3.60364,0.81099 -2.12508,-4.56693 1.0269,-3.73517 2.34275,-39.49034 2.92412,-53.62962 l 1.05701,-25.70778 -19.24764,-19.36119 c -10.5862,-10.64864 -20.40953,-19.36118 -21.82962,-19.36118 -1.42009,0 -11.72559,9.19136 -22.9011,20.42523 l -20.31912,20.42523 0.24616,22.17419 c 0.20515,18.48006 -0.36423,24.63096 0.60428,52.70084 0.0983,2.84995 17.06973,-0.0361 41.8161,0.99135 l 69.0682,2.86776 0.50593,4.29318 -69.43927,-2.01296 c -19.23788,-0.55769 -36.52689,-1.09318 -38.40672,-0.37181 -1.87986,0.72136 -34.99332,0.53614 -35.94106,-0.41159 z m 142.67532,-57.38876 v -40.29827 l -34.02735,-33.96223 -34.02736,-33.96224 -35.11954,35.42146 -35.11954,35.42146 v 37.46898 58.59963 h -12.34767 -12.34765 v -66.3028 -45.17216 l 11.3287,-11.00969 c 10.75931,-10.45632 12.04958,-21.47344 11.28572,-37.69253 -0.67139,-14.25562 0,0 22.88716,-18.99728 48.92186,-32.16579 -4.23876,-3.98422 48.47889,-37.85234 l 26.38055,15.51248 29.67863,17.45184 c 33.69093,28.10471 3.16868,4.92851 6.46626,7.39182 12.53116,9.36081 9.11742,4.08523 10.29186,15.38234 3.15089,30.30885 2.84758,32.29038 11.32821,41.11619 l 9.67015,10.06377 -0.67323,45.10624 -0.67323,66.23688 -11.73029,0.75269 -11.73027,-0.35945 z m 19.75625,-5.89709 v -40.98571 l -9.58213,-10.8859 c -8.40706,-9.55089 -9.71531,-27.18468 -10.66804,-40.356 -0.96408,-13.32826 6.63512,-5.86185 -14.12305,-22.33669 -55.06084,-32.19007 1.11214,-1.11214 -53.9487,-32.19007 -1.24949,0.8393 -2.44922,1.64319 -3.6009,2.41287 -66.58816,44.50175 27.43433,-25.3263 -49.55972,25.7687 -30.86087,22.36498 -14.06959,10.72753 -13.9905,23.92328 0.0907,15.13296 0.1594,28.36632 -11.00683,39.22028 l -11.32644,11.00969 v 41.46787 62.59849 h 7.4086 7.4086 v -57.37091 -36.24031 l 36.31883,-36.61089 c 19.97538,-20.136 37.52777,-36.61091 39.00535,-36.61091 1.47757,0 18.47278,15.92199 37.76713,35.3822 l 35.08062,35.38222 v 38.70374 59.8344 h 7.40859 7.40859 z"
           id="path829-3"
           inkscape:connector-curvature="0"
           sodipodi:nodetypes="ssssscssscsscsccsscsssccscsccccccccccccssccccssccccccccccsccscsscccccccssscccccc" /><rect
           y="614.26123"
           x="215.11177"
           height="113.01606"
           width="7.7849674"
           id="rect896-0-46"
           style="fill:#000000;fill-opacity:1;fill-rule:evenodd;stroke-width:0.52211237" /><rect
           y="612.64771"
           x="232.02654"
           height="113.72987"
           width="7.7849674"
           id="rect896-0-4-0"
           style="fill:#000000;fill-opacity:1;fill-rule:evenodd;stroke-width:0.52375859" /><rect
           y="633.08875"
           x="198.19701"
           height="94.035172"
           width="7.7849674"
           id="rect896-4-10"
           style="fill:#000000;fill-opacity:1;fill-rule:evenodd;stroke-width:0.47625446" /><rect
           y="629.13513"
           x="248.9413"
           height="97.674042"
           width="7.7849674"
           id="rect896-4-7-4"
           style="fill:#000000;fill-opacity:1;fill-rule:evenodd;stroke-width:0.48538178" /><rect
           transform="rotate(20)"
           y="395.54889"
           x="382.1496"
           height="21.417267"
           width="7.7849674"
           id="rect896-0-46-0"
           style="fill:#000000;fill-opacity:1;fill-rule:evenodd;stroke-width:0.22728769" /><path
           transform="matrix(0.55606912,0,0,0.55606912,-103.61221,319.60612)"
           inkscape:connector-curvature="0"
           id="path1108"
           d="m 733.94009,645.21982 v -87.50841 l -45.09304,-45.29052 c -55.34884,-55.59123 -80.65493,-79.74209 -86.99233,-83.02111 -1.98265,-1.02583 -2.68401,-1.11429 -4.49433,-0.56678 -5.28585,1.59863 -28.35495,23.44565 -87.98157,83.32078 l -49.88192,50.08982 -0.005,83.14497 -0.005,83.14497 h -9.28827 -9.28827 V 638.15558 547.7776 l 13.05023,-13.14126 c 10.98834,-11.065 13.53167,-13.96522 16.09737,-18.35629 7.42634,-12.7098 10.43815,-29.07265 10.62149,-57.70549 0.0828,-12.93652 0,0 0.28432,-15.91784 18.61001,-10.85106 -2.01972,0.98865 0.11065,-0.0859 4.07948,-2.05763 19.9039,-11.27625 26.40405,-16.16545 3.10238,-2.3335 8.06761,-5.87493 11.03387,-7.86984 7.26992,-4.88929 20.55395,-14.35963 26.06707,-18.58351 2.47188,-1.89383 7.99989,-5.53741 12.28448,-8.09684 4.28459,-2.55943 14.85435,-9.31016 23.48836,-15.00163 l 15.6982,-10.34813 13.36509,7.60747 c 20.83142,11.85736 27.62497,15.8934 29.24502,17.37448 1.27144,1.16235 18.53773,10.63756 45.8421,25.15673 6.03115,3.20709 7.4834,4.35616 17.07842,13.51308 5.76772,5.50437 11.36315,10.73587 12.4343,11.62557 l 1.94754,1.61763 v 7.92547 c 0,9.23399 1.86177,30.29707 3.60064,40.73565 2.22387,13.35009 5.26637,23.54183 9.60393,32.17115 2.83924,5.64847 4.69959,8.09638 15.0628,19.81997 l 8.28645,9.37421 v 89.6507 89.65069 h -9.28827 -9.28826 z"
           style="fill:#b7bec8;fill-opacity:1;stroke:none;stroke-width:0.59924304"
           sodipodi:nodetypes="ccsccscccccccssccsccssscsccsscsscscccccc" /><path
           transform="matrix(0.55606912,0,0,0.55606912,-103.61221,319.60612)"
           inkscape:connector-curvature="0"
           id="path1112"
           d="m 695.40249,731.20884 c -9.16587,-0.41265 -16.77745,-0.86252 -16.91463,-0.99969 -0.13718,-0.13718 0.004,-2.52533 0.31398,-5.30702 1.3337,-11.97294 1.79799,-34.98527 1.80169,-89.30001 l 0.004,-57.87569 -13.61465,-12.53536 c -33.78853,-31.10997 -43.336,-39.48974 -54.81044,-48.10689 -11.41405,-8.57179 -14.71606,-9.81034 -19.5377,-7.32839 -7.91699,4.07529 -23.14249,17.69589 -53.75819,48.09161 l -26.36669,26.17725 -0.16702,57.12356 c -0.0918,31.41796 0.043,63.82368 0.29963,72.01272 0.26215,8.36464 0.23842,15.0299 -0.0541,15.21034 -0.28642,0.17665 -8.44362,0.45927 -18.1271,0.62805 l -17.60632,0.30687 v -79.54796 -79.54796 l 60.94328,-61.38941 60.94328,-61.38942 58.90533,58.90305 58.90532,58.90304 v 83.44574 83.44573 l -2.24716,-0.0849 c -1.23594,-0.0467 -9.74652,-0.42256 -18.91239,-0.83522 z"
           style="fill:#aaeeff;fill-opacity:1;stroke:none;stroke-width:0.59924304" /><rect
           transform="rotate(30)"
           y="341.44379"
           x="449.85825"
           height="116.53246"
           width="7.7849674"
           id="rect896-4-10-9"
           style="fill:#000000;fill-opacity:1;fill-rule:evenodd;stroke-width:2.50231102;stroke:#000000;stroke-opacity:1;stroke-miterlimit:4;stroke-dasharray:none" /><rect
           transform="rotate(-30)"
           y="568.29797"
           x="-61.349796"
           height="116.53246"
           width="7.7849669"
           id="rect896-4-10-9-0"
           style="fill:#000000;fill-opacity:1;fill-rule:evenodd;stroke-width:2.50231102;stroke:#000000;stroke-opacity:1;stroke-miterlimit:4;stroke-dasharray:none" /><rect
           transform="rotate(-20)"
           y="551.02496"
           x="38.858505"
           height="21.417267"
           width="7.7849669"
           id="rect896-0-46-0-6"
           style="fill:#000000;fill-opacity:1;fill-rule:evenodd;stroke-width:0.22728768" /><rect
           y="496.97757"
           x="224.07568"
           height="21.417267"
           width="7.7849669"
           id="rect896-0-46-0-6-5"
           style="fill:#000000;fill-opacity:1;fill-rule:evenodd;stroke-width:2.50231102;stroke:#000000;stroke-opacity:1;stroke-miterlimit:4;stroke-dasharray:none" /></g></g></g><g
     id="g1180"
     transform="translate(-3.462363)"><path
       style="fill:#000000;stroke:#000000;stroke-width:8.3410368;stroke-miterlimit:4;stroke-dasharray:none;stroke-opacity:1"
       d="m 306.60501,571.91283 c -0.23693,-0.23693 3.92108,-1.18436 3.69275,-2.75035 -0.22832,-1.56598 25.95702,0.64947 25.77473,-2.06173 -0.18228,-2.71118 -0.33219,-10.349 -0.43099,-14.02153 -0.0988,-3.67254 -0.14653,-7.77978 -0.12443,-12.22981 l 0.16479,-33.18821 20.42522,-20.31911 c 11.23387,-11.1755 22.08185,-20.31912 24.10662,-20.31912 2.02477,0 12.83662,8.42432 24.02635,18.72072 l 20.34496,18.7207 v 35.609 c 0,31.14737 -0.5002,33.38472 -3.99219,33.38472 -3.16139,0 -3.60364,0.81099 -2.12508,-4.56693 1.0269,-3.73517 2.34275,-18.35971 2.92412,-32.49899 l 1.057,-25.70778 -19.24763,-19.36119 c -10.5862,-10.64864 -20.40953,-19.36118 -21.82962,-19.36118 -1.42009,0 -11.72559,9.19136 -22.90111,20.42523 l -20.31911,20.42523 0.24616,22.17419 c 0.20515,18.48006 -0.36423,3.50033 0.60428,31.57021 0.0983,2.84995 17.06973,-0.0362 41.8161,0.99135 l 69.0682,2.86776 0.50592,4.29318 -69.43926,-2.01296 c -19.23788,-0.55767 -36.5269,-1.09318 -38.40673,-0.37181 -1.87985,0.72136 -34.99331,0.53614 -35.94105,-0.41159 z M 449.28033,535.6547 v -40.29827 l -34.02735,-33.96223 -34.02736,-33.96224 -35.11955,35.42146 -35.11953,35.42146 v 37.46898 37.469 h -12.34767 -12.34765 v -45.17217 -45.17216 l 11.3287,-11.00969 c 10.75931,-10.45632 11.27066,-11.56825 10.17358,-22.12259 -1.47548,-14.19495 -0.70348,-16.00197 9.5415,-22.3337 8.19991,-5.06783 8.46873,-5.72942 8.46873,-20.84201 0,-14.8339 0.38762,-15.85346 7.81501,-20.55614 9.08156,-8.93321 14.41077,-18.49102 14.41077,5.26738 v 7.68445 l 14.27142,-14.12249 c 7.84928,-7.76739 15.32059,-14.12252 16.6029,-14.12252 1.28231,0 9.30694,6.91346 17.8325,15.36324 l 15.50102,15.36323 v -8.63825 c 0,-7.38797 -2.42277,-11.04247 -16.73905,-25.24905 l -16.73906,-16.61077 -14.46594,14.61849 c -24.41356,24.67097 -23.8437,17.06486 -19.76231,-1.95529 2.4481,-11.40865 3.10497,-15.11136 10.08737,-21.29121 13.14729,-11.63618 17.52249,-31.3463 19.35545,-87.19553 1.71594,-52.28345 2.23354,-56.44893 7.01437,-56.44893 2.76539,0 3.76973,9.68915 5.14095,49.59645 2.24596,65.36485 6.59138,83.66187 22.59937,95.15795 l 10.91745,7.84031 v 15.50212 c 0,14.17205 0.53396,15.74541 6.22341,18.33768 7.52488,3.42857 11.06331,11.88617 11.06331,26.44367 0,9.17016 1.13822,11.71973 7.24914,16.23772 6.2301,4.60613 7.48223,7.53598 8.90718,20.84206 1.45408,13.57798 2.84757,16.72044 11.32821,25.54625 l 9.67014,10.06377 -0.67322,45.10624 -0.67324,45.10625 -11.73028,0.75269 -11.73027,-0.35945 z m 19.75625,-5.89709 V 488.7719 l -9.58213,-10.8859 c -8.40706,-9.55089 -9.71531,-12.72688 -10.66804,-25.8982 -0.96408,-13.32826 -1.96689,-15.70181 -8.93935,-21.15858 -7.23208,-5.65997 -7.85346,-7.29115 -7.85346,-20.6163 0,-13.25916 -0.61996,-14.9115 -7.40859,-19.74544 l -7.4086,-5.27539 v 11.28108 c 0,7.24611 -1.08034,11.28103 -3.02048,11.28103 -1.66125,0 -9.91049,-6.82876 -18.33163,-15.17507 l -15.31116,-15.17505 -9.4506,7.53724 c -5.19783,4.14547 -12.71456,10.97427 -16.70384,15.17507 -3.98928,4.2008 -8.15662,7.63781 -9.26074,7.63781 -1.10413,0 -2.0075,-5.0264 -2.0075,-11.16981 l 2.2,-15.56984 -8.37384,8.44527 c -5.49521,3.6006 -6.17383,5.7415 -6.17383,19.47731 0,15.2125 -0.14031,15.52932 -9.86158,22.26617 -9.77891,6.77677 -9.84957,6.94003 -8.42981,19.47473 1.4115,12.46186 1.27154,12.79638 -9.89469,23.65034 l -11.32644,11.00969 v 41.46787 41.46786 h 7.4086 7.4086 V 532.03351 495.7932 l 36.31883,-36.61089 c 19.97537,-20.136 37.52777,-36.61091 39.00534,-36.61091 1.47758,0 18.47279,15.92199 37.76713,35.3822 l 35.08062,35.38222 v 38.70374 38.70377 h 7.4086 7.40859 z M 328.89064,460.26413 c -1.87908,-0.64607 -3.08691,-5.58706 -3.08691,-12.62794 0,-11.43352 0.31254,-11.87815 27.16485,-38.64721 l 27.16485,-27.08063 27.16485,27.08063 27.16485,27.08061 v 13.00717 c 0,8.86728 -0.99802,13.00715 -3.13568,13.00715 -1.72463,0 -13.59731,-10.50529 -26.38372,-23.34508 l -23.24801,-23.3451 -24.85908,22.96588 c -13.67249,12.63122 -26.24819,22.48825 -27.946,21.90452 z m 51.62536,-49.7198 c 1.44809,-0.50276 13.06731,9.47689 25.82047,22.17701 l 23.1876,23.09119 v -8.64091 c 0,-7.65863 -2.80732,-11.43772 -24.69532,-33.24358 l -24.69532,-24.60266 -24.69532,24.60266 c -21.43769,21.35725 -24.69532,25.69037 -24.69532,32.84826 v 8.24562 l 23.57016,-21.78169 c 12.96359,-11.97995 24.75496,-22.1931 26.20305,-22.6959 z m 34.19088,-44.65353 c 0,-11.65905 -0.50255,-12.57478 -10.7824,-19.64751 -10.16416,-6.99313 -11.08453,-8.62315 -16.05196,-28.42888 -3.19365,-12.73352 -5.36652,-29.55808 -5.51572,-42.70818 -0.14956,-13.18262 -1.16782,-64.0845 -2.1954,-62.02664 -1.02758,2.05787 -2.06449,57.07546 -2.25133,70.93176 -0.35384,26.24017 -8.12097,51.33468 -18.88973,61.03003 -6.61591,5.95645 -8.87495,10.27394 -10.117,19.33574 l -3.79914,16.06691 16.521,-19.41406 c 7.39581,-8.69093 15.57304,-15.01407 17.10333,-15.01407 1.5303,0 9.94153,7.22338 18.69163,16.05196 8.75009,8.82858 16.21919,16.05196 16.598,16.05196 0.3788,0 0.68872,-5.50306 0.68872,-12.22902 z"
       id="path829"
       inkscape:connector-curvature="0"
       sodipodi:nodetypes="ssssscssscsscsccsscsssccscsccccccccccccsscscsccsscsscssssssscscscsccccccccccscsscsscccsssccscsscccccccssscccccccsscccsssccccscsscsscscsssssscccsssss" /><path
       inkscape:connector-curvature="0"
       id="path882"
       d="m 396.28474,565.76559 c -14.7053,-0.69855 -22.80178,-0.83512 -36.82406,-0.62114 l -17.97427,0.27429 -0.27578,-7.2129 c -0.15168,-3.9671 -0.36409,-15.62989 -0.47201,-25.91732 l -0.19625,-18.70443 14.67633,-14.53043 c 13.62196,-13.48654 22.59992,-21.89992 25.16371,-23.58126 0.99607,-0.65323 1.23171,-0.5683 3.76996,1.35878 1.48911,1.13056 10.17652,9.47895 19.30535,18.55199 l 16.59787,16.49643 -0.6801,15.55109 c -0.63178,14.44598 -1.72492,30.4195 -2.49891,36.51521 -0.2273,1.79013 -0.54576,2.6055 -1.03516,2.65035 -0.38878,0.0356 -9.18928,-0.33817 -19.55668,-0.83066 z"
       style="fill:#b7c4c8;stroke:none;stroke-width:0.47124502" /><path
       inkscape:connector-curvature="0"
       id="path884"
       d="m 432.29775,567.37093 -5.45656,-0.14855 0.17938,-31.9126 0.17939,-31.91259 -12.05047,-11.00909 c -19.49719,-17.8123 -28.244,-25.04853 -32.66743,-27.02573 -1.64488,-0.73523 -2.30342,-0.81022 -3.53433,-0.40247 -4.00059,1.32525 -14.42212,10.51875 -32.76865,28.90731 l -12.87731,12.90681 -0.053,29.46994 -0.053,29.46993 -3.51651,0.29726 c -1.93409,0.16349 -6.34734,0.29725 -9.80723,0.29725 h -6.29068 l 0.003,-33.5762 0.003,-33.57621 33.80898,-34.09648 33.80899,-34.09648 32.86934,32.60547 32.86934,32.60546 v 35.77409 35.77409 l -4.59464,-0.10133 c -2.52705,-0.0557 -7.05009,-0.16819 -10.0512,-0.24988 z"
       style="fill:#aaeeff;stroke:none;stroke-width:0.47124502" /><path
       inkscape:connector-curvature="0"
       id="path886"
       d="m 293.78896,526.15866 v -39.67849 l 9.58176,-9.68442 c 10.36484,-10.4759 11.53467,-12.12772 11.95278,-16.87764 0.13085,-1.48661 -0.0973,-6.03769 -0.50707,-10.11351 -0.40974,-4.07581 -0.61186,-8.07624 -0.44914,-8.88984 0.37531,-1.87654 2.27037,-3.76597 7.26435,-7.24275 9.48825,-6.60569 10.69688,-8.41034 11.30697,-16.88287 0.20929,-2.9066 0.39277,-8.10665 0.40773,-11.55567 0.0389,-8.97669 0.29567,-9.71536 4.78586,-13.76977 l 3.71513,-3.35457 -0.34913,2.27274 c -0.19202,1.25001 -0.34091,5.24159 -0.33087,8.87018 0.0151,5.45224 0.17077,6.91096 0.89694,8.40373 1.5925,3.27366 4.28037,3.15945 8.16135,-0.34678 1.03198,-0.93233 2.04251,-1.69515 2.24561,-1.69515 0.2031,0 -4.4913,4.9304 -10.43201,10.95645 -16.89619,17.13889 -18.56183,19.8674 -18.56183,30.40634 0,11.31631 2.29519,16.60327 6.72517,15.49142 1.72233,-0.43227 7.3784,-4.32631 12.70796,-8.74906 2.52389,-2.09447 4.73595,-3.80812 4.91566,-3.80812 0.17972,0 -9.6785,10.04992 -21.90716,22.33316 l -22.23392,22.33314 v 35.62999 35.62999 h -4.94807 -4.94807 z"
       style="fill:#b7c4c8;fill-opacity:1;stroke:none;stroke-width:0.47124502" /><path
       inkscape:connector-curvature="0"
       id="path888"
       d="m 414.89546,437.8658 c -17.0375,-17.08259 -28.38846,-27.31212 -32.43915,-29.2343 -1.47071,-0.6979 -1.76706,-0.70245 -3.13911,-0.0482 -2.70117,1.2881 -13.51704,10.74223 -35.32981,30.88174 l -10.37823,9.58212 -0.14124,-2.62815 c -0.1687,-3.1393 0.71747,-5.37041 3.76304,-9.47424 2.78455,-3.75211 15.32394,-16.91881 30.51142,-32.03782 l 12.30786,-12.25238 19.47073,19.55667 c 18.79943,18.88241 24.22467,24.84146 26.27482,28.8601 0.83639,1.63944 1.8971,8.8395 1.30225,8.8395 -0.10412,0 -5.59528,-5.42028 -12.20258,-12.04508 z"
       style="fill:#aaeeff;fill-opacity:1;stroke:none;stroke-width:0.47124502" /><path
       inkscape:connector-curvature="0"
       id="path890"
       d="m 456.83973,530.37061 v -37.82277 l -7.80765,-7.77018 c -4.2942,-4.2736 -10.58137,-10.69354 -13.97147,-14.26653 l -6.16383,-6.49634 1.94628,0.31122 c 1.76503,0.28224 2.0753,0.17311 3.33165,-1.17182 2.0138,-2.15578 2.4689,-4.99664 2.75228,-17.18062 l 0.2505,-10.77035 -12.60863,-12.61514 -12.60865,-12.61513 1.98722,0.0521 c 1.61961,0.0425 2.19354,-0.18776 3.10257,-1.24458 1.64884,-1.91689 2.19349,-4.52871 2.51129,-12.04271 l 0.28571,-6.75547 2.35622,1.76077 c 3.7244,2.7832 5.47537,4.55396 6.26014,6.33086 0.54315,1.22984 0.81979,4.34628 1.0876,12.25237 0.50499,14.90789 0.94639,16.01623 8.99701,22.59114 6.01545,4.9128 6.80234,6.90455 7.92384,20.05654 1.20662,14.15026 2.2009,16.24725 14.22417,29.9994 l 6.0399,6.90839 v 39.15581 39.1558 h -4.94808 -4.94807 z"
       style="fill:#b7c4c8;stroke:none;stroke-width:0.47124502" /><path
       inkscape:connector-curvature="0"
       id="path892"
       d="m 406.18089,391.91332 c -6.10241,-6.22733 -19.64827,-18.80886 -22.79681,-21.1739 -1.83126,-1.37557 -3.61922,-2.34674 -4.32533,-2.34939 -2.49331,-0.009 -6.18585,2.98217 -19.88455,16.10972 l -8.83584,8.46745 -0.006,-4.63312 c -0.003,-2.54822 -0.12466,-5.07339 -0.26915,-5.61149 -0.20921,-0.77906 0.29608,-1.39584 2.48046,-3.02778 1.50876,-1.12719 8.06269,-7.31932 14.56428,-13.7603 l 11.82109,-11.71087 12.21241,12.38368 c 16.59514,16.82787 18.80831,19.94436 18.48111,26.02419 l -0.14251,2.64806 z"
       style="fill:#aaeeff;fill-opacity:1;stroke:none;stroke-width:0.47124502" /><path
       inkscape:connector-curvature="0"
       id="path894"
       d="m 403.34822,364.56679 c -14.71114,-14.81027 -21.93818,-20.8688 -24.79683,-20.78752 -3.32115,0.0944 -12.6711,8.43504 -22.60154,20.16167 -3.1675,3.74043 -5.8462,6.80078 -5.95267,6.80078 -0.10647,0 -0.0713,-0.38526 0.0781,-0.85613 0.14945,-0.47088 0.79617,-3.38521 1.43717,-6.47631 1.56337,-7.53913 2.99796,-10.27378 8.1433,-15.52295 4.69744,-4.79223 7.10591,-8.1339 9.97004,-13.83309 5.48412,-10.91259 9.50388,-27.4455 10.24401,-42.13273 0.16668,-3.30762 0.35511,-5.95838 0.41874,-5.89057 0.0636,0.0678 0.36596,2.56199 0.67183,5.54262 1.71825,16.74322 7.34995,40.63718 10.99598,46.65325 1.76373,2.91023 5.14937,6.16039 9.98329,9.5838 6.30672,4.46647 9.06644,7.099 9.65203,9.2072 0.54974,1.97913 0.65549,15.60989 0.1211,15.60989 -0.19725,0 -3.96131,-3.62696 -8.3646,-8.05991 z"
       style="fill:#b7c4c8;fill-opacity:1;stroke:none;stroke-width:0.47124502" /><rect
       y="472.89325"
       x="374.0759"
       height="94.450432"
       width="7.7849674"
       id="rect896-0"
       style="fill:#000000;fill-opacity:1;fill-rule:evenodd;stroke-width:0.47730491" /><rect
       y="490.76846"
       x="353.45398"
       height="74.755737"
       width="7.7849674"
       id="rect896-4"
       style="fill:#000000;fill-opacity:1;fill-rule:evenodd;stroke-width:0.42463538" /><rect
       y="486.34363"
       x="396.41312"
       height="82.531281"
       width="7.7849674"
       id="rect896-4-7"
       style="fill:#000000;fill-opacity:1;fill-rule:evenodd;stroke-width:0.44617292" /><rect
       transform="rotate(42)"
       y="130.33253"
       x="626.79572"
       height="67.21582"
       width="7.7849674"
       id="rect896-4-1"
       style="fill:#000000;fill-opacity:1;fill-rule:evenodd;stroke-width:0.40265182" /><rect
       transform="rotate(-42)"
       y="637.01331"
       x="-70.522308"
       height="67.21582"
       width="7.7849669"
       id="rect896-4-1-7"
       style="fill:#000000;fill-opacity:1;fill-rule:evenodd;stroke-width:0.40265179" /></g></g></g>
</svg>