<?xml version="1.0" encoding="UTF-8" standalone="no"?>
<!-- Generator: Adobe Illustrator 19.0.0, SVG Export Plug-In . SVG Version: 6.00 Build 0)  -->

<svg
   xmlns:dc="http://purl.org/dc/elements/1.1/"
   xmlns:cc="http://creativecommons.org/ns#"
   xmlns:rdf="http://www.w3.org/1999/02/22-rdf-syntax-ns#"
   xmlns:svg="http://www.w3.org/2000/svg"
   xmlns="http://www.w3.org/2000/svg"
   xmlns:sodipodi="http://sodipodi.sourceforge.net/DTD/sodipodi-0.dtd"
   xmlns:inkscape="http://www.inkscape.org/namespaces/inkscape"
   version="1.1"
   id="Layer_1"
   x="0px"
   y="0px"
   viewBox="0 0 511.99 511.99"
   style="enable-background:new 0 0 511.99 511.99;"
   xml:space="preserve"
   sodipodi:docname="pokemon_go.svg"
   inkscape:version="0.92.4 (5da689c313, 2019-01-14)"><metadata
   id="metadata55"><rdf:RDF><cc:Work
       rdf:about=""><dc:format>image/svg+xml</dc:format><dc:type
         rdf:resource="http://purl.org/dc/dcmitype/StillImage" /><dc:title></dc:title></cc:Work></rdf:RDF></metadata><defs
   id="defs53" /><sodipodi:namedview
   pagecolor="#ffffff"
   bordercolor="#666666"
   borderopacity="1"
   objecttolerance="10"
   gridtolerance="10"
   guidetolerance="10"
   inkscape:pageopacity="0"
   inkscape:pageshadow="2"
   inkscape:window-width="1920"
   inkscape:window-height="986"
   id="namedview51"
   showgrid="false"
   inkscape:zoom="0.92189302"
   inkscape:cx="354.89785"
   inkscape:cy="336.92554"
   inkscape:window-x="-11"
   inkscape:window-y="-11"
   inkscape:window-maximized="1"
   inkscape:current-layer="Layer_1" />







<g
   id="g885"
   transform="matrix(0.93751831,0,0,0.93751831,15.994995,15.994995)"><rect
     id="rect2"
     height="497.98999"
     width="490.98999"
     style="fill:#a0d468"
     y="4.671"
     x="11.995" /><polygon
     id="polygon8"
     points="11.999,4.671 11.999,60.998 121.997,13.999 "
     style="fill:#ffce54" /><polygon
     id="polygon10"
     points="500.335,440.319 502.99,343.993 168.668,492.991 381.665,501.319 470.663,453.319 "
     style="fill:#5d9cec" /><polygon
     id="polygon12"
     points="498.491,8.499 395.993,13.499 453.991,127.497 498.491,110.497 "
     style="fill:#ffce54" /><path
     id="path16"
     d="M 501.319,0 H 381.571 10.671 C 4.78,0 0,4.781 0,10.656 v 490.679 c 0,5.874 4.781,10.655 10.671,10.655 h 97.42 262.746 130.482 c 5.89,0 10.671,-4.781 10.671,-10.655 V 448.897 330.524 121.872 10.656 C 511.99,4.781 507.209,0 501.319,0 Z m -10.656,21.343 v 86.686 L 459.46,121.982 424.054,42.78 414.477,21.343 c 0,0 76.186,0 76.186,0 z m -403.009,0 -66.326,29.625 V 21.343 Z M 207.621,490.647 490.663,363.493 v 71.592 L 366.29,490.647 Z m 283.042,0 H 418.57 l 72.093,-32.203 z m 0,-150.545 -335.104,150.545 H 21.328 V 74.342 L 139.935,21.343 h 251.168 l 13.483,30.14 44.093,98.67 41.984,-18.75 z"
     inkscape:connector-curvature="0" /></g>

<g
   id="g20">
</g>
<g
   id="g22">
</g>
<g
   id="g24">
</g>
<g
   id="g26">
</g>
<g
   id="g28">
</g>
<g
   id="g30">
</g>
<g
   id="g32">
</g>
<g
   id="g34">
</g>
<g
   id="g36">
</g>
<g
   id="g38">
</g>
<g
   id="g40">
</g>
<g
   id="g42">
</g>
<g
   id="g44">
</g>
<g
   id="g46">
</g>
<g
   id="g48">
</g>
<g
   id="g878"
   transform="translate(-487.04132,-66.168195)"><polygon
     transform="translate(502.37782,78.573193)"
     id="polygon4"
     points="311.494,139.997 279.495,118.497 264.995,108.497 211.495,108.497 181.996,127.497 154.497,161.996 140.997,200.496 333.493,205.496 322.493,169.496 "
     style="fill:#ed5564" /><polygon
     transform="translate(502.37782,78.573193)"
     id="polygon6"
     points="138.997,205.496 144.497,222.495 153.497,255.995 181.996,297.244 221.995,370.493 240.995,384.493 255.995,358.993 283.495,299.494 320.493,247.495 329.493,209.996 "
     style="fill:#f5f7fa" /><path
     inkscape:connector-curvature="0"
     id="path14"
     d="m 770.37282,279.96019 c 0,15.796 -12.797,28.608 -28.593,28.608 -15.797,0 -28.609,-12.812 -28.609,-28.609 0,-15.797 12.812,-28.609 28.609,-28.609 15.796,0.001 28.593,12.813 28.593,28.61 z"
     style="fill:#f5f7fa" /><path
     inkscape:connector-curvature="0"
     id="path18"
     d="m 743.04482,172.83719 c -28.468,0 -55.39,11.375 -75.796,32.015 -20.203,20.437 -31.343,47.108 -31.343,75.108 0,30.781 14.859,52.983 33.671,81.093 15.469,23.155 34.734,51.951 51.046,94.467 2.203,6 9.344,15.969 22.422,15.969 12.968,0 20.156,-9.453 22.343,-15.047 l 0.047,-0.109 c 16.375,-43.047 35.702,-72.077 51.249,-95.404 18.702,-28.094 33.483,-50.281 33.483,-80.968 0,-28 -11.125,-54.671 -31.343,-75.108 -20.404,-20.642 -47.326,-32.016 -75.779,-32.016 z m 0,21.343 c 42.734,0 79.374,33.187 85.029,74.655 h -43.857 c -4.906,-18.14 -21.5,-31.531 -41.171,-31.531 -19.672,0 -36.281,13.391 -41.187,31.531 h -43.858 c 5.655,-41.468 42.295,-74.655 85.044,-74.655 z m 21.328,85.78 c 0,11.781 -9.562,21.343 -21.328,21.343 -11.766,0 -21.344,-9.562 -21.344,-21.343 0,-11.75 9.578,-21.312 21.344,-21.312 11.766,0 21.328,9.562 21.328,21.312 z m 34.547,69.155 c -16.109,24.187 -36.172,54.311 -53.39,99.529 -0.047,0.125 -0.766,1.531 -2.484,1.531 -1.453,0 -2.328,-1.875 -2.469,-2.203 v 0 c -17.172,-44.797 -37.187,-74.733 -53.265,-98.764 -14.938,-22.344 -26.328,-39.375 -29.296,-59.031 h 43.593 c 4.594,18.609 21.421,32.468 41.437,32.468 20,0 36.843,-13.859 41.421,-32.468 h 43.592 c -2.953,19.595 -14.281,36.626 -29.139,58.938 z" /></g></svg>