<?xml version="1.0" encoding="UTF-8" standalone="no"?>
<!-- Generator: Adobe Illustrator 19.0.0, SVG Export Plug-In . SVG Version: 6.00 Build 0)  -->

<svg
   xmlns:dc="http://purl.org/dc/elements/1.1/"
   xmlns:cc="http://creativecommons.org/ns#"
   xmlns:rdf="http://www.w3.org/1999/02/22-rdf-syntax-ns#"
   xmlns:svg="http://www.w3.org/2000/svg"
   xmlns="http://www.w3.org/2000/svg"
   xmlns:sodipodi="http://sodipodi.sourceforge.net/DTD/sodipodi-0.dtd"
   xmlns:inkscape="http://www.inkscape.org/namespaces/inkscape"
   version="1.1"
   id="Layer_1"
   x="0px"
   y="0px"
   viewBox="0 0 127.9 127.9"
   style="enable-background:new 0 0 127.9 127.9;"
   xml:space="preserve"
   sodipodi:docname="pokemon_egg.svg"
   inkscape:version="0.92.4 (5da689c313, 2019-01-14)"><metadata
   id="metadata199"><rdf:RDF><cc:Work
       rdf:about=""><dc:format>image/svg+xml</dc:format><dc:type
         rdf:resource="http://purl.org/dc/dcmitype/StillImage" /><dc:title></dc:title></cc:Work></rdf:RDF></metadata><defs
   id="defs197">
		
		
	
			
			
			
			
			
			
			
			
			
			
			
			
			
		</defs><sodipodi:namedview
   pagecolor="#ffffff"
   bordercolor="#666666"
   borderopacity="1"
   objecttolerance="10"
   gridtolerance="10"
   guidetolerance="10"
   inkscape:pageopacity="0"
   inkscape:pageshadow="2"
   inkscape:window-width="1920"
   inkscape:window-height="986"
   id="namedview195"
   showgrid="false"
   inkscape:zoom="5.2189898"
   inkscape:cx="24.399918"
   inkscape:cy="61.16362"
   inkscape:window-x="-11"
   inkscape:window-y="-11"
   inkscape:window-maximized="1"
   inkscape:current-layer="g162" />
<g
   id="g162"
   style="stroke:#000000;stroke-opacity:1">
	<g
   id="g4"
   style="stroke:#000000;stroke-opacity:1">
				<rect
   x="29.854"
   y="23.846001"
   style="fill:#adb8bc;stroke:#000000;stroke-opacity:1"
   width="68.193001"
   height="91.308998"
   id="rect2" />
			</g><g
   id="g8"
   style="stroke:none;stroke-opacity:1">
				<rect
   x="50.152"
   y="23.846001"
   style="fill:#93a0a3;stroke:none;stroke-opacity:1"
   width="27.596001"
   height="91.308998"
   id="rect6" />
			</g><g
   id="g12"
   style="stroke:#000000;stroke-opacity:1">
				<rect
   x="29.854"
   y="106.668"
   style="fill:#ff8b00;stroke:#000000;stroke-opacity:1"
   width="68.193001"
   height="8.4860001"
   id="rect10" />
			</g><g
   id="g16"
   style="stroke:#000000;stroke-opacity:1">
				<rect
   x="29.854"
   y="106.668"
   style="fill:#ffb000;stroke:#000000;stroke-opacity:1"
   width="68.193001"
   height="4.243"
   id="rect14" />
			</g><g
   id="g20"
   style="stroke:#000000;stroke-opacity:1">
				<polygon
   style="fill:#ebf4f7;stroke:#000000;stroke-opacity:1"
   points="29.854,115.154 98.047,115.154 89.377,126.4 38.522,126.4 "
   id="polygon18" />
			</g><g
   id="g24"
   style="stroke:#000000;stroke-opacity:1">
				<polygon
   style="fill:#ebf4f7;stroke:#000000;stroke-opacity:1"
   points="98.047,23.992 29.854,23.992 38.522,1.5 89.377,1.5 "
   id="polygon22" />
			</g><g
   id="g34"
   style="stroke:none;stroke-opacity:1">
				<g
   id="g28"
   style="stroke:none;stroke-opacity:1">
					<polygon
   style="fill:#d8e5ea;stroke:none;stroke-opacity:1"
   points="50.152,115.154 77.748,115.154 74.24,126.4 53.66,126.4 "
   id="polygon26" />
				</g>
				<g
   id="g32"
   style="stroke:none;stroke-opacity:1">
					<polygon
   style="fill:#d8e5ea;stroke:none;stroke-opacity:1"
   points="77.748,23.992 50.152,23.992 53.66,1.5 74.24,1.5 "
   id="polygon30" />
				</g>
			</g><path
   style="fill:#33363a;stroke:#000000;stroke-opacity:1"
   d="M 99.26,22.97 90.776,0.96 C 90.554,0.382 89.997,0 89.377,0 H 38.521 c -0.62,0 -1.177,0.382 -1.399,0.96 L 28.64,22.97 c -0.178,0.247 -0.286,0.547 -0.286,0.875 v 82.822 8.486 c 0,0.032 0.007,0.062 0.01,0.094 0.002,0.037 0.006,0.074 0.011,0.111 0.014,0.104 0.038,0.204 0.073,0.3 0.007,0.019 0.01,0.039 0.018,0.058 0.047,0.116 0.109,0.222 0.182,0.322 0.007,0.01 0.01,0.022 0.018,0.031 l 8.668,11.246 c 0.284,0.369 0.724,0.584 1.188,0.584 h 50.855 c 0.465,0 0.904,-0.216 1.188,-0.584 l 8.67,-11.246 c 0.007,-0.009 0.01,-0.02 0.017,-0.029 0.074,-0.1 0.138,-0.208 0.185,-0.326 0.007,-0.017 0.01,-0.034 0.016,-0.052 0.035,-0.098 0.06,-0.2 0.074,-0.307 0.005,-0.036 0.009,-0.072 0.011,-0.108 0.002,-0.032 0.01,-0.062 0.01,-0.095 v -8.486 -82.82 C 99.547,23.518 99.439,23.217 99.26,22.97 Z m -2.713,2.522 v 79.676 H 31.354 V 25.492 Z m -65.193,82.676 h 65.193 v 5.486 H 31.354 Z M 39.551,3 h 48.797 l 7.457,19.346 H 32.095 Z M 88.64,124.9 H 39.259 l -6.355,-8.246 h 62.093 z"
   id="path36"
   inkscape:connector-curvature="0" /><g
   id="g46"
   style="stroke:#000000;stroke-opacity:1">
				<g
   id="g40"
   style="stroke:#000000;stroke-opacity:1">
					<path
   style="fill:#ff8b00;stroke:#000000;stroke-opacity:1"
   d="m 77.328,12.709 c 0,2.209 -1.791,4 -4,4 H 54.572 c -2.209,0 -4,-1.791 -4,-4 v -0.75 c 0,-2.209 1.791,-4 4,-4 h 18.756 c 2.209,0 4,1.791 4,4 z"
   id="path38"
   inkscape:connector-curvature="0" />
				</g>
				<g
   id="g44"
   style="stroke:#000000;stroke-opacity:1">
					<path
   style="fill:#33363a;stroke:#000000;stroke-opacity:1"
   d="M 73.328,18.209 H 54.572 c -3.032,0 -5.5,-2.467 -5.5,-5.5 v -0.75 c 0,-3.033 2.468,-5.5 5.5,-5.5 h 18.756 c 3.032,0 5.5,2.467 5.5,5.5 v 0.75 c 0,3.033 -2.468,5.5 -5.5,5.5 z M 54.572,9.459 c -1.379,0 -2.5,1.122 -2.5,2.5 v 0.75 c 0,1.378 1.121,2.5 2.5,2.5 h 18.756 c 1.379,0 2.5,-1.122 2.5,-2.5 v -0.75 c 0,-1.378 -1.121,-2.5 -2.5,-2.5 z"
   id="path42"
   inkscape:connector-curvature="0" />
				</g>
			</g><g
   id="g50"
   style="stroke:none;stroke-opacity:1">
				<path
   style="fill:#fdfeff;stroke:none;stroke-opacity:1"
   d="m 36.367,81.853 c -0.828,0 -1.5,-0.671 -1.5,-1.5 V 38.834 c 0,-0.829 0.672,-1.5 1.5,-1.5 0.828,0 1.5,0.671 1.5,1.5 v 41.519 c 0,0.828 -0.672,1.5 -1.5,1.5 z"
   id="path48"
   inkscape:connector-curvature="0" />
			</g><g
   id="g54"
   style="stroke:none;stroke-opacity:1">
				<path
   style="fill:#fdfeff;stroke:none;stroke-opacity:1"
   d="m 36.367,34.334 c -0.828,0 -1.5,-0.671 -1.5,-1.5 v -2.853 c 0,-0.829 0.672,-1.5 1.5,-1.5 0.828,0 1.5,0.671 1.5,1.5 v 2.853 c 0,0.829 -0.672,1.5 -1.5,1.5 z"
   id="path52"
   inkscape:connector-curvature="0" />
			</g><g
   id="g58"
   style="stroke:none;stroke-opacity:1">
				<path
   style="fill:#fdfeff;stroke:none;stroke-opacity:1"
   d="m 36.367,90.334 c -0.828,0 -1.5,-0.671 -1.5,-1.5 v -2.853 c 0,-0.829 0.672,-1.5 1.5,-1.5 0.828,0 1.5,0.671 1.5,1.5 v 2.853 c 0,0.829 -0.672,1.5 -1.5,1.5 z"
   id="path56"
   inkscape:connector-curvature="0" />
			</g><g
   id="g62"
   style="stroke:none;stroke-opacity:1">
				<path
   style="fill:#fdfeff;stroke:none;stroke-opacity:1"
   d="m 36.367,99.084 c -0.828,0 -1.5,-0.671 -1.5,-1.5 v -2.853 c 0,-0.829 0.672,-1.5 1.5,-1.5 0.828,0 1.5,0.671 1.5,1.5 v 2.853 c 0,0.829 -0.672,1.5 -1.5,1.5 z"
   id="path60"
   inkscape:connector-curvature="0" />
			</g><g
   style="stroke:#000000;stroke-opacity:1"
   id="g86">
			<g
   style="stroke:#000000;stroke-opacity:1"
   id="g68">
				<path
   inkscape:connector-curvature="0"
   id="path66"
   d="m 51.867,122.277 h -1.166 c -0.828,0 -1.5,-0.671 -1.5,-1.5 0,-0.829 0.672,-1.5 1.5,-1.5 h 1.166 c 0.828,0 1.5,0.671 1.5,1.5 0,0.829 -0.672,1.5 -1.5,1.5 z"
   style="fill:#33363a;stroke:#000000;stroke-opacity:1" />
			</g>
			<g
   style="stroke:#000000;stroke-opacity:1"
   id="g72">
				<path
   inkscape:connector-curvature="0"
   id="path70"
   d="m 58.201,122.277 h -1.168 c -0.828,0 -1.5,-0.671 -1.5,-1.5 0,-0.829 0.672,-1.5 1.5,-1.5 h 1.168 c 0.828,0 1.5,0.671 1.5,1.5 0,0.829 -0.672,1.5 -1.5,1.5 z"
   style="fill:#33363a;stroke:#000000;stroke-opacity:1" />
			</g>
			<g
   style="stroke:#000000;stroke-opacity:1"
   id="g76">
				<path
   inkscape:connector-curvature="0"
   id="path74"
   d="m 64.533,122.277 h -1.166 c -0.828,0 -1.5,-0.671 -1.5,-1.5 0,-0.829 0.672,-1.5 1.5,-1.5 h 1.166 c 0.828,0 1.5,0.671 1.5,1.5 0,0.829 -0.672,1.5 -1.5,1.5 z"
   style="fill:#33363a;stroke:#000000;stroke-opacity:1" />
			</g>
			<g
   style="stroke:#000000;stroke-opacity:1"
   id="g80">
				<path
   inkscape:connector-curvature="0"
   id="path78"
   d="m 70.867,122.277 h -1.168 c -0.828,0 -1.5,-0.671 -1.5,-1.5 0,-0.829 0.672,-1.5 1.5,-1.5 h 1.168 c 0.828,0 1.5,0.671 1.5,1.5 0,0.829 -0.672,1.5 -1.5,1.5 z"
   style="fill:#33363a;stroke:#000000;stroke-opacity:1" />
			</g>
			<g
   style="stroke:#000000;stroke-opacity:1"
   id="g84">
				<path
   inkscape:connector-curvature="0"
   id="path82"
   d="m 77.199,122.277 h -1.166 c -0.828,0 -1.5,-0.671 -1.5,-1.5 0,-0.829 0.672,-1.5 1.5,-1.5 h 1.166 c 0.828,0 1.5,0.671 1.5,1.5 0,0.829 -0.672,1.5 -1.5,1.5 z"
   style="fill:#33363a;stroke:#000000;stroke-opacity:1" />
			</g>
		</g>
	<g
   id="g160"
   style="stroke:none;stroke-opacity:1">
		<g
   id="g92"
   style="stroke:none;stroke-opacity:1">
			<path
   style="fill:#FFFFFA;stroke:none;stroke-opacity:1"
   d="M85.791,85.41c0,11.739-9.518,21.258-21.258,21.258S43.277,97.149,43.277,85.41     c0-11.74,9.516-33.32,21.256-33.32S85.791,73.67,85.791,85.41z"
   id="path90" />
		</g>
		<g
   id="g96"
   style="stroke:none;stroke-opacity:1">
			<path
   style="fill:#F9F9E4;stroke:none;stroke-opacity:1"
   d="M64.533,52.09v54.578c11.74,0,21.258-9.519,21.258-21.258C85.791,73.67,76.273,52.09,64.533,52.09     z"
   id="path94" />
		</g>
		<g
   id="g106"
   style="stroke:none;stroke-opacity:1">
			<g
   id="g100"
   style="stroke:none;stroke-opacity:1">
				<path
   style="fill:#7BC67B;stroke:none;stroke-opacity:1"
   d="M51.361,97.47c1.961,2.144,4.121,3.194,2.973,4.244c-1.148,1.051-3.67,0.165-5.631-1.979      c-1.961-2.145-2.619-4.734-1.471-5.785C48.381,92.898,49.4,95.324,51.361,97.47z"
   id="path98" />
			</g>
			<g
   id="g104"
   style="stroke:none;stroke-opacity:1">
				<path
   style="fill:#54AF79;stroke:none;stroke-opacity:1"
   d="M77.705,97.47c-1.961,2.144-4.121,3.194-2.973,4.244c1.148,1.051,3.67,0.165,5.631-1.979      c1.961-2.145,2.621-4.734,1.471-5.785C80.686,92.898,79.666,95.324,77.705,97.47z"
   id="path102" />
			</g>
		</g>
		<g
   id="g110"
   style="stroke:none;stroke-opacity:1">
			<path
   style="fill:#33363A;stroke:none;stroke-opacity:1"
   d="M64.533,108.168c-12.548,0-22.756-10.209-22.756-22.758c0-11.919,9.609-34.82,22.756-34.82     c13.147,0,22.758,22.901,22.758,34.82C87.291,97.959,77.082,108.168,64.533,108.168z M64.533,53.59     c-10.812,0-19.756,21.068-19.756,31.82c0,10.895,8.862,19.758,19.756,19.758c10.895,0,19.758-8.863,19.758-19.758     C84.291,74.658,75.346,53.59,64.533,53.59z"
   id="path108" />
		</g>
		<g
   id="g114"
   style="stroke:none;stroke-opacity:1">
			<path
   style="fill:#7BC67B;stroke:none;stroke-opacity:1"
   d="M77.02,90.914c-2.766,5.99-8.416,9.273-12.617,7.334c-4.203-1.939-2.25-5.468,0.516-11.459     c2.766-5.99,5.297-12.176,9.5-10.234C78.619,78.494,79.783,84.922,77.02,90.914z"
   id="path112" />
		</g>
		<g
   id="g118"
   style="stroke:none;stroke-opacity:1">
			<path
   style="fill:#54AF79;stroke:none;stroke-opacity:1"
   d="M74.418,76.555c-4.203-1.941-6.734,4.244-9.5,10.234c-0.131,0.283-0.258,0.559-0.385,0.829v10.685     c4.188,1.814,9.748-1.46,12.486-7.389C79.783,84.922,78.619,78.494,74.418,76.555z"
   id="path116" />
		</g>
		<g
   id="g122"
   style="stroke:none;stroke-opacity:1">
			<circle
   style="fill:#7BC67B;stroke:none;stroke-opacity:1"
   cx="52.31"
   cy="68.439"
   r="1.351"
   id="circle120" />
		</g>
		<g
   id="g126"
   style="stroke:none;stroke-opacity:1">
			<circle
   style="fill:#7BC67B;stroke:none;stroke-opacity:1"
   cx="57.184"
   cy="61.98"
   r="0.529"
   id="circle124" />
		</g>
		<g
   id="g130"
   style="stroke:none;stroke-opacity:1">
			<circle
   style="fill:#7BC67B;stroke:none;stroke-opacity:1"
   cx="54.424"
   cy="76.191"
   r="0.764"
   id="circle128" />
		</g>
		<g
   id="g134"
   style="stroke:none;stroke-opacity:1">
			<circle
   style="fill:#54AF79;stroke:none;stroke-opacity:1"
   cx="66.324"
   cy="101.393"
   r="0.764"
   id="circle132" />
		</g>
		<g
   id="g138"
   style="stroke:none;stroke-opacity:1">
			<circle
   style="fill:#7BC67B;stroke:none;stroke-opacity:1"
   cx="62.732"
   cy="100.629"
   r="0.764"
   id="circle136" />
		</g>
		<g
   id="g142"
   style="stroke:none;stroke-opacity:1">
			<circle
   style="fill:#54AF79;stroke:none;stroke-opacity:1"
   cx="73.601"
   cy="64.658"
   r="1.562"
   id="circle140" />
		</g>
		<g
   id="g146"
   style="stroke:none;stroke-opacity:1">
			<circle
   style="fill:#54AF79;stroke:none;stroke-opacity:1"
   cx="78.029"
   cy="71.316"
   r="1.527"
   id="circle144" />
		</g>
		<g
   id="g150"
   style="stroke:none;stroke-opacity:1">
			<circle
   style="fill:#7BC67B;stroke:none;stroke-opacity:1"
   cx="56.296"
   cy="91.785"
   r="1.526"
   id="circle148" />
		</g>
		<g
   id="g154"
   style="stroke:none;stroke-opacity:1">
			<path
   style="fill:#7BC67B;stroke:none;stroke-opacity:1"
   d="M66.178,69.387c0,3.578,1.543,6.479-2.035,6.479c-3.578,0-6.48-2.9-6.48-6.479     s2.902-6.48,6.48-6.48C67.721,62.906,66.178,65.809,66.178,69.387z"
   id="path152" />
		</g>
		<g
   id="g158"
   style="stroke:none;stroke-opacity:1">
			<path
   style="fill:#54AF79;stroke:none;stroke-opacity:1"
   d="M64.533,75.852c3.068-0.213,1.645-3.025,1.645-6.465c0-3.439,1.424-6.253-1.645-6.467V75.852z"
   id="path156" />
		</g>
	</g>
</g>
<g
   id="g164"
   style="stroke:#000000;stroke-opacity:1">
</g>
<g
   id="g166"
   style="stroke:#000000;stroke-opacity:1">
</g>
<g
   id="g168"
   style="stroke:#000000;stroke-opacity:1">
</g>
<g
   id="g170"
   style="stroke:#000000;stroke-opacity:1">
</g>
<g
   id="g172"
   style="stroke:#000000;stroke-opacity:1">
</g>
<g
   id="g174"
   style="stroke:#000000;stroke-opacity:1">
</g>
<g
   id="g176"
   style="stroke:#000000;stroke-opacity:1">
</g>
<g
   id="g178"
   style="stroke:#000000;stroke-opacity:1">
</g>
<g
   id="g180"
   style="stroke:#000000;stroke-opacity:1">
</g>
<g
   id="g182"
   style="stroke:#000000;stroke-opacity:1">
</g>
<g
   id="g184"
   style="stroke:#000000;stroke-opacity:1">
</g>
<g
   id="g186"
   style="stroke:#000000;stroke-opacity:1">
</g>
<g
   id="g188"
   style="stroke:#000000;stroke-opacity:1">
</g>
<g
   id="g190"
   style="stroke:#000000;stroke-opacity:1">
</g>
<g
   id="g192"
   style="stroke:#000000;stroke-opacity:1">
</g>
</svg>