<?xml version="1.0" encoding="UTF-8" standalone="no"?>
<!-- Generator: Adobe Illustrator 19.0.0, SVG Export Plug-In . SVG Version: 6.00 Build 0)  -->

<svg
   xmlns:dc="http://purl.org/dc/elements/1.1/"
   xmlns:cc="http://creativecommons.org/ns#"
   xmlns:rdf="http://www.w3.org/1999/02/22-rdf-syntax-ns#"
   xmlns:svg="http://www.w3.org/2000/svg"
   xmlns="http://www.w3.org/2000/svg"
   xmlns:sodipodi="http://sodipodi.sourceforge.net/DTD/sodipodi-0.dtd"
   xmlns:inkscape="http://www.inkscape.org/namespaces/inkscape"
   version="1.1"
   id="Layer_1"
   x="0px"
   y="0px"
   viewBox="0 0 511.99 511.99"
   style="enable-background:new 0 0 511.99 511.99;"
   xml:space="preserve"
   sodipodi:docname="pokemon_ball.svg"
   inkscape:version="0.92.4 (5da689c313, 2019-01-14)"><metadata
   id="metadata49"><rdf:RDF><cc:Work
       rdf:about=""><dc:format>image/svg+xml</dc:format><dc:type
         rdf:resource="http://purl.org/dc/dcmitype/StillImage" /><dc:title></dc:title></cc:Work></rdf:RDF></metadata><defs
   id="defs47" /><sodipodi:namedview
   pagecolor="#ffffff"
   bordercolor="#666666"
   borderopacity="1"
   objecttolerance="10"
   gridtolerance="10"
   guidetolerance="10"
   inkscape:pageopacity="0"
   inkscape:pageshadow="2"
   inkscape:window-width="1920"
   inkscape:window-height="986"
   id="namedview45"
   showgrid="false"
   inkscape:zoom="1.843786"
   inkscape:cx="247.64147"
   inkscape:cy="221.3119"
   inkscape:window-x="-11"
   inkscape:window-y="-11"
   inkscape:window-maximized="1"
   inkscape:current-layer="Layer_1" />
<polygon
   style="fill:#ED5564;"
   points="493.991,200.996 478.991,149.497 437.991,89.998 384.493,45.999 319.493,19.999   263.995,13.499 198.996,21.499 128.997,48.999 78.498,87.498 40.499,135.497 18.999,200.496 18.999,236.995 58.498,240.495   168.996,255.995 187.996,210.996 234.995,184.996 262.495,184.996 287.995,188.996 320.993,210.996 347.993,252.495   496.491,235.995 "
   id="polygon2" />
<polygon
   style="fill:#F5F7FA;"
   points="340.993,288.495 335.993,293.494 319.493,326.993 288.995,346.993 260.245,349.493   235.995,344.993 220.495,339.993 199.996,326.993 187.496,311.994 174.496,288.495 150.497,283.995 75.498,276.495 18.999,271.995   14.999,284.995 40.499,374.493 107.997,451.991 219.495,497.991 304.994,500.491 367.993,478.491 432.991,427.491 482.491,353.493   505.49,266.667 "
   id="polygon4" />
<path
   style="fill:#434A54;"
   d="M505.49,238.495l-35.999,3l-123.998,18l-8-8l-7.5-17.5l-13.499-26.5l-37.499-19h-23l-43.101,8.719  l-23.398,20.781l-14.5,38h-41.5l-118.497-12l2,22.672l23,4.828l97.92,11.25l34.554,5.375l11.523,27.374l25.5,22.999l23,9.484h45.125  c0,0,29.374-17.984,31.718-19.484c2.328-1.5,31.655-39.998,31.655-39.998l12.5-6.5l130.998-15.328l23.498-7.672L505.49,238.495z"
   id="path6" />
<path
   style="fill:#F5F7FA;"
   d="M296.869,266.557c0,21.844-17.718,39.562-39.562,39.562c-21.851,0-39.562-17.718-39.562-39.562  s17.711-39.562,39.562-39.562C279.151,226.995,296.869,244.714,296.869,266.557z"
   id="path8" />
<path
   d="M 491.866,156.341 C 478.975,125.873 460.522,98.498 437.022,74.983 413.507,51.468 386.118,33.03 355.649,20.125 324.087,6.781 290.557,0 255.995,0 221.441,0 187.91,6.781 156.349,20.125 125.865,33.03 98.482,51.468 74.983,74.983 51.476,98.498 33.015,125.873 20.125,156.341 6.773,187.918 0,221.433 0,255.995 c 0,34.562 6.773,68.092 20.125,99.654 12.89,30.484 31.351,57.858 54.858,81.373 23.5,23.5 50.882,41.953 81.366,54.844 31.562,13.358 65.092,20.124 99.646,20.124 34.562,0 68.092,-6.766 99.654,-20.124 30.469,-12.891 57.858,-31.344 81.373,-54.844 23.5,-23.515 41.953,-50.889 54.844,-81.373 13.343,-31.562 20.124,-65.092 20.124,-99.654 0,-34.562 -6.781,-68.077 -20.124,-99.654 z m -1.219,99.654 c 0,0.656 0,1.297 -0.016,1.938 -10.406,1.984 -30.203,5.438 -57.672,8.859 -20.765,2.594 -48.326,5.453 -81.279,7.531 0.219,-2.516 0.312,-5.078 0.312,-7.656 0,-0.984 -0.016,-1.953 -0.047,-2.938 68.202,-4.234 116.576,-11.984 138.545,-16.047 0.095,2.766 0.157,5.532 0.157,8.313 z M 90.06,90.06 c 44.328,-44.311 103.256,-68.717 165.935,-68.717 62.686,0 121.607,24.406 165.935,68.717 37.233,37.25 60.405,84.795 66.874,136.216 -10.812,2.031 -29.906,5.281 -55.844,8.516 -21.343,2.672 -49.873,5.609 -84.061,7.703 -10.734,-41.28 -48.312,-71.827 -92.904,-71.827 -44.585,0 -82.17,30.546 -92.913,71.827 -34.179,-2.094 -62.709,-5.031 -84.045,-7.703 -55.843,-8.517 -51.67,-7.73489 -55.843,-8.517 C 29.647,174.856 52.827,127.31 90.06,90.06 Z m 240.589,176.607 c 0,41.171 -33.483,74.67 -74.654,74.67 -41.171,0 -74.663,-33.499 -74.663,-74.67 0,-41.171 33.491,-74.671 74.663,-74.671 41.171,0 74.654,33.499 74.654,74.671 z M 21.335,255.995 c 0,-2.781 0.062,-5.547 0.156,-8.312 21.968,4.062 70.35,11.812 138.552,16.047 -0.031,0.984 -0.047,1.953 -0.047,2.938 0,2.578 0.102,5.141 0.305,7.656 -32.944,-2.078 -60.506,-4.938 -81.264,-7.531 -27.484,-3.422 -47.273,-6.875 -57.679,-8.859 -0.007,-0.642 -0.023,-1.283 -0.023,-1.939 z M 421.93,421.93 c -44.328,44.327 -103.249,68.733 -165.935,68.733 -62.679,0 -121.607,-24.406 -165.935,-68.733 -38.64,-38.64 -62.14,-88.405 -67.53,-142.06 22.937,4.219 72.53,12.03 142.06,16.124 12.422,38.64 48.702,66.671 91.405,66.671 42.702,0 78.982,-28.031 91.404,-66.671 45.594,-2.688 82.623,-6.968 109.186,-10.78 32.876,-5.344 0,0 32.876,-5.344 -5.392,53.654 -28.892,103.42 -67.531,142.06 z"
   id="path10"
   inkscape:connector-curvature="0"
   sodipodi:nodetypes="cccscccscccscccscscccsccscsccccsccccssssssccscccscscccscccc" />
<path
   d="M255.995,213.339c-29.406,0-53.335,23.922-53.335,53.328c0,29.405,23.929,53.326,53.335,53.326s53.343-23.921,53.343-53.326  C309.338,237.261,285.401,213.339,255.995,213.339z M255.995,298.666c-17.648,0-32-14.358-32-31.999s14.351-32,32-32  c17.641,0,32,14.359,32,32S273.636,298.666,255.995,298.666z"
   id="path12" />
<g
   id="g14">
</g>
<g
   id="g16">
</g>
<g
   id="g18">
</g>
<g
   id="g20">
</g>
<g
   id="g22">
</g>
<g
   id="g24">
</g>
<g
   id="g26">
</g>
<g
   id="g28">
</g>
<g
   id="g30">
</g>
<g
   id="g32">
</g>
<g
   id="g34">
</g>
<g
   id="g36">
</g>
<g
   id="g38">
</g>
<g
   id="g40">
</g>
<g
   id="g42">
</g>
</svg>