<svg id="Layer_1" enable-background="new 0 0 512 512" height="512" viewBox="0 0 512 512" width="512" xmlns="http://www.w3.org/2000/svg"><g><path d="m190.538 263.076-28.962 92.593c-1.64 5.244-4.711 9.926-8.868 13.519-3.516 3.039-1.366 8.812 3.281 8.812h43.781c4.162 0 7.537-3.374 7.537-7.537 0-3.778 1.015-7.486 2.939-10.738l34.292-57.956z" fill="#d4dcde"/><path d="m244.785 378h40.122c3.199 0 5.656-2.827 5.218-5.995-2.68-19.371-7.06-58.812-1.181-62.289 14.89-8.79 110.12-6.15 120.46 10.46 7.36 14.66 14.44 29.78 20.82 42.46.815 1.625.416 4.272-.551 7.408-1.217 3.947 1.665 7.956 5.795 7.956h40.328c3.16 0 5.61-2.757 5.231-5.894-2.961-24.486-9.991-87.772-11.313-107.9-3.55-54.13 14.86-127.99-33.72-159.17-58.22-37.36-328.67 40.31-339.32 38.97-6.48-.81-17.53-5.06-25.59-.81-10.86 5.71-14.71 14.93-13.79 28.73-11.21 21.69-11.03 27.43-13.29 51.74-2.71 29.23-31.02 18.32-14.92 38.33 10.44 12.98 18.94 19.09 34.79 13.98 20.01-6.46 98.54-21.11 113.55-14.58 19.74 8.59 43.85 64.89 62.11 101.24.817 1.625.421 4.272-.546 7.408-1.215 3.947 1.667 7.956 5.797 7.956z" fill="#f1f9fb"/><g fill="#e1e9eb"><g><path d="m481.026 372.106c-2.961-24.486-9.99-87.772-11.313-107.9-3.55-54.13 14.86-127.99-33.72-159.17-13.72-8.804-39.229-11.219-70.345-9.786 17.339 1.002 31.368 4.025 40.345 9.786 48.58 31.18 30.17 105.04 33.72 159.17 1.322 20.129 8.352 83.414 11.313 107.9.379 3.137-2.071 5.894-5.23 5.894h30c3.16 0 5.61-2.757 5.23-5.894z"/><path d="m288.944 309.716c4.041-2.385 14.003-3.927 26.573-4.578-25.16-1.137-44.547.683-49.697 6.899-7.649 9.233-8.375 40.597-5.696 59.968.438 3.169-2.019 5.995-5.218 5.995h30c3.199 0 5.656-2.827 5.218-5.995-2.679-19.371-7.059-58.813-1.18-62.289z"/></g><circle cx="44.8" cy="23.5" r="16"/><circle cx="162.916" cy="71.193" r="16"/><circle cx="310.643" cy="94.863" r="16"/><circle cx="67.092" cy="327.888" r="16"/><circle cx="353.592" cy="304.819" r="16"/><circle cx="457.79" cy="35.198" r="16"/></g><path d="m453.26 374.08c-.08-3.12-.07-6.02.06-8.57.15 3.32.12 6.15-.06 8.57z" fill="#bdf9ff"/><path d="m490.5 504.5h-469c-7.732 0-14-6.268-14-14v-80h497v80c0 7.732-6.268 14-14 14z" fill="#bdf9ff"/><path d="m474.5 410.5v80c0 7.732-6.268 14-14 14h30c7.732 0 14-6.268 14-14v-80z" fill="#8cf2ff"/><path d="m504.5 454v-62c0-7.732-6.268-14-14-14h-469c-7.732 0-14 6.268-14 14v62c22.723 15.943 44.549-12.931 68.27-10.294 26.927 2.993 47.486 33.5 79.486 33.5 42.667 0 74.624-30.447 107.088-32.028 30.273-1.474 56.761 24.159 87.057 23.259 37.28-1.108 69.647-44.178 107.082-30.716 18.01 6.475 26.175 23.233 48.017 16.279z" fill="#f1f9fb"/><g fill="#e1e9eb"><path d="m232.344 445.177c-27.934 1.36-55.499 24.077-89.829 30.395 4.059 1.026 8.286 1.633 12.741 1.633 37.218 0 66.287-23.163 94.652-30.129-5.746-1.412-11.58-2.19-17.564-1.899z"/><path d="m45.77 443.706c-12.717-1.413-24.89 6.229-36.948 11.167 16.325 10.24 32.214-1.947 48.707-8.145-3.817-1.494-7.715-2.573-11.759-3.022z"/><path d="m332.465 466.432c5.543 1.381 11.17 2.175 16.936 2.003 26.834-.797 51.123-23.335 76.589-30.883-32.795-11.371-61.726 20.398-93.525 28.88z"/><path d="m490.5 378h-30c7.732 0 14 6.268 14 14v55.998c8.469 5.675 16.699 10.236 30 6.002v-62c0-7.732-6.268-14-14-14z"/></g><path d="m41.654 233.532c-7.237 16.965-26.482 11.173-12.57 28.464 10.44 12.98 18.94 19.09 34.79 13.98 6.661-2.151 19.811-5.209 34.94-8.091 0 0-26.648-3.65-40.276-15.5s-16.884-18.853-16.884-18.853z" fill="#598399"/><g><path d="m53.554 285.283c3.788 0 7.969-.666 12.62-2.166 8.075-2.606 28.526-7.23 51.99-11.023 4.089-.661 6.867-4.512 6.207-8.601-.661-4.089-4.509-6.865-8.602-6.207-5.73.926-11.501 1.939-17.08 2.989-4.484-.746-24.88-4.55-35.23-13.55-7.59-6.6-11.594-11.421-13.523-14.095.714-2.443 1.245-5.183 1.531-8.266 2.23-23.937 1.952-28.611 12.485-48.991.628-1.215.911-2.578.82-3.942-.879-13.184 3.281-18.167 9.805-21.597 3.729-1.966 10.095-.596 15.207.504 2.101.452 4.085.879 5.949 1.112 3.335.418 9.748-.983 40.956-8.327 37.233-8.763 98.924-23.281 156.671-32.352 4.297 4.664 10.454 7.591 17.281 7.591 9.104 0 17.014-5.203 20.916-12.792 14.03-1.57 26.896-2.573 38.303-2.983 4.14-.149 7.375-3.625 7.226-7.765s-3.605-7.393-7.765-7.226c-10.739.386-22.694 1.277-35.635 2.652-2.149-10.757-11.665-18.887-23.045-18.887-12.958 0-23.5 10.542-23.5 23.5 0 .571.021 1.138.061 1.699-57.178 9.186-117.327 23.342-153.95 31.961-16.733 3.938-32.563 7.664-36.076 7.986-1.167-.174-2.663-.496-4.235-.834-7.094-1.526-16.809-3.619-25.353.887-12.568 6.607-18.434 17.656-17.891 33.736-10.207 20.104-10.915 27.909-12.723 47.818-.139 1.536-.285 3.151-.444 4.861-.983 10.603-5.691 13.582-10.676 16.736-3.603 2.28-8.085 5.117-9.036 10.847-.99 5.964 2.688 11.506 6.415 16.139 7.694 9.566 16.366 18.587 30.321 18.586zm257.089-198.92c4.687 0 8.5 3.813 8.5 8.5 0 4.668-3.796 8.5-8.5 8.5-4.687 0-8.5-3.813-8.5-8.5s3.813-8.5 8.5-8.5zm-268.836 160.055c2.796 3.202 6.625 7.118 11.809 11.626 4.182 3.636 9.278 6.563 14.525 8.903-2.53.668-4.744 1.305-6.572 1.895-10.949 3.529-16.428 1.158-26.645-11.544-1.437-1.785-2.253-3.025-2.714-3.833 2.378-1.599 6.069-3.601 9.597-7.047z"/><path d="m44.8 47c12.958 0 23.5-10.542 23.5-23.5s-10.542-23.5-23.5-23.5-23.5 10.542-23.5 23.5 10.542 23.5 23.5 23.5zm0-32c4.687 0 8.5 3.813 8.5 8.5s-3.814 8.5-8.5 8.5-8.5-3.813-8.5-8.5 3.813-8.5 8.5-8.5z"/><path d="m162.916 94.693c12.958 0 23.5-10.542 23.5-23.5s-10.542-23.5-23.5-23.5-23.5 10.542-23.5 23.5 10.542 23.5 23.5 23.5zm0-32c4.687 0 8.5 3.813 8.5 8.5s-3.813 8.5-8.5 8.5-8.5-3.813-8.5-8.5 3.813-8.5 8.5-8.5z"/><path d="m43.593 327.888c0 12.958 10.542 23.5 23.5 23.5s23.5-10.542 23.5-23.5-10.542-23.5-23.5-23.5-23.5 10.542-23.5 23.5zm32 0c0 4.687-3.813 8.5-8.5 8.5s-8.5-3.813-8.5-8.5 3.813-8.5 8.5-8.5 8.5 3.813 8.5 8.5z"/><path d="m457.79 58.698c12.958 0 23.5-10.542 23.5-23.5s-10.542-23.5-23.5-23.5-23.5 10.542-23.5 23.5 10.542 23.5 23.5 23.5zm0-32c4.687 0 8.5 3.813 8.5 8.5s-3.813 8.5-8.5 8.5-8.5-3.813-8.5-8.5 3.814-8.5 8.5-8.5z"/><path d="m490.5 370.5h-2.109c-2.816-23.4-9.849-86.392-11.197-106.781-.848-12.918-.411-26.926.051-41.756 1.423-45.658 3.036-97.408-37.204-123.235-8.679-5.57-21.036-9.008-37.778-10.51-4.141-.367-7.771 2.674-8.141 6.799s2.674 7.77 6.8 8.141c14.078 1.263 24.514 4.02 31.018 8.194 33.084 21.235 31.676 66.434 30.313 110.145-.474 15.203-.922 29.563-.026 43.208 1.332 20.152 8.097 80.985 11.057 105.795h-35.942c.918-3.486 1.423-7.59-.421-11.231-4.998-9.931-20.014-41.226-21.152-43.053-1.723-2.767-6.759-10.856-39.07-15.697-2.026-10.912-11.616-19.2-23.105-19.2-10.328 0-19.121 6.697-22.265 15.976-14.238-.061-37.292.711-46.203 5.969-4.931 2.915-7.539 9.092-6.285 32.043.696 12.735 2.374 26.688 3.509 35.193h-35.69c.91-3.487 1.412-7.594-.425-11.227-20.388-40.575-43.163-94.891-65.82-104.751-3.517-1.529-10.675-3.342-32.2-1.442-4.126.364-7.176 4.004-6.812 8.13.363 4.126 4.017 7.187 8.13 6.811 19.237-1.698 24.115-.084 24.897.255 1.724.75 3.546 2.05 5.441 3.809l-25.447 81.344c-1.224 3.911-3.513 7.399-6.601 10.072-2.138 1.838-3.573 4.306-4.117 6.998h-122.206c-11.855.001-21.5 9.646-21.5 21.501v98.5c0 11.855 9.645 21.5 21.5 21.5h469c11.855 0 21.5-9.645 21.5-21.5v-98.5c0-11.855-9.645-21.5-21.5-21.5zm-136.908-74.181c4.687 0 8.5 3.813 8.5 8.5s-3.813 8.5-8.5 8.5-8.5-3.813-8.5-8.5 3.813-8.5 8.5-8.5zm-59.461 19.262c4.529-1.569 16.886-3.396 37.178-3.29 3.129 9.307 11.935 16.029 22.282 16.029 9.166 0 17.122-5.275 20.995-12.948 19.823 2.982 27.024 7.031 28.338 8.627 7.122 14.205 13.968 28.802 20.206 41.237-.272 2.06-.918 2.78-1.164 5.264h-124.482c-4.011-29.263-4.7-49.043-3.353-54.919zm-79.322 54.919c0-.013 0-.027 0-.04 0-2.516.705-4.91 1.896-6.911l8.149-13.772c2.624 5.409 5.14 10.573 7.588 15.46-.256 2.037-.91 2.78-1.158 5.263zm-46.071-12.591 22.424-71.682c8.587 12.974 17.714 30.832 25.83 47.379l-13.188 22.288c-2.555 4.295-3.953 9.224-4.035 14.605h-37.878c3.07-3.697 5.4-7.967 6.847-12.59zm321.762 139.091h-469c-3.584 0-6.5-2.916-6.5-6.5v-25c22.675 5.173 42.416-16.291 59.942-14.34 24.251 2.696 45.716 33.545 80.314 33.545 44.355 0 77.339-30.57 107.452-32.037 27.884-1.356 54.465 24.219 86.915 23.264 16.323-.485 31.373-7.946 46.633-16.214 3.642-1.973 4.994-6.525 3.021-10.167-1.974-3.641-6.524-4.997-10.168-3.021-14.127 7.654-26.883 14.021-39.932 14.409-28.093.808-54.656-24.833-87.2-23.253-34.666 1.688-65.934 32.019-106.722 32.019-29.102 0-49.358-30.197-78.658-33.454-24.391-2.713-44.86 21.208-61.599 13.464v-57.715c0-3.584 2.916-6.5 6.5-6.5h469c3.584 0 6.5 2.916 6.5 6.5v56.016c-13.472 1.555-21.038-11.262-37.979-17.354-12.502-4.495-25.264-4.065-40.161 1.353-3.894 1.416-5.901 5.719-4.486 9.611 1.416 3.892 5.716 5.901 9.611 4.485 11.421-4.152 20.941-4.578 29.96-1.334 14.277 5.134 23.826 19.639 43.055 18.306v27.417c.002 3.584-2.914 6.5-6.498 6.5z"/></g></g></svg>