<?xml version="1.0" encoding="UTF-8" standalone="no"?>
<svg
   xmlns:dc="http://purl.org/dc/elements/1.1/"
   xmlns:cc="http://creativecommons.org/ns#"
   xmlns:rdf="http://www.w3.org/1999/02/22-rdf-syntax-ns#"
   xmlns:svg="http://www.w3.org/2000/svg"
   xmlns="http://www.w3.org/2000/svg"
   xmlns:sodipodi="http://sodipodi.sourceforge.net/DTD/sodipodi-0.dtd"
   xmlns:inkscape="http://www.inkscape.org/namespaces/inkscape"
   id="Capa_1"
   enable-background="new 0 0 500.976 500.976"
   height="512"
   viewBox="0 0 500.976 500.976"
   width="512"
   version="1.1"
   sodipodi:docname="portugal_flag.svg"
   inkscape:version="0.92.4 (5da689c313, 2019-01-14)">
  <metadata
     id="metadata35">
    <rdf:RDF>
      <cc:Work
         rdf:about="">
        <dc:format>image/svg+xml</dc:format>
        <dc:type
           rdf:resource="http://purl.org/dc/dcmitype/StillImage" />
      </cc:Work>
    </rdf:RDF>
  </metadata>
  <defs
     id="defs33" />
  <sodipodi:namedview
     pagecolor="#ffffff"
     bordercolor="#666666"
     borderopacity="1"
     objecttolerance="10"
     gridtolerance="10"
     guidetolerance="10"
     inkscape:pageopacity="0"
     inkscape:pageshadow="2"
     inkscape:window-width="1920"
     inkscape:window-height="986"
     id="namedview31"
     showgrid="false"
     inkscape:zoom="1.84375"
     inkscape:cx="239.06779"
     inkscape:cy="98.767349"
     inkscape:window-x="-11"
     inkscape:window-y="-11"
     inkscape:window-maximized="1"
     inkscape:current-layer="Capa_1" />
  <path
     d="m493.478 109.658v281.66c0 9.62-7.8 17.41-17.41 17.41h-451.16c-9.61 0-17.41-7.79-17.41-17.41v-281.66c0-9.62 7.8-17.41 17.41-17.41h451.16c9.61 0 17.41 7.79 17.41 17.41z"
     fill="#5db33a"
     id="path2" />
  <path
     d="m493.478 109.658v281.66c0 9.62-7.8 17.41-17.41 17.41h-286.43v-316.48h286.43c9.61 0 17.41 7.79 17.41 17.41z"
     fill="#e04955"
     id="path4" />
  <circle
     cx="189.634"
     cy="250.488"
     fill="#fed22b"
     r="83.67"
     id="circle6" />
  <path
     d="m189.634 307.308c-24.159 0-43.744-19.585-43.744-43.744v-57.896h87.487v57.896c.001 24.159-19.584 43.744-43.743 43.744z"
     fill="#fff5f4"
     id="path8" />
  <path
     d="m476.068 373.728h-286.43v35h286.43c9.61 0 17.41-7.79 17.41-17.41v-35c0 9.62-7.8 17.41-17.41 17.41z"
     fill="#da2f3c"
     id="path10" />
  <path
     d="m56.448 373.728c-7.71 0-13.95-6.24-13.95-13.95v-250.12c0-9.62 7.8-17.41 17.41-17.41h-35c-9.62 0-17.41 7.79-17.41 17.41v281.66c0 9.62 7.79 17.41 17.41 17.41h164.73v-35z"
     fill="#5ca33b"
     id="path12" />
  <path
     d="m 493.476,172.409 c 4.142,0 7.5,-3.358 7.5,-7.5 V 103.78219 C 500.976,90.048188 495.67381,84.745 481.93981,84.745 H 117.369 c -4.142,0 -7.5,3.358 -7.5,7.5 0,4.142 3.358,7.5 7.5,7.5 h 64.77 v 59.882 c -46.778,3.826 -83.673,43.113 -83.673,90.86 0,47.747 36.896,87.034 83.673,90.86 v 59.882 H 66.068 c -4.142,0 -7.5,3.358 -7.5,7.5 0,4.142 3.358,7.5 7.5,7.5 h 415.87081 c 13.734,0 19.03619,-5.30219 19.03619,-19.03719 V 163.598 c 0,-4.142 -3.358,-7.5 -7.5,-7.5 -4.142,0 -7.5,3.358 -7.5,7.5 v 233.59481 c 0,5.463 1.42681,4.03719 -4.03619,4.03719 H 197.138 v -59.883 c 46.774,-3.829 83.667,-43.114 83.667,-90.859 0,-47.745 -36.892,-87.03 -83.667,-90.859 V 99.746 h 284.80181 c 5.463,0 4.03619,-1.426813 4.03619,4.03719 V 164.91 c 0,4.141 3.357,7.499 7.5,7.499 z m -227.672,78.079 c 0,42 -34.17,76.17 -76.17,76.17 -42,0 -76.17,-34.17 -76.17,-76.17 0,-42 34.17,-76.17 76.17,-76.17 42,0 76.17,34.17 76.17,76.17 z"
     id="path14"
     inkscape:connector-curvature="0"
     sodipodi:nodetypes="sssssssccsccssssssssssccsccsssssssss" />
  <path
     d="M 67.379,401.23 H 19.036187 C 13.573188,401.23 15,402.65682 15,397.19281 V 105.73913 C 15,100.27612 13.573187,99.745 19.036187,99.745 h 95.728933 c 4.142,0 7.5,-3.358 7.5,-7.5 0,-4.142 -3.358,-7.5 -7.5,-7.5 H 19.036187 C 5.3021875,84.746 0,92.005125 0,105.73913 V 397.19281 C 0,410.92681 5.3021875,416.23 19.036187,416.23 H 67.379 c 4.142,0 7.5,-3.358 7.5,-7.5 0,-4.142 -3.358,-7.5 -7.5,-7.5 z"
     id="path16"
     inkscape:connector-curvature="0"
     sodipodi:nodetypes="sssssssscssssss" />
  <path
     d="m138.391 205.668v57.896c0 28.256 22.988 51.244 51.244 51.244s51.244-22.988 51.244-51.244v-57.896c0-4.142-3.358-7.5-7.5-7.5h-87.487c-4.143 0-7.501 3.358-7.501 7.5zm15 7.5h72.487v50.396c0 19.985-16.259 36.244-36.244 36.244s-36.244-16.259-36.244-36.244v-50.396z"
     id="path18" />
  <path
     d="m169.997 263.989c3.934 0 7.123-3.189 7.123-7.123v-6.79c0-1.457-1.181-2.638-2.638-2.638h-8.971c-1.457 0-2.638 1.181-2.638 2.638v6.79c.001 3.934 3.19 7.123 7.124 7.123z"
     id="path20" />
  <path
     d="m189.634 263.989c3.934 0 7.123-3.189 7.123-7.123v-6.79c0-1.457-1.181-2.638-2.638-2.638h-8.971c-1.457 0-2.638 1.181-2.638 2.638v6.79c.001 3.934 3.19 7.123 7.124 7.123z"
     id="path22" />
  <path
     d="m189.634 241.293c3.934 0 7.123-3.189 7.123-7.123v-6.79c0-1.457-1.181-2.638-2.638-2.638h-8.971c-1.457 0-2.638 1.181-2.638 2.638v6.79c.001 3.934 3.19 7.123 7.124 7.123z"
     id="path24" />
  <path
     d="m189.634 286.686c3.934 0 7.123-3.189 7.123-7.123v-6.79c0-1.457-1.181-2.638-2.638-2.638h-8.971c-1.457 0-2.638 1.181-2.638 2.638v6.79c.001 3.934 3.19 7.123 7.124 7.123z"
     id="path26" />
  <path
     d="m209.272 263.989c3.934 0 7.123-3.189 7.123-7.123v-6.79c0-1.457-1.181-2.638-2.638-2.638h-8.971c-1.457 0-2.638 1.181-2.638 2.638v6.79c0 3.934 3.19 7.123 7.124 7.123z"
     id="path28" />
</svg>
