<?xml version="1.0" encoding="UTF-8" standalone="no"?>
<!-- Generator: Adobe Illustrator 19.0.0, SVG Export Plug-In . SVG Version: 6.00 Build 0)  -->

<svg
   xmlns:dc="http://purl.org/dc/elements/1.1/"
   xmlns:cc="http://creativecommons.org/ns#"
   xmlns:rdf="http://www.w3.org/1999/02/22-rdf-syntax-ns#"
   xmlns:svg="http://www.w3.org/2000/svg"
   xmlns="http://www.w3.org/2000/svg"
   xmlns:sodipodi="http://sodipodi.sourceforge.net/DTD/sodipodi-0.dtd"
   xmlns:inkscape="http://www.inkscape.org/namespaces/inkscape"
   version="1.1"
   id="Capa_1"
   x="0px"
   y="0px"
   viewBox="0 0 470 470"
   style="enable-background:new 0 0 470 470;"
   xml:space="preserve"
   width="512"
   height="512"
   sodipodi:docname="pudding.svg"
   inkscape:version="0.92.4 (5da689c313, 2019-01-14)"><metadata
   id="metadata33"><rdf:RDF><cc:Work
       rdf:about=""><dc:format>image/svg+xml</dc:format><dc:type
         rdf:resource="http://purl.org/dc/dcmitype/StillImage" /><dc:title></dc:title></cc:Work></rdf:RDF></metadata><defs
   id="defs31" /><sodipodi:namedview
   pagecolor="#ffffff"
   bordercolor="#666666"
   borderopacity="1"
   objecttolerance="10"
   gridtolerance="10"
   guidetolerance="10"
   inkscape:pageopacity="0"
   inkscape:pageshadow="2"
   inkscape:window-width="1920"
   inkscape:window-height="986"
   id="namedview29"
   showgrid="false"
   inkscape:zoom="5.2149125"
   inkscape:cx="115.07803"
   inkscape:cy="57.576032"
   inkscape:window-x="-11"
   inkscape:window-y="-11"
   inkscape:window-maximized="1"
   inkscape:current-layer="g26" />
<g
   id="g26">
	<path
   style="fill:#EF431D;"
   d="M235,37.5v90c24.853,0,45-20.147,45-45S259.853,37.5,235,37.5z"
   id="path2" />
	<path
   style="fill:#FD7555;"
   d="M250,82.5c0-24.853-6.716-45-15-45c-24.853,0-45,20.147-45,45s20.147,45,45,45   C243.284,127.5,250,107.353,250,82.5z"
   id="path4" />
	<polygon
   style="fill:#FDA162;"
   points="386.392,192.526 326.392,162.526 347.5,412.5 407.5,382.5  "
   id="polygon6" />
	<polygon
   style="fill:#FDCE6E;"
   points="83.608,192.526 62.5,382.5 379.722,402.5 354.17,172.527  "
   id="polygon8" />
	<path
   style="fill:#975D50;"
   d="M377.5,112.5h-30l-30,46.517l40.337,46.517c7.773-5.629,13.753-12.672,28.237-13.008L377.5,112.5z"
   id="path10" />
	<path
   style="fill:#B1786B;"
   d="M92.5,112.5l-8.574,80.027c18.145,0.421,22.942,11.371,34.642,16.875V317.5c0,8.284,6.716,15,15,15   c8.284,0,15-6.716,15-15V209.399c11.925-5.617,16.666-16.899,35.711-16.899c25.357,0,25.357,20,50.714,20   c25.356,0,25.356-20,50.712-20c25.359,0,25.359,20,50.719,20c10.082,0,16.157-3.16,21.413-6.966L347.5,112.5H92.5z"
   id="path12" />
	<path
   style="fill:#FDCE6E;"
   d="M407.5,397.5l-51.667,65h30c16.5,0,34.269-12.807,39.487-28.46l12.18-36.54H407.5z"
   id="path14" />
	<path
   style="fill:#FDFA7B;"
   d="M32.5,397.5l12.18,36.54c5.218,15.653,22.987,28.46,39.487,28.46h271.667   c16.5,0,34.269-12.807,39.487-28.46l12.18-36.54H32.5z"
   id="path16" />
	<path
   style="fill:#FEFDCA;"
   d="M447.5,382.5h-425c-8.284,0-15,6.716-15,15s6.716,15,15,15h425c8.284,0,15-6.716,15-15   S455.784,382.5,447.5,382.5z"
   id="path18" />
	<path
   d="M 447.5,375 H 414.213 L 384.954,111.672 C 384.532,107.873 381.322,105 377.5,105 H 282.429 C 285.737,98.028 287.5,90.36 287.5,82.5 287.5,55.928 267.652,33.918 242.006,30.481 240.513,19.808 235.631,9.95 227.877,2.196 c -2.929,-2.928 -7.678,-2.928 -10.606,0 -2.929,2.93 -2.929,7.678 0,10.607 4.949,4.949 8.23,11.121 9.56,17.835 C 201.748,34.575 182.5,56.33 182.5,82.5 c 0,4.143 3.358,7.5 7.5,7.5 4.142,0 7.5,-3.357 7.5,-7.5 0,-20.678 16.822,-37.5 37.5,-37.5 20.678,0 37.5,16.822 37.5,37.5 0,8.16 -2.646,16.033 -7.503,22.5 H 92.5 c -3.822,0 -7.032,2.873 -7.454,6.672 L 55.787,375 H 22.5 C 10.093,375 0,385.094 0,397.5 0,409.906 10.093,420 22.5,420 h 9.594 l 5.47,16.411 C 43.843,455.246 64.313,470 84.167,470 h 301.667 c 19.854,0 40.324,-14.754 46.602,-33.589 L 437.906,420 H 447.5 C 459.907,420 470,409.906 470,397.5 470,385.094 459.907,375 447.5,375 Z M 99.213,120 h 169.212 c 0.037,0 0.073,0.005 0.11,0.005 0.032,0 0.064,-0.004 0.095,-0.005 h 102.157 l 7.318,65.862 c -9.71,1.912 -15.838,6.725 -20.952,10.753 -5.949,4.685 -10.648,8.385 -20.729,8.385 -10.079,0 -14.772,-3.702 -20.715,-8.389 C 309.149,191.437 300.986,185 285.705,185 c -15.28,0 -23.442,6.438 -30.001,11.611 -5.941,4.687 -10.635,8.389 -20.711,8.389 -10.077,0 -14.77,-3.702 -20.712,-8.389 C 207.722,191.438 199.559,185 184.279,185 c -15.28,0 -23.443,6.438 -30.002,11.611 -2.928,2.31 -5.694,4.49 -8.905,6.003 -2.627,1.238 -4.304,3.881 -4.304,6.785 V 317.5 c 0,4.136 -3.364,7.5 -7.5,7.5 -4.136,0 -7.5,-3.364 -7.5,-7.5 V 209.401 c 0,-2.905 -1.678,-5.55 -4.308,-6.787 -3.214,-1.512 -5.983,-3.691 -8.914,-6 -5.114,-4.028 -11.242,-8.84 -20.951,-10.752 z m -8.982,80.84 c 5.429,1.341 9.051,4.185 13.335,7.558 2.238,1.763 4.679,3.685 7.502,5.438 V 317.5 c 0,12.406 10.093,22.5 22.5,22.5 12.407,0 22.5,-10.094 22.5,-22.5 V 213.831 c 2.822,-1.755 5.261,-3.679 7.498,-5.442 5.942,-4.687 10.636,-8.389 20.713,-8.389 10.077,0 14.77,3.702 20.712,8.389 6.559,5.172 14.721,11.611 30.002,11.611 15.28,0 23.442,-6.438 30,-11.611 5.942,-4.687 10.635,-8.389 20.711,-8.389 10.078,0 14.772,3.702 20.715,8.389 6.56,5.173 14.723,11.611 30.004,11.611 15.279,0 23.446,-6.433 30.009,-11.601 4.284,-3.374 7.906,-6.219 13.336,-7.559 L 399.121,375 H 70.879 Z M 447.5,405 h -14.829 c -0.025,-10e-4 -0.049,0 -0.074,0 H 66.289062 c -4.141999,0 5.351563,3.357 5.351563,7.5 0,4.143 -9.493562,7.5 -5.351563,7.5 H 422.094 l -3.889,11.667 C 413.989,444.314 399.165,455 385.833,455 H 84.167 C 70.835,455 56.011,444.314 51.795,431.667 L 47.906,420 H 67.5 c 4.142,0 7.5,-3.357 7.5,-7.5 0,-4.143 -3.358,-7.5 -7.5,-7.5 h -45 c -4.136,0 -7.5,-3.364 -7.5,-7.5 0,-4.136 3.364,-7.5 7.5,-7.5 h 425 c 4.136,0 7.5,3.364 7.5,7.5 0,4.136 -3.364,7.5 -7.5,7.5 z"
   id="path20"
   inkscape:connector-curvature="0"
   sodipodi:nodetypes="sccscscccscssssscsccsssccssccssscssccccscscscsccssssscccccccsssccscscscscccccscssssccssccsssssssss" />
	<circle
   cx="340.171"
   cy="315"
   r="7.5"
   id="circle22" />
	<circle
   cx="310.171"
   cy="345"
   r="7.5"
   id="circle24" />
</g>















</svg>