<?xml version="1.0" encoding="UTF-8" standalone="no"?>
<!-- Generator: Adobe Illustrator 19.0.0, SVG Export Plug-In . SVG Version: 6.00 Build 0)  -->

<svg
   xmlns:dc="http://purl.org/dc/elements/1.1/"
   xmlns:cc="http://creativecommons.org/ns#"
   xmlns:rdf="http://www.w3.org/1999/02/22-rdf-syntax-ns#"
   xmlns:svg="http://www.w3.org/2000/svg"
   xmlns="http://www.w3.org/2000/svg"
   xmlns:sodipodi="http://sodipodi.sourceforge.net/DTD/sodipodi-0.dtd"
   xmlns:inkscape="http://www.inkscape.org/namespaces/inkscape"
   version="1.1"
   id="Layer_1"
   x="0px"
   y="0px"
   viewBox="0 0 503.467 503.467"
   style="enable-background:new 0 0 503.467 503.467;"
   xml:space="preserve"
   sodipodi:docname="rio_de_janeiro_christ.svg"
   inkscape:version="0.92.4 (5da689c313, 2019-01-14)"><metadata
   id="metadata45"><rdf:RDF><cc:Work
       rdf:about=""><dc:format>image/svg+xml</dc:format><dc:type
         rdf:resource="http://purl.org/dc/dcmitype/StillImage" /></cc:Work></rdf:RDF></metadata><defs
   id="defs43" /><sodipodi:namedview
   pagecolor="#ffffff"
   bordercolor="#666666"
   borderopacity="1"
   objecttolerance="10"
   gridtolerance="10"
   guidetolerance="10"
   inkscape:pageopacity="0"
   inkscape:pageshadow="2"
   inkscape:window-width="1920"
   inkscape:window-height="986"
   id="namedview41"
   showgrid="false"
   inkscape:zoom="1.3258243"
   inkscape:cx="170.87891"
   inkscape:cy="248.02283"
   inkscape:window-x="-11"
   inkscape:window-y="-11"
   inkscape:window-maximized="1"
   inkscape:current-layer="Layer_1" />
<g
   transform="matrix(0.95,0,0,0.95,13.5367,15.4367)"
   id="g6">
	<path
   style="fill:#ecf4f7"
   d="m 344.6,171.933 c 0,0 -11.093,17.067 -28.16,17.067 h -2.56 L 308.76,98.547 V 96.84 L 447,104.52 c 0,0 8.533,-8.533 25.6,-8.533 17.067,0 25.6,8.533 25.6,17.067 0,8.534 -8.533,17.067 -25.6,17.067 H 447 c 0,0 0,8.533 -25.6,25.6 -25.6,17.067 -76.8,16.212 -76.8,16.212 z M 54.467,103.667 193.56,95.987 v 0.853 l -5.973,91.307 h -0.853 c 0,0 -22.187,0 -30.72,-17.067 0,0 -51.2,0 -76.8,-17.067 -25.6,-17.067 -25.6,-25.6 -25.6,-25.6 h -25.6 c -17.067,0 -25.6,-8.533 -25.6,-17.067 0,-8.534 8.533,-17.067 25.6,-17.067 17.067,0 26.453,9.388 26.453,9.388 z"
   id="path2"
   inkscape:connector-curvature="0" />
	<path
   style="fill:#ecf4f7"
   d="m 282.307,69.533 v 0 c 2.56,14.507 2.56,25.6 2.56,25.6 l 23.893,0.853 v 1.707 l 5.12,90.453 10.24,179.2 h -0.853 0.853 l 3.413,59.733 H 284.866 250.733 216.6 173.933 l 5.973,-102.4 71.68,21.333 -71.68,-21.333 8.533,-136.533 5.973,-91.307 v -0.853 l 23.04,-0.853 c 0,0 0,-11.947 1.707,-25.6 h 0.853 c 0,0 5.973,25.6 31.573,25.6 25.6,0 30.722,-25.6 30.722,-25.6 0,0 -5.973,25.6 -31.573,25.6 -25.6,0 -31.573,-25.6 -31.573,-25.6 h -0.853 c 3.413,-22.187 11.093,-51.2 32.427,-51.2 21.334,0 29.012,29.014 31.572,51.2 z m 79.36,358.4 17.067,51.2 h -256 l 17.067,-51.2 h 34.133 42.666 34.133 34.133 42.667 z"
   id="path4"
   inkscape:connector-curvature="0" />
</g>
<path
   style="fill:#483737;stroke:#483737;stroke-width:8.5;stroke-miterlimit:4;stroke-dasharray:none;stroke-opacity:1"
   d="m 373.334,474.6667 v 0 h -243.2 v 0 H 16.64035 c -2.432,0 -4.05365,-1.62165 -4.05365,-4.05365 0,-2.432 1.62165,-4.05365 4.05365,-4.05365 H 126.8907 l 15.40235,-46.208 c 0.81035,-1.62165 2.432,-2.432 4.05365,-2.432 h 28.37365 l 4.05365,-64.85365 c 0,-2.432 1.62165,-4.05365 4.05365,-4.05365 2.432,0 4.05365,2.432 4.05365,4.05365 l -4.05365,64.04235 H 215.254 v -51.8814 c 0,-2.432 1.62165,-4.05365 4.05365,-4.05365 2.432,0 4.05365,1.62165 4.05365,4.05365 v 52.69365 h 24.32 V 373.334 c 0,-2.432 1.62165,-4.05365 4.05365,-4.05365 2.432,0 4.05365,1.62165 4.05365,4.05365 v 44.58635 h 24.32 v -36.48 c 0,-2.432 1.62165,-4.05365 4.05365,-4.05365 2.432,0 4.05365,1.62165 4.05365,4.05365 v 36.48 h 32.42635 L 304.4267,146.3467 c 0,-2.432 1.62165,-4.05365 4.05365,-4.05365 2.432,0 4.05365,1.62165 4.05365,4.05365 l 16.2127,271.57365 h 28.37365 c 1.62165,0 3.24235,0.81035 4.05365,2.432 l 15.40235,46.208 H 486.8267 c 2.432,0 4.05365,1.62165 4.05365,4.05365 0,2.432 -1.62165,4.05365 -4.05365,4.05365 H 373.334 Z M 135.80835,466.56035 H 367.6587 L 353.878,426.0267 h -29.184 v 0 h -145.92 v 0 H 149.59 Z M 292.2667,361.17305 h -0.81035 L 183.638,328.7467 c -1.62165,-0.81035 -3.24235,-2.432 -3.24235,-4.05365 l 7.296,-125.65365 c -6.48565,-0.81035 -20.26635,-4.05365 -27.56235,-16.21365 -10.53835,0 -50.26165,-2.432 -72.96,-17.024 -17.024,-11.34965 -22.69835,-19.456 -25.13035,-23.50965 h -21.0786 c -19.456,9.5e-4 -28.37365,-10.5374 -28.37365,-20.2654 0,-9.728 8.91765,-20.26635 28.37365,-20.26635 13.78165,0 22.69835,5.67435 25.94165,8.10635 l 148.352,-8.10635 c 0.81035,-15.40235 4.864,-72.96 36.48,-72.96 31.616,0 35.66965,57.55765 36.48,72.96 l 148.352,8.10635 c 3.24235,-2.432 12.16,-8.10635 25.94165,-8.10635 19.456,0 28.37365,10.53835 28.37365,20.26635 0,9.728 -8.91765,20.26635 -28.37365,20.26635 H 441.43 c -2.432,4.864 -8.10635,12.16 -25.13035,23.50965 -25.13035,17.024 -72.96,17.024 -75.392,17.024 -2.432,0 -4.05365,-1.62165 -4.05365,-4.05365 0,-2.432 1.62165,-4.05365 4.05365,-4.05365 0.81035,0 47.82965,0 70.528,-15.40235 C 432.5133,145.5354 434.134,138.2394 434.134,138.2394 c 0,-2.432 1.62165,-4.05365 4.05365,-4.05365 h 24.32 c 12.97035,0 20.26635,-6.48565 20.26635,-12.16 0,-5.67435 -7.296,-12.16 -20.26635,-12.16 -13.78165,0 -21.07765,6.48565 -21.07765,7.296 -0.81035,0.81035 -1.62165,0.81035 -3.24235,0.81035 l -154.0273,-8.1054 c -2.432,0 -4.05365,-1.62165 -4.05365,-4.05365 0,-3.24235 0,-6.48565 0,-10.53835 -5.67435,7.296 -14.592,14.592 -28.37365,14.592 -13.78165,0 -22.69835,-7.296 -28.37365,-14.592 0,4.05365 0,7.296 0,10.53835 0,2.432 -1.62165,4.05365 -4.05365,4.05365 L 65.2794,117.97305 c -0.81035,0 -2.432,0 -3.24235,-0.81035 0,0 -7.296,-7.296 -21.07765,-7.296 -12.97035,0 -20.26635,6.48565 -20.26635,12.16 0,5.67435 7.296,12.16 20.26635,12.16 h 24.32 c 2.432,0 4.05365,1.62165 4.05365,4.05365 v 0 c 0,0 1.62165,7.296 22.69835,21.07765 22.69835,15.40235 70.528,15.40235 70.528,15.40235 1.62165,0 3.24235,0.81035 3.24235,2.432 4.864,10.53835 16.21365,12.97035 21.888,13.78165 l 2.432,-44.58635 c 0,-2.432 2.432,-4.05365 4.05365,-4.05365 2.432,0 4.05365,2.432 4.05365,4.05365 l -4.05365,70.528 c 0,0 0,0 0,0.81035 23.50965,54.31435 65.664,70.528 66.47435,70.528 2.432,0.81035 3.24235,3.24235 2.432,4.864 -0.81035,2.432 -3.24235,3.24235 -4.864,2.432 -1.62165,-0.81035 -38.912,-14.592 -64.85365,-62.42165 l -4.864,88.36235 104.576,31.616 c 2.432,0.81035 3.24235,3.24235 2.432,4.864 0.002,2.432 -1.61975,3.24235 -3.2414,3.24235 z M 225.79235,79.87235 c 0,0.81035 0,0.81035 0,0 0,0.81035 5.67435,21.888 25.94165,21.888 21.07765,0 25.94165,-20.26635 25.94165,-21.07765 V 79.87235 C 274.43235,59.60505 267.13635,36.9067 251.734,36.9067 c -15.40235,0 -23.50965,22.69835 -25.94165,42.96565 z"
   id="path8"
   inkscape:connector-curvature="0" />
<g
   id="g10"
   transform="matrix(0.95,0,0,0.95,12.5867,12.5867)">
</g>
<g
   id="g12"
   transform="matrix(0.95,0,0,0.95,12.5867,12.5867)">
</g>
<g
   id="g14"
   transform="matrix(0.95,0,0,0.95,12.5867,12.5867)">
</g>
<g
   id="g16"
   transform="matrix(0.95,0,0,0.95,12.5867,12.5867)">
</g>
<g
   id="g18"
   transform="matrix(0.95,0,0,0.95,12.5867,12.5867)">
</g>
<g
   id="g20"
   transform="matrix(0.95,0,0,0.95,12.5867,12.5867)">
</g>
<g
   id="g22"
   transform="matrix(0.95,0,0,0.95,12.5867,12.5867)">
</g>
<g
   id="g24"
   transform="matrix(0.95,0,0,0.95,12.5867,12.5867)">
</g>
<g
   id="g26"
   transform="matrix(0.95,0,0,0.95,12.5867,12.5867)">
</g>
<g
   id="g28"
   transform="matrix(0.95,0,0,0.95,12.5867,12.5867)">
</g>
<g
   id="g30"
   transform="matrix(0.95,0,0,0.95,12.5867,12.5867)">
</g>
<g
   id="g32"
   transform="matrix(0.95,0,0,0.95,12.5867,12.5867)">
</g>
<g
   id="g34"
   transform="matrix(0.95,0,0,0.95,12.5867,12.5867)">
</g>
<g
   id="g36"
   transform="matrix(0.95,0,0,0.95,12.5867,12.5867)">
</g>
<g
   id="g38"
   transform="matrix(0.95,0,0,0.95,12.5867,12.5867)">
</g>
</svg>