<?xml version="1.0" encoding="iso-8859-1"?>
<!-- Generator: Adobe Illustrator 19.0.0, SVG Export Plug-In . SVG Version: 6.00 Build 0)  -->
<svg version="1.1" id="Capa_1" xmlns="http://www.w3.org/2000/svg" xmlns:xlink="http://www.w3.org/1999/xlink" x="0px" y="0px"
	 viewBox="0 0 512 512" style="enable-background:new 0 0 512 512;" xml:space="preserve">
<g>
	<rect x="237.584" y="320.125" style="fill:#F37121;" width="32.063" height="184.36"/>
	<rect x="333.772" y="320.125" style="fill:#F37121;" width="32.063" height="184.36"/>
	<rect x="141.396" y="320.125" style="fill:#F37121;" width="32.063" height="184.36"/>
</g>
<path style="fill:#C7D450;" d="M253.61,320.125c101.708,0,184.175,82.694,184.356,184.36h56.11
	c-0.181-132.654-107.769-240.47-240.466-240.47S13.325,371.831,13.145,504.485h56.11C69.435,402.82,151.903,320.125,253.61,320.125z
	"/>
<path style="fill:#ED3124;" d="M293.689,135.765h-16.031v32.063h-64.125v-32.063h-32.063v40.078
	c0,17.708,14.355,32.063,32.063,32.063h112.219v-40.078C325.751,150.12,311.396,135.765,293.689,135.765z"/>
<path style="fill:#D32C27;" d="M221.548,191.875c-13.281,0-24.047-10.766-24.047-24.047v-32.063h-16.031v40.078
	c0,17.708,14.355,32.063,32.063,32.063h112.219v-16.031H221.548z"/>
<rect x="213.537" y="135.765" style="fill:#FFD74A;" width="24.047" height="32.063"/>
<path style="fill:#ED3124;" d="M102.951,169.94l-13.292,8.963l17.924,26.584l-53.169,35.849L36.49,214.751L9.905,232.675
	l22.406,33.23c9.899,14.682,29.826,18.559,44.509,8.66l93.045-62.736l-22.406-33.23C137.56,163.917,117.633,160.041,102.951,169.94z
	"/>
<path style="fill:#D32C27;" d="M73.762,254.999c-11.012,7.424-25.957,4.517-33.381-6.495l-16.862-25.008l-13.614,9.179
	l22.406,33.231c9.899,14.682,29.826,18.559,44.509,8.66l93.045-62.736l-10.025-14.868L73.762,254.999z"/>
<rect x="43.38" y="205.283" transform="matrix(-0.8291 0.559 -0.559 -0.8291 225.0621 373.8433)" style="fill:#FFD74A;" width="24.046" height="32.061"/>
<path style="fill:#ECF0F0;" d="M173.454,38.909c-2.811,0-5.508,0.487-8.016,1.374v-9.389c0-12.912-10.467-23.379-23.379-23.379
	c-12.912,0-23.379,10.467-23.379,23.379c0,2.918,0.539,5.708,1.515,8.283c-0.927-0.166-1.877-0.268-2.852-0.268
	c-8.854,0-16.031,7.178-16.031,16.031h-8.016c-8.854,0-16.031,7.178-16.031,16.031s7.177,16.031,16.031,16.031h80.157
	c13.281,0,24.047-10.766,24.047-24.047S186.735,38.909,173.454,38.909z"/>
<path style="fill:#D8E0E0;" d="M173.454,71.64H93.297c-6.07,0-11.35-3.375-14.071-8.349c-1.248,2.28-1.96,4.898-1.96,7.682
	c0,8.853,7.177,16.031,16.031,16.031h80.157c13.281,0,24.047-10.766,24.047-24.047c0-2.687-0.448-5.268-1.26-7.682
	C193.034,64.787,184.046,71.64,173.454,71.64z"/>
<path style="fill:#ECF0F0;" d="M478.049,159.144c-2.811,0-5.508,0.487-8.016,1.374v-9.389c0-12.912-10.467-23.379-23.379-23.379
	c-12.912,0-23.379,10.467-23.379,23.379c0,2.918,0.539,5.708,1.515,8.283c-0.927-0.166-1.877-0.268-2.852-0.268
	c-8.854,0-16.031,7.178-16.031,16.031h-8.016c-8.854,0-16.031,7.178-16.031,16.031c0,8.853,7.177,16.031,16.031,16.031h80.157
	c13.281,0,24.047-10.766,24.047-24.047S491.33,159.144,478.049,159.144z"/>
<path style="fill:#D8E0E0;" d="M478.049,191.875h-80.157c-6.07,0-11.35-3.375-14.071-8.349c-1.248,2.28-1.96,4.898-1.96,7.682
	c0,8.853,7.177,16.031,16.031,16.031h80.157c13.281,0,24.047-10.766,24.047-24.047c0-2.687-0.448-5.268-1.26-7.682
	C497.629,185.021,488.641,191.875,478.049,191.875z"/>
<path d="M237.579,368.72c-4.15,0-7.515,3.364-7.515,7.515v128.25c0,4.151,3.365,7.515,7.515,7.515c4.15,0,7.515-3.364,7.515-7.515
	v-128.25C245.094,372.084,241.729,368.72,237.579,368.72z"/>
<path d="M487.51,379.771c2.059,3.854,7.12,5.129,10.77,2.728c3.199-2.104,4.288-6.437,2.485-9.81
	c-48.862-91.445-143.566-148.251-247.155-148.251c-103.536,0-198.218,56.763-247.097,148.14c-1.958,3.659-0.578,8.212,3.082,10.17
	c3.661,1.958,8.214,0.577,10.171-3.082c3.228-6.035,6.675-11.903,10.313-17.612l14.082,10.014
	c-24.326,38.335-38.464,83.754-38.53,132.408c-0.006,4.15,3.355,7.519,7.505,7.525c0.003,0,0.007,0,0.01,0
	c4.145,0,7.509-3.359,7.515-7.505C20.834,376.038,125.336,271.53,253.61,271.53s232.776,104.508,232.951,232.965
	c0.006,4.148,3.369,7.505,7.515,7.505c0.003,0,0.007,0,0.01,0c4.15-0.006,7.511-3.375,7.505-7.525
	c-0.066-48.654-14.205-94.073-38.53-132.408l14.081-10.014C480.801,367.795,484.266,373.7,487.51,379.771z M261.125,256.625v-17.043
	c39.092,1.098,76.69,10.736,110.547,27.57l-8.09,15.17C332.527,266.86,297.814,257.726,261.125,256.625z M143.64,282.321
	l-8.089-15.167c33.858-16.835,71.456-26.475,110.545-27.573v17.043C209.406,257.726,174.692,266.86,143.64,282.321z M52.596,359.623
	l-14.085-10.017c22.448-31.187,51.112-56.757,83.778-75.382l8.098,15.183C99.755,307.055,73.227,331.071,52.596,359.623z
	 M454.625,359.623c-20.631-28.554-47.159-52.57-77.791-70.215l8.099-15.186c32.666,18.625,61.33,44.194,83.778,75.384
	L454.625,359.623z"/>
<path d="M253.61,312.611c-105.609,0-191.682,86.068-191.871,191.861c-0.007,4.151,3.352,7.521,7.502,7.529c0.004,0,0.009,0,0.013,0
	c4.144,0,7.508-3.356,7.515-7.501c0.091-51.307,22.1-97.573,57.108-129.909v129.895c0,4.151,3.365,7.515,7.515,7.515
	c4.15,0,7.515-3.364,7.515-7.515V362.157c5.451-4.028,11.134-7.755,17.033-11.146v153.474c0,4.151,3.365,7.515,7.515,7.515
	c4.15,0,7.515-3.364,7.515-7.515V343.303c15.334-6.956,31.828-11.771,49.096-14.086v22.967c0,4.151,3.365,7.515,7.515,7.515
	c4.15,0,7.515-3.364,7.515-7.515v-24.335c2.823-0.135,5.661-0.209,8.517-0.209s5.694,0.074,8.517,0.209v176.636
	c0,4.151,3.365,7.515,7.515,7.515c4.15,0,7.515-3.364,7.515-7.515V329.217c17.268,2.316,33.762,7.131,49.096,14.086v161.182
	c0,4.151,3.365,7.515,7.515,7.515c4.15,0,7.515-3.364,7.515-7.515V351.012c5.9,3.391,11.583,7.118,17.033,11.146v142.328
	c0,4.151,3.365,7.515,7.515,7.515c4.15,0,7.515-3.364,7.515-7.515V374.591c35.006,32.335,57.016,78.602,57.108,129.909
	c0.007,4.146,3.371,7.501,7.515,7.501c0.004,0,0.009,0,0.013,0c4.15-0.008,7.509-3.378,7.502-7.529
	C445.293,398.679,359.22,312.611,253.61,312.611z"/>
<path d="M430.373,393.776c-3.592,2.078-4.82,6.675-2.742,10.268c17.579,30.39,26.871,65.122,26.871,100.441
	c0,4.151,3.365,7.515,7.515,7.515c4.15,0,7.515-3.364,7.515-7.515c0-37.958-9.991-75.293-28.891-107.968
	C438.563,392.925,433.965,391.7,430.373,393.776z"/>
<path d="M253.61,303.593c62.252,0,119.972,28.163,158.362,77.268c2.555,3.27,7.279,3.849,10.549,1.292
	c3.27-2.556,3.849-7.279,1.293-10.548c-41.259-52.774-103.295-83.041-170.203-83.041c-57.675,0-111.898,22.46-152.679,63.242
	c-40.783,40.783-63.243,95.006-63.243,152.68c0,4.151,3.365,7.515,7.515,7.515s7.515-3.364,7.515-7.515
	C52.718,393.713,142.838,303.593,253.61,303.593z"/>
<path d="M173.955,135.765v40.078c0,21.823,17.755,39.577,39.577,39.577h112.219c4.15,0,7.515-3.364,7.515-7.515v-40.078
	c0-21.823-17.755-39.577-39.577-39.577h-16.031c-4.15,0-7.515,3.364-7.515,7.515v24.548h-25.049v-24.548
	c0-4.151-3.365-7.515-7.515-7.515h-56.11C177.319,128.25,173.955,131.614,173.955,135.765z M230.064,160.313h-9.018V143.28h9.018
	V160.313z M188.984,143.28h17.033v24.548c0,4.151,3.365,7.515,7.515,7.515h64.125c4.15,0,7.515-3.364,7.515-7.515V143.28h8.517
	c13.535,0,24.548,11.012,24.548,24.548v32.564H213.532c-13.535,0-24.548-11.012-24.548-24.548L188.984,143.28L188.984,143.28z"/>
<path d="M253.61,199.389h1.002c4.15,0,7.515-3.364,7.515-7.515s-3.365-7.515-7.515-7.515h-1.002c-4.15,0-7.515,3.364-7.515,7.515
	S249.46,199.389,253.61,199.389z"/>
<path d="M277.657,199.389h1.002c4.15,0,7.515-3.364,7.515-7.515s-3.365-7.515-7.515-7.515h-1.002c-4.15,0-7.515,3.364-7.515,7.515
	S273.507,199.389,277.657,199.389z"/>
<path d="M229.563,199.389h1.002c4.15,0,7.515-3.364,7.515-7.515s-3.365-7.515-7.515-7.515h-1.002c-4.15,0-7.515,3.364-7.515,7.515
	S225.413,199.389,229.563,199.389z"/>
<path d="M58.955,287.546c7.609,0,15.296-2.185,22.066-6.749l93.045-62.736c3.391-2.286,4.318-7.038,2.029-10.432L153.69,174.4
	c-12.2-18.095-36.846-22.89-54.941-10.691l-13.292,8.963c-3.442,2.321-4.349,6.992-2.029,10.432l13.723,20.353L76.382,217.46
	l-13.724-20.354c-2.319-3.441-6.99-4.349-10.431-2.029L5.704,226.444c-3.442,2.32-4.349,6.992-2.03,10.431l22.407,33.232
	C33.716,281.432,46.226,287.546,58.955,287.546z M54.398,211.739l9.522,14.124l-7.477,5.041l-9.523-14.124L54.398,211.739z
	 M34.46,225.182l13.723,20.353c2.281,3.385,7.044,4.314,10.432,2.03l53.169-35.848c3.39-2.285,4.319-7.038,2.029-10.431
	l-13.724-20.354l7.062-4.761c11.223-7.569,26.51-4.593,34.078,6.631l18.204,26.999l-86.815,58.534
	c-11.223,7.567-26.51,4.592-34.077-6.629l-18.205-27.001L34.46,225.182z"/>
<path d="M101.094,246.383c1.446,0,2.908-0.417,4.197-1.287l0.831-0.561c3.44-2.322,4.346-6.993,2.025-10.432
	c-2.323-3.442-6.993-4.347-10.433-2.025l-0.831,0.561c-3.44,2.322-4.346,6.993-2.025,10.432
	C96.311,245.223,98.682,246.383,101.094,246.383z"/>
<path d="M121.033,232.94c1.446,0,2.908-0.417,4.197-1.286l0.831-0.561c3.44-2.322,4.346-6.993,2.025-10.432
	c-2.323-3.442-6.993-4.347-10.433-2.025l-0.831,0.561c-3.44,2.322-4.346,6.993-2.025,10.432
	C116.249,231.78,118.62,232.94,121.033,232.94z"/>
<path d="M81.157,259.826c1.446,0,2.908-0.417,4.197-1.287l0.831-0.561c3.44-2.322,4.346-6.993,2.025-10.432
	c-2.323-3.442-6.993-4.348-10.433-2.025l-0.831,0.561c-3.44,2.322-4.346,6.993-2.025,10.432
	C76.373,258.666,78.744,259.826,81.157,259.826z"/>
<path d="M93.297,94.519h80.157c17.403,0,31.562-14.159,31.562-31.562s-14.159-31.562-31.562-31.562
	c-0.167,0-0.334,0.001-0.501,0.004v-0.505C172.953,13.859,159.094,0,142.058,0s-30.893,13.859-30.893,30.894
	c0,0.439,0.009,0.879,0.028,1.316c-7.589,2.055-13.669,7.818-16.166,15.217h-1.73c-12.983,0-23.546,10.563-23.546,23.546
	S80.314,94.519,93.297,94.519z M93.297,62.456h8.016c4.15,0,7.515-3.364,7.515-7.515c0-4.696,3.82-8.517,8.517-8.517
	c1.626,0,3.078,0.449,4.708,0.033c1.53-0.391,2.916-1.264,3.925-2.481c1.729-2.082,2.205-4.934,1.245-7.465
	c-0.681-1.798-1.027-3.688-1.027-5.618c0-8.747,7.117-15.865,15.864-15.865c8.747,0,15.864,7.118,15.864,15.865v9.389
	c0,2.44,1.184,4.727,3.176,6.136c1.992,1.408,4.543,1.76,6.843,0.949c1.772-0.626,3.627-0.944,5.511-0.944
	c9.116,0,16.532,7.416,16.532,16.532s-7.416,16.532-16.532,16.532H93.297c-4.696,0-8.517-3.82-8.517-8.517
	S88.601,62.456,93.297,62.456z"/>
<path d="M397.892,214.753h80.157c17.403,0,31.562-14.159,31.562-31.562s-14.159-31.562-31.562-31.562
	c-0.167,0-0.334,0.001-0.501,0.004v-0.505c0-17.035-13.859-30.894-30.893-30.894s-30.893,13.859-30.893,30.894
	c0,0.439,0.009,0.879,0.028,1.316c-7.589,2.055-13.669,7.818-16.166,15.217h-1.73c-12.983,0-23.546,10.563-23.546,23.546
	C374.347,204.191,384.909,214.753,397.892,214.753z M397.892,182.691h8.016c4.15,0,7.515-3.364,7.515-7.515
	c0-4.696,3.82-8.517,8.517-8.517c1.577,0,2.997,0.445,4.578,0.051c1.358-0.339,2.602-1.073,3.578-2.074
	c2.021-2.071,2.755-5.164,1.721-7.889c-0.681-1.798-1.027-3.688-1.027-5.618c0-8.747,7.117-15.865,15.864-15.865
	s15.864,7.118,15.864,15.865v9.389c0,5.097,5.206,8.783,10.02,7.085c1.772-0.626,3.627-0.944,5.511-0.944
	c9.116,0,16.532,7.416,16.532,16.532c0,9.116-7.416,16.532-16.532,16.532h-80.157c-4.696,0-8.517-3.82-8.517-8.517
	C389.375,186.511,393.196,182.691,397.892,182.691z"/>
<g>
</g>
<g>
</g>
<g>
</g>
<g>
</g>
<g>
</g>
<g>
</g>
<g>
</g>
<g>
</g>
<g>
</g>
<g>
</g>
<g>
</g>
<g>
</g>
<g>
</g>
<g>
</g>
<g>
</g>
</svg>
