<?xml version="1.0" encoding="UTF-8" standalone="no"?>
<!-- Generator: Adobe Illustrator 19.0.0, SVG Export Plug-In . SVG Version: 6.00 Build 0)  -->

<svg
   xmlns:dc="http://purl.org/dc/elements/1.1/"
   xmlns:cc="http://creativecommons.org/ns#"
   xmlns:rdf="http://www.w3.org/1999/02/22-rdf-syntax-ns#"
   xmlns:svg="http://www.w3.org/2000/svg"
   xmlns="http://www.w3.org/2000/svg"
   xmlns:sodipodi="http://sodipodi.sourceforge.net/DTD/sodipodi-0.dtd"
   xmlns:inkscape="http://www.inkscape.org/namespaces/inkscape"
   version="1.1"
   id="Layer_1"
   x="0px"
   y="0px"
   viewBox="0 0 256.00001 256.00001"
   xml:space="preserve"
   sodipodi:docname="russia_flag.svg"
   inkscape:version="0.92.4 (5da689c313, 2019-01-14)"
   width="256"
   height="256"><metadata
   id="metadata43"><rdf:RDF><cc:Work
       rdf:about=""><dc:format>image/svg+xml</dc:format><dc:type
         rdf:resource="http://purl.org/dc/dcmitype/StillImage" /><dc:title /></cc:Work></rdf:RDF></metadata><defs
   id="defs41" /><sodipodi:namedview
   pagecolor="#ffffff"
   bordercolor="#666666"
   borderopacity="1"
   objecttolerance="10"
   gridtolerance="10"
   guidetolerance="10"
   inkscape:pageopacity="0"
   inkscape:pageshadow="2"
   inkscape:window-width="1920"
   inkscape:window-height="986"
   id="namedview39"
   showgrid="false"
   inkscape:zoom="0.92187324"
   inkscape:cx="-46.850383"
   inkscape:cy="-92.56738"
   inkscape:window-x="-11"
   inkscape:window-y="-11"
   inkscape:window-maximized="1"
   inkscape:current-layer="Layer_1" />
<path
   style="fill:#f5f5f5;stroke:#000000;stroke-width:9;stroke-miterlimit:4;stroke-dasharray:none;stroke-opacity:1"
   d="M 252.15975,100.88486 H 3.8397631 V 50.935198 c 0,-2.364375 1.9172,-4.28158 4.28158,-4.28158 H 247.87866 c 2.36437,0 4.28158,1.917206 4.28158,4.28158 z"
   id="path2"
   inkscape:connector-curvature="0" />
<path
   style="fill:#ff4b55;stroke:#000000;stroke-width:9;stroke-miterlimit:4;stroke-dasharray:none;stroke-opacity:1"
   d="M 247.87817,209.34638 H 8.1213431 c -2.36438,0 -4.28158,-1.9172 -4.28158,-4.28158 V 155.11562 H 252.15975 v 49.94918 c 0,2.36486 -1.9172,4.28158 -4.28158,4.28158 z"
   id="path4"
   inkscape:connector-curvature="0" />
<rect
   y="100.8839"
   style="fill:#41479b;stroke:#000000;stroke-width:9;stroke-miterlimit:4;stroke-dasharray:none;stroke-opacity:1"
   width="248.32001"
   height="54.227852"
   id="rect6"
   x="3.8397589" />
<g
   id="g8"
   style="stroke:#000000;stroke-width:18;stroke-miterlimit:4;stroke-dasharray:none;stroke-opacity:1"
   transform="matrix(0.5,0,0,0.5,-2.4682831e-4,-2.53e-4)">
</g>
<g
   id="g10"
   style="stroke:#000000;stroke-width:18;stroke-miterlimit:4;stroke-dasharray:none;stroke-opacity:1"
   transform="matrix(0.5,0,0,0.5,-2.4682831e-4,-2.53e-4)">
</g>
<g
   id="g12"
   style="stroke:#000000;stroke-width:18;stroke-miterlimit:4;stroke-dasharray:none;stroke-opacity:1"
   transform="matrix(0.5,0,0,0.5,-2.4682831e-4,-2.53e-4)">
</g>
<g
   id="g14"
   style="stroke:#000000;stroke-width:18;stroke-miterlimit:4;stroke-dasharray:none;stroke-opacity:1"
   transform="matrix(0.5,0,0,0.5,-2.4682831e-4,-2.53e-4)">
</g>
<g
   id="g16"
   style="stroke:#000000;stroke-width:18;stroke-miterlimit:4;stroke-dasharray:none;stroke-opacity:1"
   transform="matrix(0.5,0,0,0.5,-2.4682831e-4,-2.53e-4)">
</g>
<g
   id="g18"
   style="stroke:#000000;stroke-width:18;stroke-miterlimit:4;stroke-dasharray:none;stroke-opacity:1"
   transform="matrix(0.5,0,0,0.5,-2.4682831e-4,-2.53e-4)">
</g>
<g
   id="g20"
   style="stroke:#000000;stroke-width:18;stroke-miterlimit:4;stroke-dasharray:none;stroke-opacity:1"
   transform="matrix(0.5,0,0,0.5,-2.4682831e-4,-2.53e-4)">
</g>
<g
   id="g22"
   style="stroke:#000000;stroke-width:18;stroke-miterlimit:4;stroke-dasharray:none;stroke-opacity:1"
   transform="matrix(0.5,0,0,0.5,-2.4682831e-4,-2.53e-4)">
</g>
<g
   id="g24"
   style="stroke:#000000;stroke-width:18;stroke-miterlimit:4;stroke-dasharray:none;stroke-opacity:1"
   transform="matrix(0.5,0,0,0.5,-2.4682831e-4,-2.53e-4)">
</g>
<g
   id="g26"
   style="stroke:#000000;stroke-width:18;stroke-miterlimit:4;stroke-dasharray:none;stroke-opacity:1"
   transform="matrix(0.5,0,0,0.5,-2.4682831e-4,-2.53e-4)">
</g>
<g
   id="g28"
   style="stroke:#000000;stroke-width:18;stroke-miterlimit:4;stroke-dasharray:none;stroke-opacity:1"
   transform="matrix(0.5,0,0,0.5,-2.4682831e-4,-2.53e-4)">
</g>
<g
   id="g30"
   style="stroke:#000000;stroke-width:18;stroke-miterlimit:4;stroke-dasharray:none;stroke-opacity:1"
   transform="matrix(0.5,0,0,0.5,-2.4682831e-4,-2.53e-4)">
</g>
<g
   id="g32"
   style="stroke:#000000;stroke-width:18;stroke-miterlimit:4;stroke-dasharray:none;stroke-opacity:1"
   transform="matrix(0.5,0,0,0.5,-2.4682831e-4,-2.53e-4)">
</g>
<g
   id="g34"
   style="stroke:#000000;stroke-width:18;stroke-miterlimit:4;stroke-dasharray:none;stroke-opacity:1"
   transform="matrix(0.5,0,0,0.5,-2.4682831e-4,-2.53e-4)">
</g>
<g
   id="g36"
   style="stroke:#000000;stroke-width:18;stroke-miterlimit:4;stroke-dasharray:none;stroke-opacity:1"
   transform="matrix(0.5,0,0,0.5,-2.4682831e-4,-2.53e-4)">
</g>
</svg>