<?xml version="1.0" encoding="UTF-8" standalone="no"?>
<svg
   width="72px"
   height="72px"
   viewBox="0 0 72 72"
   id="emoji"
   version="1.1"
   sodipodi:docname="santa_claus.svg"
   inkscape:version="1.1.1 (3bf5ae0d25, 2021-09-20)"
   xmlns:inkscape="http://www.inkscape.org/namespaces/inkscape"
   xmlns:sodipodi="http://sodipodi.sourceforge.net/DTD/sodipodi-0.dtd"
   xmlns="http://www.w3.org/2000/svg"
   xmlns:svg="http://www.w3.org/2000/svg">
  <defs
     id="defs70" />
  <sodipodi:namedview
     id="namedview68"
     pagecolor="#ffffff"
     bordercolor="#cccccc"
     borderopacity="1"
     inkscape:pageshadow="0"
     inkscape:pageopacity="1"
     inkscape:pagecheckerboard="0"
     showgrid="false"
     inkscape:zoom="8.4263558"
     inkscape:cx="66.102122"
     inkscape:cy="36.255293"
     inkscape:window-width="1920"
     inkscape:window-height="1017"
     inkscape:window-x="-8"
     inkscape:window-y="-8"
     inkscape:window-maximized="1"
     inkscape:current-layer="g935" />
  <g
     id="g935"
     transform="translate(-2.9516672,-2.2999991)">
    <g
       id="g1003"
       transform="translate(-0.6678965,-0.46252507)">
      <g
         id="color"
         transform="matrix(1.1385199,0,0,1.1385199,-1.6068311,-1.1497154)">
        <ellipse
           cx="35.921001"
           cy="37.299999"
           rx="11.3137"
           ry="5.6568999"
           fill="#ffffff"
           id="ellipse2" />
        <path
           fill="#ffffff"
           d="m 46.9415,35.7854 c 0.5998,0.5178 0.9795,1.2837 0.9795,2.1382 0,1.5594 -1.2643,2.8236 -2.8235,2.8236 0,1.5593 -1.2643,2.8235 -2.8236,2.8235 -0.533,0 -1.026,-0.1564 -1.4514,-0.4131 0.1258,0.8535 -0.1304,1.7527 -0.7874,2.4096 -1.1026,1.1027 -2.8904,1.1027 -3.9929,0 -0.0461,-0.046 -0.0785,-0.0994 -0.1205,-0.1475 -0.5177,0.5924 -1.2698,0.9745 -2.1183,0.9745 -1.5593,0 -2.8236,-1.2642 -2.8236,-2.8235 0,-0.1419 0.0216,-0.278 0.0417,-0.4143 -0.4256,0.2575 -0.9195,0.4143 -1.4534,0.4143 -1.5593,0 -2.8236,-1.2642 -2.8236,-2.8235 -0.7225,0 -1.4451,-0.2758 -1.9964,-0.8271 -1.1028,-1.1026 -1.1028,-2.8904 0,-3.993"
           id="path4" />
        <path
           fill="#ea5a47"
           d="M 25.0245,20.3199 C 25.5304,13.6761 30.921,9.3 35.921,9.3 c 6,0 9.0025,1.39 10.8816,2.3793 10.4928,5.524 8.7806,17.3451 7.9726,22.6407 0.0496,-0.0038 0.0952,-0.02 0.1458,-0.02 0.7418,0 1.3818,0.4086 1.7272,1.0084 0.6921,-9e-4 1.366,0.3491 1.7369,0.9916 0.3708,0.6424 0.3372,1.4011 -0.0098,2 0.347,0.5989 0.3806,1.3575 0.0098,2 -0.3709,0.6424 -1.0447,0.9924 -1.7368,0.9915 -0.3454,0.5999 -0.9855,1.0085 -1.7273,1.0085 -0.7418,0 -1.382,-0.4086 -1.7273,-1.0085 -0.6922,9e-4 -1.366,-0.3491 -1.7368,-0.9915 -0.3709,-0.6425 -0.3372,-1.4011 0.0097,-2 -0.3469,-0.5989 -0.3806,-1.3576 -0.0097,-2 0.0542,-0.094 0.127,-0.1681 0.1933,-0.2494 l -1.0313,-0.4833 z"
           id="path6" />
        <path
           fill="#d22f27"
           d="M 25.3932,20.6669 44.921,20.3 c 0,0 4,-3 -1,-10 14,4 11.0735,22.8005 11.0837,22.9368 -0.0188,-0.0256 -0.0771,0.0845 -0.2295,1.0832 0.0496,-0.0038 0.0952,-0.02 0.1458,-0.02 l -3.4641,2 c 0.0542,-0.094 0.127,-0.1681 0.1933,-0.2494 l -1.0597,0.5655 z"
           id="path8" />
        <path
           fill="#d22f27"
           d="m 55.0047,33.2368 c 0.0127,0.0174 0.0071,0.0947 0,0 z"
           id="path10" />
        <path
           fill="#ffffff"
           d="m 50.921,38.3 c 0,2.2091 1.7908,4 4,4 2.2091,0 4,-1.7909 4,-4 0,-2.2091 -1.7909,-4 -4,-4 -2,1 -2,1 -3.2961,1.7331 -0.444,0.6443 -0.7039,1.4253 -0.7039,2.2669 z"
           id="path12" />
        <path
           fill="#ffffff"
           d="M 46.7431,20.3 H 25.0989 c -0.6506,0 -1.1779,0.4175 -1.1779,0.9325 v 3.135 c 0,0.515 0.5273,0.9325 1.1779,0.9325 h 0.2961 21.3481 c 0.6505,0 1.1779,-0.4175 1.1779,-0.9325 v -3.135 c 0,-0.515 -0.5274,-0.9325 -1.1779,-0.9325 z"
           id="path16" />
      </g>
      <g
         id="hair"
         transform="matrix(1.1385199,0,0,1.1385199,-1.6068311,-1.1497154)" />
      <g
         id="skin-shadow"
         transform="matrix(1.1385199,0,0,1.1385199,-1.6068311,-1.1497154)" />
      <g
         id="g898"
         transform="matrix(1.1385199,0,0,1.1385199,-1.6068311,-1.1497154)">
        <g
           id="skin"
           style="fill:#ffeeaa">
          <path
             fill="#FCEA2B"
             d="m 46.5401,25.3207 c 0.4651,1.5491 0.7195,3.2271 0.7195,4.9793 0,1.7891 -0.3386,5 -0.7492,5.077 C 40.921,32.3 33.7952,30.6251 25.3581,35.4625 24.921,34.3 24.5824,32.1215 24.5824,30.3 c 0,-1.4757 0.1804,-2.8987 0.5152,-4.2364"
             id="path28"
             style="fill:#ffeeaa" />
        </g>
        <path
           fill="none"
           stroke="#000000"
           stroke-linecap="round"
           stroke-linejoin="round"
           stroke-miterlimit="10"
           stroke-width="2"
           d="m 46.9415,35.7854 c 0.5998,0.5178 0.9795,1.2837 0.9795,2.1382 0,1.5594 -1.2643,2.8236 -2.8235,2.8236 0,1.5593 -1.2643,2.8235 -2.8236,2.8235 -0.533,0 -1.026,-0.1564 -1.4514,-0.4131 0.1258,0.8535 -0.1304,1.7527 -0.7874,2.4096 -1.1026,1.1027 -2.8904,1.1027 -3.9929,0 -0.0461,-0.046 -0.0785,-0.0994 -0.1205,-0.1475 -0.5177,0.5924 -1.2698,0.9745 -2.1183,0.9745 -1.5593,0 -2.8236,-1.2642 -2.8236,-2.8235 0,-0.1419 0.0216,-0.278 0.0417,-0.4143 -0.4256,0.2575 -0.9195,0.4143 -1.4534,0.4143 -1.5593,0 -2.8236,-1.2642 -2.8236,-2.8235 -0.7225,0 -1.4451,-0.2758 -1.9964,-0.8271 -1.1028,-1.1026 -1.1028,-2.8904 0,-3.993"
           id="path32" />
        <path
           fill="none"
           stroke="#000000"
           stroke-linecap="round"
           stroke-linejoin="round"
           stroke-miterlimit="10"
           stroke-width="2"
           d="m 46.5401,25.3207 c 0.4651,1.5491 0.7195,3.2271 0.7195,4.9793 0,1.7891 -0.3386,5 -0.7492,5.077 C 40.921,32.3 33.7952,30.6251 25.3581,35.4625 24.921,34.3 24.5824,32.1215 24.5824,30.3 c 0,-1.4757 0.1804,-2.8987 0.5152,-4.2364"
           id="path36" />
        <path
           d="m 29.9208,28.9392 c 0,1.1045 0.8965,2 2,2 1.1035,0 2,-0.8955 2,-2 0,-1.1035 -0.8965,-2 -2,-2 -1.1035,0 -2,0.8965 -2,2"
           id="path38" />
        <path
           d="m 37.9208,28.9392 c 0,1.1045 0.8965,2 2,2 1.1035,0 2,-0.8955 2,-2 0,-1.1035 -0.8965,-2 -2,-2 -1.1035,0 -2,0.8965 -2,2"
           id="path40" />
        <path
           d="m 35.921,38.9416 c 1.1518,0 2.3037,-0.2861 3.4472,-0.8579 0.4942,-0.2471 0.6944,-0.8477 0.4473,-1.3418 -0.2466,-0.4937 -0.8462,-0.6943 -1.3418,-0.4473 -1.7178,0.8594 -3.3877,0.8594 -5.1055,0 -0.4946,-0.247 -1.0947,-0.0464 -1.3417,0.4473 -0.2471,0.4941 -0.0469,1.0947 0.4472,1.3418 1.1436,0.5718 2.2954,0.8579 3.4473,0.8579 z"
           id="path42" />
        <path
           fill="none"
           stroke="#000000"
           stroke-linecap="round"
           stroke-linejoin="round"
           stroke-miterlimit="10"
           stroke-width="2"
           d="m 46.8175,20.3199 c -0.0737,-0.9671 -0.1899,-1.8861 -0.359,-2.7506"
           id="path44" />
        <path
           fill="none"
           stroke="#000000"
           stroke-linecap="round"
           stroke-linejoin="round"
           stroke-miterlimit="10"
           stroke-width="2"
           d="M 46.7431,20.3 H 25.0989 c -0.6506,0 -1.1779,0.4175 -1.1779,0.9325 v 3.135 c 0,0.515 0.5273,0.9325 1.1779,0.9325 h 0.2961 21.3481 c 0.6505,0 1.1779,-0.4175 1.1779,-0.9325 v -3.135 c 0,-0.515 -0.5274,-0.9325 -1.1779,-0.9325 z"
           id="path46" />
        <path
           fill="none"
           stroke="#000000"
           stroke-linecap="round"
           stroke-linejoin="round"
           stroke-miterlimit="10"
           stroke-width="2"
           d="M 42.921,11.3"
           id="path48" />
        <path
           fill="none"
           stroke="#000000"
           stroke-linecap="round"
           stroke-linejoin="round"
           stroke-miterlimit="10"
           stroke-width="2"
           d="M 25.0245,20.3199 C 25.5304,13.6761 30.921,9.3 35.921,9.3 c 6,0 9.0025,1.39 10.8816,2.3793 10.4928,5.524 8.7806,17.3451 7.9726,22.6407 0.0496,-0.0038 0.0952,-0.02 0.1458,-0.02 0.7418,0 1.3818,0.4086 1.7272,1.0084 0.6921,-9e-4 1.366,0.3491 1.7369,0.9916 0.3708,0.6424 0.3372,1.4011 -0.0098,2 0.347,0.5989 0.3806,1.3575 0.0098,2 -0.3709,0.6424 -1.0447,0.9924 -1.7368,0.9915 -0.3454,0.5999 -0.9855,1.0085 -1.7273,1.0085 -0.7418,0 -1.382,-0.4086 -1.7273,-1.0085 -0.6922,9e-4 -1.366,-0.3491 -1.7368,-0.9915 -0.3709,-0.6425 -0.3372,-1.4011 0.0097,-2 -0.3469,-0.5989 -0.3806,-1.3576 -0.0097,-2 0.0542,-0.094 0.127,-0.1681 0.1933,-0.2494 l -1.0313,-0.4833"
           id="path50" />
        <path
           fill="none"
           stroke="#000000"
           stroke-linecap="round"
           stroke-linejoin="round"
           stroke-miterlimit="10"
           stroke-width="2"
           d="M 25.0245,20.3199 C 25.5304,13.6761 30.921,9.3 35.921,9.3 c 6,0 9.0025,1.39 10.8816,2.3793 10.4928,5.524 8.7806,17.3451 7.9726,22.6407 0.0496,-0.0038 0.0952,-0.02 0.1458,-0.02 0.7418,0 1.3818,0.4086 1.7272,1.0084 0.6921,-9e-4 1.366,0.3491 1.7369,0.9916 0.3708,0.6424 0.3372,1.4011 -0.0098,2 0.347,0.5989 0.3806,1.3575 0.0098,2 -0.3709,0.6424 -1.0447,0.9924 -1.7368,0.9915 -0.3454,0.5999 -0.9855,1.0085 -1.7273,1.0085 -0.7418,0 -1.382,-0.4086 -1.7273,-1.0085 -0.6922,9e-4 -1.366,-0.3491 -1.7368,-0.9915 -0.3709,-0.6425 -0.3372,-1.4011 0.0097,-2 -0.3469,-0.5989 -0.3806,-1.3576 -0.0097,-2 0.0542,-0.094 0.127,-0.1681 0.1933,-0.2494 l -1.0313,-0.4833"
           id="path54" />
      </g>
      <g
         id="g964"
         transform="translate(-2.6642076,-1.5427784)">
        <path
           fill="#6a462f"
           d="M 16.0537,58.5598 C 13.9381,56.7262 12.6,54.0194 12.6,51.0001 c 0,-4.503 3.9885,-7.646 7.6297,-8.6534 1.3738,-0.38 2.8394,0.0319 3.7804,1.1026 C 26.2083,45.9505 30.0567,51.4447 28.6,58"
           id="path14"
           transform="matrix(1.1385199,0,0,1.1385199,-1.6068311,-1.1497154)" />
        <path
           fill="#ea5a47"
           d="m 56.548566,62.552243 c 0,0 2.065618,-13.795576 -10.328089,-13.795576 -3.296622,2.111914 -6.120838,3.571367 -9.295279,3.565115 h 0.129101 c -3.174441,0.0062 -5.99876,-1.453201 -9.29528,-3.565115 -12.393706,0 -10.328088,13.795576 -10.328088,13.795576"
           id="path18"
           style="stroke-width:1.01245"
           transform="matrix(1.1385199,0,0,1.1385199,-1.6068311,-1.1497154)" />
        <path
           fill="#d22f27"
           d="m 50.066001,48.756667 c -3.1699,2.1133 -4.875,3 -8.9375,3.5886 13.0625,0.4114 13.0625,6.3114 13.8246,10.3114 4.2379,0 5.1129,0 5.1129,0 0,0 2,-13.9 -10,-13.9 z"
           id="path20"
           transform="matrix(1.1385199,0,0,1.1385199,-1.6068311,-1.1497154)" />
        <path
           fill="#ffffff"
           d="m 42.434334,62.756667 v -5.9095 c 5.5076,-0.3459 9.5193,-2.7944 10.9741,-7.0259 -1.3295,-0.6591 -2.9951,-1.0646 -5.0991,-1.0646 -3.1699,2.1133 -5.8895,3.5746 -8.9375,3.5886 -3.048,-0.014 -5.7676,-1.4753 -8.9375,-3.5886 -2.0474,0 -3.6792,0.3846 -4.991,1.0124 2.4717,4.1207 6.142,6.3653 10.991,6.9589 v 6.0287"
           id="path22"
           transform="matrix(1.1385199,0,0,1.1385199,-1.6068311,-1.1497154)" />
        <path
           fill="#a57939"
           d="m 13.627012,51.393163 c 0,-4.704314 4.166812,-7.987827 7.970798,-9.040264 1.435218,-0.396989 2.96634,0.03333 3.949408,1.151893 2.296474,2.61302 6.316923,8.352847 4.795099,15.201212 0,0 -9.402359,-9.402359 -11.491772,-9.402359"
           id="path24"
           style="stroke-width:1.04471"
           transform="matrix(1.1385199,0,0,1.1385199,-1.6068311,-1.1497154)" />
        <g
           id="g944"
           transform="matrix(1.109631,0,0,1.109631,-1.2717191,-5.0175702)">
          <path
             fill="none"
             stroke="#000000"
             stroke-linecap="round"
             stroke-linejoin="round"
             stroke-miterlimit="10"
             stroke-width="2.27704"
             d="m 16.670626,65.521784 c -2.408653,-2.08759 -3.932106,-5.169336 -3.932106,-8.606869 0,-5.126756 4.540987,-8.705124 8.686565,-9.852069 1.564099,-0.432637 3.232714,0.03632 4.304061,1.255332 2.502695,2.847666 6.884175,9.102923 5.225693,16.566262"
             id="path34" />
          <path
             fill="none"
             stroke="#000000"
             stroke-linecap="round"
             stroke-linejoin="round"
             stroke-miterlimit="10"
             stroke-width="2.27704"
             d="m 16.670626,65.521784 c -2.408653,-2.08759 -3.932106,-5.169336 -3.932106,-8.606869 0,-5.126756 4.540987,-8.705124 8.686565,-9.852069 1.564099,-0.432637 3.232714,0.03632 4.304061,1.255332 2.502695,2.847666 6.884175,9.102923 5.225693,16.566262 0,0 -10.24668,-10.246679 -12.523719,-10.246679"
             id="path52" />
          <path
             fill="none"
             stroke="#000000"
             stroke-linecap="round"
             stroke-linejoin="round"
             stroke-miterlimit="10"
             stroke-width="2.27704"
             d="m 17.656926,67.159317 c 0,0 -1.104364,-7.172676 2.834915,-11.533207"
             id="path56" />
          <path
             fill="none"
             stroke="#000000"
             stroke-linecap="round"
             stroke-linejoin="round"
             stroke-miterlimit="10"
             stroke-width="2.27704"
             d="m 60.784061,67.159317 c 0,0 1.548387,-10.075901 -5.578748,-13.582543 -0.193548,-0.09108 -0.387097,-0.182163 -0.580645,-0.273245 -0.204934,-0.0797 -0.409867,-0.159392 -0.626186,-0.239089 -0.216319,-0.06831 -0.432638,-0.136622 -0.660342,-0.204933 -0.455408,-0.125238 -0.933586,-0.227704 -1.434535,-0.318786 -0.774193,-0.113852 -1.605313,-0.182163 -2.504744,-0.182163 -0.683111,0.455408 -1.343453,0.888045 -1.992409,1.275142 -0.227704,0.136623 -0.444023,0.273245 -0.671727,0.398482 -0.204934,0.113852 -0.409867,0.227704 -0.614801,0.341556 -0.204933,0.125237 -0.409867,0.239089 -0.614801,0.341556 -0.421252,0.216319 -0.842504,0.409867 -1.263757,0.59203 -0.421252,0.182164 -0.831119,0.341556 -1.252372,0.478179 -0.204933,0.06831 -0.409867,0.136622 -0.626186,0.193548 -0.159392,0.04554 -0.318785,0.09108 -0.478178,0.125237 -0.227704,0.05693 -0.444023,0.102467 -0.660342,0.148008 -0.06831,0.01138 -0.148007,0.02277 -0.216318,0.03416 -0.364327,0.06831 -0.740038,0.113852 -1.11575,0.136622 -0.216319,0.01138 -0.444023,0.02277 -0.671727,0.02277 -0.05693,0 -0.102466,0 -0.159392,0 -0.204934,0 -0.398482,-0.01139 -0.603416,-0.03415 -0.136622,0 -0.273245,-0.02277 -0.409867,-0.03416 -0.204934,-0.02277 -0.409867,-0.04554 -0.614801,-0.09108 -0.102467,-0.01139 -0.216319,-0.03416 -0.318786,-0.05693 -0.204933,-0.03416 -0.398481,-0.0797 -0.603415,-0.125238 -0.03416,-0.01138 -0.0797,-0.02277 -0.113852,-0.03415 -0.113852,-0.02277 -0.227704,-0.05693 -0.341556,-0.09108 -0.204934,-0.05693 -0.409867,-0.125237 -0.603416,-0.193548 -0.421252,-0.136623 -0.831119,-0.296015 -1.252372,-0.478179 -1.673624,-0.717267 -3.347248,-1.741935 -5.157495,-2.948766 -0.136622,0 -0.273245,0 -0.398482,0.01138"
             id="path58" />
          <path
             fill="none"
             stroke="#000000"
             stroke-linecap="round"
             stroke-linejoin="round"
             stroke-miterlimit="10"
             stroke-width="2.27704"
             d="m 31.273624,60.316812 c 1.411765,0.54649 2.948767,0.922201 4.599621,1.11575 v 5.726755"
             id="path60" />
          <path
             fill="none"
             stroke="#000000"
             stroke-linecap="round"
             stroke-linejoin="round"
             stroke-miterlimit="10"
             stroke-width="2.27704"
             d="m 42.704364,67.159317 v -5.590133 c 6.273245,-0.387097 10.83871,-3.176471 12.500949,-7.99241 -0.193548,-0.09108 -0.387097,-0.182163 -0.580645,-0.273245 -0.204934,-0.0797 -0.409867,-0.159392 -0.626186,-0.239089 -0.216319,-0.06831 -0.432638,-0.136622 -0.660342,-0.204933 -0.455408,-0.125238 -0.933586,-0.227704 -1.434535,-0.318786 -0.774193,-0.113852 -1.605313,-0.182163 -2.504744,-0.182163 -0.683111,0.455408 -1.343453,0.888045 -1.992409,1.275142 -0.227704,0.136623 -0.444023,0.273245 -0.671727,0.398482 -0.204934,0.125237 -0.409867,0.250475 -0.614801,0.341556 -0.204933,0.125237 -0.409867,0.239089 -0.614801,0.341556 -0.421252,0.216319 -0.842504,0.409867 -1.263757,0.59203 -0.421252,0.182164 -0.831119,0.341556 -1.252372,0.478179 -0.204933,0.0797 -0.409867,0.148007 -0.626186,0.193548 -0.159392,0.04554 -0.318785,0.09108 -0.478178,0.125237 -0.227704,0.05693 -0.444023,0.102467 -0.660342,0.148008 -0.06831,0.01138 -0.148007,0.02277 -0.216318,0.03416 -0.364327,0.06831 -0.740038,0.113852 -1.11575,0.136622 -0.216319,0.01138 -0.444023,0.02277 -0.671727,0.02277 -0.05693,0 -0.102466,0 -0.159392,0 -0.204934,0 -0.398482,-0.01139 -0.603416,-0.03415 -0.136622,0 -0.273245,-0.02277 -0.409867,-0.03416 -0.204934,-0.02277 -0.409867,-0.04554 -0.614801,-0.09108 -0.102467,-0.01139 -0.216319,-0.03416 -0.318786,-0.05693 -0.239089,-0.04554 -0.478178,-0.102467 -0.717267,-0.159393 -0.113852,-0.02277 -0.227704,-0.05693 -0.341556,-0.09108 -0.204934,-0.05693 -0.409867,-0.125237 -0.603416,-0.193548 -0.421252,-0.136623 -0.831119,-0.296015 -1.252372,-0.478179 -1.673624,-0.717267 -3.347248,-1.741935 -5.157495,-2.948766 -0.136622,0 -0.273245,0 -0.398482,0.01138"
             id="path62" />
          <path
             fill="none"
             stroke="#000000"
             stroke-linecap="round"
             stroke-linejoin="round"
             stroke-miterlimit="10"
             stroke-width="2.27704"
             d="m 12.73852,56.914915 c 0,-5.126756 4.540987,-8.705124 8.686565,-9.852069 1.564099,-0.432637 3.232714,0.03632 4.304061,1.255332 2.502695,2.847666 6.884175,9.102923 5.225693,16.566262 0,0 -10.24668,-10.246679 -12.523719,-10.246679"
             id="path64" />
        </g>
      </g>
    </g>
  </g>
</svg>
