<?xml version="1.0" encoding="UTF-8" standalone="no"?>
<!-- Generator: Adobe Illustrator 19.0.0, SVG Export Plug-In . SVG Version: 6.00 Build 0)  -->

<svg
   xmlns:dc="http://purl.org/dc/elements/1.1/"
   xmlns:cc="http://creativecommons.org/ns#"
   xmlns:rdf="http://www.w3.org/1999/02/22-rdf-syntax-ns#"
   xmlns:svg="http://www.w3.org/2000/svg"
   xmlns="http://www.w3.org/2000/svg"
   xmlns:sodipodi="http://sodipodi.sourceforge.net/DTD/sodipodi-0.dtd"
   xmlns:inkscape="http://www.inkscape.org/namespaces/inkscape"
   version="1.1"
   id="Layer_1"
   x="0px"
   y="0px"
   viewBox="0 0 512 512"
   style="enable-background:new 0 0 512 512;"
   xml:space="preserve"
   sodipodi:docname="sao_paulo_bridge.svg"
   inkscape:version="0.92.4 (5da689c313, 2019-01-14)"><metadata
   id="metadata109"><rdf:RDF><cc:Work
       rdf:about=""><dc:format>image/svg+xml</dc:format><dc:type
         rdf:resource="http://purl.org/dc/dcmitype/StillImage" /><dc:title></dc:title></cc:Work></rdf:RDF></metadata><defs
   id="defs107" /><sodipodi:namedview
   pagecolor="#ffffff"
   bordercolor="#666666"
   borderopacity="1"
   objecttolerance="10"
   gridtolerance="10"
   guidetolerance="10"
   inkscape:pageopacity="0"
   inkscape:pageshadow="2"
   inkscape:window-width="1920"
   inkscape:window-height="986"
   id="namedview105"
   showgrid="false"
   inkscape:zoom="0.921875"
   inkscape:cx="299.3615"
   inkscape:cy="191.67974"
   inkscape:window-x="-11"
   inkscape:window-y="-11"
   inkscape:window-maximized="1"
   inkscape:current-layer="Layer_1" />

<rect
   style="fill:#6e9be0;fill-opacity:1;fill-rule:evenodd;stroke-width:1.79337764"
   id="rect916"
   width="505.13818"
   height="147.47713"
   x="3.4304886"
   y="344.80115" /><g
   id="g8"
   style="stroke:#000000;stroke-width:11.20955173;stroke-miterlimit:4;stroke-dasharray:none;stroke-opacity:1"
   transform="matrix(1.0705156,0,0,1.0705156,-18.052398,-41.396986)">
	<polygon
   style="fill:#ebf9ff;stroke:#000000;stroke-width:11.20955173;stroke-miterlimit:4;stroke-dasharray:none;stroke-opacity:1"
   points="369.981,305.343 316.088,185.58 425.825,314.684 439.278,303.247 289.209,126.696 274.433,136.036 353.881,312.588 "
   id="polygon4" />
	<polygon
   style="fill:#ebf9ff;stroke:#000000;stroke-width:11.20955173;stroke-miterlimit:4;stroke-dasharray:none;stroke-opacity:1"
   points="133.192,305.343 149.291,312.588 228.739,136.036 213.964,126.696 63.895,303.247 77.347,314.684 187.084,185.582 "
   id="polygon6" />
</g>
<g
   id="g14"
   style="stroke:#000000;stroke-width:11.20955173;stroke-miterlimit:4;stroke-dasharray:none;stroke-opacity:1"
   transform="matrix(1.0705156,0,0,1.0705156,-18.052398,-41.396986)">
	<rect
   x="238.345"
   y="185.379"
   style="fill:#b4b4af;stroke:#000000;stroke-width:11.20955173;stroke-miterlimit:4;stroke-dasharray:none;stroke-opacity:1"
   width="26.483"
   height="35.310001"
   id="rect10" />
	<rect
   x="229.517"
   y="150.069"
   style="fill:#b4b4af;stroke:#000000;stroke-width:11.20955173;stroke-miterlimit:4;stroke-dasharray:none;stroke-opacity:1"
   width="44.138"
   height="17.655001"
   id="rect12" />
</g>


<path
   style="fill:#5c83ce;stroke-width:1.07051563"
   d="m 303.24999,431.1061 h -56.70093 c -5.21875,0 -9.45051,-4.23175 -9.45051,-9.45052 v 0 c 0,-5.21876 4.23176,-9.4505 9.45051,-9.4505 h 56.70093 c 5.21877,0 9.45052,4.23174 9.45052,9.4505 v 0 c 0,5.21984 -4.23175,9.45052 -9.45052,9.45052 z"
   id="path28"
   inkscape:connector-curvature="0" />
<g
   id="g40"
   transform="matrix(1.0705156,0,0,1.0705156,-18.052398,-41.396986)">
	<path
   style="fill:#87b4f0"
   d="m 211.862,406.069 h -8.828 c -4.875,0 -8.828,-3.953 -8.828,-8.828 v 0 c 0,-4.875 3.953,-8.828 8.828,-8.828 h 8.828 c 4.875,0 8.828,3.953 8.828,8.828 v 0 c 0,4.875 -3.953,8.828 -8.828,8.828 z"
   id="path30"
   inkscape:connector-curvature="0" />
	<path
   style="fill:#87b4f0"
   d="m 194.207,476.69 h -8.828 c -4.875,0 -8.828,-3.953 -8.828,-8.828 v 0 c 0,-4.875 3.953,-8.828 8.828,-8.828 h 8.828 c 4.875,0 8.828,3.953 8.828,8.828 v 0 c -0.001,4.875 -3.953,8.828 -8.828,8.828 z"
   id="path32"
   inkscape:connector-curvature="0" />
	<path
   style="fill:#87b4f0"
   d="m 397.241,406.069 h -35.31 c -4.875,0 -8.828,-3.953 -8.828,-8.828 v 0 c 0,-4.875 3.953,-8.828 8.828,-8.828 h 35.31 c 4.875,0 8.828,3.953 8.828,8.828 v 0 c 0,4.875 -3.953,8.828 -8.828,8.828 z"
   id="path34"
   inkscape:connector-curvature="0" />
	<path
   style="fill:#87b4f0"
   d="m 256,476.69 h -26.483 c -4.875,0 -8.828,-3.953 -8.828,-8.828 v 0 c 0,-4.875 3.953,-8.828 8.828,-8.828 H 256 c 4.875,0 8.828,3.953 8.828,8.828 v 0 c 0,4.875 -3.953,8.828 -8.828,8.828 z"
   id="path36"
   inkscape:connector-curvature="0" />
	<path
   style="fill:#87b4f0"
   d="m 167.724,406.069 h -35.31 c -4.875,0 -8.828,-3.953 -8.828,-8.828 v 0 c 0,-4.875 3.953,-8.828 8.828,-8.828 h 35.31 c 4.875,0 8.828,3.953 8.828,8.828 v 0 c 0,4.875 -3.953,8.828 -8.828,8.828 z"
   id="path38"
   inkscape:connector-curvature="0" />
</g>
<path
   style="fill:#5c83ce;stroke-width:1.07051563"
   d="M 359.94985,431.1061 H 341.0499 c -5.21876,0 -9.45052,-4.23175 -9.45052,-9.45052 v 0 c 0,-5.21876 4.23176,-9.4505 9.45052,-9.4505 h 18.89995 c 5.21876,0 9.45052,4.23174 9.45052,9.4505 v 0 c 0,5.21984 -4.23176,9.45052 -9.45052,9.45052 z"
   id="path42"
   inkscape:connector-curvature="0" />


<path
   style="fill:#5c83ce;stroke-width:1.07051563"
   d="M 11.039933,355.50629 H 500.95815 c 3.10236,-6.17473 5.99062,-12.47044 8.62943,-18.89995 H 2.4105074 c 2.63882,6.42845 5.527071,12.72522 8.6294256,18.89995 z"
   id="path62"
   inkscape:connector-curvature="0" />
<path
   style="fill:#b4b4af;stroke:#000000;stroke-width:12;stroke-miterlimit:4;stroke-dasharray:none;stroke-opacity:1"
   d="M -9.9646526,298.80536 H 521.96274 c 1.54048,-6.21541 2.83687,-12.52503 3.94592,-18.89994 H -13.909502 c 1.107983,6.37491 2.404377,12.68453 3.9448494,18.89994 z"
   id="path64"
   inkscape:connector-curvature="0" />
<g
   id="g72"
   style="stroke:#000000;stroke-width:11.20955173;stroke-miterlimit:4;stroke-dasharray:none;stroke-opacity:1"
   transform="matrix(1.0705156,0,0,1.0705156,-18.052398,-41.396986)">
	<polygon
   style="fill:#d2d2cd;stroke:#000000;stroke-width:11.20955173;stroke-miterlimit:4;stroke-dasharray:none;stroke-opacity:1"
   points="273.655,185.379 300.138,105.931 273.655,105.931 256,185.379 282.483,353.103 317.793,353.103 "
   id="polygon66" />
	<polygon
   style="fill:#d2d2cd;stroke:#000000;stroke-width:11.20955173;stroke-miterlimit:4;stroke-dasharray:none;stroke-opacity:1"
   points="199.318,300.138 229.053,300.138 247.172,185.379 229.517,105.931 203.034,105.931 229.517,185.379 "
   id="polygon68" />
	<polygon
   style="fill:#d2d2cd;stroke:#000000;stroke-width:11.20955173;stroke-miterlimit:4;stroke-dasharray:none;stroke-opacity:1"
   points="220.69,353.103 226.265,317.793 194.671,317.793 185.379,353.103 "
   id="polygon70" />
</g>
<g
   id="g74"
   transform="matrix(1.0705156,0,0,1.0705156,-18.052398,-41.396986)">
</g>
<g
   id="g76"
   transform="matrix(1.0705156,0,0,1.0705156,-18.052398,-41.396986)">
</g>
<g
   id="g78"
   transform="matrix(1.0705156,0,0,1.0705156,-18.052398,-41.396986)">
</g>
<g
   id="g80"
   transform="matrix(1.0705156,0,0,1.0705156,-18.052398,-41.396986)">
</g>
<g
   id="g82"
   transform="matrix(1.0705156,0,0,1.0705156,-18.052398,-41.396986)">
</g>
<g
   id="g84"
   transform="matrix(1.0705156,0,0,1.0705156,-18.052398,-41.396986)">
</g>
<g
   id="g86"
   transform="matrix(1.0705156,0,0,1.0705156,-18.052398,-41.396986)">
</g>
<g
   id="g88"
   transform="matrix(1.0705156,0,0,1.0705156,-18.052398,-41.396986)">
</g>
<g
   id="g90"
   transform="matrix(1.0705156,0,0,1.0705156,-18.052398,-41.396986)">
</g>
<g
   id="g92"
   transform="matrix(1.0705156,0,0,1.0705156,-18.052398,-41.396986)">
</g>
<g
   id="g94"
   transform="matrix(1.0705156,0,0,1.0705156,-18.052398,-41.396986)">
</g>
<g
   id="g96"
   transform="matrix(1.0705156,0,0,1.0705156,-18.052398,-41.396986)">
</g>
<g
   id="g98"
   transform="matrix(1.0705156,0,0,1.0705156,-18.052398,-41.396986)">
</g>
<g
   id="g100"
   transform="matrix(1.0705156,0,0,1.0705156,-18.052398,-41.396986)">
</g>
<g
   id="g102"
   transform="matrix(1.0705156,0,0,1.0705156,-18.052398,-41.396986)">
</g>
</svg>