<?xml version="1.0" encoding="UTF-8" standalone="no"?>
<!-- Generator: Adobe Illustrator 19.0.0, SVG Export Plug-In . SVG Version: 6.00 Build 0)  -->

<svg
   xmlns:dc="http://purl.org/dc/elements/1.1/"
   xmlns:cc="http://creativecommons.org/ns#"
   xmlns:rdf="http://www.w3.org/1999/02/22-rdf-syntax-ns#"
   xmlns:svg="http://www.w3.org/2000/svg"
   xmlns="http://www.w3.org/2000/svg"
   xmlns:sodipodi="http://sodipodi.sourceforge.net/DTD/sodipodi-0.dtd"
   xmlns:inkscape="http://www.inkscape.org/namespaces/inkscape"
   version="1.1"
   id="Capa_1"
   x="0px"
   y="0px"
   viewBox="0 0 512 512"
   style="enable-background:new 0 0 512 512;"
   xml:space="preserve"
   sodipodi:docname="sao_paulo_metro.svg"
   inkscape:version="0.92.4 (5da689c313, 2019-01-14)"><metadata
   id="metadata51"><rdf:RDF><cc:Work
       rdf:about=""><dc:format>image/svg+xml</dc:format><dc:type
         rdf:resource="http://purl.org/dc/dcmitype/StillImage" /><dc:title></dc:title></cc:Work></rdf:RDF></metadata><defs
   id="defs49" /><sodipodi:namedview
   pagecolor="#ffffff"
   bordercolor="#666666"
   borderopacity="1"
   objecttolerance="10"
   gridtolerance="10"
   guidetolerance="10"
   inkscape:pageopacity="0"
   inkscape:pageshadow="2"
   inkscape:window-width="1920"
   inkscape:window-height="986"
   id="namedview47"
   showgrid="false"
   inkscape:zoom="1.3037281"
   inkscape:cx="173.17325"
   inkscape:cy="229.94623"
   inkscape:window-x="-11"
   inkscape:window-y="-11"
   inkscape:window-maximized="1"
   inkscape:current-layer="Capa_1" />
<g
   id="g8"
   transform="matrix(0.859375,0,0,0.859375,36,36)">
	<polygon
   style="fill:#00539e"
   points="504.5,7.5 504.5,504.5 7.5,504.5 7.5,7.5 "
   id="polygon2" />
	
	<path
   style="fill:#ffffff"
   d="m 294.331,356.168 93.957,-93.943 c 1.63,-1.629 4.301,-1.556 5.838,0.161 l 28.857,32.24 c 1.41,1.575 1.346,3.97 -0.146,5.469 L 258.851,464.818 c -1.569,1.577 -4.129,1.577 -5.698,0 L 89.2,300.131 c -1.506,-1.513 -1.555,-3.937 -0.11,-5.508 l 29.488,-32.075 c 1.548,-1.683 4.195,-1.736 5.808,-0.115 l 93.278,93.697 c 2.522,2.533 6.861,0.755 6.861,-2.812 l -0.002,-194.669 c 0,-3.562 -4.33,-5.342 -6.854,-2.818 l -93.958,93.943 c -1.63,1.629 -4.301,1.556 -5.838,-0.161 l -28.856,-32.24 c -1.41,-1.575 -1.346,-3.97 0.146,-5.469 L 253.148,47.182 c 1.569,-1.577 4.129,-1.577 5.699,0 L 422.8,211.869 c 1.506,1.513 1.555,3.937 0.11,5.508 l -29.487,32.075 c -1.548,1.683 -4.195,1.736 -5.809,0.115 L 294.336,155.87 c -2.522,-2.533 -6.861,-0.755 -6.861,2.812 l 0.003,194.669 c -0.001,3.562 4.328,5.342 6.853,2.817 z"
   id="path6"
   inkscape:connector-curvature="0" />
</g>
<path
   d="m 469.55469,441.76851 c -3.55954,0 -6.44532,2.88493 -6.44532,6.44532 v 14.89554 H 48.890625 V 90.14063 c 0,-3.5604 -2.885781,-6.44532 -6.445313,-6.44532 C 38.885781,83.69531 36,86.58023 36,90.14063 V 469.55469 C 36,473.11508 38.885781,476 42.445312,476 H 469.55469 C 473.11421,476 476,473.11508 476,469.55469 v -21.34086 c 0,-3.56039 -2.88579,-6.44532 -6.44531,-6.44532 z"
   id="path10"
   inkscape:connector-curvature="0"
   style="stroke-width:0.859375" />
<path
   d="M 469.55469,36 H 42.445312 C 38.885781,36 36,38.884921 36,42.445313 v 48.481483 c 0,3.560394 2.885781,6.445314 6.445312,6.445314 3.559532,0 6.445313,-2.88492 6.445313,-6.445314 V 48.890625 H 463.10937 V 448.85649 c 0,3.56038 2.88578,6.44531 6.44532,6.44531 3.55952,0 6.44531,-2.88493 6.44531,-6.44531 V 42.445313 C 476,38.884921 473.11421,36 469.55469,36 Z"
   id="path12"
   inkscape:connector-curvature="0"
   style="stroke-width:0.859375"
   sodipodi:nodetypes="ssssssccsssss" />
<path
   d="m 404.18203,227.17055 c 3.58446,-3.89813 3.46501,-9.89141 -0.27156,-13.64259 L 263.01421,72.00094 c -1.87085,-1.88031 -4.36304,-2.91586 -7.01765,-2.915 -2.65375,0 -5.14594,1.03554 -7.01507,2.915 L 108.05687,213.55805 c -3.68757,3.7039 -3.8457,9.65335 -0.36093,13.54546 l 24.79812,27.70625 c 0.50445,0.56375 1.07164,1.06391 1.68352,1.4936 -0.36094,0.29477 -0.70211,0.61531 -1.02008,0.96078 l -25.34039,27.56445 c -3.58445,3.89812 -3.465,9.89141 0.27156,13.64258 L 248.98406,439.9982 c 1.87086,1.88031 4.36219,2.91586 7.0168,2.91586 h 8.5e-4 c 2.65376,0 5.14595,-1.03469 7.01594,-2.915 L 403.94226,298.44195 c 3.68844,-3.70219 3.84743,-9.6525 0.3618,-13.54719 l -24.79812,-27.70452 c -0.50445,-0.56375 -1.07164,-1.06478 -1.68438,-1.49446 0.3618,-0.29477 0.70298,-0.61532 1.02094,-0.96078 z m -127.57852,1.54328 c 0,3.56038 2.88579,6.44531 6.44532,6.44531 3.55953,0 6.44531,-2.88578 6.44531,-6.44531 v -49.07532 l 75.04492,75.3818 c 0.4082,0.41078 0.85079,0.78118 1.32086,1.11031 -0.25352,0.20712 -0.49843,0.42797 -0.73133,0.66172 l -75.63273,75.62071 -8.6e-4,-104.19922 c 0,-3.56039 -2.88579,-6.44532 -6.44531,-6.44532 -3.55953,0 -6.44532,2.88579 -6.44532,6.44532 l 8.7e-4,111.44805 c 0,4.0064 2.39593,7.58742 6.10241,9.12226 3.71422,1.54 7.94922,0.69695 10.79031,-2.14414 l 78.50993,-78.49704 20.78828,23.22375 -136.79531,137.40978 -136.73774,-137.35048 21.26954,-23.13522 77.95476,78.30538 c 2.83766,2.85141 7.07523,3.70305 10.79719,2.16477 3.7125,-1.53313 6.11188,-5.11586 6.11188,-9.12743 l -8.7e-4,-167.29366 c 0,-4.00641 -2.39422,-7.58743 -6.1007,-9.12227 -3.71336,-1.54086 -7.94922,-0.69867 -10.79289,2.14242 L 139.99125,243.85875 119.20383,220.63329 255.99828,83.22352 392.73687,220.57399 371.4682,243.70921 293.51258,165.40383 c -2.83852,-2.85141 -7.07695,-3.70219 -10.79633,-2.16477 -3.71336,1.53313 -6.11188,5.11586 -6.11188,9.12743 z m -130.46343,27.15554 c 0.25351,-0.20711 0.49843,-0.42797 0.73133,-0.66172 l 75.63359,-75.62156 8.6e-4,152.7754 -75.04492,-75.3818 c -0.4082,-0.41078 -0.85164,-0.78203 -1.32086,-1.11032 z"
   id="path14"
   inkscape:connector-curvature="0"
   style="stroke-width:0.859375"
   sodipodi:nodetypes="cccccccccccccssccccccccssccccccscccccccccccccccccccccccccccccc" />
<g
   id="g16"
   transform="matrix(0.859375,0,0,0.859375,36,36)">
</g>
<g
   id="g18"
   transform="matrix(0.859375,0,0,0.859375,36,36)">
</g>
<g
   id="g20"
   transform="matrix(0.859375,0,0,0.859375,36,36)">
</g>
<g
   id="g22"
   transform="matrix(0.859375,0,0,0.859375,36,36)">
</g>
<g
   id="g24"
   transform="matrix(0.859375,0,0,0.859375,36,36)">
</g>
<g
   id="g26"
   transform="matrix(0.859375,0,0,0.859375,36,36)">
</g>
<g
   id="g28"
   transform="matrix(0.859375,0,0,0.859375,36,36)">
</g>
<g
   id="g30"
   transform="matrix(0.859375,0,0,0.859375,36,36)">
</g>
<g
   id="g32"
   transform="matrix(0.859375,0,0,0.859375,36,36)">
</g>
<g
   id="g34"
   transform="matrix(0.859375,0,0,0.859375,36,36)">
</g>
<g
   id="g36"
   transform="matrix(0.859375,0,0,0.859375,36,36)">
</g>
<g
   id="g38"
   transform="matrix(0.859375,0,0,0.859375,36,36)">
</g>
<g
   id="g40"
   transform="matrix(0.859375,0,0,0.859375,36,36)">
</g>
<g
   id="g42"
   transform="matrix(0.859375,0,0,0.859375,36,36)">
</g>
<g
   id="g44"
   transform="matrix(0.859375,0,0,0.859375,36,36)">
</g>
</svg>