<?xml version="1.0" encoding="UTF-8" standalone="no"?>
<!-- Generator: Adobe Illustrator 16.0.0, SVG Export Plug-In . SVG Version: 6.00 Build 0)  -->

<svg
   xmlns:dc="http://purl.org/dc/elements/1.1/"
   xmlns:cc="http://creativecommons.org/ns#"
   xmlns:rdf="http://www.w3.org/1999/02/22-rdf-syntax-ns#"
   xmlns:svg="http://www.w3.org/2000/svg"
   xmlns="http://www.w3.org/2000/svg"
   xmlns:sodipodi="http://sodipodi.sourceforge.net/DTD/sodipodi-0.dtd"
   xmlns:inkscape="http://www.inkscape.org/namespaces/inkscape"
   version="1.1"
   id="Capa_1"
   x="0px"
   y="0px"
   width="800px"
   height="800px"
   viewBox="0 0 800 800"
   enable-background="new 0 0 800 800"
   xml:space="preserve"
   sodipodi:docname="scotland_flag.svg"
   inkscape:version="0.92.4 (5da689c313, 2019-01-14)"><metadata
   id="metadata29"><rdf:RDF><cc:Work
       rdf:about=""><dc:format>image/svg+xml</dc:format><dc:type
         rdf:resource="http://purl.org/dc/dcmitype/StillImage" /><dc:title></dc:title></cc:Work></rdf:RDF></metadata><defs
   id="defs27" /><sodipodi:namedview
   pagecolor="#ffffff"
   bordercolor="#666666"
   borderopacity="1"
   objecttolerance="10"
   gridtolerance="10"
   guidetolerance="10"
   inkscape:pageopacity="0"
   inkscape:pageshadow="2"
   inkscape:window-width="1920"
   inkscape:window-height="986"
   id="namedview25"
   showgrid="false"
   inkscape:zoom="1.668772"
   inkscape:cx="758.37773"
   inkscape:cy="489.7346"
   inkscape:window-x="-11"
   inkscape:window-y="-11"
   inkscape:window-maximized="1"
   inkscape:current-layer="g22" />
<g
   id="g22">
	<polygon
   fill="#164FCE"
   points="145.408,153.839 654.592,153.839 400,324.212  "
   id="polygon2" />
	<polygon
   fill="#164FCE"
   points="400,323.009 651.3,154.839 148.7,154.839  "
   id="polygon4" />
	<polygon
   fill="#164FCE"
   points="145.408,646.161 400,475.788 654.592,646.161  "
   id="polygon6" />
	<polygon
   fill="#164FCE"
   points="400,476.991 148.7,645.161 651.3,645.161  "
   id="polygon8" />
	<path
   fill="#164FCE"
   d="M513.254,400l175.448-117.409c2.642-1.768,4.438-4.459,5.056-7.578s-0.016-6.292-1.784-8.934l-0.557-0.831   l23.107-15.462l0.557,0.831c2.216,3.31,5.918,5.285,9.904,5.285c2.354,0,4.64-0.696,6.61-2.013l43.598-29.177v350.575L513.254,400z   "
   id="path10" />
	<path
   fill="#164FCE"
   d="M692.805,265.522c3.964,5.922,2.376,13.938-3.547,17.899L515.052,400l259.142,173.414v-346.83   l-42.042,28.136c-2.204,1.473-4.698,2.182-7.166,2.182c-4.161,0-8.245-2.009-10.735-5.729l0,0L692.805,265.522L692.805,265.522z"
   id="path12" />
	<polygon
   fill="#164FCE"
   points="24.807,224.711 286.746,400 24.807,575.286  "
   id="polygon14" />
	<polygon
   fill="#164FCE"
   points="284.948,400 25.807,226.584 25.807,573.414  "
   id="polygon16" />
	<path
   fill="#FFFFFF"
   d="M774.193,604.468L484.675,410.724c-3.579-2.397-5.728-6.417-5.728-10.724c0-4.306,2.148-8.329,5.728-10.724   l190.229-127.3c5.922-3.962,13.938-2.376,17.899,3.549l21.446-14.354c-3.964-5.921-2.376-13.937,3.548-17.899l56.396-37.743   v-40.691h-76.49L407.176,349.258c-2.171,1.454-4.674,2.18-7.176,2.18s-5.005-0.726-7.176-2.18L102.297,154.839h-76.49v40.691   l289.519,193.745c3.579,2.396,5.728,6.417,5.728,10.723c0,4.307-2.148,8.328-5.728,10.724L25.807,604.468v40.693h76.49   L392.824,450.74c4.342-2.905,10.01-2.905,14.354,0l290.525,194.421h76.49V604.468z"
   id="path18" />
	<path
   d="m 800,597.509 v -395.02 -0.048 -60.506 c 0,-7.128 -5.777,-12.903 -12.903,-12.903 H 693.866 693.787 12.903 C 5.777,129.032 0,134.808 0,141.936 v 60.506 0.048 395.02 0.048 60.508 c 0,7.128 5.777,12.903 12.903,12.903 h 93.196 0.158 587.491 c 0.009,0 0.016,0.002 0.024,0.002 0.008,0 0.019,-0.002 0.027,-0.002 h 93.297 c 7.126,0 12.903,-5.775 12.903,-12.903 V 597.56 C 800,597.542 800,597.524 800,597.509 Z M 697.703,645.161 407.176,450.74 c -4.342,-2.905 -10.01,-2.905 -14.354,0 L 102.297,645.161 H 25.807 V 604.47 L 315.326,410.725 c 3.579,-2.396 5.728,-6.416 5.728,-10.723 0,-4.307 -2.148,-8.329 -5.728,-10.724 L 25.807,195.53 v -40.691 h 76.49 l 290.527,194.42 c 2.171,1.454 4.674,2.18 7.176,2.18 2.502,0 5.005,-0.726 7.176,-2.18 l 290.527,-194.42 h 76.49 v 40.691 l -99.286,66.446 c -5.922,3.964 -8.617,11.273 -4.655,17.194 v 0 c 2.488,3.72 6.574,5.729 10.735,5.729 2.468,0 6.065,0 8.271,-1.475 l 84.935,-56.841 V 573.415 L 515.052,400 689.258,283.424 c 5.923,-3.964 7.511,-11.978 3.547,-17.899 v 0 c -3.962,-5.924 -11.978,-7.51 -17.898,-3.549 l -190.23,127.3 c -3.58,2.396 -5.727,6.417 -5.727,10.723 0,4.307 2.148,8.328 5.727,10.724 l 289.518,193.746 v 40.693 H 697.703 Z M 400,476.991 651.3,645.161 H 148.7 Z M 284.948,400 25.807,573.414 V 226.584 Z M 400,323.009 148.7,154.839 h 502.6 z"
   id="path20"
   inkscape:connector-curvature="0"
   sodipodi:nodetypes="sccssccssccccssccssssscscccccccscccccscccccccscccccccccsccccccccccccccccc" />
</g>
</svg>