<?xml version="1.0" encoding="iso-8859-1"?>
<!-- Generator: Adobe Illustrator 19.0.0, SVG Export Plug-In . SVG Version: 6.00 Build 0)  -->
<svg version="1.1" id="Capa_1" xmlns="http://www.w3.org/2000/svg" xmlns:xlink="http://www.w3.org/1999/xlink" x="0px" y="0px"
	 viewBox="0 0 512 512" style="enable-background:new 0 0 512 512;" xml:space="preserve">
<g>
	<path style="fill:#FFFBEE;" d="M262.923,220.213c4,0,8.117,0,12.309-0.027c17.059-14.494,35.649-25.66,51.446-30.367
		c10.947-3.262,18.903-4.844,25.169-16.459c2.032-3.768,5.529-8.396,12.413-8.396c7.595,0,11.075,5.438,13.882,9.791
		c2.403,3.73,4.75,6.326,7.176,8.232c2.375-5.709,3.684-12.283,3.684-19.879c0-44.242-51.028-93.764-92.054-105.205
		c-7.993-2.23-13.679-3.605-19.772-13.063C274.643,40.908,271.5,36,264.644,36c-6.215,0-9.373,4.18-11.207,7.58
		c-5.657,10.486-12.84,11.916-22.724,14.861c-37.99,11.316-93.867,64.016-93.867,104.666
		C136.845,220.155,210.083,220.213,262.923,220.213z"/>
	<path style="fill:#FFFBEE;" d="M275.232,220.186c-28.379,24.115-52.521,57.441-52.521,85.564c0,2.647,0.154,5.174,0.432,7.604
		c18.479,12.293,35.993,29.275,48.353,47.967c27.448,7.662,61.917,7.68,90.861,7.68c58.526,0,139.646-0.064,139.646-63.25
		c0-49.004-56.52-103.855-101.96-116.529c-5.699-1.59-10.34-2.787-14.724-6.234c-2.426-1.906-4.773-4.502-7.176-8.232
		c-2.807-4.354-6.287-9.791-13.882-9.791c-6.884,0-10.381,4.629-12.413,8.396c-6.266,11.615-14.222,13.197-25.169,16.459
		C310.881,194.526,292.291,205.692,275.232,220.186z"/>
	<path style="fill:#FFFBEE;" d="M271.494,361.321c-12.359-18.691-29.874-35.674-48.353-47.967
		c-11.91-7.924-24.221-13.9-35.811-17.133c-8.853-2.469-15.15-3.992-21.899-14.467c-2.807-4.354-6.287-9.791-13.882-9.791
		c-6.884,0-10.381,4.629-12.413,8.396c-6.266,11.615-14.222,13.197-25.169,16.459C71.891,309.354,10,367.723,10,412.75
		C10,475.936,91.119,476,149.645,476s139.645-0.064,139.645-63.25C289.291,395.639,282.399,377.813,271.494,361.321z"/>
</g>
<path d="M137.994,319.584c-5.403-1.169-10.721,2.266-11.886,7.663c-3.735,17.293-20.946,32.424-31.414,36.272
	c-5.184,1.905-7.842,7.652-5.936,12.836c1.487,4.046,5.314,6.553,9.387,6.553c1.146,0,2.312-0.198,3.449-0.617
	c17.666-6.494,38.977-27.279,44.063-50.821C146.823,326.071,143.393,320.75,137.994,319.584z"/>
<path d="M197.552,363.084c5.059-2.217,7.362-8.115,5.145-13.173c-3.621-8.262-10.277-19.851-21.427-28.147
	c-4.43-3.299-10.694-2.38-13.992,2.053c-3.297,4.431-2.378,10.695,2.053,13.992c5.958,4.434,11.302,11.583,15.048,20.13
	c1.645,3.753,5.314,5.989,9.164,5.989C194.884,363.927,196.246,363.656,197.552,363.084z"/>
<path d="M200.145,372.117c-5.507-0.45-10.337,3.633-10.796,9.136c-0.008,0.096-0.016,0.222-0.021,0.331
	c-0.321,5.431,3.769,10.139,9.216,10.558c0.261,0.02,0.52,0.03,0.777,0.03c5.175-0.001,9.557-3.988,9.96-9.234
	c0.006-0.071,0.012-0.168,0.017-0.254C209.625,377.276,205.573,372.569,200.145,372.117z"/>
<path d="M475.403,227.073c-21.234-22.963-48.403-40.714-72.676-47.484l-0.69-0.191c-1.779-0.495-3.311-0.925-4.684-1.376
	c1.089-4.698,1.647-9.683,1.647-14.913c0-23.01-11.826-48.471-33.301-71.692c-19.288-20.858-43.986-36.987-66.065-43.145
	l-0.626-0.175c-6.952-1.935-9.553-2.659-13.449-8.706C282.759,35.044,276.933,26,264.643,26c-5.971,0-14.288,2.227-20.008,12.832
	c-3.273,6.067-6.377,6.977-14.672,9.405c-0.689,0.201-1.391,0.407-2.105,0.62c-20.383,6.071-45.508,22.94-65.569,44.023
	c-13.237,13.91-35.443,41.531-35.443,70.227c0,29.915,16.979,49.953,50.467,59.558c22.261,6.384,49.201,7.365,72.969,7.517
	c-13.093,14.031-32.752,39.004-36.81,65.857c-7.921-4.114-15.83-7.324-23.453-9.451l-0.689-0.191
	c-7.764-2.16-10.977-3.054-15.518-10.101c-3.228-5.009-9.237-14.333-22.26-14.333c-6.319,0-15.131,2.368-21.215,13.648
	c-3.84,7.118-7.663,8.236-16.899,10.939c-0.76,0.222-1.533,0.448-2.324,0.684c-22.406,6.676-50.054,25.248-72.151,48.472
	C24.41,350.998,0,381.34,0,412.75c0,32.597,18.545,54.442,55.118,64.932C84.121,486,120.453,486,149.645,486s65.524,0,94.527-8.318
	c36.573-10.489,55.118-32.335,55.118-64.932c0-11.992-2.945-24.6-8.567-37.271c23.831,3.513,49.757,3.521,71.632,3.521
	c29.192,0,65.524,0,94.527-8.318C493.455,360.193,512,338.347,512,305.75C512.001,280.536,499.004,252.594,475.403,227.073z
	 M146.845,163.108c0-34.354,50.455-84.279,86.723-95.082c0.686-0.204,1.357-0.401,2.016-0.594
	c9.545-2.795,19.414-5.685,26.654-19.104C263.492,46,264.077,46,264.643,46c1.025,0,1.606,0.346,4.126,4.257
	c7.995,12.407,16.577,14.796,24.877,17.106l0.615,0.172c37.172,10.366,82.36,54.494,84.642,92.592
	c-3.517-2.896-8.225-5.164-14.643-5.164c-6.319,0-15.129,2.368-21.214,13.648c-3.839,7.115-7.66,8.234-16.893,10.937
	c-0.762,0.224-1.539,0.451-2.331,0.686c-16.041,4.779-34.767,15.657-52.221,29.973c-2.929,0.016-5.827,0.027-8.679,0.006
	C199.414,210.213,146.845,206.669,146.845,163.108z M149.645,466C78.714,466,20,461.994,20,412.75
	c0-38.448,56.332-94.285,96.821-106.348c0.759-0.226,1.502-0.443,2.232-0.656c10.363-3.032,21.079-6.168,28.886-20.64
	c1.695-3.144,2.714-3.144,3.612-3.144c1.667,0,2.532,0.644,5.474,5.208c8.637,13.401,17.943,15.99,26.943,18.494l0.677,0.189
	c10.448,2.914,21.464,8.225,32.14,15.215c0.546,0.449,1.135,0.847,1.766,1.173c16.936,11.422,32.88,27.007,44.182,43.901
	c0.248,0.45,0.536,0.877,0.852,1.284c9.658,14.804,15.708,30.546,15.708,45.323C279.291,461.994,220.577,466,149.645,466z
	 M362.355,359c-26.413,0-58.985-0.017-84.69-6.416c-4.375-6.261-9.371-12.455-14.972-18.512
	c-9.114-9.856-19.321-18.746-29.924-26.227c-0.025-0.699-0.06-1.398-0.06-2.096c0-23.924,21.81-54.576,48.043-77.23
	c0.661-0.438,1.263-0.955,1.801-1.535c15.441-13.02,32.257-23.196,46.979-27.582c0.761-0.227,1.508-0.445,2.239-0.66
	c10.359-3.032,21.071-6.168,28.876-20.636c1.695-3.144,2.713-3.144,3.611-3.144c1.667,0,2.533,0.644,5.476,5.207
	c2.938,4.559,5.953,7.865,9.007,10.344c0.267,0.232,0.544,0.453,0.838,0.658c5.658,4.309,11.438,5.919,17.098,7.493l0.677,0.188
	c42.605,11.883,94.647,63.543,94.647,106.896C492.001,354.994,433.287,359,362.355,359z"/>
<path d="M350.704,212.584c-5.396-1.169-10.72,2.264-11.886,7.663c-3.736,17.293-20.947,32.424-31.415,36.273
	c-5.184,1.905-7.841,7.652-5.935,12.836c1.487,4.046,5.314,6.553,9.387,6.553c1.146,0,2.311-0.198,3.449-0.617
	c17.665-6.493,38.978-27.278,44.063-50.821C359.533,219.072,356.103,213.75,350.704,212.584z"/>
<path d="M412.855,265.117c-5.508-0.462-10.336,3.632-10.796,9.136c-0.008,0.096-0.016,0.222-0.022,0.331
	c-0.321,5.431,3.769,10.139,9.216,10.558c0.261,0.02,0.52,0.03,0.777,0.03c5.175-0.001,9.557-3.988,9.96-9.234
	c0.006-0.071,0.012-0.167,0.017-0.253C422.336,270.276,418.283,265.569,412.855,265.117z"/>
<path d="M410.262,256.084c5.059-2.217,7.362-8.115,5.146-13.173c-3.621-8.262-10.277-19.851-21.427-28.148
	c-4.43-3.299-10.694-2.38-13.992,2.053c-3.297,4.431-2.378,10.695,2.053,13.992c5.958,4.434,11.302,11.583,15.048,20.13
	c1.645,3.753,5.314,5.989,9.164,5.989C407.594,256.927,408.956,256.656,410.262,256.084z"/>
<path d="M248.453,81.584c-5.401-1.168-10.72,2.265-11.886,7.663c-3.735,17.293-20.946,32.424-31.414,36.272
	c-5.184,1.905-7.842,7.652-5.936,12.836c1.487,4.046,5.313,6.553,9.387,6.553c1.145,0,2.311-0.198,3.449-0.617
	c17.666-6.494,38.978-27.279,44.063-50.821C257.282,88.071,253.852,82.75,248.453,81.584z"/>
<path d="M279.79,99.808c5.958,4.434,11.303,11.582,15.049,20.13c1.645,3.753,5.314,5.989,9.164,5.989
	c1.341,0,2.703-0.271,4.009-0.844c5.059-2.217,7.362-8.115,5.146-13.173c-3.621-8.262-10.277-19.852-21.428-28.147
	c-4.432-3.299-10.697-2.378-13.992,2.053C274.44,90.248,275.359,96.512,279.79,99.808z"/>
<path d="M299.81,143.253c-0.008,0.096-0.016,0.222-0.022,0.331c-0.321,5.431,3.769,10.139,9.216,10.558
	c0.261,0.02,0.52,0.03,0.777,0.03c5.175-0.001,9.557-3.988,9.96-9.234c0.006-0.071,0.012-0.168,0.017-0.254
	c0.327-5.407-3.725-10.114-9.152-10.566C305.115,133.656,300.27,137.749,299.81,143.253z"/>
<g>
</g>
<g>
</g>
<g>
</g>
<g>
</g>
<g>
</g>
<g>
</g>
<g>
</g>
<g>
</g>
<g>
</g>
<g>
</g>
<g>
</g>
<g>
</g>
<g>
</g>
<g>
</g>
<g>
</g>
</svg>
