<?xml version="1.0" encoding="UTF-8" standalone="no"?>
<!-- Generator: Adobe Illustrator 18.0.0, SVG Export Plug-In . SVG Version: 6.00 Build 0)  -->

<svg
   xmlns:dc="http://purl.org/dc/elements/1.1/"
   xmlns:cc="http://creativecommons.org/ns#"
   xmlns:rdf="http://www.w3.org/1999/02/22-rdf-syntax-ns#"
   xmlns:svg="http://www.w3.org/2000/svg"
   xmlns="http://www.w3.org/2000/svg"
   xmlns:sodipodi="http://sodipodi.sourceforge.net/DTD/sodipodi-0.dtd"
   xmlns:inkscape="http://www.inkscape.org/namespaces/inkscape"
   version="1.1"
   id="Layer_1"
   x="0px"
   y="0px"
   viewBox="0 0 256 256"
   enable-background="new 0 0 722.8 207"
   xml:space="preserve"
   sodipodi:docname="shanghai_metro.svg"
   width="256"
   height="256"
   inkscape:version="0.92.4 (5da689c313, 2019-01-14)"><metadata
   id="metadata21"><rdf:RDF><cc:Work
       rdf:about=""><dc:format>image/svg+xml</dc:format><dc:type
         rdf:resource="http://purl.org/dc/dcmitype/StillImage" /><dc:title /></cc:Work></rdf:RDF></metadata><defs
   id="defs19" /><sodipodi:namedview
   pagecolor="#ffffff"
   bordercolor="#666666"
   borderopacity="1"
   objecttolerance="10"
   gridtolerance="10"
   guidetolerance="10"
   inkscape:pageopacity="0"
   inkscape:pageshadow="2"
   inkscape:window-width="1920"
   inkscape:window-height="986"
   id="namedview17"
   showgrid="false"
   inkscape:zoom="3.0679122"
   inkscape:cx="129.47359"
   inkscape:cy="60.077625"
   inkscape:window-x="-11"
   inkscape:window-y="-11"
   inkscape:window-maximized="1"
   inkscape:current-layer="Layer_1" />











<path
   d="M 198.66649,125.16551 H 184.20086 L 155.2696,87.339848 129.36829,117.73722 105.32408,87.339848 75.708631,125.16551 h -18.27752 c 1.563852,-37.63018 32.645411,-67.832072 70.666559,-67.832072 33.32959,0 61.28345,23.164558 68.71174,54.148372 h 31.08156 c -7.917,-47.892964 -49.6523,-84.545745 -99.89105,-84.545745 -55.907696,0 -101.161664,45.253967 -101.161664,101.161685 0,9.28536 1.27063,18.27751 3.616408,26.78096 h 43.103671 v 0 h 11.826631 l 20.330074,-21.50296 23.65325,29.32222 24.82616,-29.51771 16.02948,21.99167 h 22.67585 c -10.84922,25.02163 -35.87085,46.32911 -64.89986,46.32911 -23.94647,0 -45.156214,-14.1724 -57.960252,-33.23185 H 35.243962 c 15.638519,35.77311 51.216152,60.79475 92.755958,60.79475 55.90771,0 101.16169,-45.25397 101.16169,-101.16168 0,-0.9774 0,-1.95481 -0.0977,-2.93222 l -30.39737,0.19548 c 0,0 0,0 0,-1e-5 z"
   id="path14"
   inkscape:connector-curvature="0"
   style="clip-rule:evenodd;fill:#ff212c;fill-rule:evenodd;stroke:#000000;stroke-width:9;stroke-linecap:round;stroke-linejoin:round;stroke-miterlimit:4;stroke-dasharray:none;stroke-opacity:1;fill-opacity:1" />
</svg>