<?xml version="1.0" encoding="UTF-8" standalone="no"?>
<!-- Created with Inkscape (http://www.inkscape.org/) -->

<svg
   xmlns:dc="http://purl.org/dc/elements/1.1/"
   xmlns:cc="http://creativecommons.org/ns#"
   xmlns:rdf="http://www.w3.org/1999/02/22-rdf-syntax-ns#"
   xmlns:svg="http://www.w3.org/2000/svg"
   xmlns="http://www.w3.org/2000/svg"
   xmlns:sodipodi="http://sodipodi.sourceforge.net/DTD/sodipodi-0.dtd"
   xmlns:inkscape="http://www.inkscape.org/namespaces/inkscape"
   width="256"
   height="256"
   viewBox="0 0 67.733331 67.733331"
   version="1.1"
   id="svg8"
   inkscape:version="0.92.4 (5da689c313, 2019-01-14)"
   sodipodi:docname="shenzhen_skyline.svg">
  <defs
     id="defs2">
    <inkscape:path-effect
       effect="bspline"
       id="path-effect842"
       is_visible="true"
       weight="33.333333"
       steps="2"
       helper_size="0"
       apply_no_weight="true"
       apply_with_weight="true"
       only_selected="false" />
    <clipPath
       clipPathUnits="userSpaceOnUse"
       id="clipPath920">
      <rect
         style="fill:#0000ff;fill-rule:evenodd;stroke-width:1.11399555"
         id="rect922"
         width="78.176338"
         height="20.980658"
         x="31.275528"
         y="353.32932" />
    </clipPath>
  </defs>
  <sodipodi:namedview
     id="base"
     pagecolor="#ffffff"
     bordercolor="#666666"
     borderopacity="1.0"
     inkscape:pageopacity="0.0"
     inkscape:pageshadow="2"
     inkscape:zoom="2.8"
     inkscape:cx="115.79082"
     inkscape:cy="130.89373"
     inkscape:document-units="mm"
     inkscape:current-layer="layer1"
     showgrid="false"
     units="px"
     inkscape:window-width="1920"
     inkscape:window-height="986"
     inkscape:window-x="-11"
     inkscape:window-y="-11"
     inkscape:window-maximized="1" />
  <metadata
     id="metadata5">
    <rdf:RDF>
      <cc:Work
         rdf:about="">
        <dc:format>image/svg+xml</dc:format>
        <dc:type
           rdf:resource="http://purl.org/dc/dcmitype/StillImage" />
        <dc:title></dc:title>
      </cc:Work>
    </rdf:RDF>
  </metadata>
  <g
     inkscape:label="Layer 1"
     inkscape:groupmode="layer"
     id="layer1"
     transform="translate(0,-229.26668)">
    <g
       id="g1098"
       transform="translate(1.0583333,-0.52916663)">
      <rect
         style="fill:#2c6180;fill-opacity:0.86666667;fill-rule:nonzero;stroke-width:0.17071447"
         id="rect1112-2"
         width="6.7472234"
         height="36.444286"
         x="16.484179"
         y="257.31561" />
      <rect
         style="fill:#2c6180;fill-opacity:1;fill-rule:nonzero;stroke-width:0.18885051"
         id="rect1112"
         width="6.8314342"
         height="44.049229"
         x="3.0356543"
         y="249.55399" />
      <path
         style="fill:#73abc0;fill-opacity:1;stroke:none;stroke-width:0.06899869"
         d="m 19.075441,266.55877 -0.760657,-1.35248 0.827313,-1.45687 c 0.625028,-1.10064 0.845439,-1.43566 0.901448,-1.37016 0.04078,0.0477 0.379246,0.64107 0.752158,1.31864 l 0.678021,1.23196 -0.776793,1.4934 c -0.427236,0.82136 -0.795703,1.49218 -0.818814,1.49068 -0.02311,-0.001 -0.384315,-0.61131 -0.802676,-1.35517 z"
         id="path1106"
         inkscape:connector-curvature="0" />
      <path
         style="fill:#73abc0;fill-opacity:1;stroke:none;stroke-width:0.06899869"
         d="m 19.081726,276.55342 -0.821188,-1.55917 0.847449,-1.62762 c 0.466097,-0.89518 0.85147,-1.63381 0.856384,-1.64138 0.02292,-0.0354 1.740636,3.07155 1.726448,3.12271 -0.04009,0.14457 -1.710553,3.26785 -1.746973,3.26634 -0.02251,-8.4e-4 -0.410466,-0.70332 -0.86212,-1.56088 z"
         id="path1108"
         inkscape:connector-curvature="0" />
      <path
         style="fill:#73abc0;fill-opacity:1;stroke:none;stroke-width:0.06899869"
         d="m 19.012242,288.04217 c -0.451408,-0.84196 -0.811522,-1.57095 -0.800252,-1.61994 0.01127,-0.0491 0.409812,-0.82824 0.88565,-1.73163 l 0.865161,-1.64253 0.855387,1.60682 c 0.470463,0.88376 0.855387,1.6167 0.855387,1.62876 0,0.0257 -1.65476,2.99863 -1.765504,3.1719 -0.06263,0.098 -0.21121,-0.13641 -0.895829,-1.41338 z"
         id="path1110"
         inkscape:connector-curvature="0" />
      <path
         sodipodi:nodetypes="ccccc"
         inkscape:connector-curvature="0"
         id="path826"
         d="m 2.0733966,248.39722 0.6227504,46.07531 h 7.590621 l 0.506041,-45.54372 z"
         style="fill:none;stroke:#000000;stroke-width:2.40109372;stroke-linecap:butt;stroke-linejoin:miter;stroke-miterlimit:4;stroke-dasharray:none;stroke-opacity:1" />
      <path
         sodipodi:nodetypes="ccccc"
         inkscape:connector-curvature="0"
         id="path828"
         d="m 16.147051,257.04094 7.421945,-0.33735 v 37.93142 l -7.253264,0.0217 z"
         style="fill:none;stroke:#000000;stroke-width:2.40109372;stroke-linecap:butt;stroke-linejoin:miter;stroke-miterlimit:4;stroke-dasharray:none;stroke-opacity:1" />
      <path
         sodipodi:nodetypes="ccccccccc"
         inkscape:connector-curvature="0"
         id="path832"
         d="m 19.816226,291.22373 -2.944226,-5.15788 6.154637,-10.94887 -6.030856,-9.98169 3.011042,-4.94648 2.760228,4.67046 -5.798666,10.47019 6.019916,10.58304 z"
         style="fill:none;stroke:#000000;stroke-width:2.18281245;stroke-linecap:butt;stroke-linejoin:miter;stroke-miterlimit:4;stroke-dasharray:none;stroke-opacity:1" />
      <path
         sodipodi:nodetypes="ccccccccc"
         inkscape:connector-curvature="0"
         id="path830"
         d="m 6.5105091,291.17243 -3.4413719,-6.8428 6.9772368,-12.81054 -7.2777128,-14.13726 3.5795909,-5.54553 3.7213319,5.84331 -7.0771188,13.87782 6.9005631,13.04868 z"
         style="fill:#73abc0;fill-opacity:0.86666667;fill-rule:evenodd;stroke:#000000;stroke-width:2.18281245;stroke-linecap:butt;stroke-linejoin:miter;stroke-miterlimit:4;stroke-dasharray:none;stroke-opacity:1" />
    </g>
    <g
       id="g857"
       transform="translate(21.068094,2.3564469)"
       style="stroke-width:2.18281245;stroke-miterlimit:4;stroke-dasharray:none">
      <path
         style="fill:#ececec;stroke:none;stroke-width:0.8934446;stroke-miterlimit:4;stroke-dasharray:none"
         d="m 10.933777,265.5379 v -26.26361 l 1.800014,-0.88092 c 2.455195,-1.20158 4.11462,-1.14553 6.732863,0.22746 l 2.113678,1.10839 v 26.03614 26.03617 h -5.323274 -5.323281 z"
         id="path1348-4"
         inkscape:connector-curvature="0" />
      <path
         style="fill:#a0a0a0;stroke:none;stroke-width:0.62676007"
         d="M 13.850822,261.13478 V 229.9317 l 0.74559,-1.0466 c 1.016975,-1.42756 1.704331,-1.36097 2.788843,0.27024 l 0.875514,1.31685 v 30.93283 30.93285 h -2.204972 -2.204975 z"
         id="path1348"
         inkscape:connector-curvature="0" />
      <path
         sodipodi:nodetypes="cccccc"
         inkscape:connector-curvature="0"
         id="path834"
         d="m 10.490784,245.23525 0.02323,46.9577 11.431406,0.0152 -0.135951,-43.77804 -0.0058,-1.8626 v -2.10246"
         style="fill:none;stroke:#000000;stroke-width:2.18281245;stroke-linecap:butt;stroke-linejoin:miter;stroke-miterlimit:4;stroke-dasharray:none;stroke-opacity:1" />
      <path
         sodipodi:nodetypes="ccccc"
         transform="matrix(1.5,0,0,1.5,-8.0772957,-134.92214)"
         inkscape:original-d="m 12.37872,253.43826 c 0.261618,-2.90416 0.523049,-5.80803 0.784304,-8.71172 0.957879,-1.28453 1.915679,-2.56902 2.873148,-3.85313 0.890959,1.24671 1.782061,2.49425 2.672695,3.74178 0.404107,2.76973 0.808016,5.53949 1.211776,8.3096"
         inkscape:path-effect="#path-effect842"
         inkscape:connector-curvature="0"
         id="path840"
         d="m 12.37872,253.43826 c 0.261459,-2.90417 0.52289,-5.80804 1.132521,-7.90216 0.609631,-2.09411 1.567431,-3.3786 2.49151,-3.39718 0.92408,-0.0186 1.815179,1.22896 2.462602,3.23749 0.647424,2.00854 1.051333,4.7783 1.45529,7.54838"
         style="fill:none;stroke:#000000;stroke-width:1.4552083;stroke-linecap:butt;stroke-linejoin:miter;stroke-miterlimit:4;stroke-dasharray:none;stroke-opacity:1" />
      <path
         sodipodi:nodetypes="cccccc"
         inkscape:connector-curvature="0"
         id="path834-8"
         d="m 12.986085,231.83388 0.01238,60.26875 6.096401,0.0195 -0.0725,-56.18775 -0.0032,-2.39059 v -2.69845"
         style="fill:none;stroke:#000000;stroke-width:1.8059094;stroke-linecap:butt;stroke-linejoin:miter;stroke-miterlimit:4;stroke-dasharray:none;stroke-opacity:1" />
    </g>
    <g
       id="g1092"
       transform="matrix(0.9,0,0,0.9,-39.950719,-58.558247)"
       style="stroke-width:2.42534733;stroke-miterlimit:4;stroke-dasharray:none">
      <path
         style="fill:#ffe680;fill-opacity:0.73333333;stroke:none;stroke-width:1.3964622;stroke-miterlimit:4;stroke-dasharray:none"
         d="m 104.63143,359.40204 v -23.02045 h 2.90183 2.90181 v 23.02045 23.0206 h -2.90181 -2.90183 z"
         id="path1367-4"
         inkscape:connector-curvature="0" />
      <path
         style="fill:#444f00;fill-opacity:0.73333333;stroke:none;stroke-width:0.37280127"
         d="m 105.3601,354.42803 v -2.0416 h 2.4216 2.42159 v 2.0416 2.0416 h -2.42159 -2.4216 z"
         id="path1369"
         inkscape:connector-curvature="0" />
      <rect
         y="382.42264"
         x="98.499191"
         height="9.8273811"
         width="18.142857"
         id="rect935"
         style="fill:#455001;fill-opacity:0.73333333;fill-rule:evenodd;stroke:#000000;stroke-width:2.42534733;stroke-miterlimit:4;stroke-dasharray:none;stroke-opacity:1" />
      <rect
         y="333.09674"
         x="101.11537"
         height="49.325893"
         width="3.5907736"
         id="rect937"
         style="fill:#73abc0;fill-opacity:1;fill-rule:evenodd;stroke:#000000;stroke-width:2.42534733;stroke-miterlimit:4;stroke-dasharray:none;stroke-opacity:1" />
      <rect
         y="333.09674"
         x="110.43507"
         height="49.325893"
         width="3.5907738"
         id="rect937-9"
         style="fill:#73abc0;fill-opacity:1;fill-rule:evenodd;stroke:#000000;stroke-width:2.42534733;stroke-miterlimit:4;stroke-dasharray:none;stroke-opacity:1" />
      <rect
         y="336.38159"
         x="104.63143"
         height="46.115753"
         width="5.8783536"
         id="rect937-9-8"
         style="fill:none;fill-rule:evenodd;stroke:#000000;stroke-width:2.27592349;stroke-miterlimit:4;stroke-dasharray:none;stroke-opacity:1" />
      <path
         inkscape:connector-curvature="0"
         id="path969"
         d="m 112.19895,332.50878 0.0157,-4.27838"
         style="fill:none;stroke:#000000;stroke-width:2.42534733;stroke-linecap:butt;stroke-linejoin:miter;stroke-miterlimit:4;stroke-dasharray:none;stroke-opacity:1" />
      <path
         inkscape:connector-curvature="0"
         id="path971"
         d="m 105.06233,357.05751 h 5.72892 v 0"
         style="fill:none;stroke:#000000;stroke-width:2.42534733;stroke-linecap:butt;stroke-linejoin:miter;stroke-miterlimit:4;stroke-dasharray:none;stroke-opacity:1" />
      <path
         inkscape:connector-curvature="0"
         id="path971-9"
         d="m 105.06233,362.31654 h 5.72892 v 0"
         style="fill:none;stroke:#000000;stroke-width:2.42534733;stroke-linecap:butt;stroke-linejoin:miter;stroke-miterlimit:4;stroke-dasharray:none;stroke-opacity:1" />
      <path
         inkscape:connector-curvature="0"
         id="path971-9-6"
         d="m 105.06233,367.57558 h 5.72892 v 0"
         style="fill:none;stroke:#000000;stroke-width:2.42534733;stroke-linecap:butt;stroke-linejoin:miter;stroke-miterlimit:4;stroke-dasharray:none;stroke-opacity:1" />
      <path
         inkscape:connector-curvature="0"
         id="path971-9-6-4"
         d="m 105.06233,372.83462 h 5.72892 v 0"
         style="fill:none;stroke:#000000;stroke-width:2.42534733;stroke-linecap:butt;stroke-linejoin:miter;stroke-miterlimit:4;stroke-dasharray:none;stroke-opacity:1" />
      <path
         inkscape:connector-curvature="0"
         id="path971-9-6-24"
         d="m 105.06233,341.2804 h 5.72892 v 0"
         style="fill:none;stroke:#000000;stroke-width:2.42534733;stroke-linecap:butt;stroke-linejoin:miter;stroke-miterlimit:4;stroke-dasharray:none;stroke-opacity:1" />
      <path
         inkscape:connector-curvature="0"
         id="path971-9-6-0"
         d="m 105.06233,346.53944 h 5.72892 v 0"
         style="fill:none;stroke:#000000;stroke-width:2.42534733;stroke-linecap:butt;stroke-linejoin:miter;stroke-miterlimit:4;stroke-dasharray:none;stroke-opacity:1" />
      <path
         inkscape:connector-curvature="0"
         id="path971-9-6-3"
         d="m 105.06233,351.79847 h 5.72892 v 0"
         style="fill:none;stroke:#000000;stroke-width:2.42534733;stroke-linecap:butt;stroke-linejoin:miter;stroke-miterlimit:4;stroke-dasharray:none;stroke-opacity:1" />
      <path
         inkscape:connector-curvature="0"
         id="path971-9-6-4-6"
         d="m 105.06233,378.09366 h 5.72892 v 0"
         style="fill:none;stroke:#000000;stroke-width:2.42534733;stroke-linecap:butt;stroke-linejoin:miter;stroke-miterlimit:4;stroke-dasharray:none;stroke-opacity:1" />
      <path
         style="fill:#ffcc00;fill-opacity:0.73333333;stroke:none;stroke-width:0.8661955"
         d="m 211.3954,119.71587 v -4.64285 h 5.53572 5.53571 v 4.64285 4.64286 h -5.53571 -5.53572 z"
         id="path1367"
         inkscape:connector-curvature="0"
         transform="matrix(0.29398148,0,0,0.29398148,43.801724,319.21751)" />
      <path
         inkscape:connector-curvature="0"
         id="path969-3"
         d="m 102.94227,332.50878 0.0157,-4.27838"
         style="fill:none;stroke:#000000;stroke-width:2.42534733;stroke-linecap:butt;stroke-linejoin:miter;stroke-miterlimit:4;stroke-dasharray:none;stroke-opacity:1" />
    </g>
  </g>
</svg>
