<?xml version="1.0" encoding="UTF-8" standalone="no"?>
<!-- Generator: Adobe Illustrator 16.0.0, SVG Export Plug-In . SVG Version: 6.00 Build 0)  -->

<svg
   xmlns:dc="http://purl.org/dc/elements/1.1/"
   xmlns:cc="http://creativecommons.org/ns#"
   xmlns:rdf="http://www.w3.org/1999/02/22-rdf-syntax-ns#"
   xmlns:svg="http://www.w3.org/2000/svg"
   xmlns="http://www.w3.org/2000/svg"
   xmlns:sodipodi="http://sodipodi.sourceforge.net/DTD/sodipodi-0.dtd"
   xmlns:inkscape="http://www.inkscape.org/namespaces/inkscape"
   version="1.1"
   id="Capa_1"
   x="0px"
   y="0px"
   width="120"
   height="120"
   viewBox="0 0 120 120"
   xml:space="preserve"
   sodipodi:docname="shenzhen_metro.svg"
   inkscape:version="0.92.4 (5da689c313, 2019-01-14)"><metadata
   id="metadata45"><rdf:RDF><cc:Work
       rdf:about=""><dc:format>image/svg+xml</dc:format><dc:type
         rdf:resource="http://purl.org/dc/dcmitype/StillImage" /><dc:title /></cc:Work></rdf:RDF></metadata><defs
   id="defs43" /><sodipodi:namedview
   pagecolor="#ffffff"
   bordercolor="#666666"
   borderopacity="1"
   objecttolerance="10"
   gridtolerance="10"
   guidetolerance="10"
   inkscape:pageopacity="0"
   inkscape:pageshadow="2"
   inkscape:window-width="1920"
   inkscape:window-height="986"
   id="namedview41"
   showgrid="false"
   inkscape:zoom="1.7954982"
   inkscape:cx="133.77168"
   inkscape:cy="-58.318668"
   inkscape:window-x="-11"
   inkscape:window-y="-11"
   inkscape:window-maximized="1"
   inkscape:current-layer="Capa_1" />
<ellipse
   style="fill:#f9f9f9;fill-opacity:1;fill-rule:nonzero;stroke:none;stroke-width:12.93266392;stroke-linecap:round;stroke-linejoin:round;stroke-miterlimit:4;stroke-dasharray:none;stroke-opacity:1"
   id="path854"
   cx="60"
   cy="60"
   rx="44.555878"
   ry="44.277405" /><g
   id="g8"
   transform="translate(13.528499,13.529001)"
   style="stroke-width:3.5;stroke-miterlimit:4;stroke-dasharray:none;stroke:#000000;stroke-opacity:1;fill:#0ea137;fill-opacity:1">
	<g
   id="g6"
   style="stroke-width:3.5;stroke-miterlimit:4;stroke-dasharray:none;stroke:#000000;stroke-opacity:1;fill:#0ea137;fill-opacity:1">
		<path
   d="m 43.045,44.688 v 3.572 c 1.14,-0.117 2.291,-0.184 3.459,-0.184 1.149,0 2.278,0.062 3.396,0.176 v -3.574 c -1.138,0.117 -2.292,0.183 -3.462,0.183 -1.146,0 -2.279,-0.062 -3.393,-0.173 z"
   id="path2"
   inkscape:connector-curvature="0"
   style="stroke-width:3.5;stroke-miterlimit:4;stroke-dasharray:none;stroke:#000000;stroke-opacity:1;fill:#0ea137;fill-opacity:1" />
		<path
   d="M 46.454,0 C 20.8,0.009 0.009,20.815 0.019,46.469 c 0,0.012 0,0.025 0,0.037 C 0.03,72.16 20.833,92.95 46.49,92.942 72.146,92.929 92.936,72.123 92.924,46.468 c 0,-0.011 0,-0.022 0,-0.035 C 92.913,20.778 72.108,-0.012 46.454,0 Z m 32.367,13.81 c 0,12.989 -8.354,24.119 -20.182,28.749 v 7.804 c 11.836,4.613 20.182,15.755 20.182,28.766 0,0.157 0.004,0.311 0,0.465 H 67.493 c 0.004,-0.154 0,-0.308 0,-0.465 0,-6.785 -3.498,-12.766 -8.854,-16.41 V 79.594 H 49.898 V 59.291 c -1.107,-0.175 -2.236,-0.287 -3.395,-0.287 -1.179,0 -2.33,0.117 -3.459,0.297 v 20.293 h -8.826 v -16.78 c -5.3,3.652 -8.771,9.588 -8.771,16.314 0,0.157 -0.003,0.311 0,0.465 H 14.12 c 0,-0.154 0,-0.308 0,-0.465 0,-12.957 8.316,-24.068 20.099,-28.716 V 42.548 C 22.425,37.912 14.12,26.791 14.12,13.81 c 0,-0.156 0,-0.312 0,-0.466 h 11.328 c -0.003,0.154 0,0.31 0,0.466 0,6.747 3.465,12.698 8.771,16.346 V 13.344 h 8.826 v 20.305 c 1.106,0.173 2.234,0.285 3.393,0.285 1.183,0 2.332,-0.117 3.462,-0.295 V 13.344 h 8.74 v 16.842 c 5.348,-3.644 8.854,-9.61 8.854,-16.375 0,-0.156 0.006,-0.312 0,-0.466 h 11.328 c 0.003,0.153 -0.001,0.309 -0.001,0.465 z"
   id="path4"
   inkscape:connector-curvature="0"
   style="stroke-width:3.5;stroke-miterlimit:4;stroke-dasharray:none;stroke:#000000;stroke-opacity:1;fill:#0ea137;fill-opacity:1" />
	</g>
</g>
<g
   id="g10"
   transform="translate(0,27.057999)">
</g>
<g
   id="g12"
   transform="translate(0,27.057999)">
</g>
<g
   id="g14"
   transform="translate(0,27.057999)">
</g>
<g
   id="g16"
   transform="translate(0,27.057999)">
</g>
<g
   id="g18"
   transform="translate(0,27.057999)">
</g>
<g
   id="g20"
   transform="translate(0,27.057999)">
</g>
<g
   id="g22"
   transform="translate(0,27.057999)">
</g>
<g
   id="g24"
   transform="translate(0,27.057999)">
</g>
<g
   id="g26"
   transform="translate(0,27.057999)">
</g>
<g
   id="g28"
   transform="translate(0,27.057999)">
</g>
<g
   id="g30"
   transform="translate(0,27.057999)">
</g>
<g
   id="g32"
   transform="translate(0,27.057999)">
</g>
<g
   id="g34"
   transform="translate(0,27.057999)">
</g>
<g
   id="g36"
   transform="translate(0,27.057999)">
</g>
<g
   id="g38"
   transform="translate(0,27.057999)">
</g>
</svg>