<?xml version="1.0" encoding="UTF-8" standalone="no"?>
<svg
   xmlns:dc="http://purl.org/dc/elements/1.1/"
   xmlns:cc="http://creativecommons.org/ns#"
   xmlns:rdf="http://www.w3.org/1999/02/22-rdf-syntax-ns#"
   xmlns:svg="http://www.w3.org/2000/svg"
   xmlns="http://www.w3.org/2000/svg"
   xmlns:sodipodi="http://sodipodi.sourceforge.net/DTD/sodipodi-0.dtd"
   xmlns:inkscape="http://www.inkscape.org/namespaces/inkscape"
   height="480pt"
   viewBox="0 0 480 480.00005"
   width="480pt"
   version="1.1"
   id="svg50"
   sodipodi:docname="singapore_merlion.svg"
   inkscape:version="0.92.4 (5da689c313, 2019-01-14)">
  <metadata
     id="metadata56">
    <rdf:RDF>
      <cc:Work
         rdf:about="">
        <dc:format>image/svg+xml</dc:format>
        <dc:type
           rdf:resource="http://purl.org/dc/dcmitype/StillImage" />
      </cc:Work>
    </rdf:RDF>
  </metadata>
  <defs
     id="defs54" />
  <sodipodi:namedview
     pagecolor="#ffffff"
     bordercolor="#666666"
     borderopacity="1"
     objecttolerance="10"
     gridtolerance="10"
     guidetolerance="10"
     inkscape:pageopacity="0"
     inkscape:pageshadow="2"
     inkscape:window-width="1920"
     inkscape:window-height="986"
     id="namedview52"
     showgrid="false"
     inkscape:zoom="0.36875"
     inkscape:cx="1.3559322"
     inkscape:cy="320"
     inkscape:window-x="-11"
     inkscape:window-y="-11"
     inkscape:window-maximized="1"
     inkscape:current-layer="svg50" />
  <path
     d="m 307.99975,77.499996 h -115.6 l -0.34531,1.045899 c -3.85157,11.561328 -14.66914,19.354101 -26.85469,19.354101 -7.51055,0 -13.6,6.089454 -13.6,13.600004 v 5.63125 c 0,5.1 2.02539,9.99082 5.63125,13.6 L 171.99975,145.5 h 30.6 c 5.63457,0 10.2,4.56543 10.2,10.2 0,5.63457 -4.56543,10.2 -10.2,10.2 h -17 c -7.51055,0 -13.6,6.08945 -13.6,13.6 l 20.4,20.4 -6.8,68 v 102 c 0,30.0455 24.35781,54.4 54.4,54.4 h 27.59512 c 29.82636,0 54.00488,-24.17852 54.00488,-54.00489 V 111.5 Z M 236.59975,363.1 c -9.38653,0 -17,-7.61016 -17,-17 0,-9.38985 7.61347,-17 17,-17 9.38984,0 17,7.61015 17,17 0,9.38984 -7.61016,17 -17,17 z m 0,0"
     id="path2"
     inkscape:connector-curvature="0"
     style="fill:#d8d8d6;stroke-width:0.85000002" />
  <path
     d="m 307.99975,77.499996 h -115.6 l -0.34531,1.045899 c -3.85157,11.561328 -14.66914,19.354101 -26.85469,19.354101 -7.51055,0 -13.6,6.089454 -13.6,13.600004 v 5.63125 c 0,5.1 2.02539,9.99082 5.63125,13.6 L 171.99975,145.5 h 30.6 c 5.63457,0 10.2,4.56543 10.2,10.2 0,5.63457 -4.56543,10.2 -10.2,10.2 h -17 c -7.51055,0 -13.6,6.08945 -13.6,13.6 l 20.4,20.4 -6.8,68 v 102 c 0,30.0455 24.35781,54.4 54.4,54.4 h 27.59512 c 29.82636,0 54.00488,-24.17852 54.00488,-54.00489 V 111.5 Z M 236.59975,363.1 c -9.38653,0 -17,-7.61016 -17,-17 0,-9.38985 7.61347,-17 17,-17 9.38984,0 17,7.61015 17,17 0,9.38984 -7.61016,17 -17,17 z m 0,0"
     id="path4"
     inkscape:connector-curvature="0"
     style="fill:#d8d8d6;stroke-width:0.85000002" />
  <path
     d="M 321.59975,280.36445 V 203.3 l -6.8,-30.6 h 6.8 v -54.4 l -0.72051,-2.88868 C 317.08412,100.24414 308.16576,86.853316 295.63822,77.499996 l -96.25253,-6.8 c -10.52872,8.642774 -4.29317,5.52168 -10.00411,13.6 h 23.76016 c 18.59043,0 33.65801,15.070899 33.65801,33.661324 0,8.92832 3.25722,24.28145 -3.05801,30.6 l -8.98477,8.03516 c -22.79726,20.4332 -38.77128,47.37422 -45.75722,77.18066 l -3.4,34.12286 v 13.6 l 69.30488,-23.11934 v -22.23613 l 8.89512,-14.65586 17,5.61133 v 35.13554 z m 0,0"
     id="path6"
     inkscape:connector-curvature="0"
     style="fill:#d3d3d1;stroke-width:0.85000002" />
  <path
     d="m 192.39975,77.499996 h 27.54199 c 18.59043,0 33.65801,15.070899 33.65801,33.661324 0.003,8.925 -3.5461,17.48809 -9.85801,23.8 l -8.98477,8.03516 C 199.5517,174.52285 181.32651,220.83789 185.59975,267.9 l 61.2,-20.4 v -27.2 l 13.6,-6.8 20.4,6.8 v 34 l 61.2,27.2 -27.2,-122.4 h 20.4 L 320.87924,101.81132 C 313.31225,71.536715 286.11225,50.299996 254.90463,50.299996 h -8.10488 c -21.40274,0 -41.55703,10.077149 -54.4,27.2 z m 0,0"
     id="path8"
     inkscape:connector-curvature="0"
     style="fill:#ebebeb;stroke-width:0.85000002" />
  <g
     id="g20"
     transform="matrix(0.85,0,0,0.85,35.999748,43.499996)"
     style="fill:#c9c9c7">
    <path
       d="m 208,80 c -1.04297,-0.01172 -2.07813,-0.230469 -3.03906,-0.640625 -0.96875,-0.40625 -1.86328,-0.972656 -2.64063,-1.679687 C 200.81641,76.175781 199.98047,74.128906 200,72 c 0.0156,-0.511719 0.0664,-1.019531 0.16016,-1.519531 0.0742,-0.53125 0.23828,-1.042969 0.48046,-1.519531 0.17579,-0.511719 0.41797,-1 0.71875,-1.449219 0.30079,-0.414063 0.6211,-0.8125 0.96094,-1.191407 2.32031,-2.238281 5.73828,-2.894531 8.72266,-1.679687 0.97656,0.386719 1.875,0.957031 2.63672,1.679687 0.34375,0.378907 0.66406,0.777344 0.96093,1.191407 0.30079,0.449219 0.54297,0.9375 0.71875,1.449219 0.2461,0.476562 0.40625,0.988281 0.48047,1.519531 0.0937,0.5 0.14844,1.007812 0.16016,1.519531 0.0234,2.128906 -0.8125,4.175781 -2.32031,5.679688 -0.77735,0.707031 -1.66797,1.273437 -2.63672,1.679687 C 210.07812,79.769531 209.04687,79.988281 208,80 Z m 0,0"
       id="path10"
       inkscape:connector-curvature="0" />
    <path
       d="m 232,336 56,-16 -1,-1.75 C 279.3125,304.80078 266.07031,295.44531 250.82422,292.69531 235.58203,289.94531 219.90234,294.08594 208,304 L 196.625,285.03906 C 179.85547,257.10156 149.66016,240.00391 117.07422,240 L 176,328 h 14.11328 c 10.96094,0 20.98438,6.19531 25.88672,16 z"
       id="path12"
       inkscape:connector-curvature="0" />
    <path
       d="m 288,368 c -4.41797,0 -8,-3.58203 -8,-8 v -8 c 0,-4.41797 3.58203,-8 8,-8 4.41797,0 8,3.58203 8,8 v 8 c 0,4.41797 -3.58203,8 -8,8 z m 0,0"
       id="path14"
       inkscape:connector-curvature="0" />
    <path
       d="m 304,400 c -4.41797,0 -8,-3.58203 -8,-8 v -8 c 0,-4.41797 3.58203,-8 8,-8 4.41797,0 8,3.58203 8,8 v 8 c 0,4.41797 -3.58203,8 -8,8 z m 0,0"
       id="path16"
       inkscape:connector-curvature="0" />
    <path
       d="m 272,408 c -4.41797,0 -8,-3.58203 -8,-8 v -8 c 0,-4.41797 3.58203,-8 8,-8 4.41797,0 8,3.58203 8,8 v 8 c 0,4.41797 -3.58203,8 -8,8 z m 0,0"
       id="path18"
       inkscape:connector-curvature="0" />
  </g>
  <path
     d="m 437.19975,444.7 -65.43008,-30.5336 c -23.72363,-11.0666 -50.40898,-14.0914 -76.00859,-8.61289 l -25.56973,5.47852 c -19.79238,4.24336 -40.33848,3.4166 -59.7291,-2.40059 -24.95215,-7.48398 -51.65742,-6.66387 -76.09824,2.34082 L 42.799748,444.7 Z m 0,0"
     id="path22"
     inkscape:connector-curvature="0"
     style="fill:#6cbae5;stroke-width:0.85000002" />
  <path
     d="m 295.76108,425.95351 -25.56973,5.47852 c -19.79238,4.24336 -40.33848,3.4166 -59.7291,-2.40059 -24.95215,-7.48398 -51.65742,-6.66387 -76.09824,2.34082 L 98.172599,444.7 H 393.48451 l -21.71484,-10.1336 c -23.72363,-11.0666 -50.40898,-14.0914 -76.00859,-8.61289 z m 0,0"
     id="path24"
     inkscape:connector-curvature="0"
     style="fill:#4799cf;stroke-width:0.85000002" />
  <path
     d="m 253.59975,57.099996 -6.8,-6.8 c 21.32969,34.122852 24.80937,76.466794 9.33008,113.614454 -6.15918,14.77539 -9.33008,30.62656 -9.33008,46.63379 V 233.9 l 13.6,-20.4 20.4,6.8 V 116.75605 c 0.003,-12.26191 -3.82832,-24.221679 -10.96035,-34.195898 z m 0,0"
     id="path26"
     inkscape:connector-curvature="0"
     style="fill:#e0e0e0;stroke-width:0.85000002" />
  <path
     d="M 254.90463,50.299996 C 276.04174,81.102535 280.79975,118.3 283.17377,155.47421 L 280.79975,186.3 v 68 l 34,13.6 -5.0502,-111.18731 C 308.61401,131.72402 299.73217,107.7082 284.33588,87.992184 Z m 0,0"
     id="path28"
     inkscape:connector-curvature="0"
     style="fill:#eaeae8;stroke-width:0.85000002" />
  <path
     d="m 254.90463,50.299996 h -8.10488 l 5.82051,4.366211 c 31.28398,23.461328 52.81953,57.633983 60.48613,95.980273 l 1.69336,8.45352 h 20.4 L 320.87924,101.81132 C 313.31225,71.536715 286.11225,50.299996 254.90463,50.299996 Z m 0,0"
     id="path30"
     inkscape:connector-curvature="0"
     style="fill:#e0e0e0;stroke-width:0.85000002" />
  <path
     d="m 42.799748,213.5 c -2.300976,0 -4.445899,-1.16543 -5.700976,-3.09454 -1.255079,-1.9291 -1.447656,-4.36289 -0.514649,-6.46464 l 2.347461,-5.2793 C 55.157951,162.21445 91.306193,138.72324 131.19975,138.7 c 3.75527,0 6.8,3.04472 6.8,6.8 0,3.75527 -3.04473,6.8 -6.8,6.8 -34.524612,0.0166 -65.805276,20.34687 -79.836916,51.88984 l -2.347461,5.27266 c -1.092382,2.45371 -3.526172,4.0375 -6.215625,4.0375 z m 0,0"
     id="path32"
     inkscape:connector-curvature="0"
     style="fill:#6cbae5;stroke-width:0.85000002" />
  <path
     d="m 72.264201,220.3 c -2.300977,-0.003 -4.442578,-1.16875 -5.697656,-3.09786 -1.251758,-1.9291 -1.444336,-4.35957 -0.511328,-6.46132 11.325586,-25.44356 35.726563,-42.59629 63.500973,-44.64493 0.53789,-0.12949 1.08907,-0.19589 1.64356,-0.19589 h 3.84824 c 3.75859,0 6.8,3.04472 6.8,6.8 0,3.75527 -3.04141,6.8 -6.8,6.8 -24.45742,0.0133 -46.620507,14.41679 -56.568164,36.7625 -1.092383,2.45371 -3.526172,4.0375 -6.215625,4.0375 z m 0,0"
     id="path34"
     inkscape:connector-curvature="0"
     style="fill:#6cbae5;stroke-width:0.85000002" />
  <path
     d="m 217.62748,109.52773 c 1.28164,-1.27832 1.99219,-3.01816 1.97227,-4.82773 -0.01,-0.43496 -0.0565,-0.8666 -0.13613,-1.2916 -0.0631,-0.45157 -0.19922,-0.88653 -0.4084,-1.29161 -0.14942,-0.43496 -0.35528,-0.85 -0.61094,-1.23183 -0.25234,-0.35196 -0.52461,-0.69063 -0.8168,-1.012699 -0.64746,-0.614257 -1.41113,-1.099022 -2.24121,-1.427734 -2.53672,-1.032617 -5.44199,-0.474804 -7.41426,1.427734 -0.28886,0.322069 -0.56113,0.660739 -0.81679,1.012699 -0.25567,0.38183 -0.46153,0.79687 -0.61094,1.23183 -0.20586,0.40508 -0.34531,0.84004 -0.4084,1.29161 -0.0797,0.425 -0.12285,0.85664 -0.13613,1.2916 -0.0166,1.80957 0.69394,3.54941 1.97226,4.82773 0.66075,0.60098 1.4211,1.08242 2.24454,1.42773 1.64687,0.72715 3.52285,0.72715 5.16972,0 0.82344,-0.34531 1.58047,-0.82675 2.24121,-1.42773 z m 0,0"
     id="path36"
     inkscape:connector-curvature="0"
     style="stroke-width:0.85000002" />
  <path
     d="m 280.79975,356.3 c 3.75527,0 6.8,-3.04473 6.8,-6.8 v -6.8 c 0,-3.75528 -3.04473,-6.8 -6.8,-6.8 -3.75528,0 -6.8,3.04472 -6.8,6.8 v 6.8 c 0,3.75527 3.04472,6.8 6.8,6.8 z m 0,0"
     id="path38"
     inkscape:connector-curvature="0"
     style="stroke-width:0.85000002" />
  <path
     d="m 287.59975,376.7 c 0,3.75527 3.04472,6.8 6.8,6.8 3.75527,0 6.8,-3.04473 6.8,-6.8 v -6.8 c 0,-3.75528 -3.04473,-6.8 -6.8,-6.8 -3.75528,0 -6.8,3.04472 -6.8,6.8 z m 0,0"
     id="path40"
     inkscape:connector-curvature="0"
     style="stroke-width:0.85000002" />
  <path
     d="m 267.19975,390.3 c 3.75527,0 6.8,-3.04473 6.8,-6.8 v -6.8 c 0,-3.75528 -3.04473,-6.8 -6.8,-6.8 -3.75528,0 -6.8,3.04472 -6.8,6.8 v 6.8 c 0,3.75527 3.04472,6.8 6.8,6.8 z m 0,0"
     id="path42"
     inkscape:connector-curvature="0"
     style="stroke-width:0.85000002" />
  <path
     d="M 42.799748,451.5 H 437.19975 c 3.1875,0 5.94668,-2.21465 6.6373,-5.32579 0.69063,-3.11113 -0.87324,-6.28535 -3.75859,-7.63339 l -65.43672,-30.56016 c -16.32598,-7.56699 -34.06973,-11.58789 -52.0625,-11.80703 3.8416,-8.08164 5.83047,-16.91699 5.82051,-25.86524 v -87.40722 l 10.84082,4.81445 c 2.34414,1.04258 5.08008,0.67402 7.06562,-0.95293 1.98555,-1.62695 2.88868,-4.2334 2.33086,-6.73691 L 323.27983,165.9 h 11.91992 c 2.09512,0 4.0707,-0.96621 5.35898,-2.61309 1.28828,-1.6502 1.74317,-3.80176 1.23848,-5.83379 L 327.4767,100.15781 C 319.18256,66.838473 289.2433,43.463473 254.90463,43.499996 h -8.10488 c -23.31856,0.06641 -45.28906,10.953711 -59.46348,29.471094 l -0.0963,0.116211 c -0.0897,0.11621 -0.19258,0.20918 -0.2789,0.32539 -0.4084,0.567774 -0.73379,1.188673 -0.95957,1.849415 0,0 -0.0399,0.06309 -0.0531,0.102929 l -0.34863,0.992774 c -2.92188,8.788867 -11.13633,14.725586 -20.4,14.742187 -11.24258,0.05644 -20.34356,9.157424 -20.4,20.400004 v 5.64453 c 0.0232,6.90293 2.76582,13.51699 7.63672,18.40781 l 14.75547,14.75547 c 1.275,1.275 3.00488,1.99219 4.80781,1.99219 h 30.6 c 1.8793,0 3.4,1.5207 3.4,3.4 0,1.87929 -1.5207,3.4 -3.4,3.4 h -17 c -11.26582,0 -20.4,9.13418 -20.4,20.4 0,1.80293 0.71719,3.53281 1.99219,4.80781 l 19.38066,19.38066 c -5.33242,15.63867 -8.14805,32.02774 -8.3373,48.54961 -12.98243,-7.52383 -27.71797,-11.50156 -42.72247,-11.53808 -2.51347,0 -4.82109,1.38125 -6.00312,3.59921 -1.18203,2.21465 -1.04922,4.90079 0.35195,6.98926 l 48.93809,73.0502 V 369.9 c 0.007,9.48945 2.22793,18.84941 6.48789,27.32949 -18.08574,-1.36133 -36.25449,1.14219 -53.29766,7.35117 l -91.541013,33.74102 c -3.091211,1.14218 -4.917383,4.333 -4.339649,7.57363 0.581055,3.24062 3.4,5.60137 6.69043,5.60469 z m 289.640822,-181.69746 -10.97031,-4.86758 -2.53672,-55.9041 z M 314.27846,103.44824 326.49057,152.3 H 316.19428 C 314.3183,127.35117 305.08783,103.51797 289.67494,83.81191 L 270.39057,59.078902 c 21.64844,5.641212 38.48242,22.661133 43.88789,44.369338 z M 236.59975,369.9 c 9.41972,0.0398 17.96621,-5.49844 21.77793,-14.11465 3.8084,-8.61289 2.15488,-18.66348 -4.21348,-25.60293 l 28.50488,-8.16133 c 2.00879,-0.57441 3.64239,-2.04199 4.4293,-3.97441 0.78692,-1.93575 0.64082,-4.12715 -0.39512,-5.94004 l -0.85,-1.4875 c -6.85644,-11.98965 -18.25175,-20.70879 -31.61601,-24.1918 -13.36094,-3.47969 -27.56192,-1.43105 -39.39551,5.6877 l -5.89687,-9.82481 c -2.62637,-4.2666 -5.62461,-8.29414 -8.96153,-12.02949 l 48.95801,-16.32266 c 2.77578,-0.91972 4.65176,-3.51289 4.6584,-6.43808 v -22.99649 l 7.32461,-3.65898 13.07539,4.35957 V 254.3 c 0.003,0.6707 0.10293,1.33808 0.29883,1.9789 0.0697,0.22578 0.20586,0.41504 0.29218,0.63086 0.1461,0.39844 0.33204,0.78028 0.55118,1.14551 0.16601,0.2125 0.34531,0.41504 0.53125,0.61094 0.23574,0.30215 0.49472,0.58437 0.77695,0.84336 0.23242,0.16601 0.47812,0.32207 0.73379,0.46152 0.26894,0.20254 0.55781,0.38516 0.85664,0.54453 l 36.75918,16.33926 v 93.45351 c 0,9.55918 -2.96504,18.88262 -8.48672,26.68868 -4.01758,0.46484 -8.02852,1.05586 -11.99297,1.9125 l -25.56973,5.43867 c -18.67675,3.98105 -38.0541,3.20078 -56.35234,-2.26445 -3.11445,-0.92969 -6.26875,-1.72657 -9.43633,-2.41387 C 196.15502,391.23964 192.42963,380.7375 192.39975,369.9 v -40.8 h 5.19629 c 6.75019,-0.0266 12.92597,3.78847 15.91758,9.83808 0.0963,0.19258 0.2457,0.32871 0.35527,0.50469 -0.67402,2.15488 -1.03594,4.39941 -1.06914,6.65723 0,13.14511 10.65488,23.8 23.8,23.8 z m -10.2,-23.8 c 0.0133,-3.09454 1.43437,-6.01309 3.86484,-7.92891 l 3.86153,-1.93242 c 0.80683,-0.21582 1.63691,-0.32871 2.47363,-0.33867 5.63457,0 10.2,4.56543 10.2,10.2 0,5.63457 -4.56543,10.2 -10.2,10.2 -5.63125,0 -10.2,-4.56543 -10.2,-10.2 z m 61.2,-125.85977 v -33.41562 l 2.37402,-30.82579 c 1.40781,-18.49746 -0.21582,-37.10449 -4.80117,-55.08066 10.79102,16.81074 16.93359,36.17813 17.80352,56.13652 l 4.57539,100.63868 -19.95176,-7.99532 z M 271.87143,104.12226 c 4.27324,16.58164 5.80058,33.7543 4.52226,50.83067 L 273.99975,186.3 v 24.56699 l -11.45176,-3.81172 c -1.70664,-0.58438 -3.57598,-0.45488 -5.18633,0.35859 l -3.69883,1.84942 c 0.13282,-14.67246 3.09786,-29.18223 8.73575,-42.73242 8.19785,-19.71934 11.45175,-41.14532 9.47285,-62.4086 z M 242.99135,57.262691 c 6.71699,11.58457 11.40195,24.234961 13.8457,37.4 -6.50781,-14.55293 -20.95117,-23.936132 -36.89531,-23.962695 H 208.38041 C 218.26166,62.76777 230.3476,58.076169 242.99135,57.262691 Z M 202.59975,138.7 h -27.78438 l -12.76328,-12.76329 c -2.32754,-2.3375 -3.63906,-5.49511 -3.65234,-8.79218 V 111.5 c -0.003,-1.83282 0.75039,-3.58926 2.08183,-4.84766 1.24512,-1.26172 2.94844,-1.96562 4.71817,-1.95234 13.66308,-0.0266 26.06113,-7.988676 31.77207,-20.400004 h 22.96992 c 14.8252,0.01992 26.84141,12.032813 26.85801,26.861324 0.0432,7.00254 -2.68945,13.73614 -7.59356,18.73321 l -8.98476,8.04511 c -4.12715,3.70547 -8.0584,7.62344 -11.77715,11.74395 -2.49356,-6.59082 -8.79551,-10.96035 -15.84453,-10.98359 z m 36.71933,9.36992 9.26368,-8.30078 c 4.66171,-4.64844 8.11484,-10.36934 10.05058,-16.66133 -0.75039,13.13183 -3.70879,26.04121 -8.75234,38.19023 -6.53106,15.59551 -9.89121,32.33985 -9.88125,49.2502 v 32.04765 l -48.15117,16.05704 c -1.36133,-42.07832 16.02714,-82.58946 47.4705,-110.58301 z m -60.06445,29.04277 c 0.99277,-2.64629 3.51953,-4.40273 6.34512,-4.41269 h 15.5789 c -3.4,5.54824 -6.44804,11.30566 -9.12421,17.23906 z m -30.12187,78.49883 c 20.09121,3.92793 37.58593,16.15996 48.17109,33.68125 l 9.66875,16.11016 c 1.02266,1.7 2.73594,2.86875 4.6916,3.20078 1.95567,0.31875 3.95449,-0.21914 5.48848,-1.47422 15.84121,-13.19824 39.34238,-11.23594 52.77637,4.40605 l -38.59864,11.02344 c -0.40176,0.11953 -0.79355,0.27227 -1.16875,0.45488 l -1.49082,0.74707 c -1.9789,0.68067 -3.8582,1.62032 -5.58808,2.79571 l -1.09571,0.54453 c -5.95,-7.36446 -14.92148,-11.63106 -24.39101,-11.60117 h -8.36387 z m -12.43789,161.7457 c 23.06953,-8.45019 48.25078,-9.22383 71.79511,-2.21133 20.48965,6.13594 42.19453,7.00586 63.10918,2.53008 l 25.56973,-5.47187 c 24.16191,-5.11992 49.32988,-2.25449 71.72539,8.15801 L 406.54662,437.9 H 80.920256 Z m 0,0"
     id="path44"
     inkscape:connector-curvature="0"
     style="stroke-width:0.85000002" />
  <path
     d="m 131.19975,138.7 c -39.893557,0.0232 -76.041799,23.51445 -92.268166,59.96152 l -2.347461,5.2793 c -1.524024,3.42988 0.02324,7.45078 3.456445,8.9748 3.433204,1.52402 7.450781,-0.0232 8.974805,-3.45312 l 2.347461,-5.27266 C 65.394474,172.64687 96.675138,152.3166 131.19975,152.3 c 3.75527,0 6.8,-3.04473 6.8,-6.8 0,-3.75528 -3.04473,-6.8 -6.8,-6.8 z m 0,0"
     id="path46"
     inkscape:connector-curvature="0"
     style="stroke-width:0.85000002" />
  <path
     d="m 131.19975,165.9 c -0.55449,0 -1.10567,0.0664 -1.64356,0.19589 -27.77441,2.04864 -52.175387,19.20137 -63.500973,44.64493 -1.0625,2.23125 -0.830079,4.86425 0.607617,6.87304 1.437695,2.01211 3.851563,3.08457 6.308594,2.80567 2.45371,-0.28223 4.56543,-1.87598 5.508398,-4.15703 9.947657,-22.34571 32.110744,-36.74922 56.568164,-36.7625 3.75859,0 6.8,-3.04473 6.8,-6.8 0,-3.75528 -3.04141,-6.8 -6.8,-6.8 z m 0,0"
     id="path48"
     inkscape:connector-curvature="0"
     style="stroke-width:0.85000002" />
</svg>
