<?xml version="1.0" encoding="UTF-8" standalone="no"?>
<!-- Generator: Adobe Illustrator 19.0.0, SVG Export Plug-In . SVG Version: 6.00 Build 0)  -->

<svg
   xmlns:dc="http://purl.org/dc/elements/1.1/"
   xmlns:cc="http://creativecommons.org/ns#"
   xmlns:rdf="http://www.w3.org/1999/02/22-rdf-syntax-ns#"
   xmlns:svg="http://www.w3.org/2000/svg"
   xmlns="http://www.w3.org/2000/svg"
   xmlns:sodipodi="http://sodipodi.sourceforge.net/DTD/sodipodi-0.dtd"
   xmlns:inkscape="http://www.inkscape.org/namespaces/inkscape"
   version="1.1"
   id="Layer_1"
   x="0px"
   y="0px"
   viewBox="0 0 496 496"
   style="enable-background:new 0 0 496 496;"
   xml:space="preserve"
   sodipodi:docname="singapore_marinabaysands.svg"
   inkscape:version="0.92.4 (5da689c313, 2019-01-14)"><metadata
   id="metadata69"><rdf:RDF><cc:Work
       rdf:about=""><dc:format>image/svg+xml</dc:format><dc:type
         rdf:resource="http://purl.org/dc/dcmitype/StillImage" /></cc:Work></rdf:RDF></metadata><defs
   id="defs67" /><sodipodi:namedview
   pagecolor="#ffffff"
   bordercolor="#666666"
   borderopacity="1"
   objecttolerance="10"
   gridtolerance="10"
   guidetolerance="10"
   inkscape:pageopacity="0"
   inkscape:pageshadow="2"
   inkscape:window-width="1920"
   inkscape:window-height="986"
   id="namedview65"
   showgrid="false"
   inkscape:zoom="1.3457839"
   inkscape:cx="273.33877"
   inkscape:cy="206.19005"
   inkscape:window-x="-11"
   inkscape:window-y="-11"
   inkscape:window-maximized="1"
   inkscape:current-layer="Layer_1" />
<path
   style="fill:#afdde9;stroke:none;stroke-width:2.15933371"
   d="m 373.13985,425.36426 c -7.48099,-39.44727 -8.28848,-53.626 -9.28462,-163.0297 l -1.01747,-111.74554 h 44.33931 44.33931 l 0.81519,129.02021 c 0.83777,132.59448 0.87662,133.26226 9.35906,160.87037 1.07885,3.51139 -1.88691,3.77883 -41.90328,3.77883 h -43.06431 z m 63.50877,-135.4982 v -9.71701 h -8.63733 -8.63733 v 9.71701 9.71699 h 8.63733 8.63733 z m 0,-32.39001 v -9.71699 h -8.63733 -8.63733 v 9.71699 9.71701 h 8.63733 8.63733 z m 0,-33.46967 v -8.63734 h -8.63733 -8.63733 v 8.63734 8.63733 h 8.63733 8.63733 z m -32.38999,-32.39001 v -8.63733 h -9.71701 -9.71701 v 8.63733 8.63734 h 9.71701 9.71701 z m 32.38999,0 v -8.63733 h -8.63733 -8.63733 v 8.63733 8.63734 h 8.63733 8.63733 z"
   id="path876-6"
   inkscape:connector-curvature="0" /><path
   style="fill:#afdde9;stroke:none;stroke-width:2.15933371"
   d="m 236.68314,424.86275 c -7.48099,-39.44727 -8.28848,-53.626 -9.28462,-163.0297 l -1.01747,-111.74554 h 44.33931 44.33931 l 0.81519,129.02021 c 0.83777,132.59448 0.87662,133.26226 9.35906,160.87037 1.07885,3.51139 -1.88691,3.77883 -41.90328,3.77883 h -43.06431 z m 63.50877,-135.4982 v -9.71701 h -8.63733 -8.63733 v 9.71701 9.71699 h 8.63733 8.63733 z m 0,-32.39001 v -9.71699 h -8.63733 -8.63733 v 9.71699 9.71701 h 8.63733 8.63733 z m 0,-33.46967 v -8.63734 h -8.63733 -8.63733 v 8.63734 8.63733 h 8.63733 8.63733 z m -32.38999,-32.39001 v -8.63733 h -9.71701 -9.71701 v 8.63733 8.63734 h 9.71701 9.71701 z m 32.38999,0 v -8.63733 h -8.63733 -8.63733 v 8.63733 8.63734 h 8.63733 8.63733 z"
   id="path876-6-1"
   inkscape:connector-curvature="0" /><path
   style="fill:#afdde9;stroke:none;stroke-width:2.15933371"
   d="m 92.85514,424.56376 c -7.48099,-39.44727 -8.28848,-53.626 -9.28462,-163.0297 L 82.55305,149.78852 h 44.33931 44.33931 l 0.81519,129.02021 c 0.83777,132.59448 0.87662,133.26226 9.35906,160.87037 1.07885,3.51139 -1.88691,3.77883 -41.90328,3.77883 H 96.43833 Z m 63.50877,-135.4982 v -9.71701 h -8.63733 -8.63733 v 9.71701 9.71699 h 8.63733 8.63733 z m 0,-32.39001 v -9.71699 h -8.63733 -8.63733 v 9.71699 9.71701 h 8.63733 8.63733 z m 0,-33.46967 v -8.63734 h -8.63733 -8.63733 v 8.63734 8.63733 h 8.63733 8.63733 z m -32.38999,-32.39001 v -8.63733 h -9.71701 -9.71701 v 8.63733 8.63734 h 9.71701 9.71701 z m 32.38999,0 v -8.63733 h -8.63733 -8.63733 v 8.63733 8.63734 h 8.63733 8.63733 z"
   id="path876-6-1-0"
   inkscape:connector-curvature="0" /><path
   style="fill:#F9BA48;"
   d="M488,80H8c0,0,0,64,80,64h368C456,144,488,144,488,80z"
   id="path2" />
<g
   id="g32">
	<path
   style="fill:#333333;"
   d="M496,80v-8h-48V40h-64v32H232V40h-16v32h-24V48h-16v24h-16V40H96v32H56V48H40v24H0v8   c0,0.672,0.904,62.944,72,71.104V304c0,2.376,0.048,4.584,0.072,6.904c-1.064,5.64-15.296,80.256-35.688,112.224l-30.68,9.2L8,440   H0v16h496v-16h-10.856C472.224,410.2,472,368.44,472,368V146.312C483.144,138.776,496,121.216,496,80z M400,56h32v16h-32V56z    M112,56h32v16h-32V56z M16.952,88H96h64h224h64h31.824c-2.168,46.336-23.064,47.952-23.824,48H88   C33.032,136,20.032,103.52,16.952,88z M216,152v135.176c-3.304,16.256-12.296,52.24-24,77.448V152H216z M217.024,344.592   c0.64,12.84,1.528,24.616,2.6,35.096l-21.6,7.2C205.448,375.344,211.856,359.872,217.024,344.592z M221.528,395.92   c2.672,20.4,5.752,35.136,7.968,44.08h-24.352c-4.8-11.064-7.84-23.72-9.768-35.36L221.528,395.92z M232,304V152h88v216   c0,1.816,0.184,40.112,11.912,72H246.04C242.088,425.048,232,379.416,232,304z M360.44,331.792   c0.224,7.504,0.512,14.672,0.888,21.384l-12.504,2.504C353.176,348.44,357.072,340.184,360.44,331.792z M336.2,374.52l26.192-5.24   c2.84,36,7.568,58.632,10.792,70.72h-24.04C339.248,417.176,336.8,387.448,336.2,374.52z M360,279.072   c-3.344,14.76-12.416,47-24,67.16V152h24V279.072z M176,152v216c0,1.816,0.184,40.112,11.912,72H102.04   C98.088,425.048,88,379.416,88,304V152H176z M74.68,369.504c1.368,15.92,3.104,29.456,4.896,40.664l-21.656,6.504   C64.464,402.512,70.112,385.56,74.68,369.504z M82.408,426.032c1.112,5.584,2.168,10.304,3.08,13.968H35.84L82.408,426.032z    M467.912,440h-78.104C385.848,426.504,376,384.824,376,304V152h80v216C456,369.816,456.184,408.112,467.912,440z"
   id="path4" />
	<rect
   x="256"
   y="184"
   style="fill:#333333;"
   width="16"
   height="16"
   id="rect6" />
	<rect
   x="288"
   y="216"
   style="fill:#333333;"
   width="16"
   height="16"
   id="rect8" />
	<rect
   x="288"
   y="248"
   style="fill:#333333;"
   width="16"
   height="16"
   id="rect10" />
	<rect
   x="288"
   y="184"
   style="fill:#333333;"
   width="16"
   height="16"
   id="rect12" />
	<rect
   x="392"
   y="184"
   style="fill:#333333;"
   width="16"
   height="16"
   id="rect14" />
	<rect
   x="424"
   y="216"
   style="fill:#333333;"
   width="16"
   height="16"
   id="rect16" />
	<rect
   x="424"
   y="248"
   style="fill:#333333;"
   width="16"
   height="16"
   id="rect18" />
	<rect
   x="424"
   y="184"
   style="fill:#333333;"
   width="16"
   height="16"
   id="rect20" />
	<rect
   x="112"
   y="184"
   style="fill:#333333;"
   width="16"
   height="16"
   id="rect22" />
	<rect
   x="144"
   y="216"
   style="fill:#333333;"
   width="16"
   height="16"
   id="rect24" />
	<rect
   x="144"
   y="248"
   style="fill:#333333;"
   width="16"
   height="16"
   id="rect26" />
	<rect
   x="144"
   y="280"
   style="fill:#333333;"
   width="16"
   height="16"
   id="rect28" />
	<rect
   x="144"
   y="184"
   style="fill:#333333;"
   width="16"
   height="16"
   id="rect30" />
</g>
<g
   id="g34">
</g>
<g
   id="g36">
</g>
<g
   id="g38">
</g>
<g
   id="g40">
</g>
<g
   id="g42">
</g>
<g
   id="g44">
</g>
<g
   id="g46">
</g>
<g
   id="g48">
</g>
<g
   id="g50">
</g>
<g
   id="g52">
</g>
<g
   id="g54">
</g>
<g
   id="g56">
</g>
<g
   id="g58">
</g>
<g
   id="g60">
</g>
<g
   id="g62">
</g>
</svg>