<?xml version="1.0" encoding="UTF-8" standalone="no"?>
<!-- Generator: Adobe Illustrator 19.0.0, SVG Export Plug-In . SVG Version: 6.00 Build 0)  -->

<svg
   xmlns:dc="http://purl.org/dc/elements/1.1/"
   xmlns:cc="http://creativecommons.org/ns#"
   xmlns:rdf="http://www.w3.org/1999/02/22-rdf-syntax-ns#"
   xmlns:svg="http://www.w3.org/2000/svg"
   xmlns="http://www.w3.org/2000/svg"
   xmlns:sodipodi="http://sodipodi.sourceforge.net/DTD/sodipodi-0.dtd"
   xmlns:inkscape="http://www.inkscape.org/namespaces/inkscape"
   version="1.1"
   id="Layer_1"
   x="0px"
   y="0px"
   viewBox="0 0 512.001 512.001"
   style="enable-background:new 0 0 512.001 512.001;"
   xml:space="preserve"
   sodipodi:docname="spain_flag.svg"
   inkscape:version="0.92.4 (5da689c313, 2019-01-14)"><metadata
   id="metadata131"><rdf:RDF><cc:Work
       rdf:about=""><dc:format>image/svg+xml</dc:format><dc:type
         rdf:resource="http://purl.org/dc/dcmitype/StillImage" /></cc:Work></rdf:RDF></metadata><defs
   id="defs129" /><sodipodi:namedview
   pagecolor="#ffffff"
   bordercolor="#666666"
   borderopacity="1"
   objecttolerance="10"
   gridtolerance="10"
   guidetolerance="10"
   inkscape:pageopacity="0"
   inkscape:pageshadow="2"
   inkscape:window-width="1920"
   inkscape:window-height="986"
   id="namedview127"
   showgrid="false"
   inkscape:zoom="1.8437465"
   inkscape:cx="91.670745"
   inkscape:cy="265.29426"
   inkscape:window-x="-11"
   inkscape:window-y="-11"
   inkscape:window-maximized="1"
   inkscape:current-layer="Layer_1" />
<path
   style="fill:#c8414b;stroke-width:0.95999998"
   d="m 18.7149,417.01602 h 474.5712 c 4.68,0 8.47488,-3.79488 8.47488,-8.47488 V 103.45986 c 0,-4.68 -3.79488,-8.47488 -8.47488,-8.47488 H 18.7149 c -4.68,9.6e-4 -8.47488,3.79488 -8.47488,8.47488 v 305.08128 c 0,4.68096 3.79488,8.47488 8.47488,8.47488 z"
   id="path2"
   inkscape:connector-curvature="0" />
<rect
   y="162.78499"
   style="fill:#ffd250;stroke-width:0.95999998"
   width="491.51999"
   height="186.4416"
   id="rect4"
   x="10.24002" />
<path
   style="fill:#c8414b;stroke-width:0.95999998"
   d="m 217.86498,256.00098 7.1856,-32.33376 c 0.6624,-2.97792 -1.60416,-5.80224 -4.65504,-5.80224 h -5.06112 c -3.04992,0 -5.31552,2.82432 -4.65504,5.80224 z"
   id="path6"
   inkscape:connector-curvature="0" />
<rect
   x="209.39201"
   y="239.04738"
   style="fill:#f5f5f5;stroke-width:0.95999998"
   width="16.948801"
   height="72.028801"
   id="rect8" />
<rect
   x="205.14882"
   y="230.58017"
   style="fill:#fab446;stroke-width:0.95999998"
   width="25.423679"
   height="8.4748802"
   id="rect10" />
<g
   id="g18"
   transform="matrix(0.96,0,0,0.96,10.24002,10.24002)">
	<rect
   x="185.38"
   y="256.00101"
   style="fill:#c8414b"
   width="44.139999"
   height="8.8280001"
   id="rect12" />
	<polygon
   style="fill:#c8414b"
   points="203.034,282.484 203.034,273.656 229.517,282.484 229.517,291.311 "
   id="polygon14" />
	<path
   style="fill:#c8414b"
   d="m 83.862,256.001 7.485,-33.681 c 0.69,-3.102 -1.671,-6.044 -4.849,-6.044 h -5.272 c -3.177,0 -5.537,2.942 -4.849,6.044 z"
   id="path16"
   inkscape:connector-curvature="0" />
</g>
<path
   style="fill:#f5f5f5;stroke-width:0.95999998"
   d="m 120.40866,230.5773 c -4.68,0 -8.47488,3.79488 -8.47488,8.47488 v 55.08384 c 0,10.296 9.6096,29.66112 42.37248,29.66112 32.76288,0 42.37248,-19.36416 42.37248,-29.66112 v -55.08384 c 0,-4.68 -3.79488,-8.47488 -8.47488,-8.47488 z"
   id="path20"
   inkscape:connector-curvature="0" />
<g
   id="g26"
   transform="matrix(0.96,0,0,0.96,10.24002,10.24002)">
	<path
   style="fill:#c8414b"
   d="m 150.069,273.656 h -44.138 v -35.31 c 0,-4.875 3.953,-8.828 8.828,-8.828 h 35.31 z"
   id="path22"
   inkscape:connector-curvature="0" />
	<path
   style="fill:#c8414b"
   d="m 150.069,273.656 h 44.138 v 22.069 c 0,12.189 -9.88,22.069 -22.069,22.069 v 0 c -12.189,0 -22.069,-9.88 -22.069,-22.069 v -22.069 z"
   id="path24"
   inkscape:connector-curvature="0" />
</g>
<path
   style="fill:#fab446;stroke-width:0.95999998"
   d="m 111.93378,272.94978 h 42.37248 v 21.18624 c 0,11.70144 -9.4848,21.18624 -21.18624,21.18624 v 0 c -11.70144,0 -21.18624,-9.4848 -21.18624,-21.18624 z"
   id="path28"
   inkscape:connector-curvature="0" />
<g
   id="g34"
   transform="matrix(0.96,0,0,0.96,10.24002,10.24002)">
	<path
   style="fill:#c8414b"
   d="m 141.241,313.281 v -39.625 h -8.828 v 43.693 c 3.284,-0.666 6.251,-2.12 8.828,-4.068 z"
   id="path30"
   inkscape:connector-curvature="0" />
	<path
   style="fill:#c8414b"
   d="m 123.586,317.349 v -43.693 h -8.828 v 39.625 c 2.578,1.948 5.545,3.402 8.828,4.068 z"
   id="path32"
   inkscape:connector-curvature="0" />
</g>
<rect
   x="120.40962"
   y="256.00098"
   style="fill:#ffb441;stroke-width:0.95999998"
   width="25.423679"
   height="8.4748802"
   id="rect36" />
<g
   id="g42"
   transform="matrix(0.96,0,0,0.96,10.24002,10.24002)">
	<rect
   x="114.76"
   y="238.341"
   style="fill:#fab446"
   width="26.483"
   height="8.8280001"
   id="rect38" />
	<rect
   x="119.17"
   y="243.591"
   style="fill:#fab446"
   width="17.655001"
   height="15.992"
   id="rect40" />
</g>
<rect
   x="82.268822"
   y="239.04738"
   style="fill:#f5f5f5;stroke-width:0.95999998"
   width="16.948801"
   height="72.028801"
   id="rect44" />
<g
   id="g50"
   transform="matrix(0.96,0,0,0.96,10.24002,10.24002)">
	<rect
   x="70.620003"
   y="308.97101"
   style="fill:#fab446"
   width="26.483"
   height="8.8280001"
   id="rect46" />
	<rect
   x="70.620003"
   y="229.521"
   style="fill:#fab446"
   width="26.483"
   height="8.8280001"
   id="rect48" />
</g>
<rect
   x="73.80162"
   y="315.31937"
   style="fill:#5064aa;stroke-width:0.95999998"
   width="33.897602"
   height="8.4748802"
   id="rect52" />
<rect
   x="209.39201"
   y="306.85217"
   style="fill:#fab446;stroke-width:0.95999998"
   width="25.423679"
   height="8.4748802"
   id="rect54" />
<rect
   x="200.91522"
   y="315.31937"
   style="fill:#5064aa;stroke-width:0.95999998"
   width="33.897602"
   height="8.4748802"
   id="rect56" />
<rect
   x="128.88641"
   y="222.10338"
   style="fill:#fab446;stroke-width:0.95999998"
   width="50.847359"
   height="8.4748802"
   id="rect58" />
<rect
   x="150.07362"
   y="196.68257"
   style="fill:#ffb441;stroke-width:0.95999998"
   width="8.4748802"
   height="25.423679"
   id="rect60" />
<g
   id="g70"
   transform="matrix(0.96,0,0,0.96,10.24002,10.24002)">
	<path
   style="fill:#f5f5f5"
   d="m 141.241,207.449 c -7.302,0 -13.241,-5.94 -13.241,-13.241 0,-7.302 5.94,-13.241 13.241,-13.241 7.302,0 13.241,5.94 13.241,13.241 0.001,7.301 -5.939,13.241 -13.241,13.241 z m 0,-17.655 c -2.435,0 -4.414,1.978 -4.414,4.414 0,2.435 1.978,4.414 4.414,4.414 2.436,0 4.414,-1.978 4.414,-4.414 0,-2.435 -1.978,-4.414 -4.414,-4.414 z"
   id="path62"
   inkscape:connector-curvature="0" />
	<path
   style="fill:#f5f5f5"
   d="m 158.897,207.449 c -7.302,0 -13.241,-5.94 -13.241,-13.241 0,-7.302 5.94,-13.241 13.241,-13.241 7.302,0 13.241,5.94 13.241,13.241 0,7.301 -5.94,13.241 -13.241,13.241 z m 0,-17.655 c -2.435,0 -4.414,1.978 -4.414,4.414 0,2.435 1.978,4.414 4.414,4.414 2.435,0 4.414,-1.978 4.414,-4.414 -0.001,-2.435 -1.979,-4.414 -4.414,-4.414 z"
   id="path64"
   inkscape:connector-curvature="0" />
	<path
   style="fill:#f5f5f5"
   d="m 176.552,216.277 c -7.302,0 -13.241,-5.94 -13.241,-13.241 0,-7.302 5.94,-13.241 13.241,-13.241 7.302,0 13.241,5.94 13.241,13.241 0,7.301 -5.94,13.241 -13.241,13.241 z m 0,-17.655 c -2.435,0 -4.414,1.978 -4.414,4.414 0,2.435 1.978,4.414 4.414,4.414 2.435,0 4.414,-1.978 4.414,-4.414 0,-2.436 -1.979,-4.414 -4.414,-4.414 z"
   id="path66"
   inkscape:connector-curvature="0" />
	<path
   style="fill:#f5f5f5"
   d="m 123.586,216.277 c -7.302,0 -13.241,-5.94 -13.241,-13.241 0,-7.302 5.94,-13.241 13.241,-13.241 7.302,0 13.241,5.94 13.241,13.241 0.001,7.301 -5.939,13.241 -13.241,13.241 z m 0,-17.655 c -2.435,0 -4.414,1.978 -4.414,4.414 0,2.435 1.978,4.414 4.414,4.414 2.436,0 4.414,-1.979 4.414,-4.415 0,-2.435 -1.978,-4.413 -4.414,-4.413 z"
   id="path68"
   inkscape:connector-curvature="0" />
</g>
<path
   style="fill:#fab446;stroke-width:0.95999998"
   d="m 179.72994,289.89858 v 4.23744 c 0,2.33664 -1.9008,4.23744 -4.23744,4.23744 -2.33664,0 -4.23744,-1.9008 -4.23744,-4.23744 v -4.23744 h 8.47488 m 8.47392,-8.47392 h -25.42368 v 12.71136 c 0,7.00992 5.7024,12.71136 12.71136,12.71136 7.00992,0 12.71136,-5.7024 12.71136,-12.71136 v -12.71136 z"
   id="path72"
   inkscape:connector-curvature="0" />
<path
   style="fill:#ffa0d2;stroke-width:0.95999998"
   d="m 175.4925,264.47586 v 0 c -4.68,0 -8.47488,-3.79488 -8.47488,-8.47488 v -8.47488 c 0,-4.68 3.79488,-8.47488 8.47488,-8.47488 v 0 c 4.68,0 8.47488,3.79488 8.47488,8.47488 v 8.47488 c 0,4.68 -3.79488,8.47488 -8.47488,8.47488 z"
   id="path74"
   inkscape:connector-curvature="0" />
<circle
   style="fill:#5064aa;stroke-width:0.95999998"
   cx="154.30722"
   cy="272.94498"
   r="12.71136"
   id="circle76" />
<rect
   x="150.07362"
   y="179.72897"
   style="fill:#fab446;stroke-width:0.95999998"
   width="8.4748802"
   height="25.423679"
   id="rect78" />
<path
   style="fill:#c8414b;stroke-width:0.95999998"
   d="m 128.88258,222.10338 -8.47488,-8.47488 4.96416,-4.96416 c 7.67328,-7.67328 18.0816,-11.98464 28.9344,-11.98464 v 0 c 10.8528,0 21.26016,4.31136 28.9344,11.98464 l 4.96416,4.96416 -8.47488,8.47488 z"
   id="path80"
   inkscape:connector-curvature="0" />
<g
   id="g88"
   transform="matrix(0.96,0,0,0.96,10.24002,10.24002)">
	<circle
   style="fill:#ffd250"
   cx="150.07001"
   cy="211.86099"
   r="4.414"
   id="circle82" />
	<circle
   style="fill:#ffd250"
   cx="132.41"
   cy="211.86099"
   r="4.414"
   id="circle84" />
	<circle
   style="fill:#ffd250"
   cx="167.72"
   cy="211.86099"
   r="4.414"
   id="circle86" />
</g>
<g
   id="g94"
   transform="matrix(0.96,0,0,0.96,10.24002,10.24002)">
	<rect
   x="70.620003"
   y="256.00101"
   style="fill:#c8414b"
   width="44.139999"
   height="8.8280001"
   id="rect90" />
	<polygon
   style="fill:#c8414b"
   points="97.103,282.484 97.103,273.656 70.621,282.484 70.621,291.311 "
   id="polygon92" />
</g>
<g
   id="g96"
   transform="matrix(0.96,0,0,0.96,10.24002,10.24002)">
</g>
<g
   id="g98"
   transform="matrix(0.96,0,0,0.96,10.24002,10.24002)">
</g>
<g
   id="g100"
   transform="matrix(0.96,0,0,0.96,10.24002,10.24002)">
</g>
<g
   id="g102"
   transform="matrix(0.96,0,0,0.96,10.24002,10.24002)">
</g>
<g
   id="g104"
   transform="matrix(0.96,0,0,0.96,10.24002,10.24002)">
</g>
<g
   id="g106"
   transform="matrix(0.96,0,0,0.96,10.24002,10.24002)">
</g>
<g
   id="g108"
   transform="matrix(0.96,0,0,0.96,10.24002,10.24002)">
</g>
<g
   id="g110"
   transform="matrix(0.96,0,0,0.96,10.24002,10.24002)">
</g>
<g
   id="g112"
   transform="matrix(0.96,0,0,0.96,10.24002,10.24002)">
</g>
<g
   id="g114"
   transform="matrix(0.96,0,0,0.96,10.24002,10.24002)">
</g>
<g
   id="g116"
   transform="matrix(0.96,0,0,0.96,10.24002,10.24002)">
</g>
<g
   id="g118"
   transform="matrix(0.96,0,0,0.96,10.24002,10.24002)">
</g>
<g
   id="g120"
   transform="matrix(0.96,0,0,0.96,10.24002,10.24002)">
</g>
<g
   id="g122"
   transform="matrix(0.96,0,0,0.96,10.24002,10.24002)">
</g>
<g
   id="g124"
   transform="matrix(0.96,0,0,0.96,10.24002,10.24002)">
</g>
<rect
   style="fill:none;fill-rule:evenodd;stroke:#000000;stroke-width:15;stroke-miterlimit:4;stroke-dasharray:none;stroke-opacity:1"
   id="rect938"
   width="495.34061"
   height="70.119438"
   x="8.3301849"
   y="89.110039" /><rect
   style="fill:none;fill-rule:evenodd;stroke:#000000;stroke-width:15;stroke-miterlimit:4;stroke-dasharray:none;stroke-opacity:1"
   id="rect938-7"
   width="495.34061"
   height="70.119438"
   x="8.3301849"
   y="352.87274" /><rect
   style="fill:none;fill-rule:evenodd;stroke:#000000;stroke-width:15;stroke-miterlimit:4;stroke-dasharray:none;stroke-opacity:1"
   id="rect938-7-7"
   width="495.21649"
   height="191.26723"
   x="8.3922424"
   y="160.36688" /></svg>