<?xml version="1.0" encoding="UTF-8" standalone="no"?>
<svg
   xmlns:dc="http://purl.org/dc/elements/1.1/"
   xmlns:cc="http://creativecommons.org/ns#"
   xmlns:rdf="http://www.w3.org/1999/02/22-rdf-syntax-ns#"
   xmlns:svg="http://www.w3.org/2000/svg"
   xmlns="http://www.w3.org/2000/svg"
   xmlns:sodipodi="http://sodipodi.sourceforge.net/DTD/sodipodi-0.dtd"
   xmlns:inkscape="http://www.inkscape.org/namespaces/inkscape"
   id="_x33_0"
   enable-background="new 0 0 64 64"
   height="512"
   viewBox="0 0 64 64"
   width="512"
   version="1.1"
   sodipodi:docname="surgery.svg"
   inkscape:version="1.0.2 (e86c870879, 2021-01-15, custom)">
  <metadata
     id="metadata85">
    <rdf:RDF>
      <cc:Work
         rdf:about="">
        <dc:format>image/svg+xml</dc:format>
        <dc:type
           rdf:resource="http://purl.org/dc/dcmitype/StillImage" />
        <dc:title />
      </cc:Work>
    </rdf:RDF>
  </metadata>
  <defs
     id="defs83" />
  <sodipodi:namedview
     pagecolor="#ffffff"
     bordercolor="#666666"
     borderopacity="1"
     objecttolerance="10"
     gridtolerance="10"
     guidetolerance="10"
     inkscape:pageopacity="0"
     inkscape:pageshadow="2"
     inkscape:window-width="1920"
     inkscape:window-height="1017"
     id="namedview81"
     showgrid="false"
     inkscape:zoom="0.84765628"
     inkscape:cx="648.23324"
     inkscape:cy="356.56901"
     inkscape:window-x="-8"
     inkscape:window-y="-8"
     inkscape:window-maximized="1"
     inkscape:current-layer="g74"
     inkscape:document-rotation="0" />
  <g
     id="g78">
    <g
       id="g74">
      <g
         id="g4"
         style="fill:#f0d0b4;fill-opacity:1">
        <path
           d="m4.13 56.47c-.63.15-1.16.51-1.53.99-.38.48-.6 1.08-.6 1.73l-1-.018v-11.172h8 7 3 6 .44c2.95 0 5.82 1 8.12 2.85l.89.71c.27.22.59.36.92.41l-.01.03s.64 3.55.64 6l-.62 1.24c-.25.51-.59.97-.99 1.35l-5.39-3.59c-1.32-.66-2.77-1-4.24-1h-12.76l-.59-.59c-.9-.9-2.13-1.41-3.41-1.41-.55 0-1.05.22-1.41.59-.37.36-.59.86-.59 1.41z"
           fill="#fcd770"
           id="path2"
           style="fill:#f0d0b4;fill-opacity:1" />
      </g>
      <g
         id="g8">
        <path
           d="m29 57 5.39 3.59c-.92.89-2.16 1.41-3.48 1.41h-26.1c-1.55 0-2.81-1.26-2.81-2.81 0-.65.22-1.25.6-1.73.37-.48.9-.84 1.53-.99l1.87-.47c0-.55.22-1.05.59-1.41.36-.37.86-.59 1.41-.59 1.28 0 2.51.51 3.41 1.41l.59.59h12.76c1.47 0 2.92.34 4.24 1z"
           fill="#f0d0b4"
           id="path6" />
      </g>
      <g
         id="g12">
        <path
           d="m35.7 52h2.3l.3-1.82c.41-2.41 2.49-4.18 4.94-4.18h3.76l.72-1.45c.17-.34.52-.55.9-.55h5.14c-.48.72-.76 1.58-.76 2.5v3.38c0 1.83-1.25 3.43-3.03 3.88l-.97.24v1.53c0 1.36-1.11 2.47-2.47 2.47-.94 0-1.79-.53-2.21-1.37l-.81-1.61c-.31-.62-.95-1.02-1.66-1.02-1.02 0-1.85.83-1.85 1.85 0 .75.25 1.47.72 2.04l.08.11h-4.8c0-2.45-.64-6-.64-6l.01-.03c.11.02.22.03.33.03z"
           fill="#f0d0b4"
           id="path10" />
      </g>
      <g
         id="g16">
        <path
           d="m61.06 49.18.5 1.5c.29.87.44 1.79.44 2.72 0 4.75-3.85 8.6-8.6 8.6h-4.59c-3.04 0-5.91-1.38-7.81-3.75l-.2-.25-.08-.11c-.47-.57-.72-1.29-.72-2.04 0-1.02.83-1.85 1.85-1.85.71 0 1.35.4 1.66 1.02l.81 1.61c.42.84 1.27 1.37 2.21 1.37 1.36 0 2.47-1.11 2.47-2.47v-1.53l.97-.24c1.78-.45 3.03-2.05 3.03-3.88v-3.38c0-.92.28-1.78.76-2.5.16-.24.35-.47.56-.68.81-.82 1.94-1.32 3.18-1.32 2.49 0 4.5 2.01 4.5 4.5v.5c0 .86-.36 1.63-.94 2.18z"
           fill="#656d78"
           id="path14" />
      </g>
      <g
         id="g20">
        <path
           d="m54 37v2c0 .55-.45 1-1 1h-13v-.25c0-1.31-.23-2.58-.66-3.75h7.66 6c.55 0 1 .45 1 1z"
           fill="#969faa"
           id="path18" />
      </g>
      <g
         id="g24">
        <path
           d="m37 32h10v4h-7.66c-.53-1.47-1.37-2.8-2.44-3.9z"
           fill="#aab2bd"
           id="path22" />
      </g>
      <g
         id="g28">
        <path
           d="m31.47 29.03-4.24-.98c.67-.58 1.25-1.27 1.7-2.05h33.07v4c0 1.1-.9 2-2 2h-13-10l-.1.1c-1.44-1.5-3.31-2.58-5.43-3.07z"
           fill="#ccd1d9"
           id="path26" />
      </g>
      <g
         id="g32">
        <path
           d="m41 14h-6c.63-.84 1-1.87 1-3 0-2.76-2.24-5-5-5h29c1.1 0 2 .9 2 2v12h-12l-3-8-3 8z"
           fill="#69d6f4"
           id="path30" />
      </g>
      <g
         id="g36">
        <path
           d="m31 24c1.66 0 3-1.34 3-3 0-.77-.29-1.46-.77-1.99l.01-.01c.47-.53.76-1.23.76-2 0-.62-.19-1.19-.5-1.67.59-.34 1.1-.79 1.5-1.33h6l3 6 3-8 3 8h12v6h-33.07c.36-.62.63-1.29.82-2z"
           fill="#69d6f4"
           id="path34" />
      </g>
      <g
         id="g40"
         style="fill:#a05a2c">
        <path
           d="m18 10-1.24.62c-1.69.84-2.76 2.58-2.76 4.47v2.91h-1c-.61 0-1.18.19-1.66.5-.81-.54-1.34-1.45-1.34-2.5 0-.49.12-.96.33-1.37-1.38-.63-2.33-2.02-2.33-3.63 0-2.21 1.79-4 4-4 .73 0 1.43.2 2.02.55.23-3.1 2.82-5.55 5.98-5.55 1.75 0 3.32.75 4.42 1.95.7-.59 1.6-.95 2.58-.95 1.87 0 3.43 1.28 3.87 3.01.04-.01.09-.01.13-.01 2.76 0 5 2.24 5 5 0 1.13-.37 2.16-1 3-.4.54-.91.99-1.5 1.33.31.48.5 1.05.5 1.67 0 .77-.29 1.47-.76 2l-.01.01c-.03-.05-.07-.09-.11-.13-.54-.54-1.29-.88-2.12-.88h-1v-1.24c0-1.56-1.2-2.86-2.75-2.99l-6.27-.52c-.84-.07-1.58-.46-2.12-1.04s-.86-1.35-.86-2.2z"
           fill="#b27946"
           id="path38"
           style="fill:#a05a2c" />
      </g>
      <g
         id="g44"
         style="fill:#ececec">
        <path
           d="m39.34 36c-.53-1.47-1.37-2.8-2.44-3.9-1.44-1.5-3.31-2.58-5.43-3.07l-4.24-.98c-1.4 1.21-3.23 1.95-5.23 1.95s-3.83-.74-5.23-1.95l-4.24.98c-4.99 1.15-8.53 5.6-8.53 10.72v3.25c0 2.76 2.24 5 5 5h26c2.76 0 5-2.24 5-5v-3-.25c0-1.31-.23-2.58-.66-3.75z"
           fill="#b4dd7f"
           id="path42"
           style="fill:#ececec" />
      </g>
      <g
         id="g52">
        <path
           d="m14 22h16c0 .69-.09 1.36-.25 2-.19.71-.46 1.38-.82 2-.45.78-1.03 1.47-1.7 2.05-1.4 1.21-3.23 1.95-5.23 1.95s-3.83-.74-5.23-1.95c-.15-.12-.29-.25-.43-.39-.99-1-1.72-2.25-2.09-3.66-.16-.64-.25-1.31-.25-2z"
           fill="#e6e9ed"
           id="path50" />
      </g>
      <g
         id="g56">
        <path
           d="m33.23 19.01c.48.53.77 1.22.77 1.99 0 1.66-1.34 3-3 3h-1.25c.16-.64.25-1.31.25-2v-4h1c.83 0 1.58.34 2.12.88.04.04.08.08.11.13z"
           fill="#f0d0b4"
           id="path54" />
      </g>
      <g
         id="g60">
        <path
           d="m30 18v4h-16v-4-2.91c0-1.89 1.07-3.63 2.76-4.47l1.24-.62v.01c0 .85.32 1.62.86 2.2s1.28.97 2.12 1.04l6.27.52c1.55.13 2.75 1.43 2.75 2.99z"
           fill="#f0d0b4"
           id="path58" />
      </g>
      <g
         id="g64">
        <path
           d="m14 18v4c0 .69.09 1.36.25 2h-1.25c-.83 0-1.58-.34-2.12-.88s-.88-1.29-.88-2.12c0-1.05.53-1.96 1.34-2.5.48-.31 1.05-.5 1.66-.5z"
           fill="#f0d0b4"
           id="path62" />
      </g>
      <g
         id="g72">
        <path
           d="m19.7 42.08c.55.13 1.04.41 1.42.8.54.54.88 1.29.88 2.12 0 1.66-1.34 3-3 3h-3v-6h3c.24 0 .47.03.7.08z"
           fill="#f0d0b4"
           id="path70" />
      </g>
      <path
         d="m 28,42 v 6 H 25.44 25 c -1.66,0 -3,-1.34 -3,-3 0,-0.83 0.34,-1.58 0.88,-2.12 0.38,-0.39 0.87,-0.67 1.42,-0.8 C 24.53,42.03 24.76,42 25,42 Z"
         fill="#f0d0b4"
         id="path66" />
      <rect
         style="fill:#b4dd7f;fill-rule:evenodd;stroke-width:0.122396;fill-opacity:1"
         id="rect875"
         width="12"
         height="13.096775"
         x="16"
         y="28.903225" />
    </g>
    <path
       d="m 60,33 c 1.654,0 3,-1.346 3,-3 V 8 C 63,6.346 61.654,5 60,5 H 31.576 C 30.793,3.201 29.012,2 27,2 26.13,2 25.276,2.231 24.522,2.664 23.264,1.598 21.658,1 20,1 16.811,1 14.065,3.18 13.25,6.158 12.844,6.054 12.424,6 12,6 9.243,6 7,8.243 7,11 7,12.635 7.805,14.151 9.108,15.075 9.037,15.378 9,15.688 9,16 9,16.931 9.326,17.81 9.893,18.511 9.343,19.197 9,20.055 9,21 c 0,2.206 1.794,4 4,4 h 0.525 c 0.318,0.896 0.773,1.726 1.341,2.466 l -2.565,0.591 C 6.825,29.322 3,34.131 3,39.751 V 43 c 0,1.538 0.586,2.937 1.54,4 H 1 v 2 h 24 0.44 c 2.714,0 5.376,0.934 7.497,2.63 l 0.89,0.712 C 34.356,52.767 35.022,53 35.702,53 h 3.146 l 0.443,-2.658 C 39.613,48.405 41.272,47 43.236,47 h 4.382 l 1,-2 h 3.595 C 52.077,45.478 52,45.979 52,46.5 v 3.377 c 0,1.379 -0.935,2.576 -2.272,2.91 L 48,53.219 v 2.31 C 48,56.34 47.339,57 46.528,57 45.967,57 45.463,56.688 45.212,56.187 L 44.408,54.579 C 43.92,53.604 42.942,53 41.854,53 40.28,53 39,54.28 39,55.854 c 0,0.39 0.068,0.773 0.172,1.146 h -3.79 l -0.895,1.789 C 33.806,60.153 32.435,61 30.91,61 H 4.808 C 3.811,61 3,60.189 3,59.192 3,58.361 3.563,57.64 4.37,57.438 L 7,56.78 V 56 c 0,-0.552 0.449,-1 1,-1 1.022,0 1.984,0.398 2.707,1.121 L 11.586,57 h 13.178 c 1.308,0 2.618,0.31 3.789,0.895 l 0.894,-1.789 C 28,55.382 26.38,55 24.764,55 H 12.414 L 12.121,54.707 C 11.021,53.606 9.557,53 8,53 6.625,53 5.464,53.929 5.11,55.191 L 3.884,55.499 C 2.186,55.923 1,57.442 1,59.192 1,61.292 2.708,63 4.808,63 H 30.91 c 2.288,0 4.344,-1.271 5.367,-3.316 L 36.618,59 h 3.713 c 2.098,2.54 5.173,4 8.475,4 h 4.59 C 58.692,63 63,58.691 63,53.396 63,52.361 62.834,51.339 62.507,50.359 L 62.191,49.41 C 62.699,48.739 63,47.904 63,47 V 46.5 C 63,43.468 60.533,41 57.5,41 c -1.704,0 -3.23,0.779 -4.239,2 h -4.643 c -0.763,0 -1.448,0.424 -1.789,1.105 L 46.382,45 H 43.236 C 42.18,45 41.189,45.28 40.322,45.761 40.752,44.934 41,43.996 41,43 v -2 h 12 c 1.103,0 2,-0.897 2,-2 v -2 c 0,-1.103 -0.897,-2 -2,-2 h -5 v -2 z m -6,13.5 c 0,-1.93 1.57,-3.5 3.5,-3.5 1.93,0 3.5,1.57 3.5,3.5 V 47 c 0,1.103 -0.897,2 -2,2 h -0.146 c -0.762,0 -1.448,-0.424 -1.789,-1.105 l -0.171,-0.342 -1.789,0.895 0.171,0.342 C 55.958,50.152 57.329,51 58.854,51 H 59 c 0.535,0 1.046,-0.105 1.514,-0.297 l 0.096,0.289 C 60.869,51.768 61,52.577 61,53.396 61,57.589 57.589,61 53.396,61 h -4.59 c -2.749,0 -5.31,-1.231 -7.027,-3.377 L 41.497,57.269 C 41.177,56.869 41,56.367 41,55.854 41,55.384 41.383,55 41.854,55 c 0.326,0 0.619,0.181 0.764,0.473 l 0.804,1.608 C 44.014,58.265 45.204,59 46.528,59 48.442,59 50,57.442 50,55.528 v -0.747 l 0.213,-0.054 C 52.443,54.17 54,52.176 54,49.877 Z M 60,31 H 37.221 c -1.505,-1.41 -3.385,-2.449 -5.522,-2.942 l -2.565,-0.591 c 0.118,-0.153 0.237,-0.305 0.345,-0.466 H 61 v 3 C 61,30.552 60.551,31 60,31 Z M 31,22 v -3 c 1.103,0 2,0.897 2,2 0,1.103 -0.897,2 -2,2 H 30.941 C 30.978,22.671 31,22.338 31,22 Z m 3.771,-6.336 C 35.02,15.462 35.244,15.236 35.455,15 h 4.927 l 3.75,7.498 L 47,14.848 49.307,21 H 61 v 4 H 31 c 2.206,0 4,-1.794 4,-4 0,-0.726 -0.209,-1.399 -0.549,-1.986 C 34.805,18.406 35,17.715 35,17 35,16.544 34.922,16.094 34.771,15.664 Z M 29,21 H 15 v -5.91 c 0,-1.525 0.847,-2.896 2.211,-3.577 l 0.057,-0.028 c 0.563,1.501 1.958,2.622 3.629,2.76 l 6.269,0.522 C 28.194,14.853 29,15.729 29,16.761 Z m -0.08,2 c -0.488,3.386 -3.401,6 -6.92,6 -3.519,0 -6.432,-2.614 -6.92,-6 z M 61,8 V 19 H 50.693 L 47,9.152 43.869,17.502 41.618,13 H 36.652 C 36.878,12.366 37,11.691 37,11 37,9.463 36.416,8.063 35.463,7 H 60 c 0.551,0 1,0.448 1,1 z M 9,11 c 0,-1.654 1.346,-3 3,-3 0.535,0 1.058,0.142 1.51,0.41 l 1.388,0.822 0.119,-1.608 C 15.209,5.031 17.398,3 20,3 c 1.414,0 2.722,0.577 3.683,1.626 l 0.648,0.707 0.733,-0.618 C 25.611,4.254 26.299,4 27,4 c 1.37,0 2.563,0.928 2.901,2.256 L 30.145,7.216 31.03,7 c 2.192,0.017 3.97,1.805 3.97,4 0,1.442 -0.749,2.738 -2.002,3.465 l -0.908,0.527 0.57,0.881 C 32.882,16.217 33,16.606 33,17 33,17.177 32.969,17.348 32.925,17.515 32.351,17.197 31.701,17 31,17 v -0.239 c 0,-2.063 -1.611,-3.815 -3.668,-3.986 L 21.063,12.253 C 19.906,12.155 19,11.171 19,10.009 19,9.152 19.477,8.38 20.244,7.996 L 20.447,7.894 19.552,6.105 19.35,6.207 c -1.252,0.626 -2.094,1.799 -2.3,3.15 L 16.318,9.723 C 14.271,10.746 13,12.803 13,15.09 V 17 c -0.536,0 -1.046,0.11 -1.513,0.302 C 11.179,16.944 11,16.487 11,16 c 0,-0.316 0.076,-0.633 0.22,-0.914 l 0.477,-0.932 -0.952,-0.435 C 9.685,13.236 9,12.169 9,11 Z m 4,12 c -1.103,0 -2,-0.897 -2,-2 0,-1.103 0.897,-2 2,-2 v 3 c 0,0.338 0.022,0.671 0.059,1 z M 5,43 v -3.249 c 0,-4.684 3.188,-8.69 7.751,-9.744 l 3.784,-0.873 C 18.052,30.299 19.944,31 22,31 c 2.056,0 3.948,-0.701 5.465,-1.866 l 3.784,0.873 C 35.813,31.061 39,35.067 39,39.751 V 43 c 0,2.206 -1.794,4 -4,4 h -6 v -4 h 6 v -6 h -2 v 4 h -5.838 v 0 c -3.373,0.208 -6.95,0.208 -10.325,0 v 0 H 11 V 37 H 9 v 6 h 6 v 4 H 9 C 6.794,47 5,45.206 5,43 Z m 12,4 v -4 h 2 c 1.103,0 2,0.897 2,2 0,1.103 -0.897,2 -2,2 z m 8,0 c -1.103,0 -2,-0.897 -2,-2 0,-1.103 0.897,-2 2,-2 h 2 v 4 h -1.56 z m 12.153,4 h -1.451 c -0.227,0 -0.448,-0.078 -0.625,-0.22 L 34.186,50.067 C 33.692,49.672 33.166,49.322 32.626,49 H 35 c 1.063,0 2.06,-0.281 2.927,-0.767 -0.285,0.549 -0.503,1.141 -0.61,1.781 z M 53,39 H 40.968 c -0.042,-0.683 -0.14,-1.351 -0.291,-2 H 53 Z M 46,35 H 40.024 C 39.723,34.297 39.36,33.627 38.935,33 H 46 Z"
       id="path76"
       sodipodi:nodetypes="sssscscscsscscsscccssccccsccsccscccssccssccsscccsssccssscsccsccsccssscccsssccssscsccscscssssccsssssssccccssccsssccsscsssccssscccccssscsscscccccccccscscccsccccsccsccsccccccscsssscccscccscccscccsccsccsccccccsccscccssscscsssccsccsssccccccccccccccccssccssscssscccscscccsccccccccccccc" />
    <ellipse
       style="fill:#ff8080;fill-opacity:1;stroke:none;stroke-width:3.95497;stroke-linecap:round;stroke-linejoin:round;paint-order:stroke markers fill"
       id="path51"
       cx="20.198582"
       cy="52.449951"
       rx="7.1412215"
       ry="1.825877" />
    <g
       id="g978"
       transform="matrix(0.36382334,0.13242087,0.13242087,-0.36382334,6.8453244,49.585076)">
      <g
         id="g22"
         transform="translate(-24)">
        <path
           d="m 54,27 h 4 a 2,2 0 0 1 2,2 v 28 a 4,4 0 0 1 -4,4 4,4 0 0 1 -4,-4 V 29 a 2,2 0 0 1 2,-2 z"
           fill="#aae1f9"
           id="path14-1" />
        <path
           d="M 52.4,10.99 52.906,21.1 A 1.991,1.991 0 0 0 54,22.775 V 27 h 4 V 22.775 A 1.991,1.991 0 0 0 59.1,21.1 L 60,3 a 7.61,7.61 0 0 0 -7.6,7.99 z"
           fill="#d0d8da"
           id="path16" />
        <path
           d="M 55,16 V 4.875 A 7.594,7.594 0 0 0 52.4,10.99 L 52.906,21.1 A 1.991,1.991 0 0 0 54,22.775 V 27 h 4 V 22.775 A 2,2 0 0 0 58.375,22.52 7.984,7.984 0 0 1 55,16 Z"
           fill="#93999a"
           id="path18-1" />
        <path
           d="M 59,58 A 4,4 0 0 1 55,54 V 27 h -1 a 2,2 0 0 0 -2,2 V 57 A 4,4 0 0 0 59.892,57.892 3.974,3.974 0 0 1 59,58 Z"
           fill="#57b7eb"
           id="path20" />
      </g>
      <g
         id="Outline_copy"
         data-name="Outline copy"
         transform="translate(-82.701195,-17.425787)">
        <g
           fill="#434951"
           id="g43"
           style="fill:#000000;fill-opacity:1">
          <path
             d="m 117.70057,43.609787 v -2.875 c 0.65192,-0.534334 1.04898,-1.31828 1.094,-2.16 l 0.906,-18.099 c 0.0286,-0.5717 -0.42758,-1.050716 -1,-1.05 -4.92409,1.76e-4 -8.84532,4.122029 -8.6,9.04 l 0.5,10.11 c 0.0468,0.842319 0.44608,1.626008 1.1,2.159 v 2.875 c -1.19435,0.422255 -1.99475,1.549215 -2,2.816 l 0,28 c 0,2.761426 2.23858,4.999998 5,4.999998 2.76142,0 5,-2.238572 5,-4.999998 v -15.75 c 0,-1.333333 -2.62621,-1.554036 -2.60677,-0.220845 l 0.22084,15.143234 c 0.0583,3.999573 -4.72509,4.441217 -4.78646,0.44169 l -0.22084,-14.393234 6.39323,-0.220845 c 0.55195,-0.01907 1,-0.447715 1,-1 v -12 c -0.005,-1.266785 -0.80565,-2.393745 -2,-2.816 z m -5.39323,8.036845 4.78646,-0.44169 v 2 l -4.78646,0.44169 z m 1.99015,-27.339235 c 0.99233,-1.052007 0.87117,-1.580116 2.29962,-1.805923 l -0.40331,15.752468 c -0.0185,0.357692 -0.22943,0.677261 -0.55097,0.835 -0.33505,0.17072 -0.54597,0.514966 -0.54597,0.891 v 3.225 l -0.78946,0.44169 v -3.225 c 0,-0.376034 -0.21095,-0.72028 -0.54597,-0.891 -0.32127,-0.157567 -0.53207,-0.476674 -0.55097,-0.834 l -0.5,-10.11 c -0.0985,-1.808541 0.33515,-2.970417 1.58715,-4.279235 z m -1.211,21.946 2.78647,-0.441689 c 0.54547,-0.08646 1.1186,-0.149504 1.22084,0.393234 v 3 l -4.78646,0.44169 0,-3 c 0,-0.552285 0.22687,-0.393235 0.77915,-0.393235 z m -0.77915,11.393235 v -2 l 4.78646,-0.44169 v 2 z"
             id="path39"
             sodipodi:nodetypes="ccccccccccssssssscsscccccccscccsccsccccscsccsscccccc"
             style="fill:#000000;fill-opacity:1" />
        </g>
      </g>
    </g>
  </g>
</svg>
