<?xml version="1.0" encoding="UTF-8" standalone="no"?>
<!-- Generator: Adobe Illustrator 19.0.0, SVG Export Plug-In . SVG Version: 6.00 Build 0)  -->

<svg
   xmlns:dc="http://purl.org/dc/elements/1.1/"
   xmlns:cc="http://creativecommons.org/ns#"
   xmlns:rdf="http://www.w3.org/1999/02/22-rdf-syntax-ns#"
   xmlns:svg="http://www.w3.org/2000/svg"
   xmlns="http://www.w3.org/2000/svg"
   xmlns:sodipodi="http://sodipodi.sourceforge.net/DTD/sodipodi-0.dtd"
   xmlns:inkscape="http://www.inkscape.org/namespaces/inkscape"
   version="1.1"
   id="Capa_1"
   x="0px"
   y="0px"
   viewBox="0 0 511.598 511.598"
   style="enable-background:new 0 0 511.598 511.598;"
   xml:space="preserve"
   sodipodi:docname="sushi.svg"
   inkscape:version="0.92.5 (2060ec1f9f, 2020-04-08)"><metadata
   id="metadata389"><rdf:RDF><cc:Work
       rdf:about=""><dc:format>image/svg+xml</dc:format><dc:type
         rdf:resource="http://purl.org/dc/dcmitype/StillImage" /><dc:title></dc:title></cc:Work></rdf:RDF></metadata><defs
   id="defs387">
	
	
	
	
	
	
	
	
	
	
	
	
	
	
	
	
	
	
	
	
	
	
	
	
	
	
	
	
	
	
	
	
	
	
	
	
	
	
	
	
	
	
	
	
	
	
	
	
	
	
	
	
	
	
	
	
	
	
	
	
	
	
	
	
	
	
	
	
	
</defs><sodipodi:namedview
   pagecolor="#ffffff"
   bordercolor="#666666"
   borderopacity="1"
   objecttolerance="10"
   gridtolerance="10"
   guidetolerance="10"
   inkscape:pageopacity="0"
   inkscape:pageshadow="2"
   inkscape:window-width="1920"
   inkscape:window-height="986"
   id="namedview385"
   showgrid="false"
   inkscape:zoom="0.9225994"
   inkscape:cx="-68.649598"
   inkscape:cy="235.26175"
   inkscape:window-x="-11"
   inkscape:window-y="-11"
   inkscape:window-maximized="1"
   inkscape:current-layer="Capa_1" />













































<path
   style="fill:#e6e9ed;stroke-width:1.0625"
   d="m 64.699881,374.16722 c -23.439813,0 -42.467064,19.02618 -42.467064,42.46706 0,23.43981 19.027251,42.46601 42.467064,42.46601 23.439819,0 42.465999,-19.0262 42.465999,-42.46601 0,-23.44193 -19.027249,-42.46706 -42.465999,-42.46706 z m 0,-16.98725 c 32.870563,0 59.453259,26.58375 59.453259,59.45325 0,32.8695 -26.583756,59.45325 -59.453259,59.45325 -32.870564,0 -59.4532511,-26.58375 -59.4532511,-59.45325 0,-32.8695 26.5826871,-59.45325 59.4532511,-59.45325 z"
   id="path182"
   inkscape:connector-curvature="0" />
<path
   style="fill:#7f4545;stroke-width:1.0625"
   d="m 64.699881,374.16722 c 23.439819,0 42.465999,19.02618 42.465999,42.46706 0,23.43981 -19.027249,42.46601 -42.465999,42.46601 -23.439813,0 -42.467064,-19.0262 -42.467064,-42.46601 0,-23.44193 19.027251,-42.46706 42.467064,-42.46706 z"
   id="path184"
   inkscape:connector-curvature="0" />
<g
   style="opacity:0.2"
   id="g188"
   transform="matrix(1.0625001,0,0,1.0625001,-15.987434,-42.007669)">
	<path
   d="m 75.941,391.694 c 22.061,0 39.968,17.907 39.968,39.969 0,22.061 -17.908,39.968 -39.968,39.968 -22.061,0 -39.969,-17.907 -39.969,-39.968 0,-22.063 17.908,-39.969 39.969,-39.969 z"
   id="path186"
   inkscape:connector-curvature="0" />
</g>
<g
   style="opacity:0.2"
   id="g192"
   transform="matrix(1.0625001,0,0,1.0625001,-15.987434,-42.007669)">
	<path
   style="fill:#ffffff"
   d="m 51.959,431.661 c 0,-19.321 13.739,-35.457 31.975,-39.165 -2.584,-0.523 -5.253,-0.804 -7.993,-0.804 -22.061,0 -39.969,17.907 -39.969,39.969 0,22.061 17.908,39.968 39.969,39.968 2.74,0 5.409,-0.28 7.993,-0.804 -18.236,-3.708 -31.975,-19.842 -31.975,-39.164 z"
   id="path190"
   inkscape:connector-curvature="0" />
</g>
<g
   style="opacity:0.2"
   id="g196"
   transform="matrix(1.0625001,0,0,1.0625001,-15.987434,-42.007669)">
	<path
   d="m 99.922,431.661 c 0,19.32 -13.739,35.456 -31.975,39.164 2.584,0.523 5.254,0.804 7.994,0.804 22.061,0 39.968,-17.907 39.968,-39.968 0,-22.062 -17.908,-39.969 -39.968,-39.969 -2.74,0 -5.41,0.28 -7.994,0.804 18.235,3.708 31.975,19.844 31.975,39.165 z"
   id="path194"
   inkscape:connector-curvature="0" />
</g>
<g
   id="g202"
   transform="matrix(1.0625001,0,0,1.0625001,-15.987434,-42.007669)">
	<polygon
   style="fill:#ffd2a6"
   points="491.613,407.681 491.613,423.668 187.853,423.668 163.871,415.674 187.853,407.681 "
   id="polygon198" />
	<polygon
   style="fill:#ffd2a6"
   points="467.632,439.655 491.613,447.65 467.632,455.643 163.871,455.643 163.871,439.655 "
   id="polygon200" />
</g>



<g
   id="g5094"
   transform="matrix(1.3020368,0,0,1.3020368,-82.463665,-48.568111)"><g
     id="g34">
	<path
   id="path28"
   d="m 275.799,255.8 c 0,8.79 -7.189,15.987 -15.983,15.987 h -15.988 c -8.793,0 -15.987,-7.197 -15.987,-15.987 v -47.962 c 0,-8.79 7.194,-15.987 15.987,-15.987 h 15.988 c 8.794,0 15.983,7.197 15.983,15.987 z"
   style="fill:#e6e9ed"
   inkscape:connector-curvature="0" />
	<path
   id="path30"
   d="m 139.89,255.8 c 0,8.79 -7.193,15.987 -15.987,15.987 h -15.987 c -8.794,0 -15.987,-7.197 -15.987,-15.987 v -47.962 c 0,-8.79 7.193,-15.987 15.987,-15.987 h 15.987 c 8.794,0 15.987,7.197 15.987,15.987 z"
   style="fill:#e6e9ed"
   inkscape:connector-curvature="0" />
	<path
   id="path32"
   d="m 411.693,255.8 c 0,8.79 -7.19,15.987 -15.988,15.987 h -15.987 c -8.79,0 -15.987,-7.197 -15.987,-15.987 v -47.962 c 0,-8.79 7.197,-15.987 15.987,-15.987 h 15.987 c 8.798,0 15.988,7.197 15.988,15.987 z"
   style="fill:#e6e9ed"
   inkscape:connector-curvature="0" />
</g><path
     id="path36"
     d="m 379.701,135.895 c -8.79,0 -15.987,-7.198 -15.987,-15.988 v -7.994 -23.981 c 0,-8.79 7.197,-15.987 15.987,-15.987 h 31.976 c 8.789,0 15.987,7.197 15.987,15.987 v 31.975 c 0,8.79 -7.198,15.988 -15.987,15.988 z"
     style="fill:#ffd2a6"
     inkscape:connector-curvature="0" /><g
     id="g42">
	<path
   id="path38"
   d="m 427.664,143.888 c 0,8.79 -7.198,15.988 -15.987,15.988 h -31.976 c -8.79,0 -15.987,-7.198 -15.987,-15.988 v -23.981 c 0,8.79 7.197,15.988 15.987,15.988 h 31.976 c 8.789,0 15.987,-7.198 15.987,-15.988 z"
   style="fill:#656d78"
   inkscape:connector-curvature="0" />
	<path
   id="path40"
   d="m 339.734,143.888 c 0,8.79 -7.198,15.988 -15.988,15.988 h -31.975 c -8.79,0 -15.987,-7.198 -15.987,-15.988 v -23.981 c 0,8.79 7.197,15.988 15.987,15.988 h 31.975 c 8.79,0 15.988,-7.198 15.988,-15.988 z"
   style="fill:#656d78"
   inkscape:connector-curvature="0" />
</g><path
     id="path44"
     d="M 307.758,119.907 323.745,103.92 307.758,87.932 291.771,103.92 Z m 31.976,-31.975 v 31.975 c 0,8.79 -7.198,15.988 -15.988,15.988 h -31.975 c -8.79,0 -15.987,-7.198 -15.987,-15.988 v -7.994 -23.981 c 0,-8.79 7.197,-15.987 15.987,-15.987 h 31.975 c 8.789,0 15.988,7.197 15.988,15.987 z"
     style="fill:#e6e9ed"
     inkscape:connector-curvature="0" /><rect
     id="rect46"
     height="22.608999"
     width="22.608999"
     style="fill:#ffce54"
     transform="matrix(-0.7071,0.7071,-0.7071,-0.7071,598.8442,-40.2009)"
     y="92.620003"
     x="296.444" /><g
     id="g50"
     style="opacity:0.5">
	<polygon
   id="polygon48"
   points="299.765,103.92 311.755,91.929 307.758,87.932 291.771,103.92 307.758,119.907 311.755,115.91 "
   style="fill:#ffffff" />
</g><g
     id="g54"
     style="opacity:0.2">
	<polygon
   id="polygon52"
   points="315.752,103.92 307.758,95.926 311.755,91.929 323.745,103.92 311.755,115.91 307.758,111.913 " />
</g><rect
     id="rect56"
     height="31.975"
     width="31.975"
     style="fill:#a0d468"
     y="87.93"
     x="203.839" /><path
     id="path58"
     d="M 235.815,119.907 V 87.932 H 203.84 v 31.975 z m 15.987,-31.975 v 31.975 c 0,8.79 -7.193,15.988 -15.987,15.988 H 203.84 c -8.552,0 -15.508,-6.714 -15.987,-15.191 0,-0.234 0,-0.555 0,-0.796 v -7.994 -23.982 c 0,-8.79 7.193,-15.987 15.987,-15.987 h 31.975 c 8.794,0 15.987,7.197 15.987,15.987 z"
     style="fill:#e6e9ed"
     inkscape:connector-curvature="0" /><g
     id="g64">
	<path
   id="path60"
   d="m 251.802,143.888 c 0,8.79 -7.193,15.988 -15.987,15.988 H 203.84 c -8.794,0 -15.987,-7.198 -15.987,-15.988 v -23.185 c 0.479,8.478 7.436,15.191 15.987,15.191 h 31.975 c 8.794,0 15.987,-7.198 15.987,-15.988 z"
   style="fill:#656d78"
   inkscape:connector-curvature="0" />
	<path
   id="path62"
   d="m 163.871,143.888 c 0,8.79 -7.193,15.988 -15.987,15.988 h -31.975 c -8.794,0 -15.987,-7.198 -15.987,-15.988 v -23.981 c 0,8.79 7.193,15.988 15.987,15.988 h 31.975 c 8.794,0 15.987,-7.198 15.987,-15.988 z"
   style="fill:#656d78"
   inkscape:connector-curvature="0" />
</g><g
     id="g68"
     style="opacity:0.2">
	<path
   id="path66"
   d="m 115.909,143.888 v -7.993 c -8.794,0 -15.987,-7.198 -15.987,-15.988 v 23.981 c 0,8.79 7.193,15.988 15.987,15.988 h 15.988 c -8.794,0 -15.988,-7.198 -15.988,-15.988 z"
   style="fill:#ffffff"
   inkscape:connector-curvature="0" />
</g><g
     id="g72"
     style="opacity:0.2">
	<path
   id="path70"
   d="m 147.884,143.888 v -7.993 c 8.794,0 15.987,-7.198 15.987,-15.988 v 23.981 c 0,8.79 -7.193,15.988 -15.987,15.988 h -15.987 c 8.793,0 15.987,-7.198 15.987,-15.988 z"
   inkscape:connector-curvature="0" />
</g><g
     id="g76"
     style="opacity:0.2">
	<path
   id="path74"
   d="m 235.815,143.888 v -7.993 c 8.794,0 15.987,-7.198 15.987,-15.988 v 23.981 c 0,8.79 -7.193,15.988 -15.987,15.988 h -15.987 c 8.793,0 15.987,-7.198 15.987,-15.988 z"
   inkscape:connector-curvature="0" />
</g><g
     id="g80"
     style="opacity:0.2">
	<path
   id="path78"
   d="m 323.745,143.888 v -7.993 c 8.79,0 15.988,-7.198 15.988,-15.988 v 23.981 c 0,8.79 -7.198,15.988 -15.988,15.988 h -15.987 c 8.79,0 15.987,-7.198 15.987,-15.988 z"
   inkscape:connector-curvature="0" />
</g><g
     id="g84"
     style="opacity:0.2">
	<path
   id="path82"
   d="m 411.677,143.888 v -7.993 c 8.789,0 15.987,-7.198 15.987,-15.988 v 23.981 c 0,8.79 -7.198,15.988 -15.987,15.988 h -15.988 c 8.79,0 15.988,-7.198 15.988,-15.988 z"
   inkscape:connector-curvature="0" />
</g><g
     id="g88"
     style="opacity:0.2">
	<path
   id="path86"
   d="m 203.84,143.888 v -7.993 c -8.794,0 -15.987,-7.198 -15.987,-15.988 v 23.981 c 0,8.79 7.193,15.988 15.987,15.988 h 15.987 c -8.794,0 -15.987,-7.198 -15.987,-15.988 z"
   style="fill:#ffffff"
   inkscape:connector-curvature="0" />
</g><g
     id="g92"
     style="opacity:0.2">
	<path
   id="path90"
   d="m 291.771,143.888 v -7.993 c -8.79,0 -15.987,-7.198 -15.987,-15.988 v 23.981 c 0,8.79 7.197,15.988 15.987,15.988 h 15.987 c -8.79,0 -15.987,-7.198 -15.987,-15.988 z"
   style="fill:#ffffff"
   inkscape:connector-curvature="0" />
</g><g
     id="g96"
     style="opacity:0.2">
	<path
   id="path94"
   d="m 379.701,143.888 v -7.993 c -8.79,0 -15.987,-7.198 -15.987,-15.988 v 23.981 c 0,8.79 7.197,15.988 15.987,15.988 h 15.987 c -8.788,0 -15.987,-7.198 -15.987,-15.988 z"
   style="fill:#ffffff"
   inkscape:connector-curvature="0" />
</g><path
     id="path98"
     d="m 131.897,87.932 c 8.793,0 15.987,7.198 15.987,15.988 0,8.79 -7.194,15.987 -15.987,15.987 -8.794,0 -15.988,-7.198 -15.988,-15.987 0,-8.79 7.194,-15.988 15.988,-15.988 z"
     style="fill:#fc6e51"
     inkscape:connector-curvature="0" /><g
     id="g102"
     style="opacity:0.3">
	<path
   id="path100"
   d="m 123.903,103.92 c 0,-7.4 5.125,-13.622 11.991,-15.417 -1.284,-0.336 -2.611,-0.57 -3.997,-0.57 -8.794,0 -15.988,7.198 -15.988,15.988 0,8.79 7.194,15.987 15.988,15.987 1.385,0 2.712,-0.234 3.997,-0.57 -6.866,-1.796 -11.991,-8.018 -11.991,-15.418 z"
   style="fill:#ffffff"
   inkscape:connector-curvature="0" />
</g><g
     id="g106"
     style="opacity:0.3">
	<path
   id="path104"
   d="m 139.73,103.92 c 0,7.4 -5.125,13.622 -11.99,15.417 1.284,0.336 2.611,0.57 3.997,0.57 8.794,0 15.987,-7.198 15.987,-15.987 0,-8.79 -7.193,-15.988 -15.987,-15.988 -1.386,0 -2.713,0.234 -3.997,0.57 6.865,1.796 11.99,8.017 11.99,15.418 z"
   inkscape:connector-curvature="0" />
</g><path
     id="path108"
     d="m 131.897,119.907 c 8.793,0 15.987,-7.198 15.987,-15.987 0,-8.79 -7.194,-15.988 -15.987,-15.988 -8.794,0 -15.988,7.198 -15.988,15.988 0,8.789 7.194,15.987 15.988,15.987 z m 31.974,-31.975 v 31.975 c 0,8.79 -7.193,15.988 -15.987,15.988 h -31.975 c -8.794,0 -15.987,-7.198 -15.987,-15.988 v -7.994 -23.981 c 0,-8.79 7.193,-15.987 15.987,-15.987 h 31.975 c 8.794,0 15.987,7.197 15.987,15.987 z"
     style="fill:#e6e9ed"
     inkscape:connector-curvature="0" /><path
     id="path110"
     d="m 115.909,119.907 v -7.994 -23.981 c 0,-8.79 7.194,-15.987 15.988,-15.987 h -15.988 c -8.794,0 -15.987,7.197 -15.987,15.987 v 23.981 7.994 c 0,8.79 7.193,15.988 15.987,15.988 h 15.988 c -8.794,0 -15.988,-7.198 -15.988,-15.988 z"
     style="fill:#ffffff"
     inkscape:connector-curvature="0" /><g
     id="g114"
     style="opacity:0.2">
	<path
   id="path112"
   d="m 147.884,87.932 v 7.994 23.981 c 0,8.79 -7.194,15.988 -15.987,15.988 h 15.987 c 8.794,0 15.987,-7.198 15.987,-15.988 V 95.926 87.932 c 0,-8.79 -7.193,-15.987 -15.987,-15.987 h -15.987 c 8.793,0 15.987,7.197 15.987,15.987 z"
   inkscape:connector-curvature="0" />
</g><g
     id="g118"
     style="opacity:0.2">
	<path
   id="path116"
   d="m 235.815,87.932 v 7.994 23.981 c 0,8.79 -7.193,15.988 -15.987,15.988 h 15.987 c 8.794,0 15.987,-7.198 15.987,-15.988 V 95.926 87.932 c 0,-8.79 -7.193,-15.987 -15.987,-15.987 h -15.987 c 8.793,0 15.987,7.197 15.987,15.987 z"
   inkscape:connector-curvature="0" />
</g><g
     id="g122"
     style="opacity:0.2">
	<path
   id="path120"
   d="m 323.745,87.932 v 7.994 23.981 c 0,8.79 -7.197,15.988 -15.987,15.988 h 15.987 c 8.79,0 15.988,-7.198 15.988,-15.988 V 95.926 87.932 c 0,-8.79 -7.198,-15.987 -15.988,-15.987 h -15.987 c 8.79,0 15.987,7.197 15.987,15.987 z"
   inkscape:connector-curvature="0" />
</g><g
     id="g126"
     style="opacity:0.2">
	<path
   id="path124"
   d="m 411.677,87.932 v 7.994 23.981 c 0,8.79 -7.198,15.988 -15.988,15.988 h 15.988 c 8.789,0 15.987,-7.198 15.987,-15.988 V 95.926 87.932 c 0,-8.79 -7.198,-15.987 -15.987,-15.987 h -15.988 c 8.79,0 15.988,7.197 15.988,15.987 z"
   inkscape:connector-curvature="0" />
</g><g
     id="g132">
	<path
   id="path128"
   d="m 203.84,119.907 v -7.994 -23.981 c 0,-8.79 7.193,-15.987 15.987,-15.987 H 203.84 c -8.794,0 -15.987,7.197 -15.987,15.987 v 23.981 7.994 c 0,8.79 7.193,15.988 15.987,15.988 h 15.987 c -8.794,0 -15.987,-7.198 -15.987,-15.988 z"
   style="fill:#ffffff"
   inkscape:connector-curvature="0" />
	<path
   id="path130"
   d="m 291.771,119.907 v -7.994 -23.981 c 0,-8.79 7.197,-15.987 15.987,-15.987 h -15.987 c -8.79,0 -15.987,7.197 -15.987,15.987 v 23.981 7.994 c 0,8.79 7.197,15.988 15.987,15.988 h 15.987 c -8.79,0 -15.987,-7.198 -15.987,-15.988 z"
   style="fill:#ffffff"
   inkscape:connector-curvature="0" />
</g><g
     id="g136"
     style="opacity:0.5">
	<path
   id="path134"
   d="m 379.701,119.907 v -7.994 -23.981 c 0,-8.79 7.198,-15.987 15.987,-15.987 h -15.987 c -8.79,0 -15.987,7.197 -15.987,15.987 v 23.981 7.994 c 0,8.79 7.197,15.988 15.987,15.988 h 15.987 c -8.788,0 -15.987,-7.198 -15.987,-15.988 z"
   style="fill:#ffffff"
   inkscape:connector-curvature="0" />
</g><g
     id="g140"
     style="opacity:0.2">
	<path
   id="path138"
   d="m 410.747,202.639 c -5.098,-0.96 -10.148,-1.749 -15.059,-2.318 -10.577,-1.288 -20.437,-1.718 -28.938,-1.741 -1.882,2.623 -3.021,5.808 -3.021,9.259 v 6.713 33.895 7.353 c 0,3.178 0.968,6.128 2.576,8.618 8.603,-0.008 18.626,-0.437 29.383,-1.74 4.98,-0.578 10.102,-1.366 15.27,-2.351 0.438,-1.443 0.734,-2.942 0.734,-4.527 v -11.584 -25.433 -10.944 c 10e-4,-1.828 -0.374,-3.56 -0.945,-5.2 z"
   inkscape:connector-curvature="0" />
</g><g
     id="g144"
     style="opacity:0.2">
	<path
   id="path142"
   d="m 274.831,202.639 c -5.09,-0.96 -10.148,-1.749 -15.055,-2.318 -10.578,-1.288 -20.438,-1.718 -28.938,-1.741 -1.881,2.623 -3.017,5.808 -3.017,9.259 v 6.713 33.895 7.353 c 0,3.178 0.964,6.128 2.576,8.618 8.595,-0.008 18.618,-0.437 29.379,-1.74 4.984,-0.578 10.105,-1.366 15.273,-2.351 0.429,-1.443 0.733,-2.942 0.733,-4.527 v -11.584 -25.433 -10.944 c 0.001,-1.828 -0.374,-3.56 -0.951,-5.2 z"
   inkscape:connector-curvature="0" />
</g><g
     id="g148"
     style="opacity:0.2">
	<path
   id="path146"
   d="m 138.922,202.639 c -5.098,-0.96 -10.148,-1.749 -15.059,-2.318 -10.577,-1.288 -20.437,-1.718 -28.938,-1.741 -1.881,2.623 -3.017,5.808 -3.017,9.259 v 6.713 33.895 7.353 c 0,3.178 0.964,6.128 2.576,8.618 8.595,-0.008 18.618,-0.437 29.379,-1.74 4.98,-0.578 10.102,-1.366 15.27,-2.351 0.433,-1.443 0.737,-2.942 0.737,-4.527 v -11.584 -25.433 -10.944 c 0,-1.828 -0.374,-3.56 -0.948,-5.2 z"
   inkscape:connector-curvature="0" />
</g><g
     id="g156">
	<path
   id="path150"
   d="m 427.664,214.551 c -10.789,-3.037 -21.663,-5.035 -31.976,-6.237 -11.834,-1.437 -22.856,-1.834 -31.975,-1.756 -14.473,0.078 -23.98,1.28 -23.98,1.28 v 47.322 c 0,0 9.508,1.202 23.98,1.28 9.118,0.078 20.141,-0.32 31.975,-1.757 10.313,-1.202 21.187,-3.2 31.976,-6.237 0,0 0,0 0.077,-0.078 8.15,-2.318 16.23,-5.355 23.903,-9.196 v -15.347 c -7.672,-3.84 -15.83,-6.877 -23.98,-9.274 z"
   style="fill:#fc6e51"
   inkscape:connector-curvature="0" />
	<path
   id="path152"
   d="m 291.771,214.551 c -10.788,-3.037 -21.662,-5.035 -31.975,-6.237 -11.831,-1.437 -22.861,-1.834 -31.975,-1.756 -14.469,0.078 -23.981,1.28 -23.981,1.28 v 47.322 c 0,0 9.512,1.202 23.981,1.28 9.114,0.078 20.144,-0.32 31.975,-1.757 10.313,-1.202 21.187,-3.2 31.975,-6.237 0,0 0,0 0.078,-0.078 8.15,-2.318 16.229,-5.355 23.903,-9.196 v -15.347 c -7.674,-3.84 -15.831,-6.877 -23.981,-9.274 z"
   style="fill:#fc6e51"
   inkscape:connector-curvature="0" />
	<path
   id="path154"
   d="m 155.877,214.551 c -10.792,-3.037 -21.662,-5.035 -31.975,-6.237 -11.831,-1.437 -22.861,-1.834 -31.975,-1.756 -14.469,0.078 -23.981,1.28 -23.981,1.28 v 47.322 c 0,0 9.512,1.202 23.981,1.28 9.114,0.078 20.144,-0.32 31.975,-1.757 10.313,-1.202 21.183,-3.2 31.975,-6.237 0,0 0,0 0.078,-0.078 8.154,-2.318 16.229,-5.355 23.903,-9.196 v -15.347 c -7.673,-3.84 -15.827,-6.877 -23.981,-9.274 z"
   style="fill:#fc6e51"
   inkscape:connector-curvature="0" />
</g><g
     id="g160"
     style="opacity:0.2">
	<path
   id="path158"
   d="m 155.877,214.551 c -10.792,-3.037 -21.662,-5.035 -31.975,-6.237 -11.831,-1.437 -22.861,-1.834 -31.975,-1.756 -2.311,0.016 -4.438,0.063 -6.479,0.117 6.917,0.203 14.481,0.671 22.467,1.639 10.313,1.202 21.183,3.201 31.975,6.237 8.154,2.396 16.308,5.433 23.981,9.274 v 15.347 c -7.674,3.841 -15.75,6.877 -23.903,9.196 -0.078,0.078 -0.078,0.078 -0.078,0.078 -10.792,3.037 -21.662,5.035 -31.975,6.237 -7.986,0.968 -15.55,1.437 -22.463,1.64 2.038,0.055 4.165,0.102 6.476,0.117 9.114,0.078 20.144,-0.32 31.975,-1.757 10.313,-1.202 21.183,-3.2 31.975,-6.237 0,0 0,0 0.078,-0.078 8.154,-2.318 16.229,-5.355 23.903,-9.196 v -15.347 c -7.674,-3.84 -15.828,-6.877 -23.982,-9.274 z"
   inkscape:connector-curvature="0" />
</g><g
     id="g164"
     style="opacity:0.2">
	<polygon
   id="polygon162"
   points="67.946,207.838 67.946,255.16 83.934,256.448 83.934,206.722 "
   style="fill:#ffffff" />
</g><g
     id="g168"
     style="opacity:0.2">
	<path
   id="path166"
   d="m 291.771,214.551 c -10.788,-3.037 -21.662,-5.035 -31.975,-6.237 -11.831,-1.437 -22.861,-1.834 -31.975,-1.756 -2.311,0.016 -4.438,0.063 -6.479,0.117 6.916,0.203 14.48,0.671 22.466,1.639 10.312,1.202 21.187,3.201 31.975,6.237 8.149,2.396 16.308,5.433 23.981,9.274 v 15.347 c -7.674,3.841 -15.754,6.877 -23.903,9.196 -0.078,0.078 -0.078,0.078 -0.078,0.078 -10.788,3.037 -21.663,5.035 -31.975,6.237 -7.986,0.968 -15.55,1.437 -22.462,1.64 2.037,0.055 4.164,0.102 6.475,0.117 9.114,0.078 20.144,-0.32 31.975,-1.757 10.313,-1.202 21.187,-3.2 31.975,-6.237 0,0 0,0 0.078,-0.078 8.15,-2.318 16.229,-5.355 23.903,-9.196 v -15.347 c -7.674,-3.84 -15.831,-6.877 -23.981,-9.274 z"
   inkscape:connector-curvature="0" />
</g><g
     id="g172"
     style="opacity:0.2">
	<polygon
   id="polygon170"
   points="203.84,207.838 203.84,255.16 219.827,256.448 219.827,206.722 "
   style="fill:#ffffff" />
</g><g
     id="g176"
     style="opacity:0.2">
	<path
   id="path174"
   d="m 427.664,214.551 c -10.789,-3.037 -21.663,-5.035 -31.976,-6.237 -11.834,-1.437 -22.856,-1.834 -31.975,-1.756 -2.311,0.016 -4.434,0.063 -6.479,0.117 6.917,0.203 14.481,0.671 22.467,1.639 10.313,1.202 21.187,3.201 31.976,6.237 8.149,2.396 16.307,5.433 23.98,9.274 v 15.347 c -7.674,3.841 -15.753,6.877 -23.902,9.196 -0.078,0.078 -0.078,0.078 -0.078,0.078 -10.789,3.037 -21.663,5.035 -31.976,6.237 -7.985,0.968 -15.55,1.437 -22.467,1.64 2.046,0.055 4.169,0.102 6.479,0.117 9.118,0.078 20.141,-0.32 31.975,-1.757 10.313,-1.202 21.187,-3.2 31.976,-6.237 0,0 0,0 0.077,-0.078 8.15,-2.318 16.23,-5.355 23.903,-9.196 v -15.347 c -7.672,-3.84 -15.83,-6.877 -23.98,-9.274 z"
   inkscape:connector-curvature="0" />
</g><g
     id="g180"
     style="opacity:0.2">
	<polygon
   id="polygon178"
   points="339.734,207.838 339.734,255.16 355.72,256.448 355.72,206.722 "
   style="fill:#ffffff" />
</g><path
     id="path204"
     d="m 220.066,107.916 c -2.206,0 -4.036,-1.787 -4.036,-3.997 0,-2.21 1.749,-3.997 3.958,-3.997 h 0.078 c 2.209,0 3.997,1.787 3.997,3.997 0,2.21 -1.788,3.997 -3.997,3.997 z"
     style="fill:#3a3847"
     inkscape:connector-curvature="0" /><g
     id="g208"
     style="opacity:0.5">
	<rect
   id="rect206"
   height="31.975"
   width="7.993"
   style="fill:#ffffff"
   y="87.93"
   x="203.839" />
</g><g
     id="g212"
     style="opacity:0.3">
	<rect
   id="rect210"
   height="31.975"
   width="7.994"
   y="87.93"
   x="227.839" />
</g><path
     style="fill:#3a3847"
     d="m 131.897,123.904 c -11.019,0 -19.984,-8.961 -19.984,-19.984 0,-11.023 8.965,-19.984 19.984,-19.984 11.019,0 19.984,8.961 19.984,19.984 0,11.022 -8.966,19.984 -19.984,19.984 z m 0,-31.975 c -6.612,0 -11.991,5.379 -11.991,11.991 0,6.612 5.379,11.991 11.991,11.991 6.611,0 11.99,-5.379 11.99,-11.991 0,-6.612 -5.379,-11.991 -11.99,-11.991 z"
     id="path216"
     inkscape:connector-curvature="0" /><path
     style="fill:#3a3847"
     d="m 147.884,139.891 h -31.975 c -11.019,0 -19.984,-8.961 -19.984,-19.984 0,-2.209 1.788,-3.997 3.997,-3.997 -2.209,0 -3.997,-1.788 -3.997,-3.997 V 87.932 c 0,-11.022 8.966,-19.984 19.984,-19.984 h 31.975 c 11.019,0 19.984,8.962 19.984,19.984 v 31.975 c 0,11.023 -8.965,19.984 -19.984,19.984 z M 99.922,115.91 c 2.209,0 3.997,1.787 3.997,3.997 0,6.612 5.379,11.991 11.991,11.991 h 31.975 c 6.612,0 11.99,-5.379 11.99,-11.991 V 87.932 c 0,-6.612 -5.378,-11.99 -11.99,-11.99 h -31.976 c -6.612,0 -11.991,5.378 -11.991,11.99 v 23.981 c 0,2.209 -1.787,3.997 -3.996,3.997 z"
     id="path218"
     inkscape:connector-curvature="0" /><path
     style="fill:#3a3847"
     d="m 147.884,163.872 h -31.975 c -11.019,0 -19.984,-8.961 -19.984,-19.984 v -31.975 c 0,-2.209 1.788,-3.997 3.997,-3.997 2.209,0 3.997,1.788 3.997,3.997 v 31.975 c 0,6.612 5.379,11.991 11.991,11.991 h 31.975 c 6.612,0 11.99,-5.378 11.99,-11.991 v -23.981 c 0,-2.209 1.788,-3.997 3.997,-3.997 2.209,0 3.997,1.787 3.997,3.997 v 23.981 c -0.001,11.023 -8.966,19.984 -19.985,19.984 z"
     id="path220"
     inkscape:connector-curvature="0" /><path
     style="fill:#3a3847"
     d="M 235.815,163.872 H 203.84 c -11.019,0 -19.984,-8.961 -19.984,-19.984 v -23.185 c 0,-2.209 1.788,-3.997 3.997,-3.997 2.209,0 3.997,1.788 3.997,3.997 v 23.185 c 0,6.612 5.378,11.991 11.991,11.991 h 31.975 c 6.612,0 11.991,-5.378 11.991,-11.991 v -23.981 c 0,-2.209 1.788,-3.997 3.997,-3.997 2.209,0 3.997,1.787 3.997,3.997 v 23.981 c -0.002,11.023 -8.968,19.984 -19.986,19.984 z"
     id="path222"
     inkscape:connector-curvature="0" /><path
     style="fill:#3a3847"
     d="M 323.745,163.872 H 291.77 c -11.022,0 -19.984,-8.961 -19.984,-19.984 v -23.981 c 0,-2.209 1.788,-3.997 3.997,-3.997 2.209,0 3.997,1.787 3.997,3.997 v 23.981 c 0,6.612 5.378,11.991 11.99,11.991 h 31.975 c 6.612,0 11.991,-5.378 11.991,-11.991 v -23.981 c 0,-2.209 1.787,-3.997 3.997,-3.997 2.209,0 3.996,1.787 3.996,3.997 v 23.981 c 0.001,11.023 -8.96,19.984 -19.984,19.984 z"
     id="path224"
     inkscape:connector-curvature="0" /><path
     style="fill:#3a3847"
     d="m 411.677,163.872 h -31.976 c -11.022,0 -19.984,-8.961 -19.984,-19.984 v -23.981 c 0,-2.209 1.788,-3.997 3.997,-3.997 2.209,0 3.997,1.787 3.997,3.997 v 23.981 c 0,6.612 5.378,11.991 11.99,11.991 h 31.976 c 6.611,0 11.99,-5.378 11.99,-11.991 v -23.981 c 0,-2.209 1.787,-3.997 3.997,-3.997 2.209,0 3.997,1.787 3.997,3.997 v 23.981 c 0,11.023 -8.962,19.984 -19.984,19.984 z"
     id="path226"
     inkscape:connector-curvature="0" /><path
     style="fill:#3a3847"
     d="M 235.815,139.891 H 203.84 c -10.602,0 -19.376,-8.33 -19.977,-18.961 -0.004,-0.078 -0.008,-0.945 -0.008,-1.023 V 87.932 c 0,-11.022 8.966,-19.984 19.984,-19.984 h 31.975 c 11.019,0 19.984,8.962 19.984,19.984 v 31.975 c 0.001,11.023 -8.965,19.984 -19.983,19.984 z M 203.84,75.942 c -6.612,0 -11.991,5.378 -11.991,11.99 v 31.975 c 0.355,6.971 5.625,11.991 11.991,11.991 h 31.975 c 6.612,0 11.991,-5.379 11.991,-11.991 V 87.932 c 0,-6.612 -5.378,-11.99 -11.991,-11.99 0,0 -31.975,0 -31.975,0 z"
     id="path228"
     inkscape:connector-curvature="0" /><path
     style="fill:#3a3847"
     d="M 323.745,139.891 H 291.77 c -11.022,0 -19.984,-8.961 -19.984,-19.984 V 87.932 c 0,-11.022 8.962,-19.984 19.984,-19.984 h 31.975 c 11.023,0 19.984,8.962 19.984,19.984 v 31.975 c 0.001,11.023 -8.96,19.984 -19.984,19.984 z M 291.771,75.942 c -6.612,0 -11.99,5.378 -11.99,11.99 v 31.975 c 0,6.612 5.378,11.991 11.99,11.991 h 31.975 c 6.612,0 11.991,-5.379 11.991,-11.991 V 87.932 c 0,-6.612 -5.379,-11.99 -11.991,-11.99 0,0 -31.975,0 -31.975,0 z"
     id="path230"
     inkscape:connector-curvature="0" /><path
     style="fill:#3a3847"
     d="m 411.677,139.891 h -31.976 c -11.022,0 -19.984,-8.961 -19.984,-19.984 V 87.932 c 0,-11.022 8.962,-19.984 19.984,-19.984 h 31.976 c 11.022,0 19.984,8.962 19.984,19.984 v 31.975 c 0,11.023 -8.962,19.984 -19.984,19.984 z M 379.701,75.942 c -6.612,0 -11.99,5.378 -11.99,11.99 v 31.975 c 0,6.612 5.378,11.991 11.99,11.991 h 31.976 c 6.611,0 11.99,-5.379 11.99,-11.991 V 87.932 c 0,-6.612 -5.379,-11.99 -11.99,-11.99 0,0 -31.976,0 -31.976,0 z"
     id="path232"
     inkscape:connector-curvature="0" /><path
     style="fill:#3a3847"
     d="M 235.815,123.904 H 203.84 c -2.209,0 -3.997,-1.787 -3.997,-3.997 V 87.932 c 0,-2.209 1.788,-3.997 3.997,-3.997 h 31.975 c 2.209,0 3.997,1.788 3.997,3.997 v 31.975 c 0,2.209 -1.788,3.997 -3.997,3.997 z m -27.978,-7.994 h 23.981 V 91.929 h -23.981 z"
     id="path234"
     inkscape:connector-curvature="0" /><path
     style="fill:#3a3847"
     d="m 307.758,123.904 c -1.022,0 -2.045,-0.39 -2.825,-1.171 l -15.988,-15.987 c -1.561,-1.561 -1.561,-4.09 0,-5.651 l 15.988,-15.988 c 1.561,-1.561 4.09,-1.561 5.651,0 l 15.987,15.988 c 1.562,1.561 1.562,4.09 0,5.651 l -15.987,15.987 c -0.78,0.781 -1.804,1.171 -2.826,1.171 z m -10.335,-19.984 10.335,10.335 10.336,-10.335 -10.336,-10.335 z"
     id="path236"
     inkscape:connector-curvature="0" /><path
     style="fill:#3a3847"
     d="m 379.701,123.904 c -1.022,0 -2.045,-0.39 -2.825,-1.171 -1.562,-1.561 -1.562,-4.09 0,-5.651 l 31.975,-31.975 c 1.561,-1.561 4.09,-1.561 5.651,0 1.561,1.561 1.562,4.09 0,5.652 l -31.975,31.975 c -0.78,0.78 -1.803,1.17 -2.826,1.17 z"
     id="path238"
     inkscape:connector-curvature="0" /><path
     style="fill:#3a3847"
     d="m 407.68,127.901 c -1.022,0 -2.046,-0.39 -2.826,-1.171 -1.562,-1.562 -1.562,-4.091 0,-5.652 l 7.993,-7.994 c 1.562,-1.562 4.091,-1.562 5.652,0 1.561,1.562 1.562,4.091 0,5.652 l -7.994,7.994 c -0.78,0.78 -1.803,1.171 -2.825,1.171 z"
     id="path240"
     inkscape:connector-curvature="0" /><path
     style="fill:#3a3847"
     d="m 375.704,95.926 c -1.022,0 -2.045,-0.391 -2.825,-1.171 -1.562,-1.562 -1.562,-4.091 0,-5.652 l 7.993,-7.993 c 1.562,-1.562 4.091,-1.562 5.652,0 1.561,1.561 1.561,4.09 0,5.651 l -7.994,7.994 c -0.78,0.78 -1.802,1.171 -2.826,1.171 z"
     id="path242"
     inkscape:connector-curvature="0" /><path
     style="fill:#3a3847"
     d="m 137.736,203.841 c -1.374,0 -2.713,-0.71 -3.454,-1.983 -2.167,-3.708 -6.144,-6.011 -10.379,-6.011 h -15.987 c -2.084,0 -4.204,0.57 -5.972,1.608 -1.909,1.093 -4.356,0.461 -5.473,-1.429 -1.112,-1.904 -0.476,-4.355 1.429,-5.472 3.021,-1.765 6.483,-2.701 10.016,-2.701 h 15.987 c 7.065,0 13.688,3.825 17.279,9.977 1.112,1.904 0.473,4.355 -1.437,5.464 -0.632,0.375 -1.326,0.547 -2.009,0.547 z"
     id="path268"
     inkscape:connector-curvature="0" /><path
     style="fill:#3a3847"
     d="m 123.903,275.784 h -15.987 c -3.431,0 -6.877,-0.921 -9.965,-2.678 -1.92,-1.085 -2.596,-3.521 -1.507,-5.44 1.089,-1.929 3.524,-2.615 5.449,-1.507 1.912,1.085 3.938,1.631 6.022,1.631 h 15.987 c 4.302,0 8.181,-2.248 10.379,-6.01 1.116,-1.905 3.567,-2.561 5.464,-1.438 1.909,1.109 2.549,3.561 1.437,5.465 -3.646,6.245 -10.106,9.977 -17.279,9.977 z"
     id="path270"
     inkscape:connector-curvature="0" /><path
     style="fill:#3a3847"
     d="m 179.855,227.822 c -0.601,0 -1.21,-0.133 -1.784,-0.422 -6.936,-3.474 -14.781,-6.503 -23.322,-9.017 -9.859,-2.771 -20.405,-4.832 -31.311,-6.097 -10.21,-1.241 -20.796,-1.834 -31.475,-1.733 -14.036,0.078 -23.423,1.233 -23.517,1.249 -2.116,0.304 -4.188,-1.272 -4.466,-3.466 -0.277,-2.186 1.276,-4.192 3.466,-4.465 0.398,-0.047 9.918,-1.233 24.458,-1.312 11.054,-0.086 21.947,0.508 32.479,1.788 11.303,1.319 22.271,3.458 32.576,6.354 9.04,2.654 17.33,5.863 24.688,9.547 1.975,0.991 2.775,3.388 1.788,5.363 -0.703,1.399 -2.113,2.211 -3.58,2.211 z"
     id="path272"
     inkscape:connector-curvature="0" /><path
     style="fill:#3a3847"
     d="m 155.951,252.365 c -1.74,0 -3.341,-1.147 -3.84,-2.904 -0.605,-2.123 0.628,-4.332 2.751,-4.934 8.255,-2.35 16.065,-5.355 23.208,-8.93 1.967,-0.992 4.375,-0.18 5.363,1.788 0.988,1.975 0.188,4.372 -1.788,5.363 -7.583,3.794 -15.862,6.979 -24.598,9.461 -0.365,0.11 -0.732,0.156 -1.096,0.156 z"
     id="path274"
     inkscape:connector-curvature="0" /><path
     style="fill:#3a3847"
     d="m 94.141,260.444 c -0.749,0 -1.499,0 -2.248,-0.008 -14.528,-0.078 -24.048,-1.264 -24.446,-1.311 -2.19,-0.273 -3.743,-2.28 -3.466,-4.466 0.277,-2.193 2.362,-3.724 4.466,-3.466 0.094,0.016 9.48,1.171 23.505,1.249 10.644,0.117 21.276,-0.5 31.471,-1.726 10.921,-1.272 21.467,-3.333 31.374,-6.12 2.112,-0.577 4.337,0.641 4.93,2.764 0.598,2.131 -0.64,4.333 -2.767,4.934 -10.304,2.896 -21.272,5.035 -32.591,6.362 -9.807,1.188 -19.966,1.788 -30.228,1.788 z"
     id="path276"
     inkscape:connector-curvature="0" /><path
     style="fill:#3a3847"
     d="m 67.946,259.156 c -2.209,0 -3.997,-1.788 -3.997,-3.997 v -47.322 c 0,-2.209 1.788,-3.997 3.997,-3.997 2.209,0 3.997,1.788 3.997,3.997 v 47.322 c 0.001,2.209 -1.788,3.997 -3.997,3.997 z"
     id="path278"
     inkscape:connector-curvature="0" /><path
     style="fill:#3a3847"
     d="m 203.84,259.156 c -2.209,0 -3.997,-1.788 -3.997,-3.997 v -47.322 c 0,-2.209 1.788,-3.997 3.997,-3.997 2.209,0 3.997,1.788 3.997,3.997 v 47.322 c 0,2.209 -1.788,3.997 -3.997,3.997 z"
     id="path280"
     inkscape:connector-curvature="0" /><path
     style="fill:#3a3847"
     d="m 339.734,259.156 c -2.21,0 -3.997,-1.788 -3.997,-3.997 v -47.322 c 0,-2.209 1.787,-3.997 3.997,-3.997 2.209,0 3.996,1.788 3.996,3.997 v 47.322 c 0,2.209 -1.787,3.997 -3.996,3.997 z"
     id="path282"
     inkscape:connector-curvature="0" /><path
     style="fill:#3a3847"
     d="m 179.859,243.169 c -2.209,0 -3.997,-1.787 -3.997,-3.997 v -15.347 c 0,-2.209 1.788,-3.997 3.997,-3.997 2.209,0 3.997,1.788 3.997,3.997 v 15.347 c 0,2.21 -1.788,3.997 -3.997,3.997 z"
     id="path284"
     inkscape:connector-curvature="0" /><path
     style="fill:#3a3847"
     d="m 91.924,259.797 c -0.796,0 -1.597,-0.234 -2.299,-0.726 -1.804,-1.273 -2.237,-3.771 -0.964,-5.574 0.281,-0.406 7.077,-10.453 0.136,-19.196 -8.552,-10.765 -3.829,-23.521 -0.136,-28.766 1.265,-1.804 3.763,-2.241 5.57,-0.968 1.799,1.272 2.232,3.763 0.972,5.566 -0.339,0.492 -7.057,10.5 -0.145,19.204 8.552,10.765 3.829,23.521 0.137,28.766 -0.777,1.1 -2.014,1.694 -3.271,1.694 z"
     id="path286"
     inkscape:connector-curvature="0" /><path
     style="fill:#3a3847"
     d="m 123.899,258.681 c -0.819,0 -1.643,-0.25 -2.357,-0.773 -1.78,-1.303 -2.166,-3.801 -0.862,-5.581 0.277,-0.391 6.971,-9.93 0.128,-18.298 -8.63,-10.555 -3.86,-22.982 -0.128,-28.072 1.3,-1.779 3.802,-2.17 5.585,-0.866 1.776,1.296 2.167,3.786 0.875,5.566 v 0 c -0.289,0.406 -6.983,9.945 -0.141,18.314 8.63,10.554 3.86,22.981 0.129,28.071 -0.782,1.069 -1.996,1.639 -3.229,1.639 z"
     id="path288"
     inkscape:connector-curvature="0" /><path
     style="fill:#3a3847"
     d="m 155.897,252.389 c -1.019,0 -2.037,-0.383 -2.806,-1.155 -1.561,-1.562 -1.6,-4.052 -0.039,-5.613 0.858,-0.859 2.864,-3.458 2.794,-6.066 -0.043,-1.647 -0.906,-3.208 -2.639,-4.762 -3.318,-2.958 -5.152,-6.596 -5.296,-10.492 -0.254,-6.792 4.543,-11.959 5.09,-12.529 1.542,-1.585 4.071,-1.616 5.651,-0.094 1.585,1.522 1.632,4.043 0.117,5.636 -0.843,0.89 -2.994,3.841 -2.869,6.722 0.074,1.709 0.937,3.278 2.639,4.801 4.251,3.817 5.227,7.814 5.301,10.5 0.168,6.3 -4.185,10.983 -5.059,11.858 -0.788,0.788 -1.838,1.194 -2.884,1.194 z"
     id="path290"
     inkscape:connector-curvature="0" /><path
     style="fill:#3a3847"
     d="m 273.628,203.841 c -1.373,0 -2.716,-0.71 -3.449,-1.983 -2.202,-3.762 -6.082,-6.011 -10.383,-6.011 h -15.988 c -2.084,0 -4.204,0.57 -5.972,1.608 -1.913,1.093 -4.356,0.461 -5.472,-1.429 -1.112,-1.904 -0.477,-4.355 1.429,-5.472 3.021,-1.765 6.483,-2.701 10.015,-2.701 h 15.988 c 7.174,0 13.63,3.731 17.283,9.977 1.108,1.904 0.469,4.355 -1.437,5.464 -0.639,0.375 -1.326,0.547 -2.014,0.547 z"
     id="path292"
     inkscape:connector-curvature="0" /><path
     style="fill:#3a3847"
     d="m 259.796,275.784 h -15.988 c -3.431,0 -6.877,-0.921 -9.965,-2.678 -1.92,-1.085 -2.595,-3.521 -1.506,-5.44 1.093,-1.929 3.517,-2.615 5.449,-1.507 1.913,1.085 3.938,1.631 6.022,1.631 h 15.988 c 4.301,0 8.181,-2.248 10.383,-6.01 1.107,-1.905 3.559,-2.561 5.464,-1.438 1.905,1.109 2.545,3.561 1.437,5.465 -3.654,6.245 -10.11,9.977 -17.284,9.977 z"
     id="path294"
     inkscape:connector-curvature="0" /><path
     style="fill:#3a3847"
     d="m 315.752,227.822 c -0.609,0 -1.218,-0.133 -1.788,-0.422 -6.939,-3.474 -14.777,-6.503 -23.317,-9.017 -9.867,-2.771 -20.406,-4.832 -31.315,-6.097 -10.211,-1.241 -20.765,-1.834 -31.475,-1.733 -14.036,0.078 -23.423,1.233 -23.517,1.249 -2.119,0.304 -4.188,-1.272 -4.465,-3.466 -0.277,-2.186 1.276,-4.192 3.466,-4.465 0.398,-0.047 9.918,-1.233 24.458,-1.312 11.065,-0.086 21.944,0.508 32.478,1.788 11.308,1.319 22.269,3.458 32.572,6.354 9.04,2.654 17.33,5.863 24.691,9.547 1.976,0.991 2.771,3.388 1.788,5.363 -0.704,1.399 -2.108,2.211 -3.576,2.211 z"
     id="path296"
     inkscape:connector-curvature="0" /><path
     style="fill:#3a3847"
     d="m 291.849,252.365 c -1.749,0 -3.341,-1.147 -3.841,-2.904 -0.608,-2.123 0.624,-4.332 2.748,-4.934 8.259,-2.35 16.065,-5.355 23.208,-8.93 1.975,-0.992 4.372,-0.18 5.363,1.788 0.983,1.975 0.188,4.372 -1.788,5.363 -7.58,3.794 -15.862,6.979 -24.598,9.461 -0.367,0.11 -0.733,0.156 -1.092,0.156 z"
     id="path298"
     inkscape:connector-curvature="0" /><path
     style="fill:#3a3847"
     d="m 230.034,260.444 c -0.75,0 -1.499,0 -2.249,-0.008 -14.528,-0.078 -24.047,-1.264 -24.446,-1.311 -2.189,-0.273 -3.743,-2.28 -3.466,-4.466 0.277,-2.193 2.361,-3.724 4.465,-3.466 0.094,0.016 9.481,1.171 23.505,1.249 10.656,0.117 21.276,-0.5 31.471,-1.726 10.925,-1.272 21.464,-3.333 31.378,-6.12 2.115,-0.577 4.325,0.641 4.926,2.764 0.601,2.131 -0.64,4.333 -2.771,4.934 -10.304,2.896 -21.265,5.035 -32.588,6.362 -9.804,1.188 -19.963,1.788 -30.225,1.788 z"
     id="path300"
     inkscape:connector-curvature="0" /><path
     style="fill:#3a3847"
     d="m 315.752,243.169 c -2.21,0 -3.997,-1.787 -3.997,-3.997 v -15.347 c 0,-2.209 1.787,-3.997 3.997,-3.997 2.209,0 3.997,1.788 3.997,3.997 v 15.347 c 0,2.21 -1.788,3.997 -3.997,3.997 z"
     id="path302"
     inkscape:connector-curvature="0" /><path
     style="fill:#3a3847"
     d="m 227.817,259.797 c -0.8,0 -1.608,-0.242 -2.311,-0.741 -1.799,-1.273 -2.221,-3.771 -0.944,-5.574 0.285,-0.406 7.131,-10.437 0.141,-19.165 -8.563,-10.781 -3.841,-23.536 -0.148,-28.782 1.269,-1.804 3.763,-2.241 5.57,-0.968 1.799,1.272 2.233,3.763 0.972,5.566 -0.34,0.492 -7.061,10.5 -0.145,19.204 8.626,10.765 3.856,23.536 0.129,28.782 -0.782,1.092 -2.015,1.678 -3.264,1.678 z"
     id="path304"
     inkscape:connector-curvature="0" /><path
     style="fill:#3a3847"
     d="m 259.792,258.681 c -0.82,0 -1.644,-0.25 -2.357,-0.773 -1.78,-1.303 -2.167,-3.801 -0.863,-5.581 0.277,-0.391 6.972,-9.93 0.129,-18.298 -8.63,-10.555 -3.86,-22.982 -0.129,-28.072 1.3,-1.779 3.79,-2.17 5.586,-0.866 1.775,1.296 2.166,3.786 0.874,5.566 v 0 c -0.289,0.406 -6.982,9.945 -0.141,18.314 8.63,10.554 3.86,22.981 0.129,28.071 -0.781,1.069 -1.994,1.639 -3.228,1.639 z"
     id="path306"
     inkscape:connector-curvature="0" /><path
     style="fill:#3a3847"
     d="m 291.786,252.389 c -1.015,0 -2.029,-0.383 -2.803,-1.155 -1.561,-1.562 -1.6,-4.052 -0.039,-5.613 0.859,-0.859 2.865,-3.458 2.795,-6.066 -0.047,-1.647 -0.905,-3.208 -2.639,-4.762 -3.317,-2.958 -5.152,-6.596 -5.293,-10.492 -0.258,-6.792 4.544,-11.959 5.09,-12.529 1.53,-1.585 4.06,-1.616 5.652,-0.094 1.576,1.522 1.623,4.043 0.109,5.636 -0.844,0.89 -2.99,3.841 -2.865,6.722 0.07,1.709 0.937,3.278 2.639,4.801 4.254,3.817 5.223,7.814 5.301,10.5 0.172,6.3 -4.185,10.983 -5.059,11.858 -0.788,0.788 -1.842,1.194 -2.888,1.194 z"
     id="path308"
     inkscape:connector-curvature="0" /><path
     style="fill:#3a3847"
     d="m 409.522,203.841 c -1.374,0 -2.716,-0.71 -3.45,-1.983 -2.201,-3.762 -6.081,-6.011 -10.383,-6.011 h -15.987 c -2.084,0 -4.199,0.57 -5.972,1.608 -1.912,1.093 -4.348,0.461 -5.473,-1.429 -1.108,-1.904 -0.476,-4.355 1.429,-5.472 3.021,-1.765 6.487,-2.701 10.016,-2.701 h 15.987 c 7.174,0 13.631,3.731 17.283,9.977 1.109,1.904 0.469,4.355 -1.436,5.464 -0.64,0.375 -1.327,0.547 -2.014,0.547 z"
     id="path310"
     inkscape:connector-curvature="0" /><path
     style="fill:#3a3847"
     d="m 395.689,275.784 h -15.987 c -3.435,0 -6.877,-0.921 -9.961,-2.678 -1.92,-1.085 -2.6,-3.521 -1.515,-5.44 1.102,-1.929 3.529,-2.615 5.449,-1.507 1.92,1.085 3.942,1.631 6.026,1.631 h 15.987 c 4.302,0 8.182,-2.248 10.383,-6.01 1.108,-1.905 3.56,-2.561 5.465,-1.438 1.904,1.109 2.545,3.561 1.436,5.465 -3.652,6.245 -10.11,9.977 -17.283,9.977 z"
     id="path312"
     inkscape:connector-curvature="0" /><path
     style="fill:#3a3847"
     d="m 451.645,227.822 c -0.608,0 -1.218,-0.133 -1.787,-0.422 -6.94,-3.474 -14.777,-6.503 -23.317,-9.017 -9.867,-2.771 -20.406,-4.832 -31.319,-6.097 -10.203,-1.241 -20.788,-1.834 -31.476,-1.733 -14.035,0.078 -23.419,1.233 -23.513,1.249 -2.123,0.304 -4.185,-1.272 -4.466,-3.466 -0.28,-2.186 1.281,-4.192 3.467,-4.465 0.398,-0.047 9.914,-1.233 24.457,-1.312 11.077,-0.086 21.943,0.508 32.482,1.788 11.304,1.319 22.264,3.458 32.568,6.354 9.039,2.654 17.33,5.863 24.691,9.547 1.975,0.991 2.771,3.388 1.787,5.363 -0.701,1.399 -2.107,2.211 -3.574,2.211 z"
     id="path314"
     inkscape:connector-curvature="0" /><path
     style="fill:#3a3847"
     d="m 427.741,252.365 c -1.748,0 -3.341,-1.147 -3.84,-2.904 -0.609,-2.123 0.624,-4.332 2.748,-4.934 8.259,-2.35 16.064,-5.355 23.208,-8.93 1.975,-0.992 4.363,-0.18 5.362,1.788 0.984,1.975 0.188,4.372 -1.787,5.363 -7.58,3.794 -15.862,6.979 -24.598,9.461 -0.366,0.11 -0.733,0.156 -1.093,0.156 z"
     id="path316"
     inkscape:connector-curvature="0" /><path
     style="fill:#3a3847"
     d="m 365.931,260.444 c -0.749,0 -1.498,0 -2.248,-0.008 -14.535,-0.078 -24.051,-1.264 -24.449,-1.311 -2.186,-0.273 -3.747,-2.28 -3.467,-4.466 0.281,-2.193 2.358,-3.724 4.466,-3.466 0.094,0.016 9.478,1.171 23.505,1.249 10.672,0.117 21.272,-0.5 31.468,-1.726 10.929,-1.272 21.468,-3.333 31.382,-6.12 2.107,-0.577 4.332,0.641 4.926,2.764 0.601,2.131 -0.641,4.333 -2.771,4.934 -10.305,2.896 -21.265,5.035 -32.584,6.362 -9.806,1.188 -19.97,1.788 -30.228,1.788 z"
     id="path318"
     inkscape:connector-curvature="0" /><path
     style="fill:#3a3847"
     d="m 451.645,243.169 c -2.209,0 -3.997,-1.787 -3.997,-3.997 v -15.347 c 0,-2.209 1.788,-3.997 3.997,-3.997 2.21,0 3.997,1.788 3.997,3.997 v 15.347 c 0,2.21 -1.787,3.997 -3.997,3.997 z"
     id="path320"
     inkscape:connector-curvature="0" /><path
     style="fill:#3a3847"
     d="m 363.714,259.797 c -0.804,0 -1.607,-0.242 -2.311,-0.741 -1.803,-1.273 -2.225,-3.771 -0.952,-5.574 0.288,-0.406 7.135,-10.437 0.141,-19.165 -8.556,-10.781 -3.841,-23.536 -0.141,-28.782 1.265,-1.804 3.747,-2.241 5.565,-0.968 1.804,1.272 2.232,3.763 0.977,5.566 -0.344,0.492 -7.065,10.5 -0.148,19.204 8.626,10.765 3.855,23.536 0.133,28.782 -0.782,1.092 -2.015,1.678 -3.264,1.678 z"
     id="path322"
     inkscape:connector-curvature="0" /><path
     style="fill:#3a3847"
     d="m 395.689,258.681 c -0.827,0 -1.646,-0.25 -2.357,-0.773 -1.779,-1.303 -2.17,-3.801 -0.866,-5.581 0.273,-0.391 6.971,-9.93 0.133,-18.298 -8.634,-10.555 -3.864,-22.982 -0.133,-28.072 1.304,-1.779 3.794,-2.17 5.581,-0.866 1.78,1.296 2.171,3.786 0.875,5.566 v 0 c -0.281,0.406 -6.979,9.945 -0.141,18.314 8.634,10.554 3.864,22.981 0.133,28.071 -0.782,1.069 -1.991,1.639 -3.225,1.639 z"
     id="path324"
     inkscape:connector-curvature="0" /><path
     style="fill:#3a3847"
     d="m 427.68,252.389 c -1.015,0 -2.03,-0.383 -2.803,-1.155 -1.562,-1.562 -1.601,-4.052 -0.039,-5.613 0.858,-0.859 2.864,-3.458 2.795,-6.066 -0.047,-1.647 -0.905,-3.208 -2.639,-4.762 -3.317,-2.958 -5.152,-6.596 -5.293,-10.492 -0.258,-6.792 4.544,-11.959 5.09,-12.529 1.53,-1.585 4.06,-1.616 5.651,-0.094 1.577,1.522 1.624,4.043 0.109,5.636 -0.843,0.89 -2.989,3.841 -2.864,6.722 0.069,1.709 0.937,3.278 2.638,4.801 4.255,3.817 5.223,7.814 5.301,10.5 0.172,6.3 -4.184,10.983 -5.059,11.858 -0.788,0.788 -1.841,1.194 -2.887,1.194 z"
     id="path326"
     inkscape:connector-curvature="0" /></g><path
   inkscape:connector-curvature="0"
   id="path328"
   d="m 64.699881,480.33116 c -35.127314,0 -63.70006424,-28.57381 -63.70006424,-63.699 0,-35.12732 28.57381324,-63.70007 63.70006424,-63.70007 35.126253,0 63.700069,28.57382 63.700069,63.70007 -9.8e-4,35.12625 -28.574875,63.699 -63.700069,63.699 z m 0,-118.90544 c -30.439564,0 -55.20644,24.76793 -55.20644,55.2075 0,30.43957 24.766876,55.20644 55.20644,55.20644 30.439569,0 55.206449,-24.76687 55.206449,-55.20644 0,-30.43957 -24.76688,-55.2075 -55.206449,-55.2075 z"
   style="fill:#3a3847;stroke-width:1.0625" /><path
   inkscape:connector-curvature="0"
   id="path330"
   d="m 64.699881,463.34496 c -25.758188,0 -46.713877,-20.95992 -46.713877,-46.7128 0,-25.75394 20.955689,-46.71388 46.713877,-46.71388 25.757122,0 46.712819,20.95994 46.712819,46.71388 -9.8e-4,25.755 -20.955697,46.7128 -46.712819,46.7128 z m 0,-84.93199 c -21.075751,0 -38.220251,17.1445 -38.220251,38.22025 0,21.07575 17.1445,38.22024 38.220251,38.22024 21.075754,0 38.220249,-17.14449 38.220249,-38.22024 0,-21.07575 -17.144495,-38.22025 -38.220249,-38.22025 z"
   style="fill:#3a3847;stroke-width:1.0625" /><path
   inkscape:connector-curvature="0"
   id="path332"
   d="M 506.3514,395.39915 H 183.60639 c -2.34706,0 -4.24681,-1.89975 -4.24681,-4.2468 0,-2.34706 1.89975,-4.24681 4.24681,-4.24681 h 322.74607 c 2.34813,0 4.24682,1.89975 4.24682,4.24681 0,2.34705 -1.89975,4.2468 -4.24788,4.2468 z"
   style="fill:#3a3847;stroke-width:1.0625" /><path
   inkscape:connector-curvature="0"
   id="path334"
   d="M 506.3514,412.38535 H 183.60639 c -2.34706,0 -4.24681,-1.89975 -4.24681,-4.24682 0,-2.34707 1.89975,-4.24682 4.24681,-4.24682 h 322.74607 c 2.34813,0 4.24682,1.89975 4.24682,4.24682 0,2.34707 -1.89975,4.24682 -4.24788,4.24682 z"
   style="fill:#3a3847;stroke-width:1.0625" /><path
   inkscape:connector-curvature="0"
   id="path336"
   d="m 506.3514,412.38535 c -2.34706,0 -4.24681,-1.89975 -4.24681,-4.24682 v -16.98618 c 0,-2.34706 1.89975,-4.24681 4.24681,-4.24681 2.34813,0 4.24681,1.89975 4.24681,4.24681 v 16.98618 c 9.8e-4,2.34707 -1.89868,4.24682 -4.24681,4.24682 z"
   style="fill:#3a3847;stroke-width:1.0625" /><path
   inkscape:connector-curvature="0"
   id="path338"
   d="m 158.12551,403.89278 c -1.77968,0 -3.43399,-1.12837 -4.02687,-2.90275 -0.74268,-2.22275 0.46113,-4.62719 2.68281,-5.37518 l 25.47981,-8.49256 c 2.23551,-0.75438 4.62719,0.46537 5.36988,2.68705 0.74269,2.2217 -0.46007,4.62825 -2.68281,5.37519 l -25.47981,8.49257 c -0.44732,0.14875 -0.89887,0.21568 -1.34301,0.21568 z"
   style="fill:#3a3847;stroke-width:1.0625" /><path
   inkscape:connector-curvature="0"
   id="path340"
   d="m 183.60639,412.38535 c -0.44412,0 -0.89675,-0.0669 -1.34407,-0.21569 l -25.4798,-8.49363 c -2.22275,-0.74587 -3.42551,-3.15138 -2.68282,-5.37519 0.73844,-2.22274 3.12269,-3.44143 5.37094,-2.68705 l 25.47981,8.49361 c 2.22275,0.74694 3.4255,3.15245 2.68282,5.37519 -0.59394,1.77545 -2.24826,2.90276 -4.02688,2.90276 z"
   style="fill:#3a3847;stroke-width:1.0625" /><path
   inkscape:connector-curvature="0"
   id="path342"
   d="M 480.87159,446.35879 H 158.12551 c -2.34705,0 -4.2468,-1.8987 -4.2468,-4.24575 0,-2.34812 1.89975,-4.24787 4.2468,-4.24787 h 322.74608 c 2.34812,0 4.24681,1.89975 4.24681,4.24787 0,2.34811 -1.89869,4.24575 -4.24681,4.24575 z"
   style="fill:#3a3847;stroke-width:1.0625" /><path
   inkscape:connector-curvature="0"
   id="path344"
   d="M 480.87159,429.37259 H 158.12551 c -2.34705,0 -4.2468,-1.89975 -4.2468,-4.24681 0,-2.34706 1.89975,-4.24575 4.2468,-4.24575 h 322.74608 c 2.34812,0 4.24681,1.89869 4.24681,4.24575 0,2.34706 -1.89869,4.24681 -4.24681,4.24681 z"
   style="fill:#3a3847;stroke-width:1.0625" /><path
   inkscape:connector-curvature="0"
   id="path346"
   d="m 158.12551,446.35879 c -2.34705,0 -4.2468,-1.8987 -4.2468,-4.24575 v -16.98726 c 0,-2.34706 1.89975,-4.24575 4.2468,-4.24575 2.34706,0 4.24681,1.89869 4.24681,4.24575 v 16.98726 c 0,2.34811 -1.89975,4.24575 -4.24681,4.24575 z"
   style="fill:#3a3847;stroke-width:1.0625" /><path
   inkscape:connector-curvature="0"
   id="path348"
   d="m 480.87159,446.35879 c -1.77437,0 -3.43293,-1.12838 -4.03006,-2.90275 -0.73844,-2.22275 0.46431,-4.62719 2.68706,-5.3752 l 25.47875,-8.49256 c 2.23868,-0.73737 4.62825,0.47175 5.37519,2.68707 0.73843,2.22274 -0.46538,4.62719 -2.68706,5.37519 l -25.47876,8.49255 c -0.44837,0.14983 -0.89675,0.2157 -1.34512,0.2157 z"
   style="fill:#3a3847;stroke-width:1.0625" /><path
   inkscape:connector-curvature="0"
   id="path350"
   d="m 506.3514,437.86623 c -0.44731,0 -0.89569,-0.0659 -1.34406,-0.21464 l -25.47875,-8.49361 c -2.22381,-0.74588 -3.42656,-3.15139 -2.68706,-5.3752 0.74587,-2.21425 3.13438,-3.43293 5.37518,-2.68706 l 25.47876,8.49362 c 2.22274,0.74587 3.42656,3.15139 2.68706,5.3752 -0.59712,1.77437 -2.25569,2.90169 -4.03113,2.90169 z"
   style="fill:#3a3847;stroke-width:1.0625" />
<g
   id="g354"
   transform="matrix(1.0625001,0,0,1.0625001,-15.987434,-27.132668)">
</g>
<g
   id="g356"
   transform="matrix(1.0625001,0,0,1.0625001,-15.987434,-27.132668)">
</g>
<g
   id="g358"
   transform="matrix(1.0625001,0,0,1.0625001,-15.987434,-27.132668)">
</g>
<g
   id="g360"
   transform="matrix(1.0625001,0,0,1.0625001,-15.987434,-27.132668)">
</g>
<g
   id="g362"
   transform="matrix(1.0625001,0,0,1.0625001,-15.987434,-27.132668)">
</g>
<g
   id="g364"
   transform="matrix(1.0625001,0,0,1.0625001,-15.987434,-27.132668)">
</g>
<g
   id="g366"
   transform="matrix(1.0625001,0,0,1.0625001,-15.987434,-27.132668)">
</g>
<g
   id="g368"
   transform="matrix(1.0625001,0,0,1.0625001,-15.987434,-27.132668)">
</g>
<g
   id="g370"
   transform="matrix(1.0625001,0,0,1.0625001,-15.987434,-27.132668)">
</g>
<g
   id="g372"
   transform="matrix(1.0625001,0,0,1.0625001,-15.987434,-27.132668)">
</g>
<g
   id="g374"
   transform="matrix(1.0625001,0,0,1.0625001,-15.987434,-27.132668)">
</g>
<g
   id="g376"
   transform="matrix(1.0625001,0,0,1.0625001,-15.987434,-27.132668)">
</g>
<g
   id="g378"
   transform="matrix(1.0625001,0,0,1.0625001,-15.987434,-27.132668)">
</g>
<g
   id="g380"
   transform="matrix(1.0625001,0,0,1.0625001,-15.987434,-27.132668)">
</g>
<g
   id="g382"
   transform="matrix(1.0625001,0,0,1.0625001,-15.987434,-27.132668)">
</g>
</svg>