<?xml version="1.0" encoding="UTF-8" standalone="no"?>
<!-- Generator: Adobe Illustrator 19.0.0, SVG Export Plug-In . SVG Version: 6.00 Build 0)  -->

<svg
   xmlns:dc="http://purl.org/dc/elements/1.1/"
   xmlns:cc="http://creativecommons.org/ns#"
   xmlns:rdf="http://www.w3.org/1999/02/22-rdf-syntax-ns#"
   xmlns:svg="http://www.w3.org/2000/svg"
   xmlns="http://www.w3.org/2000/svg"
   xmlns:sodipodi="http://sodipodi.sourceforge.net/DTD/sodipodi-0.dtd"
   xmlns:inkscape="http://www.inkscape.org/namespaces/inkscape"
   version="1.1"
   id="Capa_1"
   x="0px"
   y="0px"
   viewBox="0 0 512.001 512.001"
   style="enable-background:new 0 0 512.001 512.001;"
   xml:space="preserve"
   sodipodi:docname="swan.svg"
   inkscape:version="0.92.4 (5da689c313, 2019-01-14)"><metadata
   id="metadata53"><rdf:RDF><cc:Work
       rdf:about=""><dc:format>image/svg+xml</dc:format><dc:type
         rdf:resource="http://purl.org/dc/dcmitype/StillImage" /><dc:title></dc:title></cc:Work></rdf:RDF></metadata><defs
   id="defs51" /><sodipodi:namedview
   pagecolor="#ffffff"
   bordercolor="#666666"
   borderopacity="1"
   objecttolerance="10"
   gridtolerance="10"
   guidetolerance="10"
   inkscape:pageopacity="0"
   inkscape:pageshadow="2"
   inkscape:window-width="1920"
   inkscape:window-height="986"
   id="namedview49"
   showgrid="false"
   inkscape:zoom="0.46093662"
   inkscape:cx="256.00049"
   inkscape:cy="256.00049"
   inkscape:window-x="-11"
   inkscape:window-y="-11"
   inkscape:window-maximized="1"
   inkscape:current-layer="g8" />
<g
   id="g8">
	<path
   style="fill:#FFBA4C;"
   d="M340.173,134.031c-18.679-19.004-54.786,37.801-80.773,4.603   c9.131,54.896-31.845,66.753-15.346,66.753C309.18,205.388,331.71,162.863,340.173,134.031z"
   id="path2" />
	<path
   style="fill:#f9f9f9"
   d="M448.434,421.992c107.36-116.666,19.52-488.512-173.265-358.77   c-17.066,11.484-24.903,20.515-15.771,75.413c25.987,33.198,62.096-23.607,80.773-4.603c4.066-13.852,4.885-24.547,5.62-25.842   c27.287-43.712,174.213,116.061,24.586,235.277c18.031-84.443-69.85-74.018-136.228-97.904   c-66.379-23.884-85.92-46.174-98.633-65.643c-19.21,37.504,18.494,98.718,18.494,98.718   c-41.346-0.002-94.049-72.155-101.039-117.748C35.713,224.251,41.701,287.871,73.9,317.506l-60.445-34.569   c3.967,74.289,26.019,118.325,47.034,142.061c6.15-0.236,13.017,0.559,20.68,2.692c59.778,16.644,55.445-23.556,135.446-3.424   c80.003,20.131,49.262-18.737,129.263,1.394c1.017,0.256,2.02,0.5,3.012,0.734C409.271,440.621,424.811,414.636,448.434,421.992z"
   id="path4" />
	<path
   style="fill:#00E7E2;"
   d="M345.879,425.66c-80.001-20.131-49.26,18.737-129.263-1.394   c-80.001-20.133-75.668,20.068-135.446,3.424c-7.662-2.134-14.53-2.929-20.68-2.692c-41.833,1.606-50.496,50.894-50.496,50.894   l492.011-1.38c-25.742-34.892-40.832-48.554-53.572-52.521c-0.002,0.002-0.004,0.004-0.006,0.006   c-22.92-7.129-38.237,17.114-94.296,5.554c-1.71-0.352-3.456-0.738-5.242-1.157C347.898,426.16,346.895,425.916,345.879,425.66z"
   id="path6" />
</g>
<path
   d="M510.049,468.579c-18.943-25.677-33.155-41.391-45.918-49.858c29.157-38.554,43.712-98.405,40.155-166.87  c-3.734-71.869-27.142-139.436-62.616-180.741c-21.724-25.295-46.886-40.093-74.788-43.983  c-30.771-4.291-63.505,5.064-97.292,27.802c-9.216,6.203-17.816,12.936-21.756,27.028c-3.513,12.565-3.004,30.002,1.702,58.3  c0.004,0.022,0.007,0.045,0.011,0.068c5.139,31.002-7.684,45.728-13.848,52.806c-3.243,3.725-7.686,8.827-4.637,15.525  c3.061,6.726,10.535,6.726,12.99,6.726c39.758,0,69.86-14.592,89.47-43.367c15.357-22.538,19.44-47.109,21.184-57.602  c0.107-0.647,0.229-1.38,0.335-1.985c1.032-1.148,2.71-2.006,6.315-1.467c17.385,2.588,48.892,33.213,60.714,77.213  c7.552,28.108,11.232,80.154-39.386,130.954c-0.881-19.53-8.908-34.578-24.223-45.618c-18.064-13.02-43.611-18.489-70.659-24.278  c-16.908-3.619-34.393-7.361-50.269-13.074c-64.354-23.156-82.083-43.992-93.649-61.703c-1.947-2.982-5.328-4.685-8.894-4.517  c-3.558,0.188-6.747,2.254-8.371,5.425c-14.164,27.653-2.236,64.726,8.055,87.621c-31.432-16.902-66.375-68.059-71.825-103.609  c-0.716-4.666-4.598-8.195-9.311-8.464c-4.709-0.252-8.971,2.798-10.212,7.351c-13.418,49.267-12.84,96.131,0.284,130.405  L18.417,274.26c-3.176-1.817-7.091-1.751-10.206,0.168c-3.114,1.919-4.932,5.388-4.737,9.041  c3.608,67.585,21.567,109.549,39.147,134.873c-12.61,4.547-23.219,13.626-31.249,26.913c-8.561,14.17-11.116,28.311-11.221,28.906  c-0.513,2.914,0.292,5.904,2.198,8.168c1.899,2.256,4.698,3.557,7.646,3.557c0.009,0,0.019,0,0.028,0l492.011-1.38  c3.767-0.011,7.207-2.138,8.901-5.502C512.627,475.641,512.285,471.609,510.049,468.579z M259.764,194.464  c5.181-8.271,10.198-20.017,10.902-36.255c2.672,0.706,5.452,1.071,8.346,1.071c1.765,0,3.571-0.132,5.416-0.396  c10.044-1.436,19.642-6.658,28.111-11.265c5.437-2.958,10.577-5.741,14.729-6.964C315.123,172.595,292.819,190.355,259.764,194.464z   M68.591,325.982c14.386,10.206,30.361,18.505,47.505,24.657c1.115,0.4,2.255,0.591,3.375,0.591c4.099,0,7.944-2.542,9.408-6.622  c1.865-5.195-0.837-10.919-6.032-12.784c-15.398-5.525-29.726-12.96-42.607-22.089c-21.957-20.647-30.87-62.453-24.841-110.114  c20.407,42.941,61.291,89.009,98.611,89.011h0.001c3.619,0,6.954-1.96,8.721-5.117c1.767-3.158,1.687-7.028-0.206-10.113  c-7.715-12.568-23.365-44.877-22.385-70.912c14.694,16.213,39.231,33.985,90.625,52.478c17.144,6.17,35.298,10.055,52.853,13.812  c24.938,5.337,48.494,10.379,63.154,20.946c10.03,7.23,20.667,19.636,13.83,51.654c-0.882,4.128,0.926,8.364,4.515,10.586  c3.59,2.221,8.187,1.947,11.488-0.682c78.825-62.805,74.415-132.401,64.77-168.297c-6.14-22.847-17.788-45.008-32.801-62.401  c-14.357-16.632-30.494-27.345-44.275-29.397c-11.445-1.703-21.279,2.563-26.986,11.707c-0.074,0.118-0.146,0.238-0.214,0.359  c-1.134,2-1.441,3.844-2.112,7.882c-0.516,3.103-1.094,6.119-1.732,9.048c-2.954-0.307-6.307-0.103-10.086,0.853  c-6.722,1.697-13.26,5.256-20.185,9.022c-17.603,9.577-26.151,12.87-34.168,4.233c-7.943-49.401-0.819-54.2,11.934-62.781  c70.665-47.557,118.266-19.386,145.756,12.621c32.692,38.066,54.306,101.151,57.818,168.755  c3.406,65.561-11.323,124.061-39.55,158.104c-0.214-0.028-0.425-0.044-0.639-0.069c-0.32-0.036-0.639-0.074-0.96-0.104  c-0.297-0.025-0.592-0.043-0.887-0.063c-0.317-0.021-0.634-0.046-0.952-0.059c-0.277-0.012-0.553-0.014-0.829-0.02  c-0.298-0.007-0.596-0.021-0.896-0.021c-0.033,0-0.065,0.003-0.097,0.003c-0.771,0.003-1.534,0.033-2.295,0.076  c-0.271,0.015-0.542,0.031-0.811,0.052c-0.7,0.052-1.396,0.115-2.09,0.198c-0.327,0.039-0.652,0.087-0.977,0.132  c-0.437,0.061-0.873,0.125-1.307,0.195c-0.547,0.09-1.093,0.186-1.638,0.289c-0.404,0.077-0.808,0.154-1.21,0.238  c-0.454,0.096-0.907,0.194-1.359,0.298c-0.217,0.05-0.433,0.102-0.65,0.153c-0.899,0.212-1.797,0.437-2.698,0.675  c-0.068,0.019-0.136,0.036-0.204,0.054c-2.174,0.58-4.358,1.216-6.58,1.87c-3.438,1.013-7.049,2.075-10.98,3.012  c-0.16,0.038-0.321,0.075-0.482,0.113c-0.418,0.098-0.842,0.193-1.267,0.288c-0.282,0.063-0.564,0.125-0.849,0.186  c-0.293,0.064-0.592,0.124-0.889,0.186c-0.377,0.077-0.753,0.155-1.135,0.229c-0.105,0.02-0.212,0.039-0.317,0.059  c-1.662,0.317-3.383,0.605-5.177,0.852c-0.014,0.002-0.027,0.004-0.04,0.006c-0.614,0.084-1.236,0.162-1.867,0.236  c-0.032,0.004-0.064,0.008-0.097,0.012c-3.157,0.366-6.533,0.6-10.165,0.648c-0.158,0.002-0.315,0.005-0.475,0.007  c-0.514,0.005-1.035,0.003-1.559,0c-0.998-0.006-2.003-0.022-3.014-0.055c-0.379-0.013-0.767-0.033-1.151-0.05  c-0.818-0.035-1.641-0.08-2.469-0.133c-0.395-0.025-0.784-0.046-1.184-0.075c-1.031-0.077-2.073-0.172-3.121-0.276  c-0.5-0.049-1.004-0.103-1.513-0.159c-0.857-0.096-1.719-0.2-2.588-0.314c-0.63-0.082-1.268-0.171-1.911-0.264  c-0.826-0.12-1.655-0.245-2.493-0.382c-0.512-0.082-1.024-0.167-1.544-0.257c-1.182-0.204-2.373-0.419-3.579-0.655  c-0.309-0.061-0.628-0.13-0.939-0.192c-1.062-0.215-2.133-0.441-3.214-0.681c-0.4-0.089-0.802-0.178-1.206-0.27  c-1.372-0.313-2.755-0.64-4.16-0.993c-16.79-4.226-30.298-6.279-41.294-6.279c-13.729,0-22.015,3.151-29.326,5.933  c-6.528,2.482-12.165,4.627-22.225,4.627c-9.33,0-21.243-1.856-36.418-5.674c-16.281-4.098-30.338-6.089-42.971-6.089  c-18.091,0-30.249,4.105-40.976,7.725c-8.951,3.021-16.681,5.632-27.064,5.632c-7.144,0-15.057-1.236-24.192-3.78  c-6.465-1.8-12.752-2.823-18.727-3.049c-13.723-16.843-33.839-51.441-40.251-114.031L68.591,325.982z M23.415,465.86  c5.025-12.631,16.26-30.906,39.182-30.906c4.909,0,10.256,0.796,15.893,2.366c10.905,3.035,20.572,4.512,29.554,4.512  c13.666,0,23.728-3.395,33.458-6.681c10.169-3.433,19.774-6.676,34.583-6.676c10.968,0,23.428,1.794,38.094,5.484  c16.79,4.225,30.298,6.279,41.295,6.279c13.733,0,22.02-3.151,29.332-5.933c6.527-2.483,12.163-4.627,22.219-4.627  c9.33,0,21.241,1.857,36.415,5.674c0,0,0.001,0,0.002,0c1.664,0.419,3.29,0.804,4.895,1.166c0.209,0.048,0.419,0.098,0.627,0.145  c1.484,0.331,2.938,0.636,4.372,0.921c0.342,0.068,0.685,0.139,1.024,0.205c1.364,0.265,2.703,0.506,4.022,0.731  c0.386,0.066,0.772,0.132,1.155,0.195c1.333,0.218,2.643,0.415,3.932,0.595c0.329,0.046,0.658,0.092,0.984,0.136  c1.405,0.187,2.783,0.351,4.136,0.495c0.182,0.019,0.365,0.039,0.547,0.058c5,0.513,9.654,0.741,13.992,0.741  c17.576-0.001,30.057-3.674,40.223-6.667c5.717-1.683,9.994-2.886,13.754-3.276c0.027-0.003,0.055-0.006,0.083-0.009  c0.386-0.039,0.766-0.068,1.141-0.09c0.109-0.006,0.217-0.008,0.325-0.013c1.48-0.064,2.9,0.015,4.313,0.259  c0.132,0.023,0.264,0.048,0.397,0.074c0.149,0.029,0.299,0.064,0.449,0.096c7.599,1.708,18.312,8.9,37.992,33.462L23.415,465.86z"
   id="path10" />
<path
   d="M294.122,92.631c-5.505,0-9.995,4.49-9.995,9.995c0,5.505,4.49,9.995,9.995,9.995s9.994-4.49,9.994-9.995  C304.116,97.121,299.627,92.631,294.122,92.631z"
   id="path12" />
<path
   d="M146.801,359.205l0.124,0.026c0.688,0.143,1.372,0.212,2.049,0.212c4.635,0,8.792-3.242,9.774-7.959  c1.126-5.403-2.342-10.697-7.746-11.823l-0.438-0.088c-5.415-1.036-10.626,2.509-11.673,7.92  C137.844,352.904,141.393,358.146,146.801,359.205z"
   id="path14" />
<path
   d="M223.47,339.186c18.276,16.397,41.507,25.317,75.325,28.924c0.36,0.039,0.718,0.058,1.072,0.058  c5.043,0,9.379-3.808,9.926-8.935c0.586-5.488-3.389-10.413-8.879-10.998c-29.376-3.134-49.144-10.514-64.097-23.927  c-4.108-3.685-10.428-3.342-14.114,0.766C219.018,329.18,219.361,335.5,223.47,339.186z"
   id="path16" />
<g
   id="g18">
</g>
<g
   id="g20">
</g>
<g
   id="g22">
</g>
<g
   id="g24">
</g>
<g
   id="g26">
</g>
<g
   id="g28">
</g>
<g
   id="g30">
</g>
<g
   id="g32">
</g>
<g
   id="g34">
</g>
<g
   id="g36">
</g>
<g
   id="g38">
</g>
<g
   id="g40">
</g>
<g
   id="g42">
</g>
<g
   id="g44">
</g>
<g
   id="g46">
</g>
</svg>