<svg height="512pt" viewBox="-184 0 512 512.00005" width="512pt" xmlns="http://www.w3.org/2000/svg"><path d="m57.941406 227h30v277.5h-30zm0 0" fill="#90a4ae"/><path d="m130.421875 227h-115.847656l-7.074219-121h130zm0 0" fill="#ffc400"/><path d="m107.5 106-7.078125 121h30l7.078125-121zm0 0" fill="#ffab00"/><path d="m104.5 106h-64v-52c0-4.417969 3.582031-8 8-8h48c4.417969 0 8 3.582031 8 8zm0 0" fill="#fff7e6"/><path d="m96.5 46h-30c4.417969 0 8 3.582031 8 8v52h30v-52c0-4.417969-3.582031-8-8-8zm0 0" fill="#ebe3d4"/><path d="m40.5 76h64v30h-64zm0 0" fill="#ff4081"/><path d="m74.5 76h30v30h-30zm0 0" fill="#ed3e79"/><path d="m102.5 450h-60c-8.285156 0-15-6.71875-15-15 0-8.285156 6.714844-15 15-15h60c8.285156 0 15 6.714844 15 15 0 8.28125-6.714844 15-15 15zm0 0" fill="#ffc400"/><path d="m102.5 420h-30c8.285156 0 15 6.714844 15 15 0 8.28125-6.714844 15-15 15h30c8.285156 0 15-6.71875 15-15 0-8.285156-6.714844-15-15-15zm0 0" fill="#ffab00"/><path d="m142.957031 100.855469c-1.417969-1.503907-3.390625-2.355469-5.457031-2.355469h-25.5v-44.5c0-8.546875-6.953125-15.5-15.5-15.5h-16.5v-31c0-4.140625-3.355469-7.5-7.5-7.5s-7.5 3.359375-7.5 7.5v31h-16.5c-8.546875 0-15.5 6.953125-15.5 15.5v44.5h-25.5c-2.066406 0-4.039062.851562-5.457031 2.355469-1.417969 1.5-2.148438 3.519531-2.0312502 5.582031l7.0781252 121c.230468 3.964844 3.515625 7.0625 7.484375 7.0625h6.515625l28.074218 177.996094h-6.664062c-12.40625 0-22.5 10.09375-22.5 22.5 0 12.410156 10.09375 22.5 22.5 22.5h3.332031l-21.714843 43.660156c-1.84375 3.710938-.332032 8.210938 3.375 10.058594 3.734374 1.855468 8.222656.308594 10.054687-3.375l12.894531-25.921875v22.578125c0 4.144531 3.355469 7.5 7.5 7.5h30c4.140625 0 7.5-3.355469 7.5-7.5v-21.617188l11.96875 24.871094c1.792969 3.730469 6.277344 5.300781 10.007813 3.507812 3.734375-1.796874 5.304687-6.28125 3.507812-10.011718l-21.050781-43.75h2.625c12.40625 0 22.5-10.089844 22.5-22.5 0-12.40625-10.09375-22.5-22.5-22.5h-5.785156l28.074218-177.996094h5.632813c3.972656 0 7.257813-3.097656 7.488281-7.0625l7.078125-121c.117188-2.0625-.617187-4.082031-2.03125-5.582031zm-38.582031 102.644531h19.910156l-.9375 16c-14.648437 0-89.128906 0-101.699218 0l-.933594-16h51.785156c4.144531 0 7.5-3.359375 7.5-7.5 0-4.144531-3.355469-7.5-7.5-7.5h-52.664062l-.875-15h107.078124l-.875 15h-20.789062c-4.144531 0-7.5 3.355469-7.5 7.5 0 4.140625 3.355469 7.5 7.5 7.5zm-55.875-150h48c.273438 0 .5.222656.5.5v14.5h-49v-14.5c0-.277344.226562-.5.5-.5zm-.5 30h49v15h-49zm81.546875 30-.875 15h-56.171875c-4.144531 0-7.5 3.355469-7.5 7.5 0 4.140625 3.355469 7.5 7.5 7.5h55.292969l-.875 15h-108.835938l-.875-15h23.292969c4.144531 0 7.5-3.359375 7.5-7.5 0-4.144531-3.355469-7.5-7.5-7.5h-24.171875l-.878906-15zm-79.105469 121v53c0 4.140625 3.355469 7.5 7.5 7.5 4.140625 0 7.5-3.359375 7.5-7.5v-53h15v177.996094h-15v-92.875c0-4.140625-3.359375-7.5-7.5-7.5-4.144531 0-7.5 3.359375-7.5 7.5v4.6875l-14.167968-89.808594zm15 262.496094v-39.5h15v39.5zm44.558594-62c0 4.136718-3.363281 7.5-7.5 7.5-14.125 0-44.640625 0-60 0-4.136719 0-7.5-3.363282-7.5-7.5 0-4.132813 3.363281-7.5 7.5-7.5h60c4.136719 0 7.5 3.367187 7.5 7.5zm-14.558594-110.6875v-89.808594h14.164063zm0 0"/></svg>