<?xml version="1.0" encoding="UTF-8" standalone="no"?>
<!-- Generator: Adobe Illustrator 16.0.0, SVG Export Plug-In . SVG Version: 6.00 Build 0)  -->

<svg
   xmlns:dc="http://purl.org/dc/elements/1.1/"
   xmlns:cc="http://creativecommons.org/ns#"
   xmlns:rdf="http://www.w3.org/1999/02/22-rdf-syntax-ns#"
   xmlns:svg="http://www.w3.org/2000/svg"
   xmlns="http://www.w3.org/2000/svg"
   xmlns:sodipodi="http://sodipodi.sourceforge.net/DTD/sodipodi-0.dtd"
   xmlns:inkscape="http://www.inkscape.org/namespaces/inkscape"
   version="1.1"
   id="Capa_1"
   x="0px"
   y="0px"
   width="95.635px"
   height="95.635px"
   viewBox="0 0 95.635 95.635"
   style="enable-background:new 0 0 95.635 95.635;"
   xml:space="preserve"
   sodipodi:docname="taipei_metro.svg"
   inkscape:version="0.92.4 (5da689c313, 2019-01-14)"><metadata
   id="metadata42"><rdf:RDF><cc:Work
       rdf:about=""><dc:format>image/svg+xml</dc:format><dc:type
         rdf:resource="http://purl.org/dc/dcmitype/StillImage" /></cc:Work></rdf:RDF></metadata><defs
   id="defs40">
		
	</defs><sodipodi:namedview
   pagecolor="#ffffff"
   bordercolor="#666666"
   borderopacity="1"
   objecttolerance="10"
   gridtolerance="10"
   guidetolerance="10"
   inkscape:pageopacity="0"
   inkscape:pageshadow="2"
   inkscape:window-width="1920"
   inkscape:window-height="986"
   id="namedview38"
   showgrid="false"
   inkscape:zoom="6.9797541"
   inkscape:cx="42.909489"
   inkscape:cy="43.787209"
   inkscape:window-x="-11"
   inkscape:window-y="-11"
   inkscape:window-maximized="1"
   inkscape:current-layer="g5" />
<g
   id="g5"
   style="fill:#2c5ba3;fill-opacity:1;stroke:#000000;stroke-width:1.60000002;stroke-linecap:round;stroke-linejoin:round;stroke-miterlimit:4;stroke-dasharray:none;stroke-opacity:1;paint-order:markers fill stroke"
   transform="matrix(0.97712863,0,0,0.97712863,1.088227,1.0936541)">
	<path
   inkscape:connector-curvature="0"
   style="fill:#2c5ba3;fill-opacity:1;stroke:#000000;stroke-width:2.90419674;stroke-linecap:round;stroke-linejoin:round;stroke-miterlimit:4;stroke-dasharray:none;stroke-opacity:1;paint-order:markers fill stroke"
   id="path2"
   d="M 0.66333252,53.392402 9.9977158,39.78717 19.080483,39.80514 c 1.238215,0 1.75942,-0.358506 2.333596,-1.184298 l 7.430237,-10.787323 c 2.387513,-3.481948 3.032634,-3.159388 5.025697,-3.159388 h 23.387984 l 3.463975,4.757054 H 41.192415 c -1.937253,-0.04824 -2.359136,0.519313 -2.941826,1.435914 l -6.336748,9.189657 4.703137,0.0048 c 0.976195,0.04824 1.221189,-0.614851 1.562667,-1.027274 l 4.612328,-6.605391 c 0.88917,-1.3347 2.698723,-1.147406 3.266277,-1.166325 l 19.151189,-0.01986 5.061643,7.325239 H 46.022306 c -0.934574,0 -2.029008,0.287561 -2.998581,1.489832 l -8.203058,11.702977 c -0.860791,0.969573 -1.45294,1.328079 -3.122497,1.633613 H 0.64725179 0.66333252 Z M 94.964087,42.241658 85.631596,55.830809 76.547883,55.829864 c -1.238215,0 -1.758474,0.358505 -2.334542,1.184297 l -7.429292,10.787324 c -2.386567,3.481948 -3.033579,3.159387 -5.024751,3.159387 H 38.371315 L 34.907339,66.203817 H 54.43595 c 1.956173,0.125809 2.512376,-0.592148 2.943718,-1.435913 l 6.334856,-9.189657 -4.701244,-0.03594 c -0.880656,-0.107836 -1.223081,0.646066 -1.562668,1.077408 l -4.612328,6.60539 c -0.855116,1.280782 -3.417625,1.142677 -3.266277,1.165379 l -19.152134,0.03594 -5.062589,-7.341321 h 24.249722 c 0.932681,0 2.029954,-0.286615 2.997635,-1.489831 l 8.203057,-11.702979 c 0.861737,-0.969572 1.453886,-1.329023 3.124389,-1.633611 h 31.050919 z"
   sodipodi:nodetypes="cccccscccccccccccscccccccccccscccccccccccsccccc" />
</g>
<g
   id="g7"
   transform="matrix(0.9874142,0,0,0.9874142,0.59633965,0.60182387)">
</g>
<g
   id="g9"
   transform="matrix(0.9874142,0,0,0.9874142,0.59633965,0.60182387)">
</g>
<g
   id="g11"
   transform="matrix(0.9874142,0,0,0.9874142,0.59633965,0.60182387)">
</g>
<g
   id="g13"
   transform="matrix(0.9874142,0,0,0.9874142,0.59633965,0.60182387)">
</g>
<g
   id="g15"
   transform="matrix(0.9874142,0,0,0.9874142,0.59633965,0.60182387)">
</g>
<g
   id="g17"
   transform="matrix(0.9874142,0,0,0.9874142,0.59633965,0.60182387)">
</g>
<g
   id="g19"
   transform="matrix(0.9874142,0,0,0.9874142,0.59633965,0.60182387)">
</g>
<g
   id="g21"
   transform="matrix(0.9874142,0,0,0.9874142,0.59633965,0.60182387)">
</g>
<g
   id="g23"
   transform="matrix(0.9874142,0,0,0.9874142,0.59633965,0.60182387)">
</g>
<g
   id="g25"
   transform="matrix(0.9874142,0,0,0.9874142,0.59633965,0.60182387)">
</g>
<g
   id="g27"
   transform="matrix(0.9874142,0,0,0.9874142,0.59633965,0.60182387)">
</g>
<g
   id="g29"
   transform="matrix(0.9874142,0,0,0.9874142,0.59633965,0.60182387)">
</g>
<g
   id="g31"
   transform="matrix(0.9874142,0,0,0.9874142,0.59633965,0.60182387)">
</g>
<g
   id="g33"
   transform="matrix(0.9874142,0,0,0.9874142,0.59633965,0.60182387)">
</g>
<g
   id="g35"
   transform="matrix(0.9874142,0,0,0.9874142,0.59633965,0.60182387)">
</g>
</svg>