<svg id="Layer_3" enable-background="new 0 0 64 64" height="512" viewBox="0 0 64 64" width="512" xmlns="http://www.w3.org/2000/svg"><path d="m44 19h-24l3 8h18z" fill="#96cc7f"/><path d="m44 27h-24l3 8h18z" fill="#669e4f"/><path d="m40 11h-16l3 8h10z" fill="#669e4f"/><path d="m63 61v-10h-3v-4h-4v4h-4v-12h-4v10h-7-18-7v-10l-4 4v8h-4v-4h-4v4h-3v10" fill="#c1c8d1"/><path d="m44 62h-24l3-14-3-13h24l-3 13z" fill="#96cc7f"/><g fill="#fff"><path d="m31 54h8v4h-8z"/><path d="m33 35v4h4v-4"/><path d="m33 27v4h4v-4"/><path d="m33 19v4h4v-4"/><path d="m33 43h4v4h-4z"/></g><path d="m15 6c-.034 0-.066.009-.1.01-.459-2.287-2.478-4.01-4.9-4.01s-4.441 1.723-4.9 4.01c-.034-.001-.066-.01-.1-.01-1.657 0-3 1.343-3 3s1.343 3 3 3c.841 0 1.598-.348 2.143-.905.811.567 1.793.905 2.857.905s2.046-.338 2.857-.905c.545.557 1.302.905 2.143.905 1.657 0 3-1.343 3-3s-1.343-3-3-3z" fill="#a1cdfb"/><path d="m59 11c-.034 0-.066.009-.1.01-.459-2.287-2.478-4.01-4.9-4.01s-4.441 1.723-4.9 4.01c-.034-.001-.066-.01-.1-.01-1.657 0-3 1.343-3 3s1.343 3 3 3c.841 0 1.598-.348 2.143-.905.811.567 1.793.905 2.857.905s2.046-.338 2.857-.905c.545.557 1.302.905 2.143.905 1.657 0 3-1.343 3-3s-1.343-3-3-3z" fill="#a1cdfb"/><path d="m1 61h62v2h-62z"/><path d="m44 63h-24c-.302 0-.588-.137-.778-.371-.189-.235-.263-.543-.2-.839l2.954-13.782-2.95-12.783c-.068-.297.002-.608.192-.847.189-.239.477-.378.782-.378h24c.305 0 .593.139.783.378.189.238.26.55.192.847l-2.95 12.783 2.954 13.782c.063.296-.011.604-.2.839-.191.234-.477.371-.779.371zm-22.763-2h21.526l-2.741-12.79c-.03-.144-.029-.292.003-.435l2.718-11.775h-21.486l2.718 11.775c.033.143.034.291.003.435z"/><path d="m25.978 62.21-1.956-.42 2.954-13.782-2.95-12.783 1.949-.449 3 13c.033.143.034.291.003.435z"/><path d="m39 59h-8c-.552 0-1-.447-1-1v-4c0-.553.448-1 1-1h8c.552 0 1 .447 1 1v4c0 .553-.448 1-1 1zm-7-2h6v-2h-6z"/><path d="m37 40h-4c-.552 0-1-.447-1-1v-4h2v3h2v-3h2v4c0 .553-.448 1-1 1z"/><path d="m37 32h-4c-.552 0-1-.448-1-1v-4h2v3h2v-3h2v4c0 .552-.448 1-1 1z"/><path d="m37 24h-4c-.552 0-1-.448-1-1v-4h2v3h2v-3h2v4c0 .552-.448 1-1 1z"/><path d="m37 48h-4c-.552 0-1-.447-1-1v-4c0-.553.448-1 1-1h4c.552 0 1 .447 1 1v4c0 .553-.448 1-1 1zm-3-2h2v-2h-2z"/><path d="m41 36h-18c-.417 0-.79-.259-.937-.648l-3-8c-.115-.307-.072-.651.115-.921s.494-.431.822-.431h24c.328 0 .635.161.822.43.187.27.229.614.115.921l-3 8c-.147.39-.52.649-.937.649zm-17.307-2h16.614l2.25-6h-21.114z"/><path d="m41 28h-18c-.417 0-.79-.259-.937-.649l-3-8c-.115-.307-.072-.651.115-.921.187-.269.494-.43.822-.43h24c.328 0 .635.161.822.43.187.27.229.614.115.921l-3 8c-.147.39-.52.649-.937.649zm-17.307-2h16.614l2.25-6h-21.114z"/><path d="m37 20h-10c-.417 0-.79-.259-.937-.649l-3-8c-.115-.307-.072-.651.115-.921.187-.269.494-.43.822-.43h16c.328 0 .635.161.822.43.187.27.229.614.115.921l-3 8c-.147.39-.52.649-.937.649zm-9.307-2h8.614l2.25-6h-13.114z"/><path d="m36 11h-2v-3h-4v3h-2v-4c0-.552.448-1 1-1h6c.552 0 1 .448 1 1z"/><path d="m31 1h2v6h-2z"/><path d="m15 13c-.808 0-1.578-.238-2.232-.682-1.707.896-3.828.896-5.535 0-.655.444-1.425.682-2.233.682-2.206 0-4-1.794-4-4 0-1.975 1.439-3.621 3.324-3.943.819-2.391 3.093-4.057 5.676-4.057s4.857 1.666 5.676 4.057c1.885.322 3.324 1.968 3.324 3.943 0 2.206-1.794 4-4 4zm-2.144-2.905c.262 0 .521.102.715.301.382.39.889.604 1.429.604 1.103 0 2-.897 2-2 0-1.089-.875-1.977-1.958-2-.062.007-.107.011-.142.01-.474 0-.886-.334-.98-.803-.374-1.858-2.023-3.207-3.92-3.207s-3.546 1.349-3.92 3.208c-.097.482-.529.828-1.024.801-.034-.001-.113-.009-.146-.014-1.013.005-1.91.902-1.91 2.005s.897 2 2 2c.54 0 1.047-.214 1.428-.604.342-.351.886-.402 1.288-.12 1.354.947 3.213.947 4.567 0 .174-.122.374-.181.573-.181z"/><path d="m59 18c-.808 0-1.578-.238-2.232-.682-1.707.896-3.828.896-5.535 0-.655.444-1.425.682-2.233.682-2.206 0-4-1.794-4-4 0-1.975 1.439-3.621 3.324-3.943.819-2.391 3.093-4.057 5.676-4.057s4.857 1.666 5.676 4.057c1.885.322 3.324 1.968 3.324 3.943 0 2.206-1.794 4-4 4zm-2.144-2.905c.262 0 .521.102.715.301.382.39.889.604 1.429.604 1.103 0 2-.897 2-2 0-1.089-.875-1.977-1.958-2-.062.007-.107.011-.142.01-.474 0-.886-.334-.98-.803-.374-1.858-2.023-3.207-3.92-3.207s-3.546 1.349-3.92 3.208c-.097.483-.523.83-1.024.802-.034-.001-.113-.01-.146-.015-1.013.005-1.91.902-1.91 2.005s.897 2 2 2c.54 0 1.047-.214 1.428-.604.342-.351.886-.402 1.288-.12 1.354.947 3.213.947 4.567 0 .174-.122.374-.181.573-.181z"/><path d="m12 52h-4c-.552 0-1-.447-1-1v-3h-2v3c0 .553-.448 1-1 1h-3v-2h2v-3c0-.553.448-1 1-1h4c.552 0 1 .447 1 1v3h2v-7c0-.266.105-.52.293-.707l4-4c.286-.286.715-.373 1.09-.217.373.154.617.52.617.924v9h6v2h-7c-.552 0-1-.447-1-1v-7.586l-2 2v7.586c0 .553-.448 1-1 1z"/><path d="m63 52h-3c-.552 0-1-.447-1-1v-3h-2v3c0 .553-.448 1-1 1h-4c-.552 0-1-.447-1-1v-11h-2v9c0 .553-.448 1-1 1h-7v-2h6v-9c0-.553.448-1 1-1h4c.552 0 1 .447 1 1v11h2v-3c0-.553.448-1 1-1h4c.552 0 1 .447 1 1v3h2z"/></svg>