<?xml version="1.0" encoding="UTF-8" standalone="no"?>
<!-- Generator: Adobe Illustrator 16.0.0, SVG Export Plug-In . SVG Version: 6.00 Build 0)  -->

<svg
   xmlns:dc="http://purl.org/dc/elements/1.1/"
   xmlns:cc="http://creativecommons.org/ns#"
   xmlns:rdf="http://www.w3.org/1999/02/22-rdf-syntax-ns#"
   xmlns:svg="http://www.w3.org/2000/svg"
   xmlns="http://www.w3.org/2000/svg"
   xmlns:sodipodi="http://sodipodi.sourceforge.net/DTD/sodipodi-0.dtd"
   xmlns:inkscape="http://www.inkscape.org/namespaces/inkscape"
   version="1.1"
   id="Capa_1"
   x="0px"
   y="0px"
   width="800px"
   height="800px"
   viewBox="0 0 800 800"
   enable-background="new 0 0 800 800"
   xml:space="preserve"
   sodipodi:docname="taiwan_flag.svg"
   inkscape:version="0.92.4 (5da689c313, 2019-01-14)"><metadata
   id="metadata27"><rdf:RDF><cc:Work
       rdf:about=""><dc:format>image/svg+xml</dc:format><dc:type
         rdf:resource="http://purl.org/dc/dcmitype/StillImage" /></cc:Work></rdf:RDF></metadata><defs
   id="defs25" /><sodipodi:namedview
   pagecolor="#ffffff"
   bordercolor="#666666"
   borderopacity="1"
   objecttolerance="10"
   gridtolerance="10"
   guidetolerance="10"
   inkscape:pageopacity="0"
   inkscape:pageshadow="2"
   inkscape:window-width="1920"
   inkscape:window-height="986"
   id="namedview23"
   showgrid="false"
   inkscape:zoom="1.18"
   inkscape:cx="-134.34883"
   inkscape:cy="575.10293"
   inkscape:window-x="-11"
   inkscape:window-y="-11"
   inkscape:window-maximized="1"
   inkscape:current-layer="g20" />
<g
   id="g20">
	<path
   style="fill:#103b9b;fill-opacity:1;stroke-width:1.46630728"
   d="M 32.336861,146.4566 H 382.26469 c 7.15727,0 12.96089,5.78901 12.96089,12.92826 v 219.77008 c 0,7.13925 -5.80362,12.92826 -12.96089,12.92826 H 32.336861 c -7.157264,-10e-4 -12.960888,-5.79048 -12.960888,-12.92973 V 159.38339 c 0,-7.13925 5.803624,-12.92679 12.960888,-12.92679 z"
   id="path4-8"
   inkscape:connector-curvature="0" /><path
   d="M24.807,646.17V411.903L400,411.912c3.18,0,6.169-1.238,8.416-3.487c2.249-2.247,3.487-5.236,3.487-8.416   V153.847h363.29v401c0,6.563,5.34,11.903,11.903,11.903h1v27.806h-1c-6.563,0-11.903,5.34-11.903,11.903v39.71H24.807z"
   id="path2"
   fill="#ED1F34" />
	<path
   d="M774.193,554.848v-400h-361.29v245.162c0,3.422-1.359,6.704-3.78,9.123c-2.419,2.421-5.701,3.78-9.123,3.78   l-374.193-0.009V645.17h748.387v-38.71c0-7.126,5.777-12.903,12.903-12.903v-25.806   C779.971,567.751,774.193,561.974,774.193,554.848z"
   id="path4"
   fill="#ED1F34" />
	
	
	
	
	<path
   d="m 774.193,550.46 v 94.71 H 25.807 V 412.903 L 400,412.912 c 3.422,0 6.704,-1.359 9.123,-3.78 2.421,-2.419 3.78,-5.701 3.78,-9.123 V 154.847 h 361.29 v 400 c 0,7.126 5.777,12.903 12.903,12.903 7.126,0 12.904,-5.776 12.904,-12.902 V 141.944 c 0,-7.126 -5.777,-12.903 -12.903,-12.903 H 400.334 c -0.112,-0.003 -0.221,-0.018 -0.334,-0.018 -0.113,0 -0.222,0.014 -0.334,0.018 H 12.903 C 5.777,129.041 0,134.818 0,141.944 v 516.129 c 0,7.126 5.777,12.903 12.903,12.903 h 774.193 c 7.126,0 12.903,-5.777 12.903,-12.903 V 550.46 c 0,-7.126 -5.777,15.097 -12.903,15.097 -7.126,0 -12.903,-22.223 -12.903,-15.097 z M 387.097,154.847 v 232.258 l -361.29,-0.009 v -232.25 h 361.29 z"
   id="path14"
   inkscape:connector-curvature="0"
   sodipodi:nodetypes="scccccsccssssscscssssssssscccccc" />
	
	
<g
   transform="matrix(1.5411256,0,0,1.5411256,10.036122,3.9820803)"
   id="g16"><path
     inkscape:connector-curvature="0"
     style="fill:#f5f5f5"
     d="m 96.403,172.139 c 0,-8.722 3.534,-16.618 9.248,-22.335 l -26.474,-7.573 c -1.537,-0.439 -2.638,1.469 -1.49,2.58 l 19.811,19.155 -26.734,6.684 c -1.55,0.387 -1.55,2.591 0,2.979 l 26.734,6.684 -19.811,19.155 c -1.149,1.111 -0.047,3.019 1.49,2.58 l 26.474,-7.573 c -5.714,-5.718 -9.248,-13.614 -9.248,-22.336 z"
     id="path6" /><path
     inkscape:connector-curvature="0"
     style="fill:#f5f5f5"
     d="m 105.665,149.79 c 5.717,-5.714 13.613,-9.248 22.335,-9.248 8.722,0 16.618,3.534 22.335,9.248 l 7.573,-26.474 c 0.439,-1.537 -1.469,-2.638 -2.58,-1.49 l -19.155,19.81 -6.684,-26.734 c -0.387,-1.55 -2.591,-1.55 -2.979,0 l -6.684,26.734 -19.155,-19.81 c -1.111,-1.149 -3.019,-0.047 -2.58,1.49 z"
     id="path8" /><path
     inkscape:connector-curvature="0"
     style="fill:#f5f5f5"
     d="m 150.335,194.488 c -5.717,5.714 -13.613,9.248 -22.335,9.248 -8.722,0 -16.618,-3.534 -22.335,-9.248 l -7.573,26.474 c -0.439,1.537 1.469,2.638 2.58,1.49 l 19.155,-19.81 6.684,26.734 c 0.387,1.55 2.591,1.55 2.979,0 l 6.684,-26.734 19.155,19.81 c 1.111,1.149 3.019,0.047 2.58,-1.49 z"
     id="path10-4" /><path
     inkscape:connector-curvature="0"
     style="fill:#f5f5f5"
     d="m 185.236,170.649 -26.734,-6.684 19.81,-19.155 c 1.149,-1.111 0.047,-3.019 -1.49,-2.58 l -26.474,7.573 c 5.714,5.717 9.248,13.613 9.248,22.335 0,8.722 -3.534,16.618 -9.248,22.335 l 26.474,7.573 c 1.537,0.439 2.638,-1.469 1.49,-2.58 l -19.81,-19.155 26.734,-6.684 c 1.551,-0.386 1.551,-2.589 0,-2.978 z"
     id="path12-4" /><circle
     style="fill:#f5f5f5"
     cx="128"
     cy="172.14101"
     r="25.16"
     id="circle14" /></g></g>
</svg>