<?xml version="1.0" encoding="UTF-8" standalone="no"?>
<svg
   xmlns:dc="http://purl.org/dc/elements/1.1/"
   xmlns:cc="http://creativecommons.org/ns#"
   xmlns:rdf="http://www.w3.org/1999/02/22-rdf-syntax-ns#"
   xmlns:svg="http://www.w3.org/2000/svg"
   xmlns="http://www.w3.org/2000/svg"
   xmlns:sodipodi="http://sodipodi.sourceforge.net/DTD/sodipodi-0.dtd"
   xmlns:inkscape="http://www.inkscape.org/namespaces/inkscape"
   version="1.1"
   id="emoji"
   x="0"
   y="0"
   viewBox="0 0 72 72"
   enable-background="new 0 0 72 72"
   xml:space="preserve"
   sodipodi:docname="tasty_emoji.svg"
   inkscape:version="0.92.4 (5da689c313, 2019-01-14)"><metadata
   id="metadata26"><rdf:RDF><cc:Work
       rdf:about=""><dc:format>image/svg+xml</dc:format><dc:type
         rdf:resource="http://purl.org/dc/dcmitype/StillImage" /></cc:Work></rdf:RDF></metadata><defs
   id="defs24" /><sodipodi:namedview
   pagecolor="#ffffff"
   bordercolor="#666666"
   borderopacity="1"
   objecttolerance="10"
   gridtolerance="10"
   guidetolerance="10"
   inkscape:pageopacity="0"
   inkscape:pageshadow="2"
   inkscape:window-width="1920"
   inkscape:window-height="986"
   id="namedview22"
   showgrid="false"
   inkscape:zoom="3.2777778"
   inkscape:cx="-3.8135593"
   inkscape:cy="36"
   inkscape:window-x="-11"
   inkscape:window-y="-11"
   inkscape:window-maximized="1"
   inkscape:current-layer="emoji" />
  <g
   id="color"
   transform="matrix(1.3333333,0,0,1.3333333,-13.244134,-12.509597)">
    <circle
   cx="36.933102"
   cy="36.382198"
   r="22.9331"
   id="circle2"
   style="fill:#fcea2b" />
    <polygon
   points="57.9572,52.4773 57.178,50.4983 55.7961,48.7366 54.4142,47.4959 53.2695,46.1564 51.2866,44.692 50.1713,45.9823 48.6197,48.0914 46.0011,50.4983 47.6531,52.8002 50.6359,55.7118 52.911,57 55.2385,56.5031 57.372,54.8643 "
   id="polygon4"
   style="fill:#ea5a47" />
  </g>
  <g
   id="hair"
   transform="matrix(1.3333333,0,0,1.3333333,-4.3333339,-20.127418)" />
  <g
   id="skin"
   transform="matrix(1.3333333,0,0,1.3333333,-4.3333339,-20.127418)" />
  <g
   id="skin-shadow"
   transform="matrix(1.3333333,0,0,1.3333333,-4.3333339,-20.127418)" />
  <g
   id="line"
   transform="matrix(1.3333333,0,0,1.3333333,-13.333332,-12.509599)">
    <path
   stroke-miterlimit="10"
   d="M 58.2506,45.1959 C 59.3778,42.4814 60,39.5044 60,36.3822 c 0,-12.7031 -10.2978,-23 -23,-23 -12.7031,0 -23,10.2969 -23,23 0,12.7022 10.2969,23 23,23 3.3707,0 6.5721,-0.7251 9.4566,-2.0279"
   id="path10"
   inkscape:connector-curvature="0"
   style="fill:none;stroke:#000000;stroke-width:2;stroke-linecap:round;stroke-linejoin:round;stroke-miterlimit:10" />
    <path
   d="m 32.8841,34.5757 c -0.3672,0 -0.7207,-0.2032 -0.8965,-0.5528 -0.0098,-0.0195 -1.2129,-2.3222 -3.418,-2.3222 -2.2305,0 -3.4062,2.2988 -3.418,2.3222 -0.2461,0.4942 -0.8457,0.6934 -1.3418,0.4473 -0.4941,-0.2481 -0.6933,-0.8477 -0.4472,-1.3418 0.0703,-0.1406 1.7539,-3.4277 5.207,-3.4277 3.4531,0 5.1367,3.2871 5.207,3.4277 0.2481,0.4941 0.0469,1.0937 -0.4472,1.3418 -0.1426,0.0703 -0.2969,0.1055 -0.4453,0.1055 z"
   id="path12"
   inkscape:connector-curvature="0" />
    <path
   d="m 50.1341,34.5757 c -0.3672,0 -0.7207,-0.2032 -0.8965,-0.5528 -0.0098,-0.0195 -1.2129,-2.3222 -3.418,-2.3222 -2.2305,0 -3.4062,2.2988 -3.418,2.3222 -0.2461,0.4942 -0.8457,0.6934 -1.3418,0.4473 -0.4941,-0.2481 -0.6933,-0.8477 -0.4472,-1.3418 0.0703,-0.1406 1.7539,-3.4277 5.207,-3.4277 3.4531,0 5.1367,3.2871 5.207,3.4277 0.2481,0.4941 0.0469,1.0937 -0.4472,1.3418 -0.1426,0.0703 -0.2969,0.1055 -0.4453,0.1055 z"
   id="path14"
   inkscape:connector-curvature="0" />
    <path
   stroke-miterlimit="10"
   d="m 51.5707,44.8532 c 0,0 6.5973,4.6068 6.3864,7.6241 l 0.0015,-0.0304 c -0.1383,4.6472 -4.3414,4.5394 -4.2732,4.5411 -2.9381,0.3292 -7.6844,-6.2448 -7.6844,-6.2448"
   id="path16"
   inkscape:connector-curvature="0"
   style="fill:none;stroke:#000000;stroke-width:2;stroke-miterlimit:10" />
    <path
   stroke-miterlimit="10"
   d="M 21.1657,41.7397 C 23.3985,48.3413 29.644,53.0938 37,53.0938 c 7.3561,0 13.6024,-4.7533 15.8349,-11.3559"
   id="path18"
   inkscape:connector-curvature="0"
   style="fill:none;stroke:#000000;stroke-width:2;stroke-linecap:round;stroke-linejoin:round;stroke-miterlimit:10" />
  </g>
</svg>