<?xml version="1.0" encoding="UTF-8" standalone="no"?>
<svg
   xmlns:dc="http://purl.org/dc/elements/1.1/"
   xmlns:cc="http://creativecommons.org/ns#"
   xmlns:rdf="http://www.w3.org/1999/02/22-rdf-syntax-ns#"
   xmlns:svg="http://www.w3.org/2000/svg"
   xmlns="http://www.w3.org/2000/svg"
   xmlns:sodipodi="http://sodipodi.sourceforge.net/DTD/sodipodi-0.dtd"
   xmlns:inkscape="http://www.inkscape.org/namespaces/inkscape"
   inkscape:version="1.0 (4035a4fb49, 2020-05-01)"
   sodipodi:docname="tencent_qq.svg"
   xml:space="preserve"
   style="enable-background:new 0 0 512.007 512.007;"
   viewBox="0 0 512.007 512.007"
   y="0px"
   x="0px"
   id="Capa_1"
   version="1.1"><metadata
   id="metadata65"><rdf:RDF><cc:Work
       rdf:about=""><dc:format>image/svg+xml</dc:format><dc:type
         rdf:resource="http://purl.org/dc/dcmitype/StillImage" /></cc:Work></rdf:RDF></metadata><defs
   id="defs63" /><sodipodi:namedview
   inkscape:current-layer="Capa_1"
   inkscape:window-maximized="1"
   inkscape:window-y="-11"
   inkscape:window-x="-11"
   inkscape:cy="256.00351"
   inkscape:cx="256.00351"
   inkscape:zoom="1.5976343"
   showgrid="false"
   id="namedview61"
   inkscape:window-height="986"
   inkscape:window-width="1920"
   inkscape:pageshadow="2"
   inkscape:pageopacity="0"
   guidetolerance="10"
   gridtolerance="10"
   objecttolerance="10"
   borderopacity="1"
   bordercolor="#666666"
   pagecolor="#ffffff" />
<circle
   id="circle2"
   r="256.003"
   cy="256.003"
   cx="256.003"
   style="fill:#6E64C3;" />

<ellipse
   id="ellipse6"
   ry="60.956"
   rx="26.956"
   cy="403.242"
   cx="201.724"
   style="fill:#FA870A;"
   transform="matrix(-0.0722 -0.9974 0.9974 -0.0722 -185.9012 633.5535)" />
<ellipse
   id="ellipse8"
   ry="60.956"
   rx="26.956"
   cy="398.224"
   cx="201.724"
   style="fill:#FFC305;"
   transform="matrix(-0.0722 -0.9974 0.9974 -0.0722 -180.8969 628.1729)" />
<ellipse
   id="ellipse10"
   ry="60.956"
   rx="26.956"
   cy="403.235"
   cx="310.295"
   style="fill:#FA870A;"
   transform="matrix(-0.0722 0.9974 -0.9974 -0.0722 734.8809 122.8624)" />
<ellipse
   id="ellipse12"
   ry="60.956"
   rx="26.956"
   cy="398.223"
   cx="310.298"
   style="fill:#FFC305;"
   transform="matrix(-0.0722 0.9974 -0.9974 -0.0722 729.8851 117.4867)" />
<path
   id="path14"
   d="M404.532,303.966c-6.701-24.875-17.816-44.532-27.421-50.148c-2.639-8.963-6.245-17.51-10.699-25.523  c3.128-9.548,4.817-20.073,4.817-31.559c0-63.639-51.59-115.229-115.229-115.229s-115.229,51.59-115.229,115.229  c0,11.486,1.689,22.012,4.817,31.559c-4.453,8.013-8.06,16.56-10.699,25.523c-9.605,5.616-20.72,25.273-27.421,50.148  c-5.165,19.173-2.536,38.063,0.282,49.832c1.547,6.462,8.272,8.275,12.856,3.463c5.22-5.479,11.774-13.401,17.217-23.256  c17.989,47.776,64.11,81.769,118.176,81.769s100.187-33.992,118.176-81.769c5.442,9.855,11.997,17.777,17.217,23.256  c4.584,4.811,11.309,2.999,12.856-3.463C407.067,342.028,409.697,323.139,404.532,303.966z"
   style="fill:#373C41;" />
<path
   id="path16"
   d="M314.759,216.072H197.242c-22.494,19.96-36.965,51.111-36.965,86.117  c0,60.246,42.857,109.086,95.723,109.086c52.867,0,95.723-48.84,95.723-109.086C351.724,267.183,337.253,236.032,314.759,216.072z"
   style="fill:#F3F3F3;" />
<path
   id="path18"
   d="M328.513,220.614c0-9.277-32.465-16.798-72.512-16.798s-72.512,7.521-72.512,16.798  c0,5.068,9.702,9.608,25.022,12.688c2.943,10.835,23.076,25.527,47.491,25.527c24.415,0,44.547-14.694,47.491-25.527  C318.811,230.222,328.513,225.682,328.513,220.614z"
   style="fill:#FFC305;" />
<ellipse
   id="ellipse20"
   ry="30.027"
   rx="20.473"
   cy="168.753"
   cx="283.963"
   style="fill:#FFFFFF;" />
<path
   id="path22"
   d="M278.014,178.93c-0.353-1.459-0.561-3.085-0.561-4.847c0-7.239,3.43-12.284,6.51-12.284  c3.079,0,6.51,5.045,6.51,12.284c0,1.762-0.208,3.388-0.561,4.847h5.148c0.291-1.533,0.452-3.156,0.452-4.847  c0-9.714-5.073-17.323-11.549-17.323s-11.549,7.609-11.549,17.323c0,1.692,0.161,3.315,0.452,4.847H278.014z"
   style="fill:#373C41;" />
<ellipse
   id="ellipse24"
   ry="30.027"
   rx="20.473"
   cy="168.753"
   cx="228.034"
   style="fill:#FFFFFF;" />
<path
   id="path26"
   d="M228.038,153.946c-4.987,0-9.029,6.628-9.029,14.804s4.042,14.804,9.029,14.804  c4.987,0,9.029-6.628,9.029-14.804S233.025,153.946,228.038,153.946z M229.473,172.074c-1.99,0-3.604-2.257-3.604-5.04  s1.614-5.04,3.604-5.04c1.99,0,3.604,2.257,3.604,5.04C233.078,169.818,231.464,172.074,229.473,172.074z"
   style="fill:#373C41;" />
<path
   id="path28"
   d="M380.444,252.012l-9.464-33.113c-61.211,67.271-167.033,67.271-228.244,0l-11.18,31.54  c13.743,12.757,28.978,23.015,45.117,30.798v52.346l43.255,10.079v-47.869C275.677,307.112,335.686,292.526,380.444,252.012z"
   style="fill:#FF3C3C;" />
<g
   id="g30">
</g>
<g
   id="g32">
</g>
<g
   id="g34">
</g>
<g
   id="g36">
</g>
<g
   id="g38">
</g>
<g
   id="g40">
</g>
<g
   id="g42">
</g>
<g
   id="g44">
</g>
<g
   id="g46">
</g>
<g
   id="g48">
</g>
<g
   id="g50">
</g>
<g
   id="g52">
</g>
<g
   id="g54">
</g>
<g
   id="g56">
</g>
<g
   id="g58">
</g>
</svg>
