<?xml version="1.0" encoding="UTF-8" standalone="no"?>
<svg
   xmlns:dc="http://purl.org/dc/elements/1.1/"
   xmlns:cc="http://creativecommons.org/ns#"
   xmlns:rdf="http://www.w3.org/1999/02/22-rdf-syntax-ns#"
   xmlns:svg="http://www.w3.org/2000/svg"
   xmlns="http://www.w3.org/2000/svg"
   xmlns:sodipodi="http://sodipodi.sourceforge.net/DTD/sodipodi-0.dtd"
   xmlns:inkscape="http://www.inkscape.org/namespaces/inkscape"
   version="1.1"
   id="Capa_1"
   x="0px"
   y="0px"
   viewBox="0 0 512.007 512.007"
   style="enable-background:new 0 0 512.007 512.007;"
   xml:space="preserve"
   sodipodi:docname="tencent_qq.svg"
   inkscape:version="1.0 (4035a4fb49, 2020-05-01)"><metadata
   id="metadata65"><rdf:RDF><cc:Work
       rdf:about=""><dc:format>image/svg+xml</dc:format><dc:type
         rdf:resource="http://purl.org/dc/dcmitype/StillImage" /></cc:Work></rdf:RDF></metadata><defs
   id="defs63" /><sodipodi:namedview
   inkscape:document-rotation="0"
   pagecolor="#ffffff"
   bordercolor="#666666"
   borderopacity="1"
   objecttolerance="10"
   gridtolerance="10"
   guidetolerance="10"
   inkscape:pageopacity="0"
   inkscape:pageshadow="2"
   inkscape:window-width="1920"
   inkscape:window-height="1017"
   id="namedview61"
   showgrid="false"
   inkscape:zoom="1.5976343"
   inkscape:cx="224.39427"
   inkscape:cy="256.00351"
   inkscape:window-x="1912"
   inkscape:window-y="-8"
   inkscape:window-maximized="1"
   inkscape:current-layer="Capa_1" />
<circle
   style="fill:#6e64c3;stroke:#000000;stroke-width:9;stroke-miterlimit:4;stroke-dasharray:none;stroke-opacity:1"
   cx="256.00351"
   cy="256.00351"
   r="246.15388"
   id="circle2" />

<ellipse
   transform="rotate(-94.140317)"
   style="fill:#fa870a;stroke-width:0.961537"
   cx="-411.25369"
   cy="174.57991"
   rx="25.919186"
   ry="58.611439"
   id="ellipse6" />
<ellipse
   transform="rotate(-94.140317)"
   style="fill:#ffc305;stroke-width:0.961537"
   cx="-406.44101"
   cy="174.92766"
   rx="25.919186"
   ry="58.611439"
   id="ellipse8" />
<ellipse
   transform="rotate(94.140317)"
   style="fill:#fa870a;stroke-width:0.961537"
   cx="374.28351"
   cy="-336.10312"
   rx="25.919186"
   ry="58.611439"
   id="ellipse10" />
<ellipse
   transform="rotate(94.140317)"
   style="fill:#ffc305;stroke-width:0.961537"
   cx="369.47781"
   cy="-335.75809"
   rx="25.919186"
   ry="58.611439"
   id="ellipse12" />
<path
   style="fill:#373c41;stroke-width:0.961527"
   d="m 398.81822,302.12126 c -6.44319,-23.918 -17.13057,-42.81874 -26.36604,-48.21868 -2.53747,-8.61817 -6.00474,-16.83634 -10.28738,-24.54106 3.00766,-9.18067 4.63168,-19.30074 4.63168,-30.34485 0,-61.19064 -49.6052,-110.795836 -110.79585,-110.795836 -61.19064,0 -110.79584,49.605196 -110.79584,110.795836 0,11.04411 1.62402,21.16515 4.63168,30.34485 -4.28168,7.70472 -7.74991,15.92289 -10.28738,24.54106 -9.23547,5.39994 -19.92285,24.30068 -26.36604,48.21868 -4.96629,18.43536 -2.43844,36.59862 0.27115,47.91483 1.48748,6.21339 7.95375,7.95664 12.36139,3.32977 5.01918,-5.26821 11.32103,-12.88543 16.55462,-22.36128 17.29692,45.93793 61.64352,78.62313 113.62946,78.62313 51.98594,0 96.33255,-32.68424 113.62946,-78.62313 5.23264,9.47585 11.53545,17.09307 16.55462,22.36128 4.40764,4.62591 10.87392,2.88362 12.3614,-3.32977 2.71054,-11.31718 5.23936,-29.47947 0.27307,-47.91483 z"
   id="path14" />
<path
   style="fill:#f3f3f3;stroke-width:0.961527"
   d="M 312.49902,217.60877 H 199.50321 c -21.6286,19.19209 -35.54286,49.14463 -35.54286,82.80385 0,57.92818 41.20818,104.88918 92.04028,104.88918 50.83307,0 92.04029,-46.961 92.04029,-104.88918 9.6e-4,-33.65922 -13.9133,-63.61176 -35.5419,-82.80385 z"
   id="path16" />
<path
   style="fill:#ffc305;stroke-width:0.961527"
   d="m 325.72387,221.97603 c 0,-8.92009 -31.21599,-16.15174 -69.72227,-16.15174 -38.50629,0 -69.72228,7.23165 -69.72228,16.15174 0,4.87302 9.32874,9.23835 24.05934,12.19986 2.82977,10.41814 22.18821,24.54491 45.6639,24.54491 23.47569,0 42.83316,-14.12869 45.6639,-24.54491 14.72867,-2.96151 24.05741,-7.32684 24.05741,-12.19986 z"
   id="path18" />
<ellipse
   style="fill:#ffffff;stroke-width:0.961527"
   cx="282.88785"
   cy="172.11026"
   rx="19.68535"
   ry="28.871784"
   id="ellipse20" />
<path
   style="fill:#373c41;stroke-width:0.961527"
   d="m 277.1677,181.89572 c -0.33942,-1.40287 -0.53942,-2.96631 -0.53942,-4.66053 0,-6.96049 3.29804,-11.8114 6.25955,-11.8114 2.96054,0 6.25954,4.85091 6.25954,11.8114 0,1.69422 -0.2,3.25766 -0.53942,4.66053 h 4.94994 c 0.27981,-1.47402 0.43462,-3.03458 0.43462,-4.66053 0,-9.34027 -4.87783,-16.65653 -11.10468,-16.65653 -6.22686,0 -11.10468,7.31626 -11.10468,16.65653 0,1.62691 0.1548,3.18747 0.43461,4.66053 z"
   id="path22" />
<ellipse
   style="fill:#ffffff;stroke-width:0.961527"
   cx="229.11055"
   cy="172.11026"
   rx="19.68535"
   ry="28.871784"
   id="ellipse24" />
<path
   style="fill:#373c41;stroke-width:0.961527"
   d="m 229.11441,157.87292 c -4.79514,0 -8.68164,6.373 -8.68164,14.23445 0,7.86145 3.8865,14.23445 8.68164,14.23445 4.79513,0 8.68163,-6.373 8.68163,-14.23445 0,-7.86145 -3.8865,-14.23445 -8.68163,-14.23445 z m 1.37979,17.43057 c -1.91344,0 -3.46535,-2.17017 -3.46535,-4.8461 0,-2.67593 1.55191,-4.8461 3.46535,-4.8461 1.91344,0 3.46534,2.17017 3.46534,4.8461 9.6e-4,2.67689 -1.55094,4.8461 -3.46534,4.8461 z"
   id="path26" />
<path
   style="fill:#ff3c3c;stroke-width:0.961527"
   d="m 375.65695,252.16606 -9.0999,-31.83905 c -58.85605,64.68291 -160.6068,64.68291 -219.46286,0 l -10.74987,30.32657 c 13.21427,12.26621 27.86314,22.12955 43.38123,29.61312 v 50.33211 l 41.59087,9.69124 v -46.02736 c 53.60419,10.88353 111.30449,-3.14131 154.34053,-42.09663 z"
   id="path28" />
<g
   transform="matrix(0.9615274,0,0,0.9615274,9.8496191,9.8496191)"
   id="g30">
</g>
<g
   transform="matrix(0.9615274,0,0,0.9615274,9.8496191,9.8496191)"
   id="g32">
</g>
<g
   transform="matrix(0.9615274,0,0,0.9615274,9.8496191,9.8496191)"
   id="g34">
</g>
<g
   transform="matrix(0.9615274,0,0,0.9615274,9.8496191,9.8496191)"
   id="g36">
</g>
<g
   transform="matrix(0.9615274,0,0,0.9615274,9.8496191,9.8496191)"
   id="g38">
</g>
<g
   transform="matrix(0.9615274,0,0,0.9615274,9.8496191,9.8496191)"
   id="g40">
</g>
<g
   transform="matrix(0.9615274,0,0,0.9615274,9.8496191,9.8496191)"
   id="g42">
</g>
<g
   transform="matrix(0.9615274,0,0,0.9615274,9.8496191,9.8496191)"
   id="g44">
</g>
<g
   transform="matrix(0.9615274,0,0,0.9615274,9.8496191,9.8496191)"
   id="g46">
</g>
<g
   transform="matrix(0.9615274,0,0,0.9615274,9.8496191,9.8496191)"
   id="g48">
</g>
<g
   transform="matrix(0.9615274,0,0,0.9615274,9.8496191,9.8496191)"
   id="g50">
</g>
<g
   transform="matrix(0.9615274,0,0,0.9615274,9.8496191,9.8496191)"
   id="g52">
</g>
<g
   transform="matrix(0.9615274,0,0,0.9615274,9.8496191,9.8496191)"
   id="g54">
</g>
<g
   transform="matrix(0.9615274,0,0,0.9615274,9.8496191,9.8496191)"
   id="g56">
</g>
<g
   transform="matrix(0.9615274,0,0,0.9615274,9.8496191,9.8496191)"
   id="g58">
</g>
</svg>
