<?xml version="1.0" encoding="UTF-8" standalone="no"?>
<svg
   xmlns:dc="http://purl.org/dc/elements/1.1/"
   xmlns:cc="http://creativecommons.org/ns#"
   xmlns:rdf="http://www.w3.org/1999/02/22-rdf-syntax-ns#"
   xmlns:svg="http://www.w3.org/2000/svg"
   xmlns="http://www.w3.org/2000/svg"
   xmlns:sodipodi="http://sodipodi.sourceforge.net/DTD/sodipodi-0.dtd"
   xmlns:inkscape="http://www.inkscape.org/namespaces/inkscape"
   inkscape:version="1.0 (4035a4fb49, 2020-05-01)"
   sodipodi:docname="tencent.svg"
   id="svg4"
   version="1.1"
   viewBox="0 0 560 400"
   fill-rule="evenodd"
   clip-rule="evenodd">
  <metadata
     id="metadata10">
    <rdf:RDF>
      <cc:Work
         rdf:about="">
        <dc:format>image/svg+xml</dc:format>
        <dc:type
           rdf:resource="http://purl.org/dc/dcmitype/StillImage" />
      </cc:Work>
    </rdf:RDF>
  </metadata>
  <defs
     id="defs8" />
  <sodipodi:namedview
     inkscape:current-layer="svg4"
     inkscape:window-maximized="1"
     inkscape:window-y="-11"
     inkscape:window-x="-11"
     inkscape:cy="316.92849"
     inkscape:cx="-296.90628"
     inkscape:zoom="0.72301668"
     showgrid="false"
     id="namedview6"
     inkscape:window-height="986"
     inkscape:window-width="1920"
     inkscape:pageshadow="2"
     inkscape:pageopacity="0"
     guidetolerance="10"
     gridtolerance="10"
     objecttolerance="10"
     borderopacity="1"
     bordercolor="#666666"
     pagecolor="#ffffff" />
  <path
     style="stroke-width:1.40971"
     sodipodi:nodetypes="ccccccccccccccccccsccccsccccccccssccccscccsccccscccssccccsccccccccssccccccccsccccccccssccccccccsccccccccsccccccccccccccccccccc"
     id="path2"
     fill="#006cb6"
     d="m 15.275856,154.33021 -3.318466,12.93694 h 30.741623 l -11.279118,45.11788 -8.293345,33.28616 h 20.12648 l 8.293345,-33.28616 11.279118,-45.11788 H 93.45575 l 3.2071,-12.93835 H 15.275856 Z m 501.157384,7.85069 -4.20094,17.03075 h -16.14545 l -3.09573,12.60707 h 59.05149 z M 119.7751,175.45054 c -12.27015,0 -22.91207,3.20851 -31.958206,9.62129 -8.996792,6.50724 -14.840054,15.03037 -17.471989,25.54401 -0.155069,0.61605 -0.318596,1.16865 -0.441241,1.76919 -2.021529,9.76368 -0.231193,17.72574 5.417529,23.77623 6.019477,6.36909 15.309489,9.50993 27.867217,9.50993 21.40368,0 37.80993,-13.05818 39.47762,-14.48622 l -9.2886,-2.10047 c -2.18506,0.50327 -14.08445,3.95002 -25.98666,2.8744 -15.01768,-1.34909 -18.42214,-12.34486 -17.581951,-17.80327 h 60.266661 l 0.55261,-1.76919 0.44265,-1.88056 c 2.73343,-10.96052 1.28707,-19.58092 -4.31231,-25.76533 -5.64591,-6.23657 -14.58913,-9.29001 -26.98333,-9.29001 z m 178.59097,0 c -12.91157,0 -24.58964,3.34948 -35.16531,10.1739 -10.59399,6.83006 -17.09277,15.29116 -19.57387,25.21414 -0.13674,0.54274 -0.33551,1.01217 -0.44124,1.54786 -1.85377,9.20966 0.60054,16.99974 7.29809,23.33217 7.10354,6.64398 17.15762,9.95258 30.18901,9.95258 7.89581,0 16.18069,-1.63668 24.88004,-4.86492 l 5.08765,-20.23644 c -5.78546,4.45469 -10.6377,7.41368 -14.48621,8.95873 -3.97117,1.59156 -8.26797,2.43175 -12.93835,2.43175 -7.32065,0 -12.858,-1.96373 -16.58669,-5.97154 -3.30014,-3.60887 -4.48148,-8.19185 -3.53979,-13.60233 0.10572,-0.59631 0.28758,-1.15314 0.44265,-1.76919 1.52531,-6.09419 5.19761,-11.21709 11.05779,-15.25874 5.84749,-4.04306 12.47032,-6.08291 19.79379,-6.08291 4.66756,0 8.44559,0.79226 11.50044,2.43316 3.11547,1.58734 6.37895,4.56889 9.73125,8.84596 l 5.08766,-20.45777 c -6.59464,-3.13802 -14.03511,-4.64641 -22.33691,-4.64641 z m 72.87373,0 c -12.27579,0 -22.91631,3.20851 -31.95821,9.62129 -9.00102,6.50724 -14.84428,15.03037 -17.47199,25.54401 -0.15507,0.61605 -0.31577,1.16865 -0.44265,1.76919 -2.02576,9.76368 -0.23965,17.72574 5.41894,23.77623 6.01102,6.36909 15.31372,9.50993 27.86722,9.50993 21.39522,0 37.81415,-13.05818 39.47762,-14.48622 l -9.28861,-2.10047 c -2.18505,0.50327 -14.08444,3.95002 -25.98807,2.8744 -15.01203,-1.34909 -18.43059,-12.34486 -17.58194,-17.80327 h 60.26807 l 0.55261,-1.76919 0.44265,-1.88056 c 2.74189,-10.96052 1.38857,-19.58092 -4.20236,-25.76533 -5.64449,-6.23657 -14.69485,-9.29001 -27.09328,-9.29001 z m -156.80667,1.88056 c -8.52735,0 -16.8644,2.63616 -24.9914,7.96206 l -18.0246,-6.08151 -8.29475,33.17338 -8.29334,33.28616 h 19.57387 l 7.96065,-32.06817 0.33269,-1.21799 c 2.03422,-7.64206 4.76342,-13.09201 8.07202,-16.25399 3.54684,-3.36217 8.4752,-4.97629 14.92887,-4.97629 5.93489,0 9.77918,1.20671 11.38907,3.7597 1.67615,2.49379 1.64091,7.04998 0,13.60092 l -0.8853,3.86966 -8.4033,33.28616 h 19.57246 l 8.29476,-33.28615 1.87915,-7.518 c 2.34858,-9.37319 1.70293,-16.08342 -1.99052,-20.23644 -4.25874,-4.86633 -11.31859,-7.29949 -21.12033,-7.2995 z m 249.80688,0 c -8.533,0 -16.85736,2.63616 -24.9914,7.96206 l -18.02601,-6.08151 -8.29334,33.17338 -8.29335,33.28616 h 19.57246 l 7.96207,-32.06817 0.33128,-1.21799 c 2.04408,-7.64206 4.75496,-13.09201 8.07202,-16.25399 3.55248,-3.36217 8.46674,-4.97629 14.92886,-4.97629 5.93208,0 9.77496,1.20671 11.39049,3.7597 1.67192,2.49379 1.64091,7.04998 0,13.60092 l -0.99526,3.86966 -8.29475,33.28616 h 19.57387 l 8.29334,-33.28615 1.88056,-7.518 c 2.34858,-9.37319 1.69871,-16.08342 -1.99051,-20.23644 -4.25452,-4.86633 -11.32846,-7.29949 -21.12033,-7.2995 z m -347.56064,11.94309 c 10.3769,0 15.92412,4.0783 16.58669,12.27437 H 94.23109 c 1.10522,-1.91016 2.38806,-3.58349 3.98103,-5.08624 1.57888,-1.49571 3.36076,-2.82789 5.30757,-3.87108 1.99898,-1.09816 4.0924,-1.88478 6.30424,-2.43316 2.23581,-0.59349 4.54069,-0.89094 6.85544,-0.88389 z m 251.4647,0 c 10.3769,0 15.93117,4.0783 16.58669,12.27437 h -39.03638 c 1.11508,-1.91016 2.40215,-3.58349 3.98103,-5.08624 1.58875,-1.49571 3.38472,-2.82789 5.30898,-3.87108 2.01589,-1.09816 4.09099,-1.88478 6.30283,-2.43316 2.23722,-0.59349 4.5421,-0.89094 6.85685,-0.88389 z m 140.21715,5.41894 -4.42227,17.6919 -8.40471,33.28616 h 19.4625 l 8.40472,-33.28616 4.42227,-17.6919 z" />
</svg>
