<?xml version="1.0" encoding="UTF-8" standalone="no"?>
<svg
   xmlns:dc="http://purl.org/dc/elements/1.1/"
   xmlns:cc="http://creativecommons.org/ns#"
   xmlns:rdf="http://www.w3.org/1999/02/22-rdf-syntax-ns#"
   xmlns:svg="http://www.w3.org/2000/svg"
   xmlns="http://www.w3.org/2000/svg"
   xmlns:sodipodi="http://sodipodi.sourceforge.net/DTD/sodipodi-0.dtd"
   xmlns:inkscape="http://www.inkscape.org/namespaces/inkscape"
   version="1.1"
   id="Capa_1"
   x="0px"
   y="0px"
   viewBox="0 0 415.142 415.142"
   style="enable-background:new 0 0 415.142 415.142;"
   xml:space="preserve"
   sodipodi:docname="texas_flag.svg"
   inkscape:version="1.0.1 (3bc2e813f5, 2020-09-07)"><metadata
   id="metadata53"><rdf:RDF><cc:Work
       rdf:about=""><dc:format>image/svg+xml</dc:format><dc:type
         rdf:resource="http://purl.org/dc/dcmitype/StillImage" /></cc:Work></rdf:RDF></metadata><defs
   id="defs51"><clipPath
     clipPathUnits="userSpaceOnUse"
     id="clipPath122"><rect
       style="fill:#0000ff;fill-rule:evenodd"
       id="rect124"
       width="84.753929"
       height="89.321503"
       x="-93.381577"
       y="171.03038" /></clipPath></defs><sodipodi:namedview
   pagecolor="#ffffff"
   bordercolor="#666666"
   borderopacity="1"
   objecttolerance="10"
   gridtolerance="10"
   guidetolerance="10"
   inkscape:pageopacity="0"
   inkscape:pageshadow="2"
   inkscape:window-width="1920"
   inkscape:window-height="986"
   id="namedview49"
   showgrid="false"
   inkscape:zoom="2.7865807"
   inkscape:cx="213.31015"
   inkscape:cy="202.3522"
   inkscape:window-x="-11"
   inkscape:window-y="-11"
   inkscape:window-maximized="1"
   inkscape:current-layer="Capa_1" />




<g
   id="g131"><rect
     style="fill:#0077b0;fill-rule:evenodd;fill-opacity:1"
     id="rect61"
     width="139.56485"
     height="260.85941"
     x="7.6126285"
     y="57.855976" /><path
     style="fill:#ffffff;stroke:#000000;stroke-width:8.37846;stroke-linecap:round;stroke-linejoin:round;stroke-miterlimit:4;stroke-dasharray:none;stroke-opacity:1;paint-order:normal"
     d="m 59.801556,214.19562 c 0.131281,-0.51159 1.056113,-4.951 2.055183,-9.86536 l 1.816488,-8.93522 -7.175484,-6.85228 c -3.946517,-3.76877 -7.055894,-6.87963 -6.909727,-6.91305 0.146168,-0.0334 4.571049,-0.70249 9.833072,-1.48681 l 9.567314,-1.42606 4.260245,-8.6359 4.260244,-8.63588 4.329335,8.67753 4.329335,8.67755 8.684737,1.2016 c 4.776607,0.66088 9.239512,1.32999 9.917562,1.4869 1.10124,0.25486 0.46399,1.02975 -5.971325,7.26103 l -7.204125,6.97572 1.585302,8.77004 c 0.871916,4.82352 1.585748,9.20825 1.586293,9.74384 7.97e-4,0.79823 -1.574346,0.15087 -8.736163,-3.59041 l -8.737155,-4.56423 -8.56497,4.52057 c -4.710733,2.48632 -8.699943,4.52058 -8.864912,4.52058 -0.164967,0 -0.19253,-0.41857 -0.06125,-0.93016 z"
     id="path127" /></g><g
   id="g118"
   transform="matrix(0.99446956,0,0,0.9234772,0.75438,24.810385)"
   style="stroke:#000000;stroke-width:11.4586;stroke-miterlimit:4;stroke-dasharray:none;stroke-opacity:1"><rect
     style="fill:#ff5148;fill-opacity:1;fill-rule:evenodd;stroke:#000000;stroke-width:11.4586;stroke-miterlimit:4;stroke-dasharray:none;stroke-opacity:1"
     id="rect63-8"
     width="269.99454"
     height="145.65495"
     x="139.05736"
     y="178.38925" /><rect
     style="fill:#f9f9f9;fill-opacity:1;fill-rule:evenodd;stroke:#000000;stroke-width:11.4586;stroke-miterlimit:4;stroke-dasharray:none;stroke-opacity:1"
     id="rect63-8-4"
     width="269.99454"
     height="145.65495"
     x="139.05736"
     y="32.734299" /></g><g
   id="g18">
</g>
<g
   id="g20">
</g>
<g
   id="g22">
</g>
<g
   id="g24">
</g>
<g
   id="g26">
</g>
<g
   id="g28">
</g>
<g
   id="g30">
</g>
<g
   id="g32">
</g>
<g
   id="g34">
</g>
<g
   id="g36">
</g>
<g
   id="g38">
</g>
<g
   id="g40">
</g>
<g
   id="g42">
</g>
<g
   id="g44">
</g>
<g
   id="g46">
</g>
<path
   d="M 408.37757,47.213662 H 6.7644285 c -3.6976499,0 -6.69343015,3.039146 -6.69343015,6.787317 V 325.47737 c 0,3.74816 2.99578025,6.78679 6.69343015,6.78679 H 328.05433 c 3.69765,0 6.69343,-3.03863 6.69343,-6.78679 0,-3.74817 -2.99578,-6.78679 -6.69343,-6.78679 H 13.458379 v -128.95167 -4.52452 -22.02303 -22.99662 -8.48361 -19.68185 -8.48363 -22.996597 -7.320139 -12.440617 h 3.346459 32.580611 39.709798 8.366912 19.411111 8.36691 39.70928 10.86159 21.71954 10.0404 194.11263 V 318.69059 h -73.82955 c -3.69765,0 4.71908,3.03862 4.71908,6.78679 0,3.74816 -8.41673,6.78678 -4.71908,6.78678 h 80.5235 c 3.69765,0 6.69343,-3.03863 6.69343,-6.78679 V 54.000979 c 0,-3.748173 -2.99578,-6.787317 -6.69343,-6.787317 z"
   id="path62"
   inkscape:connector-curvature="0"
   sodipodi:nodetypes="sssssssscccccccccccccccccccccccsssssss"
   style="stroke-width:0.522354" /></svg>
