<?xml version="1.0" encoding="UTF-8" standalone="no"?>
<svg
   xmlns:dc="http://purl.org/dc/elements/1.1/"
   xmlns:cc="http://creativecommons.org/ns#"
   xmlns:rdf="http://www.w3.org/1999/02/22-rdf-syntax-ns#"
   xmlns:svg="http://www.w3.org/2000/svg"
   xmlns="http://www.w3.org/2000/svg"
   xmlns:sodipodi="http://sodipodi.sourceforge.net/DTD/sodipodi-0.dtd"
   xmlns:inkscape="http://www.inkscape.org/namespaces/inkscape"
   id="beijing"
   enable-background="new 0 0 300 300"
   height="512"
   viewBox="0 0 300 300"
   width="512"
   version="1.1"
   sodipodi:docname="tiananmen.svg"
   inkscape:version="1.0 (4035a4fb49, 2020-05-01)">
  <metadata
     id="metadata81">
    <rdf:RDF>
      <cc:Work
         rdf:about="">
        <dc:format>image/svg+xml</dc:format>
        <dc:type
           rdf:resource="http://purl.org/dc/dcmitype/StillImage" />
        <dc:title></dc:title>
      </cc:Work>
    </rdf:RDF>
  </metadata>
  <defs
     id="defs79" />
  <sodipodi:namedview
     inkscape:document-rotation="0"
     pagecolor="#ffffff"
     bordercolor="#666666"
     borderopacity="1"
     objecttolerance="10"
     gridtolerance="10"
     guidetolerance="10"
     inkscape:pageopacity="0"
     inkscape:pageshadow="2"
     inkscape:window-width="1920"
     inkscape:window-height="986"
     id="namedview77"
     showgrid="false"
     inkscape:zoom="1.5976563"
     inkscape:cx="160.72234"
     inkscape:cy="222.54485"
     inkscape:window-x="-11"
     inkscape:window-y="-11"
     inkscape:window-maximized="1"
     inkscape:current-layer="beijing" />
  <path
     style="stroke-width:0.754346"
     id="path10-8"
     fill="#e66353"
     d="M 6.9097394,209.68797 H 294.15642 v 21.42636 H 6.9097394 Z" />
  <path
     d="m 204.45697,86.911397 c -2.31337,0 -4.189,-1.875624 -4.189,-4.188996 V 65.966406 c 0,-2.313376 1.87563,-4.188999 4.189,-4.188999 2.31336,0 4.189,1.875623 4.189,4.188999 v 16.755995 c 0,2.313372 -1.87564,4.188996 -4.189,4.188996 z"
     fill="#4c241d"
     id="path4"
     style="stroke-width:1.04724" />
  <path
     d="m 87.165022,91.100396 c -2.313374,0 -4.188999,-1.875623 -4.188999,-4.188999 V 65.966406 c 0,-2.313376 1.875625,-4.188999 4.188999,-4.188999 2.313375,0 4.188998,1.875623 4.188998,4.188999 v 20.944991 c 0,2.313376 -1.875623,4.188999 -4.188998,4.188999 z"
     fill="#4c241d"
     id="path6"
     style="stroke-width:1.04724" />
  <path
     d="M 294.44445,238.22259 H 5.5555527 c -3.0680554,0 -5.55555515,-2.67815 -5.55555515,-5.98136 V 208.3158 c 0,-3.30322 2.48749975,-5.98136 5.55555515,-5.98136 H 294.44445 c 3.06805,0 5.55555,2.67814 5.55555,5.98136 v 23.92543 c 0,3.30321 -2.4875,5.98136 -5.55555,5.98136 z M 8.6566184,228.71436 H 291.34337 v -16.8717 H 8.6566184 Z"
     fill="#4c241d"
     id="path16"
     style="stroke-width:1.44114"
     sodipodi:nodetypes="sssssssssccccc" />
  <path
     d="M 66.220029,145.9679 H 233.77996 v 41.47945 H 66.220029 Z"
     fill="#e66353"
     id="path30"
     style="stroke-width:1.04724" />
  <path
     d="M 233.77996,191.63634 H 66.220029 c -2.313375,0 -4.188999,-1.8756 -4.188999,-4.18899 v -41.47841 c 0,-2.31338 1.875624,-4.18901 4.188999,-4.18901 H 233.77996 c 2.31338,0 4.189,1.87563 4.189,4.18901 v 41.47841 c 0,2.31339 -1.87562,4.18899 -4.189,4.18899 z M 70.409028,183.25836 H 229.59096 V 150.15794 H 70.409028 Z"
     fill="#4c241d"
     id="path32"
     style="stroke-width:1.04724" />
  <path
     d="M 57.842033,170.69136 H 133.244 v 16.75599 H 57.842033 Z"
     fill="#edebdc"
     id="path34"
     style="stroke-width:1.04724" />
  <path
     d="M 133.244,191.63634 H 57.842033 c -2.313374,0 -4.188999,-1.8756 -4.188999,-4.18899 v -16.75599 c 0,-2.31337 1.875625,-4.18901 4.188999,-4.18901 H 133.244 c 2.31338,0 4.18901,1.87564 4.18901,4.18901 v 16.75599 c 0,2.31339 -1.87563,4.18899 -4.18901,4.18899 z m -71.21297,-8.37798 h 67.02398 v -8.378 H 62.03103 Z"
     fill="#4c241d"
     id="path36"
     style="stroke-width:1.04724" />
  <path
     d="m 166.75599,170.69136 h 75.40197 v 16.75599 h -75.40197 z"
     fill="#edebdc"
     id="path38"
     style="stroke-width:1.04724" />
  <path
     d="m 242.15796,191.63634 h -75.40197 c -2.31337,0 -4.189,-1.8756 -4.189,-4.18899 v -16.75599 c 0,-2.31337 1.87563,-4.18901 4.189,-4.18901 h 75.40197 c 2.31337,0 4.189,1.87564 4.189,4.18901 v 16.75599 c 0,2.31339 -1.87563,4.18899 -4.189,4.18899 z m -71.21297,-8.37798 h 67.02397 v -8.378 h -67.02397 z"
     fill="#4c241d"
     id="path40"
     style="stroke-width:1.04724" />
  <path
     d="M 218.82105,124.61238 H 81.844995 C 61.299004,145.9993 40.751966,131.741 40.751966,131.741 c 6.849013,14.25727 27.395003,13.67605 27.395003,13.67605 H 232.51804 c 0,0 20.54596,0.58122 27.39499,-13.67605 0.001,0 -20.54495,14.2583 -41.09198,-7.12862 z"
     fill="#ffce56"
     id="path46"
     style="fill:#e66353;fill-opacity:1;stroke-width:1.04724" />
  <path
     d="m 67.680942,149.61337 c -3.381568,0 -23.315965,-0.67653 -30.703264,-16.05854 -0.824186,-1.71434 -0.388529,-3.76801 1.057723,-5.00271 1.448345,-1.23155 3.549129,-1.33104 5.107435,-0.25343 0.705847,0.4828 17.968709,11.84859 35.68189,-6.58824 0.789626,-0.82211 1.881907,-1.28707 3.021315,-1.28707 H 218.82315 c 1.13941,0 2.23168,0.46393 3.02131,1.28707 17.71319,18.44521 34.97291,7.07104 35.70074,6.57778 1.56879,-1.06821 3.65909,-0.94671 5.09488,0.2838 1.43577,1.23576 1.87142,3.27474 1.05142,4.9828 -7.93396,16.52038 -30.32939,16.08052 -31.29077,16.05015 l -164.253761,0.002 c -0.0576,0.002 -0.216781,0.006 -0.466027,0.006 z m -7.433378,-9.22314 c 4.29896,0.8975 7.701475,0.83258 7.79049,0.84095 l 164.479986,-0.002 c 0.12043,-0.008 3.5732,0.0554 7.88472,-0.84096 -7.09302,-0.64824 -15.22804,-3.68423 -23.32537,-11.58677 H 83.589711 c -8.101522,7.90775 -16.244936,10.94062 -23.342147,11.58884 z"
     fill="#4c241d"
     id="path48"
     style="stroke-width:1.04724" />
  <path
     d="M 78.787025,103.66739 H 221.21296 v 20.94499 H 78.787025 Z"
     fill="#9dc1e4"
     id="path50"
     style="fill:#ffce56;fill-opacity:1;stroke-width:1.04724" />
  <path
     d="M 221.21296,128.80137 H 78.787025 c -2.313375,0 -4.188999,-1.87562 -4.188999,-4.18899 v -20.94499 c 0,-2.31338 1.875624,-4.188998 4.188999,-4.188998 H 221.21296 c 2.31338,0 4.18899,1.875618 4.18899,4.188998 v 20.94499 c 0,2.31337 -1.87561,4.18899 -4.18899,4.18899 z M 82.976023,120.42338 H 217.02397 V 107.85639 H 82.976023 Z"
     fill="#4c241d"
     id="path52"
     style="stroke-width:1.04724" />
  <path
     d="M 203.34479,78.533401 H 88.277201 c 0,20.466391 -36.874707,28.220229 -36.874707,28.220229 40.460489,7.05532 148.355466,7.05532 188.815966,0 0.001,0 -36.87367,-7.753838 -36.87367,-28.220229 z"
     fill="#ffce56"
     id="path54"
     style="fill:#e66353;fill-opacity:1;stroke-width:1.04724" />
  <path
     style="fill:#4c241d;stroke-width:1.04724"
     id="path56"
     d="m 145.811,116.2281 c -37.33864,0 -74.680418,-1.78137 -95.127966,-5.34621 -1.978255,-0.3456 -3.429743,-2.04528 -3.467444,-4.05181 -0.03666,-2.00862 1.358283,-3.75963 3.321877,-4.17434 9.333088,-1.97616 33.550735,-10.15936 33.550735,-24.121293 0,-2.313373 1.875624,-4.188997 4.188999,-4.188997 H 203.34374 c 2.31338,0 4.189,1.875624 4.189,4.188997 0,13.961933 24.21765,22.145133 33.55074,24.121293 1.9636,0.41471 3.35852,2.16572 3.32189,4.17434 -0.0367,2.00653 -1.48921,3.70621 -3.46744,4.05181 -20.44652,3.56484 -57.7883,5.34621 -95.12693,5.34621 z M 69.89797,104.91255 c 41.16633,3.97642 110.66077,3.97642 151.8271,0 -9.60328,-4.40577 -19.95743,-11.519725 -22.14724,-22.190149 H 92.045205 C 89.854358,93.392825 79.501249,100.50678 69.89797,104.91255 Z" />
  <path
     style="fill:#4c241d;stroke-width:1.04724"
     id="path58"
     d="m 82.976023,171.1986 c -2.313374,0 -4.188998,-1.87562 -4.188998,-4.18899 v -12.56699 c 0,-2.31339 1.875624,-4.18901 4.188998,-4.18901 2.313374,0 4.188999,1.87562 4.188999,4.18901 v 12.56699 c 0,2.31337 -1.875625,4.18899 -4.188999,4.18899 z" />
  <path
     style="fill:#4c241d;stroke-width:1.04724"
     id="path60"
     d="m 103.92101,171.1986 c -2.29872,0 -4.170158,-1.85467 -4.188988,-4.15863 l -0.09,-11.97633 c -0.0167,-2.31338 1.845258,-4.20158 4.158638,-4.21937 h 0.0303 c 2.29871,0 4.17014,1.85466 4.189,4.15862 l 0.09,11.97635 c 0.0167,2.31338 -1.84526,4.20156 -4.15862,4.21936 -0.009,0 -0.02,0 -0.0303,0 z" />
  <path
     style="fill:#4c241d;stroke-width:1.04724"
     id="path62"
     d="m 196.07898,171.1986 c -2.31339,0 -4.189,-1.87562 -4.189,-4.18899 v -12.56699 c 0,-2.31339 1.87561,-4.18901 4.189,-4.18901 2.31337,0 4.18899,1.87562 4.18899,4.18901 v 12.56699 c 0,2.31337 -1.87562,4.18899 -4.18899,4.18899 z" />
  <path
     style="fill:#4c241d;stroke-width:1.04724"
     id="path64"
     d="m 217.02397,171.1986 c -2.31338,0 -4.189,-1.87562 -4.189,-4.18899 v -12.56699 c 0,-2.31339 1.87562,-4.18901 4.189,-4.18901 2.31336,0 4.18899,1.87562 4.18899,4.18901 v 12.56699 c 0,2.31337 -1.87563,4.18899 -4.18899,4.18899 z" />
  <path
     style="fill:#4c241d;stroke-width:1.04724"
     id="path66"
     d="m 124.86601,171.1986 c -2.31338,0 -4.18901,-1.87562 -4.18901,-4.18899 v -12.56699 c 0,-2.31339 1.87563,-4.18901 4.18901,-4.18901 2.31337,0 4.189,1.87562 4.189,4.18901 v 12.56699 c 0,2.31337 -1.87563,4.18899 -4.189,4.18899 z" />
  <path
     style="fill:#4c241d;stroke-width:1.04724"
     id="path68"
     d="m 175.13398,171.1986 c -2.31337,0 -4.18899,-1.87562 -4.18899,-4.18899 v -12.56699 c 0,-2.31339 1.87562,-4.18901 4.18899,-4.18901 2.31339,0 4.189,1.87562 4.189,4.18901 v 12.56699 c 0,2.31337 -1.87561,4.18899 -4.189,4.18899 z" />
  <ellipse
     style="fill:#e66353;fill-opacity:1;fill-rule:nonzero;stroke:#4c241d;stroke-width:4.90898;stroke-linecap:round;stroke-linejoin:round;stroke-miterlimit:4;stroke-dasharray:none;stroke-opacity:1;paint-order:markers fill stroke"
     id="path906"
     cx="150"
     cy="118.22136"
     rx="6.3372684"
     ry="6.5293069" />
  <g
     id="g982"
     transform="matrix(1.5851929,0,0,1.0472495,-105.51062,-29.873297)">
    <path
       id="path42"
       fill="#9dc1e4"
       d="M 79.50487,188.33401 H 242.0433 v 13.55598 H 79.50487 Z"
       style="fill:#edebdc;fill-opacity:1;stroke-width:1.07126" />
    <path
       id="path44"
       fill="#4c241d"
       d="M 241.18582,204.18663 H 81.185818 c -2.209,0 -4,-1.79099 -4,-4 v -12 c 0,-2.209 1.791,-4 4,-4 H 241.18582 c 2.209,0 4,1.791 4,4 v 12 c 0,2.20901 -1.791,4 -4,4 z M 81.859572,198.53038 H 240.51207 v -6.36976 H 81.859572 Z"
       sodipodi:nodetypes="sssssssssccccc" />
  </g>
  <path
     d="M 22.365974,183.7656 H 277.63402 v 54.45699 H 22.365974 Z"
     fill="#e66353"
     id="path10"
     style="stroke-width:1.13369" />
  <path
     d="M 278.2244,238.22259 H 21.775595 c -2.723536,0 -4.931708,-1.87564 -4.931708,-4.18901 v -53.25697 c 0,-2.31338 2.208172,-4.189 4.931708,-4.189 H 278.2244 c 2.72354,0 4.93171,1.87562 4.93171,4.189 v 53.25697 c 0,2.31337 -2.20817,4.18901 -4.93171,4.18901 z M 24.252816,229.84458 H 275.7472 l 2e-4,-46.07898 H 24.252598 Z"
     fill="#4c241d"
     id="path12"
     style="stroke-width:1.13629"
     sodipodi:nodetypes="sssssssssccccc" />
  <path
     d="M 277.53781,223.04872 H 23.482639 c -2.372257,0 -1.841133,-1.87562 -1.841133,-4.18899 0,-2.31339 -0.531124,-4.189 1.841133,-4.189 H 277.53781 c 2.37227,0 1.84114,1.87561 1.84114,4.189 0,2.31337 0.53113,4.18899 -1.84114,4.18899 z"
     fill="#4c241d"
     id="path8"
     style="stroke-width:1.06051"
     sodipodi:nodetypes="sssssss" />
  <g
     id="g1001"
     transform="matrix(1.0472495,0,0,1.0472495,-184.32101,51.124915)">
    <path
       id="path72"
       fill="#edebdc"
       d="m 313.23717,119.38141 h 12 v 20 h -12 z" />
    <path
       id="path74"
       fill="#4c241d"
       d="m 325.23717,143.38141 h -12 c -2.209,0 -4,-1.791 -4,-4 v -20 c 0,-2.209 1.791,-4 4,-4 h 12 c 2.209,0 4,1.791 4,4 v 20 c 0,2.209 -1.791,4 -4,4 z m -9.17188,-6.82813 h 6.34375 v -14.34375 h -6.34375 z"
       sodipodi:nodetypes="sssssssssccccc" />
  </g>
  <path
     sodipodi:nodetypes="sssssssssccccc"
     style="stroke-width:0.356987"
     id="path16-8-9-6"
     fill="#4c241d"
     d="M 129.74771,197.78212 H 67.1019 c -0.665306,0 -1.204724,-0.75783 -1.204724,-1.69251 v -6.76999 c 0,-0.93467 0.539418,-1.6925 1.204724,-1.6925 h 62.64581 c 0.66531,0 1.20474,0.75783 1.20474,1.6925 v 6.76999 c 0,0.93468 -0.53943,1.69251 -1.20474,1.69251 z M 69.825976,193.8644 h 57.197644 v -2.31957 H 69.825976 Z" />
  <path
     d="m 232.8981,197.78212 h -62.64584 c -0.66531,0 -1.20474,-0.75783 -1.20474,-1.69251 v -6.76999 c 0,-0.93467 0.53943,-1.6925 1.20474,-1.6925 h 62.64584 c 0.66529,0 1.20471,0.75783 1.20471,1.6925 v 6.76999 c 0,0.93468 -0.53942,1.69251 -1.20471,1.69251 z M 172.97633,193.8644 H 230.174 v -2.31957 h -57.19767 z"
     fill="#4c241d"
     id="path16-8-9-6-2"
     style="stroke-width:0.356987"
     sodipodi:nodetypes="sssssssssccccc" />
  <path
     id="path66-8-0"
     d="m 150.00001,234.69285 c -4.64656,0 -8.41386,-2.42594 -8.41386,-5.41805 v -16.25413 c 0,-2.99211 3.7673,-5.41805 8.41386,-5.41805 4.64653,0 8.41384,2.42594 8.41384,5.41805 v 16.25413 c 0,2.99211 -3.76731,5.41805 -8.41384,5.41805 z"
     style="fill:#4c241d;stroke-width:1.68795" />
  <path
     style="fill:#4c241d;stroke-width:1.44839"
     d="m 180.10203,234.69285 c -3.98641,0 -7.21849,-2.082 -7.21849,-4.64989 v -13.94968 c 0,-2.56789 3.23208,-4.64989 7.21849,-4.64989 3.98643,0 7.2185,2.082 7.2185,4.64989 v 13.94968 c 0,2.56789 -3.23207,4.64989 -7.2185,4.64989 z"
     id="path66-8-0-7" />
  <path
     id="path66-8-0-7-6"
     d="m 119.89796,234.69285 c -3.9864,0 -7.21848,-2.082 -7.21848,-4.64989 v -13.94968 c 0,-2.56789 3.23208,-4.64989 7.21848,-4.64989 3.98644,0 7.21851,2.082 7.21851,4.64989 v 13.94968 c 0,2.56789 -3.23207,4.64989 -7.21851,4.64989 z"
     style="fill:#4c241d;stroke-width:1.44839" />
  <path
     style="fill:#4c241d;stroke-width:1.26316"
     d="m 89.795945,234.69285 c -3.031934,0 -5.490154,-2.082 -5.490154,-4.64989 v -13.94968 c 0,-2.56789 2.45822,-4.64989 5.490154,-4.64989 3.031944,0 5.490155,2.082 5.490155,4.64989 v 13.94968 c 0,2.56789 -2.458211,4.64989 -5.490155,4.64989 z"
     id="path66-8-0-7-6-2" />
  <path
     id="path66-8-0-7-6-2-4"
     d="m 210.20404,234.69285 c -3.03193,0 -5.49014,-2.082 -5.49014,-4.64989 v -13.94968 c 0,-2.56789 2.45821,-4.64989 5.49014,-4.64989 3.03196,0 5.49017,2.082 5.49017,4.64989 v 13.94968 c 0,2.56789 -2.45821,4.64989 -5.49017,4.64989 z"
     style="fill:#4c241d;stroke-width:1.26316" />
</svg>
