<svg id="Layer_3" enable-background="new 0 0 64 64" height="512" viewBox="0 0 64 64" width="512" xmlns="http://www.w3.org/2000/svg"><path d="m62 47h-52l-6 8h58" fill="#c1c8d1"/><path d="m16 13h4v12h-4z" fill="#c1c8d1"/><path d="m12 33v-6c0-1.105.895-2 2-2h10c1.105 0 2 .895 2 2v6" fill="#c18e59"/><g fill="#c1c8d1"><circle cx="5" cy="12" r="3"/><circle cx="10" cy="19" r="2"/><path d="m34 33v-10h-4v10"/><path d="m42 33v-10h-4v10"/></g><path d="m46 13h14v20h-14z" fill="#f5b953"/><path d="m46 13h14v4h-14z" fill="#e47c6e"/><path d="m62 47v-16c0-1.105-.895-2-2-2-1.105 0-2 .895-2 2v2h-44v-2c0-1.105-.895-2-2-2-1.105 0-2 .895-2 2v16" fill="#e47c6e"/><path d="m16 33h16v4h-16z" fill="#f5b953"/><circle cx="54" cy="45" fill="#8892a0" r="8"/><circle cx="36" cy="47" fill="#8892a0" r="6"/><circle cx="20" cy="47" fill="#8892a0" r="6"/><path d="m60 9h-14c-1.105 0-2 .895-2 2 0 1.105.895 2 2 2h14c1.105 0 2-.895 2-2 0-1.105-.895-2-2-2z" fill="#8892a0"/><path d="m1 54h62v2h-62z"/><path d="m54 54c-4.962 0-9-4.037-9-9s4.038-9 9-9 9 4.037 9 9-4.038 9-9 9zm0-16c-3.86 0-7 3.141-7 7s3.14 7 7 7 7-3.141 7-7-3.14-7-7-7z"/><path d="m36 54c-3.86 0-7-3.141-7-7s3.14-7 7-7 7 3.141 7 7-3.14 7-7 7zm0-12c-2.757 0-5 2.243-5 5s2.243 5 5 5 5-2.243 5-5-2.243-5-5-5z"/><path d="m20 54c-3.86 0-7-3.141-7-7s3.14-7 7-7 7 3.141 7 7-3.14 7-7 7zm0-12c-2.757 0-5 2.243-5 5s2.243 5 5 5 5-2.243 5-5-2.243-5-5-5z"/><path d="m4.8 55.6-1.6-1.2 6-8c.189-.252.485-.4.8-.4h4v2h-3.5z"/><path d="m20 46h35v2h-35z"/><path d="m11 47h-2v-16c0-1.654 1.346-3 3-3s3 1.346 3 3v1h42v-1c0-1.654 1.346-3 3-3s3 1.346 3 3v14h-2v-14c0-.551-.449-1-1-1s-1 .449-1 1v2c0 .553-.448 1-1 1h-44c-.552 0-1-.447-1-1v-2c0-.551-.449-1-1-1s-1 .449-1 1z"/><path d="m10 35h-1c-1.657 0-3 1.343-3 3 0 1.657 1.343 3 3 3h1" fill="#f5b953"/><path d="m10 42h-1c-2.206 0-4-1.794-4-4s1.794-4 4-4h1v2h-1c-1.103 0-2 .897-2 2s.897 2 2 2h1z"/><path d="m27 33h-2v-6c0-.551-.449-1-1-1h-10c-.551 0-1 .449-1 1v2h-2v-2c0-1.654 1.346-3 3-3h10c1.654 0 3 1.346 3 3z"/><path d="m45 13h2v20h-2z"/><path d="m59 13h2v16h-2z"/><path d="m60 14h-14c-1.654 0-3-1.346-3-3s1.346-3 3-3h14c1.654 0 3 1.346 3 3s-1.346 3-3 3zm-14-4c-.551 0-1 .449-1 1s.449 1 1 1h14c.551 0 1-.449 1-1s-.449-1-1-1z"/><path d="m20 26h-4c-.552 0-1-.448-1-1v-12h2v11h2v-11h2v12c0 .552-.448 1-1 1z"/><path d="m13 12h10v2h-10z"/><path d="m35 33h-2v-9h-2v9h-2v-10c0-.552.448-1 1-1h4c.552 0 1 .448 1 1z"/><path d="m43 33h-2v-9h-2v9h-2v-10c0-.552.448-1 1-1h4c.552 0 1 .448 1 1z"/><path d="m32 38h-16c-.552 0-1-.447-1-1v-4h2v3h14v-3h2v4c0 .553-.448 1-1 1z"/><path d="m35 36h2v2h-2z"/><path d="m39 36h2v2h-2z"/><path d="m43 36h2v2h-2z"/><path d="m46 16h14v2h-14z"/><path d="m5 16c-2.206 0-4-1.794-4-4s1.794-4 4-4 4 1.794 4 4-1.794 4-4 4zm0-6c-1.103 0-2 .897-2 2s.897 2 2 2 2-.897 2-2-.897-2-2-2z"/><path d="m10 22c-1.654 0-3-1.346-3-3s1.346-3 3-3 3 1.346 3 3-1.346 3-3 3zm0-4c-.551 0-1 .449-1 1s.449 1 1 1 1-.449 1-1-.449-1-1-1z"/></svg>