<?xml version="1.0" encoding="UTF-8" standalone="no"?>
<!-- Generator: Adobe Illustrator 16.0.0, SVG Export Plug-In . SVG Version: 6.00 Build 0)  -->

<svg
   xmlns:dc="http://purl.org/dc/elements/1.1/"
   xmlns:cc="http://creativecommons.org/ns#"
   xmlns:rdf="http://www.w3.org/1999/02/22-rdf-syntax-ns#"
   xmlns:svg="http://www.w3.org/2000/svg"
   xmlns="http://www.w3.org/2000/svg"
   xmlns:sodipodi="http://sodipodi.sourceforge.net/DTD/sodipodi-0.dtd"
   xmlns:inkscape="http://www.inkscape.org/namespaces/inkscape"
   version="1.1"
   id="Capa_1"
   x="0px"
   y="0px"
   width="800px"
   height="800px"
   viewBox="0 0 800 800"
   enable-background="new 0 0 800 800"
   xml:space="preserve"
   sodipodi:docname="ukraine_flag.svg"
   inkscape:version="0.92.4 (5da689c313, 2019-01-14)"><metadata
   id="metadata19"><rdf:RDF><cc:Work
       rdf:about=""><dc:format>image/svg+xml</dc:format><dc:type
         rdf:resource="http://purl.org/dc/dcmitype/StillImage" /><dc:title></dc:title></cc:Work></rdf:RDF></metadata><defs
   id="defs17" /><sodipodi:namedview
   pagecolor="#ffffff"
   bordercolor="#666666"
   borderopacity="1"
   objecttolerance="10"
   gridtolerance="10"
   guidetolerance="10"
   inkscape:pageopacity="0"
   inkscape:pageshadow="2"
   inkscape:window-width="1920"
   inkscape:window-height="986"
   id="namedview15"
   showgrid="false"
   inkscape:zoom="1.18"
   inkscape:cx="338.27335"
   inkscape:cy="292.36359"
   inkscape:window-x="-11"
   inkscape:window-y="-11"
   inkscape:window-maximized="1"
   inkscape:current-layer="g12" />
<g
   id="g12">
	<path
   fill="#FFE000"
   d="M76.419,659.064v-1c0-6.563-5.34-11.903-11.903-11.903H24.807V411.903h607.451   c6.563,0,11.903-5.34,11.903-11.903v-1h27.807v1c0,6.563,5.34,11.903,11.903,11.903h91.322v234.258H116.129   c-6.563,0-11.903,5.34-11.903,11.903v1H76.419z"
   id="path2" />
	<path
   fill="#FFE000"
   d="M116.129,645.161h658.064V412.903h-90.322c-7.128,0-12.903-5.777-12.903-12.903h-25.807   c0,7.126-5.775,12.903-12.903,12.903H25.807v232.258h38.709c7.128,0,12.903,5.777,12.903,12.903h25.806   C103.226,650.938,109.001,645.161,116.129,645.161z"
   id="path4" />
	<path
   fill="#164FCE"
   d="M644.161,401v-1c0-6.563-5.34-11.903-11.903-11.903H24.807V153.839h750.387v234.258h-91.322   c-6.563,0-11.903,5.34-11.903,11.903v1H644.161z"
   id="path6" />
	<path
   fill="#164FCE"
   d="M683.871,387.097h90.322V154.839H25.807v232.258h606.451c7.128,0,12.903,5.777,12.903,12.903h25.807   C670.968,392.874,676.743,387.097,683.871,387.097z"
   id="path8" />
	<path
   d="M 787.097,129.032 H 12.903 C 5.775,129.032 0,134.81 0,141.936 v 516.129 c 0,7.126 5.775,12.903 12.903,12.903 h 103.613 c 7.128,0 12.903,-5.777 12.903,-12.903 0,-7.126 -5.775,-12.903 -12.903,-12.903 H 25.807 V 412.903 h 606.451 c 7.128,0 12.903,-5.777 12.903,-12.903 0,-7.126 -5.775,-12.903 -12.903,-12.903 H 25.807 V 154.839 H 774.194 V 387.097 H 631.872 c -7.128,0 -12.903,5.777 -12.903,12.903 0,7.126 5.775,12.903 12.903,12.903 H 774.194 V 645.161 H 116.129 c -7.127,0 -12.903,5.777 -12.903,12.903 0,7.126 5.776,12.903 12.903,12.903 h 670.968 c 7.128,0 12.903,-5.777 12.903,-12.903 V 141.936 c 0,-7.126 -5.775,-12.904 -12.903,-12.904 z"
   id="path10"
   inkscape:connector-curvature="0"
   sodipodi:nodetypes="ssssssssccsssccccsssccsssssss" />
</g>
</svg>