<?xml version="1.0" encoding="UTF-8" standalone="no"?>
<!-- Generator: Adobe Illustrator 19.0.0, SVG Export Plug-In . SVG Version: 6.00 Build 0)  -->

<svg
   xmlns:dc="http://purl.org/dc/elements/1.1/"
   xmlns:cc="http://creativecommons.org/ns#"
   xmlns:rdf="http://www.w3.org/1999/02/22-rdf-syntax-ns#"
   xmlns:svg="http://www.w3.org/2000/svg"
   xmlns="http://www.w3.org/2000/svg"
   xmlns:sodipodi="http://sodipodi.sourceforge.net/DTD/sodipodi-0.dtd"
   xmlns:inkscape="http://www.inkscape.org/namespaces/inkscape"
   version="1.1"
   id="Layer_1"
   x="0px"
   y="0px"
   viewBox="0 0 255.99999 255.99999"
   xml:space="preserve"
   sodipodi:docname="united_kingdom_flag.svg"
   inkscape:version="0.92.4 (5da689c313, 2019-01-14)"
   width="256"
   height="256"><metadata
   id="metadata53"><rdf:RDF><cc:Work
       rdf:about=""><dc:format>image/svg+xml</dc:format><dc:type
         rdf:resource="http://purl.org/dc/dcmitype/StillImage" /><dc:title></dc:title></cc:Work></rdf:RDF></metadata><defs
   id="defs51" /><sodipodi:namedview
   pagecolor="#ffffff"
   bordercolor="#666666"
   borderopacity="1"
   objecttolerance="10"
   gridtolerance="10"
   guidetolerance="10"
   inkscape:pageopacity="0"
   inkscape:pageshadow="2"
   inkscape:window-width="1920"
   inkscape:window-height="986"
   id="namedview49"
   showgrid="false"
   inkscape:zoom="1.303723"
   inkscape:cx="60.036689"
   inkscape:cy="239.43169"
   inkscape:window-x="-11"
   inkscape:window-y="-11"
   inkscape:window-maximized="1"
   inkscape:current-layer="Layer_1" />
<path
   style="fill:#41479b;stroke:#000000;stroke-width:0.47860846;stroke-miterlimit:4;stroke-dasharray:none;stroke-opacity:1"
   d="M 246.29839,208.27411 H 9.7011508 c -2.3332162,0 -4.225156,-1.89193 -4.225156,-4.22515 V 51.950538 c 0,-2.333217 1.8919398,-4.225156 4.225156,-4.225156 H 246.29887 c 2.33321,0 4.22514,1.891939 4.22514,4.225156 V 204.04896 c -4.8e-4,2.33322 -1.8924,4.22515 -4.22562,4.22515 z"
   id="path2"
   inkscape:connector-curvature="0" />
<path
   style="fill:#f5f5f5;stroke-width:0.47860846"
   d="m 250.52353,51.950538 c 0,-2.333217 -1.89193,-4.225156 -4.22514,-4.225156 H 227.39575 L 149.12413,99.006843 V 47.725382 H 106.87447 V 99.006843 L 28.603313,47.725382 H 9.7011508 c -2.3332162,0 -4.225156,1.891939 -4.225156,4.225156 V 62.877647 L 72.629073,106.87468 H 5.4759948 v 42.24964 H 72.629073 L 5.4759948,193.12185 v 10.92711 c 0,2.33322 1.8919398,4.22515 4.225156,4.22515 H 28.603793 l 78.271637,-51.28147 v 51.28147 h 42.24964 v -51.28147 l 78.27165,51.28147 h 18.90262 c 2.33322,0 4.22516,-1.89193 4.22516,-4.22515 V 193.12185 L 183.37141,149.1248 h 67.15212 v -42.24964 h -67.15306 l 67.15306,-43.997513 z"
   id="path4"
   inkscape:connector-curvature="0" />
<g
   id="g16"
   transform="matrix(0.47860848,0,0,0.47860848,5.4759948,5.4757414)">
	<polygon
   style="fill:#ff4b55"
   points="229.517,88.276 229.517,229.518 0,229.518 0,282.483 229.517,282.483 229.517,423.725 282.483,423.725 282.483,282.483 512,282.483 512,229.518 282.483,229.518 282.483,88.276 "
   id="polygon6" />
	<path
   style="fill:#ff4b55"
   d="M 178.948,300.138 0.25,416.135 c 0.625,4.263 4.14,7.59 8.577,7.59 h 12.159 l 190.39,-123.586 h -32.428 z"
   id="path8"
   inkscape:connector-curvature="0" />
	<path
   style="fill:#ff4b55"
   d="M 346.388,300.138 H 313.96 l 190.113,123.404 c 4.431,-0.472 7.928,-4.09 7.928,-8.646 v -7.258 z"
   id="path10"
   inkscape:connector-curvature="0" />
	<path
   style="fill:#ff4b55"
   d="m 0,106.849 161.779,105.014 h 32.428 L 5.143,89.137 C 2.123,90.54 0,93.555 0,97.104 Z"
   id="path12"
   inkscape:connector-curvature="0" />
	<path
   style="fill:#ff4b55"
   d="M 332.566,211.863 511.693,95.586 c -0.744,-4.122 -4.184,-7.309 -8.521,-7.309 H 490.525 L 300.138,211.863 Z"
   id="path14"
   inkscape:connector-curvature="0" />
</g>
<g
   id="g18"
   transform="matrix(0.47860848,0,0,0.47860848,5.4759948,5.4757414)">
</g>
<g
   id="g20"
   transform="matrix(0.47860848,0,0,0.47860848,5.4759948,5.4757414)">
</g>
<g
   id="g22"
   transform="matrix(0.47860848,0,0,0.47860848,5.4759948,5.4757414)">
</g>
<g
   id="g24"
   transform="matrix(0.47860848,0,0,0.47860848,5.4759948,5.4757414)">
</g>
<g
   id="g26"
   transform="matrix(0.47860848,0,0,0.47860848,5.4759948,5.4757414)">
</g>
<g
   id="g28"
   transform="matrix(0.47860848,0,0,0.47860848,5.4759948,5.4757414)">
</g>
<g
   id="g30"
   transform="matrix(0.47860848,0,0,0.47860848,5.4759948,5.4757414)">
</g>
<g
   id="g32"
   transform="matrix(0.47860848,0,0,0.47860848,5.4759948,5.4757414)">
</g>
<g
   id="g34"
   transform="matrix(0.47860848,0,0,0.47860848,5.4759948,5.4757414)">
</g>
<g
   id="g36"
   transform="matrix(0.47860848,0,0,0.47860848,5.4759948,5.4757414)">
</g>
<g
   id="g38"
   transform="matrix(0.47860848,0,0,0.47860848,5.4759948,5.4757414)">
</g>
<g
   id="g40"
   transform="matrix(0.47860848,0,0,0.47860848,5.4759948,5.4757414)">
</g>
<g
   id="g42"
   transform="matrix(0.47860848,0,0,0.47860848,5.4759948,5.4757414)">
</g>
<g
   id="g44"
   transform="matrix(0.47860848,0,0,0.47860848,5.4759948,5.4757414)">
</g>
<g
   id="g46"
   transform="matrix(0.47860848,0,0,0.47860848,5.4759948,5.4757414)">
</g>
<path
   style="fill:none;stroke:#000000;stroke-width:8.5;stroke-miterlimit:4;stroke-dasharray:none;stroke-opacity:1"
   d="M 246.29839,208.27437 H 9.7011508 c -2.3332162,0 -4.225156,-1.89195 -4.225156,-4.22516 V 51.950786 c 0,-2.33322 1.8919398,-4.22516 4.225156,-4.22516 H 246.29887 c 2.33321,0 4.22514,1.89194 4.22514,4.22516 V 204.04921 c -4.8e-4,2.33321 -1.8924,4.22516 -4.22562,4.22516 z"
   id="path2-9"
   inkscape:connector-curvature="0" /></svg>