<?xml version="1.0" encoding="iso-8859-1"?>
<!-- Generator: Adobe Illustrator 19.0.0, SVG Export Plug-In . SVG Version: 6.00 Build 0)  -->
<svg version="1.1" id="Layer_1" xmlns="http://www.w3.org/2000/svg" xmlns:xlink="http://www.w3.org/1999/xlink" x="0px" y="0px"
	 viewBox="0 0 512 512" style="enable-background:new 0 0 512 512;" xml:space="preserve">
<path style="fill:#7364E1;" d="M503.467,247.467H264.533V110.929c0-4.713-3.817-8.533-8.533-8.533c-4.717,0-8.533,3.821-8.533,8.533
	v136.538H8.533C3.817,247.467,0,251.283,0,256c0,4.717,3.817,8.533,8.533,8.533h238.933v136.533c0,4.717,3.817,8.533,8.533,8.533
	c4.717,0,8.533-3.817,8.533-8.533V264.533h238.933c4.717,0,8.533-3.817,8.533-8.533C512,251.283,508.184,247.467,503.467,247.467z"
	/>
<g>
	<path style="fill:#B9B1F0;" d="M324.267,247.467h-35.34c-3.095-11.954-12.439-21.297-24.394-24.394V204.8
		c0-4.713-3.821-8.533-8.533-8.533c-4.713,0-8.533,3.821-8.533,8.533v18.273c-11.954,3.095-21.297,12.439-24.394,24.394h-35.34
		c-4.713,0-8.533,3.821-8.533,8.533c0,4.713,3.821,8.533,8.533,8.533h35.34c3.097,11.954,12.439,21.297,24.394,24.394V307.2
		c0,4.713,3.821,8.533,8.533,8.533c4.713,0,8.533-3.821,8.533-8.533v-18.273c11.954-3.097,21.297-12.439,24.394-24.394h35.34
		c4.713,0,8.533-3.821,8.533-8.533S328.979,247.467,324.267,247.467z"/>
	<path style="fill:#B9B1F0;" d="M213.333,221.867c-2.183,0-4.367-0.833-6.033-2.5L113.434,125.5c-3.333-3.333-3.333-8.734,0-12.067
		c3.333-3.333,8.734-3.333,12.067,0l93.867,93.867c3.333,3.333,3.333,8.734,0,12.067C217.7,221.034,215.517,221.867,213.333,221.867
		z"/>
	<path style="fill:#B9B1F0;" d="M392.533,401.067c-2.183,0-4.367-0.833-6.033-2.5L292.634,304.7c-3.333-3.333-3.333-8.734,0-12.067
		s8.734-3.333,12.067,0l93.867,93.867c3.333,3.333,3.333,8.734,0,12.067C396.9,400.234,394.717,401.067,392.533,401.067z"/>
	<path style="fill:#B9B1F0;" d="M256,85.333c-4.717,0-8.533-3.821-8.533-8.533v-8.533c0-4.713,3.817-8.533,8.533-8.533
		c4.717,0,8.533,3.821,8.533,8.533V76.8C264.533,81.513,260.717,85.333,256,85.333z"/>
	<path style="fill:#B9B1F0;" d="M256,452.267c-4.717,0-8.533-3.817-8.533-8.533V435.2c0-4.717,3.817-8.533,8.533-8.533
		c4.717,0,8.533,3.817,8.533,8.533v8.533C264.533,448.45,260.717,452.267,256,452.267z"/>
	<path style="fill:#B9B1F0;" d="M298.667,221.867c-2.183,0-4.367-0.833-6.033-2.5c-3.333-3.333-3.333-8.734,0-12.067l93.867-93.867
		c3.333-3.333,8.734-3.333,12.067,0c3.333,3.333,3.333,8.734,0,12.067l-93.867,93.867
		C303.034,221.034,300.85,221.867,298.667,221.867z"/>
	<path style="fill:#B9B1F0;" d="M119.467,401.067c-2.183,0-4.367-0.833-6.033-2.5c-3.333-3.333-3.333-8.734,0-12.067l93.867-93.867
		c3.333-3.333,8.734-3.333,12.067,0s3.333,8.734,0,12.067l-93.867,93.867C123.834,400.234,121.65,401.067,119.467,401.067z"/>
</g>
<g>
	<path style="fill:#DCD8F7;" d="M204.8,384c-1.125,0-2.267-0.217-3.358-0.691c-4.334-1.858-6.341-6.875-4.483-11.2l18.284-42.667
		c1.85-4.35,6.9-6.358,11.2-4.483c4.334,1.858,6.341,6.875,4.483,11.2l-18.284,42.667C211.259,382.067,208.109,384,204.8,384z"/>
	<path style="fill:#DCD8F7;" d="M308.417,384c-3.309,0-6.459-1.934-7.842-5.175l-18.284-42.667c-1.858-4.325,0.15-9.342,4.483-11.2
		c4.291-1.884,9.342,0.133,11.2,4.483l18.284,42.667c1.858,4.325-0.15,9.342-4.483,11.2C310.684,383.783,309.541,384,308.417,384z"
		/>
	<path style="fill:#DCD8F7;" d="M290.133,187.733c-1.125,0-2.267-0.217-3.358-0.691c-4.334-1.858-6.341-6.875-4.483-11.2
		l18.284-42.671c1.85-4.334,6.9-6.341,11.2-4.479c4.334,1.854,6.341,6.87,4.483,11.204l-18.284,42.662
		C296.592,185.801,293.442,187.733,290.133,187.733z"/>
	<path style="fill:#DCD8F7;" d="M110.975,200.142c-1.167,0-2.367-0.242-3.5-0.758l-8.583-3.875c-4.3-1.934-6.208-6.992-4.267-11.283
		c1.941-4.291,7.001-6.217,11.283-4.267l8.583,3.875c4.3,1.934,6.208,6.992,4.267,11.283
		C117.333,198.275,114.234,200.142,110.975,200.142z"/>
	<path style="fill:#DCD8F7;" d="M179.191,230.933c-1.167,0-2.367-0.242-3.5-0.758l-38.992-17.6c-4.3-1.934-6.208-6.992-4.267-11.283
		c1.941-4.291,6.992-6.217,11.283-4.267l38.992,17.6c4.3,1.934,6.208,6.992,4.267,11.283
		C185.55,229.067,182.45,230.933,179.191,230.933z"/>
	<path style="fill:#DCD8F7;" d="M223.084,187.733c-3.309,0-6.459-1.934-7.842-5.175l-18.284-42.662
		c-1.858-4.334,0.15-9.35,4.483-11.204c4.291-1.871,9.342,0.142,11.2,4.479l18.284,42.671c1.858,4.325-0.15,9.342-4.483,11.2
		C225.35,187.517,224.208,187.733,223.084,187.733z"/>
	<path style="fill:#DCD8F7;" d="M401.025,200.142c-3.259,0-6.358-1.867-7.783-5.025c-1.941-4.291-0.033-9.35,4.267-11.283
		l8.583-3.875c4.284-1.967,9.342-0.025,11.283,4.267c1.941,4.291,0.033,9.35-4.267,11.283l-8.583,3.875
		C403.392,199.9,402.192,200.142,401.025,200.142z"/>
	<path style="fill:#DCD8F7;" d="M332.809,230.933c-3.259,0-6.358-1.867-7.783-5.025c-1.941-4.291-0.033-9.35,4.267-11.283
		l38.992-17.6c4.291-1.967,9.35-0.033,11.283,4.267c1.941,4.291,0.033,9.35-4.267,11.283l-38.992,17.6
		C335.175,230.691,333.975,230.933,332.809,230.933z"/>
	<path style="fill:#DCD8F7;" d="M409.591,332.8c-1.167,0-2.367-0.242-3.5-0.758l-8.583-3.875c-4.3-1.934-6.208-6.992-4.267-11.283
		c1.934-4.291,6.992-6.217,11.283-4.267l8.583,3.875c4.3,1.934,6.208,6.992,4.267,11.283C415.95,330.933,412.85,332.8,409.591,332.8
		z"/>
	<path style="fill:#DCD8F7;" d="M371.783,315.733c-1.167,0-2.367-0.242-3.5-0.758l-38.992-17.6c-4.3-1.934-6.208-6.992-4.267-11.283
		c1.941-4.284,7.001-6.217,11.283-4.267l38.992,17.6c4.3,1.934,6.208,6.992,4.267,11.283
		C378.142,313.867,375.042,315.733,371.783,315.733z"/>
	<path style="fill:#DCD8F7;" d="M102.409,332.8c-3.259,0-6.358-1.867-7.783-5.025c-1.941-4.291-0.033-9.35,4.267-11.283l8.583-3.875
		c4.291-1.967,9.342-0.025,11.283,4.267c1.941,4.291,0.033,9.35-4.267,11.283l-8.583,3.875
		C104.775,332.558,103.575,332.8,102.409,332.8z"/>
	<path style="fill:#DCD8F7;" d="M140.217,315.733c-3.259,0-6.358-1.867-7.783-5.025c-1.941-4.291-0.033-9.35,4.267-11.283
		l38.992-17.6c4.284-1.967,9.342-0.025,11.283,4.267c1.941,4.291,0.033,9.35-4.267,11.283l-38.992,17.6
		C142.583,315.491,141.383,315.733,140.217,315.733z"/>
</g>
<circle style="fill:#FFFFFF;" cx="256" cy="256" r="17.067"/>
<g>
</g>
<g>
</g>
<g>
</g>
<g>
</g>
<g>
</g>
<g>
</g>
<g>
</g>
<g>
</g>
<g>
</g>
<g>
</g>
<g>
</g>
<g>
</g>
<g>
</g>
<g>
</g>
<g>
</g>
</svg>
