<?xml version="1.0" encoding="UTF-8" standalone="no"?>
<!-- Created with Inkscape (http://www.inkscape.org/) -->

<svg
   xmlns:dc="http://purl.org/dc/elements/1.1/"
   xmlns:cc="http://creativecommons.org/ns#"
   xmlns:rdf="http://www.w3.org/1999/02/22-rdf-syntax-ns#"
   xmlns:svg="http://www.w3.org/2000/svg"
   xmlns="http://www.w3.org/2000/svg"
   xmlns:sodipodi="http://sodipodi.sourceforge.net/DTD/sodipodi-0.dtd"
   xmlns:inkscape="http://www.inkscape.org/namespaces/inkscape"
   width="480"
   height="484"
   viewBox="0 0 127 128.05832"
   version="1.1"
   id="svg8"
   inkscape:version="0.92.4 (5da689c313, 2019-01-14)"
   sodipodi:docname="venice_flag.svg">
  <defs
     id="defs2" />
  <sodipodi:namedview
     id="base"
     pagecolor="#ffffff"
     bordercolor="#666666"
     borderopacity="1.0"
     inkscape:pageopacity="0.0"
     inkscape:pageshadow="2"
     inkscape:zoom="1.4"
     inkscape:cx="169.54089"
     inkscape:cy="184.00986"
     inkscape:document-units="mm"
     inkscape:current-layer="layer1"
     showgrid="false"
     units="px"
     inkscape:window-width="1920"
     inkscape:window-height="1017"
     inkscape:window-x="-8"
     inkscape:window-y="-8"
     inkscape:window-maximized="1" />
  <metadata
     id="metadata5">
    <rdf:RDF>
      <cc:Work
         rdf:about="">
        <dc:format>image/svg+xml</dc:format>
        <dc:type
           rdf:resource="http://purl.org/dc/dcmitype/StillImage" />
        <dc:title></dc:title>
      </cc:Work>
    </rdf:RDF>
  </metadata>
  <g
     inkscape:label="Layer 1"
     inkscape:groupmode="layer"
     id="layer1"
     transform="translate(0,-168.94166)">
    <rect
       style="fill:#000000;fill-rule:evenodd;stroke-width:1.14965177"
       id="rect826"
       width="127"
       height="73.5"
       x="-1.3544721e-14"
       y="196.22083"
       rx="2"
       ry="2.1205745" />
    <g
       id="g916"
       transform="matrix(1,0,0,1.0441983,-1.4305115e-6,-10.296909)">
      <rect
         y="202.3253"
         x="92.635315"
         height="8.1882086"
         width="29.864685"
         id="rect816"
         style="fill:#ffaf14;fill-opacity:1;fill-rule:evenodd;stroke-width:0.26598912" />
      <rect
         y="255.42813"
         x="92.635315"
         height="8.1882086"
         width="29.864685"
         id="rect816-4"
         style="fill:#ffaf14;fill-opacity:1;fill-rule:evenodd;stroke-width:0.26598912" />
      <rect
         y="244.80756"
         x="92.635315"
         height="8.1882086"
         width="29.864685"
         id="rect816-4-1"
         style="fill:#ffaf14;fill-opacity:1;fill-rule:evenodd;stroke-width:0.26598912" />
      <rect
         y="234.187"
         x="92.635315"
         height="8.1882086"
         width="29.864685"
         id="rect816-4-1-2"
         style="fill:#ffaf14;fill-opacity:1;fill-rule:evenodd;stroke-width:0.26598912" />
      <rect
         y="223.56644"
         x="92.635315"
         height="8.1882086"
         width="29.864685"
         id="rect816-4-1-2-0"
         style="fill:#ffaf14;fill-opacity:1;fill-rule:evenodd;stroke-width:0.26598912" />
      <rect
         y="212.94588"
         x="92.635315"
         height="8.1882086"
         width="29.864685"
         id="rect816-4-1-2-0-6"
         style="fill:#ffaf14;fill-opacity:1;fill-rule:evenodd;stroke-width:0.26598912" />
      <rect
         y="203.48555"
         x="92.656693"
         height="5.88976"
         width="28.779337"
         id="rect897-6"
         style="fill:#b30b00;fill-opacity:1;fill-rule:evenodd;stroke-width:0.17994656" />
      <rect
         y="256.62463"
         x="92.656693"
         height="5.88976"
         width="28.779337"
         id="rect897-6-6"
         style="fill:#b30b00;fill-opacity:1;fill-rule:evenodd;stroke-width:0.17994656" />
      <rect
         y="245.99683"
         x="92.656693"
         height="5.88976"
         width="28.779337"
         id="rect897-6-6-2"
         style="fill:#b30b00;fill-opacity:1;fill-rule:evenodd;stroke-width:0.17994656" />
      <rect
         y="235.369"
         x="92.656693"
         height="5.88976"
         width="28.779337"
         id="rect897-6-6-2-1"
         style="fill:#b30b00;fill-opacity:1;fill-rule:evenodd;stroke-width:0.17994656" />
      <rect
         y="224.7412"
         x="92.656693"
         height="5.88976"
         width="28.779337"
         id="rect897-6-6-2-1-1"
         style="fill:#b30b00;fill-opacity:1;fill-rule:evenodd;stroke-width:0.17994656" />
      <rect
         y="214.11337"
         x="92.656693"
         height="5.88976"
         width="28.779337"
         id="rect897-6-6-2-1-1-0"
         style="fill:#b30b00;fill-opacity:1;fill-rule:evenodd;stroke-width:0.17994656" />
      <rect
         y="202.3253"
         x="4.5000029"
         height="61.291039"
         width="88.66729"
         id="rect814"
         style="fill:#ffaf14;fill-opacity:1;fill-rule:evenodd;stroke-width:0.26598912" />
      <rect
         y="210.55322"
         x="12.650819"
         height="44.602474"
         width="72.382561"
         id="rect895"
         style="fill:#b30b00;fill-opacity:1;fill-rule:evenodd;stroke-width:0.26618236" />
      <rect
         y="203.48555"
         x="12.650819"
         height="5.88976"
         width="72.382561"
         id="rect897"
         style="fill:#b30b00;fill-opacity:1;fill-rule:evenodd;stroke-width:0.28537777" />
      <rect
         y="256.62463"
         x="12.650819"
         height="5.88976"
         width="72.382561"
         id="rect897-3"
         style="fill:#b30b00;fill-opacity:1;fill-rule:evenodd;stroke-width:0.28537777" />
      <rect
         y="210.55322"
         x="5.5756879"
         height="44.602737"
         width="5.890131"
         id="rect914"
         style="fill:#b30b00;fill-opacity:1;fill-rule:evenodd;stroke-width:0.29573706" />
      <rect
         y="210.55322"
         x="86.083191"
         height="44.602741"
         width="5.890131"
         id="rect914-7"
         style="fill:#b30b00;fill-opacity:1;fill-rule:evenodd;stroke-width:0.29573706" />
      <rect
         y="256.62427"
         x="5.5756879"
         height="5.890131"
         width="5.890131"
         id="rect914-0"
         style="fill:#b30b00;fill-opacity:1;fill-rule:evenodd;stroke-width:0.10747004" />
      <rect
         y="203.48555"
         x="5.5756879"
         height="5.890131"
         width="5.890131"
         id="rect914-0-0"
         style="fill:#b30b00;fill-opacity:1;fill-rule:evenodd;stroke-width:0.10747004" />
      <rect
         y="203.48555"
         x="86.083191"
         height="5.890131"
         width="5.890131"
         id="rect914-0-0-5"
         style="fill:#b30b00;fill-opacity:1;fill-rule:evenodd;stroke-width:0.10747004" />
      <rect
         y="256.62427"
         x="86.083191"
         height="5.890131"
         width="5.890131"
         id="rect914-0-0-5-4"
         style="fill:#b30b00;fill-opacity:1;fill-rule:evenodd;stroke-width:0.10747004" />
      <ellipse
         ry="3.1101663"
         rx="3.3788557"
         cy="232.8546"
         cx="8.5207539"
         id="path1081"
         style="opacity:1;fill:#b30b00;fill-opacity:1;fill-rule:nonzero;stroke:#ffaf14;stroke-width:1.00531328;stroke-linecap:round;stroke-linejoin:round;stroke-miterlimit:4;stroke-dasharray:none;stroke-opacity:1;paint-order:markers fill stroke" />
      <ellipse
         ry="3.1101663"
         rx="3.3788559"
         cy="232.8546"
         cx="89.028252"
         id="path1081-2"
         style="opacity:1;fill:#b30b00;fill-opacity:1;fill-rule:nonzero;stroke:#ffaf14;stroke-width:1.00531328;stroke-linecap:round;stroke-linejoin:round;stroke-miterlimit:4;stroke-dasharray:none;stroke-opacity:1;paint-order:markers fill stroke" />
      <ellipse
         ry="3.1101663"
         rx="3.3788559"
         cy="206.43044"
         cx="48.842098"
         id="path1081-7"
         style="opacity:1;fill:#b30b00;fill-opacity:1;fill-rule:nonzero;stroke:#ffaf14;stroke-width:1.00531328;stroke-linecap:round;stroke-linejoin:round;stroke-miterlimit:4;stroke-dasharray:none;stroke-opacity:1;paint-order:markers fill stroke" />
      <ellipse
         ry="3.1101663"
         rx="3.3788562"
         cy="259.56952"
         cx="48.842098"
         id="path1081-7-8"
         style="opacity:1;fill:#b30b00;fill-opacity:1;fill-rule:nonzero;stroke:#ffaf14;stroke-width:1.00531328;stroke-linecap:round;stroke-linejoin:round;stroke-miterlimit:4;stroke-dasharray:none;stroke-opacity:1;paint-order:markers fill stroke" />
      <text
         id="text1158"
         y="264.30289"
         x="86.382423"
         style="font-style:normal;font-variant:normal;font-weight:normal;font-stretch:normal;font-size:10.58333302px;line-height:1.25;font-family:KaiTi;-inkscape-font-specification:KaiTi;letter-spacing:0px;word-spacing:0px;fill:#ffaf14;fill-opacity:1;stroke:none;stroke-width:0.26458332"
         xml:space="preserve"><tspan
           style="fill:#ffaf14;fill-opacity:1;stroke-width:0.26458332"
           y="264.30289"
           x="86.382423"
           id="tspan1156"
           sodipodi:role="line">*</tspan></text>
      <text
         id="text1158-8"
         y="264.30289"
         x="5.8749199"
         style="font-style:normal;font-variant:normal;font-weight:normal;font-stretch:normal;font-size:10.58333302px;line-height:1.25;font-family:KaiTi;-inkscape-font-specification:KaiTi;letter-spacing:0px;word-spacing:0px;fill:#ffaf14;fill-opacity:1;stroke:none;stroke-width:0.26458332"
         xml:space="preserve"><tspan
           style="fill:#ffaf14;fill-opacity:1;stroke-width:0.26458332"
           y="264.30289"
           x="5.8749199"
           id="tspan1156-6"
           sodipodi:role="line">*</tspan></text>
      <text
         id="text1158-3"
         y="211.16417"
         x="86.382423"
         style="font-style:normal;font-variant:normal;font-weight:normal;font-stretch:normal;font-size:10.58333302px;line-height:1.25;font-family:KaiTi;-inkscape-font-specification:KaiTi;letter-spacing:0px;word-spacing:0px;fill:#ffaf14;fill-opacity:1;stroke:none;stroke-width:0.26458332"
         xml:space="preserve"><tspan
           style="fill:#ffaf14;fill-opacity:1;stroke-width:0.26458332"
           y="211.16417"
           x="86.382423"
           id="tspan1156-5"
           sodipodi:role="line">*</tspan></text>
      <text
         id="text1158-3-2"
         y="211.16417"
         x="5.8749199"
         style="font-style:normal;font-variant:normal;font-weight:normal;font-stretch:normal;font-size:10.58333302px;line-height:1.25;font-family:KaiTi;-inkscape-font-specification:KaiTi;letter-spacing:0px;word-spacing:0px;fill:#ffaf14;fill-opacity:1;stroke:none;stroke-width:0.26458332"
         xml:space="preserve"><tspan
           style="fill:#ffaf14;fill-opacity:1;stroke-width:0.26458332"
           y="211.16417"
           x="5.8749199"
           id="tspan1156-5-2"
           sodipodi:role="line">*</tspan></text>
      <text
         id="text1242"
         y="236.69933"
         x="5.9369321"
         style="font-style:normal;font-variant:normal;font-weight:normal;font-stretch:normal;font-size:10.58333302px;line-height:1.25;font-family:KaiTi;-inkscape-font-specification:KaiTi;letter-spacing:0px;word-spacing:0px;fill:#ffaf14;fill-opacity:1;stroke:none;stroke-width:0.26458332"
         xml:space="preserve"><tspan
           style="fill:#ffaf14;fill-opacity:1;stroke-width:0.26458332"
           y="236.69933"
           x="5.9369321"
           id="tspan1240"
           sodipodi:role="line">+</tspan></text>
      <text
         id="text1242-1"
         y="263.41425"
         x="46.258278"
         style="font-style:normal;font-variant:normal;font-weight:normal;font-stretch:normal;font-size:10.58333302px;line-height:1.25;font-family:KaiTi;-inkscape-font-specification:KaiTi;letter-spacing:0px;word-spacing:0px;fill:#ffaf14;fill-opacity:1;stroke:none;stroke-width:0.26458332"
         xml:space="preserve"><tspan
           style="fill:#ffaf14;fill-opacity:1;stroke-width:0.26458332"
           y="263.41425"
           x="46.258278"
           id="tspan1240-3"
           sodipodi:role="line">+</tspan></text>
      <text
         id="text1242-1-5"
         y="236.69933"
         x="86.444427"
         style="font-style:normal;font-variant:normal;font-weight:normal;font-stretch:normal;font-size:10.58333302px;line-height:1.25;font-family:KaiTi;-inkscape-font-specification:KaiTi;letter-spacing:0px;word-spacing:0px;fill:#ffaf14;fill-opacity:1;stroke:none;stroke-width:0.26458332"
         xml:space="preserve"><tspan
           style="fill:#ffaf14;fill-opacity:1;stroke-width:0.26458332"
           y="236.69933"
           x="86.444427"
           id="tspan1240-3-8"
           sodipodi:role="line">+</tspan></text>
      <text
         id="text1242-1-5-2"
         y="210.27516"
         x="46.258278"
         style="font-style:normal;font-variant:normal;font-weight:normal;font-stretch:normal;font-size:10.58333302px;line-height:1.25;font-family:KaiTi;-inkscape-font-specification:KaiTi;letter-spacing:0px;word-spacing:0px;fill:#ffaf14;fill-opacity:1;stroke:none;stroke-width:0.26458332"
         xml:space="preserve"><tspan
           style="fill:#ffaf14;fill-opacity:1;stroke-width:0.26458332"
           y="210.27516"
           x="46.258278"
           id="tspan1240-3-8-4"
           sodipodi:role="line">+</tspan></text>
      <path
         inkscape:connector-curvature="0"
         id="path1298-7"
         d="m 74.721668,252.66839 c 0.985214,-0.19282 1.326205,-1.04367 1.688631,-1.87263 0.451409,-0.80176 0.874774,-1.60885 0.60088,-2.54854 -0.08509,-1.78995 -0.439108,-3.54807 -0.956141,-5.26006 0.406397,-0.83058 1.013111,-2.33304 0.03464,-2.88673 -1.754222,-0.80201 -2.353484,-2.4266 -2.911047,-4.15376 -1.37558,-1.7756 1.80335,-1.16532 2.503973,-2.22705 0.89766,-0.75486 1.585233,-1.80362 1.35161,-3.00718 0.150203,-1.62799 -1.779937,-2.79661 0.342387,-3.87728 0.958834,-1.9605 -0.362885,-4.79566 -1.108652,-6.76815 -1.887237,-0.27328 -1.555931,-2.1423 -0.258525,-2.91211 2.925008,-0.10454 2.954353,-3.80996 -0.104727,-3.01101 -2.549682,-0.0166 -5.099459,-0.006 -7.649184,-0.009 -0.452513,-0.81389 -1.151124,-1.1712 -2.078509,-1.10409 -5.402649,-0.37808 -10.827977,0.12648 -16.238449,0.1761 -2.875119,-0.0491 -5.806567,0.48747 -8.644455,-0.061 -3.772136,-1.49741 -8.457267,0.0788 -10.316174,3.75702 -1.078567,2.14779 -1.459713,5.05314 -0.552225,7.27345 1.518533,1.53078 -0.128503,3.62583 -0.430695,5.39366 -0.779715,1.51211 1.605248,1.86678 0.988067,3.30804 0.232629,1.02656 -0.663096,2.46351 0.221566,3.25018 0.91313,1.26276 0.559503,3.26777 -1.312014,2.16129 -0.997754,-0.0925 -2.060176,-0.50907 -2.909549,0.22815 -1.036003,0.69409 -2.353397,0.11169 -3.521673,0.20574 -1.049367,-0.0524 -2.098733,-0.10479 -3.148099,-0.15718 -1.006777,0.63889 -1.110041,1.62657 -0.79513,2.72034 1.071651,3.04979 2.635354,5.90639 3.952725,8.85836 2.790908,0.0329 5.581815,0.0659 8.372723,0.0988 1.084996,0.55043 1.779494,1.94718 2.876275,2.17615 1.031274,0.0449 2.059172,0.0756 2.924861,-0.5781 2.35778,-0.79706 3.194594,-3.55977 5.627627,-4.27804 2.704401,-0.56722 3.528568,-3.76452 5.510978,-4.7189 2.051927,-0.25028 4.613527,-3.24204 5.70646,-0.08 2.554495,0.31042 1.226557,2.41089 0.512525,3.82907 -1.569168,-0.0616 -3.673176,-0.0153 -4.236217,1.75927 0.296733,1.15148 0.924666,2.52346 2.162469,2.75878 1.263422,-0.0953 2.654412,0.32337 3.72831,-0.53539 0.802029,-0.54664 2.048114,-0.68614 2.235241,-1.79657 0.946319,-2.01438 2.930411,-3.4616 4.91113,-4.39253 1.917935,-0.79402 3.93743,0.594 5.995872,0.47755 0.74679,0.26776 2.019123,-0.21633 2.282546,0.74293 0.268362,1.09207 2.341639,3.14612 0.923173,3.4217 -2.809708,-0.4737 -2.905804,2.63524 -0.77609,3.69396 0.777687,0.52927 1.724902,0.42621 2.492881,-0.0553 z m -0.800424,-0.54567 c 0.872478,-2.37619 -3.117676,0.55499 -1.267612,-1.3643 1.109802,-0.5347 -2.1313,-0.39206 -0.450213,-1.06017 0.71902,-0.0631 1.85614,0.31786 2.334247,-0.001 0.09062,-1.07769 0.741612,-1.82277 -0.01019,-2.86406 -0.189424,-1.54687 -2.139359,-1.73906 -1.084343,-3.28666 -0.902894,-0.0579 -3.25826,1.02716 -1.479666,-0.65178 -0.991283,-0.49565 -3.736484,2.02559 -2.055168,-0.35889 -0.576776,-0.75842 -4.536512,2.94544 -3.022475,0.26 1.698911,-1.96154 -3.767426,1.78302 -2.134132,-1.02389 1.22692,-0.19137 3.004801,-1.05686 0.631078,-0.78843 -1.953467,0.52655 -1.618358,-1.21513 0.313347,-1.01946 2.012044,-1.76087 -1.043174,-0.31275 -2.173674,-0.62228 -1.427071,-0.74701 3.827603,-1.9835 0.86287,-2.01717 -1.087412,0.13633 -3.708428,-0.42689 -3.664848,1.21275 -0.245983,2.43484 -3.367036,-0.82448 -1.020408,-1.69242 1.090492,0.20836 3.811752,-0.36932 1.195316,-0.5404 -1.676413,-0.33251 -3.387977,-0.002 -4.840232,0.51395 -0.582153,0.53923 -1.62096,2.19589 -1.173674,0.41825 -0.944464,-0.10889 -2.508226,4.65223 -3.260488,2.49546 0.772337,-0.78478 2.457411,-3.38763 0.430179,-1.60003 -0.907562,0.39244 -1.799927,4.94418 -2.217891,2.47769 0.331282,-0.853 1.748653,-3.69801 0.169024,-1.57548 -0.245019,1.40206 -1.869166,2.0677 -1.343153,0.24469 1.335762,-1.43479 -0.666159,-0.85753 -0.932439,0.0604 -0.485912,0.45138 0.48042,3.42105 -1.021169,2.19283 0.528136,-1.49959 -1.087094,-4.29987 -2.173765,-1.83099 -1.399748,0.60678 0.469882,2.33317 -0.853552,2.91984 -1.506684,1.81244 1.345107,-0.11804 1.78985,1.00734 -0.03415,1.36859 -5.297392,1.13687 -2.237343,1.65818 2.166391,-0.20413 -0.324341,0.83407 -1.300825,0.79475 -1.006428,0.0518 0.278079,2.20996 -1.569539,1.7021 -0.979449,-0.0168 0.559429,1.63077 -1.284056,1.4371 -0.965297,0.76973 -2.41693,3.02965 -3.893898,2.22454 -0.335926,-1.02124 2.596227,-1.76802 0.222214,-1.54966 -0.715122,0.94919 -1.768729,1.0877 -0.882961,-0.10249 2.116538,-1.44135 -0.58627,-0.65534 -1.12304,0.41679 -0.322424,-1.9846 2.09634,-1.76165 3.457683,-1.94042 1.498565,-0.54686 1.92676,-2.54947 3.05192,-3.59746 1.145011,-1.53406 0.422997,-3.51261 2.659505,-4.38637 1.004999,-2.21747 2.973333,-3.51534 5.093482,-4.81832 2.030467,-1.18934 4.351734,-1.47312 6.454314,-2.59306 3.018162,-1.38377 6.169885,-2.76895 9.569273,-2.60805 2.478486,-0.13641 4.82523,1.01217 6.655265,2.50958 1.051227,0.0241 2.163519,0.29887 3.178999,0.17616 0.728357,-0.49749 1.726689,-0.79157 1.733544,-1.83267 0.783703,-2.99756 -3.353477,-3.94074 -4.823106,-5.92867 -0.730811,-0.78376 -1.197792,-1.73216 -0.999311,-2.81352 -0.635857,-2.79149 2.797517,-3.69435 4.841045,-2.89139 1.277378,0.39124 2.255927,1.04314 2.282117,2.50523 -0.306804,2.52507 -0.77009,-1.72038 -2.091216,-1.79181 -1.307443,-0.0879 -2.77525,0.14483 -3.75425,0.98954 -0.365005,0.81141 -0.778839,1.62142 -0.239702,2.4585 0.07503,0.98962 0.887027,1.41964 1.64203,1.89293 1.548649,1.19354 3.755017,2.01259 4.32128,4.02741 0.496991,2.63676 -1.901956,4.78235 -4.474278,4.18993 -0.731241,0.19747 -2.308729,-0.44865 -2.014741,0.77083 -0.209603,1.77158 0.31947,3.52119 1.626857,4.58377 1.484863,1.35936 3.264368,3.00825 3.741831,5.33109 0.524954,1.89509 0.691122,3.8593 0.804667,5.81482 -0.570819,0.48899 -1.552451,2.72324 -2.19458,1.86522 z M 53.878899,249.8969 c 0.02408,-0.58938 0.251033,-1.69127 -1.109549,-0.61819 -0.551297,1.04079 -1.610862,-0.76623 -0.123207,-0.53863 0.711871,-0.99474 -2.020668,-0.82408 -0.01475,-1.35804 2.515867,0.41878 3.90694,-1.78494 5.19247,-3.40381 1.071893,-0.63399 -1.521011,-0.40856 -1.348068,-1.52915 -1.481065,-0.23829 1.578364,-1.10534 -0.813381,-1.26526 -0.828603,-0.13756 -0.735024,-1.77652 0.09097,-1.9513 1.84093,-1.35331 -0.161805,2.92125 1.555651,0.62708 0.845182,-1.05108 1.788963,1.44492 3.167936,0.66685 1.717092,1.07351 -3.147666,-0.37878 -1.064291,1.4658 0.600116,0.83436 1.765746,0.28016 2.640457,0.44028 0.477646,1.51388 -3.937659,0.38446 -1.913403,1.76914 2.471012,0.98868 -1.521765,1.21634 -1.54592,1.58972 -0.163034,0.94177 -3.154721,1.69044 -2.043325,2.98233 0.997498,1.624 -0.96757,0.3055 -1.301613,0.88172 -0.340409,0.3789 -0.921517,0.4991 -1.369975,0.24146 z m -31.095728,-4.71969 c -0.766854,-1.84588 -2.194628,-3.58157 -1.987543,-5.68017 1.833724,-0.0658 3.700449,-0.27233 5.486646,0.26641 1.323069,3.02095 2.734404,6.01324 3.975821,9.06236 -1.718533,0.50459 -3.665172,0.26872 -5.487377,0.41106 -0.662516,-1.35322 -1.325031,-2.70644 -1.987547,-4.05966 z m 7.053526,1.03031 c -0.946188,-2.1199 -2.054278,-4.19479 -2.805714,-6.38402 0.766251,-1.25169 2.138678,-1.03928 3.349053,-0.69233 2.938824,-0.0584 3.358272,3.29736 4.623873,5.24431 0.649613,1.3447 2.072798,3.39609 -0.487597,3.22162 -1.688359,0.89361 -3.820678,2.46839 -4.254649,-0.498 -0.143678,-0.29622 -0.285158,-0.59351 -0.424966,-0.89158 z m 5.600453,-2.91298 c -0.933743,-1.09416 -0.05406,-3.98493 -1.520868,-3.69885 -0.05689,-1.5738 1.695693,-4.53804 1.118786,-5.17698 -0.629041,0.87674 -0.09652,-2.08892 -0.183603,-2.86535 0.481485,-0.80269 2.354591,-1.89407 1.835071,-0.22607 -0.316879,3.38232 -1.405904,6.73527 -0.757151,10.14666 -0.10051,0.39789 0.544035,2.72697 -0.492235,1.82059 z m 2.853379,-1.72401 c -0.559283,-1.5211 -0.226191,-4.109 1.555094,-3.45846 1.353266,-2.34439 -0.129742,-5.46516 1.50858,-7.68819 0.75871,1.22105 0.353945,2.92902 0.496831,4.37679 -0.05958,1.13734 -1.157383,1.9715 -0.844192,3.33556 0.209591,1.36814 -2.520448,0.17346 -1.894309,2.05655 0.167289,0.64954 -0.221372,3.63466 -0.822004,1.37775 z m -1.693989,0.1189 c -0.09759,-3.61116 0.357441,-7.26239 1.062515,-10.80397 1.506326,-0.85156 0.620704,1.40677 0.848332,2.201 -0.06769,1.08836 0.815877,4.68364 -0.656073,3.20611 -0.727826,1.91213 -0.384714,4.13089 -1.069109,5.90218 l -0.185703,-0.50532 z m 3.046888,-0.0851 c 0.06203,-0.69728 2.224672,-3.53898 2.175699,-2.3451 0.494618,1.49532 -1.657396,0.96954 -1.756362,2.27087 -0.04298,0.16666 -0.336155,0.295 -0.419337,0.0742 z m 33.952396,-1.33543 c -0.11852,-1.66681 2.527211,1.27977 0.201311,0.32552 l -0.113662,-0.11375 -0.08767,-0.21177 z m -41.010003,-1.5583 c 0.583455,-2.21182 0.572593,-4.5192 0.699178,-6.80825 0.520547,-2.08162 0.37218,-4.97115 -0.166446,-6.6405 -0.390477,1.84366 -0.116797,3.844 -0.195366,5.75661 -1.136851,0.35593 0.163215,2.66923 -0.114391,3.85122 -0.670897,2.31333 -2.16919,-1.18819 -1.196496,-2.4137 0.87627,-1.66094 -1.358962,-1.42097 -0.70981,-3.12354 -0.09506,-1.72539 1.200497,1.86702 0.878766,-0.53552 -0.11273,-2.23656 0.890168,-4.54766 1.647674,-6.66144 1.066528,0.20642 0.106968,3.53632 1.391021,3.21586 -0.414533,1.16348 0.123835,2.11834 0.482065,2.78181 -1.218304,2.4515 -1.111158,5.31565 -1.311718,7.98782 -0.05112,0.59048 -0.345461,3.2726 -1.404477,2.58963 z m 39.645748,-0.23054 c -0.739451,-0.53028 1.021507,-1.96498 0.928612,-0.48917 0.391025,0.91548 -0.388572,1.20115 -0.928612,0.48917 z m -29.839433,-1.24257 c -0.472214,-1.46193 1.822585,-1.85242 1.842758,-3.11679 0.102425,-2.73581 -0.04396,-5.50408 0.285439,-8.21489 1.535285,1.82989 0.423767,4.30864 0.63475,6.48646 0.05622,2.14983 -0.454725,4.32637 -2.762947,4.84522 z m 29.116751,-0.29158 c -1.181397,-1.24243 0.579828,-2.51548 0.650531,-0.74059 0.180816,0.42821 -0.1969,1.13356 -0.650531,0.74059 z m -32.263098,-1.24913 c -0.346665,-1.07833 -0.433967,-5.32934 0.76846,-4.65265 -0.141775,1.43365 0.3302,5.13655 -0.678914,5.30222 -0.02985,-0.21652 -0.0597,-0.43305 -0.08955,-0.64957 z m 3.376788,-1.21541 c -0.370776,-2.65078 -0.394078,-5.33638 -0.53341,-8.00728 0.87081,-0.70331 1.399048,-2.51786 1.272678,-0.35482 -0.0086,2.62048 0.395025,5.29655 0.0041,7.88665 -0.07616,0.17845 -0.48884,0.82113 -0.743416,0.47545 z m 4.238857,-0.2134 c -1.313102,-1.15636 0.893979,-3.18631 0.322435,-0.57575 -0.07744,0.14105 0.120878,0.93223 -0.322435,0.57575 z m 23.045619,-2.66637 c -2.062382,-1.84421 -4.805541,-2.21678 -7.461186,-2.11966 -1.291678,0.0257 -4.501889,0.0721 -2.033851,-1.35587 1.495796,0.21587 1.730138,-1.03427 2.207014,-2.12827 0.945276,-0.49792 2.738716,-0.22371 2.913337,-1.60619 0.224765,-1.10492 3.051175,-2.49032 2.888052,-0.6684 0.515349,1.22295 0.883624,2.64398 2.156186,3.28793 1.314269,1.36238 4.262972,2.20065 3.82148,4.41396 -0.964565,0.99551 -2.884939,1.02218 -4.064634,0.50591 -0.142133,-0.10981 -0.284265,-0.21961 -0.426398,-0.32941 z m -23.304382,-0.31567 c 0.127205,-1.11219 -0.594227,-2.81608 0.227867,-3.67241 1.646016,-1.18768 3.981582,-2.61927 3.359714,-4.98917 -0.295511,-1.02482 -1.299613,-1.87817 -0.850487,-3.01222 0.259204,-2.32563 2.085684,-4.56927 4.320321,-5.23079 4.329442,-0.60321 8.740642,-0.48162 13.055301,0.11588 0.162906,1.39316 -3.453094,0.32284 -4.6082,0.7024 -2.678454,0.0342 -5.35717,0.0546 -8.035333,0.10778 0.26076,2.79366 -4.241596,3.03607 -2.590923,5.86803 1.744772,2.63027 -1.464756,4.51859 -2.815385,6.39814 -0.56535,0.77374 1.554466,0.98547 -0.06717,1.84944 -1.611128,0.27006 -0.642989,3.50034 -1.995709,1.86292 z m 4.65295,-1.72402 c 0.067,-0.81051 1.43462,-0.18903 2.058498,-0.38641 0.48264,1.21858 -1.004942,0.6477 -1.726198,0.77283 -0.416974,0.048 -0.392611,0.0109 -0.3323,-0.38642 z m -12.447004,0.093 c -0.819689,-0.0141 -3.974946,-0.67247 -1.620285,-1.21375 1.265125,0.034 5.334669,-0.0251 2.344226,1.23038 l -0.364092,0.0437 z m 16.875028,-0.073 c -3.379129,-0.43123 4.005925,-1.68508 1.369925,1e-5 -0.455308,0.16013 -0.912605,0.10889 -1.369925,-1e-5 z m -16.91226,-2.19598 c -1.099571,-1.21854 2.83851,-1.76686 0.38317,-2.18666 -1.568547,-0.44668 -3.311048,0.49201 -1.106683,1.19218 0.414584,1.94596 -2.158465,1.51902 -2.518077,0.12289 -1.162032,-0.57919 1.361574,-1.57123 -0.458478,-2.3322 -1.752169,-0.89272 -0.01563,-4.27028 1.182754,-1.85358 1.836811,-0.19776 0.35192,0.52297 0.290265,1.37137 1.107738,-0.13497 1.575266,-2.15628 0.516833,-2.89358 -1.018988,-0.67654 -3.001908,0.45289 -1.446972,-1.38307 2.089622,-0.27079 4.575833,0.0724 6.764429,0.37681 2.095676,0.47938 -0.842933,1.58701 -1.836145,1.01419 -1.367971,-0.19794 -1.271881,0.83073 -1.198791,1.82362 -0.742067,1.44352 2.753542,0.77415 0.924922,0.28603 -1.251458,0.0449 1.623336,-1.72871 1.868911,-1.08287 1.546927,1.85743 -2.297748,2.98124 -0.608231,4.39862 0.575139,1.17886 -2.611579,2.26521 -2.757907,1.14625 z m 11.74866,-0.23156 c 0.730935,-1.07242 2.111728,0.94474 0.09512,0.25401 l -0.07988,-0.089 z m 2.02504,0.21285 c 0.42056,-1.37032 3.850937,0.37412 1.185197,0.0753 -0.394643,-0.0101 -0.798677,0.0313 -1.185197,-0.0753 z m 3.564966,-0.36148 c 1.079495,-0.97926 3.68645,-0.7989 4.848945,-0.23301 -1.46973,0.529 -3.294213,0.31138 -4.848945,0.23301 z m 19.332635,-0.37141 c -0.975547,-1.45964 0.564812,-3.48653 1.439563,-1.30769 -0.153568,0.47258 -0.779163,1.99599 -1.439563,1.30769 z M 73.25486,225.5473 c -2.354693,-0.91243 -3.298107,-5.5232 0.268111,-4.67265 1.74492,0.60263 1.91474,2.35005 0.198467,2.90141 0.242419,0.75192 1.206924,3.11456 -0.466578,1.77124 z m -21.189151,-0.47364 c 0.998787,-0.9556 2.104634,0.72849 0.111468,0.19727 l -0.0901,-0.0719 z m 1.902366,0 c 0.348189,-0.70814 5.026641,0.003 2.154818,0.23682 -0.663097,-0.11985 -1.618126,0.24389 -2.154818,-0.23682 z m -10.332074,-0.5877 c -0.691884,-1.74193 1.134367,-1.60048 0.667152,0.22113 -0.306242,0.71954 -0.544893,0.27857 -0.667152,-0.22113 z m 2.393524,0.3499 c 1.08042,-0.82653 4.323808,0.31342 1.279277,0.2378 -0.212455,-0.14605 -1.474232,0.2646 -1.279277,-0.2378 z m 12.182572,-0.23074 c 1.467747,-0.73554 5.009317,-0.87488 6.00394,-0.0823 -1.989774,0.38435 -4.050367,0.22774 -6.072744,0.34539 l 0.03621,-0.13845 z m -13.459761,-1.4041 c 0.549576,-2.68689 0.2994,-5.9755 -2.183236,-7.65046 -2.70345,-2.37138 -7.048189,-1.66473 -9.314023,0.96967 -1.753364,1.78511 -1.43959,4.48194 -1.520704,6.78576 -1.587657,-1.07103 -0.794194,-4.41808 0.03491,-6.02933 1.453859,-2.9073 4.850689,-4.55992 8.027803,-3.81098 2.381212,0.19853 4.063779,2.07819 5.415009,3.83783 0.648809,1.96472 1.421068,4.40765 0.09787,6.20909 -0.210371,-0.004 -0.799544,0.1426 -0.557625,-0.31158 z m 1.962977,-0.0192 c -0.149528,-0.72741 2.97066,-0.37906 2.217215,-0.0713 -0.52247,0.009 -2.15965,0.86314 -2.217215,0.0713 z m 8.679534,-0.12936 c 0.528553,-0.72662 4.944674,0.0621 2.208633,0.23712 -0.621097,-0.16002 -1.79378,0.29674 -2.208633,-0.23712 z m -2.345265,-0.23779 c 0.70324,-0.84297 2.862147,0.23709 0.778388,0.23779 -0.149823,-0.0968 -0.822077,0.15763 -0.778388,-0.23779 z m 6.452588,-0.26752 c 1.860147,-0.91289 4.680238,-0.28533 6.904955,-0.5024 1.424995,0.76834 -2.397304,0.67318 -3.107044,0.74186 -1.29252,0.0414 -2.585807,0.0231 -3.878739,0.028 l 0.04141,-0.13698 0.03946,-0.13055 z m -16.115985,-0.51987 c 0.325036,-0.84754 0.220568,0.95573 0,0 z m -3.409646,-0.23524 c 0.334774,-1.28912 1.463141,0.82399 0,0 z m -3.666959,-0.051 c 0.128838,-1.03779 1.496738,0.43905 0,0 z m 10.643535,-0.54551 c -0.159743,-1.10788 3.181986,0.17215 0.891728,0.12902 -0.37953,-0.14286 -1.084685,0.73665 -0.891728,-0.12902 z m 10.236485,-0.0519 c -2.461084,-0.70118 2.082797,-0.93832 2.970945,-0.59928 1.049409,0.96756 -2.610917,0.60526 -2.970945,0.59928 z m -13.327831,-0.60211 c -0.71771,-2.19142 -2.55836,-4.47169 -5.204671,-3.90845 -1.025906,0.0772 -2.177309,-0.14561 -3.135743,0.0992 -1.057203,1.10827 -2.447971,2.0568 -2.77651,3.6449 -0.441602,-2.72423 2.25625,-4.96668 4.697726,-5.46603 3.281135,-0.70358 6.650729,1.88091 6.913735,5.19631 0.462515,0.72755 -0.462338,1.50022 -0.494537,0.43403 z m -9.941737,0.0804 c 0.05625,-2.06673 1.279621,0.86942 0,0 z m 19.390702,-0.0604 c -0.983501,-2.16955 3.65685,0.3954 0.676738,0.0943 l -0.288106,-0.0234 -0.388632,-0.0713 z m 8.742379,-0.18794 c 1.44886,-1.09008 4.614373,-0.4728 6.420474,-0.28995 -1.638502,0.71187 -4.48857,0.34691 -6.420474,0.28995 z m -27.338442,-1.2336 c -0.762059,-1.17698 1.817007,-0.0805 0.239621,0.25246 l -0.239621,-0.25298 z m 11.76285,-0.18961 c 0.750339,-1.01452 3.611821,0.33353 1.00645,0.29718 -0.260276,-0.0876 -1.054671,0.2019 -1.00645,-0.29718 z m 12.148505,0.17144 c -2.260028,0.20829 -1.525048,-1.10178 0.264327,-0.69197 0.87623,0.19867 4.216553,-0.16081 3.834019,0.61712 -1.308217,0.40045 -2.752394,0.0686 -4.098346,0.0748 z m -16.720985,-0.46052 c 0.02993,-0.63485 0.408513,0.3807 0,0 z m 24.355802,-0.41951 c 0.786503,-1.36699 3.558799,-0.54182 5.130289,-0.77768 0.890217,0 1.780435,0 2.670652,0 -0.584117,1.85855 -3.985492,0.49529 -5.656559,0.97576 -0.68663,-0.0738 -1.545138,0.19228 -2.144382,-0.19808 z M 35.65783,217.82079 c 0.19456,-1.16136 4.048321,0.47844 1.0659,0.35669 -0.350647,-0.11947 -1.278271,0.30639 -1.0659,-0.35669 z m 3.983074,0.0168 c 2.84432,-1.04673 0.377806,0.90746 -0.362288,0.2795 0.120763,-0.0932 0.241525,-0.18633 0.362288,-0.2795 z m 14.639909,0.0724 c -0.533154,-2.51496 3.893229,-0.5731 2.014959,0.26751 -0.608619,-0.10023 -1.644904,0.26002 -2.014959,-0.26751 z m -8.635579,-1.09981 c 0.09202,-0.90589 1.823251,-0.17437 2.578842,-0.41519 3.22192,0.21355 -1.412235,1.07804 -2.578842,0.83132 0,-0.13871 0,-0.27742 0,-0.41613 z m 11.967648,0.19871 c 0.45307,-1.30429 3.902019,-0.3025 5.541395,-0.61413 0.843096,-0.20177 4.726935,0.16641 2.095772,0.77429 -2.527218,-0.005 -5.170542,0.28099 -7.637167,-0.16016 z m 10.028428,-0.91773 c 0.01316,-1.43471 1.353184,-1.07949 2.321026,-1.15385 2.473715,-0.009 4.987916,-0.0191 7.428576,0.38859 -2.037485,1.16556 -4.567206,0.53819 -6.826294,0.82843 -0.930444,-0.0763 -2.095048,0.30346 -2.923308,-0.0632 z m -23.294864,-1.21087 c 0.984786,-0.96952 4.728089,-0.52332 6.446862,-0.27361 -1.19032,0.91459 -3.199847,0.33939 -4.756636,0.52776 -0.491366,-0.12459 -1.512654,0.32469 -1.690226,-0.25415 z"
         style="fill:#ffaf14;fill-opacity:1;stroke-width:0.11889766" />
      <path
         inkscape:connector-curvature="0"
         id="path1298-0-0"
         d="m 93.224882,260.79788 c 1.155353,0.92395 3.049733,1.39716 4.329362,0.42027 0.152947,-0.7656 2.179452,-0.37589 1.813612,-0.94279 -0.720001,0.0844 -1.304179,-1.12893 -1.591264,-0.97257 0.192112,1.14393 -0.685089,2.28182 -2.014318,2.02618 -0.947078,0.17528 -1.864637,-0.83477 -2.525554,-0.81222 l -0.01772,0.15223 z m 25.851298,0.99358 c 0.54786,-0.38375 1.30626,-1.54202 0.41856,-1.92446 0.32068,1.2087 -1.70855,2.38268 -2.29848,0.98335 -0.25112,-0.60065 -0.83373,-0.71883 -0.83183,-0.0149 -1.08769,-0.33209 -0.86989,-2.13009 0.37069,-2.1391 0.6957,-0.18565 1.41428,1.14948 1.64493,0.79669 -0.0316,-1.22247 -1.9815,-1.65997 -2.69938,-0.6886 -0.41837,0.53031 -1.99321,0.21401 -0.86259,-0.25964 1.03033,-0.67215 2.51343,-1.05368 3.64095,-0.37048 0.59939,0.36129 0.289,1.7211 0.67445,1.75198 0.21555,-0.6365 1.46,-0.94555 1.54032,-1.18365 -0.95837,-0.28418 -1.91097,-0.53002 -2.62153,-1.19792 -1.40839,-0.49734 -2.93226,0.17973 -3.98323,1.06014 -0.5492,-0.0511 -0.37912,-1.80884 -1.16575,-1.14038 0.31194,0.79476 0.1466,1.58229 -0.07,2.33257 0.86797,-0.30664 1.99404,-0.75186 2.42551,0.4276 0.0855,0.44886 1.07026,1.03608 0.8641,1.12003 -0.8879,0.13343 -0.4376,1.0259 0.22688,0.48428 0.90676,-0.21708 1.92354,0.6675 2.72643,-0.0375 z m -14.14753,-0.22058 c 0.54727,-0.3446 1.27879,-1.55806 0.51687,-1.93159 0.0701,0.94727 -1.28017,2.32108 -2.09803,1.26021 -0.30199,-0.58829 -1.06148,-1.2787 -1.06508,-0.21765 -0.91469,-0.31575 -0.97904,-1.87256 0.0439,-2.16975 0.92735,-0.47453 1.34145,0.72329 1.9111,0.82884 0.1379,-1.03892 -1.3198,-1.7407 -2.18981,-1.12312 -0.49125,0.33147 -1.7436,1.49599 -1.9465,0.44155 1.001,-0.61009 2.18354,-1.35089 3.45123,-1.08778 1.16226,0.1184 1.3325,1.25039 1.29566,2.1349 0.29518,-0.061 1.0859,-1.10963 1.82754,-1.20814 -0.92376,-0.28529 -1.90006,-0.41115 -2.54613,-1.12954 -1.45157,-0.5768 -3.115,0.024 -4.17309,1.02287 -0.534544,0.40505 -0.274144,-1.70056 -1.212164,-0.89528 0.4512,0.7582 0.0637,1.55354 -0.003,2.34128 0.91365,-0.41521 2.097184,-0.67208 2.545764,0.45374 0.41233,0.36805 1.24352,0.8017 0.27469,1.044 -0.3557,0.7906 1.06303,-0.0866 1.48436,0.29884 0.61987,0.15246 1.35942,0.34154 1.88277,-0.0634 z m 6.10891,0.0139 c 0.67937,-0.65116 2.06076,-0.97407 2.62726,-1.28278 -0.69485,-0.21035 -1.48441,-0.45913 -1.6343,-1.15294 -0.65155,0.0821 0.24853,1.31987 -0.52878,1.63811 -0.81599,0.8781 -2.25436,0.54436 -3.23376,0.108 -0.54069,-0.25869 -2.13211,-1.17724 -0.68775,-1.03477 1.12515,0.0244 1.62198,1.60567 2.90642,0.8586 0.70041,0.0259 1.15204,-1.82894 0.38038,-0.93825 -0.59193,0.96591 -2.24911,0.80458 -2.29965,-0.38345 -0.0813,-0.45263 1.09693,-1.74869 0.0905,-1.1569 -0.51522,0.85665 -1.40874,1.59631 -2.44703,0.91573 -1.16064,-0.28563 0.42017,1.13587 -0.19668,1.68461 -0.41315,0.55105 0.14944,1.11206 0.54627,0.4299 0.22142,-0.60243 0.33389,-1.02443 0.90626,-0.38271 1.00965,0.73037 2.32537,1.13479 3.57088,0.69685 z m -14.787167,-0.79084 c 0.738267,0.20869 1.232277,-1.85851 0.502498,-0.94766 -0.60013,1.17749 -2.994761,0.34316 -2.183748,-0.88626 0.275785,-0.28603 0.756863,-1.29898 -0.05267,-0.7392 -1.031376,0.80447 -0.344934,2.59336 0.975991,2.65978 0.250927,0.0584 0.535988,0.0513 0.757925,-0.0867 z m 2.38956,-1.88606 c 0.138983,-1.11836 -1.255376,-2.30379 -2.387505,-1.65293 -0.397332,0.35587 -2.088773,-0.4414 -1.738494,0.28115 0.722167,0.12248 0.873337,1.04875 0.935904,1.33383 0.624662,-0.64044 1.450073,-1.91605 2.434808,-0.87967 0.233676,0.21151 0.534747,2.0928 0.755287,0.91762 z m 14.109147,0.26059 c 0.24346,-1.0939 -0.969,-2.50509 -2.19889,-1.93013 -0.60966,0.23995 -1.77302,-0.18122 -2.04348,0.16462 0.56828,0.31197 1.17764,0.92529 1.03972,1.39634 0.65894,-0.50862 1.42828,-1.87379 2.3735,-0.84866 0.26264,0.13204 0.51699,1.8124 0.82915,1.21783 z"
         style="fill:#ffaf14;fill-opacity:1;stroke-width:0.1189206" />
      <path
         inkscape:connector-curvature="0"
         id="path1298-0-0-7"
         d="m 93.22486,250.17006 c 1.15535,0.92395 3.04973,1.39716 4.32936,0.42027 0.15295,-0.7656 2.17945,-0.37589 1.81361,-0.94279 -0.72,0.0844 -1.30418,-1.12893 -1.59126,-0.97257 0.19211,1.14393 -0.68509,2.28182 -2.01432,2.02618 -0.94708,0.17528 -1.86464,-0.83477 -2.52555,-0.81222 l -0.0177,0.15223 z m 25.8513,0.99358 c 0.54786,-0.38375 1.30626,-1.54202 0.41856,-1.92446 0.32068,1.2087 -1.70855,2.38268 -2.29848,0.98335 -0.25112,-0.60065 -0.83373,-0.71883 -0.83183,-0.0149 -1.08769,-0.33209 -0.86989,-2.13009 0.37069,-2.1391 0.6957,-0.18565 1.41428,1.14948 1.64493,0.79669 -0.0316,-1.22247 -1.9815,-1.65997 -2.69938,-0.6886 -0.41837,0.53031 -1.99321,0.21401 -0.86259,-0.25964 1.03033,-0.67215 2.51343,-1.05368 3.64095,-0.37048 0.59939,0.36129 0.289,1.7211 0.67445,1.75198 0.21555,-0.6365 1.46,-0.94555 1.54032,-1.18365 -0.95837,-0.28418 -1.91097,-0.53002 -2.62153,-1.19792 -1.40839,-0.49734 -2.93226,0.17973 -3.98323,1.06014 -0.5492,-0.0511 -0.37912,-1.80884 -1.16575,-1.14038 0.31194,0.79476 0.1466,1.58229 -0.07,2.33257 0.86797,-0.30664 1.99404,-0.75186 2.42551,0.4276 0.0855,0.44886 1.07026,1.03608 0.8641,1.12003 -0.8879,0.13343 -0.4376,1.0259 0.22688,0.48428 0.90676,-0.21708 1.92354,0.6675 2.72643,-0.0375 z m -14.14753,-0.22058 c 0.54727,-0.3446 1.27879,-1.55806 0.51687,-1.93159 0.0701,0.94727 -1.28017,2.32108 -2.09803,1.26021 -0.30199,-0.58829 -1.06148,-1.2787 -1.06508,-0.21765 -0.91469,-0.31575 -0.97904,-1.87256 0.0439,-2.16975 0.92735,-0.47453 1.34145,0.72329 1.9111,0.82884 0.1379,-1.03892 -1.3198,-1.7407 -2.18981,-1.12312 -0.49125,0.33147 -1.7436,1.49599 -1.9465,0.44155 1.001,-0.61009 2.18354,-1.35089 3.45123,-1.08778 1.16226,0.1184 1.3325,1.25039 1.29566,2.1349 0.29518,-0.061 1.0859,-1.10963 1.82754,-1.20814 -0.92376,-0.28529 -1.90006,-0.41115 -2.54613,-1.12954 -1.45157,-0.5768 -3.115,0.024 -4.17309,1.02287 -0.53455,0.40505 -0.27415,-1.70056 -1.21217,-0.89528 0.4512,0.7582 0.0637,1.55354 -0.003,2.34128 0.91365,-0.41521 2.09719,-0.67208 2.54577,0.45374 0.41233,0.36805 1.24352,0.8017 0.27469,1.044 -0.3557,0.7906 1.06303,-0.0866 1.48436,0.29884 0.61987,0.15246 1.35942,0.34154 1.88277,-0.0634 z m 6.10891,0.0139 c 0.67937,-0.65116 2.06076,-0.97407 2.62726,-1.28278 -0.69485,-0.21035 -1.48441,-0.45913 -1.6343,-1.15294 -0.65155,0.0821 0.24853,1.31987 -0.52878,1.63811 -0.81599,0.8781 -2.25436,0.54436 -3.23376,0.108 -0.54069,-0.25869 -2.13211,-1.17724 -0.68775,-1.03477 1.12515,0.0244 1.62198,1.60567 2.90642,0.8586 0.70041,0.0259 1.15204,-1.82894 0.38038,-0.93825 -0.59193,0.96591 -2.24911,0.80458 -2.29965,-0.38345 -0.0813,-0.45263 1.09693,-1.74869 0.0905,-1.1569 -0.51522,0.85665 -1.40874,1.59631 -2.44703,0.91573 -1.16064,-0.28563 0.42017,1.13587 -0.19668,1.68461 -0.41315,0.55105 0.14944,1.11206 0.54627,0.4299 0.22142,-0.60243 0.33389,-1.02443 0.90626,-0.38271 1.00965,0.73037 2.32537,1.13479 3.57088,0.69685 z m -14.78717,-0.79084 c 0.73827,0.20869 1.23228,-1.85851 0.5025,-0.94766 -0.60013,1.17749 -2.99476,0.34316 -2.18375,-0.88626 0.27579,-0.28603 0.75686,-1.29898 -0.0527,-0.7392 -1.03138,0.80447 -0.34493,2.59336 0.97599,2.65978 0.25093,0.0584 0.53599,0.0513 0.75793,-0.0867 z m 2.38956,-1.88606 c 0.13898,-1.11836 -1.25538,-2.30379 -2.3875,-1.65293 -0.39734,0.35587 -2.08878,-0.4414 -1.7385,0.28115 0.72217,0.12248 0.87334,1.04875 0.93591,1.33383 0.62466,-0.64044 1.45007,-1.91605 2.4348,-0.87967 0.23368,0.21151 0.53475,2.0928 0.75529,0.91762 z m 14.10915,0.26059 c 0.24346,-1.0939 -0.969,-2.50509 -2.19889,-1.93013 -0.60966,0.23995 -1.77302,-0.18122 -2.04348,0.16462 0.56828,0.31197 1.17764,0.92529 1.03972,1.39634 0.65894,-0.50862 1.42828,-1.87379 2.3735,-0.84866 0.26264,0.13204 0.51699,1.8124 0.82915,1.21783 z"
         style="fill:#ffaf14;fill-opacity:1;stroke-width:0.1189206" />
      <path
         inkscape:connector-curvature="0"
         id="path1298-0-0-7-9"
         d="m 93.22486,207.6588 c 1.15535,0.92395 3.04973,1.39716 4.32936,0.42027 0.15295,-0.7656 2.17945,-0.37589 1.81361,-0.94279 -0.72,0.0844 -1.30418,-1.12893 -1.59126,-0.97257 0.19211,1.14393 -0.68509,2.28182 -2.01432,2.02618 -0.94708,0.17528 -1.86464,-0.83477 -2.52555,-0.81222 l -0.0177,0.15223 z m 25.8513,0.99358 c 0.54786,-0.38375 1.30626,-1.54202 0.41856,-1.92446 0.32069,1.2087 -1.70855,2.38268 -2.29848,0.98335 -0.25112,-0.60065 -0.83373,-0.71883 -0.83183,-0.0149 -1.08769,-0.33209 -0.86989,-2.13009 0.37069,-2.1391 0.6957,-0.18565 1.41428,1.14948 1.64493,0.79669 -0.0316,-1.22247 -1.9815,-1.65997 -2.69938,-0.6886 -0.41837,0.53031 -1.99321,0.21401 -0.86259,-0.25964 1.03033,-0.67215 2.51343,-1.05368 3.64095,-0.37048 0.59939,0.36129 0.289,1.7211 0.67445,1.75198 0.21555,-0.6365 1.46001,-0.94555 1.54033,-1.18365 -0.95838,-0.28418 -1.91098,-0.53002 -2.62154,-1.19792 -1.40839,-0.49734 -2.93226,0.17973 -3.98323,1.06014 -0.5492,-0.0511 -0.37912,-1.80884 -1.16575,-1.14038 0.31194,0.79476 0.1466,1.58229 -0.07,2.33257 0.86797,-0.30664 1.99404,-0.75186 2.42551,0.4276 0.0855,0.44886 1.07026,1.03608 0.8641,1.12003 -0.8879,0.13343 -0.4376,1.0259 0.22688,0.48428 0.90676,-0.21708 1.92354,0.6675 2.72643,-0.0375 z m -14.14753,-0.22058 c 0.54727,-0.3446 1.27879,-1.55806 0.51687,-1.93159 0.0701,0.94727 -1.28017,2.32108 -2.09803,1.26021 -0.30199,-0.58829 -1.06148,-1.2787 -1.06508,-0.21765 -0.91469,-0.31575 -0.97904,-1.87256 0.0439,-2.16975 0.92735,-0.47453 1.34145,0.72329 1.9111,0.82884 0.1379,-1.03892 -1.3198,-1.7407 -2.18981,-1.12312 -0.49125,0.33147 -1.7436,1.49599 -1.9465,0.44155 1.001,-0.61009 2.18354,-1.35089 3.45123,-1.08778 1.16226,0.1184 1.3325,1.25039 1.29566,2.1349 0.29518,-0.061 1.0859,-1.10963 1.82754,-1.20814 -0.92376,-0.28529 -1.90006,-0.41115 -2.54613,-1.12954 -1.45157,-0.5768 -3.115,0.024 -4.17309,1.02287 -0.53455,0.40505 -0.27415,-1.70056 -1.21217,-0.89528 0.4512,0.7582 0.0637,1.55354 -0.003,2.34128 0.91365,-0.41521 2.09719,-0.67208 2.54577,0.45374 0.41233,0.36805 1.24352,0.8017 0.27469,1.044 -0.3557,0.7906 1.06303,-0.0866 1.48436,0.29884 0.61987,0.15246 1.35942,0.34154 1.88277,-0.0634 z m 6.10891,0.0139 c 0.67937,-0.65116 2.06076,-0.97407 2.62726,-1.28278 -0.69485,-0.21035 -1.48441,-0.45913 -1.6343,-1.15294 -0.65155,0.0821 0.24853,1.31987 -0.52878,1.63811 -0.81599,0.8781 -2.25436,0.54436 -3.23376,0.108 -0.54069,-0.25869 -2.13211,-1.17724 -0.68775,-1.03477 1.12515,0.0244 1.62198,1.60567 2.90642,0.8586 0.70041,0.0259 1.15204,-1.82894 0.38038,-0.93825 -0.59193,0.96591 -2.24911,0.80458 -2.29965,-0.38345 -0.0813,-0.45263 1.09693,-1.74869 0.0905,-1.1569 -0.51522,0.85665 -1.40874,1.59631 -2.44703,0.91573 -1.16064,-0.28563 0.42017,1.13587 -0.19668,1.68461 -0.41315,0.55105 0.14944,1.11206 0.54627,0.4299 0.22142,-0.60243 0.33389,-1.02443 0.90626,-0.38271 1.00965,0.73037 2.32537,1.13479 3.57088,0.69685 z m -14.78717,-0.79084 c 0.73827,0.20869 1.23228,-1.85851 0.5025,-0.94766 -0.60013,1.17749 -2.99476,0.34316 -2.18375,-0.88626 0.27579,-0.28603 0.75686,-1.29898 -0.0527,-0.7392 -1.03138,0.80447 -0.34493,2.59336 0.97599,2.65978 0.25093,0.0584 0.53599,0.0513 0.75793,-0.0867 z m 2.38956,-1.88606 c 0.13898,-1.11836 -1.25538,-2.30379 -2.3875,-1.65293 -0.39734,0.35587 -2.08878,-0.4414 -1.7385,0.28115 0.72217,0.12248 0.87334,1.04875 0.93591,1.33383 0.62466,-0.64044 1.45007,-1.91605 2.4348,-0.87967 0.23368,0.21151 0.53475,2.0928 0.75529,0.91762 z m 14.10915,0.26059 c 0.24346,-1.0939 -0.969,-2.50509 -2.19889,-1.93013 -0.60966,0.23995 -1.77302,-0.18122 -2.04348,0.16462 0.56828,0.31197 1.17764,0.92529 1.03972,1.39634 0.65894,-0.50862 1.42828,-1.87379 2.3735,-0.84866 0.26264,0.13204 0.51699,1.8124 0.82915,1.21783 z"
         style="fill:#ffaf14;fill-opacity:1;stroke-width:0.1189206" />
      <path
         inkscape:connector-curvature="0"
         id="path1298-0-0-7-0"
         d="m 93.22486,239.54225 c 1.15535,0.92395 3.04973,1.39716 4.32936,0.42027 0.152948,-0.7656 2.179448,-0.37589 1.813608,-0.94279 -0.72,0.0844 -1.30418,-1.12893 -1.59126,-0.97257 0.19211,1.14393 -0.685088,2.28182 -2.014318,2.02618 -0.94708,0.17528 -1.86464,-0.83477 -2.52555,-0.81222 l -0.0177,0.15223 z m 25.8513,0.99358 c 0.54786,-0.38375 1.30626,-1.54202 0.41856,-1.92446 0.32068,1.2087 -1.70855,2.38268 -2.29848,0.98335 -0.25112,-0.60065 -0.83373,-0.71883 -0.83183,-0.0149 -1.08769,-0.33209 -0.86989,-2.13009 0.37069,-2.1391 0.6957,-0.18565 1.41428,1.14948 1.64493,0.79669 -0.0316,-1.22247 -1.9815,-1.65997 -2.69938,-0.6886 -0.41837,0.53031 -1.99321,0.21401 -0.86259,-0.25964 1.03033,-0.67215 2.51343,-1.05368 3.64095,-0.37048 0.59939,0.36129 0.289,1.7211 0.67445,1.75198 0.21555,-0.6365 1.46,-0.94555 1.54032,-1.18365 -0.95837,-0.28418 -1.91097,-0.53002 -2.62153,-1.19792 -1.40839,-0.49734 -2.93226,0.17973 -3.98323,1.06014 -0.5492,-0.0511 -0.37912,-1.80884 -1.16575,-1.14038 0.31194,0.79476 0.1466,1.58229 -0.07,2.33257 0.86797,-0.30664 1.99404,-0.75186 2.42551,0.4276 0.0855,0.44886 1.07026,1.03608 0.8641,1.12003 -0.8879,0.13343 -0.4376,1.0259 0.22688,0.48428 0.90676,-0.21708 1.92354,0.6675 2.72643,-0.0375 z m -14.14753,-0.22058 c 0.54727,-0.3446 1.27879,-1.55806 0.51687,-1.93159 0.0701,0.94727 -1.28017,2.32108 -2.09803,1.26021 -0.30199,-0.58829 -1.06148,-1.2787 -1.06508,-0.21765 -0.91469,-0.31575 -0.97904,-1.87256 0.0439,-2.16975 0.92735,-0.47453 1.34145,0.72329 1.9111,0.82884 0.1379,-1.03892 -1.3198,-1.7407 -2.18981,-1.12312 -0.49125,0.33147 -1.7436,1.49599 -1.9465,0.44155 1.001,-0.61009 2.18354,-1.35089 3.45123,-1.08778 1.16226,0.1184 1.3325,1.25039 1.29566,2.1349 0.29518,-0.061 1.0859,-1.10963 1.82754,-1.20814 -0.92376,-0.28529 -1.90006,-0.41115 -2.54613,-1.12954 -1.45157,-0.5768 -3.115,0.024 -4.173092,1.02287 -0.53455,0.40505 -0.27415,-1.70056 -1.21217,-0.89528 0.4512,0.7582 0.0637,1.55354 -0.003,2.34128 0.91365,-0.41521 2.097192,-0.67208 2.545772,0.45374 0.41233,0.36805 1.24352,0.8017 0.27469,1.044 -0.3557,0.7906 1.06303,-0.0866 1.48436,0.29884 0.61987,0.15246 1.35942,0.34154 1.88277,-0.0634 z m 6.10891,0.0139 c 0.67937,-0.65116 2.06076,-0.97407 2.62726,-1.28278 -0.69485,-0.21035 -1.48441,-0.45913 -1.6343,-1.15294 -0.65155,0.0821 0.24853,1.31987 -0.52878,1.63811 -0.81599,0.8781 -2.25436,0.54436 -3.23376,0.108 -0.54069,-0.25869 -2.13211,-1.17724 -0.68775,-1.03477 1.12515,0.0244 1.62198,1.60567 2.90642,0.8586 0.70041,0.0259 1.15204,-1.82894 0.38038,-0.93825 -0.59193,0.96591 -2.24911,0.80458 -2.29965,-0.38345 -0.0813,-0.45263 1.09693,-1.74869 0.0905,-1.1569 -0.51522,0.85665 -1.40874,1.59631 -2.44703,0.91573 -1.16064,-0.28563 0.42017,1.13587 -0.19668,1.68461 -0.41315,0.55105 0.14944,1.11206 0.54627,0.4299 0.22142,-0.60243 0.33389,-1.02443 0.90626,-0.38271 1.00965,0.73037 2.32537,1.13479 3.57088,0.69685 z m -14.78717,-0.79084 c 0.73827,0.20869 1.23228,-1.85851 0.5025,-0.94766 -0.60013,1.17749 -2.99476,0.34316 -2.18375,-0.88626 0.27579,-0.28603 0.75686,-1.29898 -0.0527,-0.7392 -1.03138,0.80447 -0.34493,2.59336 0.97599,2.65978 0.25093,0.0584 0.53599,0.0513 0.75793,-0.0867 z m 2.389558,-1.88606 c 0.13898,-1.11836 -1.255378,-2.30379 -2.387498,-1.65293 -0.39734,0.35587 -2.08878,-0.4414 -1.7385,0.28115 0.72217,0.12248 0.87334,1.04875 0.93591,1.33383 0.62466,-0.64044 1.45007,-1.91605 2.434798,-0.87967 0.23368,0.21151 0.53475,2.0928 0.75529,0.91762 z m 14.109152,0.26059 c 0.24346,-1.0939 -0.969,-2.50509 -2.19889,-1.93013 -0.60966,0.23995 -1.77302,-0.18122 -2.04348,0.16462 0.56828,0.31197 1.17764,0.92529 1.03972,1.39634 0.65894,-0.50862 1.42828,-1.87379 2.3735,-0.84866 0.26264,0.13204 0.51699,1.8124 0.82915,1.21783 z"
         style="fill:#ffaf14;fill-opacity:1;stroke-width:0.1189206" />
      <path
         inkscape:connector-curvature="0"
         id="path1298-0-0-7-0-4"
         d="m 93.22486,228.91443 c 1.15535,0.92395 3.04973,1.39716 4.32936,0.42027 0.152943,-0.7656 2.179453,-0.37589 1.813613,-0.94279 -0.72,0.0844 -1.30419,-1.12893 -1.59127,-0.97257 0.19211,1.14393 -0.685083,2.28182 -2.014313,2.02618 -0.94708,0.17528 -1.86464,-0.83477 -2.52555,-0.81222 l -0.0177,0.15223 z m 25.8513,0.99358 c 0.54786,-0.38375 1.30626,-1.54202 0.41856,-1.92446 0.32068,1.2087 -1.70855,2.38268 -2.29848,0.98335 -0.25112,-0.60065 -0.83373,-0.71883 -0.83183,-0.0149 -1.08769,-0.33209 -0.86989,-2.13009 0.37069,-2.1391 0.6957,-0.18565 1.41428,1.14948 1.64493,0.79669 -0.0316,-1.22247 -1.9815,-1.65997 -2.69938,-0.6886 -0.41837,0.53031 -1.99321,0.21401 -0.86259,-0.25964 1.03033,-0.67215 2.51343,-1.05368 3.64095,-0.37048 0.59939,0.36129 0.289,1.7211 0.67445,1.75198 0.21555,-0.6365 1.46,-0.94555 1.54032,-1.18365 -0.95837,-0.28418 -1.91097,-0.53002 -2.62153,-1.19792 -1.40839,-0.49734 -2.93226,0.17973 -3.98323,1.06014 -0.5492,-0.0511 -0.37912,-1.80884 -1.16575,-1.14038 0.31194,0.79476 0.1466,1.58229 -0.07,2.33257 0.86797,-0.30664 1.99404,-0.75186 2.42551,0.4276 0.0855,0.44886 1.07026,1.03608 0.8641,1.12003 -0.8879,0.13343 -0.4376,1.0259 0.22688,0.48428 0.90676,-0.21708 1.92354,0.6675 2.72643,-0.0375 z m -14.14753,-0.22058 c 0.54727,-0.3446 1.27879,-1.55806 0.51687,-1.93159 0.0701,0.94727 -1.28017,2.32108 -2.09803,1.26021 -0.30199,-0.58829 -1.06148,-1.2787 -1.06508,-0.21765 -0.91469,-0.31575 -0.97904,-1.87256 0.0439,-2.16975 0.92735,-0.47453 1.34145,0.72329 1.9111,0.82884 0.1379,-1.03892 -1.3198,-1.7407 -2.18981,-1.12312 -0.49125,0.33147 -1.7436,1.49599 -1.9465,0.44155 1.001,-0.61009 2.18354,-1.35089 3.45123,-1.08778 1.16226,0.1184 1.3325,1.25039 1.29566,2.1349 0.29518,-0.061 1.0859,-1.10963 1.82754,-1.20814 -0.92376,-0.28529 -1.90006,-0.41115 -2.54613,-1.12954 -1.45157,-0.5768 -3.115,0.024 -4.173087,1.02287 -0.53455,0.40505 -0.27415,-1.70056 -1.21217,-0.89528 0.4512,0.7582 0.0637,1.55354 -0.003,2.34128 0.91365,-0.41521 2.097187,-0.67208 2.545767,0.45374 0.41233,0.36805 1.24352,0.8017 0.27469,1.044 -0.3557,0.7906 1.06303,-0.0866 1.48436,0.29884 0.61987,0.15246 1.35942,0.34154 1.88277,-0.0634 z m 6.10891,0.0139 c 0.67937,-0.65116 2.06076,-0.97407 2.62726,-1.28278 -0.69485,-0.21035 -1.48441,-0.45913 -1.6343,-1.15294 -0.65155,0.0821 0.24853,1.31987 -0.52878,1.63811 -0.81599,0.8781 -2.25436,0.54436 -3.23376,0.108 -0.54069,-0.25869 -2.13211,-1.17724 -0.68775,-1.03477 1.12515,0.0244 1.62198,1.60567 2.90642,0.8586 0.70041,0.0259 1.15204,-1.82894 0.38038,-0.93825 -0.59193,0.96591 -2.24911,0.80458 -2.29965,-0.38345 -0.0813,-0.45263 1.09693,-1.74869 0.0905,-1.1569 -0.51522,0.85665 -1.40874,1.59631 -2.44703,0.91573 -1.16064,-0.28563 0.42017,1.13587 -0.19668,1.68461 -0.41315,0.55105 0.14944,1.11206 0.54627,0.4299 0.22142,-0.60243 0.33389,-1.02443 0.90626,-0.38271 1.00965,0.73037 2.32537,1.13479 3.57088,0.69685 z m -14.78717,-0.79084 c 0.73827,0.20869 1.23228,-1.85851 0.5025,-0.94766 -0.60013,1.17749 -2.99476,0.34316 -2.18375,-0.88626 0.27579,-0.28603 0.75686,-1.29898 -0.0527,-0.7392 -1.03138,0.80447 -0.34493,2.59336 0.97599,2.65978 0.25093,0.0584 0.53599,0.0513 0.75793,-0.0867 z m 2.389563,-1.88606 c 0.13898,-1.11836 -1.255383,-2.30379 -2.387503,-1.65293 -0.39734,0.35587 -2.08878,-0.4414 -1.7385,0.28115 0.72217,0.12248 0.87334,1.04875 0.93591,1.33383 0.62466,-0.64044 1.45007,-1.91605 2.434793,-0.87967 0.23368,0.21151 0.53476,2.0928 0.7553,0.91762 z m 14.109147,0.26059 c 0.24346,-1.0939 -0.969,-2.50509 -2.19889,-1.93013 -0.60966,0.23995 -1.77302,-0.18122 -2.04348,0.16462 0.56828,0.31197 1.17764,0.92529 1.03972,1.39634 0.65894,-0.50862 1.42828,-1.87379 2.3735,-0.84866 0.26264,0.13204 0.51699,1.8124 0.82915,1.21783 z"
         style="fill:#ffaf14;fill-opacity:1;stroke-width:0.1189206" />
      <path
         inkscape:connector-curvature="0"
         id="path1298-0-0-7-0-4-6"
         d="m 93.22486,218.28662 c 1.15535,0.92395 3.04973,1.39716 4.32936,0.42027 0.152938,-0.7656 2.179458,-0.37589 1.813618,-0.94279 -0.72001,0.0844 -1.3042,-1.12893 -1.59128,-0.97257 0.19211,1.14393 -0.685078,2.28182 -2.014308,2.02618 -0.94708,0.17528 -1.86464,-0.83477 -2.52555,-0.81222 l -0.0177,0.15223 z m 25.85131,0.99358 c 0.54786,-0.38375 1.30626,-1.54202 0.41856,-1.92446 0.32068,1.2087 -1.70855,2.38268 -2.29848,0.98335 -0.25112,-0.60065 -0.83373,-0.71883 -0.83183,-0.0149 -1.08769,-0.33209 -0.86989,-2.13009 0.37069,-2.1391 0.6957,-0.18565 1.41428,1.14948 1.64493,0.79669 -0.0316,-1.22247 -1.9815,-1.65997 -2.69938,-0.6886 -0.41837,0.53031 -1.99321,0.21401 -0.86259,-0.25964 1.03033,-0.67215 2.51343,-1.05368 3.64095,-0.37048 0.59939,0.36129 0.289,1.7211 0.67445,1.75198 0.21555,-0.6365 1.46,-0.94555 1.54032,-1.18365 -0.95837,-0.28418 -1.91097,-0.53002 -2.62153,-1.19792 -1.40839,-0.49734 -2.93226,0.17973 -3.98323,1.06014 -0.5492,-0.0511 -0.37912,-1.80884 -1.16575,-1.14038 0.31194,0.79476 0.1466,1.58229 -0.07,2.33257 0.86797,-0.30664 1.99404,-0.75186 2.42551,0.4276 0.0855,0.44886 1.07026,1.03608 0.8641,1.12003 -0.8879,0.13343 -0.4376,1.0259 0.22688,0.48428 0.90676,-0.21708 1.92354,0.6675 2.72643,-0.0375 z m -14.14753,-0.22058 c 0.54727,-0.3446 1.27879,-1.55806 0.51687,-1.93159 0.0701,0.94727 -1.28017,2.32108 -2.09803,1.26021 -0.30199,-0.58829 -1.06148,-1.2787 -1.06508,-0.21765 -0.91469,-0.31575 -0.97904,-1.87256 0.0439,-2.16975 0.92735,-0.47453 1.34145,0.72329 1.9111,0.82884 0.1379,-1.03892 -1.3198,-1.7407 -2.18981,-1.12312 -0.49125,0.33147 -1.7436,1.49599 -1.9465,0.44155 1.001,-0.61009 2.18354,-1.35089 3.45123,-1.08778 1.16226,0.1184 1.3325,1.25039 1.29566,2.1349 0.29518,-0.061 1.0859,-1.10963 1.82754,-1.20814 -0.92376,-0.28529 -1.90006,-0.41115 -2.54613,-1.12954 -1.45157,-0.5768 -3.115,0.024 -4.173092,1.02287 -0.53455,0.40505 -0.27415,-1.70056 -1.21218,-0.89528 0.45121,0.7582 0.0637,1.55354 -0.003,2.34128 0.91366,-0.41521 2.097202,-0.67208 2.545782,0.45374 0.41233,0.36805 1.24352,0.8017 0.27469,1.044 -0.3557,0.7906 1.06303,-0.0866 1.48436,0.29884 0.61987,0.15246 1.35942,0.34154 1.88277,-0.0634 z m 6.10891,0.0139 c 0.67937,-0.65116 2.06076,-0.97407 2.62726,-1.28278 -0.69485,-0.21035 -1.48441,-0.45913 -1.6343,-1.15294 -0.65155,0.0821 0.24853,1.31987 -0.52878,1.63811 -0.81599,0.8781 -2.25436,0.54436 -3.23376,0.108 -0.54069,-0.25869 -2.13211,-1.17724 -0.68775,-1.03477 1.12515,0.0244 1.62198,1.60567 2.90642,0.8586 0.70041,0.0259 1.15204,-1.82894 0.38038,-0.93825 -0.59193,0.96591 -2.24911,0.80458 -2.29965,-0.38345 -0.0813,-0.45263 1.09693,-1.74869 0.0905,-1.1569 -0.51522,0.85665 -1.40874,1.59631 -2.44703,0.91573 -1.16064,-0.28563 0.42017,1.13587 -0.19668,1.68461 -0.41315,0.55105 0.14944,1.11206 0.54627,0.4299 0.22142,-0.60243 0.33389,-1.02443 0.90626,-0.38271 1.00965,0.73037 2.32537,1.13479 3.57088,0.69685 z m -14.78718,-0.79084 c 0.73827,0.20869 1.23228,-1.85851 0.5025,-0.94766 -0.60013,1.17749 -2.99476,0.34316 -2.18375,-0.88626 0.27579,-0.28603 0.75686,-1.29898 -0.0527,-0.7392 -1.03138,0.80447 -0.34493,2.59336 0.97599,2.65978 0.25093,0.0584 0.53599,0.0513 0.75793,-0.0867 z m 2.389558,-1.88606 c 0.13898,-1.11836 -1.255378,-2.30379 -2.387498,-1.65293 -0.39734,0.35587 -2.08878,-0.4414 -1.7385,0.28115 0.72217,0.12248 0.87334,1.04875 0.93591,1.33383 0.62466,-0.64044 1.45007,-1.91605 2.434788,-0.87967 0.23368,0.21151 0.53476,2.0928 0.7553,0.91762 z m 14.109162,0.26059 c 0.24346,-1.0939 -0.969,-2.50509 -2.19889,-1.93013 -0.60966,0.23995 -1.77302,-0.18122 -2.04348,0.16462 0.56828,0.31197 1.17764,0.92529 1.03972,1.39634 0.65894,-0.50862 1.42828,-1.87379 2.3735,-0.84866 0.26264,0.13204 0.51699,1.8124 0.82915,1.21783 z"
         style="fill:#ffaf14;fill-opacity:1;stroke-width:0.1189206" />
    </g>
  </g>
</svg>
