<?xml version="1.0" encoding="iso-8859-1"?>
<!-- Generator: Adobe Illustrator 19.0.0, SVG Export Plug-In . SVG Version: 6.00 Build 0)  -->
<svg version="1.1" id="Capa_1" xmlns="http://www.w3.org/2000/svg" xmlns:xlink="http://www.w3.org/1999/xlink" x="0px" y="0px"
	 viewBox="0 0 512.001 512.001" style="enable-background:new 0 0 512.001 512.001;" xml:space="preserve">
<g>
	<path style="fill:#E1E6E9;" d="M299.179,122.316h-86.356v12.729v25.574v69.333h28.2V170.32c0-7.382,7.332-14.063,14.978-12.653
		c7.646-1.41,14.978,5.271,14.978,12.653v59.632h28.2v-69.333v-25.574V122.316z"/>
	<g>
		<polygon style="fill:#ACB0B5;" points="212.823,122.316 299.179,122.316 256.001,86.627 		"/>
		<polygon style="fill:#ACB0B5;" points="212.823,160.62 212.823,135.045 10,172.462 10,198.036 		"/>
		<polygon style="fill:#ACB0B5;" points="299.179,135.045 299.179,160.62 502.002,198.036 502.002,172.462 		"/>
	</g>
	<path style="fill:#E1E6E9;" d="M502.002,198.036l-202.823-37.417v69.333l27.912,5.149v-36.015c0-8.531,6.75-14.265,15-12.743
		s15,9.747,15,18.278v36.015l28.5,5.258v-36.015c0-8.531,6.75-14.265,15-12.743s15,9.747,15,18.277v36.015l28.5,5.258v-36.015
		c0-8.531,6.75-14.265,15-12.743s15,9.747,15,18.278v36.015l27.912,5.149L502.002,198.036L502.002,198.036z"/>
	<g>
		<polygon style="fill:#ACB0B5;" points="415.591,251.428 385.591,245.894 357.091,240.636 327.091,235.102 299.179,229.952 
			299.179,261.227 502.002,298.644 502.002,267.369 474.09,262.22 444.09,256.686 		"/>
		<polygon style="fill:#ACB0B5;" points="299.179,261.227 299.179,229.952 270.979,229.952 256.001,229.952 241.023,229.952 
			212.823,229.952 212.823,261.227 256.001,261.227 		"/>
	</g>
	<path style="fill:#E1E6E9;" d="M502.002,298.644l-202.823-37.417h-43.178h-43.178L10,298.644v63.635
		c0,9.551,10.649,17.364,23.664,17.364c13.016,0,23.664-7.814,23.664-17.364c0,9.551,11.736,17.364,26.081,17.364
		c6.141,0,11.803-1.432,16.271-3.82c13.682-48.245,78.456-84.787,156.32-84.787s142.637,36.542,156.319,84.788
		c4.468,2.387,10.131,3.819,16.272,3.819c14.345,0,26.08-7.814,26.08-17.364c0,9.551,10.648,17.364,23.664,17.364
		S502,371.829,502,362.279L502.002,298.644z"/>
	<polygon style="fill:#ACB0B5;" points="212.823,261.227 212.823,229.952 184.912,235.102 154.912,240.636 126.412,245.894 
		96.412,251.428 67.912,256.686 37.912,262.22 10,267.369 10,298.644 	"/>
	<path style="fill:#E1E6E9;" d="M184.912,235.102l27.912-5.149V160.62L10,198.036v69.333l27.912-5.149v-36.015
		c0-8.531,6.75-16.756,15-18.278s15,4.212,15,12.743v36.015l28.5-5.258v-36.015c0-8.531,6.75-16.756,15-18.277
		c8.25-1.522,15,4.212,15,12.743v36.015l28.5-5.258V204.62c0-8.531,6.75-16.756,15-18.278s15,4.212,15,12.743V235.102z"/>
	<path style="fill:#009CE9;" d="M10,362.279v63.094h492.002v-63.094c0,9.551-10.649,17.364-23.665,17.364
		c-13.016,0-23.664-7.814-23.664-17.364c0,9.551-11.736,17.364-26.08,17.364s-26.081-7.814-26.081-17.364
		c0,9.551-10.673,17.364-23.72,17.364s-23.719-7.814-23.719-17.364c0,9.551-10.674,17.364-23.72,17.364s-23.72-7.814-23.72-17.364
		c0,9.551-11.617,17.364-25.816,17.364s-25.816-7.814-25.816-17.364c0,9.551-11.616,17.364-25.816,17.364
		c-14.199,0-25.816-7.814-25.816-17.364c0,9.551-10.674,17.364-23.72,17.364s-23.72-7.814-23.72-17.364
		c0,9.551-10.673,17.364-23.72,17.364c-13.046,0-23.719-7.814-23.719-17.364c0,9.551-11.736,17.364-26.08,17.364
		c-14.345,0-26.081-7.814-26.081-17.364c0,9.551-10.648,17.364-23.664,17.364S10,371.83,10,362.279z"/>
</g>
<path d="M401.779,415.373h-0.475c-5.522,0-10,4.477-10,10s4.478,10,10,10h0.475c5.522,0,10-4.477,10-10
	C411.779,419.85,407.302,415.373,401.779,415.373z"/>
<path d="M0,425.373c0,5.523,4.478,10,10,10h341.897c5.522,0,10-4.477,10-10s-4.478-10-10-10H20v-28.086
	c0.091,0.033,0.185,0.061,0.276,0.093c0.28,0.099,0.563,0.193,0.846,0.286c0.235,0.077,0.47,0.154,0.708,0.227
	c0.294,0.09,0.591,0.174,0.889,0.257c0.235,0.066,0.469,0.133,0.705,0.194c0.307,0.08,0.618,0.153,0.928,0.225
	c0.234,0.055,0.466,0.112,0.702,0.163c0.32,0.069,0.643,0.129,0.967,0.191c0.233,0.044,0.464,0.091,0.699,0.132
	c0.334,0.057,0.673,0.105,1.011,0.154c0.228,0.033,0.455,0.07,0.685,0.1c0.355,0.045,0.714,0.08,1.072,0.117
	c0.218,0.022,0.434,0.049,0.653,0.068c0.397,0.034,0.798,0.056,1.199,0.078c0.184,0.01,0.366,0.026,0.55,0.034
	c0.587,0.025,1.179,0.038,1.774,0.038c1.749,0,3.468-0.109,5.146-0.319c7.272-0.911,13.784-3.72,18.743-7.783
	c6.507,5.026,15.621,8.103,25.856,8.103c0.864,0,1.716-0.03,2.563-0.073c0.177-0.009,0.353-0.019,0.529-0.03
	c8.976-0.553,16.927-3.489,22.772-8.006c6.114,5.005,14.587,8.109,23.937,8.109c9.24,0,17.623-3.031,23.72-7.933
	c6.097,4.902,14.479,7.933,23.72,7.933c9.331,0,17.789-3.092,23.9-8.079c6.457,5.013,15.491,8.079,25.636,8.079
	c10.239,0,19.347-3.124,25.815-8.22c6.469,5.096,15.577,8.22,25.816,8.22c10.145,0,19.179-3.066,25.636-8.079
	c6.111,4.987,14.569,8.079,23.9,8.079c9.24,0,17.623-3.031,23.72-7.933c6.097,4.902,14.479,7.933,23.72,7.933
	c9.35,0,17.822-3.104,23.936-8.109c5.845,4.518,13.797,7.453,22.774,8.006c0.176,0.011,0.351,0.021,0.527,0.03
	c0.847,0.043,1.699,0.073,2.563,0.073c0.64,0,1.275-0.012,1.905-0.036c5.096-0.192,9.881-1.153,14.167-2.734
	c3.668-1.353,6.97-3.159,9.783-5.332c6.103,5.001,14.559,8.102,23.889,8.102l0,0l0,0c0.67,0,1.334-0.02,1.995-0.051
	c0.21-0.01,0.417-0.028,0.626-0.041c0.451-0.028,0.9-0.061,1.346-0.104c0.24-0.023,0.479-0.051,0.718-0.078
	c0.415-0.047,0.828-0.1,1.239-0.159c0.239-0.035,0.477-0.07,0.715-0.109c0.419-0.068,0.835-0.145,1.249-0.226
	c0.214-0.042,0.43-0.081,0.642-0.127c0.489-0.104,0.972-0.22,1.452-0.341c0.129-0.033,0.26-0.06,0.388-0.094
	c0.608-0.161,1.208-0.335,1.801-0.522c0.137-0.043,0.27-0.092,0.406-0.137c0.364-0.12,0.729-0.238,1.087-0.367v28.086h-61.138
	c-5.522,0-10,4.477-10,10s4.478,10,10,10h71.138c5.522,0,10-4.477,10-10l0,0l0,0V172.462l0,0l0,0c0-0.027-0.004-0.053-0.004-0.08
	c-0.002-0.223-0.017-0.443-0.034-0.663c-0.008-0.114-0.011-0.23-0.024-0.343c-0.022-0.207-0.058-0.41-0.094-0.613
	c-0.022-0.126-0.038-0.255-0.065-0.38c-0.036-0.17-0.085-0.336-0.129-0.503c-0.041-0.154-0.077-0.309-0.126-0.459
	c-0.042-0.13-0.094-0.257-0.141-0.385c-0.065-0.179-0.128-0.359-0.203-0.533c-0.045-0.104-0.099-0.203-0.147-0.305
	c-0.09-0.189-0.177-0.379-0.278-0.562c-0.055-0.099-0.118-0.193-0.176-0.29c-0.105-0.176-0.208-0.354-0.324-0.523
	c-0.079-0.115-0.167-0.224-0.251-0.336c-0.106-0.142-0.208-0.286-0.321-0.422c-0.114-0.137-0.238-0.264-0.359-0.395
	c-0.094-0.102-0.184-0.207-0.282-0.305c-0.146-0.145-0.302-0.279-0.456-0.415c-0.085-0.075-0.165-0.154-0.253-0.225
	c-0.161-0.132-0.331-0.252-0.5-0.374c-0.092-0.067-0.181-0.138-0.276-0.202c-0.156-0.105-0.321-0.198-0.484-0.294
	c-0.119-0.07-0.235-0.145-0.357-0.211c-0.138-0.074-0.283-0.137-0.426-0.205c-0.157-0.075-0.312-0.153-0.474-0.22
	c-0.117-0.048-0.239-0.087-0.359-0.131c-0.195-0.072-0.389-0.144-0.589-0.204c-0.108-0.032-0.22-0.056-0.33-0.085
	c-0.215-0.056-0.429-0.112-0.649-0.154c-0.026-0.005-0.051-0.014-0.077-0.018l-52.959-9.77c-5.43-1.003-10.647,2.588-11.648,8.02
	c-1.002,5.431,2.589,10.646,8.02,11.648l44.773,8.26v5.237l-182.823-33.727v-5.237l62.872,11.598
	c0.613,0.113,1.224,0.167,1.826,0.167c4.729,0,8.934-3.37,9.822-8.188c1.002-5.431-2.589-10.646-8.02-11.648l-58.434-10.779
	c1.21-1.654,1.934-3.687,1.934-5.893c0-5.523-4.477-10-10-10h-6.403l-40.401-33.396c-3.697-3.056-9.045-3.056-12.742,0
	l-40.405,33.397h-6.402c-5.523,0-10,4.477-10,10c0,2.207,0.723,4.239,1.934,5.893L8.186,162.628C3.442,163.503,0,167.639,0,172.462
	V425.373 M222.823,251.227v-11.274h66.355l0,0l0,0v11.274H222.823z M464.09,250.206l-10-1.845V220.67
	c0-1.152,0.317-2.051,0.893-2.531c0.65-0.542,1.608-0.505,2.293-0.378c3.502,0.646,6.814,4.75,6.814,8.444V250.206z
	 M405.591,239.414l-10-1.845v-27.69c0-1.152,0.317-2.052,0.895-2.531c0.65-0.542,1.605-0.504,2.291-0.378
	c3.503,0.646,6.815,4.75,6.815,8.444L405.591,239.414L405.591,239.414z M492.002,275.693v10.937l-182.823-33.727v-10.937
	L492.002,275.693z M442.189,202.768c-5.147,4.284-8.099,10.81-8.099,17.903v24.001l-8.499-1.568v-27.69
	c0-9.435-5.079-18.357-12.637-23.636l37.073,6.839C447.165,199.454,444.496,200.847,442.189,202.768z M383.69,191.976
	c-5.147,4.284-8.099,10.81-8.099,17.903v24.001l-8.5-1.568v-27.691c0-9.434-5.079-18.357-12.637-23.636l37.073,6.839
	C388.666,188.662,385.997,190.056,383.69,191.976z M337.985,196.556c0.649-0.542,1.606-0.505,2.291-0.378
	c3.503,0.646,6.815,4.75,6.815,8.443v24.001l-10-1.845v-27.691C337.091,197.934,337.408,197.035,337.985,196.556z M289.179,132.316
	v87.636h-8.199V170.32c0-6.652-3.074-13.026-8.435-17.489c-4.749-3.953-10.688-5.821-16.543-5.253
	c-5.858-0.566-11.795,1.3-16.542,5.253c-5.361,4.463-8.436,10.837-8.436,17.489v49.632h-8.2v-87.636l0,0H289.179L289.179,132.316z
	 M260.979,219.953h-9.956v-49.632c0-0.526,0.386-1.413,1.231-2.118c0.244-0.203,1.105-0.852,1.933-0.701
	c1.199,0.222,2.428,0.222,3.627,0c0.831-0.15,1.689,0.497,1.934,0.701c0.846,0.704,1.231,1.591,1.231,2.118V219.953z
	 M54.727,217.762c0.245-0.045,0.525-0.079,0.813-0.079c0.517,0,1.061,0.109,1.478,0.457c0.577,0.479,0.895,1.379,0.895,2.531v27.691
	l-10,1.845v-24.001C47.912,222.512,51.224,218.408,54.727,217.762z M113.227,206.97c0.245-0.045,0.525-0.079,0.813-0.079
	c0.517,0,1.06,0.109,1.478,0.457c0.576,0.48,0.894,1.379,0.894,2.532v27.691l-9.999,1.845v-24.001
	C106.412,211.719,109.724,207.616,113.227,206.97z M171.727,196.178c0.245-0.045,0.525-0.079,0.814-0.079
	c0.517,0,1.06,0.109,1.477,0.456c0.576,0.48,0.894,1.379,0.894,2.532v27.691l-9.999,1.845v-24.001
	C164.912,200.927,168.224,196.824,171.727,196.178z M20,275.693L20,275.693L20,275.693L20,275.693l182.823-33.727l0,0l0,0l0,0
	v10.937L20,286.63V275.693z M202.823,221.628l-7.912,1.46v-24.001c0-7.093-2.952-13.619-8.099-17.903
	c-2.307-1.92-4.974-3.313-7.835-4.151l23.846-4.399V221.628z M144.912,204.621v27.691l-8.501,1.568v-24.001
	c0-7.093-2.952-13.619-8.099-17.903c-2.307-1.92-4.974-3.313-7.836-4.151l37.071-6.839
	C149.99,186.264,144.912,195.186,144.912,204.621z M86.412,215.413v27.69l-8.5,1.568V220.67c0-7.093-2.952-13.619-8.099-17.903
	c-2.306-1.92-4.974-3.314-7.836-4.152l37.071-6.839C91.49,197.056,86.412,205.979,86.412,215.413z M27.912,226.205v27.69L20,255.355
	V206.36l20.549-3.791C32.991,207.848,27.912,216.771,27.912,226.205z M492.002,255.355l-7.912-1.46v-27.69
	c0-9.435-5.079-18.358-12.637-23.636l20.549,3.791L492.002,255.355L492.002,255.355z M333.027,177.033
	c-2.862,0.838-5.531,2.231-7.838,4.151c-5.147,4.284-8.099,10.81-8.099,17.903v24.001l-7.912-1.46v-48.995L333.027,177.033z
	 M256.001,99.601l15.384,12.715h-30.768L256.001,99.601z M202.823,147.059v5.237L20,186.023v-5.236L202.823,147.059z
	 M378.792,369.643c-8.247,0-13.719-4.433-13.719-7.364c0-5.523-4.478-10-10-10s-10,4.477-10,10c0,2.932-5.473,7.364-13.721,7.364
	c-8.247,0-13.719-4.433-13.719-7.364c0-5.523-4.477-10-10-10c-5.522,0-10,4.477-10,10c0,2.529-6.159,7.364-15.816,7.364
	s-15.816-4.836-15.816-7.364c0-5.523-4.478-10-10-10s-10,4.477-10,10c0,2.529-6.159,7.364-15.816,7.364
	c-9.656,0-15.815-4.836-15.815-7.364c0-5.523-4.478-10-10-10c-5.523,0-10,4.477-10,10c0,2.932-5.472,7.364-13.72,7.364
	s-13.72-4.433-13.72-7.364c0-5.523-4.478-10-10-10s-10,4.477-10,10c0,2.932-5.472,7.364-13.72,7.364s-13.72-4.433-13.72-7.364
	c0-1.305-0.257-2.549-0.712-3.692c8.855-13.099,22.444-24.955,39.807-34.483c27.107-14.876,61.704-23.068,97.416-23.068
	s70.31,8.192,97.417,23.068c17.362,9.528,30.952,21.383,39.806,34.482c-0.455,1.143-0.713,2.387-0.713,3.692
	C392.512,365.211,387.04,369.643,378.792,369.643z M428.593,369.643c-0.671,0-1.338-0.027-1.999-0.073
	c-0.168-0.012-0.329-0.031-0.495-0.046c-0.492-0.043-0.98-0.095-1.462-0.163c-0.188-0.026-0.372-0.056-0.556-0.086
	c-0.455-0.073-0.903-0.159-1.346-0.254c-0.18-0.039-0.362-0.075-0.538-0.117c-0.531-0.126-1.052-0.267-1.56-0.425
	c-0.057-0.018-0.115-0.034-0.171-0.052c-5.483-15.701-15.889-30.379-30.337-43.06c4.269-1.14,7.418-5.023,7.418-9.651
	c0-5.523-4.478-10-10-10h-26.133c-29.751-15.915-67.088-24.682-105.413-24.682c-39.019,0-77.032,9.068-107.038,25.535
	c-9.311,5.109-17.719,10.857-25.13,17.113H98.897c-5.522,0-10,4.477-10,10s4.478,10,10,10h5.959
	c-5.82,7.835-10.312,16.135-13.319,24.745c-0.071,0.023-0.146,0.043-0.219,0.065c-0.492,0.151-0.994,0.288-1.507,0.41
	c-0.181,0.043-0.369,0.081-0.554,0.121c-0.438,0.094-0.882,0.179-1.332,0.251c-0.187,0.03-0.373,0.06-0.563,0.087
	c-0.48,0.067-0.967,0.119-1.456,0.162c-0.167,0.014-0.329,0.034-0.498,0.046c-0.66,0.046-1.327,0.073-1.998,0.073
	c-9.818,0-16.081-4.836-16.081-7.364c0-5.523-4.478-10-10-10s-10,4.477-10,10c0,2.932-5.45,7.364-13.664,7.364
	c-8.215,0-13.665-4.433-13.665-7.364v-7.906h18.63c5.522,0,10-4.477,10-10s-4.478-10-10-10H20v-27.405l193.738-35.741h84.526
	l193.738,35.741v1.906h-18.63c-5.522,0-10,4.477-10,10s4.478,10,10,10h18.63v33.406c0,2.932-5.45,7.364-13.665,7.364
	c-8.214,0-13.664-4.433-13.664-7.364c0-5.523-4.478-10-10-10c-5.523,0-10,4.477-10,10
	C444.673,364.808,438.411,369.643,428.593,369.643z"/>
<path d="M73.612,306.174h-28.63c-5.522,0-10,4.477-10,10s4.478,10,10,10h28.63c5.522,0,10-4.477,10-10
	C83.612,310.651,79.135,306.174,73.612,306.174z"/>
<path d="M458.602,336.873c0-5.523-4.477-10-10-10h-28.63c-5.522,0-10,4.477-10,10s4.478,10,10,10h28.63
	C454.124,346.873,458.602,342.396,458.602,336.873z"/>
<path d="M419.854,167.476l0.447,0.083c0.613,0.113,1.224,0.167,1.826,0.167c4.73,0,8.934-3.369,9.822-8.187
	c1.002-5.431-2.589-10.646-8.02-11.648l-0.447-0.083c-5.424-1.005-10.646,2.588-11.648,8.02
	C410.833,161.259,414.424,166.474,419.854,167.476z"/>
<g>
</g>
<g>
</g>
<g>
</g>
<g>
</g>
<g>
</g>
<g>
</g>
<g>
</g>
<g>
</g>
<g>
</g>
<g>
</g>
<g>
</g>
<g>
</g>
<g>
</g>
<g>
</g>
<g>
</g>
</svg>
