<svg id="Capa_1" enable-background="new 0 0 512 512" height="512" viewBox="0 0 512 512" width="512" xmlns="http://www.w3.org/2000/svg"><g><g><g><path d="m436.639 78.894c20.45 20.45 39.802 42.011 58.037 64.69 13.594 16.892 13.013 41.179-1.335 57.428-60.867 68.876-125.732 133.741-194.601 194.601-16.256 14.355-40.536 14.929-57.435 1.342-22.672-18.241-44.24-37.587-64.69-58.037-15.32-15.32-30.018-31.262-44.094-47.826-4.718-5.556-9.365-11.168-13.936-16.857-13.587-16.899-13.014-41.179 1.342-57.435 60.859-68.869 125.724-133.733 194.6-194.6 16.249-14.348 40.536-14.928 57.429-1.335 5.689 4.571 11.301 9.218 16.857 13.936 16.564 14.076 32.506 28.773 47.826 44.093z" fill="#f4dd45"/><path d="m436.639 78.894-260.025 260.025c-15.32-15.32-30.018-31.262-44.094-47.826l256.293-256.292c16.564 14.076 32.506 28.773 47.826 44.093z" fill="#9b9595"/></g><g><path d="m346.19 154.097c-93.075-6.696-186.151-6.696-279.226 0-28.778 2.07-51.79 24.681-54.31 53.423-6.87 78.353-6.87 156.706 0 235.059 2.52 28.742 25.532 51.353 54.31 53.423 93.075 6.696 186.151 6.696 279.226 0 28.778-2.07 51.79-24.681 54.31-53.423 6.87-78.353 6.87-156.706 0-235.059-2.52-28.742-25.531-51.352-54.31-53.423z" fill="#845c47"/><path d="m99.553 498.071c-10.862-.593-21.725-1.285-32.587-2.066-28.782-2.075-51.792-24.68-54.312-53.423-6.869-78.359-6.869-156.709 0-235.059 2.52-28.742 25.53-51.357 54.312-53.423 10.862-.781 21.715-1.473 32.577-2.066-17.969 9.588-30.64 27.764-32.518 49.172-7.235 82.56-7.235 165.121 0 247.681 1.878 21.411 14.549 39.597 32.528 49.184z" fill="#704d3b"/><path d="m336.916 391.559h63.471c10.924 0 19.78-8.856 19.78-19.78v-95.341c0-10.924-8.856-19.78-19.78-19.78h-63.471c-37.252 0-67.451 30.199-67.451 67.451 0 37.251 30.199 67.45 67.451 67.45z" fill="#b78b7a"/><path d="m320.951 371.808c12.206 12.207 29.069 19.758 47.69 19.758h-31.727c-18.621 0-35.483-7.551-47.69-19.758s-19.758-29.078-19.758-47.7c0-37.252 30.195-67.448 67.448-67.448h31.727c-37.253 0-67.448 30.195-67.448 67.448-.001 18.621 7.551 35.493 19.758 47.7z" fill="#986b54"/><circle cx="336.916" cy="324.108" fill="#f4dd45" r="31.724"/><path d="m345.775 354.577c-2.807.82-5.782 1.255-8.856 1.255-17.524 0-31.727-14.203-31.727-31.727 0-17.514 14.203-31.718 31.727-31.718 3.074 0 6.049.435 8.856 1.255-13.215 3.825-22.871 16.022-22.871 30.462 0 14.451 9.656 26.648 22.871 30.473z" fill="#ffc250"/></g></g><g><path d="m500.467 138.891c-4.132-5.139-8.523-10.461-13.051-15.817-2.673-3.163-7.405-3.559-10.569-.886-3.163 2.674-3.559 7.406-.886 10.569 4.449 5.263 8.761 10.489 12.819 15.536 11.349 14.098 10.882 34.182-1.109 47.755-20.404 23.086-41.521 45.994-62.908 68.252-2.877-5.766-7.733-10.377-13.677-12.934-.811-14.797-1.861-29.736-3.159-44.501-2.051-23.36-15.888-42.999-35.59-53.101l64.22-64.22c6.858 6.994 13.613 14.126 20.139 21.283 2.79 3.061 7.534 3.279 10.594.489 3.061-2.791 3.28-7.534.489-10.595-8.346-9.155-17.055-18.279-25.891-27.126-15.397-15.387-31.633-30.357-48.271-44.507-6.268-5.303-11.831-9.9-17-14.047-19.812-15.941-48.03-15.286-67.09 1.554-44.986 39.74-88.926 81.86-130.652 125.222-37.588.529-75.135 2.117-112.471 4.802-32.627 2.347-58.383 27.684-61.242 60.247-5.752 65.643-6.702 132.205-2.824 197.838.235 3.984 3.54 7.057 7.48 7.057.148 0 .299-.004.449-.013 4.134-.244 7.289-3.794 7.044-7.929-3.836-64.904-2.895-130.728 2.794-195.642 2.211-25.185 22.135-44.783 47.376-46.598 92.277-6.635 185.852-6.635 278.129 0 25.24 1.816 45.165 21.413 47.377 46.599 1.195 13.595 2.178 27.339 2.957 40.98h-59.067c-41.325 0-74.946 33.621-74.946 74.946s33.621 74.947 74.946 74.947h59.174c-.799 14.332-1.817 28.711-3.064 42.864-2.211 25.185-22.135 44.782-47.376 46.598-92.277 6.636-185.852 6.636-278.129 0-25.24-1.816-45.165-21.413-47.376-46.595-.256-2.92-.5-5.841-.735-8.762-.331-4.128-3.942-7.201-8.077-6.874-4.129.332-7.206 3.948-6.874 8.077.237 2.955.485 5.91.743 8.869 2.859 32.561 28.615 57.898 61.242 60.245 46.495 3.344 93.318 5.016 140.141 5.016s93.646-1.672 140.141-5.016c32.627-2.347 58.383-27.684 61.241-60.243 1.35-15.329 2.437-30.922 3.267-46.435 9.657-4.204 16.429-13.835 16.429-25.022v-88.847c24.246-24.975 48.22-50.844 71.29-76.945 16.844-19.069 17.497-47.285 1.553-67.09zm-300.529 2.742c38.369-39.34 78.507-77.565 119.52-113.797 13.569-11.988 33.656-12.454 47.765-1.102 3.294 2.643 6.757 5.479 10.462 8.564l-107.358 107.358c-23.44-.761-46.916-1.102-70.389-1.023zm90.835 1.789 98.388-98.388c12.593 10.9 24.927 22.261 36.795 33.898l-69.194 69.194c-3.272-.741-6.633-1.26-10.076-1.507-18.592-1.337-37.237-2.395-55.913-3.197zm121.851 228.35c0 6.771-5.508 12.28-12.279 12.28h-63.468c-33.055 0-59.947-26.892-59.947-59.948s26.892-59.948 59.947-59.948h63.468c6.771 0 12.279 5.508 12.279 12.279z"/><path d="m336.876 284.882c-21.627 0-39.222 17.595-39.222 39.222s17.594 39.222 39.222 39.222c21.627 0 39.222-17.595 39.222-39.222s-17.595-39.222-39.222-39.222zm0 63.445c-13.357 0-24.223-10.866-24.223-24.223s10.866-24.223 24.223-24.223c13.356 0 24.223 10.866 24.223 24.223s-10.867 24.223-24.223 24.223z"/></g></g></svg>