<svg id="Capa_1" enable-background="new 0 0 512 512" height="512" viewBox="0 0 512 512" width="512" xmlns="http://www.w3.org/2000/svg"><g><path d="m110.459 503.213v-22.486c0-.711.576-1.287 1.287-1.287h14.031v-23.774c0-.711.576-1.287 1.287-1.287h13.777v-92.214h-124.923v141.044c0 .713.578 1.291 1.291 1.291h94.537c-.711 0-1.287-.576-1.287-1.287z" fill="#c6c1c8"/><path d="m401.541 503.213v-22.486c0-.711-.576-1.287-1.287-1.287h-14.031v-23.774c0-.711-.576-1.287-1.287-1.287h-13.777v-92.214h124.923v141.044c0 .713-.578 1.291-1.291 1.291h-94.537c.711 0 1.287-.576 1.287-1.287z" fill="#c6c1c8"/><path d="m371.159 362.165h124.923v20h-124.923z" fill="#afaab4"/><path d="m15.918 362.165h124.923v20h-124.923z" fill="#afaab4"/><path d="m386.224 479.439h-260.448v-23.774c0-.711.576-1.287 1.287-1.287h257.873c.711 0 1.287.576 1.287 1.287v23.774z" fill="#dfdde2"/><path d="m166.271 337.165h179.459v117.214h-179.459z" fill="#c6c1c8"/><path d="m166.271 337.165h179.459v20h-179.459z" fill="#afaab4"/><path d="m281.406 67.227h-50.813v-6.363c0-14.032 11.375-25.406 25.406-25.406 14.032 0 25.406 11.375 25.406 25.406v6.363z" fill="#f1f1f4"/><path d="m230.594 67.227h50.813v50.056h-50.813z" fill="#f1f1f4"/><path d="m230.594 67.227h50.813v20h-50.813z" fill="#dfdde2"/><path d="m168.614 229.822c0-48.262 39.124-87.386 87.386-87.386s87.386 39.124 87.386 87.386z" fill="#f1f1f4"/><path d="m273.755 144.24c12.897 11.367 22.415 26.478 26.852 43.634 2.877 11.124-5.654 21.947-17.145 21.947h-112.55c-1.504 6.423-2.3 13.118-2.3 20h174.773c.001-42.178-29.881-77.377-69.63-85.581z" fill="#dfdde2"/><path d="m256 142.435c15.968 0 30.935 4.283 43.817 11.763v-27.297c0-5.312-4.306-9.617-9.617-9.617h-68.399c-5.312 0-9.617 4.306-9.617 9.617v27.297c12.881-7.48 27.848-11.763 43.816-11.763z" fill="#dfdde2"/><g fill="#f1f1f4"><path d="m343.693 254.882h-175.386c-6.92 0-12.53-5.61-12.53-12.53 0-6.92 5.61-12.53 12.53-12.53h175.386c6.92 0 12.53 5.61 12.53 12.53.001 6.92-5.609 12.53-12.53 12.53z"/><path d="m400.254 504.5h-288.508c-.711 0-1.287-.576-1.287-1.287v-22.486c0-.711.576-1.287 1.287-1.287h288.508c.711 0 1.287.576 1.287 1.287v22.486c0 .711-.576 1.287-1.287 1.287z"/><path d="m376.441 337.165h-240.882c-.835 0-1.512-.677-1.512-1.512v-27.47c0-.835.677-1.512 1.512-1.512h240.883c.835 0 1.512.677 1.512 1.512v27.47c-.001.835-.678 1.512-1.513 1.512z"/><path d="m168.307 254.882h25.07v51.788h-25.07z"/><path d="m218.446 254.882h25.07v51.788h-25.07z"/><path d="m268.586 254.882h25.07v51.788h-25.07z"/><path d="m318.725 254.882h25.07v51.788h-25.07z"/></g><path d="m168.307 254.882h25.07v51.788h-25.07z" fill="#dfdde2"/><path d="m218.446 254.882h25.07v51.788h-25.07z" fill="#dfdde2"/><path d="m268.586 254.882h25.07v51.788h-25.07z" fill="#dfdde2"/><path d="m318.725 254.882h25.07v51.788h-25.07z" fill="#dfdde2"/><path d="m168.307 254.882h25.07v20.673h-25.07z" fill="#c6c1c8"/><path d="m218.446 254.882h25.07v20.673h-25.07z" fill="#c6c1c8"/><path d="m268.586 254.882h25.07v20.673h-25.07z" fill="#c6c1c8"/><path d="m318.725 254.882h25.07v20.673h-25.07z" fill="#c6c1c8"/><path d="m140.841 337.165h25.43v117.214h-25.43z" fill="#f1f1f4"/><path d="m191.7 337.165h25.43v117.214h-25.43z" fill="#f1f1f4"/><path d="m345.729 337.165h25.43v117.214h-25.43z" fill="#f1f1f4" transform="matrix(-1 0 0 -1 716.888 791.543)"/><path d="m294.87 337.165h25.43v117.214h-25.43z" fill="#f1f1f4" transform="matrix(-1 0 0 -1 615.17 791.543)"/><path d="m140.841 337.165h25.43v20h-25.43z" fill="#dfdde2"/><path d="m191.7 337.165h25.43v20h-25.43z" fill="#dfdde2"/><path d="m345.729 337.165h25.43v20h-25.43z" fill="#dfdde2"/><path d="m294.87 337.165h25.43v20h-25.43z" fill="#dfdde2"/><path d="m55.917 430.588v-27.424c0-.552.448-1 1-1h42.923c.552 0 1 .448 1 1v27.424c0 .552-.448 1-1 1h-42.922c-.553 0-1.001-.448-1.001-1z" fill="#dae7ef"/><path d="m242.459 454.379v-71.173c0-7.479 6.063-13.541 13.541-13.541 7.479 0 13.541 6.063 13.541 13.541v71.173z" fill="#afaab4"/><path d="m456.083 430.588v-27.424c0-.552-.448-1-1-1h-42.923c-.552 0-1 .448-1 1v27.424c0 .552.448 1 1 1h42.923c.552 0 1-.448 1-1z" fill="#dae7ef"/><path d="m503.209 321.918h-125.256v13.735c0 .835-.677 1.512-1.512 1.512h-5.278c-.002 0-.003 0-.005 0v25h132.05c.713 0 1.291-.578 1.291-1.291v-37.665c.001-.713-.577-1.291-1.29-1.291z" fill="#c6c1c8"/><path d="m135.559 337.165c-.835 0-1.512-.677-1.512-1.512v-13.735h-125.256c-.713 0-1.291.578-1.291 1.291v37.665c0 .713.578 1.291 1.291 1.291h132.05v-25c-.002 0-.003 0-.005 0z" fill="#c6c1c8"/><path d="m99.841 439.088c4.687 0 8.5-3.813 8.5-8.5v-27.424c0-4.687-3.813-8.5-8.5-8.5h-42.924c-4.687 0-8.5 3.813-8.5 8.5v27.424c0 4.687 3.813 8.5 8.5 8.5zm-36.424-29.423h29.923v14.424h-29.923z"/><path d="m455.082 394.665h-42.923c-4.687 0-8.5 3.813-8.5 8.5v27.424c0 4.687 3.813 8.5 8.5 8.5h42.923c4.687 0 8.5-3.813 8.5-8.5v-27.424c0-4.687-3.813-8.5-8.5-8.5zm-6.5 29.423h-29.923v-14.424h29.923z"/><path d="m8.417 369.656v39.085c0 4.142 3.358 7.5 7.5 7.5s7.5-3.358 7.5-7.5v-39.077h109.923v77.214h-6.277c-4.845 0-8.787 3.942-8.787 8.787v16.273h-6.53c-4.845 0-8.787 3.942-8.787 8.787v16.275h-79.542v-53.259c0-4.142-3.358-7.5-7.5-7.5s-7.5 3.358-7.5 7.5v59.467c0 4.848 3.944 8.792 8.792 8.792h477.582c4.848 0 8.791-3.944 8.791-8.792v-133.552c4.675-.196 8.418-4.06 8.418-8.782v-37.665c0-4.847-3.943-8.791-8.791-8.791h-117.756v-6.235c0-4.969-4.043-9.012-9.012-9.012h-25.146v-38.286c7.286-3 12.429-10.176 12.429-18.532 0-8.587-5.432-15.93-13.04-18.772-2.012-30.832-18.816-57.693-43.367-73.54v-23.14c0-9.438-7.679-17.117-17.117-17.117h-1.293v-35.056h1.618c4.143 0 7.5-3.358 7.5-7.5s-3.357-7.5-7.5-7.5h-1.638c-.514-15.062-11.199-27.587-25.386-30.907v-21.321c0-4.142-3.357-7.5-7.5-7.5-4.142 0-7.5 3.358-7.5 7.5v21.321c-14.188 3.32-24.873 15.845-25.387 30.907h-1.638c-4.142 0-7.5 3.358-7.5 7.5s3.358 7.5 7.5 7.5h1.618v35.056h-1.292c-9.439 0-17.118 7.679-17.118 17.117v23.14c-24.55 15.846-41.354 42.708-43.366 73.539-7.609 2.842-13.041 10.184-13.041 18.772 0 8.394 5.19 15.599 12.53 18.573v38.245h-25.248c-4.969 0-9.012 4.043-9.012 9.012v6.235h-117.756c-4.847 0-8.791 3.944-8.791 8.791v37.665c0 4.722 3.743 8.586 8.417 8.783zm139.924-24.991h10.43v102.214h-10.43zm35.859 0v102.214h-10.43v-102.214zm103.17 0v102.214h-10.329v-63.673c0-11.603-9.438-21.042-21.041-21.042-11.602 0-21.041 9.439-21.041 21.042v63.673h-10.329v-102.214zm50.859 0v102.214h-10.429v-102.214zm-25.429 102.214h-10.43v-102.214h10.43zm-62.841 0v-63.673c0-3.332 2.71-6.042 6.041-6.042s6.041 2.71 6.041 6.042v63.673zm-40.329 0h-10.43v-102.214h10.43zm-76.354 15h245.447v10.061h-245.447zm-15.317 25.06h276.082v10.061h-276.082zm291.082 10.061v-16.273c0-4.845-3.942-8.787-8.787-8.787h-6.53v-16.273c0-4.845-3.941-8.787-8.787-8.787h-6.277v-20.666c0-4.142-3.357-7.5-7.5-7.5s-7.5 3.358-7.5 7.5v20.666h-10.43v-102.215h10.43v46.548c0 4.142 3.357 7.5 7.5 7.5s7.5-3.358 7.5-7.5v-21.548h109.923v127.335zm87.959-167.583v25.247h-118.341v-10.276c3.9-.991 6.794-4.531 6.794-8.735v-6.235h111.547zm-170.775-30.247v-36.788h10.07v36.788zm-25.07 0v-36.788h10.069v36.788zm-25.069 0v-36.788h10.069v36.788zm-25.07 0v-36.788h10.07v36.788zm-25.07 0v-36.788h10.069v36.788zm-25.07 0v-36.788h10.07v36.788zm55.124-256.212c9.491 0 17.282 7.424 17.87 16.77h-35.741c.589-9.346 8.379-16.77 17.871-16.77zm-17.907 31.77h35.813v35.056h-10.406v-19.435c0-4.142-3.357-7.5-7.5-7.5-4.142 0-7.5 3.358-7.5 7.5v19.435h-10.407zm-18.41 52.173c0-1.167.95-2.117 2.118-2.117h68.398c1.167 0 2.117.95 2.117 2.117v15.258c-11.192-4.654-23.46-7.224-36.316-7.224-12.857 0-25.125 2.571-36.317 7.224zm36.317 23.034c41.521 0 75.745 31.84 79.537 72.387h-107.161c-4.142 0-7.5 3.358-7.5 7.5s3.358 7.5 7.5 7.5h115.317c2.773 0 5.03 2.256 5.03 5.03s-2.257 5.03-5.03 5.03h-175.386c-2.774 0-5.03-2.256-5.03-5.03s2.256-5.03 5.03-5.03h25.07c4.142 0 7.5-3.358 7.5-7.5s-3.358-7.5-7.5-7.5h-16.913c3.792-40.547 38.015-72.387 79.536-72.387zm-80.193 112.447h10.07v36.788h-10.07zm-34.26 51.788h228.906v15.494h-228.906zm-126.547 15.247h111.547v6.235c0 4.204 2.894 7.745 6.794 8.735v10.276h-118.341z"/></g></svg>