<?xml version="1.0" encoding="UTF-8" standalone="no"?>
<svg
   xmlns:dc="http://purl.org/dc/elements/1.1/"
   xmlns:cc="http://creativecommons.org/ns#"
   xmlns:rdf="http://www.w3.org/1999/02/22-rdf-syntax-ns#"
   xmlns:svg="http://www.w3.org/2000/svg"
   xmlns="http://www.w3.org/2000/svg"
   xmlns:sodipodi="http://sodipodi.sourceforge.net/DTD/sodipodi-0.dtd"
   xmlns:inkscape="http://www.inkscape.org/namespaces/inkscape"
   height="512pt"
   viewBox="-4 0 512 512.00852"
   width="512pt"
   version="1.1"
   id="svg148"
   sodipodi:docname="westminster_abbey.svg"
   inkscape:version="0.92.4 (5da689c313, 2019-01-14)">
  <metadata
     id="metadata154">
    <rdf:RDF>
      <cc:Work
         rdf:about="">
        <dc:format>image/svg+xml</dc:format>
        <dc:type
           rdf:resource="http://purl.org/dc/dcmitype/StillImage" />
      </cc:Work>
    </rdf:RDF>
  </metadata>
  <defs
     id="defs152" />
  <sodipodi:namedview
     pagecolor="#ffffff"
     bordercolor="#666666"
     borderopacity="1"
     objecttolerance="10"
     gridtolerance="10"
     guidetolerance="10"
     inkscape:pageopacity="0"
     inkscape:pageshadow="2"
     inkscape:window-width="1920"
     inkscape:window-height="986"
     id="namedview150"
     showgrid="false"
     inkscape:zoom="0.34570313"
     inkscape:cx="1.4463277"
     inkscape:cy="341.33333"
     inkscape:window-x="-11"
     inkscape:window-y="-11"
     inkscape:window-maximized="1"
     inkscape:current-layer="svg148" />
  <path
     d="m 470.61758,409.60859 v 61.43907 c -0.0105,4.23632 -3.4418,7.66757 -7.68164,7.68164 H 48.21875 c -4.236328,-0.0141 -7.667578,-3.44532 -7.681641,-7.68164 v -23.03789 h -7.678125 c -4.243359,0 -7.68164,-3.4418 -7.68164,-7.68164 0,-4.24336 3.438281,-7.68165 7.68164,-7.68165 h 7.678125 V 271.36719 h -7.678125 c -4.243359,0 -7.68164,-3.43828 -7.68164,-7.67813 0,-4.24336 3.438281,-7.68164 7.68164,-7.68164 h 23.037891 v -69.1207 c -4.239844,0 -7.678125,-3.43828 -7.678125,-7.67813 0,-4.24336 3.438281,-7.68164 7.678125,-7.68164 V 87.046485 l 13.517578,-47.30625 c 0.239063,-0.819142 0.991406,-1.381642 1.842188,-1.381642 0.854297,0 1.60664,0.5625 1.845703,1.381642 L 77.8625,56.326953 h 48.23086 l 4.76016,-16.586718 c 0.23906,-0.819142 0.9914,-1.381642 1.8457,-1.381642 0.85078,0 1.60312,0.5625 1.84219,1.381642 l 13.51757,47.30625 v 84.480465 c 4.23985,0 7.67813,3.43828 7.67813,7.68164 0,4.23985 -3.43828,7.67813 -7.67813,7.67813 v 53.76094 l 46.0793,-34.5586 v -19.20234 h -7.68164 c -4.23984,0 -7.67812,-3.43828 -7.67812,-7.67813 0,-4.24336 3.43828,-7.68164 7.67812,-7.68164 h 7.68164 v -7.67812 c 0,-4.24336 3.43828,-7.68164 7.67813,-7.68164 4.24336,0 7.68164,3.43828 7.68164,7.68164 v 7.67812 h 7.67812 c 4.24336,0 7.68164,3.43828 7.68164,7.68164 0,4.23985 -3.43828,7.67813 -7.68164,7.67813 h -7.67812 v 19.20234 l 46.07929,34.5586 v -53.76094 c -4.23984,0 -7.67812,-3.43828 -7.67812,-7.67813 0,-4.24336 3.43828,-7.68164 7.67812,-7.68164 V 87.046485 l 13.51758,-47.30625 c 0.23906,-0.819142 0.98789,-1.381642 1.84219,-1.381642 0.8543,0 1.60312,0.5625 1.84219,1.381642 l 4.76367,16.586718 h 48.23086 l 4.76015,-16.586718 c 0.23907,-0.819142 0.99141,-1.381642 1.84219,-1.381642 0.8543,0 1.60664,0.5625 1.84571,1.381642 l 13.51406,47.30625 v 84.480465 c 4.24336,0 7.68164,3.43828 7.68164,7.68164 0,4.23985 -3.43828,7.67813 -7.68164,7.67813 v 69.1207 h 23.0414 c 4.24336,0 7.68164,3.43828 7.68164,7.68164 0,4.23985 -3.43828,7.67813 -7.68164,7.67813 h -7.67812 v 107.52187 c 4.23633,0.0106 7.66758,3.4418 7.67812,7.67813 v 15.35976 h 92.1586 c 4.23984,0.0141 7.67109,3.44532 7.68164,7.68164 z m 0,0"
     id="path2"
     inkscape:connector-curvature="0"
     style="fill:#f9eab0;stroke-width:0.89999998" />
  <path
     d="m 363.09922,271.36719 v 107.52187 l -7.68164,99.84024 H 48.21875 c -4.236328,-0.0141 -7.667578,-3.44532 -7.681641,-7.68164 V 271.36719 c 0.01406,-4.23633 3.445313,-7.66758 7.681641,-7.67813 h 307.19883 c 4.23633,0.0106 7.66758,3.4418 7.68164,7.67813 z m 0,0"
     id="path4"
     inkscape:connector-curvature="0"
     style="fill:#fdd834;stroke-width:0.89999998" />
  <path
     d="m 340.05781,271.36719 v 107.52187 l -7.68164,99.84024 H 48.21875 c -4.236328,-0.0141 -7.667578,-3.44532 -7.681641,-7.68164 V 271.36719 c 0.01406,-4.23633 3.445313,-7.66758 7.681641,-7.67813 h 284.15742 c 4.23633,0.0106 7.66758,3.4418 7.68164,7.67813 z m 0,0"
     id="path6"
     inkscape:connector-curvature="0"
     style="fill:#ffeb3a;stroke-width:0.89999998" />
  <path
     d="M 132.69922,263.68906 H 270.93711 V 478.7293 H 132.69922 Z m 0,0"
     id="path8"
     inkscape:connector-curvature="0"
     style="fill:#fec108;stroke-width:0.89999998" />
  <path
     d="m 132.69922,263.68906 h 115.2 V 478.7293 h -115.2 z m 0,0"
     id="path10"
     inkscape:connector-curvature="0"
     style="fill:#ffdc00;stroke-width:0.89999998" />
  <path
     d="m 255.57734,240.64766 v 23.0414 H 148.05898 v -23.0414 l 37.09336,-27.80157 11.67188,-8.7539 c 2.87578,-2.46094 7.11211,-2.46094 9.98437,0 z m 0,0"
     id="path12"
     inkscape:connector-curvature="0"
     style="fill:#fec108;stroke-width:0.89999998" />
  <path
     d="m 232.53594,248.3293 v 15.35976 h -84.47696 v -23.0414 l 37.09336,-27.80157 z m 0,0"
     id="path14"
     inkscape:connector-curvature="0"
     style="fill:#ffdc00;stroke-width:0.89999998" />
  <path
     d="m 277.54297,56.326953 h 48.23086 v 46.082817 h -48.23086 z m 0,0"
     id="path16"
     inkscape:connector-curvature="0"
     style="fill:#ffeb3a;stroke-width:0.89999998" />
  <path
     d="m 77.8625,56.326953 h 48.23086 V 102.40977 H 77.8625 Z m 0,0"
     id="path18"
     inkscape:connector-curvature="0"
     style="fill:#ffeb3a;stroke-width:0.89999998" />
  <path
     d="M 55.896875,87.046485 H 148.05898 V 263.68906 H 55.896875 Z m 0,0"
     id="path20"
     inkscape:connector-curvature="0"
     style="fill:#dfc49c;stroke-width:0.89999998" />
  <path
     d="M 55.896875,87.046485 H 125.01758 V 263.68906 H 55.896875 Z m 0,0"
     id="path22"
     inkscape:connector-curvature="0"
     style="fill:#ffe0b2;stroke-width:0.89999998" />
  <path
     d="m 255.57734,87.046485 h 92.1586 V 263.68906 h -92.1586 z m 0,0"
     id="path24"
     inkscape:connector-curvature="0"
     style="fill:#dfc49c;stroke-width:0.89999998" />
  <path
     d="m 255.57734,87.046485 h 69.12071 V 263.68906 h -69.12071 z m 0,0"
     id="path26"
     inkscape:connector-curvature="0"
     style="fill:#ffe0b2;stroke-width:0.89999998" />
  <g
     id="g36"
     transform="matrix(0.9,0,0,0.9,25.173828,25.600391)"
     style="fill:#ffdc00">
    <path
       d="M 34.136719,68.273438 49.15625,15.722656 c 0.261719,-0.917968 1.097656,-1.550781 2.050781,-1.550781 0.953125,0 1.789063,0.632813 2.050781,1.550781 l 15.011719,52.550782"
       id="path28"
       inkscape:connector-curvature="0" />
    <path
       d="m 102.40234,68.273438 15.01954,-52.550782 c 0.26171,-0.917968 1.10156,-1.550781 2.05078,-1.550781 0.95312,0 1.79297,0.632813 2.05468,1.550781 l 15.01172,52.550782"
       id="path30"
       inkscape:connector-curvature="0" />
    <path
       d="m 256.00391,68.273438 15.01953,-52.550782 c 0.26172,-0.917968 1.09765,-1.550781 2.05078,-1.550781 0.95312,0 1.78906,0.632813 2.05078,1.550781 l 15.01172,52.550782"
       id="path32"
       inkscape:connector-curvature="0" />
    <path
       d="m 324.26953,68.273438 15.01953,-52.550782 c 0.26172,-0.917968 1.09766,-1.550781 2.05078,-1.550781 0.95313,0 1.79297,0.632813 2.05078,1.550781 l 15.01172,52.550782"
       id="path34"
       inkscape:connector-curvature="0" />
  </g>
  <path
     d="m 240.21758,332.19453 v 31.33477 c -0.0105,4.23633 -3.4418,7.66758 -7.68164,7.67812 h -61.43906 c -4.23633,-0.0105 -7.66758,-3.44179 -7.67813,-7.67812 v -31.33477 c 0.0211,-17.98594 10.52227,-34.30547 26.88047,-41.77969 l 2.0707,-0.92109 c 2.59805,-1.09687 5.29805,-1.91953 8.06485,-2.45742 l 1.38164,-0.30938 1.38515,0.30938 c 2.76328,0.53789 5.4668,1.36055 8.06133,2.45742 5.00625,1.96875 9.61172,4.83047 13.59492,8.44805 9.79453,8.68711 15.38789,21.16054 15.35977,34.25273 z m 0,0"
     id="path38"
     inkscape:connector-curvature="0"
     style="fill:#624421;stroke-width:0.89999998" />
  <path
     d="m 370.77734,401.92695 h 92.1586 c 4.23984,0.0141 7.67109,3.44532 7.68164,7.68164 v 61.43907 c -0.0105,4.23632 -3.4418,7.66757 -7.68164,7.68164 H 270.93711 Z m 0,0"
     id="path40"
     inkscape:connector-curvature="0"
     style="fill:#fdd834;stroke-width:0.89999998" />
  <path
     d="m 247.89922,478.7293 h 191.99883 c 4.23984,0 7.67812,-3.43828 7.67812,-7.68164 v -61.43907 c 0,-4.24336 -3.43828,-7.68164 -7.67812,-7.68164 h -92.16211 z m 0,0"
     id="path42"
     inkscape:connector-curvature="0"
     style="fill:#ffeb3a;stroke-width:0.89999998" />
  <path
     d="m 232.53594,444.85977 v 33.86953 h -61.43906 v -33.86953 c -0.0105,-14.83594 7.14023,-28.76485 19.20234,-37.40274 1.23047,-0.91406 2.51367,-1.76133 3.83906,-2.53476 0.76641,-0.46055 1.61367,-0.84375 2.45742,-1.3043 l 1.76485,-0.84375 c 2.16211,-1.15313 4.75312,-1.15313 6.91172,0 l 1.76836,0.84375 c 0.84375,0.46055 1.6875,0.84375 2.45742,1.3043 14.24179,8.26171 23.01679,23.47382 23.03789,39.9375 z m 0,0"
     id="path44"
     inkscape:connector-curvature="0"
     style="fill:#624421;stroke-width:0.89999998" />
  <path
     d="m 217.17617,332.19453 v 31.33477 c -0.0105,4.23633 -3.44179,7.66758 -7.67812,7.67812 h -38.40117 c -4.23633,-0.0105 -7.66758,-3.44179 -7.67813,-7.67812 v -31.33477 c 0.0211,-17.98594 10.52227,-34.30547 26.88047,-41.77969 16.35469,7.47422 26.85586,23.79375 26.87695,41.77969 z m 0,0"
     id="path46"
     inkscape:connector-curvature="0"
     style="fill:#825a2c;stroke-width:0.89999998" />
  <path
     d="m 209.49805,444.85977 v 33.86953 h -38.40117 v -33.86953 c -0.0105,-14.83594 7.14023,-28.76485 19.20234,-37.40274 12.05859,8.63789 19.20937,22.5668 19.19883,37.40274 z m 0,0"
     id="path48"
     inkscape:connector-curvature="0"
     style="fill:#825a2c;stroke-width:0.89999998" />
  <path
     d="m 117.33594,217.60977 c 0,8.47968 -6.87656,15.35976 -15.35977,15.35976 -8.483201,0 -15.359764,-6.88008 -15.359764,-15.35976 0,-8.48321 6.876563,-15.36329 15.359764,-15.36329 8.48321,0 15.35977,6.88008 15.35977,15.36329 z m 0,0"
     id="path50"
     inkscape:connector-curvature="0"
     style="fill:#9e9e9e;stroke-width:0.89999998" />
  <path
     d="m 317.01641,217.60977 c 0,8.47968 -6.87657,15.35976 -15.35977,15.35976 -8.4832,0 -15.35976,-6.88008 -15.35976,-15.35976 0,-8.48321 6.87656,-15.36329 15.35976,-15.36329 8.4832,0 15.35977,6.88008 15.35977,15.36329 z m 0,0"
     id="path52"
     inkscape:connector-curvature="0"
     style="fill:#cbb292;stroke-width:0.89999998" />
  <path
     d="M 94.298047,340.48789 H 78.938281 c -4.243359,0 -7.68164,-3.43828 -7.68164,-7.67812 v -13.54922 c 0,-10.52227 5.948437,-20.14453 15.359765,-24.85196 9.414844,4.70743 15.359764,14.32969 15.359764,24.85196 v 13.54922 c 0,4.23984 -3.438279,7.67812 -7.678123,7.67812 z m 0,0"
     id="path54"
     inkscape:connector-curvature="0"
     style="fill:#825a2c;stroke-width:0.89999998" />
  <path
     d="M 94.298047,417.28672 H 78.938281 c -4.243359,0 -7.68164,-3.43828 -7.68164,-7.67813 v -13.5457 c 0,-10.52578 5.948437,-20.14805 15.359765,-24.85547 9.414844,4.70742 15.359764,14.32969 15.359764,24.85547 v 13.5457 c 0,4.23985 -3.438279,7.67813 -7.678123,7.67813 z m 0,0"
     id="path56"
     inkscape:connector-curvature="0"
     style="fill:#825a2c;stroke-width:0.89999998" />
  <path
     d="m 324.69805,340.48789 h -15.35977 c -4.24336,0 -7.68164,-3.43828 -7.68164,-7.67812 v -13.54922 c 0,-10.52227 5.94844,-20.14453 15.35977,-24.85196 9.41484,4.70743 15.35976,14.32969 15.35976,24.85196 v 13.54922 c 0,4.23984 -3.43828,7.67812 -7.67812,7.67812 z m 0,0"
     id="path58"
     inkscape:connector-curvature="0"
     style="fill:#7f6e5d;stroke-width:0.89999998" />
  <path
     d="m 309.33828,156.16719 h -15.35976 c -4.24336,0 -7.68164,-3.43828 -7.68164,-7.67813 v -13.54922 c 0,-10.52226 5.94843,-20.14453 15.35976,-24.85195 9.41484,4.70742 15.35977,14.32969 15.35977,24.85195 v 13.54922 c 0,4.23985 -3.43828,7.67813 -7.67813,7.67813 z m 0,0"
     id="path60"
     inkscape:connector-curvature="0"
     style="fill:#7f6e5d;stroke-width:0.89999998" />
  <path
     d="M 109.65781,156.16719 H 94.298047 c -4.243359,0 -7.681641,-3.43828 -7.681641,-7.67813 v -13.54922 c 0,-10.52226 5.948438,-20.14453 15.359764,-24.85195 9.41485,4.70742 15.35977,14.32969 15.35977,24.85195 v 13.54922 c 0,4.23985 -3.43828,7.67813 -7.67813,7.67813 z m 0,0"
     id="path62"
     inkscape:connector-curvature="0"
     style="fill:#825a2c;stroke-width:0.89999998" />
  <path
     d="m 317.01641,217.60977 c 0,8.47968 -6.87657,15.35976 -15.35977,15.35976 -8.4832,0 -15.35976,-6.88008 -15.35976,-15.35976 0,-8.48321 6.87656,-15.36329 15.35976,-15.36329 8.4832,0 15.35977,6.88008 15.35977,15.36329 z m 0,0"
     id="path64"
     inkscape:connector-curvature="0"
     style="fill:#9e9e9e;stroke-width:0.89999998" />
  <path
     d="m 324.69805,340.48789 h -15.35977 c -4.24336,0 -7.68164,-3.43828 -7.68164,-7.67812 v -13.54922 c 0,-10.52227 5.94844,-20.14453 15.35977,-24.85196 9.41484,4.70743 15.35976,14.32969 15.35976,24.85196 v 13.54922 c 0,4.23984 -3.43828,7.67812 -7.67812,7.67812 z m 0,0"
     id="path66"
     inkscape:connector-curvature="0"
     style="fill:#825a2c;stroke-width:0.89999998" />
  <path
     d="m 309.33828,156.16719 h -15.35976 c -4.24336,0 -7.68164,-3.43828 -7.68164,-7.67813 v -13.54922 c 0,-10.52226 5.94843,-20.14453 15.35976,-24.85195 9.41484,4.70742 15.35977,14.32969 15.35977,24.85195 v 13.54922 c 0,4.23985 -3.43828,7.67813 -7.67813,7.67813 z m 0,0"
     id="path68"
     inkscape:connector-curvature="0"
     style="fill:#825a2c;stroke-width:0.89999998" />
  <path
     d="m 301.65664,378.88906 h -30.71953 c -4.23633,0.0106 -7.66758,3.4418 -7.67813,7.67813 v 92.16211 h 38.39766"
     id="path70"
     inkscape:connector-curvature="0"
     style="fill:#91562d;stroke-width:0.89999998" />
  <path
     d="m 340.05781,478.7293 v -99.84024 h 23.04141 c 4.23984,0 7.67812,3.43828 7.67812,7.67813 v 92.16211"
     id="path72"
     inkscape:connector-curvature="0"
     style="fill:#91562d;stroke-width:0.89999998" />
  <path
     d="m 293.97852,478.7293 v -99.84024 h 46.07929 v 99.84024 z m 0,0"
     id="path74"
     inkscape:connector-curvature="0"
     style="fill:#fec108;stroke-width:0.89999998" />
  <path
     d="M 355.41758,486.40742 H 48.21875 c -8.479687,-0.0105 -15.349219,-6.88008 -15.359766,-15.35976 V 271.36719 c 0.01055,-8.47617 6.880079,-15.34922 15.359766,-15.35977 h 307.19883 c 8.47969,0.0105 15.34922,6.8836 15.35976,15.35977 v 107.52187 c 0,4.23985 -3.43828,7.67813 -7.67812,7.67813 -4.24336,0 -7.68164,-3.43828 -7.68164,-7.67813 V 271.36719 H 48.21875 v 199.68047 h 307.19883 c 4.24336,0 7.68164,3.43828 7.68164,7.68164 0,4.23984 -3.43828,7.67812 -7.68164,7.67812 z m 0,0"
     id="path76"
     inkscape:connector-curvature="0"
     style="stroke-width:0.89999998" />
  <path
     d="M 148.05898,271.36719 H 55.896875 c -4.239844,0 -7.678125,-3.43828 -7.678125,-7.67813 V 87.046485 c 0,-4.239844 3.438281,-7.678125 7.678125,-7.678125 h 92.162105 c 4.23985,0 7.67813,3.438281 7.67813,7.678125 V 263.68906 c 0,4.23985 -3.43828,7.67813 -7.67813,7.67813 z M 63.578516,256.00742 H 140.37734 V 94.728125 H 63.578516 Z m 0,0"
     id="path78"
     inkscape:connector-curvature="0"
     style="stroke-width:0.89999998" />
  <path
     d="m 347.73594,271.36719 h -92.1586 c -4.23984,0 -7.67812,-3.43828 -7.67812,-7.67813 V 87.046485 c 0,-4.239844 3.43828,-7.678125 7.67812,-7.678125 h 92.1586 c 4.24336,0 7.68164,3.438281 7.68164,7.678125 V 263.68906 c 0,4.23985 -3.43828,7.67813 -7.68164,7.67813 z m -84.47696,-15.35977 h 76.79883 V 94.728125 h -76.79883 z m 0,0"
     id="path80"
     inkscape:connector-curvature="0"
     style="stroke-width:0.89999998" />
  <path
     d="M 86.609375,94.728125 C 83.181641,94.721093 80.172266,92.45 79.230078,89.15586 L 71.256641,61.241796 63.286719,89.15586 c -0.75586,2.640233 -2.858203,4.675781 -5.519531,5.34375 -2.661329,0.667968 -5.477344,-0.13711 -7.389844,-2.10586 -1.908985,-1.972265 -2.619141,-4.81289 -1.866797,-7.453125 L 63.870313,31.179688 c 0.938671,-3.301172 3.955078,-5.579297 7.386328,-5.579297 3.434765,0 6.451172,2.278125 7.389843,5.579297 L 94.00625,84.940625 c 1.160156,4.078125 -1.202344,8.328516 -5.280469,9.495703 -0.689062,0.19336 -1.399218,0.291797 -2.116406,0.291797 z m 0,0"
     id="path82"
     inkscape:connector-curvature="0"
     style="stroke-width:0.89999998" />
  <path
     d="m 148.04844,94.728125 c -3.42422,-0.007 -6.4336,-2.278125 -7.3793,-5.572265 l -7.96992,-27.914064 -7.97344,27.914064 c -1.16367,4.078125 -5.41406,6.44414 -9.4957,5.280468 -4.07813,-1.163672 -6.44414,-5.414062 -5.28047,-9.495703 l 15.35977,-53.760937 c 0.93867,-3.301172 3.95507,-5.579297 7.38984,-5.579297 3.43125,0 6.44766,2.278125 7.38633,5.579297 l 15.35976,53.760937 c 1.16016,4.078125 -1.20234,8.328516 -5.28047,9.495703 -0.68906,0.19336 -1.39921,0.291797 -2.1164,0.291797 z m 0,0"
     id="path84"
     inkscape:connector-curvature="0"
     style="stroke-width:0.89999998" />
  <path
     d="m 286.28984,94.728125 c -3.42773,-0.007 -6.43711,-2.278125 -7.37929,-5.572265 l -7.97344,-27.914064 -7.97344,27.914064 c -0.75234,2.640233 -2.85469,4.675781 -5.51601,5.34375 -2.66485,0.667968 -5.48086,-0.13711 -7.38985,-2.10586 -1.90898,-1.972265 -2.61914,-4.81289 -1.86679,-7.453125 l 15.35976,-53.760937 c 0.93867,-3.301172 3.95508,-5.579297 7.38633,-5.579297 3.43477,0 6.44766,2.278125 7.38633,5.579297 l 15.36328,53.760937 c 1.16016,4.078125 -1.20234,8.328516 -5.28047,9.495703 -0.68906,0.19336 -1.40273,0.291797 -2.11641,0.291797 z m 0,0"
     id="path86"
     inkscape:connector-curvature="0"
     style="stroke-width:0.89999998" />
  <path
     d="m 347.72891,94.728125 c -3.42422,-0.007 -6.43711,-2.278125 -7.3793,-5.572265 l -7.97344,-27.914064 -7.96992,27.914064 c -0.75234,2.640233 -2.8582,4.675781 -5.51953,5.34375 -2.66133,0.667968 -5.47734,-0.13711 -7.38633,-2.10586 -1.90898,-1.972265 -2.62266,-4.81289 -1.87031,-7.453125 l 15.35976,-53.760937 c 0.93868,-3.301172 3.95508,-5.579297 7.38633,-5.579297 3.43477,0 6.45117,2.278125 7.38985,5.579297 l 15.35976,53.760937 c 1.16016,4.078125 -1.20234,8.328516 -5.28047,9.495703 -0.68906,0.19336 -1.39922,0.291797 -2.1164,0.291797 z m 0,0"
     id="path88"
     inkscape:connector-curvature="0"
     style="stroke-width:0.89999998" />
  <path
     d="m 255.57031,248.3293 c -1.65937,0 -3.27304,-0.53789 -4.59843,-1.53633 l -48.76875,-36.54844 c -0.10196,0.10547 -0.43946,-0.0211 -0.6504,-0.0211 -0.0457,-0.004 -0.0879,0.004 -0.12656,0.0211 l -48.76172,36.54844 c -3.39257,2.54531 -8.20547,1.85625 -10.75078,-1.53633 -2.54531,-3.39258 -1.85625,-8.20898 1.53633,-10.7543 l 48.76875,-36.54492 c 5.71992,-4.725 14.03086,-4.5914 19.59609,0.31289 l 48.37149,36.23203 c 2.64375,1.98633 3.72305,5.44219 2.67539,8.57813 -1.04766,3.13594 -3.9832,5.25234 -7.29141,5.24883 z m 0,0"
     id="path90"
     inkscape:connector-curvature="0"
     style="stroke-width:0.89999998" />
  <path
     d="m 232.53594,378.88906 h -61.43906 c -8.47618,-0.0141 -15.34922,-6.88359 -15.35977,-15.35976 v -31.34532 c 0.0598,-25.60429 18.11953,-47.63671 43.21758,-52.71679 l 1.36406,-0.27071 c 0.98789,-0.19335 2.00742,-0.19335 2.99883,0 l 1.35703,0.27071 c 25.09805,5.08008 43.16484,27.1125 43.22461,52.71679 v 31.34532 c -0.0141,8.47617 -6.88359,15.3457 -15.36328,15.35976 z m -30.71953,-84.32578 c -17.85235,3.68789 -30.67383,19.39219 -30.71953,37.62422 v 31.3418 h 61.45664 l -0.0176,-31.34532 c -0.0422,-18.23203 -12.86367,-33.93281 -30.71953,-37.6207 z m 0,0"
     id="path92"
     inkscape:connector-curvature="0"
     style="stroke-width:0.89999998" />
  <path
     d="M 462.93594,486.40742 H 270.93711 c -4.23984,0 -7.67813,-3.43828 -7.67813,-7.67812 0,-4.24336 3.43829,-7.68164 7.67813,-7.68164 h 191.99883 v -61.43907 h -92.1586 c -4.23984,0 -7.67812,-3.43828 -7.67812,-7.68164 0,-4.23984 3.43828,-7.67812 7.67812,-7.67812 h 92.1586 c 8.47969,0.0106 15.34922,6.88008 15.36328,15.35976 v 61.43907 c -0.0141,8.47968 -6.88359,15.34922 -15.36328,15.35976 z m 0,0"
     id="path94"
     inkscape:connector-curvature="0"
     style="stroke-width:0.89999998" />
  <path
     d="m 232.53594,486.40742 h -61.43906 c -4.23985,0 -7.67813,-3.43828 -7.67813,-7.67812 v -33.86953 c -0.0668,-20.38008 11.45391,-39.02696 29.71406,-48.08321 l 1.81407,-0.90703 c 4.33125,-2.14453 9.41132,-2.14453 13.73906,0 l 1.81758,0.90703 c 18.25664,9.05625 29.78086,27.70313 29.71406,48.08321 v 33.86953 c 0,4.23984 -3.43828,7.67812 -7.68164,7.67812 z m -53.75742,-15.35976 h 46.07929 v -26.18789 c 0.0492,-14.55821 -8.18437,-27.87539 -21.22383,-34.34414 l -1.81757,-0.90704 -1.81407,0.90704 c -13.04296,6.46523 -21.27304,19.78593 -21.22382,34.34414 z m 0,0"
     id="path96"
     inkscape:connector-curvature="0"
     style="stroke-width:0.89999998" />
  <path
     d="m 101.97617,240.64766 c -12.723045,0 -23.037889,-10.31485 -23.037889,-23.03789 0,-12.72657 10.314844,-23.04141 23.037889,-23.04141 12.72656,0 23.04141,10.31484 23.04141,23.04141 -0.0141,12.71601 -10.32188,23.02382 -23.04141,23.03789 z m 0,-30.71953 c -4.239842,0 -7.678123,3.43828 -7.678123,7.68164 0,4.23984 3.438281,7.67812 7.678123,7.67812 4.24336,0 7.68164,-3.43828 7.68164,-7.67812 -0.004,-4.24336 -3.43828,-7.67813 -7.68164,-7.68164 z m 0,0"
     id="path98"
     inkscape:connector-curvature="0"
     style="stroke-width:0.89999998" />
  <path
     d="m 301.65664,240.64766 c -12.72305,0 -23.03789,-10.31485 -23.03789,-23.03789 0,-12.72657 10.31484,-23.04141 23.03789,-23.04141 12.72656,0 23.04141,10.31484 23.04141,23.04141 -0.0141,12.71601 -10.32188,23.02382 -23.04141,23.03789 z m 0,-30.71953 c -4.23984,0 -7.67812,3.43828 -7.67812,7.68164 0,4.23984 3.43828,7.67812 7.67812,7.67812 4.24336,0 7.68164,-3.43828 7.68164,-7.67812 -0.004,-4.24336 -3.4418,-7.67813 -7.68164,-7.68164 z m 0,0"
     id="path100"
     inkscape:connector-curvature="0"
     style="stroke-width:0.89999998" />
  <path
     d="m 201.81641,209.92813 c -4.23985,0 -7.67813,-3.43829 -7.67813,-7.68165 v -38.39765 c 0,-4.24336 3.43828,-7.68164 7.67813,-7.68164 4.24336,0 7.68164,3.43828 7.68164,7.68164 v 38.39765 c 0,4.24336 -3.43828,7.68165 -7.68164,7.68165 z m 0,0"
     id="path102"
     inkscape:connector-curvature="0"
     style="stroke-width:0.89999998" />
  <path
     d="m 217.17617,186.88672 h -30.71953 c -4.23984,0 -7.67812,-3.43828 -7.67812,-7.67813 0,-4.24336 3.43828,-7.68164 7.67812,-7.68164 h 30.71953 c 4.24336,0 7.68164,3.43828 7.68164,7.68164 0,4.23985 -3.43828,7.67813 -7.68164,7.67813 z m 0,0"
     id="path104"
     inkscape:connector-curvature="0"
     style="stroke-width:0.89999998" />
  <path
     d="m 201.81641,486.40742 c -4.23985,0 -7.67813,-3.43828 -7.67813,-7.67812 v -76.80235 c 0,-4.23984 3.43828,-7.67812 7.67813,-7.67812 4.24336,0 7.68164,3.43828 7.68164,7.67812 v 76.80235 c 0,4.23984 -3.43828,7.67812 -7.68164,7.67812 z m 0,0"
     id="path106"
     inkscape:connector-curvature="0"
     style="stroke-width:0.89999998" />
  <path
     d="M 270.93711,486.40742 H 132.69922 c -4.24336,0 -7.68164,-3.43828 -7.68164,-7.67812 V 263.68906 c 0,-4.24336 3.43828,-7.68164 7.68164,-7.68164 h 138.23789 c 4.24336,0 7.68164,3.43828 7.68164,7.68164 v 115.2 c 0,4.23985 -3.43828,7.67813 -7.68164,7.67813 -4.23984,0 -7.67813,-3.43828 -7.67813,-7.67813 V 271.36719 H 140.37734 v 199.68047 h 130.55977 c 4.24336,0 7.68164,3.43828 7.68164,7.68164 0,4.23984 -3.43828,7.67812 -7.68164,7.67812 z m 0,0"
     id="path108"
     inkscape:connector-curvature="0"
     style="stroke-width:0.89999998" />
  <path
     d="M 94.298047,348.16953 H 78.938281 c -8.479687,-0.0141 -15.349218,-6.88359 -15.359765,-15.35976 v -13.54571 c -0.04219,-13.44726 7.558593,-25.74843 19.603125,-31.725 2.162109,-1.08281 4.707422,-1.08281 6.869531,0 12.044528,5.97657 19.648828,18.27774 19.606638,31.725 v 13.54571 c -0.0105,8.47617 -6.88008,15.3457 -15.359763,15.35976 z m -7.681641,-44.72226 c -4.865625,3.8039 -7.699218,9.64336 -7.678125,15.82031 v 13.54219 h 15.373828 l -0.01406,-13.54571 c 0.02109,-6.17695 -2.816016,-12.0164 -7.681641,-15.81679 z m 0,0"
     id="path110"
     inkscape:connector-curvature="0"
     style="stroke-width:0.89999998" />
  <path
     d="M 94.298047,424.96836 H 78.938281 c -8.479687,-0.0106 -15.349218,-6.88359 -15.359765,-15.35977 v -13.5457 c -0.04219,-13.44726 7.558593,-25.74844 19.603125,-31.725 2.162109,-1.0793 4.707422,-1.0793 6.869531,0 12.044528,5.97656 19.648828,18.27774 19.606638,31.725 v 13.5457 c -0.0105,8.47618 -6.88008,15.34922 -15.359763,15.35977 z m -7.681641,-44.72227 c -4.865625,3.80391 -7.699218,9.64336 -7.678125,15.82032 v 13.54218 h 15.373828 l -0.01406,-13.5457 c 0.02109,-6.17695 -2.816016,-12.01289 -7.681641,-15.8168 z m 0,0"
     id="path112"
     inkscape:connector-curvature="0"
     style="stroke-width:0.89999998" />
  <path
     d="m 324.69805,348.16953 h -15.35977 c -8.47969,-0.0141 -15.34922,-6.88359 -15.35976,-15.35976 v -13.54571 c -0.0422,-13.44726 7.55859,-25.74843 19.60312,-31.725 2.16211,-1.08281 4.70742,-1.08281 6.86953,0 12.04453,5.97657 19.64883,18.27774 19.60664,31.725 v 13.54571 c -0.0105,8.47617 -6.88008,15.3457 -15.35976,15.35976 z m -7.68164,-44.72226 c -4.86563,3.8039 -7.69922,9.64336 -7.67813,15.82031 v 13.54219 h 15.37383 l -0.0141,-13.54571 c 0.0211,-6.17695 -2.81602,-12.0164 -7.68164,-15.81679 z m 0,0"
     id="path114"
     inkscape:connector-curvature="0"
     style="stroke-width:0.89999998" />
  <path
     d="m 309.33828,163.84883 h -15.35976 c -8.47969,-0.0105 -15.34922,-6.8836 -15.35977,-15.35977 v -13.5457 c -0.0422,-13.44727 7.55859,-25.74844 19.60313,-31.725 2.1621,-1.0793 4.70742,-1.0793 6.86953,0 12.04453,5.97656 19.64882,18.27773 19.60664,31.725 v 13.5457 c -0.0106,8.47617 -6.8836,15.34922 -15.35977,15.35977 z m -7.68164,-44.72227 c -4.86562,3.80391 -7.70273,9.64336 -7.67812,15.82032 v 13.54218 h 15.37382 l -0.0141,-13.5457 c 0.0211,-6.17695 -2.81601,-12.01641 -7.68164,-15.8168 z m 0,0"
     id="path116"
     inkscape:connector-curvature="0"
     style="stroke-width:0.89999998" />
  <path
     d="M 109.65781,163.84883 H 94.298047 c -8.479688,-0.0105 -15.349219,-6.8836 -15.359766,-15.35977 v -13.5457 c -0.04219,-13.44727 7.558594,-25.74844 19.603125,-31.725 2.162114,-1.0793 4.707424,-1.0793 6.873044,0 12.04453,5.97656 19.64532,18.27773 19.60313,31.725 v 13.5457 c -0.0105,8.47617 -6.88008,15.34922 -15.35977,15.35977 z m -7.68164,-44.72227 c -4.865623,3.80391 -7.699217,9.64336 -7.678123,15.82032 v 13.54218 h 15.373833 l -0.0141,-13.5457 c 0.0211,-6.17695 -2.8125,-12.01641 -7.68164,-15.8168 z m 0,0"
     id="path118"
     inkscape:connector-curvature="0"
     style="stroke-width:0.89999998" />
  <path
     d="M 148.05898,186.88672 H 55.896875 c -4.239844,0 -7.678125,-3.43828 -7.678125,-7.67813 0,-4.24336 3.438281,-7.68164 7.678125,-7.68164 h 92.162105 c 4.23985,0 7.67813,3.43828 7.67813,7.68164 0,4.23985 -3.43828,7.67813 -7.67813,7.67813 z m 0,0"
     id="path120"
     inkscape:connector-curvature="0"
     style="stroke-width:0.89999998" />
  <path
     d="m 347.73594,186.88672 h -92.1586 c -4.23984,0 -7.67812,-3.43828 -7.67812,-7.67813 0,-4.24336 3.43828,-7.68164 7.67812,-7.68164 h 92.1586 c 4.24336,0 7.68164,3.43828 7.68164,7.68164 0,4.23985 -3.43828,7.67813 -7.68164,7.67813 z m 0,0"
     id="path122"
     inkscape:connector-curvature="0"
     style="stroke-width:0.89999998" />
  <path
     d="m 325.77383,64.008593 h -48.23086 c -4.24336,0 -7.68164,-3.43828 -7.68164,-7.68164 0,-4.239843 3.43828,-7.678125 7.68164,-7.678125 h 48.23086 c 4.23984,0 7.67812,3.438282 7.67812,7.678125 0,4.24336 -3.43828,7.68164 -7.67812,7.68164 z m 0,0"
     id="path124"
     inkscape:connector-curvature="0"
     style="stroke-width:0.89999998" />
  <path
     d="M 126.09336,64.008593 H 77.8625 c -4.239844,0 -7.681641,-3.43828 -7.681641,-7.68164 0,-4.239843 3.441797,-7.678125 7.681641,-7.678125 h 48.23086 c 4.23984,0 7.67812,3.438282 7.67812,7.678125 0,4.24336 -3.43828,7.68164 -7.67812,7.68164 z m 0,0"
     id="path126"
     inkscape:connector-curvature="0"
     style="stroke-width:0.89999998" />
  <path
     d="M 55.896875,271.36719 H 32.858984 c -4.243359,0 -7.68164,-3.43828 -7.68164,-7.67813 0,-4.24336 3.438281,-7.68164 7.68164,-7.68164 h 23.037891 c 4.243359,0 7.681641,3.43828 7.681641,7.68164 0,4.23985 -3.438282,7.67813 -7.681641,7.67813 z m 0,0"
     id="path128"
     inkscape:connector-curvature="0"
     style="stroke-width:0.89999998" />
  <path
     d="m 370.77734,271.36719 h -23.0414 c -4.23985,0 -7.67813,-3.43828 -7.67813,-7.67813 0,-4.24336 3.43828,-7.68164 7.67813,-7.68164 h 23.0414 c 4.24336,0 7.68164,3.43828 7.68164,7.68164 0,4.23985 -3.43828,7.67813 -7.68164,7.67813 z m 0,0"
     id="path130"
     inkscape:connector-curvature="0"
     style="stroke-width:0.89999998" />
  <path
     d="M 140.37734,448.00977 H 32.858984 c -4.243359,0 -7.68164,-3.4418 -7.68164,-7.68164 0,-4.24336 3.438281,-7.68165 7.68164,-7.68165 H 140.37734 c 4.24336,0 7.68164,3.43829 7.68164,7.68165 0,4.23984 -3.43828,7.68164 -7.68164,7.68164 z m 0,0"
     id="path132"
     inkscape:connector-curvature="0"
     style="stroke-width:0.89999998" />
  <path
     d="m 370.77734,486.40742 c -4.23984,0 -7.67812,-3.43828 -7.67812,-7.67812 v -92.16211 h -15.36328 v 92.16211 c 0,4.23984 -3.43828,7.67812 -7.67813,7.67812 -4.24336,0 -7.68164,-3.43828 -7.68164,-7.67812 v -99.84024 c 0,-4.24336 3.43828,-7.68164 7.68164,-7.68164 h 23.04141 c 8.47617,0.0105 15.3457,6.8836 15.35976,15.35977 v 92.16211 c 0,4.23984 -3.43828,7.67812 -7.68164,7.67812 z m 0,0"
     id="path134"
     inkscape:connector-curvature="0"
     style="stroke-width:0.89999998" />
  <path
     d="m 263.25898,478.7293 c -4.24335,0 -7.68164,-3.43828 -7.68164,-7.68164 v -84.48047 c 0.0105,-8.47617 6.8836,-15.34922 15.35977,-15.35977 h 30.71953 c 4.24336,0 7.68164,3.43828 7.68164,7.68164 0,4.23985 -3.43828,7.67813 -7.68164,7.67813 h -30.71953 v 84.48047 c 0,4.24336 -3.43828,7.68164 -7.67813,7.68164 z m 0,0"
     id="path136"
     inkscape:connector-curvature="0"
     style="stroke-width:0.89999998" />
  <path
     d="m 293.97852,486.40742 c -4.24336,0 -7.68164,-3.43828 -7.68164,-7.67812 v -99.84024 c 0,-4.24336 3.43828,-7.68164 7.68164,-7.68164 h 46.07929 c 4.23985,0 7.67813,3.43828 7.67813,7.68164 v 92.1586 c 0,4.24336 -3.43828,7.68164 -7.67813,7.68164 -4.24336,0 -7.68164,-3.43828 -7.68164,-7.68164 v -84.48047 h -30.71953 v 92.16211 c 0,4.23984 -3.43828,7.67812 -7.67812,7.67812 z m 0,0"
     id="path138"
     inkscape:connector-curvature="0"
     style="stroke-width:0.89999998" />
  <path
     d="m 401.49688,455.68789 c -4.23985,0 -7.67813,-3.43828 -7.67813,-7.67812 v -15.36329 c 0,-4.23984 3.43828,-7.67812 7.67813,-7.67812 4.24335,0 7.68164,3.43828 7.68164,7.67812 v 15.36329 c 0,4.23984 -3.43829,7.67812 -7.68164,7.67812 z m 0,0"
     id="path140"
     inkscape:connector-curvature="0"
     style="stroke-width:0.89999998" />
  <path
     d="m 439.89805,455.68789 c -4.24336,0 -7.68164,-3.43828 -7.68164,-7.67812 v -15.36329 c 0,-4.23984 3.43828,-7.67812 7.68164,-7.67812 4.23984,0 7.67812,3.43828 7.67812,7.67812 v 15.36329 c 0,4.23984 -3.43828,7.67812 -7.67812,7.67812 z m 0,0"
     id="path142"
     inkscape:connector-curvature="0"
     style="stroke-width:0.89999998" />
  <path
     d="m 186.45664,378.88906 c -4.23984,0 -7.67812,-3.43828 -7.67812,-7.68164 v -76.79883 c 0,-4.24336 3.43828,-7.68164 7.67812,-7.68164 4.24336,0 7.68164,3.43828 7.68164,7.68164 v 76.79883 c 0,4.24336 -3.43828,7.68164 -7.68164,7.68164 z m 0,0"
     id="path144"
     inkscape:connector-curvature="0"
     style="stroke-width:0.89999998" />
  <path
     d="m 217.17617,378.88906 c -4.23984,0 -7.67812,-3.43828 -7.67812,-7.68164 v -76.79883 c 0,-4.24336 3.43828,-7.68164 7.67812,-7.68164 4.24336,0 7.68164,3.43828 7.68164,7.68164 v 76.79883 c 0,4.24336 -3.43828,7.68164 -7.68164,7.68164 z m 0,0"
     id="path146"
     inkscape:connector-curvature="0"
     style="stroke-width:0.89999998" />
</svg>
