<?xml version="1.0" encoding="UTF-8" standalone="no"?>
<!-- Generator: Adobe Illustrator 19.0.0, SVG Export Plug-In . SVG Version: 6.00 Build 0)  -->

<svg
   xmlns:dc="http://purl.org/dc/elements/1.1/"
   xmlns:cc="http://creativecommons.org/ns#"
   xmlns:rdf="http://www.w3.org/1999/02/22-rdf-syntax-ns#"
   xmlns:svg="http://www.w3.org/2000/svg"
   xmlns="http://www.w3.org/2000/svg"
   xmlns:xlink="http://www.w3.org/1999/xlink"
   xmlns:sodipodi="http://sodipodi.sourceforge.net/DTD/sodipodi-0.dtd"
   xmlns:inkscape="http://www.inkscape.org/namespaces/inkscape"
   version="1.1"
   id="Capa_1"
   x="0px"
   y="0px"
   viewBox="0 0 448 448"
   style="enable-background:new 0 0 448 448;"
   xml:space="preserve"
   sodipodi:docname="whisky.svg"
   inkscape:version="0.92.4 (5da689c313, 2019-01-14)"><metadata
   id="metadata61"><rdf:RDF><cc:Work
       rdf:about=""><dc:format>image/svg+xml</dc:format><dc:type
         rdf:resource="http://purl.org/dc/dcmitype/StillImage" /></cc:Work></rdf:RDF></metadata><defs
   id="defs59"><linearGradient
     inkscape:collect="always"
     id="linearGradient907"><stop
       style="stop-color:#ffcc00;stop-opacity:1;"
       offset="0"
       id="stop903" /><stop
       style="stop-color:#ffcc00;stop-opacity:0;"
       offset="1"
       id="stop905" /></linearGradient><linearGradient
     inkscape:collect="always"
     id="linearGradient891"><stop
       style="stop-color:#a05a2c;stop-opacity:1;"
       offset="0"
       id="stop887" /><stop
       style="stop-color:#a05a2c;stop-opacity:0;"
       offset="1"
       id="stop889" /></linearGradient><linearGradient
     inkscape:collect="always"
     xlink:href="#linearGradient891"
     id="linearGradient893"
     x1="32"
     y1="224"
     x2="188.20338"
     y2="0"
     gradientUnits="userSpaceOnUse" /><linearGradient
     inkscape:collect="always"
     xlink:href="#linearGradient907"
     id="linearGradient909"
     x1="319.72882"
     y1="434.16949"
     x2="400"
     y2="352"
     gradientUnits="userSpaceOnUse" /></defs><sodipodi:namedview
   pagecolor="#ffffff"
   bordercolor="#666666"
   borderopacity="1"
   objecttolerance="10"
   gridtolerance="10"
   guidetolerance="10"
   inkscape:pageopacity="0"
   inkscape:pageshadow="2"
   inkscape:window-width="1920"
   inkscape:window-height="986"
   id="namedview57"
   showgrid="false"
   inkscape:zoom="0.7449875"
   inkscape:cx="608.77843"
   inkscape:cy="157.06113"
   inkscape:window-x="-11"
   inkscape:window-y="-11"
   inkscape:window-maximized="1"
   inkscape:current-layer="Capa_1" />
<rect
   style="fill:#f9f9f9;fill-rule:evenodd;stroke-width:1.10000002"
   id="rect846"
   width="47.249111"
   height="51.678722"
   x="-45.220215"
   y="447.46704"
   transform="rotate(-45)" /><path
   style="fill:url(#linearGradient893);fill-opacity:1"
   d="M 151.944,163.44 C 157.016,153.288 156,141.112 156,128 156,109.12 153.752,92.328 144,80.608 V 0 H 80 V 80.608 C 70.248,92.32 68,109.12 68,128 c 0,13.112 -1.016,25.288 4.056,35.44 C 48.168,177.272 32,202.92 32,232.512 V 432 c 0,8.832 7.16,16 16,16 h 128 c 8.84,0 16,-7.168 16,-16 V 232.512 c 0,-29.592 -16.168,-55.24 -40.056,-69.072 z"
   id="path2"
   inkscape:connector-curvature="0"
   sodipodi:nodetypes="csccccscssssssc" />
<g
   id="g10">
	<path
   style="fill:#010101"
   d="M 151.944,163.44 C 157.016,153.288 158,141.112 158,128 158,109.12 153.752,92.328 144,80.608 V 0 H 80 V 80.608 C 70.248,92.32 66,109.12 66,128 c 0,13.112 0.984,25.288 6.056,35.44 C 48.168,177.272 32,202.92 32,232.512 V 432 c 0,8.832 7.16,16 16,16 h 128 c 8.84,0 16,-7.168 16,-16 V 232.512 c 0,-29.592 -16.168,-55.24 -40.056,-69.072 z M 96,16 h 32 V 32 H 96 Z m 80,416 H 48 V 232.512 c 0,-39 29.096,-53.496 45.104,-62.76 C 85.36,154.272 82,145.84 82,128 82,109.328 86.08,98.32 96,86.4 V 48 h 32 v 38.4 c 9.92,11.92 14,22.928 14,41.6 0,17.84 -3.36,26.272 -11.104,41.744 16,9.264 45.104,23.752 45.104,62.76 z"
   id="path4"
   inkscape:connector-curvature="0"
   sodipodi:nodetypes="csccccscssssssccccccccscsccccscsc" />
	<path
   style="fill:#010101;"
   d="M32,400h160V256H32V400z M48,272h128v112H48V272z"
   id="path6" />
	<path
   style="fill:#010101;"
   d="M224,256v192h192V256H224z M400,432H240v-64h41.528l27.424,27.424   C312.008,398.472,316.008,400,320,400c4,0,8-1.528,11.048-4.576L358.472,368H400V432z M351.848,352h-63.696l31.832-31.848   l32.128,31.584L351.848,352z M336.112,368l-15.84,16.112L303.888,368H336.112z M400,352h-32c0-4-1.528-8-4.576-11.048   l-32.392-32.376c-3.056-3.048-7.056-4.576-11.048-4.576c-4,0-8,1.528-11.048,4.576l-32.36,32.376C273.528,344.008,272,348,272,352   h-32v-80h160V352z"
   id="path8" />
</g>
<rect
   x="48"
   y="272"
   style="fill:#fff6d5"
   width="128"
   height="112"
   id="rect12" />
<rect
   x="96"
   y="16"
   style="fill:#AA7135;"
   width="32"
   height="16"
   id="rect14" />
<path
   style="fill:url(#linearGradient909);stroke:none;stroke-opacity:1;fill-opacity:1"
   d="M400,432H240v-64h41.528l27.424,27.424C312.008,398.472,316.008,400,320,400  c4,0,8-1.528,11.048-4.576L358.472,368H400V432z"
   id="path16" />
<path
   style="fill:#CDDBED;"
   d="M400,352h-32c0-4-1.528-8-4.576-11.048l-32.392-32.376c-3.056-3.048-7.056-4.576-11.048-4.576  c-4,0-8,1.528-11.048,4.576l-32.36,32.376C273.528,344.008,272,348,272,352h-32v-80h160V352z"
   id="path18" />
<g
   id="g24">
	<rect
   x="80"
   y="304"
   style="fill:#010101;"
   width="64"
   height="16"
   id="rect20" />
	<rect
   x="80"
   y="336"
   style="fill:#010101;"
   width="64"
   height="16"
   id="rect22" />
</g>
<g
   id="g26">
</g>
<g
   id="g28">
</g>
<g
   id="g30">
</g>
<g
   id="g32">
</g>
<g
   id="g34">
</g>
<g
   id="g36">
</g>
<g
   id="g38">
</g>
<g
   id="g40">
</g>
<g
   id="g42">
</g>
<g
   id="g44">
</g>
<g
   id="g46">
</g>
<g
   id="g48">
</g>
<g
   id="g50">
</g>
<g
   id="g52">
</g>
<g
   id="g54">
</g>
</svg>