<?xml version="1.0" encoding="UTF-8" standalone="no"?>
<!-- Generator: Adobe Illustrator 16.0.0, SVG Export Plug-In . SVG Version: 6.00 Build 0)  -->

<svg
   xmlns:dc="http://purl.org/dc/elements/1.1/"
   xmlns:cc="http://creativecommons.org/ns#"
   xmlns:rdf="http://www.w3.org/1999/02/22-rdf-syntax-ns#"
   xmlns:svg="http://www.w3.org/2000/svg"
   xmlns="http://www.w3.org/2000/svg"
   xmlns:sodipodi="http://sodipodi.sourceforge.net/DTD/sodipodi-0.dtd"
   xmlns:inkscape="http://www.inkscape.org/namespaces/inkscape"
   version="1.1"
   id="Capa_1"
   x="0px"
   y="0px"
   width="88.001px"
   height="88.001px"
   viewBox="0 0 88.001 88.001"
   style="enable-background:new 0 0 88.001 88.001;"
   xml:space="preserve"
   sodipodi:docname="wuhan_metro.svg"
   inkscape:version="0.92.4 (5da689c313, 2019-01-14)"><metadata
   id="metadata51"><rdf:RDF><cc:Work
       rdf:about=""><dc:format>image/svg+xml</dc:format><dc:type
         rdf:resource="http://purl.org/dc/dcmitype/StillImage" /><dc:title></dc:title></cc:Work></rdf:RDF></metadata><defs
   id="defs49">
	

		
		
		
		
		
	</defs><sodipodi:namedview
   pagecolor="#ffffff"
   bordercolor="#666666"
   borderopacity="1"
   objecttolerance="10"
   gridtolerance="10"
   guidetolerance="10"
   inkscape:pageopacity="0"
   inkscape:pageshadow="2"
   inkscape:window-width="1920"
   inkscape:window-height="986"
   id="namedview47"
   showgrid="false"
   inkscape:zoom="7.5852411"
   inkscape:cx="34.152693"
   inkscape:cy="40.46004"
   inkscape:window-x="-11"
   inkscape:window-y="-11"
   inkscape:window-maximized="1"
   inkscape:current-layer="Capa_1" />
<path
   style="fill:#fc0000;fill-opacity:1;stroke:#000000;stroke-width:3.20000005;stroke-linecap:round;stroke-linejoin:round;stroke-miterlimit:4;stroke-dasharray:none;stroke-opacity:1;paint-order:markers fill stroke"
   d="m 19.814936,48.471588 c 0.03586,-2.264319 -0.01195,-4.534618 0.02818,-6.799789 -0.01196,-3.429779 0.02391,-6.858705 0.01195,-10.287629 0.04611,-2.14564 -0.01623,-4.294696 0.03586,-6.440335 5.518213,11.203773 11.060332,22.394741 16.580253,33.598514 5.017023,0.0017 10.035754,0 15.054483,0 5.522482,-11.20719 11.068017,-22.406693 16.590499,-33.613884 0.01964,6.631592 0.03586,13.261471 0.04954,19.892208 0.02988,2.122585 -0.01281,4.244318 0.02477,6.366904 -0.006,2.342872 0.0017,4.68489 0.01367,7.027761 4.400566,0 8.801989,0 13.20341,0 0.0017,-17.929284 0.0017,-35.857712 0,-53.7887017 -2.863699,0.00174 -5.730813,-0.023904 -8.597927,-0.028172 -0.654878,-0.00679 -1.309753,0.02561 -1.960362,-0.042691 H 60.852748 C 55.236346,18.623889 49.617382,32.892008 43.99842,47.160127 38.382019,32.892008 32.764763,18.623889 27.144092,4.35577 H 14.647641 C 12.905002,4.4624965 11.153825,4.38138 9.4069173,4.42578 8.4694273,4.42917 7.5353525,4.426634 6.5978625,4.42835 v 53.788695 c 4.4014215,0 8.8028455,0.0017 13.2017035,0 -0.0087,-3.249624 0.02818,-6.500101 0.01538,-9.745457 z"
   id="path2"
   inkscape:connector-curvature="0" /><path
   style="fill:#0f00a3;fill-opacity:1;stroke:#000000;stroke-width:3.20000005;stroke-linecap:round;stroke-linejoin:round;stroke-miterlimit:4;stroke-dasharray:none;stroke-opacity:1;paint-order:markers fill stroke"
   d="m 66.177499,72.549051 c 5.077678,0.01029 10.155355,-0.02133 15.230472,-0.01452 0,-3.050705 0,-6.101409 0,-9.152968 -4.39889,0.0026 -8.800341,0.0026 -13.199229,0 -0.04013,2.132847 -0.05294,4.267401 -0.08965,6.401956 C 62.64268,67.635302 57.16456,65.491356 51.68644,63.341433 c -0.09478,-0.03843 -0.189548,-0.05635 -0.289445,-0.05806 -4.733587,0 -9.466321,0 -14.198203,0 -0.289444,0.01707 -0.595112,-0.05037 -0.871752,0.05806 -5.484096,2.311295 -10.965631,4.629422 -16.449728,6.940717 -0.0222,-2.299343 -0.06233,-4.601246 -0.07685,-6.900587 -4.400598,0.0026 -8.802049,0 -13.2034997,0.0026 v 9.319464 c 4.9026447,-0.01029 9.8027267,0.01792 14.7053727,0.01452 1.903169,0.0077 3.808899,-0.01452 5.712921,0.01452 0.09221,-0.0068 0.178448,-0.02988 0.259561,-0.07513 5.57204,-2.787728 11.147497,-5.572894 16.719536,-8.359769 5.441407,2.66307 10.881104,5.332971 16.32251,7.997749 0.217725,0.09649 0.420934,0.250169 0.660857,0.265538 1.734968,0.01622 3.467372,-0.0222 5.199775,-0.01195 z"
   id="path4"
   inkscape:connector-curvature="0" /><g
   transform="matrix(0.85011824,0,0,0.85011824,6.5921739,9.59483)"
   style="fill:#0f00a3;fill-opacity:1;stroke:#000000;stroke-width:3.76418233;stroke-linecap:round;stroke-linejoin:round;stroke-miterlimit:4;stroke-dasharray:none;stroke-opacity:1;paint-order:markers fill stroke"
   id="g867"><path
     inkscape:connector-curvature="0"
     id="path6"
     d="m 0.001,87.104 h 23.077 c 0,-2.436 0,-4.867 0.002,-7.303 -7.693,0.003 -15.386,0 -23.08,0.003 z"
     style="fill:#0f00a3;fill-opacity:1;stroke:#000000;stroke-width:3.76418233;stroke-linecap:round;stroke-linejoin:round;stroke-miterlimit:4;stroke-dasharray:none;stroke-opacity:1;paint-order:markers fill stroke" /><path
     inkscape:connector-curvature="0"
     id="path8"
     d="M 32.254,87.104 H 55.35 c 0,-2.436 0,-4.867 0,-7.303 -7.697,0.003 -15.397,0.003 -23.096,0 0,2.436 0,4.868 0,7.303 z"
     style="fill:#0f00a3;fill-opacity:1;stroke:#000000;stroke-width:3.76418233;stroke-linecap:round;stroke-linejoin:round;stroke-miterlimit:4;stroke-dasharray:none;stroke-opacity:1;paint-order:markers fill stroke" /><path
     inkscape:connector-curvature="0"
     id="path10"
     d="m 64.921,79.802 c 0.002,2.437 0,4.867 0.002,7.304 h 23.078 v -7.3 c -7.692,-0.004 -15.386,0 -23.08,-0.004 z"
     style="fill:#0f00a3;fill-opacity:1;stroke:#000000;stroke-width:3.76418233;stroke-linecap:round;stroke-linejoin:round;stroke-miterlimit:4;stroke-dasharray:none;stroke-opacity:1;paint-order:markers fill stroke" /></g>
<g
   id="g16"
   transform="matrix(0.90513549,0,0,0.90513549,5.5301394,5.1702776)"
   style="stroke-width:3.53538227;stroke-miterlimit:4;stroke-dasharray:none">
</g>
<g
   id="g18"
   transform="matrix(0.90513549,0,0,0.90513549,5.5301394,5.1702776)"
   style="stroke-width:3.53538227;stroke-miterlimit:4;stroke-dasharray:none">
</g>
<g
   id="g20"
   transform="matrix(0.90513549,0,0,0.90513549,5.5301394,5.1702776)"
   style="stroke-width:3.53538227;stroke-miterlimit:4;stroke-dasharray:none">
</g>
<g
   id="g22"
   transform="matrix(0.90513549,0,0,0.90513549,5.5301394,5.1702776)"
   style="stroke-width:3.53538227;stroke-miterlimit:4;stroke-dasharray:none">
</g>
<g
   id="g24"
   transform="matrix(0.90513549,0,0,0.90513549,5.5301394,5.1702776)"
   style="stroke-width:3.53538227;stroke-miterlimit:4;stroke-dasharray:none">
</g>
<g
   id="g26"
   transform="matrix(0.90513549,0,0,0.90513549,5.5301394,5.1702776)"
   style="stroke-width:3.53538227;stroke-miterlimit:4;stroke-dasharray:none">
</g>
<g
   id="g28"
   transform="matrix(0.90513549,0,0,0.90513549,5.5301394,5.1702776)"
   style="stroke-width:3.53538227;stroke-miterlimit:4;stroke-dasharray:none">
</g>
<g
   id="g30"
   transform="matrix(0.90513549,0,0,0.90513549,5.5301394,5.1702776)"
   style="stroke-width:3.53538227;stroke-miterlimit:4;stroke-dasharray:none">
</g>
<g
   id="g32"
   transform="matrix(0.90513549,0,0,0.90513549,5.5301394,5.1702776)"
   style="stroke-width:3.53538227;stroke-miterlimit:4;stroke-dasharray:none">
</g>
<g
   id="g34"
   transform="matrix(0.90513549,0,0,0.90513549,5.5301394,5.1702776)"
   style="stroke-width:3.53538227;stroke-miterlimit:4;stroke-dasharray:none">
</g>
<g
   id="g36"
   transform="matrix(0.90513549,0,0,0.90513549,5.5301394,5.1702776)"
   style="stroke-width:3.53538227;stroke-miterlimit:4;stroke-dasharray:none">
</g>
<g
   id="g38"
   transform="matrix(0.90513549,0,0,0.90513549,5.5301394,5.1702776)"
   style="stroke-width:3.53538227;stroke-miterlimit:4;stroke-dasharray:none">
</g>
<g
   id="g40"
   transform="matrix(0.90513549,0,0,0.90513549,5.5301394,5.1702776)"
   style="stroke-width:3.53538227;stroke-miterlimit:4;stroke-dasharray:none">
</g>
<g
   id="g42"
   transform="matrix(0.90513549,0,0,0.90513549,5.5301394,5.1702776)"
   style="stroke-width:3.53538227;stroke-miterlimit:4;stroke-dasharray:none">
</g>
<g
   id="g44"
   transform="matrix(0.90513549,0,0,0.90513549,5.5301394,5.1702776)"
   style="stroke-width:3.53538227;stroke-miterlimit:4;stroke-dasharray:none">
</g>
</svg>