<?xml version="1.0" encoding="UTF-8" standalone="no"?>
<svg
   xmlns:dc="http://purl.org/dc/elements/1.1/"
   xmlns:cc="http://creativecommons.org/ns#"
   xmlns:rdf="http://www.w3.org/1999/02/22-rdf-syntax-ns#"
   xmlns:svg="http://www.w3.org/2000/svg"
   xmlns="http://www.w3.org/2000/svg"
   xmlns:sodipodi="http://sodipodi.sourceforge.net/DTD/sodipodi-0.dtd"
   xmlns:inkscape="http://www.inkscape.org/namespaces/inkscape"
   id="Capa_1"
   enable-background="new 0 0 512 512"
   height="512"
   viewBox="0 0 512 512"
   width="512"
   version="1.1"
   sodipodi:docname="wuhan_bridge.svg"
   inkscape:version="0.92.4 (5da689c313, 2019-01-14)">
  <metadata
     id="metadata17">
    <rdf:RDF>
      <cc:Work
         rdf:about="">
        <dc:format>image/svg+xml</dc:format>
        <dc:type
           rdf:resource="http://purl.org/dc/dcmitype/StillImage" />
        <dc:title></dc:title>
      </cc:Work>
    </rdf:RDF>
  </metadata>
  <defs
     id="defs15" />
  <sodipodi:namedview
     pagecolor="#ffffff"
     bordercolor="#666666"
     borderopacity="1"
     objecttolerance="10"
     gridtolerance="10"
     guidetolerance="10"
     inkscape:pageopacity="0"
     inkscape:pageshadow="2"
     inkscape:window-width="1920"
     inkscape:window-height="986"
     id="namedview13"
     showgrid="false"
     inkscape:zoom="0.921875"
     inkscape:cx="221.40403"
     inkscape:cy="291.58507"
     inkscape:window-x="-11"
     inkscape:window-y="-11"
     inkscape:window-maximized="1"
     inkscape:current-layer="Capa_1" />
  <path
     id="XMLID_854_-5-0"
     d="m 566.18568,107.65991 c 0.002,0 0.003,0 0.006,0.01 L 465.59504,249.6989 c -2.19104,3.094 -6.24068,5 -10.624,5 H 52.583888 c -4.383321,0 -8.432954,-1.906 -10.624001,-5 L -63.544055,95.67091 h 0.0086 c -1.045226,-1.472 0,1.823 0,0 58.2319313,-0.01 0,0 639.535455,-2.004002 z m -31.86587,5.006 H 375.62226 l 79.34878,112.02899 z m -381.13912,10 L 73.831907,234.6949 H 232.52948 Z M 253.77747,224.6949 333.12625,112.66691 H 174.42869 Z m 21.24801,10 H 433.72303 L 354.37425,122.66591 Z m -222.441592,-10 79.348802,-112.02799 H -26.76489 Z"
     inkscape:connector-curvature="0"
     sodipodi:nodetypes="cccsscccccccccccccccccccccccccc"
     style="stroke-width:1.1076057" />
  <rect
     style="fill:#87cdde;fill-rule:evenodd;stroke-width:1.29770374"
     id="rect901"
     width="538.45581"
     height="118.57211"
     x="-13.227905"
     y="390.52463" />
  <path
     id="XMLID_1412_"
     d="M -45.790353,233.5912 H 557.79035 v 44 H -45.790353 Z"
     inkscape:connector-curvature="0"
     style="fill:#89a02c;stroke-width:1.1076057" />
  <path
     id="XMLID_1411_"
     d="M 42.456308,317.7182 H 91.527907 V 460.22058 H 42.456308 Z"
     inkscape:connector-curvature="0"
     style="fill:#c8b7b7;stroke-width:1.05240655" />
  <path
     id="XMLID_1409_"
     d="m 17.920507,317.7182 v -40 h 98.143213 v 40 z"
     inkscape:connector-curvature="0"
     style="fill:#e1e3e9;stroke-width:1.1076057" />
  <path
     id="XMLID_1408_"
     d="m 231.46419,317.7182 h 49.0716 v 141.73535 h -49.0716 z"
     inkscape:connector-curvature="0"
     style="fill:#c8b7b7;stroke-width:1.04957032" />
  <path
     id="XMLID_1407_"
     d="m 206.9284,317.7182 v -40 h 98.1432 v 40 z"
     inkscape:connector-curvature="0"
     style="fill:#e1e3e9;stroke-width:1.1076057" />
  <path
     id="XMLID_1406_"
     d="m 418.47207,317.7182 h 49.07161 v 140.20129 h -49.07161 z"
     inkscape:connector-curvature="0"
     style="fill:#c8b7b7;stroke-width:1.04387486" />
  <path
     id="XMLID_1403_"
     d="m 393.93629,317.7182 v -40 h 98.1432 v 40 z"
     inkscape:connector-curvature="0"
     style="fill:#e1e3e9;stroke-width:1.1076057" />
  <path
     id="XMLID_854_"
     d="m 568.4082,228.5972 c 0.002,-0.002 0.003,-0.004 0.006,-0.006 L 467.81757,86.5622 c -2.19105,-3.094 -6.24069,-5 -10.62401,-5 H 54.806427 c -4.38332,0 -8.432954,1.906 -10.624002,5 l -100.596779,142.028 c 0.0025,10e-4 0.0061,0.002 0.0086,0.003 -1.045225,1.472 -1.652486,3.175 -1.652486,4.998 v 44 c 0,5.523 5.492339,10 12.2679,10 H 7.6526219 v 30.127 c 0,5.523 5.4923391,10 12.2678991,10 h 12.267901 v 123.844 h -1.373543 c -6.775562,0 -12.267901,4.477 -12.267901,10 0,5.523 5.492339,10 12.267901,10 H 488.18726 c 6.77557,0 12.26791,-4.477 12.26791,-10 0,-5.523 -5.50143,-10 -12.26791,-10 h -8.37568 v -123.844 h 12.26791 c 6.77556,0 11.90206,-4.48913 12.2679,-10 v -30.127 h 53.44296 c 6.77556,0 12.26789,-4.477 12.26789,-10 v -44 c 0,-1.821 -0.60603,-3.523 -1.65004,-4.994 z m -31.86587,-5.006 H 377.84479 l 79.34877,-112.029 z m -381.13911,-10 -79.348785,-112.029 H 234.752 Z M 256,111.5622 335.34878,223.5902 H 176.65122 Z m 21.24801,-10 h 158.69755 l -79.34878,112.029 z m -222.441583,10 79.348793,112.028 H -24.542349 Z M 194.6605,287.5912 v 30.127 c 0,5.523 5.49234,10 12.2679,10 h 12.26791 v 123.844 h -113.4005 v -123.844 h 12.26791 c 6.77556,0 12.63374,-4.48913 12.2679,-10 v -30.127 z m 85.8753,20.127 h -49.07161 -12.26788 v -20 h 73.60739 v 20 z m -248.347393,0 v -20 h 73.607403 v 20 H 93.527907 44.456308 Z m 24.535801,143.844 v -123.844 h 24.535795 v 123.844 z m 398.551582,0 h -24.53581 v -123.844 h 24.53581 z m 24.53579,-143.844 h -12.2679 -49.07161 -12.26789 v -20 h 73.6074 z m -85.87529,20 h 12.26789 v 123.844 H 280.5358 243.73209 v -123.844 h 24.53581 v 123.843 c 0,5.523 5.49234,10 12.2679,10 6.77556,0 12.2679,-4.477 12.2679,-10 v -123.843 h 12.2679 c 6.77557,0 12.26791,-4.477 12.26791,-10 v -30.127 h 64.32887 v 30.127 c 0,5.523 5.49234,10 12.26791,10 z m 151.58615,-60.127 H -33.522453 v -24 H 545.52244 Z"
     inkscape:connector-curvature="0"
     sodipodi:nodetypes="cccsscccssscssccssssssccsscsssccccccccccccccccccccccssccccssccccccccccccccccccccccccccccccccczccccccssscssccszccccc"
     style="stroke-width:1.1076057" />
  <path
     inkscape:connector-curvature="0"
     style="fill:#89a02c;stroke-width:1.1076057"
     id="XMLID_1412_-6"
     d="M -45.790353,51.92554 H 557.79035 v 44 H -45.790353 Z" />
  <path
     id="XMLID_854_-4-5"
     d="m 559.39661,40.4378 c -624.813984,1.996 7.36073,0 -617.461831,1.993 0.0025,0.001 633.833341,3.001 7.369328,0.003 -1.045225,1.472 -9.013225,7.175001 -9.013225,8.998001 V 99.4318 c 0,5.523 5.492338,10 12.267899,10 H 556.13948 c 6.77556,0 12.2679,-4.477 12.2679,-10 v -50 c 0,-1.821 -7.96678,-7.523 -9.01077,-8.994 z M 543.87158,89.431803 H -35.17332 V 65.431801 h 579.0449 z"
     inkscape:connector-curvature="0"
     sodipodi:nodetypes="cccssccsscccccc"
     style="stroke-width:1.1076057" />
</svg>
