<?xml version="1.0" encoding="UTF-8" standalone="no"?>
<!-- Generator: Adobe Illustrator 19.0.0, SVG Export Plug-In . SVG Version: 6.00 Build 0)  -->

<svg
   xmlns:dc="http://purl.org/dc/elements/1.1/"
   xmlns:cc="http://creativecommons.org/ns#"
   xmlns:rdf="http://www.w3.org/1999/02/22-rdf-syntax-ns#"
   xmlns:svg="http://www.w3.org/2000/svg"
   xmlns="http://www.w3.org/2000/svg"
   xmlns:sodipodi="http://sodipodi.sourceforge.net/DTD/sodipodi-0.dtd"
   xmlns:inkscape="http://www.inkscape.org/namespaces/inkscape"
   version="1.1"
   id="Capa_1"
   x="0px"
   y="0px"
   viewBox="0 0 512.001 512.001"
   style="enable-background:new 0 0 512.001 512.001;"
   xml:space="preserve"
   sodipodi:docname="xian_terracotta.svg"
   inkscape:version="0.92.4 (5da689c313, 2019-01-14)"><metadata
   id="metadata69"><rdf:RDF><cc:Work
       rdf:about=""><dc:format>image/svg+xml</dc:format><dc:type
         rdf:resource="http://purl.org/dc/dcmitype/StillImage" /></cc:Work></rdf:RDF></metadata><defs
   id="defs67" /><sodipodi:namedview
   pagecolor="#ffffff"
   bordercolor="#666666"
   borderopacity="1"
   objecttolerance="10"
   gridtolerance="10"
   guidetolerance="10"
   inkscape:pageopacity="0"
   inkscape:pageshadow="2"
   inkscape:window-width="1920"
   inkscape:window-height="986"
   id="namedview65"
   showgrid="false"
   inkscape:zoom="0.46093662"
   inkscape:cx="256.00049"
   inkscape:cy="256.00049"
   inkscape:window-x="-11"
   inkscape:window-y="-11"
   inkscape:window-maximized="1"
   inkscape:current-layer="Capa_1" />
<path
   style="fill:#e6af78;stroke-width:0.81"
   d="m 104.59408,81.25141 h 57.49623 v 26.48619 c 0,14.09157 -3.28049,27.98874 -9.5823,40.59315 v 0 47.91312 h -38.33162 v -47.91312 0 c -6.3018,-12.6036 -9.5823,-26.50158 -9.5823,-40.59315 0,0 0,-26.48619 -10e-6,-26.48619 z m 245.31579,0 v 26.48619 c 0,14.09157 3.2805,27.98874 9.5823,40.59315 v 0 47.91312 h 38.33082 v -47.91312 0 c 6.3018,-12.6036 9.5823,-26.50158 9.5823,-40.59315 V 81.25141 Z"
   id="path2"
   inkscape:connector-curvature="0" />
<path
   style="fill:#ce8855;stroke-width:0.81"
   d="m 347.20771,408.53596 c 10.85643,0 19.65709,8.80065 19.65709,19.65708 v 11.79441 h -39.31335 v -11.79441 c -8.1e-4,-10.85643 8.79984,-19.65708 19.65626,-19.65708 z M 176.58688,337.77193 h -23.58801 c -4.34241,0 -7.86266,3.52026 -7.86266,7.86267 v 55.03869 c 0,4.34241 3.52025,7.86267 7.86266,7.86267 h 11.7936 c -10.85643,0 -19.65708,8.80065 -19.65708,19.65708 v 11.79441 h 39.31335 v -11.79441 c 0,-10.85643 -8.80065,-19.65708 -19.65708,-19.65708 h 11.79441 c 4.34241,0 7.86267,-3.52026 7.86267,-7.86267 V 345.6346 c 8.1e-4,-4.34241 -3.51945,-7.86267 -7.86186,-7.86267 z m -62.90135,0 H 90.097515 c -4.34241,0 -7.86267,3.52026 -7.86267,7.86267 v 55.03869 c 0,4.34241 3.52026,7.86267 7.86267,7.86267 h 11.793605 c -10.856435,0 -19.657085,8.80065 -19.657085,19.65708 v 11.79441 H 121.5482 v -11.79441 c 0,-10.85643 -8.80065,-19.65708 -19.65708,-19.65708 h 11.79441 c 4.34241,0 7.86267,-3.52026 7.86267,-7.86267 V 345.6346 c 0,-4.34241 -3.52026,-7.86267 -7.86267,-7.86267 z m 245.31579,0 h -23.58801 c -4.34241,0 -7.86267,3.52026 -7.86267,7.86267 v 55.03869 c 0,4.34241 3.52026,7.86267 7.86267,7.86267 h 11.79441 11.79441 c 4.34241,0 7.86267,-3.52026 7.86267,-7.86267 V 345.6346 c -8.1e-4,-4.34241 -3.52107,-7.86267 -7.86348,-7.86267 z m 31.45067,90.42192 v 11.79441 h 39.31336 v -11.79441 c 0,-10.85643 -8.80065,-19.65708 -19.65708,-19.65708 -10.85643,0 -19.65628,8.79984 -19.65628,19.65708 z m 39.31336,-27.52056 V 345.6346 c 0,-4.34241 -3.52026,-7.86267 -7.86267,-7.86267 h -23.58801 c -4.34241,0 -7.86268,3.52026 -7.86268,7.86267 v 55.03869 c 0,4.34241 3.52027,7.86267 7.86268,7.86267 h 11.79441 11.79441 c 4.3416,0 7.86186,-3.51945 7.86186,-7.86267 z"
   id="path4"
   inkscape:connector-curvature="0" />
<g
   id="g10"
   transform="matrix(0.81,0,0,0.81,48.640095,48.64)">
	<path
   style="fill:#c37a4f"
   d="m 460.818,444.316 h -14.561 -1.456 v -87.363 h 16.017 c 5.361,0 9.707,4.346 9.707,9.707 v 67.949 c 0,5.362 -4.346,9.707 -9.707,9.707 z m -16.016,38.829 h 25.724 v -14.561 c 0,-13.403 -10.865,-24.268 -24.268,-24.268 -0.489,0 -0.974,0.019 -1.456,0.047 z"
   id="path6"
   inkscape:connector-curvature="0" />
	<path
   style="fill:#c37a4f"
   d="m 196.281,371.053 c 0.271,2.85 -1.969,5.314 -4.832,5.314 H 17.691 c -2.862,0 -5.103,-2.464 -4.832,-5.314 l 18.49,-194.141 c 0.237,-2.491 2.329,-4.393 4.832,-4.393 H 172.96 c 2.502,0 4.594,1.902 4.832,4.393 z m 302.859,0 -18.49,-194.141 c -0.237,-2.491 -2.329,-4.393 -4.832,-4.393 H 339.04 c -2.502,0 -4.594,1.902 -4.832,4.393 l -18.49,194.141 c -0.271,2.85 1.969,5.314 4.832,5.314 h 173.758 c 2.863,0 5.104,-2.463 4.832,-5.314 z"
   id="path8"
   inkscape:connector-curvature="0" />
</g>
<path
   style="fill:#ce8855;stroke-width:0.81"
   d="m 200.9614,191.16436 v 12.94137 7.86267 70.76403 c 0,4.34241 -3.52026,7.86267 -7.86267,7.86267 h -23.58801 c -4.34241,0 -7.86267,-3.52026 -7.86267,-7.86267 v -55.03869 c 0,-8.68482 -7.04052,-15.72534 -15.72534,-15.72534 h -25.16103 c -8.68482,0 -15.72534,7.04052 -15.72534,15.72534 v 55.03869 c 0,4.34241 -3.52026,7.86267 -7.862665,7.86267 h -23.58801 c -4.34241,0 -7.86267,-3.52026 -7.86267,-7.86267 v -70.76403 -7.86267 -12.94137 c 0,-6.43059 3.91473,-12.21237 9.88524,-14.60025 l 29.428105,-11.77173 v -7.86267 c 0,-4.34241 3.52026,-7.86267 7.86267,-7.86267 h 40.88637 c 4.34241,0 7.86267,3.52026 7.86267,7.86267 v 7.86267 l 29.42811,11.77173 c 5.97051,2.38788 9.88524,8.17047 9.88524,14.60025 z m 235.43055,-14.60025 -29.42811,-11.77173 v -7.86267 c 0,-4.34241 -3.52026,-7.86267 -7.86267,-7.86267 H 358.2148 c -4.34241,0 -7.86267,3.52026 -7.86267,7.86267 v 7.86267 l -29.42811,11.77173 c -5.97051,2.38788 -9.88524,8.17047 -9.88524,14.60025 v 12.94137 7.86267 70.76403 c 0,4.34241 3.52026,7.86267 7.86267,7.86267 h 23.58801 c 4.34241,0 7.86267,-3.52026 7.86267,-7.86267 v -55.03869 c 0,-8.68482 7.04052,-15.72534 15.72534,-15.72534 h 25.16103 c 8.68482,0 15.72534,7.04052 15.72534,15.72534 v 55.03869 c 0,4.34241 3.52026,7.86267 7.86267,7.86267 h 23.58801 c 4.34241,0 7.86267,-3.52026 7.86267,-7.86267 v -70.76403 -7.86267 -12.94137 c 0,-6.42978 -3.91473,-12.21237 -9.88524,-14.60025 z"
   id="path12"
   inkscape:connector-curvature="0" />
<path
   style="fill:#c37a4f;stroke-width:0.81"
   d="m 446.27719,191.16436 v 12.94137 7.86267 70.76403 c 0,4.34241 -3.52026,7.86267 -7.86266,7.86267 h -15.72535 v -61.85322 -7.86267 -12.94137 c 0,-6.43059 -3.91472,-12.21237 -9.88524,-14.60106 L 383.37583,181.56505 V 173.704 c 0,-3.7098 -2.57256,-6.81129 -6.02801,-7.6383 v -16.99785 h 21.75335 c 4.34241,0 7.86268,3.52026 7.86268,7.86267 v 7.86267 l 29.4281,11.77173 c 5.97051,2.38707 9.88525,8.16966 9.88524,14.59944 z"
   id="path14"
   inkscape:connector-curvature="0" />
<path
   style="fill:#e6af78;stroke-width:0.81"
   d="m 82.234845,274.87057 v 15.72534 c 0,4.34241 -3.52026,7.86267 -7.86267,7.86267 h -11.79441 c -4.34241,0 -7.86267,-3.52026 -7.86267,-7.86267 v -15.72534 c 0,-4.34241 3.52026,-7.86267 7.86267,-7.86267 h 11.79441 c 4.34241,0 7.86267,3.52026 7.86267,7.86267 z M 449.42242,267.0079 h -11.79441 c -4.34241,0 -7.86267,3.52026 -7.86267,7.86267 v 15.72534 c 0,4.34241 3.52026,7.86267 7.86267,7.86267 h 11.79441 c 4.34241,0 7.86267,-3.52026 7.86267,-7.86267 v -15.72534 c 0,-4.34241 -3.52026,-7.86267 -7.86267,-7.86267 z"
   id="path16"
   inkscape:connector-curvature="0" />
<path
   style="fill:#f0c087;stroke-width:0.81"
   d="m 284.74781,81.25141 v 26.48619 c 0,14.09157 -3.28051,27.98874 -9.58231,40.59315 v 0 47.91312 h -38.33082 v -47.91312 0 c -6.30179,-12.6036 -9.5823,-26.50158 -9.5823,-40.59315 V 81.25141 Z"
   id="path18"
   inkscape:connector-curvature="0" />
<path
   style="fill:#e6af78;stroke-width:0.81"
   d="m 244.20568,345.6346 v 55.03869 c 0,4.34241 -3.52026,7.86267 -7.86267,7.86267 H 224.5486 c 10.85643,0 19.65708,8.80065 19.65708,19.65708 v 11.79441 h -39.31335 v -11.79441 c 0,-10.85643 8.80065,-19.65708 19.65708,-19.65708 h -11.7936 c -4.34241,0 -7.86267,-3.52026 -7.86267,-7.86267 V 345.6346 c 0,-4.34241 3.52026,-7.86267 7.86267,-7.86267 h 23.58801 c 4.3416,0 7.86186,3.52026 7.86186,7.86267 z m 62.90217,55.03869 V 345.6346 c 0,-4.34241 -3.52026,-7.86267 -7.86267,-7.86267 h -23.588 c -4.34241,0 -7.86267,3.52026 -7.86267,7.86267 v 55.03869 c 0,4.34241 3.52026,7.86267 7.86267,7.86267 h 11.7936 c -10.85643,0 -19.65708,8.80065 -19.65708,19.65708 v 11.79441 h 39.31335 v -11.79441 c 0,-10.85643 -8.80066,-19.65708 -19.65708,-19.65708 h 11.7944 c 4.34323,0 7.86348,-3.51945 7.86348,-7.86267 z"
   id="path20"
   inkscape:connector-curvature="0" />
<path
   style="fill:#d5945e;stroke-width:0.81"
   d="m 315.3091,191.93953 14.9769,157.25421 c 0.21951,2.30769 -1.59489,4.30434 -3.91391,4.30434 H 185.6281 c -2.31822,0 -4.13342,-1.99584 -3.91392,-4.30434 l 14.9769,-157.25421 c 0.19198,-2.01771 1.8865,-3.55833 3.91392,-3.55833 h 110.791 c 2.02661,0 3.72113,1.54062 3.9131,3.55833 z"
   id="path22"
   inkscape:connector-curvature="0" />
<path
   style="fill:#e6af78;stroke-width:0.81"
   d="m 323.61889,191.16436 v 12.94137 7.86267 70.76403 c 0,4.34241 -3.52026,7.86267 -7.86267,7.86267 h -23.588 c -4.34242,0 -7.86268,-3.52026 -7.86268,-7.86267 v -55.03869 c 0,-8.68482 -7.04051,-15.72534 -15.72534,-15.72534 h -25.16103 c -8.68482,0 -15.72534,7.04052 -15.72534,15.72534 v 55.03869 c 0,4.34241 -3.52026,7.86267 -7.86267,7.86267 h -23.58801 c -4.34241,0 -7.86267,-3.52026 -7.86267,-7.86267 v -70.76403 -7.86267 -12.94137 c 0,-6.42978 3.91473,-12.21237 9.88524,-14.60025 l 29.42811,-11.77173 v -7.86267 c 0,-4.34241 3.52026,-7.86267 7.86267,-7.86267 h 40.88637 c 4.34241,0 7.86267,3.52026 7.86267,7.86267 v 7.86267 l 29.42811,11.77173 c 5.97051,2.38788 9.88524,8.17047 9.88524,14.60025 z"
   id="path24"
   inkscape:connector-curvature="0" />
<path
   style="fill:#f0c087;stroke-width:0.81"
   d="m 204.89233,274.87057 v 15.72534 c 0,4.34241 -3.52026,7.86267 -7.86267,7.86267 h -11.79441 c -4.34241,0 -7.86266,-3.52026 -7.86266,-7.86267 v -15.72534 c 0,-4.34241 3.52025,-7.86267 7.86266,-7.86267 h 11.79441 c 4.34241,0 7.86267,3.52026 7.86267,7.86267 z m 121.87179,-7.86267 h -11.79441 c -4.34241,0 -7.86266,3.52026 -7.86266,7.86267 v 15.72534 c 0,4.34241 3.52026,7.86267 7.86267,7.86267 h 11.79441 c 4.34241,0 7.86267,-3.52026 7.86267,-7.86267 v -15.72534 c 0,-4.34241 -3.52027,-7.86267 -7.86268,-7.86267 z"
   id="path26"
   inkscape:connector-curvature="0" />
<path
   style="fill:#d5945e;stroke-width:0.81"
   d="m 168.72421,86.16568 v 3.93174 c 0,2.17161 -1.76013,3.93174 -3.93174,3.93174 h -62.90135 c -2.171615,0 -3.931745,-1.76013 -3.931745,-3.93174 v -3.93174 c 0,-8.68482 7.040515,-15.72534 15.725335,-15.72534 h 3.93175 v -11.7936 c 0,-2.17161 1.76012,-3.93174 3.93173,-3.93174 h 23.58801 c 2.17161,0 3.93174,1.76013 3.93174,3.93174 v 11.79441 h 3.93174 c 8.68401,-8.1e-4 15.72453,7.03971 15.72453,15.72453 z M 398.31466,70.44034 h -3.93174 v -11.7936 c 0,-2.17161 -1.76013,-3.93174 -3.93174,-3.93174 h -23.58801 c -2.17161,0 -3.93174,1.76013 -3.93174,3.93174 v 11.79441 h -3.93174 c -8.68482,0 -15.72534,7.04052 -15.72534,15.72534 v 3.93174 c 0,2.17161 1.76013,3.93174 3.93174,3.93174 h 62.90136 c 2.17161,0 3.93174,-1.76013 3.93174,-3.93174 V 86.16649 C 414.04,77.48086 406.99948,70.44034 398.31466,70.44034 Z m -122.65749,0 h -3.93174 v -11.7936 c 0,-2.17161 -1.76013,-3.93174 -3.93174,-3.93174 h -23.58801 c -2.17161,0 -3.93174,1.76013 -3.93174,3.93174 v 11.79441 h -3.93174 c -8.68482,0 -15.72534,7.04052 -15.72534,15.72534 v 3.93174 c 0,2.17161 1.76013,3.93174 3.93174,3.93174 h 62.90136 c 2.17161,0 3.93174,-1.76013 3.93174,-3.93174 v -3.93174 c 8.1e-4,-8.68563 -7.03971,-15.72615 -15.72453,-15.72615 z"
   id="path28"
   inkscape:connector-curvature="0" />
<path
   style="fill:#c37a4f;stroke-width:0.81"
   d="m 457.28509,437.62792 v 15.72534 c 0,2.17161 -1.76013,3.93174 -3.93174,3.93174 H 58.646835 c -2.17161,0 -3.93174,-1.76013 -3.93174,-3.93174 v -15.72534 c 0,-2.17161 1.76013,-3.93174 3.93174,-3.93174 H 453.35416 c 2.1708,8.1e-4 3.93093,1.76094 3.93093,3.93174 z"
   id="path30"
   inkscape:connector-curvature="0" />
<path
   d="M 463.36009,290.35858 V 275.1079 c 0,-6.72624 -4.71339,-12.36141 -11.0079,-13.80564 v -70.13709 c 0,-8.96589 -5.37921,-16.91118 -13.70358,-20.24109 l -25.60977,-10.24407 v -3.74949 c 0,-5.14836 -2.81313,-9.64224 -6.97572,-12.05604 4.86081,-11.73447 7.41798,-24.44094 7.41798,-37.13607 v -8.23203 c 3.86046,-1.38834 6.6339,-5.07627 6.6339,-9.40896 v -3.93174 c 0,-11.29707 -8.63865,-20.61531 -19.65708,-21.69585 V 58.64674 C 400.45873,53.12902 395.96971,48.64 390.45199,48.64 h -23.58801 c -5.51772,0 -10.00674,4.48902 -10.00674,10.00674 v 5.82309 c -11.01843,1.08054 -19.65708,10.39878 -19.65708,21.69585 v 3.93174 c 0,4.33269 2.77344,8.02062 6.6339,9.40896 v 8.23122 c 0,12.69594 2.55717,25.40241 7.41798,37.13607 -4.16259,2.4138 -6.97572,6.90768 -6.97572,12.05604 v 3.74949 l -25.60977,10.24407 c -0.43578,0.17415 -0.83592,0.3969 -1.20528,0.65367 -0.47952,-0.23328 -0.96957,-0.45279 -1.47096,-0.65367 L 290.38054,160.6792 v -3.74949 c 0,-5.14836 -2.81313,-9.64224 -6.97572,-12.05604 4.86081,-11.73447 7.41798,-24.44094 7.41798,-37.13607 v -8.23122 c 3.86046,-1.38834 6.6339,-5.07627 6.6339,-9.40896 v -3.93174 c 0,-11.29707 -8.63865,-20.61531 -19.65708,-21.69585 V 58.64674 C 277.80043,53.12902 273.31141,48.64 267.7945,48.64 h -23.58801 c -5.51772,0 -10.00674,4.48902 -10.00674,10.00674 v 5.82309 c -11.01843,1.08054 -19.65708,10.39878 -19.65708,21.69585 v 3.93174 c 0,4.33269 2.77344,8.02062 6.6339,9.40896 v 8.23122 c 0,12.69594 2.55717,25.40241 7.41798,37.13607 -4.16259,2.4138 -6.97572,6.90768 -6.97572,12.05604 v 3.74949 l -25.61058,10.24407 c -0.45279,0.18144 -0.891,0.38961 -1.3284,0.5994 -0.44307,-0.21303 -0.891,-0.41715 -1.34784,-0.5994 L 167.72224,160.6792 v -3.74949 c 0,-5.14836 -2.81313,-9.64224 -6.97572,-12.05604 4.86081,-11.73447 7.41798,-24.44094 7.41798,-37.13607 v -8.23122 c 3.86046,-1.38834 6.6339,-5.07627 6.6339,-9.40896 v -3.93174 c 0,-11.29707 -8.63865,-20.61531 -19.65708,-21.69585 V 58.64674 C 155.14213,53.12902 150.65311,48.64 145.1362,48.64 h -23.58801 c -5.51772,0 -10.00674,4.48902 -10.00674,10.00674 v 5.82309 C 100.52302,65.55037 91.884375,74.86861 91.884375,86.16568 v 3.93174 c 0,4.33269 2.77344,8.02062 6.6339,9.40896 v 8.23122 c 0,12.69594 2.557165,25.40241 7.417975,37.13607 -4.16259,2.4138 -6.975715,6.90768 -6.975715,12.05604 v 3.74949 l -25.60977,10.24407 c -8.32437,3.32991 -13.70358,11.27439 -13.70358,20.24109 v 70.13709 c -6.2937,1.44504 -11.00709,7.08021 -11.00709,13.80645 v 15.25068 c 0,5.86602 3.58182,10.9107 8.67348,13.06287 l -4.30434,45.19719 c -0.26649,2.80017 0.66663,5.59872 2.55879,7.67961 1.89216,2.08089 4.59027,3.27402 7.4034,3.27402 h 13.18923 v 41.10102 c 0,4.64049 2.28906,8.748 5.78745,11.28249 -3.50244,4.29381 -5.64327,9.7362 -5.77287,15.6654 h -17.5284 c -5.51772,8.1e-4 -10.00674,4.48983 -10.00674,10.00674 v 15.72534 c 0,5.51772 4.48902,10.00674 10.00674,10.00674 H 453.35416 c 5.51772,0 10.00674,-4.48902 10.00674,-10.00674 v -15.72534 c 0,-5.51772 -4.48902,-10.00674 -10.00674,-10.00674 h -17.52759 c -0.13041,-5.93001 -2.27043,-11.37159 -5.77287,-15.6654 3.49839,-2.53449 5.78745,-6.642 5.78745,-11.28249 v -41.10102 h 13.18923 c 2.81232,0 5.51124,-1.19313 7.4034,-3.27402 1.89216,-2.08089 2.82447,-4.87944 2.55879,-7.68042 l -4.30434,-45.19638 c 5.09004,-2.15217 8.67186,-7.19685 8.67186,-13.06287 z m -14.175,-17.27568 c 1.11618,0 2.025,0.90882 2.025,2.025 v 15.25068 c 0,1.11618 -0.90882,2.025 -2.025,2.025 h -11.31975 c -1.11618,0 -2.02499,-0.90882 -2.02499,-2.025 V 275.1079 c 0,-1.11618 0.90881,-2.025 2.02499,-2.025 z M 363.67826,142.99204 c -5.03739,-11.01843 -7.69338,-23.14332 -7.69338,-35.25444 v -7.63425 h 45.34542 v 7.63425 c 0,12.11193 -2.656,24.23682 -7.69339,35.25444 0,0 -29.95865,0 -29.95865,0 z M 349.35098,86.16568 c 0,-5.32089 4.32945,-9.65034 9.65034,-9.65034 h 3.93174 c 3.35502,0 6.075,-2.71998 6.075,-6.075 V 60.79 h 19.30068 v 9.65034 c 0,3.35502 2.71998,6.075 6.075,6.075 h 3.93174 c 5.32089,0 9.65034,4.32945 9.65034,9.65034 v 1.78767 h -58.61403 v -1.78767 z m -108.33102,56.82636 c -5.03739,-11.01843 -7.69338,-23.14332 -7.69338,-35.25444 v -7.63425 H 278.672 v 7.63425 c 0,12.11193 -2.65599,24.23682 -7.69338,35.25444 0,0 -29.95866,0 -29.95866,0 z M 226.69268,86.16568 c 0,-5.32089 4.32945,-9.65034 9.65034,-9.65034 h 3.93174 c 3.35502,0 6.075,-2.71998 6.075,-6.075 V 60.79 h 19.30068 v 9.65034 c 0,3.35502 2.71998,6.075 6.07499,6.075 h 3.93175 c 5.32089,0 9.65034,4.32945 9.65034,9.65034 v 1.78767 h -58.61404 v -1.78767 z m -108.33021,56.82636 c -5.03739,-11.01843 -7.69338,-23.14332 -7.69338,-35.25444 v -7.63425 h 45.34542 v 7.63425 c 0,12.11193 -2.65599,24.23682 -7.69338,35.25444 0,0 -29.95866,0 -29.95866,0 z M 104.03518,86.16568 c 0,-5.32089 4.32945,-9.65034 9.65034,-9.65034 h 3.93174 c 3.35502,0 6.075,-2.71998 6.075,-6.075 V 60.79 h 19.30068 v 9.65034 c 0,3.35502 2.71998,6.075 6.075,6.075 h 3.93174 c 5.32089,0 9.65034,4.32945 9.65034,9.65034 v 1.78767 H 104.03518 Z M 77.864085,182.20495 107.293,170.43322 c 2.30607,-0.92259 3.81834,-3.15576 3.81834,-5.64003 v -7.86267 c 0,-0.98577 0.8019,-1.78767 1.78767,-1.78767 h 14.36778 v 25.37568 c 0,3.35502 2.71998,6.075 6.075,6.075 3.35502,0 6.075,-2.71998 6.075,-6.075 v -25.37568 h 14.36778 c 0.98577,0 1.78767,0.8019 1.78767,1.78767 v 7.86267 c 0,2.48427 1.51227,4.71825 3.81834,5.64003 l 25.61301,10.24488 c -1.74636,3.1833 -2.69811,6.78456 -2.69811,10.48626 v 21.06567 c 0,3.35502 2.71998,6.075 6.075,6.075 3.35502,0 6.075,-2.71998 6.075,-6.075 v -21.06567 c 0,-2.74347 1.17288,-5.36625 3.21813,-7.19523 0.83997,-0.75087 1.7982,-1.3446 2.84796,-1.76499 l 29.42892,-11.77173 c 2.30607,-0.92259 3.81835,-3.15576 3.81835,-5.64003 v -7.86267 c 0,-0.98577 0.8019,-1.78767 1.78767,-1.78767 h 14.36858 v 25.37568 c 0,3.35502 2.71999,6.075 6.075,6.075 3.35502,0 6.07501,-2.71998 6.07501,-6.075 v -25.37568 h 14.36778 c 0.98577,0 1.78766,0.8019 1.78766,1.78767 v 7.86267 c 0,2.48427 1.51227,4.71825 3.81834,5.64003 l 29.42892,11.77173 c 3.68551,1.4742 6.06609,4.99122 6.06609,8.96022 v 20.80404 c 0,3.35502 2.71998,6.075 6.075,6.075 3.35502,0 6.075,-2.71998 6.075,-6.075 v -20.80404 c 0,-3.76893 -0.96066,-7.35237 -2.6811,-10.49355 l 25.596,-10.2384 c 2.30607,-0.92259 3.81834,-3.15576 3.81834,-5.64003 v -7.86267 c 0,-0.98577 0.8019,-1.78767 1.78767,-1.78767 h 14.36778 v 25.37568 c 0,3.35502 2.71999,6.075 6.075,6.075 3.35502,0 6.075,-2.71998 6.075,-6.075 v -25.37568 h 14.36778 c 0.98578,0 1.78767,0.8019 1.78767,1.78767 v 7.86267 c 0,2.48427 1.51227,4.71825 3.81834,5.64003 l 29.42892,11.77173 c 3.68551,1.4742 6.0661,4.99122 6.0661,8.96022 v 69.76773 h -2.33686 c -7.81569,0 -14.175,6.35931 -14.175,14.175 v 9.41301 h -8.86383 c -0.98577,0 -1.78766,-0.8019 -1.78766,-1.78767 v -55.03869 c 0,-12.0204 -9.77994,-21.80034 -21.80034,-21.80034 h -25.16104 c -12.0204,0 -21.80033,9.77994 -21.80033,21.80034 v 55.03869 c 0,0.98577 -0.80191,1.78767 -1.78767,1.78767 h -1.78768 v -9.4122 c 0,-6.72624 -4.71339,-12.36141 -11.0079,-13.80564 v -27.05562 c 0,-3.35502 -2.71997,-6.075 -6.075,-6.075 -3.35501,0 -6.07499,2.71998 -6.07499,6.075 v 26.68626 h -2.33685 c -7.81569,0 -14.175,6.35931 -14.175,14.175 v 9.41301 h -8.86383 c -0.98577,0 -1.78768,-0.8019 -1.78768,-1.78767 v -55.03869 c 0,-12.0204 -9.77994,-21.80034 -21.80034,-21.80034 h -25.16103 c -12.0204,0 -21.80034,9.77994 -21.80034,21.80034 v 55.03869 c 0,0.98577 -0.8019,1.78767 -1.78767,1.78767 h -8.86383 v -9.41301 c 0,-7.81569 -6.35931,-14.175 -14.175,-14.175 h -2.33685 v -24.58998 c 0,-3.35502 -2.71998,-6.075 -6.075,-6.075 -3.35502,0 -6.075,2.71998 -6.075,6.075 v 24.95934 c -6.29451,1.44423 -11.0079,7.0794 -11.0079,13.80564 v 9.41301 h -1.78767 c -0.98577,0 -1.78767,-0.8019 -1.78767,-1.78767 v -55.03869 c 0,-12.0204 -9.77994,-21.80034 -21.80034,-21.80034 h -25.1594 c -12.0204,0 -21.800345,9.77994 -21.800345,21.80034 v 55.03869 c 0,0.98577 -0.8019,1.78767 -1.78767,1.78767 h -8.86383 v -9.41301 c 0,-7.81569 -6.35931,-14.175 -14.175,-14.175 h -2.33685 v -69.76773 c 0,-3.969 2.38059,-7.48683 6.06609,-8.96022 z M 321.49021,427.62199 h -8.32194 c -0.13041,-5.93001 -2.27043,-11.37159 -5.77287,-15.6654 3.49839,-2.53449 5.78745,-6.642 5.78745,-11.28249 v -41.10102 h 8.29278 v 41.10102 c 0,4.64049 2.28906,8.748 5.78745,11.28249 -3.50244,4.29381 -5.64246,9.7362 -5.77287,15.6654 z m -193.8816,0 c -0.13041,-5.93001 -2.27043,-11.37159 -5.77287,-15.6654 3.49839,-2.53449 5.78745,-6.642 5.78745,-11.28249 v -41.10102 h 11.43801 v 41.10102 c 0,4.64049 2.28906,8.748 5.78745,11.28249 -3.50244,4.29381 -5.64327,9.7362 -5.77287,15.6654 z m 37.18386,-13.01103 c 7.29648,0 13.24998,5.78745 13.55292,13.01103 h -27.10584 c 0.30294,-7.22358 6.25725,-13.01103 13.55292,-13.01103 z m 44.67312,-117.94005 h 10.36557 c 7.68528,0 13.93767,-6.25239 13.93767,-13.93767 v -55.03869 c 0,-5.32089 4.32945,-9.65034 9.65034,-9.65034 h 25.16103 c 5.32089,0 9.65034,4.32945 9.65034,9.65034 v 55.03869 c 0,7.68528 6.25239,13.93767 13.93767,13.93767 h 10.36557 c 2.32713,4.65264 7.12638,7.86267 12.67326,7.86267 h 4.7223 l 4.08483,42.88869 H 187.9852 l 4.08483,-42.88869 h 4.7223 c 5.54688,0 10.34613,-3.21003 12.67326,-7.86267 z m 117.0612,-23.58801 c 1.11618,0 2.025,0.90882 2.025,2.025 v 15.25068 c 0,1.11618 -0.90882,2.025 -2.025,2.025 h -11.31975 c -1.11618,0 -2.025,-0.90882 -2.025,-2.025 V 275.1079 c 0,-1.11618 0.90882,-2.025 2.025,-2.025 z m -25.49394,127.59039 c 0,0.98577 -0.8019,1.78767 -1.78767,1.78767 h -23.58801 c -0.98577,0 -1.78767,-0.8019 -1.78767,-1.78767 v -41.10102 h 27.16335 z m -62.90217,0 c 0,0.98577 -0.8019,1.78767 -1.78767,1.78767 H 212.755 c -0.98577,0 -1.78767,-0.8019 -1.78767,-1.78767 v -41.10102 h 27.16335 z M 198.81733,290.35858 c 0,1.11618 -0.90882,2.025 -2.025,2.025 h -11.31894 c -1.11618,0 -2.025,-0.90882 -2.025,-2.025 V 275.1079 c 0,-1.11618 0.90882,-2.025 2.025,-2.025 h 11.31975 c 1.11618,0 2.025,0.90882 2.025,2.025 z m -8.30736,137.26341 c -0.13041,-5.93001 -2.27043,-11.37159 -5.77287,-15.6654 3.49839,-2.53449 5.78745,-6.642 5.78745,-11.28249 v -41.10102 h 8.29278 v 41.10102 c 0,4.64049 2.28906,8.748 5.78745,11.28249 -3.50244,4.29381 -5.64327,9.7362 -5.77287,15.6654 z m 34.03944,-13.01103 c 7.29648,0 13.24998,5.78745 13.55292,13.01103 h -27.10584 c 0.30213,-7.22358 6.25644,-13.01103 13.55292,-13.01103 z m 25.7175,13.01103 c -0.13041,-5.93001 -2.27043,-11.37159 -5.77287,-15.6654 3.49839,-2.53449 5.78745,-6.642 5.78745,-11.28249 v -41.10102 h 11.43801 v 41.10102 c 0,4.64049 2.28906,8.748 5.78745,11.28249 -3.50244,4.29381 -5.64327,9.7362 -5.77287,15.6654 z m 37.18386,-13.01103 c 7.29648,0 13.24998,5.78745 13.55292,13.01103 h -27.10584 c 0.30294,-7.22358 6.25644,-13.01103 13.55292,-13.01103 z M 62.815095,292.38358 c -1.11618,0 -2.025,-0.90882 -2.025,-2.025 V 275.1079 c 0,-1.11618 0.90882,-2.025 2.025,-2.025 h 11.31975 c 1.11618,0 2.025,0.90882 2.025,2.025 v 15.25068 c 0,1.11618 -0.90882,2.025 -2.025,2.025 z m 6.59745,12.15 h 4.7223 c 5.54688,0 10.34613,-3.21003 12.67326,-7.86267 h 10.36557 c 7.685275,0 13.937665,-6.25239 13.937665,-13.93767 v -55.03869 c 0,-5.32089 4.32945,-9.65034 9.65034,-9.65034 h 25.16103 c 5.32089,0 9.65034,4.32945 9.65034,9.65034 v 55.03869 c 0,7.68528 6.25239,13.93767 13.93767,13.93767 h 3.28941 c 1.50903,3.01725 4.05,5.43105 7.17174,6.75054 l -4.30434,45.19719 c -0.26649,2.80017 0.66663,5.59872 2.55879,7.67961 0.0478,0.0518 0.10126,0.0972 0.14985,0.14823 v 44.22762 c 0,0.98577 -0.8019,1.78767 -1.78767,1.78767 h -23.58801 c -0.98577,0 -1.78767,-0.8019 -1.78767,-1.78767 v -41.10102 h 8.07813 c 3.35503,0 6.075,-2.71998 6.075,-6.075 0,-3.35502 -2.71997,-6.075 -6.075,-6.075 H 65.327715 Z m 46.060645,55.03869 v 41.10102 c 0,0.98577 -0.8019,1.78767 -1.78767,1.78767 H 90.097515 c -0.98577,0 -1.78767,-0.8019 -1.78767,-1.78767 v -41.10102 z m -13.58208,55.03869 c 7.29648,0 13.24998,5.78745 13.55292,13.01103 H 88.338195 c 0.30294,-7.22358 6.25725,-13.01103 13.552915,-13.01103 z M 451.21009,451.21 H 60.790095 V 439.77199 H 332.26807 c 3.35502,0 6.075,-2.71998 6.075,-6.075 0,-2.88036 -2.00637,-5.28687 -4.69638,-5.91219 0.2187,-7.29891 6.21027,-13.17384 13.56102,-13.17384 7.29648,0 13.24998,5.78745 13.55292,13.01103 h -2.28339 c -3.35502,0 -6.075,2.71998 -6.075,6.075 0,3.35502 2.71998,6.075 6.075,6.075 h 92.73285 z m -66.8331,-91.63773 v 41.10102 c 0,4.64049 2.28906,8.748 5.78745,11.28249 -3.50244,4.29381 -5.64327,9.7362 -5.77287,15.6654 H 372.9244 c -0.13041,-5.93001 -2.27043,-11.37159 -5.77287,-15.6654 3.49839,-2.53449 5.78745,-6.642 5.78745,-11.28249 v -41.10102 z m 12.17916,68.04972 c 0.30213,-7.22277 6.25644,-13.01103 13.55293,-13.01103 7.29647,0 13.24997,5.78745 13.55291,13.01103 z m 27.13419,-26.9487 c 0,0.98577 -0.8019,1.78767 -1.78767,1.78767 h -23.58801 c -0.98577,0 -1.78767,-0.8019 -1.78767,-1.78767 v -41.10102 h 27.16335 z m -72.02682,-53.25102 c -3.35502,0 -6.075,2.71998 -6.075,6.075 0,3.35502 2.71998,6.075 6.075,6.075 h 9.12627 v 41.10102 c 0,0.98577 -0.8019,1.78767 -1.78767,1.78767 h -23.58801 c -0.98577,0 -1.78767,-0.8019 -1.78767,-1.78767 v -44.22762 c 0.0486,-0.051 0.10206,-0.0956 0.14985,-0.14823 1.89216,-2.08089 2.82447,-4.87944 2.55879,-7.68042 l -4.30434,-45.19638 c 3.12174,-1.31949 5.66271,-3.7341 7.17174,-6.75054 h 3.28941 c 7.68528,0 13.93767,-6.25239 13.93767,-13.93767 v -55.03869 c 0,-5.32089 4.32945,-9.65034 9.65034,-9.65034 h 25.16103 c 5.32089,0 9.65034,4.32945 9.65034,9.65034 v 55.03869 c 0,7.68528 6.25239,13.93767 13.93767,13.93767 h 10.36557 c 2.32713,4.65264 7.12638,7.86267 12.67326,7.86267 h 4.7223 l 4.08483,42.88869 z"
   id="path32"
   inkscape:connector-curvature="0"
   style="stroke-width:0.81" />
<g
   id="g34"
   transform="matrix(0.9,0,0,0.9,25.60005,25.6)">
</g>
<g
   id="g36"
   transform="matrix(0.9,0,0,0.9,25.60005,25.6)">
</g>
<g
   id="g38"
   transform="matrix(0.9,0,0,0.9,25.60005,25.6)">
</g>
<g
   id="g40"
   transform="matrix(0.9,0,0,0.9,25.60005,25.6)">
</g>
<g
   id="g42"
   transform="matrix(0.9,0,0,0.9,25.60005,25.6)">
</g>
<g
   id="g44"
   transform="matrix(0.9,0,0,0.9,25.60005,25.6)">
</g>
<g
   id="g46"
   transform="matrix(0.9,0,0,0.9,25.60005,25.6)">
</g>
<g
   id="g48"
   transform="matrix(0.9,0,0,0.9,25.60005,25.6)">
</g>
<g
   id="g50"
   transform="matrix(0.9,0,0,0.9,25.60005,25.6)">
</g>
<g
   id="g52"
   transform="matrix(0.9,0,0,0.9,25.60005,25.6)">
</g>
<g
   id="g54"
   transform="matrix(0.9,0,0,0.9,25.60005,25.6)">
</g>
<g
   id="g56"
   transform="matrix(0.9,0,0,0.9,25.60005,25.6)">
</g>
<g
   id="g58"
   transform="matrix(0.9,0,0,0.9,25.60005,25.6)">
</g>
<g
   id="g60"
   transform="matrix(0.9,0,0,0.9,25.60005,25.6)">
</g>
<g
   id="g62"
   transform="matrix(0.9,0,0,0.9,25.60005,25.6)">
</g>
</svg>