<?xml version="1.0" encoding="UTF-8" standalone="no"?>
<!-- Created with Inkscape (http://www.inkscape.org/) -->

<svg
   xmlns:dc="http://purl.org/dc/elements/1.1/"
   xmlns:cc="http://creativecommons.org/ns#"
   xmlns:rdf="http://www.w3.org/1999/02/22-rdf-syntax-ns#"
   xmlns:svg="http://www.w3.org/2000/svg"
   xmlns="http://www.w3.org/2000/svg"
   xmlns:sodipodi="http://sodipodi.sourceforge.net/DTD/sodipodi-0.dtd"
   xmlns:inkscape="http://www.inkscape.org/namespaces/inkscape"
   width="256"
   height="256"
   viewBox="0 0 67.733332 67.733335"
   version="1.1"
   id="svg8"
   inkscape:version="0.92.4 (5da689c313, 2019-01-14)"
   sodipodi:docname="xian_metro.svg">
  <defs
     id="defs2" />
  <sodipodi:namedview
     id="base"
     pagecolor="#ffffff"
     bordercolor="#666666"
     borderopacity="1.0"
     inkscape:pageopacity="0.0"
     inkscape:pageshadow="2"
     inkscape:zoom="2"
     inkscape:cx="-38.226062"
     inkscape:cy="114.42868"
     inkscape:document-units="mm"
     inkscape:current-layer="layer1"
     showgrid="false"
     units="px"
     inkscape:window-width="1920"
     inkscape:window-height="986"
     inkscape:window-x="-11"
     inkscape:window-y="-11"
     inkscape:window-maximized="1" />
  <metadata
     id="metadata5">
    <rdf:RDF>
      <cc:Work
         rdf:about="">
        <dc:format>image/svg+xml</dc:format>
        <dc:type
           rdf:resource="http://purl.org/dc/dcmitype/StillImage" />
        <dc:title />
      </cc:Work>
    </rdf:RDF>
  </metadata>
  <g
     inkscape:label="Layer 1"
     inkscape:groupmode="layer"
     id="layer1"
     transform="translate(0,-229.26665)">
    <g
       id="g843"
       transform="matrix(1.14,0,0,1.14,-4.7413332,-35.848543)"
       style="stroke:none;stroke-width:1.32291663;stroke-miterlimit:4;stroke-dasharray:none;stroke-opacity:1">
      <path
         inkscape:connector-curvature="0"
         id="path826"
         d="m 10.181305,255.4705 c 0,-12.36705 0.02235,-12.95577 0.529799,-13.94998 0.291391,-0.57092 0.944657,-1.35431 1.451705,-1.74088 1.914682,-1.45974 1.860198,-1.45615 22.078815,-1.45454 12.195157,9.5e-4 19.001204,0.0981 19.658422,0.28052 1.250856,0.3472 2.817179,1.69395 3.292433,2.83088 0.285392,0.68274 0.359549,3.55023 0.359549,13.90305 v 13.04291 H 55.55607 53.560113 v -4.38912 -4.38913 H 45.44322 37.326325 v 4.38913 4.38912 h -2.927404 -2.927404 v -4.38912 -4.38913 h -8.516085 -8.516085 v 4.38913 4.38912 h -2.129021 -2.129021 z"
         style="fill:#da251c;fill-opacity:1;stroke:none;stroke-width:1.32291663;stroke-miterlimit:4;stroke-dasharray:none;stroke-opacity:1" />
      <path
         inkscape:connector-curvature="0"
         id="path828"
         d="m 13.016748,285.60207 c -0.571568,-0.32678 -1.40987,-1.05379 -1.862893,-1.61557 l -0.823684,-1.02143 -0.08235,-5.16324 -0.08235,-5.16325 h 4.939177 4.939175 v -3.1329 c 0,-3.29554 0.15288,-3.81028 1.455519,-4.90072 1.238608,-1.03684 3.056071,-0.74977 4.387497,0.69301 0.605616,0.65627 0.661625,0.9513 0.763978,4.0244 l 0.110451,3.31621 h 7.818639 7.818639 v -3.0723 c 0,-3.37273 0.252603,-4.22328 1.496122,-5.0377 0.827772,-0.54213 2.387328,-0.62135 3.241108,-0.16462 1.158294,0.61962 1.497104,1.77674 1.50731,5.14787 l 0.0095,3.12443 1.463702,0.002 c 0.805036,10e-4 2.810973,0.08 4.457638,0.1748 l 2.993936,0.17244 v 4.66351 c 0,5.53675 -0.283849,6.47639 -2.352539,7.78772 l -1.211339,0.76786 -19.974004,-0.004 -19.974003,-0.004 z"
         style="fill:#da251c;fill-opacity:1;stroke:none;stroke-width:1.32291663;stroke-miterlimit:4;stroke-dasharray:none;stroke-opacity:1" />
    </g>
    <rect
       ry="6.0728073"
       rx="6.0325003"
       y="235.99258"
       x="6.9412012"
       height="54.281483"
       width="53.850933"
       id="rect836"
       style="fill:none;fill-rule:evenodd;stroke:#000000;stroke-width:2.24895833;stroke-miterlimit:4;stroke-dasharray:none;stroke-opacity:1" />
  </g>
</svg>
