<?xml version="1.0" encoding="UTF-8" standalone="no"?>
<svg
   xmlns:dc="http://purl.org/dc/elements/1.1/"
   xmlns:cc="http://creativecommons.org/ns#"
   xmlns:rdf="http://www.w3.org/1999/02/22-rdf-syntax-ns#"
   xmlns:svg="http://www.w3.org/2000/svg"
   xmlns="http://www.w3.org/2000/svg"
   xmlns:sodipodi="http://sodipodi.sourceforge.net/DTD/sodipodi-0.dtd"
   xmlns:inkscape="http://www.inkscape.org/namespaces/inkscape"
   id="Layer_1"
   height="512"
   viewBox="0 0 64 64"
   width="512"
   data-name="Layer 1"
   version="1.1"
   sodipodi:docname="yangon_pagoda.svg"
   inkscape:version="1.0.1 (3bc2e813f5, 2020-09-07)">
  <metadata
     id="metadata53">
    <rdf:RDF>
      <cc:Work
         rdf:about="">
        <dc:format>image/svg+xml</dc:format>
        <dc:type
           rdf:resource="http://purl.org/dc/dcmitype/StillImage" />
        <dc:title></dc:title>
      </cc:Work>
    </rdf:RDF>
  </metadata>
  <defs
     id="defs51" />
  <sodipodi:namedview
     pagecolor="#ffffff"
     bordercolor="#666666"
     borderopacity="1"
     objecttolerance="10"
     gridtolerance="10"
     guidetolerance="10"
     inkscape:pageopacity="0"
     inkscape:pageshadow="2"
     inkscape:window-width="1920"
     inkscape:window-height="986"
     id="namedview49"
     showgrid="false"
     inkscape:zoom="1.5976562"
     inkscape:cx="256"
     inkscape:cy="256"
     inkscape:window-x="-11"
     inkscape:window-y="-11"
     inkscape:window-maximized="1"
     inkscape:current-layer="Layer_1" />
  <path
     d="m36 14v4h-8v-4a3 3 0 0 1 3-3h2a3 3 0 0 1 3 3z"
     fill="#f2b41c"
     id="path2" />
  <path
     d="m30 16v-2a1 1 0 0 1 1-1h2a1 1 0 0 1 1 1v2z"
     fill="#f2b41c"
     id="path4" />
  <path
     d="m28 18h8v12h-8z"
     fill="#fdca2f"
     id="path6" />
  <path
     d="m30 28v-8h4v8z"
     fill="#fdca2f"
     id="path8" />
  <path
     d="m39 36h-14l3-6h8z"
     fill="#f2b41c"
     id="path10" />
  <path
     d="m29.24 32h5.52l1 2h-7.52z"
     fill="#f2b41c"
     id="path12" />
  <path
     d="m48 44h-32l7-8h18z"
     fill="#c18c16"
     id="path14" />
  <path
     d="m23.91 38h16.18l3.5 4h-23.18z"
     fill="#c18c16"
     id="path16" />
  <path
     d="m62 55v8h-60v-8l4-7 1 1 7-5h36l7 5z"
     fill="#a06c04"
     id="path18" />
  <path
     d="m60 61h-56v-5.47l2.61-4.57a1.973 1.973 0 0 0 1.55-.33l6.48-4.63h34.72l6.27 4.48 4.37 5.24z"
     fill="#a06c04"
     id="path20" />
  <g
     opacity=".3"
     id="g24">
    <path
       d="m62 55v8h-30v-52h1a3 3 0 0 1 3 3v16l3 6h2l7 8h2l7 5z"
       fill="#6d6e71"
       id="path22" />
  </g>
  <g
     fill="#f2b41c"
     id="g36">
    <path
       d="m10 63h-8v-8l4-8 4 8z"
       id="path26" />
    <path
       d="m23 63h-8v-8l4-8 4 8z"
       id="path28" />
    <path
       d="m36 63.083h-8v-8.041l4-8.042 4 8.042z"
       id="path30" />
    <path
       d="m49 63h-8v-8l4-8 4 8z"
       id="path32" />
    <path
       d="m62 55v8h-8v-8l2.02-4.05.98-1.95.91-1.81.09-.19.2.4z"
       id="path34" />
  </g>
  <path
     d="m 6,41.25 c 0.5522847,0 1,-0.447715 1,-1 V 36 C 7,34.666667 5,34.666667 5,36 v 4.25 c 0,0.552285 0.4477153,1 1,1 z"
     fill="#082944"
     id="path38"
     sodipodi:nodetypes="ssssss" />
  <path
     d="m 58,41.75 c 0.552285,0 1,-0.447715 1,-1 V 36 c 0,-1.333333 -2,-1.333333 -2,0 v 4.75 c 0,0.552285 0.447715,1 1,1 z"
     fill="#082944"
     id="path40"
     sodipodi:nodetypes="ssssss" />
  <path
     d="m 63,62 v -7 c 1.45e-4,-0.155127 -0.0358,-0.308161 -0.105,-0.447 L 59,46.764 V 41 c 0,-1.333333 -2,-1.333333 -2,0 v 5.764 l -0.371,0.742 -6.048,-4.32 C 50.411434,43.064999 50.208312,42.999972 50,43 h -1.546 l -6.7,-7.659 C 41.563694,35.123795 41.288781,34.999464 41,35 H 39.618 L 37,29.764 V 14 c 0,-2.209139 -1.790861,-4 -4,-4 V 1 c 0,-1.33333275 -2,-1.33333275 -2,0 v 9 c -2.209139,0 -4,1.790861 -4,4 v 10.75 c 0,1.333333 2,1.333333 2,0 V 19 h 6 v 10 h -6 v -4 c 0,-1.333333 -2,-1.333333 -2,0 v 4.764 L 24.382,35 H 23 c -0.288432,-2.47e-4 -0.562923,0.124058 -0.753,0.341 L 15.546,43 H 14 c -0.208312,-2.8e-5 -0.411434,0.065 -0.581,0.186 L 7.371,47.506 7,46.764 V 41 C 7,39.666667 5,39.666667 5,41 v 5.764 L 1.105,54.553 C 1.0358028,54.691839 0.99985527,54.844873 1,55 v 7 H 0 v 2 H 64 V 62 Z M 55.723,49.317 53.382,54 H 49.618 L 46,46.764 V 45 h 3.68 z M 50,56 h 3 v 6 h -3 z m -13,0 h 3 v 6 h -3 z m 3.382,-2 H 36.618 L 33,46.764 V 45 h 11 v 1.764 z M 29,17 v -3 c 0,-1.104569 0.895431,-2 2,-2 h 2 c 1.104569,0 2,0.895431 2,2 v 3 z m -0.382,14 h 6.764 l 2,4 H 26.618 Z m -5.164,6 h 17.092 l 3.463,3.957 C 44.009,40.972 44,40.984 44,41 v 2 H 33 v -3 c 0,-1.333333 -2,-1.333333 -2,0 v 3 h -4 c -1.333333,0 -1.333333,2 0,2 h 4 v 1.764 L 27.382,54 H 23.618 L 20,46.764 V 45 h 3 c 1.333333,0 1.333333,-2 0,-2 h -3 v -2 c 0,-0.015 -0.008,-0.028 -0.009,-0.043 z M 24,56 h 3 v 6 H 24 Z M 14.32,45 H 18 v 1.764 L 14.382,54 H 10.618 L 8.277,49.317 Z M 11,56 h 3 v 6 h -3 z m -8,6 v -6.764 l 3,-6 3,6 V 62 Z m 13,0 v -6.764 l 3,-6 3,6 V 62 Z m 13,0 v -6.764 l 3,-6 3,6 V 62 Z m 13,0 v -6.764 l 3,-6 3,6 V 62 Z m 13,0 v -6.764 l 3,-6 3,6 V 62 Z"
     fill="#082944"
     id="path42"
     sodipodi:nodetypes="ccccsscccccccccscsscsssccccsscccccccccssccccccccccccccccccccccccccccccccccssssccccccccccsccsscssccccccsscsccccccccccccccccccccccccccccccccccccccccccccccccc" />
  <path
     d="m36 41h1a1 1 0 0 0 0-2h-1a1 1 0 0 0 0 2z"
     fill="#082944"
     id="path44" />
  <path
     d="m40 41h1a1 1 0 0 0 0-2h-1a1 1 0 0 0 0 2z"
     fill="#082944"
     id="path46" />
</svg>
